/* XPM */
static char *link_75_xpm[] = {
/* width height num_colors chars_per_pixel */
"    19    30      256            2",
/* colors */
"`` c #cccccc",
"`. c #a2a2a2",
"`# c #989898",
"`a c #9c9c9c",
"`b c #9e9e9e",
"`c c #909090",
"`d c #9b9b9b",
"`e c #bababa",
"`f c #97999b",
"`g c #313235",
"`h c #959595",
"`i c #1a1a1a",
"`j c #000000",
"`k c #181818",
"`l c #aaaaaa",
"`m c #cacbcc",
"`n c #626568",
"`o c #222325",
"`p c #595959",
"`q c #999999",
"`r c #979797",
"`s c #919191",
"`t c #a8a8a8",
"`u c #323232",
"`v c #0a0a0a",
"`w c #9d9d9d",
"`x c #cdcdcd",
"`y c #a8b3c1",
"`z c #1a1d23",
"`A c #35383b",
"`B c #1a1c1e",
"`C c #a2a7ac",
"`D c #3c3c3c",
"`E c #060606",
"`F c #ced0d2",
"`G c #4b5665",
"`H c #0d0e0f",
"`I c #40424a",
"`J c #191b1e",
"`K c #666e7b",
"`L c #bec1c6",
"`M c #cacacb",
"`N c #3d3d3d",
"`O c #a2b0c1",
"`P c #21262b",
"`Q c #171919",
"`R c #1b1e20",
"`S c #080b0b",
"`T c #141a1e",
"`U c #ccced1",
"`V c #d0d0d0",
"`W c #434343",
"`X c #0b0b0b",
"`Y c #b3b3b3",
"`Z c #617288",
"`0 c #1b2024",
"`1 c #50555a",
"`2 c #7c8b9e",
"`3 c #4a5867",
"`4 c #0c1012",
"`5 c #c5c6c8",
"`6 c #d0d0d1",
"`7 c #363636",
"`8 c #0e0e0e",
".` c #b2b2b2",
".. c #5b6b7c",
".# c #171c21",
".a c #adafb4",
".b c #8e9baf",
".c c #131619",
".d c #c9c9cb",
".e c #3e3e3e",
".f c #0c0c0c",
".g c #657486",
".h c #141b21",
".i c #afb0b3",
".j c #93a2b1",
".k c #121416",
".l c #c9c9ca",
".m c #0d0d0d",
".n c #8191a2",
".o c #1b2227",
".p c #9d9da4",
".q c #778797",
".r c #0e1112",
".s c #cacacc",
".t c #a1a1a1",
".u c #a4b1bf",
".v c #323a42",
".w c #52535c",
".x c #050606",
".y c #1b1c1c",
".z c #cecece",
".A c #404040",
".B c #070707",
".C c #9f9f9f",
".D c #caced1",
".E c #4c5e6a",
".F c #141717",
".G c #050405",
".H c #1d1c1c",
".I c #828388",
".J c #cccdcd",
".K c #080808",
".L c #bec6cd",
".M c #10181b",
".N c #101011",
".O c #8c8f99",
".P c #cdced0",
".Q c #3b3b3b",
".R c #788794",
".S c #2b2d30",
".T c #a0a0ab",
".U c #cececf",
".V c #8c99a5",
".W c #36373a",
".X c #6c6e75",
".Y c #7a7a82",
".Z c #acacac",
".0 c #c8cccf",
".1 c #0f1316",
".2 c #1d1d1e",
".3 c #6f7279",
".4 c #5e646a",
".5 c #cacccf",
".6 c #cecfcf",
".7 c #3a3a3a",
".8 c #cfd0d0",
"#` c #76838d",
"#. c #1b1c1f",
"## c #2d2f34",
"#a c #1e2222",
"#b c #13181b",
"#c c #bbbdc3",
"#d c #cfcfd0",
"#e c #393939",
"#f c #cfd0d1",
"#g c #535f65",
"#h c #424145",
"#i c #b9bec1",
"#j c #adb7bc",
"#k c #161f22",
"#l c #b4b6bc",
"#m c #ceced0",
"#n c #414141",
"#o c #a0a0a0",
"#p c #4e5c64",
"#q c #535558",
"#r c #20292f",
"#s c #a5a4ad",
"#t c #cccbce",
"#u c #424242",
"#v c #cccdce",
"#w c #5d6e73",
"#x c #464b4f",
"#y c #cecfd0",
"#z c #c6c8ca",
"#A c #192225",
"#B c #9a9aa3",
"#C c #c8c8cc",
"#D c #c2c4c5",
"#E c #71828a",
"#F c #505259",
"#G c #aaacb4",
"#H c #494f54",
"#I c #07080a",
"#J c #a3a2aa",
"#K c #ccccce",
"#L c #afafaf",
"#M c #aeb9bd",
"#N c #3c4248",
"#O c #2a2a2d",
"#P c #050404",
"#Q c #1e1d20",
"#R c #cacace",
"#S c #313131",
"#T c #505d62",
"#U c #070809",
"#V c #3e3d40",
"#W c #c4c5c9",
"#X c #cdcdce",
"#Y c #bfc6ca",
"#Z c #12181a",
"#0 c #646168",
"#1 c #232323",
"#2 c #0f0f0f",
"#3 c #b6b6b6",
"#4 c #c5cacc",
"#5 c #272f31",
"#6 c #77747a",
"#7 c #000000",
"#8 c #000000",
"a` c #000000",
"a. c #000000",
"a# c #000000",
"aa c #000000",
"ab c #000000",
"ac c #000000",
"ad c #000000",
"ae c #000000",
"af c #000000",
"ag c #000000",
"ah c #000000",
"ai c #000000",
"aj c #000000",
"ak c #000000",
"al c #000000",
"am c #000000",
"an c #000000",
"ao c #000000",
"ap c #000000",
"aq c #000000",
"ar c #000000",
"as c #000000",
"at c #000000",
"au c #000000",
"av c #000000",
"aw c #000000",
"ax c #000000",
"ay c #000000",
"az c #000000",
"aA c #000000",
"aB c #000000",
"aC c #000000",
"aD c #000000",
"aE c #000000",
"aF c #000000",
"aG c #000000",
"aH c #000000",
"aI c #000000",
"aJ c #000000",
"aK c #000000",
"aL c #000000",
"aM c #000000",
"aN c #000000",
"aO c #000000",
"aP c #000000",
"aQ c #000000",
"aR c #000000",
"aS c #000000",
"aT c #000000",
"aU c #000000",
"aV c #000000",
"aW c #000000",
"aX c #000000",
"aY c #000000",
"aZ c #000000",
"a0 c #000000",
"a1 c #000000",
"a2 c #000000",
"a3 c #000000",
"a4 c #000000",
"a5 c #000000",
"a6 c #000000",
"a7 c #000000",
"a8 c #000000",
/* pixels */
"``````````````````````````````````````",
"``````````````````````````````````````",
"``````````````````````````````````````",
"```.`#`a`a`a`a`b`c`d`e`````f`g`h``````",
"```i`j`j`j`j`j`j`j`k`l```m`n`o`p``````",
"```.`q`r`s`b`a`t`u`v`w`x`y`z`A`B`C````",
"`````````````````D`E`w`F`G`H`I`J`K`L`M",
"`````````````````N`v`t`O`P`Q`R`S`T`U`V",
"`````````````````W`X`Y`Z`0`1`2`3`4`5`6",
"`````````````````7`8.`...#.a``.b.c.d`V",
"````````````````.e.f.`.g.h.i``.j.k.l`V",
"`````````````````D.m.`.n.o.p``.q.r.s`6",
"`````````````````7`v.t.u.v.w`P.x.y`m.z",
"````````````````.A.B.C.D.E.F.G.H.I.J``",
"`````````````````D.K.t``.L.M.N.O.P````",
"````````````````.Q.m`Y````.R.S.T.U````",
"````````````````.e`v`t````.V.W.X.Y.J``",
"````````````````.A`v.Z``.0.1.2.3.4.5.6",
"````````````````.7.K`..8#`#.###a#b#c#d",
"````````````````#e.K.C#f#g#h#i#j#k#l#m",
"````````````````#n`E#o`6#p#q.U.z#r#s#t",
"````````````````#u.B#o#v#w#x#y#z#A#B#C",
"````````````````#u.B.C#D#E#F#G#H#I#J#K",
"````````````````#u`X#L``#M#N#O#P#Q#R#d",
"```.`#`a`a`a`a`t#S`8.```.U#T#U#V#W#X``",
"```i`j`j`j`j`j`j`j`i.`````#Y#Z#0``````",
"``#1`j`X`X`X`X`v#2#S#3````#4#5#6``````",
"``````````````````````````````````````",
"``````````````````````````````````````",
"``````````````````````````````````````"
};
