/* XPM */
static char *dibujo[] = {
/* columns rows colors chars-per-pixel */
"20 20 107 2",
"   c #000000",
".  c #190000",
"X  c #1F0707",
"o  c #230B0B",
"O  c #240C0C",
"+  c #330000",
"@  c #3D0C0C",
"#  c #3E0E0E",
"$  c #4D2020",
"%  c #512626",
"&  c #572D2D",
"*  c #5D3434",
"=  c #9A8360",
"-  c #758390",
";  c #7591AD",
":  c #9D9E9D",
">  c #B59F9F",
",  c #A6A49C",
"<  c #979DAD",
"1  c #9FA9AE",
"2  c #9CA2B0",
"3  c #90ADBF",
"4  c #A4A4A0",
"5  c #A5ADAD",
"6  c #B1AEA2",
"7  c #BAADAD",
"8  c #B6B4AC",
"9  c #BABAAD",
"0  c #A8A7B6",
"q  c #A7AFB4",
"w  c #B1ABBA",
"e  c #A9B7BA",
"r  c #BBBAB6",
"t  c #BFBFBF",
"y  c #DB999B",
"u  c #CAA6A0",
"i  c #D7ADAD",
"p  c #DCACAC",
"a  c #C0B3A5",
"s  c #CAB0B0",
"d  c #CBB9B3",
"f  c #C7BFBA",
"g  c #C2BFBF",
"h  c #C4BEBE",
"j  c #C5BEBE",
"k  c #CBB8B8",
"l  c #CBBCBC",
"z  c #D4B1B1",
"x  c #D8B4B4",
"c  c #DBBDBA",
"v  c #E5A2A2",
"b  c #E6A2A2",
"n  c #E5A4A4",
"m  c #E7A9A9",
"M  c #EFAFAF",
"N  c #EAB6AD",
"B  c #E2B3B2",
"V  c #E3B7B5",
"C  c #E5B7B7",
"Z  c #E3BAB6",
"A  c #C0C0B3",
"S  c #D7CFBC",
"D  c #A5B3C0",
"F  c #ADBAC0",
"G  c #B1B1C6",
"H  c #B7BDCC",
"J  c #B3B9D9",
"K  c #C6BCC1",
"L  c #BECBD1",
"P  c #ADD8E8",
"I  c #BFE3F4",
"U  c #C2C2C2",
"Y  c #C4C0C0",
"T  c #C3C6C0",
"R  c #C5C5C5",
"E  c #C8C8C8",
"W  c #CBCBCB",
"Q  c #CDCDCD",
"!  c #CFCFCF",
"~  c #D6D4CC",
"^  c #D4D9CC",
"/  c #C5D3DF",
"(  c #D8D7D1",
")  c #DADAD5",
"_  c #DFDFDF",
"`  c #E6D4D4",
"'  c #EAD5D5",
"]  c #EDD9D9",
"[  c #EFDEDE",
"{  c #FFD7D7",
"}  c #FFDBDB",
"|  c #E7E5D7",
" . c #EFF7D6",
".. c #CED0F0",
"X. c #E5E5E5",
"o. c #F5F4EB",
"O. c #E9EEFA",
"+. c #F0F0F0",
"@. c #F4F4F2",
"#. c #F7F7F3",
"$. c #F7F7F7",
"%. c #FFF2F2",
"&. c #F8F7F5",
"*. c #F1F4FB",
"=. c #F7FFFF",
"-. c #FFFAFA",
";. c #FFFFFF",
/* pixels */
"  . + + + U g 6 | o.Q I =. .t ;.;.;.;.;.",
"  . + + + U g ;.;.;.;.;.;.;.;.;.;.;.;.;.",
"  . + + + U U ;.;.;.;.;.;.;.;.;.;.;.;.;.",
"  . + + + A H ;.;.;.;.;.;.;.;.;.;.;.;.' ",
"  . + + + L A ;.;.;.;.;.;.;.;.;.;.;.%.] ",
"  X # # + f U ;.;.;.;.;.;.;.;.;.;.;.{ #.",
"  O % & $ W E ;.;.;.;.;.;.;.;.;.;.} -.[ ",
"  o & * & W Q J q ..R #.4 : T P g B f d ",
"  . + + + t t t z k U L f t K t i j L > ",
"  . + + + t U , V F Q _ ) _ _ ` N < H ) ",
"  . + + + k U w c U r 8 8 8 8 N u 8 8 6 ",
"  . + + + v U s D A t t A H K y d t L L ",
"+ + + + + v g x A E ( ( 0 ~ ( Z j L ^ ( ",
"+ + + + + v C ^ / M M e X._ _ [ _ _ ] _ ",
"U t U t f v p t R K t t t t L r t t f H ",
"t t U t H m Z x g L _ G _ _ _ _ _ _ _ [ ",
"W W W 7 X.k k U L A X.S _ _ ( ] | _ Q ~ ",
"$.+.$.;.$.g A L K U - q < ; 7 / 9 9 9 = ",
"$.+.$.;.$.U r K H A 2 : _ ( H K 3 1 ) ) ",
"$.#.#.*.O.U A H U A A K t t r A t L g g "
};
