/* XPM */
static char *eye_grayed_icon[] = {
/* columns rows colors chars-per-pixel */
"20 20 125 2",
"   c #3A3A3A",
".  c #454545",
"X  c #474647",
"o  c #45494A",
"O  c #4A4A4B",
"+  c #4B4B4B",
"@  c #4B4D4D",
"#  c #424A50",
"$  c #454D53",
"%  c #4D5153",
"&  c #4A5156",
"*  c #4F5659",
"=  c #505051",
"-  c #535A5E",
";  c #5D5D5D",
":  c #5F5D5D",
">  c #525C62",
",  c #555C61",
"<  c #565C60",
"1  c #535F67",
"2  c #576268",
"3  c #616161",
"4  c #646464",
"5  c #656566",
"6  c #666666",
"7  c #676767",
"8  c #6B6B6B",
"9  c #6D6868",
"0  c #6D6A6A",
"q  c #6D6D6D",
"w  c #6D6C6E",
"e  c #716C6C",
"r  c #706F6F",
"t  c #706E71",
"y  c #6F787E",
"u  c #707070",
"i  c #717171",
"p  c #737071",
"a  c #737072",
"s  c #737373",
"d  c #767172",
"f  c #727576",
"g  c #757575",
"h  c #767676",
"j  c #777777",
"k  c #7B7777",
"l  c #7B7778",
"z  c #70787D",
"x  c #787878",
"c  c #797878",
"v  c #7B797A",
"b  c #7A7A7A",
"n  c #7B7B7B",
"m  c #7D7878",
"M  c #7C797A",
"N  c #7B7C7C",
"B  c #7E7E7E",
"V  c #7F7F7F",
"C  c #807B7B",
"Z  c #837E7E",
"A  c #808080",
"S  c #818181",
"D  c #838080",
"F  c #838383",
"G  c #848484",
"H  c #858484",
"J  c #858585",
"K  c #868484",
"L  c #878484",
"P  c #868686",
"I  c #8B8585",
"U  c #85898B",
"Y  c #86888A",
"T  c #868A8C",
"R  c #88898A",
"E  c #8A8A8A",
"W  c #8F8A8A",
"Q  c #8D8C8C",
"!  c #8D8D8D",
"~  c #8E8C8C",
"^  c #8F8C8C",
"/  c #8E8D8D",
"(  c #8F8D8D",
")  c #8C8D8E",
"_  c #8E8E8E",
"`  c #908888",
"'  c #8F9191",
"]  c #909090",
"[  c #919191",
"{  c #939191",
"}  c #909192",
"|  c #919292",
" . c #979292",
".. c #959595",
"X. c #969697",
"o. c #979797",
"O. c #989898",
"+. c #999999",
"@. c #9A9A9A",
"#. c #9B9B9B",
"$. c #9C9898",
"%. c #9C9C9C",
"&. c #9D9D9D",
"*. c #A1A1A1",
"=. c #A3A3A3",
"-. c #A6A6A6",
";. c #AAA5A5",
":. c #AEA8A8",
">. c #B8ADAD",
",. c #B3B3B3",
"<. c #BFB4B4",
"1. c #BBBBBB",
"2. c #C3C3C3",
"3. c #C5C5C5",
"4. c #CDC2C2",
"5. c #D5C8C8",
"6. c #DDD1D1",
"7. c #ECECEC",
"8. c #F2E4E4",
"9. c #F3E4E4",
"0. c #F4E5E5",
"q. c #FDEEEE",
"w. c #FFF0F0",
"e. c #F8F8F8",
"r. c None",
/* pixels */
"r.r.r.r.r.r.r.r.r.r.r.r.r.r.r.r.r.r.r.r.",
"r.r.r.r.r.r.r.r.r.r.r.r.r.r.r.r.r.r.r.r.",
"r.r.r.r.r.r.r.r.r.r.r.r.r.r.r.r.r.r.r.r.",
"r.r.r.r.r.r.r.r.r.r.g N Z N F 7 r.r.r.r.",
"r.r.r.r.r.r.r.6 N +.+.+.+.+.V J r.r.r.r.",
"r.r.r.r.r.r.F +.F i i i g J +.+.+.J s r.",
"r.r.r.r.i o.g 6 F R ] J 4 O Z ;.] +.+.x ",
"r.r.r.g o.; c o.&.#.&.+.Q 6 X 5.0.Q 8 r.",
"r.r.u +.r @ Q +.+.*.2.3.-.R o ` 0.Q r.r.",
"r.r.w Q : < ] #.+.=.7.e.,.] * M 4.` r.r.",
"r.  A 6.: 4 ] &.+.+.1.3.*.) 2 t :.#.r.r.",
"r.w k q.e = Q +.+.+.+.%.%.U 2 d Q r.r.r.",
"r.J r.w.>.X c +.%.+.+.&.X.y $  .Q r.r.r.",
"s N r.w.q.0 @ f Y ' ' T y # D H r.r.r.r.",
"r.r.r.r.w.0.d % - < , > & l l r.r.r.r.r.",
"r.r.r.r.r.w.8.<.d c w 0 r r.r.r.r.r.r.r.",
"r.r.r.r.r.r.M ` I C k r.r.r.r.r.r.r.r.r.",
"r.r.r.r.r.r.r.r.r.r.r.r.r.r.r.r.r.r.r.r.",
"r.r.r.r.r.r.r.r.r.r.r.r.r.r.r.r.r.r.r.r.",
"r.r.r.r.r.r.r.r.r.r.r.r.r.r.r.r.r.r.r.r."
};
