/* XPM */
static char *icon_icon[] = {
/* columns rows colors chars-per-pixel */
"20 20 226 2",
"   c #010100",
".  c #020000",
"X  c #020100",
"o  c #040000",
"O  c #0A0602",
"+  c #0B0702",
"@  c #0C0702",
"#  c #0D0802",
"$  c #0E0802",
"%  c #0E0903",
"&  c #0F0A03",
"*  c #0D0904",
"=  c #100100",
"-  c #130B03",
";  c #160E04",
":  c #1E0F04",
">  c #100D08",
",  c #191005",
"<  c #1C1106",
"1  c #11100F",
"2  c #11110F",
"3  c #14100C",
"4  c #131313",
"5  c #141414",
"6  c #151515",
"7  c #1D1710",
"8  c #181818",
"9  c #191919",
"0  c #1B1B1B",
"q  c #1F1C19",
"w  c #2A0901",
"e  c #3C0A01",
"r  c #241606",
"t  c #251607",
"y  c #2D1C08",
"u  c #321F09",
"i  c #221E1B",
"p  c #342009",
"a  c #352109",
"s  c #372209",
"d  c #37200A",
"f  c #37220A",
"g  c #30200D",
"h  c #37240E",
"j  c #282017",
"k  c #252019",
"l  c #262018",
"z  c #382712",
"x  c #202020",
"c  c #242424",
"v  c #272727",
"b  c #2F2A23",
"n  c #282828",
"m  c #292929",
"M  c #2E2D2A",
"N  c #2C2C2C",
"B  c #372D23",
"V  c #362F27",
"C  c #3E352B",
"Z  c #303030",
"A  c #333333",
"S  c #343434",
"D  c #353535",
"F  c #3A3631",
"G  c #383838",
"H  c #3C3C3C",
"J  c #4E1503",
"K  c #621902",
"L  c #771901",
"P  c #41280C",
"I  c #43290C",
"U  c #4B2E0D",
"Y  c #502D0C",
"T  c #50320E",
"R  c #52330F",
"E  c #58370F",
"W  c #523311",
"Q  c #5A3710",
"!  c #623C11",
"~  c #643E12",
"^  c #663F12",
"/  c #453D34",
"(  c #6C4213",
")  c #734715",
"_  c #7A4B16",
"`  c #7D4D16",
"'  c #7F4F17",
"]  c #5C4124",
"[  c #4C463E",
"{  c #574633",
"}  c #624D34",
"|  c #6C5030",
" . c #404040",
".. c #424242",
"X. c #444444",
"o. c #4B4B4B",
"O. c #515151",
"+. c #555555",
"@. c #5A5A5A",
"#. c #5E5E5E",
"$. c #615A53",
"%. c #615F5D",
"&. c #796045",
"*. c #7F6A51",
"=. c #606060",
"-. c #656565",
";. c #696969",
":. c #6C6C6C",
">. c #707070",
",. c #767676",
"<. c #777777",
"1. c #7C7C7C",
"2. c #7E7E7E",
"3. c #8E1300",
"4. c #801B01",
"5. c #8E1D00",
"6. c #941300",
"7. c #A41500",
"8. c #B91800",
"9. c #C71900",
"0. c #804F17",
"q. c #825117",
"w. c #835117",
"e. c #815118",
"r. c #835118",
"t. c #835218",
"y. c #865318",
"u. c #895518",
"i. c #8C5619",
"p. c #8D5719",
"a. c #8E5A1F",
"s. c #8C5F2C",
"d. c #915E22",
"f. c #925F24",
"g. c #8C602D",
"h. c #936026",
"j. c #946227",
"k. c #95642A",
"l. c #90632E",
"z. c #96652C",
"x. c #97662E",
"c. c #89653D",
"v. c #956834",
"b. c #9A6B34",
"n. c #8E6B43",
"m. c #85735E",
"M. c #A17542",
"N. c #A27643",
"B. c #A37745",
"V. c #8B7660",
"C. c #8D7F6F",
"Z. c #857B70",
"A. c #AB8355",
"S. c #AC8457",
"D. c #AD8659",
"F. c #8E877E",
"G. c #9B8872",
"H. c #A88864",
"J. c #B49168",
"K. c #B6936B",
"L. c #A68D70",
"P. c #BE9F7C",
"I. c #BFA17E",
"U. c #838383",
"Y. c #868686",
"T. c #8E8E8E",
"R. c #938F8A",
"E. c #92908F",
"W. c #9F978E",
"Q. c #989898",
"!. c #A59581",
"~. c #A39587",
"^. c #AD9C89",
"/. c #B4A088",
"(. c #ADA396",
"). c #BFAA92",
"_. c #A2A2A2",
"`. c #A4A4A4",
"'. c #A5A5A5",
"]. c #A6A6A6",
"[. c #A9A8A7",
"{. c #ABAAA8",
"}. c #B2AFAD",
"|. c #B7B3AF",
" X c #B0B0B0",
".X c #B7B7B7",
"XX c #BAB9B8",
"oX c #C3AC92",
"OX c #C8AE90",
"+X c #C9AF92",
"@X c #CAB194",
"#X c #C1B4A6",
"$X c #D3BEA6",
"%X c #D4BFA8",
"&X c #D6C2AC",
"*X c #DDCCBA",
"=X c #DDCEBB",
"-X c #C2C2C2",
";X c #C3C3C3",
":X c #C4C4C4",
">X c #CBCAC9",
",X c #CBCBCB",
"<X c #D7D7D7",
"1X c #D8D8D8",
"2X c #DDDDDD",
"3X c #DFDEDD",
"4X c #DFDFDF",
"5X c #E1D5C6",
"6X c #E6DACC",
"7X c #E0E0E0",
"8X c #E1E1E1",
"9X c #E2E2E2",
"0X c #E3E3E3",
"qX c #E6E6E6",
"wX c #E7E7E7",
"eX c #EBEBEB",
"rX c #EEEEEE",
"tX c #EFEFEF",
"yX c #F1F1F1",
"uX c #F4F4F4",
"iX c #F5F5F5",
"pX c #F6F6F6",
"aX c #F7F7F7",
"sX c #F9F9F9",
"dX c #FBFBFB",
"fX c None",
/* pixels */
"fXfXfXfXfXfXfXfXfXfXfXfXfXfXfXfXfXfXfXfX",
"fXfXfXfXfXfXfXfXfXfXfXfXfXfXfX> F fXfXfX",
"fXfXfXfXfXfXfXfXfXfXfXfXfXfXfXC.#X* fXfX",
"fXfX  fXfXfXfXfXfXfXfXfXfXfXk 5X6XB fXfX",
"fXfX2 * fXfXfXfXfX@.].XXU.i ).=X*XG.fXfX",
"fXfX[ ^.3 fXfXfX1.iXdXiXiX>X~.%X$XoX$ fX",
"fXfX/ &X!.%.[.#.8XyXtXwXeXwXR.@X+X+Xj fX",
"fXfXC /.3XdXdX_.0XwX:XD  X8XXXL.I.P.{ fX",
"fXfXB (.uXtX<X_.4X8X1X>.,X4X{.H.K.J.} fX",
"fXfXi W.eX>X,.-X.X3X4X4X4X4XZ.D.S.A.| fX",
"fXfXM $.1.;XwXwXE.}.4X4X3XF.n.B.N.N.] fX",
"fX<.T.-.o. .].|.V.c.*.m.&.v.b.l.s.x.z fX",
"=.Q.-.X.H A B s.z.k.h.f.f.d.d.W , e.; fX",
":.Y...G Z v 9 e.i.i.u.y.e.' U O f ^ * fX",
"O.;.D N c 0 7 r.r.0._ ) I ;   O ^ f fXfX",
"m +.m i 8 4 h _ ) u r @ o =   t T @ fXfX",
"fX9 6 5 1 y ( Q w 6.8.7.6.9.e T - fXfXfX",
"fXfXfXfXO r Q ~ U K L 5.L J P O fXfXfXfX",
"fXfXfXfXfXfX* - f f u u u - O fXfXfXfXfX",
"fXfXfXfXfXfXfXfXfXfXfXfXfXfXfXfXfXfXfXfX"
};
