/* XPM */
static char *landscape_[] = {
/* columns rows colors chars-per-pixel */
"20 20 196 2",
"   c #3F7D04",
".  c #3F7E04",
"X  c #6B590C",
"o  c #74590D",
"O  c #407F04",
"+  c #407F05",
"@  c #477C04",
"#  c #646F03",
"$  c #756701",
"%  c #7A6701",
"&  c #7A6502",
"*  c #7B6D06",
"=  c #64700F",
"-  c #6B740D",
";  c #727302",
":  c #7B7301",
">  c #7A7501",
",  c #757902",
"<  c #736E69",
"1  c #846403",
"2  c #826902",
"3  c #3E8504",
"4  c #369201",
"5  c #3D9400",
"6  c #359B05",
"7  c #30A702",
"8  c #3BA100",
"9  c #3FA002",
"0  c #32AA01",
"q  c #36AB00",
"w  c #2FB300",
"e  c #3FBC00",
"r  c #448502",
"t  c #418104",
"y  c #408304",
"u  c #428205",
"i  c #4B8303",
"p  c #458905",
"a  c #478B07",
"s  c #488E05",
"d  c #5B8B0F",
"f  c #4B9306",
"g  c #4B9506",
"h  c #4E9A06",
"j  c #4E9A07",
"k  c #4B930E",
"l  c #4F900F",
"z  c #529000",
"x  c #579707",
"c  c #56920F",
"v  c #509B0A",
"b  c #57990E",
"n  c #498611",
"m  c #538A16",
"M  c #529210",
"N  c #589110",
"B  c #559810",
"V  c #658801",
"C  c #728901",
"Z  c #759B01",
"A  c #45A900",
"S  c #55A301",
"D  c #54A507",
"F  c #55A900",
"G  c #5AA60C",
"H  c #5BAC0A",
"J  c #5CAC0A",
"K  c #4FB100",
"L  c #4DB601",
"P  c #40B900",
"I  c #50B101",
"U  c #50B200",
"Y  c #57B101",
"T  c #58B004",
"R  c #5ABB00",
"E  c #5ABC00",
"W  c #54A01A",
"Q  c #61A40A",
"!  c #61BD02",
"~  c #63BF02",
"^  c #60B805",
"/  c #5BAA23",
"(  c #48A831",
")  c #56A133",
"_  c #5CA83B",
"`  c #71AE38",
"'  c #50C100",
"]  c #52C100",
"[  c #51C300",
"{  c #5FC300",
"}  c #5FC400",
"|  c #63C101",
" . c #63C102",
".. c #66C300",
"X. c #60C400",
"o. c #65C601",
"O. c #66C701",
"+. c #62C900",
"@. c #64C800",
"#. c #65C801",
"$. c #67C901",
"%. c #67CB00",
"&. c #67CF00",
"*. c #68CB02",
"=. c #68CD00",
"-. c #6BD200",
";. c #76975E",
":. c #51A642",
">. c #8CBE61",
",. c #8ABD66",
"<. c #89A773",
"1. c #88A174",
"2. c #92AE7C",
"3. c #96C470",
"4. c #9BC179",
"5. c #57AF86",
"6. c #4EB183",
"7. c #67B995",
"8. c #7696A7",
"9. c #55B9AA",
"0. c #63B8A5",
"q. c #72C3A3",
"w. c #20B7F6",
"e. c #27B9F6",
"r. c #2BBBF7",
"t. c #31BDF7",
"y. c #37BEF7",
"u. c #37BFF8",
"i. c #6CBEDD",
"p. c #7ECFD5",
"a. c #45C2F7",
"s. c #4EC6F4",
"d. c #42C3F8",
"f. c #46C4F8",
"g. c #4EC7F9",
"h. c #5EC6F2",
"j. c #59CBFA",
"k. c #5ECCFA",
"l. c #77C6E8",
"z. c #7BD1E5",
"x. c #78D2ED",
"c. c #68CAF1",
"v. c #62CEFA",
"b. c #67CDF8",
"n. c #64CEFB",
"m. c #67CFFB",
"M. c #68CFFA",
"N. c #70D2FB",
"B. c #74D3FB",
"V. c #7DD6FB",
"C. c #878F8E",
"Z. c #989F9F",
"A. c #A6AB9F",
"S. c #A6B09B",
"D. c #8291AA",
"F. c #8EAFB5",
"G. c #85ACB9",
"H. c #AFB0AC",
"J. c #B6B2AF",
"K. c #AAA9B4",
"L. c #A9BABF",
"P. c #B8BFB0",
"I. c #B8B8B5",
"U. c #A3C3CE",
"Y. c #ACC3CA",
"T. c #BFC0C0",
"R. c #BDC4C5",
"E. c #A6D2C0",
"W. c #9EDCE3",
"Q. c #82D6F9",
"!. c #82D7FA",
"~. c #87D8F9",
"^. c #83D8FC",
"/. c #89D9FB",
"(. c #AFD4E1",
"). c #A8D7E9",
"_. c #A3E2FD",
"`. c #B9E8FC",
"'. c #C6C6C6",
"]. c #CBCCC9",
"[. c #CDD8DC",
"{. c #D9DBD7",
"}. c #CCE3C1",
"|. c #DCE7D4",
" X c #D6EBDE",
".X c #C5ECFC",
"XX c #D1EEFB",
"oX c #D4F0FB",
"OX c #E6F3ED",
"+X c #E9F6FC",
"@X c #EFF8F9",
"#X c #F0F7F0",
"$X c #F8FBFD",
"%X c #FBFCFD",
"&X c #FCFDFD",
"*X c #FDFDFD",
/* pixels */
"w.w.w.w.e.a.~.Q.y.w.w.w.w.w.w.w.w.w.w.w.",
"r.r.t.oX$X$X&X$X$X.Xb.r.r.r.r.r.r.r.r.r.",
"u.u.d.+X&X&X&X&X&X&X/.y.y.y.y.y.u.u.u.u.",
"d.d.d.d.z.>.#X$X$X_.a.a.d.d.d.a.d.g.f.d.",
"g.g.g.s.6.j :.v.g.g.g.g.g.g.g.g.`.*X*X^.",
"j.j.k.7.f f g 9.j.j.j.j.j.h.8.c.i.K.XXv.",
"M._. Xa a a s 5.n.n.n.M.n.N.Y.'.C.G.n.n.",
"V.}.` u   t   0.B.^.B.N.N.8.(.J.< l.D.N.",
"x.B j O . . . E.@X3.` W.^.U.[.R.Z.L.F.B.",
"p.) k O . . . |.4.f s ,.OX).T.H.A.<.B q.",
"0 a 3 O .   n / 4 @ . 5 6 ( {.].S.j j _ ",
"w 3 . . . # 0 q 8 i r 6 8 8 A.I.P.v g / ",
"e 9 i @ u ; e e P V z A A 5 ;.1.2.m , Y ",
"[ [ C $ L : ' ' ] ] F I K K K I K S > K ",
"+.#.Z & X.2 } X.X.+.+.X.E E E T D x * R ",
"%.#.Z & ..1 o.@.%.@.=.@.@.| | B M l N ! ",
"#.H - X Q o G J o.=.*.+.X.o.o...^ ^  .o.",
" .B N d B = B b R *.O.o.=.@.=.@.=.o.=.@.",
"+.*.@.@.*.*.@.=.@.*.*.*.=.=.=.-.=.=.=.-.",
"-.-.-.-.-.-.-.-.-.-.-.-.-.-.-.-.*.%.-.-."
};
