/* XPM */
static char *lock_ok_icon[] = {
/* columns rows colors chars-per-pixel */
"20 20 146 2",
"   c #000000",
".  c #010101",
"X  c #030300",
"o  c #070600",
"O  c #080500",
"+  c #080600",
"@  c #080704",
"#  c #181509",
"$  c #121212",
"%  c #1A1811",
"&  c #1F1C15",
"*  c #1D1D1D",
"=  c #1E1E1E",
"-  c #281B00",
";  c #201C0A",
":  c #042B04",
">  c #0D260A",
",  c #0C320C",
"<  c #0A3E09",
"1  c #0B3C0B",
"2  c #162C12",
"3  c #26210F",
"4  c #322E00",
"5  c #2A3104",
"6  c #2A2512",
"7  c #252219",
"8  c #2B2B2B",
"9  c #2C2C2C",
"0  c #373737",
"q  c #393939",
"w  c #442E00",
"e  c #403F3B",
"r  c #0B430B",
"t  c #115909",
"y  c #215409",
"u  c #255F0A",
"i  c #31741A",
"p  c #307B2E",
"a  c #654E00",
"s  c #6A5400",
"d  c #655F07",
"f  c #6E5A00",
"g  c #7E5500",
"h  c #745F08",
"j  c #736000",
"k  c #786700",
"l  c #7A6703",
"z  c #7E6E00",
"x  c #7E7000",
"c  c #4B4220",
"v  c #474747",
"b  c #4A4A4A",
"n  c #545454",
"m  c #605E5A",
"M  c #606060",
"N  c #616161",
"B  c #636363",
"V  c #686868",
"C  c #6A6A6A",
"Z  c #6E6E6E",
"A  c #707070",
"S  c #797979",
"D  c #986600",
"F  c #987C01",
"G  c #B07900",
"H  c #308C21",
"J  c #38862B",
"K  c #2F9D29",
"L  c #2AA52A",
"P  c #30AD2C",
"I  c #23C323",
"U  c #29CD29",
"Y  c #2DD22D",
"T  c #31CB31",
"R  c #30D430",
"E  c #35D635",
"W  c #34DF34",
"Q  c #49D949",
"!  c #9F8719",
"~  c #958B2B",
"^  c #D18C00",
"/  c #C49000",
"(  c #CB9A03",
")  c #E79B00",
"_  c #EB9D00",
"`  c #DBAE00",
"'  c #C8B701",
"]  c #D7B103",
"[  c #ECA300",
"{  c #EEAA00",
"}  c #EEAB04",
"|  c #EAB500",
" . c #E8BD00",
".. c #E9B30E",
"X. c #F0B000",
"o. c #F1B600",
"O. c #F1B702",
"+. c #F0BA00",
"@. c #F1B40C",
"#. c #F2BC14",
"$. c #C09B29",
"%. c #E0CE0B",
"&. c #F5C300",
"*. c #F5C800",
"=. c #F6C900",
"-. c #F8CF00",
";. c #FAD500",
":. c #FBDB00",
">. c #F4C31C",
",. c #E2D11A",
"<. c #FDE200",
"1. c #FDE308",
"2. c #FDE51A",
"3. c #F6CB24",
"4. c #E4D428",
"5. c #F8D22C",
"6. c #E6D737",
"7. c #F9D934",
"8. c #FBDF3C",
"9. c #E8DA45",
"0. c #E8DA4C",
"q. c #E9DB4C",
"w. c #FCE545",
"e. c #FCEC6C",
"r. c #8A8A8A",
"t. c #8B8B8B",
"y. c #96948F",
"u. c #A1A1A1",
"i. c #A7A7A7",
"p. c #AAA9A2",
"a. c #A9A9A9",
"s. c #ACACAC",
"d. c #BDBDBD",
"f. c #C2C2C2",
"g. c #C5C5C5",
"h. c #C6C6C6",
"j. c #CBCBCB",
"k. c #CCCCCC",
"l. c #D5D3CE",
"z. c #D1D1D1",
"x. c #D2D2D2",
"c. c #D3D3D3",
"v. c #D5D5D5",
"b. c #DBDAD4",
"n. c #D8D8D8",
"m. c None",
/* pixels */
"m.m.m.m.m.m.m.m.m.m.m.m.m.m.m.m.m.m.m.m.",
"m.m.m.m.m.m.m.* B S V q m.m.m.m.m.m.m.m.",
"m.m.m.m.m.m.N h.v.n.v.f.Z m.m.m.m.m.m.m.",
"m.m.m.m.m.v x.x.a.n t.k.k.V m.m.m.m.m.m.",
"m.m.m.m.  a.x.A       9 v.a.9 m.m.m.m.m.",
"m.m.m.m.$ h.d.* m.m.m.  a.h.b m.m.m.m.m.",
"m.m.m.m.0 n.u.  m.m.m.m.t.x.n m.m.m.m.m.",
"m.m.m.m.e b.p.% 7 7 7 & y.l.m m.m.m.m.m.",
"m.m.m.~ e.w.8.7.5.3.>.#.@.} [ D m.m.m.m.",
"m.m.  q.2.:.;.-.=.` +.O.X.{ [ _ + m.m.m.",
"m.m.  q.1.:.;.-.F # 3 ..X.{ [ _ + m.m.m.",
"m.m.  9.<.:.;.-.h     $.X.{ [ ) + m., m.",
"m.m.  6.<.:.;.-. .; c O.X.{ [ ^ > L 1 m.",
"m.m.  4.<.:.;.-.] @ 2 ( X.{ G i T r m.m.",
"m.m.  ,.<.:.;.-.! 6 p J / d P R r m.m.m.",
"m.m.  %.<.:.;.-.=.&.l Q K E Y y + m.m.m.",
"m.m.m.' <.:.;.-.=.&.| H W U u g   m.m.m.",
"m.m.m.4 x z l j f s a 5 I t w - m.m.m.m.",
"m.m.m.m.m.m.m.m.m.m.m.m.: m.m.m.m.m.m.m.",
"m.m.m.m.m.m.m.m.m.m.m.m.m.m.m.m.m.m.m.m."
};
