/* XPM */
static char *lock_grayed_icon[] = {
/* columns rows colors chars-per-pixel */
"20 20 93 2",
"   c #000000",
".  c #010101",
"X  c #040404",
"o  c #050505",
"O  c #060606",
"+  c #101010",
"@  c #111111",
"#  c #121212",
"$  c #141414",
"%  c #151515",
"&  c #191919",
"*  c #1A1A1A",
"=  c #1D1D1D",
"-  c #1E1E1E",
";  c #202020",
":  c #222222",
">  c #282828",
",  c #2B2B2B",
"<  c #2C2C2C",
"1  c #2E2E2E",
"2  c #313131",
"3  c #333333",
"4  c #353535",
"5  c #373737",
"6  c #383838",
"7  c #393939",
"8  c #3A3A3A",
"9  c #3C3C3C",
"0  c #3D3D3D",
"q  c #3E3E3E",
"w  c #3F3F3F",
"e  c #474747",
"r  c #4A4A4A",
"t  c #4C4C4C",
"y  c #545454",
"u  c #585858",
"i  c #5C5C5C",
"p  c #5D5D5D",
"a  c #5F5F5F",
"s  c #606060",
"d  c #616161",
"f  c #636363",
"g  c #656565",
"h  c #686868",
"j  c #6A6A6A",
"k  c #6C6C6C",
"l  c #6D6D6D",
"z  c #6E6E6E",
"x  c #707070",
"c  c #737373",
"v  c #747474",
"b  c #757575",
"n  c #767676",
"m  c #777777",
"M  c #787878",
"N  c #797979",
"B  c #7A7A7A",
"V  c #7B7B7B",
"C  c #7C7C7C",
"Z  c #7D7D7D",
"A  c #7E7E7E",
"S  c #7F7F7F",
"D  c #828282",
"F  c #848484",
"G  c #868686",
"H  c #888888",
"J  c #8A8A8A",
"K  c #8B8B8B",
"L  c #8D8D8D",
"P  c #8F8F8F",
"I  c #929292",
"U  c #979797",
"Y  c #9A9A9A",
"T  c #9B9B9B",
"R  c #A0A0A0",
"E  c #A1A1A1",
"W  c #A6A6A6",
"Q  c #A7A7A7",
"!  c #A9A9A9",
"~  c #ACACAC",
"^  c #B4B4B4",
"/  c #BDBDBD",
"(  c #C2C2C2",
")  c #C5C5C5",
"_  c #C6C6C6",
"`  c #CBCBCB",
"'  c #CCCCCC",
"]  c #D1D1D1",
"[  c #D2D2D2",
"{  c #D3D3D3",
"}  c #D5D5D5",
"|  c #D8D8D8",
" . c None",
/* pixels */
" . . . . . . . . . . . . . . . . . . . .",
" . . . . . . .= d B h 6  . . . . . . . .",
" . . . . . .d _ } [ [ ( z  . . . . . . .",
" . . . . .e [ [ ! d J ` ' h  . . . . . .",
" . . . .  ! [ x       < } ! <  . . . . .",
" . . . .# _ / =  . . .  ! _ r  . . . . .",
" . . . .5 | E    . . . .L [ y  . . . . .",
" . . . .0 | W % ; ; ; & I [ p  . . . . .",
" . . .d ^ E Y Y I L J F C B b t  . . . .",
" . .  Y L C B C B z b B B b b b o  . . .",
" . .  Y D C C C t # & C B b B b o  . . .",
" . .  Y C C C C 0     b B B b x o  . . .",
" . .  L D C C C x % 5 B b B b h    . . .",
" . .  F C C C C z o # C B b B g o  . . .",
" . .  D D C C C p = ; b B b b p o  . . .",
" . .  b C C C C C B b B B B b u o  . . .",
" . . .g C C B C B B B B b b b r    . . .",
" . . .& e 0 0 6 6 5 3 3 < < > %  . . . .",
" . . . . . . . . . . . . . . . . . . . .",
" . . . . . . . . . . . . . . . . . . . ."
};
