/* XPM */
static char *logo_icon[] = {
/* columns rows colors chars-per-pixel */
"32 32 188 2",
"   c #010102",
".  c #060708",
"X  c #080709",
"o  c #070809",
"O  c #0A0A0C",
"+  c #0D0D10",
"@  c #0F1215",
"#  c #111115",
"$  c #17171D",
"%  c #18171E",
"&  c #16181C",
"*  c #18191E",
"=  c #1D1D24",
"-  c #201F27",
";  c #252526",
":  c #24232B",
">  c #26282C",
",  c #2C2C2D",
"<  c #272630",
"1  c #262C31",
"2  c #2B2D34",
"3  c #2E2D39",
"4  c #2D3137",
"5  c #293038",
"6  c #333337",
"7  c #33363A",
"8  c #37393C",
"9  c #3A3B3C",
"0  c #2E3640",
"q  c #353442",
"w  c #3A3C44",
"e  c #3D3C4A",
"r  c #444446",
"t  c #4A4A4A",
"y  c #444353",
"u  c #4A4F55",
"i  c #4B4A5D",
"p  c #4D5156",
"a  c #555558",
"s  c #57595C",
"d  c #595A5B",
"f  c #4F4D62",
"g  c #504E63",
"h  c #4E5660",
"j  c #4B5867",
"k  c #4F5B68",
"l  c #535166",
"z  c #565A62",
"x  c #5E5D66",
"c  c #57556C",
"v  c #545F6B",
"b  c #5A596E",
"n  c #5E5C75",
"m  c #615F78",
"M  c #5C6269",
"N  c #5B6B7D",
"B  c #62616F",
"V  c #6A6A6F",
"C  c #6B6D74",
"Z  c #66647F",
"A  c #616F7F",
"S  c #706F7C",
"D  c #6D7074",
"F  c #67717D",
"G  c #71757A",
"H  c #7D7D7F",
"J  c #696782",
"K  c #6B6985",
"L  c #6F6D8B",
"P  c #706E8B",
"I  c #617181",
"U  c #6C7885",
"Y  c #777586",
"T  c #757D87",
"R  c #7F7F86",
"E  c #74728F",
"W  c #6A7C92",
"Q  c #777594",
"!  c #7D7B9C",
"~  c #817F9F",
"^  c #827FA1",
"/  c #738395",
"(  c #778798",
")  c #7D8A99",
"_  c #7489A1",
"`  c #7C8FA4",
"'  c #7C92AB",
"]  c #82818C",
"[  c #8D8D93",
"{  c #808D9C",
"}  c #8C8B99",
"|  c #908F95",
" . c #85919D",
".. c #8A939E",
"X. c #919296",
"o. c #94949C",
"O. c #8683A6",
"+. c #8986AA",
"@. c #8D8AAF",
"#. c #8494A7",
"$. c #8F8DB2",
"%. c #8299B1",
"&. c #8A9DB3",
"*. c #9491B4",
"=. c #9D9BB4",
"-. c #9592B9",
";. c #9896BD",
":. c #A09FAA",
">. c #91A3B7",
",. c #99A8BB",
"<. c #A3A3A4",
"1. c #A3A2AA",
"2. c #A8A7AB",
"3. c #ABABAD",
"4. c #A7A6B5",
"5. c #A2ABB4",
"6. c #ADACB0",
"7. c #A0AEBE",
"8. c #AFAEB9",
"9. c #AAB1B7",
"0. c #B1B1B4",
"q. c #B4B5BA",
"w. c #BBBBBD",
"e. c #9C99C1",
"r. c #8DABCC",
"t. c #9EB2C9",
"y. c #99B4D3",
"u. c #A8A6C5",
"i. c #AFADC2",
"p. c #A4A1CB",
"a. c #A9A6C9",
"s. c #B1AFCB",
"d. c #A7B3C0",
"f. c #ADB7C2",
"g. c #B5BCC1",
"h. c #BCBCC6",
"j. c #B4B3CD",
"k. c #BBBACC",
"l. c #AAA7D3",
"z. c #ACA9D5",
"x. c #B2AEDC",
"c. c #A3BCD6",
"v. c #AABCD0",
"b. c #B6B4D5",
"n. c #BDBBD1",
"m. c #B5B1DE",
"M. c #B9B5E5",
"N. c #C1BFDB",
"B. c #C0BDEE",
"V. c #C3BFF1",
"C. c #ADC3DC",
"Z. c #B6C8DE",
"A. c #B7CAE0",
"S. c #BFD0E2",
"D. c #C1C2C6",
"F. c #C1C0CA",
"G. c #C7C6D0",
"H. c #CCCBD5",
"J. c #C4CED9",
"K. c #D0CEDE",
"L. c #D2D2D7",
"P. c #D4D4DC",
"I. c #D9D9DB",
"U. c #CDCBE2",
"Y. c #C4C2ED",
"T. c #C1D2E4",
"R. c #C9D7E7",
"E. c #CBD9E9",
"W. c #DDDCE5",
"Q. c #D7D5ED",
"!. c #D3DFEB",
"~. c #DDDCED",
"^. c #C8C4F6",
"/. c #D7D5F0",
"(. c #DDDCF6",
"). c #D5E1ED",
"_. c #DDE6EF",
"`. c #DFE8F1",
"'. c #E4E4E6",
"]. c #E5E5EA",
"[. c #EAEAEC",
"{. c #E7E6F3",
"}. c #EBEDF5",
"|. c #EEEDFA",
" X c #F3F3F5",
".X c #F5F6FA",
"XX c #FBFAFC",
"oX c None",
/* pixels */
"oXoXoXoXoXoXoXoXoXoXoXoXoXoXoXoXoXoXoXoXoXoXoXoXoXoXoXoXoXoXoXoX",
"oXoXoXoXoXoXoXoXoXoXoXoXoXoXoXoXoXoXoXoXoXoXoXoXoXoXoXoXoXoXoXoX",
"oXoXoXoXoXoXoXoXoXoXoXoXoXoXoXoXoXoXoXoXoXoXoXoXoXoXoXoXoXoXoXoX",
"oXoX                                                          oX",
"oX  k I I N I I I I I I I I I I I I I I I A N F I I I I I I # oX",
"oX  %.r.r.r.r.r.r.r.r.r.r.r.r.r.r.r.r.r.r.r.r.r.r.r.r.r.r.r.1 oX",
"oX  &.5   j y.y.(     y.=   N y.y.W   + y.+     . @ 0 ' y.y.1 oX",
"oX  >.1   v c.c.` o   y.&   I c.c./   O y.@             U c.1 oX",
"oX  ,.5   M C.C.' o   C.* o F C.C.( o O C.+   / c.&.2   O t.2 oX",
"oX  7.4   7 F F p O   Z.*   U A.A.) o O A.+ X ) A.Z.v.  o { 4 oX",
"oX  d.4               S.*   T T.T. .o O T.+ . F T M z o   2 & oX",
"oX  f.7   > p u w     R.=   T E.E.#.o + G     e O.p.x.+   E = oX",
"oX  g.4   C ).).5.o   ).>   p ).J.9   o L O   J p.l.-.  o -.= oX",
"oX  w.8   D ].'.9.o   _.s   X 7 , O   : O.O . f E n +   * Y.= oX",
"oX  h.9   G }.[.q.o   D r             Z O.O           + ;.^.- oX",
"oX  d d > X..XZ.s O O e i y * o . = n ! O.: $ % : e J x.B.^.= oX",
"oX  9 r t r 9 6 3 q e y i l b m J P Q ! O.@.-.e.p.l.x.M.B.^.= oX",
"oX. , O # * - < 3 q e y i l b m J P Q ! O.@.*.e.p.l.x.M.B.^.= oX",
"oX  , O a 2.3.2.x q.<.B i Y 8.F.G.H.H.=.-.K.s.e.b.~.~.Y.B.^.- oX",
"oX  , O <.[.w.w.|  XL.XXF.:.[.H.[..XP.k.XX].XX].U.XX|.XXY.^.e oX",
"oX  , + <.[.w.6.[ '.e ]  X1.[.m h.].Q W.W.$.s.XXU.XXQ.XX^.^.e oX",
"oX  , O <.'.0.<.[ '.e S XX1.[.m h.].Q W.W.$.u.XXU.XXXXXXB.^.e oX",
"oX  , O <.I.C C X.[.o.[.I.:.[.m h.].Q i..Xn.{.}.U..Xm.XX(.^.e oX",
"oX  , O H '.'.'.R ].I.1.b } H.m 4.P.Q ^ k. XW.a.N.{.x.Q.|.^.e oX",
"oX. , O # % - < 3 q e y f l c m J P Q ! O.@.-.e.p.l.x.M.M.^.e oX",
"oX  , O # % - < 3 q e y i l n n J P Q ! O.$.-.e.p.l.x.M.V.^.e oX",
"oX  ; O # % - : 3 q e y i l c n J K Q Q ^ O.$.-.e.p.z.x.M.V.e oX",
"oXO                         . . . . . . . X O O X X + O O +   oX",
"oXoXoXoXoXoXoXoXoXoXoXoXoXoXoXoXoXoXoXoXoXoXoXoXoXoXoXoXoXoXoXoX",
"oXoXoXoXoXoXoXoXoXoXoXoXoXoXoXoXoXoXoXoXoXoXoXoXoXoXoXoXoXoXoXoX",
"oXoXoXoXoXoXoXoXoXoXoXoXoXoXoXoXoXoXoXoXoXoXoXoXoXoXoXoXoXoXoXoX",
"oXoXoXoXoXoXoXoXoXoXoXoXoXoXoXoXoXoXoXoXoXoXoXoXoXoXoXoXoXoXoXoX"
};
