/* XPM */
static char *reset_icon[] = {
/* columns rows colors chars-per-pixel */
"20 20 128 2",
"   c #000274",
".  c #010277",
"X  c #01037C",
"o  c #050D7A",
"O  c #03087D",
"+  c #08167D",
"@  c #030983",
"#  c #040D80",
"$  c #050E82",
"%  c #040C8C",
"&  c #061282",
"*  c #081784",
"=  c #081785",
"-  c #0A1C87",
";  c #071490",
":  c #0A1C93",
">  c #0E2583",
",  c #0E2684",
"<  c #0D238C",
"1  c #0D228F",
"2  c #14368A",
"3  c #13358D",
"4  c #0D2497",
"5  c #0F2A94",
"6  c #112F92",
"7  c #102C9B",
"8  c #133494",
"9  c #153996",
"0  c #163B97",
"q  c #123299",
"w  c #13339A",
"e  c #13349F",
"r  c #153A9D",
"t  c #25379A",
"y  c #163CA3",
"u  c #2332A4",
"i  c #184296",
"p  c #1B4A9A",
"a  c #1D509D",
"s  c #1842A1",
"d  c #1944A7",
"f  c #1B4AA5",
"g  c #1D4DA4",
"h  c #1D4EA5",
"j  c #1E4FA5",
"k  c #1E4FA6",
"l  c #1C4CAA",
"z  c #1E53A3",
"x  c #1E52A6",
"c  c #1E51AA",
"v  c #1F54AE",
"b  c #2B41A3",
"n  c #215AAC",
"m  c #225AAF",
"M  c #2F43B9",
"N  c #3149B2",
"B  c #354DBB",
"V  c #225BB2",
"C  c #2565AF",
"Z  c #2461B5",
"A  c #2563B6",
"S  c #276BBA",
"D  c #286EB9",
"F  c #2A73B6",
"G  c #2A73BD",
"H  c #2C79BE",
"J  c #446DA7",
"K  c #4E7ABD",
"L  c #507DB9",
"P  c #517FBD",
"I  c #3247C4",
"U  c #3F59DD",
"Y  c #2D7BC1",
"T  c #4364C5",
"R  c #4465C6",
"E  c #476CC8",
"W  c #4B72C9",
"Q  c #4D76C8",
"!  c #507AC7",
"~  c #4564D6",
"^  c #4D73D9",
"/  c #547EDE",
"(  c #4A6AE3",
")  c #557AF6",
"_  c #5479FE",
"`  c #557AFF",
"'  c #5483BD",
"]  c #5688BD",
"[  c #5A8EBC",
"{  c #5A8EBE",
"}  c #3083C5",
"|  c #3185C5",
" . c #338BC9",
".. c #5685C8",
"X. c #5E93CB",
"o. c #649BDD",
"O. c #66A2C8",
"+. c #70B1D8",
"@. c #5984E4",
"#. c #5F8EEE",
"$. c #5D8AF1",
"%. c #5A81FF",
"&. c #5F8CFA",
"*. c #5E89FF",
"=. c #6496F0",
"-. c #689EF0",
";. c #6290FF",
":. c #679BFA",
">. c #6698FF",
",. c #76B8EA",
"<. c #6CA5F0",
"1. c #6BA0FF",
"2. c #6FA7FF",
"3. c #70ABF0",
"4. c #73AFFF",
"5. c #74B3F0",
"6. c #77BAF0",
"7. c #78B7FF",
"8. c #7CBEFF",
"9. c #7DC6E2",
"0. c #80C6FF",
"q. c #84CEFF",
"w. c #89D5FF",
"e. c #8DDDFF",
"r. c #91E4FF",
"t. c #95ECFF",
"y. c #9AF4FF",
"u. c None",
/* pixels */
"u.u.u.u.u.u.u.t u.u.u.u.u.u.u.u.u.u.u.u.",
"u.u.u.u.u.N $.R u.u.u.u.u.u.u.u.u.u.u.u.",
"u.u.u.u.~ ;.>.R u.u.u.u.u.u.u.u.u.u.u.u.",
"u.u.M ) *.;.>.:.=.-.<.3.5.6.,.X.L u.u.u.",
"u.U _ %.*.;.>.1.2.4.7.8.0.q.w.e.r.+.u.u.",
"u.I _ %.*.;.>.1.2.4.7.8.0.q.w.e.r.t.9.u.",
"u.u.u ( *.;.>.#.E W Q ! o.q.w.e.r.t.y.{ ",
"u.u.u.u.B &.>./ u.u.u.u.u...w.e.r.t.y.O.",
"u.u.u.u.u.u.^ @.u.u.u.u.u.u.K P ' ] { J ",
"u.u.u.u.u.u.u.b u.u.u.u.u.u.u.u.u.u.u.u.",
"u.u.u.u.u.u.u.u.u.u.u.u.> u.u.u.u.u.u.u.",
"  O # & * - + u.u.u.u.u.k x u.u.u.u.u.u.",
"X % ; : 4 7 < u.u.u.u.u.k S D i u.u.u.u.",
"  % ; : 4 7 e w 6 8 0 0 m S G Y C u.u.u.",
"u.@ ; : 4 7 e y d l v V A S G Y } | a u.",
"u.u.$ : 4 7 e y d l v V A S G Y }  .F 2 ",
"u.u.u.o * 4 6 7 r s f c A S G Y H p u.u.",
"u.u.u.u.u.u.u.u.u.u.u.u.k S G z u.u.u.u.",
"u.u.u.u.u.u.u.u.u.u.u.u.g m 3 u.u.u.u.u.",
"u.u.u.u.u.u.u.u.u.u.u.u.> u.u.u.u.u.u.u."
};
