/* XPM */
static char *wrap_initialvalue_icon[] = {
/* width height num_colors chars_per_pixel */
"    32     8      256            2",
/* colors */
"`` c #ffffff",
"`. c #fefefe",
"`# c #bbbbbb",
"`a c #5a5a5a",
"`b c #6b6b6b",
"`c c #d2d2d2",
"`d c #e3e3e3",
"`e c #686868",
"`f c #ececec",
"`g c #fbfbfb",
"`h c #adadad",
"`i c #5d5d5d",
"`j c #969696",
"`k c #f2f2f2",
"`l c #f0f0f0",
"`m c #939393",
"`n c #2d2e2d",
"`o c #212221",
"`p c #838383",
"`q c #e6e6e6",
"`r c #f3f3f3",
"`s c #2f302f",
"`t c #000000",
"`u c #010501",
"`v c #000100",
"`w c #5c5c5c",
"`x c #dfdfdf",
"`y c #090909",
"`z c #141414",
"`A c #8a8a8a",
"`B c #dddddd",
"`C c #1c1a1a",
"`D c #060101",
"`E c #0c0b0b",
"`F c #b5b5b5",
"`G c #fcfcfc",
"`H c #252725",
"`I c #051e02",
"`J c #052801",
"`K c #121312",
"`L c #efefef",
"`M c #0e6d00",
"`N c #19c800",
"`O c #18ba00",
"`P c #094a00",
"`Q c #b4b4b4",
"`R c #0b0b0b",
"`S c #1e1e1e",
"`T c #676767",
"`U c #060202",
"`V c #8e0000",
"`W c #d00000",
"`X c #a30000",
"`Y c #1d0202",
"`Z c #2e2d2d",
"`0 c #aeaeae",
"`1 c #0f7400",
"`2 c #1bd300",
"`3 c #1bd400",
"`4 c #128e00",
"`5 c #8e8e8e",
"`6 c #2c2d2c",
"`7 c #18bf00",
"`8 c #010301",
".` c #595959",
".. c #060606",
".# c #121212",
".a c #030202",
".b c #4f0000",
".c c #d40000",
".d c #7e0000",
".e c #161616",
".f c #020c01",
".g c #1ace00",
".h c #042201",
".i c #101110",
".j c #5f5f5f",
".k c #ebebeb",
".l c #232423",
".m c #062802",
".n c #19c600",
".o c #020702",
".p c #515151",
".q c #010000",
".r c #510000",
".s c #7f0000",
".t c #000200",
".u c #18bc00",
".v c #1acc00",
".w c #010b00",
".x c #898989",
".y c #118600",
".z c #1bd200",
".A c #1acb00",
".B c #0c5e00",
".C c #a9a9a9",
".D c #404040",
".E c #d4d4d4",
".F c #950000",
".G c #d20000",
".H c #aa0000",
".I c #1f0202",
".J c #282727",
".K c #c6c6c6",
".L c #083d00",
".M c #16aa00",
".N c #17b400",
".O c #0a4d00",
".P c #a4a4a4",
".Q c #e9e9e9",
".R c #e8e8e8",
".S c #fdfdfd",
".T c #181918",
".U c #041602",
".V c #020a02",
".W c #3e3f3e",
".X c #101010",
".Y c #262626",
".Z c #c1c1c1",
".0 c #d9d9d9",
".1 c #171515",
".2 c #0c0202",
".3 c #080707",
".4 c #b0b0b0",
".5 c #757575",
".6 c #050505",
".7 c #010101",
".8 c #575757",
"#` c #f5f5f5",
"#. c #9c9c9c",
"## c #383938",
"#a c #4b4b4b",
"#b c #b3b3b3",
"#c c #131313",
"#d c #9d9d9d",
"#e c #f9f9f9",
"#f c #a5a5a5",
"#g c #555555",
"#h c #eeeeee",
"#i c #888888",
"#j c #7c7c7c",
"#k c #000000",
"#l c #000000",
"#m c #000000",
"#n c #000000",
"#o c #000000",
"#p c #000000",
"#q c #000000",
"#r c #000000",
"#s c #000000",
"#t c #000000",
"#u c #000000",
"#v c #000000",
"#w c #000000",
"#x c #000000",
"#y c #000000",
"#z c #000000",
"#A c #000000",
"#B c #000000",
"#C c #000000",
"#D c #000000",
"#E c #000000",
"#F c #000000",
"#G c #000000",
"#H c #000000",
"#I c #000000",
"#J c #000000",
"#K c #000000",
"#L c #000000",
"#M c #000000",
"#N c #000000",
"#O c #000000",
"#P c #000000",
"#Q c #000000",
"#R c #000000",
"#S c #000000",
"#T c #000000",
"#U c #000000",
"#V c #000000",
"#W c #000000",
"#X c #000000",
"#Y c #000000",
"#Z c #000000",
"#0 c #000000",
"#1 c #000000",
"#2 c #000000",
"#3 c #000000",
"#4 c #000000",
"#5 c #000000",
"#6 c #000000",
"#7 c #000000",
"#8 c #000000",
"a` c #000000",
"a. c #000000",
"a# c #000000",
"aa c #000000",
"ab c #000000",
"ac c #000000",
"ad c #000000",
"ae c #000000",
"af c #000000",
"ag c #000000",
"ah c #000000",
"ai c #000000",
"aj c #000000",
"ak c #000000",
"al c #000000",
"am c #000000",
"an c #000000",
"ao c #000000",
"ap c #000000",
"aq c #000000",
"ar c #000000",
"as c #000000",
"at c #000000",
"au c #000000",
"av c #000000",
"aw c #000000",
"ax c #000000",
"ay c #000000",
"az c #000000",
"aA c #000000",
"aB c #000000",
"aC c #000000",
"aD c #000000",
"aE c #000000",
"aF c #000000",
"aG c #000000",
"aH c #000000",
"aI c #000000",
"aJ c #000000",
"aK c #000000",
"aL c #000000",
"aM c #000000",
"aN c #000000",
"aO c #000000",
"aP c #000000",
"aQ c #000000",
"aR c #000000",
"aS c #000000",
"aT c #000000",
"aU c #000000",
"aV c #000000",
"aW c #000000",
"aX c #000000",
"aY c #000000",
"aZ c #000000",
"a0 c #000000",
"a1 c #000000",
"a2 c #000000",
"a3 c #000000",
"a4 c #000000",
"a5 c #000000",
"a6 c #000000",
"a7 c #000000",
"a8 c #000000",
/* pixels */
"```.`#`a`b`c```d`e`f```````````g`h`i`j`k`````l`m`n`o`p`q````````",
"`r`s`t`u`v`t`w`x`y`z`A`g`````B`C`t`D`t`E`F`G`H`t`I`J`t`K`L``````",
"`j`t`M`N`O`P`t`Q`z`t`R`S`F```T`U`V`W`X`Y`Z`0`t`1`2`3`4`t`5``````",
"`6`I`2`3`3`7`8.``z`t`t`t...#.a.b.c.c.c.d`t.e.f.g`3`3`3.h.i.j.j.k",
".l.m`3`3`3.n.o.p`z`t`t`t`t`t.q.r.c.c.c.s`t`t.t.u`3`3.v.w`t`t`t`x",
".x`t.y.z.A.B`t.C`z`t`t.#.D.E.j`U.F.G.H.I.J.K`t.L.M.N.O`t.P.Q.R.S",
"`f.T`t.U.V`t.W`x.X.X.Y.Z````.0.1`t.2`t.3.4``.5.6`t`t.7.8.S``````",
"``#`#.###a#b.S`x#c#d`.````````#e#f#g`5#h``````.Q#i#j`B``````````"
};
