/* XPM */
static char *CActorEditorGUI_WxBitmapButton1_XPM[]={
/* CActorEditorGUI_WxBitmapButton1 */
"35 32 154 2",
"      c None",
" 0    c #FBFBFB",
" 1    c #FDFDFD",
" 2    c #FFFFFF",
" 3    c #F8F8F8",
" 4    c #FEFEFE",
" 5    c #DBDBDB",
" 6    c #C0C0C0",
" 7    c #D4D4D4",
" 8    c #F7F7F7",
" 9    c #EFEFEF",
" a    c #D2D2D2",
" b    c #D9D9D9",
" c    c #CDCDCD",
" d    c #EEEEEE",
" e    c #FAFAFA",
" f    c #F5F5F5",
" g    c #C1C1C1",
" h    c #C8C8C8",
" i    c #E5E5E5",
" j    c #EAEAEA",
" k    c #F1F1F1",
" l    c #EBEBEB",
" m    c #FCFCFC",
" n    c #F3F3F3",
" o    c #E1E1E1",
" p    c #E4E4E4",
" q    c #D0D0D0",
" r    c #D6D6D6",
" s    c #D8D8D8",
" t    c #CCCCCC",
" u    c #D7D7D7",
" v    c #E2E2E2",
" w    c #CBCBCB",
" x    c #D3D3D3",
" y    c #C7C7C7",
" z    c #F6F6F6",
" A    c #D1D1D1",
" B    c #C6C6C6",
" C    c #363636",
" D    c #6F6F6F",
" E    c #C5C5C5",
" F    c #9F9F9F",
" G    c #333333",
" H    c #090909",
" I    c #808080",
" J    c #060606",
" K    c #F4F4F4",
" L    c #CFCFCF",
" M    c #C2C2C2",
" N    c #3C3C3C",
" O    c #969696",
" P    c #3F3F3F",
" Q    c #878787",
" R    c #242424",
" S    c #4A4A4A",
" T    c #858585",
" U    c #232323",
" V    c #656565",
" W    c #F2F2F2",
" X    c #030303",
" Y    c #E7E7E7",
" Z    c #9C9C9C",
" &    c #212121",
"0     c #BCBCBC",
"00    c #2C2C2C",
"01    c #C3C3C3",
"02    c #202020",
"03    c #B6B6B6",
"04    c #545454",
"05    c #1D1D1D",
"06    c #E8E8E8",
"07    c #787878",
"08    c #4B4B4B",
"09    c #B4B4B4",
"0a    c #5C5C5C",
"0b    c #AFAFAF",
"0c    c #A1A1A1",
"0d    c #616161",
"0e    c #919191",
"0f    c #F0F0F0",
"0g    c #C9C9C9",
"0h    c #BEBEBE",
"0i    c #181818",
"0j    c #818181",
"0k    c #454545",
"0l    c #ECECEC",
"0m    c #0C0C0C",
"0n    c #E0E0E0",
"0o    c #494949",
"0p    c #E6E6E6",
"0q    c #171717",
"0r    c #BFBFBF",
"0s    c #2D2D2D",
"0t    c #DEDEDE",
"0u    c #939393",
"0v    c #323232",
"0w    c #262626",
"0x    c #D5D5D5",
"0y    c #929292",
"0z    c #303030",
"0A    c #909090",
"0B    c #0B0B0B",
"0C    c #BABABA",
"0D    c #B9B9B9",
"0E    c #515151",
"0F    c #636363",
"0G    c #797979",
"0H    c #353535",
"0I    c #9B9B9B",
"0J    c #424242",
"0K    c #767676",
"0L    c #777777",
"0M    c #8F8F8F",
"0N    c #575757",
"0O    c #EDEDED",
"0P    c #B8B8B8",
"0Q    c #7F7F7F",
"0R    c #A4A4A4",
"0S    c #1F1F1F",
"0T    c #C4C4C4",
"0U    c #B7B7B7",
"0V    c #DFDFDF",
"0W    c #646464",
"0X    c #949494",
"0Y    c #8E8E8E",
"0Z    c #E9E9E9",
"0&    c #B1B1B1",
"1     c #B0B0B0",
"10    c #ACACAC",
"11    c #9D9D9D",
"12    c #A0A0A0",
"13    c #A3A3A3",
"14    c #B5B5B5",
"15    c #828282",
"16    c #838383",
"17    c #DCDCDC",
"18    c #868686",
"19    c #BDBDBD",
"1a    c #AEAEAE",
"1b    c #BBBBBB",
"1c    c #B3B3B3",
"1d    c #ADADAD",
"1e    c #ABABAB",
"1f    c #888888",
"1g    c #A8A8A8",
"1h    c #9E9E9E",
"1i    c #9A9A9A",
"1j    c #989898",
"1k    c #979797",
"1l    c #8D8D8D",
"1m    c #8B8B8B",
"1n    c #898989",
"1o    c #848484",
"         0 1 2 2 2 2 2 2 2 2 2 2 2 2 2 2 2 2 2 2 2 2 2 2 2 1 0        ",
" 3 3   4 2 2 2 2 2 2 2 2 2 2 2 2 2 2 2 2 2 2 2 2 2 2 2 2 2 2 2 4   3 3",
" 3   2 2 2 5 6 6 6 6 6 6 6 6 6 6 6 6 6 6 6 6 6 6 6 6 6 6 6 7 0 4 1 3 3",
" 8 4 2 9 6 6 a b b b b b b b b b b b b b b b b b b b b b a c 5 d e f 8",
" e 2 2 g h 8 2 2 2 2 2 2 2 2 2 2 2 2 2 2 2 2 2 2 2 2 2 2 2   i j k l k",
" m 2 c g 8 2 2 2 2 2 2 2 2 2 2 2 2 2 2 2 2 2 2 2 2 2 2 4 1 1 e n f o p",
" 4 2 h q 2 2 2 2 2 2 2 2 2 2 2 2 2 2 2 2 2 2 2 2 2 2 4 1 m 0 e e e 5 r",
" 4 2 r o 2 2 2 2 2 2 2 2 2 2 2 2 2 2 2 2 2 2 2 2 2 4 1 m 0 e       s t",
" 4 2 u v 2 2 2 2 2 2 2 2 2 2 2 2 2 2 2 2 2 2 2 4 4 1 m 0 e   3 3 3 r w",
" 4 2 u v 2 2 2 2 2 2 2 2 2 2 2 2 2 2 2 2 2 2 4 1 m 0 0 e   3 8 8 8 x y",
" 4 2 u v 2 2 2 2 2 2 2 2 2 2 2 2 2 2 2 2 2 4 1 m 0 e     3 8 z z z A B",
" 4 2 u v 2 2 2 2 2 n C D 2 2 2 2 2 2 2 2 4 1 m 0 e   3 8 8 z f z z q E",
" 1 2 u v 2 2 2 2 2 F G H j 2 2 2 2 2 I J p m 0 e   3 8 z f K K f f L M",
" 1 2 u v 2 2 2 2 2 N O P Q 2 2 2 2 4 R S T e e   3 8 U V K n W K K c g",
" 1 2 u v 2 2 2 2 s X Y Z & m 2 2 40 000102 z 3 8 803040506 W k W W t 6",
" 1 2 u v 2 2 2 20708 2 n H09 4 1 10a T e U0b 8 z f0a0c0d0e k0f W W0g0h",
" 1 2 u v 2 2 2 m0i0j t t0k08 1 m0l0m0n   I0o z f0p0q j0r0s0f 9 k k y0 ",
" 1 2 u v 2 2 209 H G G G0s X0t 00u J0v0v0w X0x K0y0z0e0A0B0C d0f0f B0D",
" 1 2 u v 2 2 20E0F 2 4 4 1 R0G e0H0I 8 z z0J0K n G0L0A0M0N0N0O 9 9 E0P",
" 1 2 u v 2 2 j X 6 4 1 m m0Q0i h H l z f K0R0q E0S0f 9 d u0B s 9 90T0U",
" 1 2 u v 2 2 B D 0 1 m 0 e0V0W0X0Y z f K n0l0F0y0I 9 d0O0l0Q030O d M03",
" 1 2 u v 2 2 2 4 1 m 0 e   3 8 8 z f K n W k0f 9 9 d0O0l l j0Z0l0l g09",
" 1 2 u v 2 4 1 1 m 0 e   3 8 z f f K n W k0f 9 d0O0l0l l j0Z06 l l0h0&",
" 1 2 u v 4 1 m 0 e e   3 8 z f K n W W k0f 9 d0O0l l j j0Z06 Y j l0 1 ",
" 1 2 s o 1 m 0 e   3 3 8 z f K n W k0f0f 9 d0O0l l j0Z0606 Y0p0Z j0C10",
" m 40n0p m 0 e   3 8 z z f K n W k0f 9 d0O0O0l l j0Z06 Y0p i i0l l1112",
" 3 1 l0O e e   3 8 z f K n n W k0f 9 d0O0l l l j0Z06 Y0p i p i W j T13",
" 9 K 9 z     3 8 z f K n W k k0f 9 d0O0l l j0Z0Z06 Y0p i p0p K K14150T",
" j0l i k           3 8 z z f K K K n n W k k0f 9 d d d d k   30V160e Y",
"0Z060t0x17 8 e e e e       3 3 8 8 8 8 z z f f K K K K K z l0& T18 r0Z",
"0Z0Z0p q191a10 B E E0T M 60r190 1b0P0P0U03091c0&1 0b1d1e1f T150A s0Z0Z",
"06060606 70 1g0R13121h1h111i1j1k0X0u0e0M0M1l1m1n1f181o15 T F 6 Y060606"};

