/* XPM */
static char *wxSelectApplication_WxBitmapButton1_XPM[]={
/* wxSelectApplication_WxBitmapButton1 */
"16 15 36 1",
"      c None",
"0     c #376485",
"1     c #215579",
"2     c #DFF0D0",
"3     c #8DA0B9",
"4     c #467291",
"5     c #CAD2DC",
"6     c #CAE2AA",
"7     c #7F99B4",
"8     c #718BA7",
"9     c #65839D",
"a     c #B6D791",
"b     c #B4C4D3",
"c     c #ADD668",
"d     c #4D7492",
"e     c #B3BFD1",
"f     c #BBC4D6",
"g     c #C2CBDB",
"h     c #9AEA53",
"i     c #FAFCFE",
"j     c #7F97B0",
"k     c #A8B6CA",
"l     c #F5F6F7",
"m     c #839CB5",
"n     c #9BACC2",
"o     c #EAEDF3",
"p     c #EEF1F3",
"q     c #94A5BD",
"r     c #DCE2EA",
"s     c #E4E9ED",
"t     c #597B9A",
"u     c #CAD6E1",
"v     c #D1D9E5",
"w     c #BECAD9",
"x     c #7A90AC",
"y     c #305F81",
"                ",
"     0000       ",
"11111 0220      ",
"13333450620     ",
"133337890a2111  ",
"133333330a21b1  ",
"131111000c21111d",
"131efg0hhhhh21id",
"1j1kefg0hhh21lbd",
"11mnkeff0h21opd ",
"113qnkeff01rsod ",
"1tj3qnkeffuvrwd ",
"19xj3qnkefguvd  ",
"y111111111111d  ",
"                "};

