/* XPM */
static char *add_xml_text_node[] = {
/* columns rows colors chars-per-pixel */
"20 12 135 2",
"   c #030202",
".  c #090606",
"X  c #0A0505",
"o  c #0B0505",
"O  c #0B0606",
"+  c #0C0707",
"@  c #150A0A",
"#  c #1C0E0E",
"$  c #1D0F0F",
"%  c #181616",
"&  c #1C1919",
"*  c #251717",
"=  c #221A1A",
"-  c #201E1E",
";  c #2C1F1F",
":  c #331919",
">  c #341A1A",
",  c #381E1E",
"<  c #232020",
"1  c #292727",
"2  c #2E2121",
"3  c #2D2424",
"4  c #302323",
"5  c #302E2E",
"6  c #362D2D",
"7  c #3C2323",
"8  c #343333",
"9  c #373535",
"0  c #3D3030",
"q  c #3D3A3A",
"w  c #3F3838",
"e  c #3D3C3C",
"r  c #442D2D",
"t  c #462F2F",
"y  c #413535",
"u  c #453636",
"i  c #403939",
"p  c #493F3F",
"a  c #503939",
"s  c #533D3D",
"d  c #444343",
"f  c #4A4242",
"g  c #484747",
"h  c #4C4242",
"j  c #4C4646",
"k  c #5D4444",
"l  c #585151",
"z  c #5B5656",
"x  c #5C5353",
"c  c #5D5858",
"v  c #5D5959",
"b  c #5E5959",
"n  c #5F5D5D",
"m  c #634B4B",
"M  c #675050",
"N  c #685050",
"B  c #735F5F",
"V  c #745F5F",
"C  c #755F5F",
"Z  c #676161",
"A  c #696262",
"S  c #6C6262",
"D  c #6D6767",
"F  c #7D6C6C",
"G  c #7E6C6C",
"H  c #816E6E",
"J  c #826F6F",
"K  c #857A7A",
"L  c #8F7E7E",
"P  c #878080",
"I  c #978F8F",
"U  c #9C8D8D",
"Y  c #9D8E8E",
"T  c #909090",
"R  c #939393",
"E  c #959595",
"W  c #9E9595",
"Q  c #9D9D9D",
"!  c #A19393",
"~  c #A59797",
"^  c #A99C9C",
"/  c #AA9D9D",
"(  c #A3A2A2",
")  c #A8A0A0",
"_  c #AAA2A2",
"`  c #ABA3A3",
"'  c #ADA5A5",
"]  c #AEA6A6",
"[  c #B0A8A8",
"{  c #B2AAAA",
"}  c #B2ABAB",
"|  c #B6ABAB",
" . c #B4ADAD",
".. c #B8B2B2",
"X. c #BBB0B0",
"o. c #BBB1B1",
"O. c #BAB3B3",
"+. c #BDB3B3",
"@. c #BFB5B5",
"#. c #BFB7B7",
"$. c #BEB9B9",
"%. c #C1B7B7",
"&. c #C1B8B8",
"*. c #C3BABA",
"=. c #C3BDBD",
"-. c #C4BEBE",
";. c #C5BFBF",
":. c #C7BFBF",
">. c #C5C2C2",
",. c #C6C2C2",
"<. c #CBC3C3",
"1. c #D0C9C9",
"2. c #D1CACA",
"3. c #D2CBCB",
"4. c #D3CCCC",
"5. c #D4CECE",
"6. c #D5CFCF",
"7. c #D6D0D0",
"8. c #D7D1D1",
"9. c #DAD4D4",
"0. c #DBD5D5",
"q. c #DED9D9",
"w. c #E0DFDF",
"e. c #E4E0E0",
"r. c #E5E1E1",
"t. c #E6E2E2",
"y. c #EAE7E7",
"u. c #ECEAEA",
"i. c #F7F5F5",
"p. c #F8F7F7",
"a. c #F9F8F8",
"s. c #FBFAFA",
"d. c #FDFCFC",
"f. c #FEFEFE",
"g. c gray100",
/* pixels */
"% W ,.=.$.o...;.w. .} } [ ] ] ` ` ) I - ",
"b 1.1.1.4.7.7.q.g.7.4.1.4.7.4.1.1.1.1.d ",
"b *.*.7.g.g.g.0.g.g.g.e.g.g.i.*.*.*.*.g ",
"b | | 0.u.*.g.1.s.o.s.i.r.#.r.o.| | | d ",
"z ^ ^ <.s.u.g.y.g.u.g.r.s.u.u.^ ^ ^ ^ e ",
"l U U ! #.,.;.o.%.;.#.~ *.;.;.U U U U 9 ",
"j L L L K Q P L L L L L L L L L L L L 5 ",
"i H H H G Z G H H H H H H H H H J J J 1 ",
"6 V V V V x V V V A D D D S S S V V V < ",
"2 N N m m i p h d B ( ( ( b N N N N N & ",
"= t , : : @ > 7 r 0 0 0 y u s s s s a X ",
"o # # # # o o o X 8 T R E i 4 4 ; * #   "
};
