/* XPM */
static char *delete_icon[] = {
/* columns rows colors chars-per-pixel */
"20 20 166 2",
"   c black",
".  c #0F0505",
"X  c #170800",
"o  c #170909",
"O  c #1F0C00",
"+  c #1F0E01",
"@  c #190909",
"#  c #200909",
"$  c #2F0D00",
"%  c #261414",
"&  c #281515",
"*  c #321A1A",
"=  c #3F1818",
"-  c #36251B",
";  c #430200",
":  c #450700",
">  c #440C00",
",  c #450F00",
"<  c #4C0303",
"1  c #4E0808",
"2  c #4D0C0C",
"3  c #4F1111",
"4  c #511717",
"5  c #561E1E",
"6  c #591515",
"7  c #5B1717",
"8  c #5F1D1D",
"9  c #412D1C",
"0  c #522808",
"q  c #422222",
"w  c #4E2B2B",
"e  c #4D3525",
"r  c #5A2626",
"t  c #5E2E2E",
"y  c #55382D",
"u  c #6A2F1E",
"i  c #732F1C",
"p  c #773710",
"a  c #773414",
"s  c #753218",
"d  c #622323",
"f  c #6D2B29",
"g  c #782E2E",
"h  c #753D29",
"j  c #773A33",
"k  c #7D3636",
"l  c #6B4B34",
"z  c #7E4D34",
"x  c #823F3F",
"c  c #BC0606",
"v  c #BC0B05",
"b  c #BF1400",
"n  c #BF1313",
"m  c #B93E00",
"M  c #B43838",
"N  c #804A3E",
"B  c #875B3E",
"V  c #874949",
"C  c #895749",
"Z  c #BD4444",
"A  c #C31313",
"S  c #C41313",
"D  c #C51B15",
"F  c #C11F1F",
"G  c #C71818",
"H  c #C71F1F",
"J  c #C12000",
"K  c #C7200D",
"L  c #C42B00",
"P  c #C82404",
"I  c #CA2D00",
"U  c #CC2F1D",
"Y  c #C53700",
"T  c #CF370C",
"R  c #CD3900",
"E  c #CD3315",
"W  c #D03C03",
"Q  c #C52A2A",
"!  c #C92020",
"~  c #C92323",
"^  c #CC2020",
"/  c #CE2727",
"(  c #CB2B26",
")  c #C92B2B",
"_  c #CD2C2C",
"`  c #CF2C2C",
"'  c #C63434",
"]  c #CC3535",
"[  c #CE3636",
"{  c #D12C2C",
"}  c #D22D2D",
"|  c #D33E2E",
" . c #D13535",
".. c #D23737",
"X. c #D23C37",
"o. c #D33838",
"O. c #D43838",
"+. c #D53B3B",
"@. c #C24C02",
"#. c #D34600",
"$. c #D74F0B",
"%. c #D4461D",
"&. c #D64A14",
"*. c #DC5C1C",
"=. c #D34225",
"-. c #D94F3F",
";. c #DA552E",
":. c #DB5825",
">. c #D95136",
",. c #DE6113",
"<. c #D24242",
"1. c #D54242",
"2. c #D74343",
"3. c #D64545",
"4. c #DA4848",
"5. c #D84D48",
"6. c #D94F4F",
"7. c #DD4B4B",
"8. c #DE4E4E",
"9. c #DC5656",
"0. c #DE5757",
"q. c #DE5E50",
"w. c #DC5D59",
"e. c #DE6047",
"r. c #E15A5A",
"t. c #E55D5D",
"y. c #E36F58",
"u. c #E66060",
"i. c #E26E61",
"p. c #E36868",
"a. c #E66969",
"s. c #EA6B6B",
"d. c #EC6F6F",
"f. c #E77E69",
"g. c #E87E60",
"h. c #E77D72",
"j. c #EF7272",
"k. c #EA7878",
"l. c #ED7979",
"z. c #F07B7B",
"x. c #F47F7F",
"c. c #ED8C71",
"v. c #EC8D7A",
"b. c #F09A79",
"n. c #E78B8B",
"m. c #EA8383",
"M. c #EF9B8A",
"N. c #F08787",
"B. c #F58383",
"V. c #F38989",
"C. c #F78C8C",
"Z. c #F09B82",
"A. c #F59696",
"S. c #F4A78A",
"D. c #F4A993",
"F. c #F7B391",
"G. c #F7B49B",
"H. c #F6B6A3",
"J. c #F7C9AD",
"K. c #FAC0A3",
"L. c #F9C1AC",
"P. c #FCCAAA",
"I. c #F6CBB5",
"U. c #FBCCB4",
"Y. c #FACEBC",
"T. c None",
/* pixels */
"T.T.T.T.T.T.T.T.T.T.T.T.T.T.T.T.T.T.T.T.",
"T.T.T.        T.T.T.T.T.T.      T.T.T.T.",
"T.T.    - y     T.T.T.T.    w &   T.T.T.",
"T.    e I.Y.C     T.T.    V A.n.*   T.T.",
"T.  9 J.U.L.H.N         x N.V.C.m.%   T.",
"T.  l P.K.G.D.M.j     k k.l.z.x.B.q   T.",
"T.    B F.S.Z.v.h.f g p.a.s.d.j.t     T.",
"T.T.    z b.c.f.i.w.0.0.r.t.u.r     T.T.",
"T.T.T.    h g.y.q.5.3.4.7.8.5     T.T.T.",
"T.T.T.T.    u e.-.X. .o.+.4     T.T.T.T.",
"T.T.T.T.    i >.| ( ~ / { 7     T.T.T.T.",
"T.T.T.    s ;.=.U D A G H } 7     T.T.T.",
"T.T.    a :.%.E K v c S H } +.8     T.T.",
"T.    p *.&.T P b ; < n H _  .2.d     T.",
"T.  0 ,.$.W I J :     2 F ) [ 2.6.=   T.",
"T.  + @.#.R L >         2 Q [ <.Z o   T.",
"T.T.  + m Y >     T.T.    3 ' M @   T.T.",
"T.T.T.  X $     T.T.T.T.    # .   T.T.T.",
"T.T.T.T.      T.T.T.T.T.T.      T.T.T.T.",
"T.T.T.T.T.T.T.T.T.T.T.T.T.T.T.T.T.T.T.T."
};
