<?xml version="1.0" encoding="UTF-8" standalone="no"?>
<!-- Created with Inkscape (http://www.inkscape.org/) -->

<svg
   xmlns:dc="http://purl.org/dc/elements/1.1/"
   xmlns:cc="http://creativecommons.org/ns#"
   xmlns:rdf="http://www.w3.org/1999/02/22-rdf-syntax-ns#"
   xmlns:svg="http://www.w3.org/2000/svg"
   xmlns="http://www.w3.org/2000/svg"
   xmlns:xlink="http://www.w3.org/1999/xlink"
   xmlns:sodipodi="http://sodipodi.sourceforge.net/DTD/sodipodi-0.dtd"
   xmlns:inkscape="http://www.inkscape.org/namespaces/inkscape"
   width="1052.3622"
   height="744.09448"
   id="svg2"
   version="1.1"
   inkscape:version="0.47 r22583"
   sodipodi:docname="Nuevo documento 1">
  <defs
     id="defs4">
    <inkscape:perspective
       sodipodi:type="inkscape:persp3d"
       inkscape:vp_x="0 : 526.18109 : 1"
       inkscape:vp_y="0 : 1000 : 0"
       inkscape:vp_z="744.09448 : 526.18109 : 1"
       inkscape:persp3d-origin="372.04724 : 350.78739 : 1"
       id="perspective10" />
    <inkscape:perspective
       id="perspective2824"
       inkscape:persp3d-origin="0.5 : 0.33333333 : 1"
       inkscape:vp_z="1 : 0.5 : 1"
       inkscape:vp_y="0 : 1000 : 0"
       inkscape:vp_x="0 : 0.5 : 1"
       sodipodi:type="inkscape:persp3d" />
  </defs>
  <sodipodi:namedview
     id="base"
     pagecolor="#ffffff"
     bordercolor="#666666"
     borderopacity="1.0"
     inkscape:pageopacity="0.0"
     inkscape:pageshadow="2"
     inkscape:zoom="0.35"
     inkscape:cx="838.28906"
     inkscape:cy="195.04917"
     inkscape:document-units="px"
     inkscape:current-layer="layer1"
     showgrid="false"
     inkscape:window-width="1113"
     inkscape:window-height="840"
     inkscape:window-x="0"
     inkscape:window-y="581"
     inkscape:window-maximized="0" />
  <metadata
     id="metadata7">
    <rdf:RDF>
      <cc:Work
         rdf:about="">
        <dc:format>image/svg+xml</dc:format>
        <dc:type
           rdf:resource="http://purl.org/dc/dcmitype/StillImage" />
        <dc:title></dc:title>
      </cc:Work>
    </rdf:RDF>
  </metadata>
  <g
     inkscape:label="Capa 1"
     inkscape:groupmode="layer"
     id="layer1"
     transform="translate(0,-308.2677)">
    <image
       y="8.7907534"
       x="-1774.2858"
       id="image2826"
       height="1050"
       width="2960"
       xlink:href="file:///home/pepe/Descargas/Pantallazo-4.png" />
    <path
       style="fill:#00ff00;fill-opacity:1;stroke:#ffffff;stroke-width:1.10000002;stroke-linecap:round;stroke-linejoin:round;stroke-miterlimit:4;stroke-opacity:1;stroke-dasharray:none"
       id="path2830"
       d="m -393.93531,723.68504 c 7.79742,6.59323 16.91042,11.34047 25.77181,16.31597 2.3179,1.44102 4.6216,2.90511 6.95368,4.32306 2.70358,1.64383 5.47523,3.17579 8.15265,4.8619 6.78686,4.27402 14.66669,9.90035 21.41929,14.02532 10.09215,6.16501 20.48622,11.82159 30.72724,17.73601 23.91941,14.95683 48.63688,28.55087 73.1204,42.5433 5.18384,2.96259 10.50171,5.70289 15.54662,8.89632 4.48181,2.83699 8.66772,6.11647 13.00159,9.17471 14.35185,10.86494 26.42586,24.29508 37.21815,38.61663 2.19351,3.10117 4.20019,6.27643 5.11169,9.98508 -6.36492,2.75777 -12.46897,6.21994 -19.09476,8.27332 -0.73904,0.22904 -0.11731,-1.54424 -0.12189,-2.31794 -0.007,-1.16669 0.0455,-2.33307 0.0874,-3.49903 0.17092,-4.75155 0.43002,-9.49604 0.74694,-14.23972 1.27614,-14.58548 2.87063,-29.1256 3.74316,-43.74696 0.62818,-12.10953 -2.60198,-9.66792 19.45287,-14.73565 1.10015,-0.25279 -0.0242,2.25751 -0.0338,3.38628 -0.0124,1.47153 -0.0214,2.94309 -0.0321,4.41464 0.1891,8.44059 0.86369,16.85859 1.21703,25.29267 0.154,3.83107 0.29594,7.66433 0.18701,11.49758 0,0 -18.85299,9.45523 -18.85299,9.45523 l 0,0 c 0.3825,-3.79121 0.13101,-7.58859 0.0745,-11.39391 -0.26689,-8.47239 -0.71909,-16.93657 -1.13272,-25.40275 -0.0343,-1.43928 -0.0515,-2.87907 -0.10304,-4.31784 -0.0374,-1.04498 -1.01492,-2.52523 -0.1638,-3.13266 5.91094,-4.21848 12.83681,-6.79945 19.13817,-10.40883 0.17127,-0.0981 -0.45398,-0.42247 -0.53933,-0.24449 -0.93675,1.95322 0.23309,4.59961 -0.91343,6.43419 -0.66079,7.62506 -1.24373,15.25569 -1.88016,22.88272 -0.39926,4.78486 -1.02459,9.54961 -1.39372,14.33689 -0.1647,2.13595 -0.19001,4.28037 -0.28501,6.42056 -0.38446,5.73437 -0.75404,11.54838 -0.58567,17.30097 0.0213,0.72707 0.76435,1.74936 0.17461,2.17515 -5.90895,4.26632 -12.50291,7.49308 -18.75436,11.23962 1.12996,-1.52238 -3.31474,-7.7837 -3.93775,-9.08928 -9.9272,-14.57397 -21.41498,-28.11537 -35.43323,-38.94542 -4.21768,-3.0641 -8.29597,-6.32986 -12.65303,-9.19231 -4.93576,-3.24264 -10.10826,-6.11028 -15.19823,-9.10507 -24.33047,-14.31531 -49.17068,-27.75103 -73.2987,-42.41286 -10.46311,-5.80977 -21.05784,-11.38801 -31.39572,-17.41779 -4.26058,-2.48507 -17.14494,-10.71903 -21.95009,-13.596 -2.74936,-1.6461 -5.5714,-3.16787 -8.3413,-4.77916 -2.35739,-1.37132 -4.69346,-2.77896 -7.04019,-4.16844 -9.15198,-4.97422 -18.43695,-9.83672 -26.67655,-16.26681 0,0 17.9667,-11.1752 17.9667,-11.1752 z" />
    <path
       style="fill:#00ff00;fill-opacity:1;stroke:#ffffff;stroke-width:1.10000002;stroke-linecap:round;stroke-linejoin:round;stroke-miterlimit:4;stroke-opacity:1;stroke-dasharray:none"
       id="path2832"
       d="m -178.14497,893.8053 c -22.11878,-2.39197 -44.44071,-2.3959 -66.66346,-2.7691 -32.52004,-0.43127 -65.04485,-0.42989 -97.56404,0.0499 0,0 16.20453,-11.77142 16.20453,-11.77142 l 0,0 c 32.17107,0.54508 64.34653,0.6356 96.52153,0.7307 22.90344,0.11244 45.87179,-0.17303 68.72098,1.61876 0,0 -17.21954,12.1412 -17.21954,12.1412 z" />
    <flowRoot
       xml:space="preserve"
       id="flowRoot2834"
       style="font-size:40px;font-style:normal;font-weight:normal;fill:#ff0000;fill-opacity:1;stroke:none;font-family:Bitstream Vera Sans"
       transform="translate(-271.42857,462.55341)"><flowRegion
         id="flowRegion2836"><rect
           id="rect2838"
           width="577.14288"
           height="277.14285"
           x="-412.85715"
           y="152.66591"
           style="fill:#ff0000" /></flowRegion><flowPara
         id="flowPara2840">Poner aquí valores por defecto, como si fuera una acción especial para el elemento actual</flowPara></flowRoot>    <path
       style="fill:none;stroke:#000000;stroke-width:1px;stroke-linecap:butt;stroke-linejoin:miter;stroke-opacity:1"
       d="m -540,-122.78067 5.71428,1237.14287 -1242.85718,77.1428 c 0,0 -245.7143,-599.99996 -245.7143,-619.99996 0,-20 -8.5714,-811.42857 -8.5714,-811.42857 l 465.7143,-134.28571 1045.7143,117.14286 -20,134.28571 z"
       id="path2882" />
    <path
       style="fill:#ff0000;fill-opacity:1;stroke:#ffffff;stroke-width:1.10000002;stroke-linecap:round;stroke-linejoin:round;stroke-miterlimit:4;stroke-opacity:1;stroke-dasharray:none"
       id="path2842"
       d="m 491.60846,293.01391 c -25.74568,38.40146 -49.70434,77.96921 -73.59289,117.54407 -26.70971,43.26528 -54.83046,85.67773 -80.6509,129.489 -4.57342,7.94278 -9.29143,16.03581 -11.96136,24.87123 -0.66859,2.21254 -1.24955,5.15684 -1.73584,7.44711 -0.99388,4.13214 -1.10015,8.37652 -1.52208,12.57943 -1.80347,12.60079 -6.79905,9.63692 -22.21181,16.84944 -0.40156,-0.65381 -0.90199,-1.25639 -1.20467,-1.96145 -1.82447,-4.24987 -2.46148,-12.35246 -3.02607,-16.64496 -4.55976,-34.66736 2.28801,15.28118 -3.79114,-28.56677 -6.24046,-42.20458 -12.4779,-84.39745 -20.1512,-126.36991 -0.35713,-1.79623 -2.94363,-15.2481 -3.8751,-18.66198 -0.23387,-0.85714 -1.80109,-2.00688 -1.03471,-2.45638 5.79342,-3.39797 11.89075,-7.09316 18.56697,-7.82668 1.90946,-0.2098 0.13884,3.84025 0.27852,5.75611 0.25667,3.52044 0.60689,7.03343 0.91034,10.55015 2.84677,31.89619 7.65394,63.54104 14.18783,94.87767 4.70738,23.00243 13.28704,44.98074 21.91882,66.74361 2.18799,6.75218 7.24903,13.11986 7.37579,20.44413 -0.38246,1.85414 -1.29974,4.37308 -3.05054,5.43147 -18.9905,11.48005 -12.2092,13.35289 -20.30525,10.7696 -0.31525,-0.86435 -0.88922,-1.67475 -0.94575,-2.59306 -0.20254,-3.29023 4.0675,-6.9459 6.36717,-8.36908 21.26827,-13.16212 16.11486,-10.71582 30.80569,-16.37079 23.05845,-8.3984 46.50667,-15.78907 69.35294,-24.76551 4.80296,-1.88711 9.54208,-3.93285 14.31312,-5.89927 3.98792,-1.77401 7.97584,-3.54803 11.96376,-5.32204 0,0 -15.2951,12.10859 -15.2951,12.10859 l 0,0 c -3.90332,1.68576 -7.80664,3.37151 -11.70996,5.05727 -27.86957,11.23124 -56.33581,20.82415 -84.48823,31.31246 -5.14602,2.21447 -21.61163,9.70403 4.28508,-3.85848 1.34927,-0.70664 -2.45194,1.81069 -3.62078,2.78726 -0.7574,0.6328 -1.47927,1.31163 -2.15082,2.0349 -0.39274,0.42298 -0.58551,1.024 -1.03059,1.39151 -0.15547,0.12837 -0.40224,-0.0282 -0.60336,-0.0423 5.84537,-4.25857 -0.7018,0.53376 -16.56424,9.76783 -0.43519,0.25334 0.83357,-0.56932 1.21318,-0.90019 0.98734,-0.8606 1.86468,-1.90522 2.49175,-3.05346 0.60979,-3.05243 -0.68899,-6.08539 -1.71042,-8.92328 -1.45307,-4.03713 -2.69343,-7.12871 -4.2871,-11.22295 -8.05363,-22.15529 -16.80196,-44.24178 -21.23485,-67.47755 -2.33758,-11.62601 -3.90249,-18.8562 -5.8099,-30.64667 -3.44359,-21.28619 -5.82324,-42.73719 -9.06773,-64.05303 -0.51247,-3.41688 -1.01146,-6.83581 -1.53741,-10.25064 -0.29701,-1.92832 -2.32287,-4.41094 -0.93142,-5.77861 5.26006,-5.17015 12.04034,-8.68892 18.75506,-11.74036 0.91685,-0.41666 0.38961,1.97689 0.53736,2.97308 0.95284,6.42428 1.58593,12.89425 2.74716,19.28903 2.87831,19.58106 5.92212,39.13215 8.92078,58.69488 2.61154,17.03726 4.38538,30.02869 7.3213,47.00823 1.1963,6.91871 2.57159,13.80527 3.85738,20.7079 0.96155,5.39744 1.94377,10.79124 2.88464,16.19232 2.31641,13.29732 1.31284,8.66418 3.54359,19.78059 0.3964,1.97541 0.94164,5.3438 1.88699,7.42749 0.17936,0.39535 0.51714,0.69746 0.77571,1.04619 -5.9735,3.40776 -11.99742,6.72864 -17.92052,10.2233 -0.29582,0.17453 0.71885,-0.0465 1.00181,-0.24118 0.39017,-0.26848 0.67673,-0.67617 0.921,-1.08194 0.85916,-1.42716 1.12738,-3.16854 1.36342,-4.78021 0.74133,-4.24981 0.49222,-8.66968 1.71518,-12.86146 0.35366,-1.57678 1.4122,-6.38926 1.81318,-7.75118 2.72614,-9.25942 7.90648,-17.64515 12.93028,-25.78553 27.41878,-43.91799 56.85017,-86.56634 83.72048,-130.83619 16.18191,-27.29775 32.5371,-54.48823 48.79251,-81.7415 3.47338,-5.82334 6.82412,-11.71959 10.32647,-17.52555 3.24807,-5.38443 6.75378,-10.61048 9.96503,-16.01801 0,0 19.21145,-8.77769 19.21145,-8.77769 z"
       transform="translate(0,308.2677)" />
    <flowRoot
       xml:space="preserve"
       id="flowRoot2844"
       style="fill:black;stroke:none;stroke-opacity:1;stroke-width:1px;stroke-linejoin:miter;stroke-linecap:butt;fill-opacity:1;font-family:Bitstream Vera Sans;font-style:normal;font-weight:normal;font-size:40px"><flowRegion
         id="flowRegion2846"><rect
           id="rect2848"
           width="514.28571"
           height="274.28571"
           x="310"
           y="24.094482" /></flowRegion><flowPara
         id="flowPara2850"></flowPara></flowRoot>    <flowRoot
       xml:space="preserve"
       id="flowRoot2852"
       style="font-size:40px;font-style:normal;font-weight:normal;fill:#ffffff;fill-opacity:1;stroke:none;font-family:Bitstream Vera Sans"
       transform="translate(-194.28571,651.12484)"><flowRegion
         id="flowRegion2854"><rect
           id="rect2856"
           width="637.14288"
           height="452.85715"
           x="290"
           y="-150.19124"
           style="fill:#ffffff" /></flowRegion><flowPara
         id="flowPara2858">Desde aquí seleccionaremos, y crearemos key frames,</flowPara></flowRoot>    <path
       style="fill:#ff0000;fill-opacity:1;stroke:#ffffff;stroke-width:1.10000002;stroke-linecap:round;stroke-linejoin:round;stroke-miterlimit:4;stroke-opacity:1;stroke-dasharray:none"
       id="path2862"
       d="m 1004.2514,172.51966 c -2.2655,2.00799 -4.6074,3.93293 -6.79646,6.02398 -7.08326,6.76613 -18.448,18.65299 -24.81239,25.31491 -12.91221,13.51585 -16.76596,17.19877 -28.56114,32.0734 -4.95492,6.24854 -9.58425,12.74849 -14.37637,19.12273 -26.62374,34.71377 -48.14306,72.84733 -68.30718,111.55201 -5.21379,11.22018 -11.3507,22.13779 -15.3879,33.87228 -4.09535,12.42553 -0.80551,6.08935 -22.01721,14.91838 -1.31384,-3.61284 -2.02662,-7.45743 -3.48618,-11.01865 -0.63538,-1.55029 -2.38155,-4.65473 -3.15509,-6.0751 -3.42236,-7.03113 -6.71573,-14.12162 -10.10351,-21.16913 -1.41732,-2.37416 -2.1045,-5.11474 -3.3124,-7.57721 -0.14262,-0.29076 -0.89078,-0.618 -0.60127,-0.76316 19.49901,-9.77675 17.92278,-14.79586 18.88864,-4.82591 2.34543,15.88311 4.23739,31.82382 6.28042,47.74706 1.98587,12.78826 2.28357,26.32268 7.68377,38.29169 0.43715,0.574 0.76403,1.252 1.31145,1.722 1.99265,1.71083 7.36712,-1.03556 9.13939,-1.64557 1.79671,-0.61842 3.62517,-1.14044 5.43775,-1.71066 14.162,-4.32148 28.24859,-8.88318 42.49946,-12.91309 1.56143,-0.47446 3.12287,-0.94891 4.68431,-1.42337 0,0 -16.4002,12.64866 -16.4002,12.64866 l 0,0 c -1.52552,0.4348 -3.05105,0.8696 -4.57657,1.3044 -14.26904,3.94259 -28.35934,8.47122 -42.4543,12.98948 -3.56353,1.20356 -10.88487,4.65015 -14.75119,2.78926 -1.76282,-0.84846 -2.11888,-1.93449 -3.13878,-3.52094 -4.96819,-12.42998 -5.08915,-26.14568 -7.12817,-39.22339 -2.12829,-15.79792 -3.92457,-31.64829 -7.06455,-47.29113 -2.13214,-10.6432 -2.07303,-4.48328 17.95248,-15.63822 0.40523,-0.22573 0.47513,0.80016 0.65575,1.22742 1.05198,2.48846 1.79335,5.12161 3.11678,7.499 3.22411,7.0744 6.48705,14.13593 9.9963,21.0743 0.90789,1.63638 2.62997,4.63593 3.3678,6.37588 1.43895,3.39339 2.20132,7.06003 3.55599,10.48704 -6.17836,3.41749 -12.42172,6.72002 -18.53507,10.25248 -0.1783,0.10303 0.42258,0.19413 0.60865,0.10589 0.27181,-0.1289 0.43627,-0.42267 0.59636,-0.67736 0.97319,-1.54818 1.11003,-3.41869 1.90755,-5.04589 4.27063,-12.20827 11.3113,-23.28882 16.8775,-34.90419 21.20824,-38.6004 42.93845,-77.05557 69.43534,-112.35005 4.69896,-6.36955 9.23385,-12.86346 14.09687,-19.10865 12.65436,-16.25097 14.36844,-17.32055 28.18122,-32.0435 7.7586,-8.26983 15.30643,-16.74174 23.25862,-24.82557 1.95102,-1.98331 4.06001,-3.80478 6.09001,-5.70718 0,0 19.34352,-7.93433 19.34352,-7.93433 z"
       transform="translate(0,308.2677)" />
    <flowRoot
       xml:space="preserve"
       id="flowRoot2864"
       style="font-size:40px;font-style:normal;font-weight:normal;fill:#000000;fill-opacity:1;stroke:none;font-family:Bitstream Vera Sans"
       transform="translate(365.71429,456.83913)"><flowRegion
         id="flowRegion2866"><rect
           id="rect2868"
           width="600"
           height="698.57141"
           x="648.57141"
           y="-55.905518" /></flowRegion><flowPara
         id="flowPara2878"
         style="fill:#800000">Aquí editaremos las propiedades del key frame actual. Las propiedades que no tengan key frame, serán desactivadas.</flowPara><flowPara
         id="flowPara2876"
         style="fill:#800000" /></flowRoot>  </g>
</svg>
