<?xml version="1.0" encoding="UTF-8" standalone="no"?>
<!-- Created with Inkscape (http://www.inkscape.org/) -->

<!-- 
Created By Andrew Fitzsimon.
Much of this document has been manually cleaned and crafted in a text editor so that only the colour definitions and basic presentation related data remain in the XML. 
Changes to this document may compromise the structure of this palette.
-->

<svg
   xmlns:dc="http://purl.org/dc/elements/1.1/"
   xmlns:cc="http://creativecommons.org/ns#"
   xmlns:rdf="http://www.w3.org/1999/02/22-rdf-syntax-ns#"
   xmlns:svg="http://www.w3.org/2000/svg"
   xmlns="http://www.w3.org/2000/svg"
   xmlns:xlink="http://www.w3.org/1999/xlink"
   xmlns:sodipodi="http://sodipodi.sourceforge.net/DTD/sodipodi-0.dtd"
   xmlns:inkscape="http://www.inkscape.org/namespaces/inkscape"
   sodipodi:docname="elem_layer_icon.svg"
   inkscape:version="0.48.1 "
   sodipodi:version="0.32"
   id="Etiquette"
   height="128"
   width="128"
   y="00"
   x="00"
   version="1.0">
  <sodipodi:namedview
     inkscape:grid-bbox="false"
     showborder="true"
     gridtolerance="40pt"
     inkscape:grid-points="false"
     showgrid="true"
     inkscape:current-layer="Etiquette"
     inkscape:window-y="26"
     inkscape:window-x="163"
     inkscape:window-height="853"
     inkscape:window-width="1562"
     inkscape:cy="120.7785"
     inkscape:cx="-394.05408"
     inkscape:zoom="0.53863503"
     inkscape:pageshadow="0"
     inkscape:pageopacity="0.0"
     borderopacity="1.0"
     bordercolor="#666666"
     pagecolor="#ffffff"
     id="base"
     inkscape:window-maximized="0">
    <inkscape:grid
       empspacing="14"
       empopacity="0.0000000"
       opacity="0.0000000"
       empcolor="#3f3fff"
       color="#ffffff"
       spacingy="8.0000000pt"
       spacingx="8.0000000pt"
       originy="0.0000000pt"
       originx="0px"
       type="xygrid"
       id="GridFromPre046Settings" />
  </sodipodi:namedview>
  <metadata
     id="About">
    <rdf:RDF>
      <cc:Work
         rdf:about="">
        <dc:format>image/svg+xml</dc:format>
        <dc:type
           rdf:resource="http://purl.org/dc/dcmitype/StillImage" />
        <dc:creator>
          <cc:Agent>
            <dc:title>Andrew Fitzsimon</dc:title>
          </cc:Agent>
        </dc:creator>
        <dc:date>2004-12-25</dc:date>
        <dc:title>Etiquette Icon</dc:title>
        <cc:license
           rdf:resource="http://creativecommons.org/licenses/by/2.0/" />
        <dc:rights>
          <cc:Agent>
            <dc:title>Andrew Fitzsimon</dc:title>
          </cc:Agent>
        </dc:rights>
      </cc:Work>
      <cc:License
         rdf:about="http://creativecommons.org/licenses/by/2.0/">
        <cc:permits
           rdf:resource="http://web.resource.org/cc/Reproduction" />
        <cc:permits
           rdf:resource="http://web.resource.org/cc/Distribution" />
        <cc:requires
           rdf:resource="http://web.resource.org/cc/Notice" />
        <cc:requires
           rdf:resource="http://web.resource.org/cc/Attribution" />
        <cc:prohibits
           rdf:resource="http://web.resource.org/cc/CommercialUse" />
        <cc:permits
           rdf:resource="http://web.resource.org/cc/DerivativeWorks" />
        <cc:requires
           rdf:resource="http://web.resource.org/cc/ShareAlike" />
      </cc:License>
    </rdf:RDF>
  </metadata>
  <defs
     id="Gradients">
    <linearGradient
       inkscape:collect="always"
       id="linearGradient92">
      <stop
         style="stop-color:#000000;stop-opacity:1;"
         offset="0"
         id="stop93" />
      <stop
         style="stop-color:#000000;stop-opacity:0;"
         offset="1"
         id="stop94" />
    </linearGradient>
    <linearGradient
       id="3DShadowGradient">
      <stop
         style="stop-color:#565248;stop-opacity:0.50000000;"
         offset="0.0000000"
         id="stop3933" />
      <stop
         style="stop-color:#565248;stop-opacity:0;"
         offset="1"
         id="stop3934" />
    </linearGradient>
    <radialGradient
       inkscape:collect="always"
       xlink:href="#MaterialSoftShadow"
       id="radialGradient2970"
       gradientUnits="userSpaceOnUse"
       cx="25.912205"
       cy="175.83524"
       fx="25.459438"
       fy="142.80988"
       r="56.143108" />
    <linearGradient
       id="Basic3DDarkGradient">
      <stop
         style="stop-color:#fff9e7;stop-opacity:0.77966100;"
         offset="0.0000000"
         id="stop3929" />
      <stop
         style="stop-color:#807d74;stop-opacity:0;"
         offset="1"
         id="stop3930" />
    </linearGradient>
    <linearGradient
       id="MaterialSoftShadow">
      <stop
         style="stop-color:#000000;stop-opacity:0.215;"
         offset="0"
         id="stop2619" />
      <stop
         style="stop-color:#000000;stop-opacity:0.098;"
         offset="0.50000000"
         id="stop2621" />
      <stop
         style="stop-color:#000000;stop-opacity:0;"
         offset="1"
         id="stop2620" />
    </linearGradient>
    <linearGradient
       id="WhiteTransparent">
      <stop
         style="stop-color:#ffffff;stop-opacity:1;"
         offset="0"
         id="stopWhiteFull" />
      <stop
         style="stop-color:#ffffff;stop-opacity:0;"
         offset="1"
         id="stopWhiteTransparent" />
    </linearGradient>
    <linearGradient
       inkscape:collect="always"
       xlink:href="#WhiteTransparent"
       id="linearGradient10409"
       gradientUnits="userSpaceOnUse"
       gradientTransform="matrix(3.180358,0.000000,0.000000,0.346182,-3.048520,-4.711982)"
       x1="26.845953"
       y1="160.47531"
       x2="26.888615"
       y2="207.16502" />
    <linearGradient
       inkscape:collect="always"
       xlink:href="#Basic3DDarkGradient"
       id="linearGradient10415"
       gradientUnits="userSpaceOnUse"
       gradientTransform="matrix(1.531530,0.000000,0.000000,0.718878,-3.048520,-5.175702)"
       x1="3.3979435"
       y1="124.18470"
       x2="78.711426"
       y2="124.18470" />
    <linearGradient
       inkscape:collect="always"
       xlink:href="#Basic3DDarkGradient"
       id="linearGradient10421"
       gradientUnits="userSpaceOnUse"
       gradientTransform="matrix(1.118869,0.000000,0.000000,0.869035,1.624231,-1.421085e-14)"
       x1="64.216156"
       y1="58.259041"
       x2="65.807091"
       y2="23.747826" />
    <linearGradient
       inkscape:collect="always"
       xlink:href="#WhiteTransparent"
       id="linearGradient194"
       gradientTransform="matrix(1.912425,0.000000,0.000000,0.575700,-3.048520,-5.175702)"
       x1="38.306545"
       y1="235.00525"
       x2="41.340191"
       y2="148.93845"
       gradientUnits="userSpaceOnUse" />
    <linearGradient
       inkscape:collect="always"
       xlink:href="#3DShadowGradient"
       id="linearGradient198"
       gradientTransform="matrix(1.222691,0.000000,0.000000,0.900458,-3.048520,-5.175702)"
       x1="51.691013"
       y1="-6.4641781"
       x2="59.674019"
       y2="52.618374"
       gradientUnits="userSpaceOnUse" />
    <linearGradient
       inkscape:collect="always"
       xlink:href="#linearGradient92"
       id="linearGradient225"
       gradientTransform="scale(1.884921,0.530526)"
       x1="34.063450"
       y1="113.74319"
       x2="34.190170"
       y2="85.134789"
       gradientUnits="userSpaceOnUse" />
    <linearGradient
       inkscape:collect="always"
       xlink:href="#Basic3DDarkGradient"
       id="linearGradient102"
       gradientUnits="userSpaceOnUse"
       gradientTransform="scale(1.459604,0.685117)"
       x1="55.407467"
       y1="92.169785"
       x2="55.407467"
       y2="253.63820" />
    <linearGradient
       inkscape:collect="always"
       xlink:href="#MaterialSoftShadow"
       id="linearGradient866"
       gradientUnits="userSpaceOnUse"
       gradientTransform="scale(1.822611,0.548663)"
       x1="38.521580"
       y1="237.15240"
       x2="33.548130"
       y2="125.36791" />
    <linearGradient
       inkscape:collect="always"
       xlink:href="#Basic3DDarkGradient"
       id="linearGradient3871"
       gradientUnits="userSpaceOnUse"
       gradientTransform="matrix(1.118869,0,0,0.869035,1.624231,0)"
       x1="64.216156"
       y1="58.259041"
       x2="65.807091"
       y2="23.747826" />
  </defs>
  <path
     sodipodi:type="arc"
     style="fill:url(#radialGradient2970);fill-opacity:1.0000000;fill-rule:evenodd;stroke-width:1.0000000pt"
     id="path10398"
     sodipodi:cx="25.912205"
     sodipodi:cy="175.83524"
     sodipodi:rx="56.143108"
     sodipodi:ry="56.143108"
     d="M81.9560941421 175.830121052A56.143108 56.143108 0.0 1 1 -30.1447702592 175.830121052A56.143108 56.143108 0.0 1 1 81.9560941421 175.830121052Z"
     transform="matrix(1.061544,0.000000,0.000000,0.073935,34.000000,107.000000)" />
  <path
     transform="matrix(1.000000,0.000000,0.000000,1.000000,0.000000,0.000000)"
     style="stroke-opacity:1;fill-opacity:1;fill-rule:evenodd;stroke:#000000;stroke-dasharray:none;stroke-miterlimit:4;stroke-width:4.0;fill:#ff0000"
     d="M14.0 89.0L14.0 23.4121276865C14.0 16.7848645943 17.2687821476 12.0 24.136967002 12.0L57.7088859682 12.0C64.5770778445 11.8060382457 65.410330773 23.0 72.2785226494 23.0L110.523801633 23.0C113.637315383 23.1939617543 116.0 26.400145749 116.0 30.0841646443L116.0 89.0L14.0 89.0Z"
     id="path10399"
     sodipodi:nodetypes="cczzzzzcc" />
  <path
     transform="matrix(1.000000,0.000000,0.000000,1.000000,0.000000,0.000000)"
     style="fill:url(#linearGradient198);fill-opacity:1.0000000;fill-rule:evenodd;stroke:none;stroke-width:1.2500000;stroke-opacity:0.33962265"
     d="M17.0 85.0L17.0 26.2278896609C17.0 20.2883380891 19.9379299748 16.0 26.1109151751 16.0L54.4681064116 16.0C60.6411005782 15.9676368621 61.3900127406 26.0 67.5630148772 26.0L106.089409574 26.0C108.876455664 26.0323631379 111.0 28.9058418035 111.0 32.2075677222L111.0 85.0L17.0 85.0Z"
     id="path10401"
     sodipodi:nodetypes="cczzzzzcc" />
  <path
     transform="matrix(1.000000,0.000000,0.000000,1.000000,0.000000,0.000000)"
     style="fill:url(#linearGradient3871);fill-opacity:1;fill-rule:evenodd;stroke:none;stroke-width:1.25000000000000000;stroke-opacity:1"
     d="M15.0 89.0L15.0 23.4137324426C15.0 16.7855374347 18.1730332116 12.0 24.8400351813 12.0L57.4285685672 12.0C64.0955775472 11.8044641678 64.9044234542 23.0 71.5714324342 23.0L108.696434062 23.0C111.706527375 23.1955358322 114.0 26.4021706757 114.0 30.0867076122L114.0 89.0L15.0 89.0Z"
     id="path10400"
     sodipodi:nodetypes="cczzzzzcc" />
  <path
     transform="matrix(1.000000,0.000000,0.000000,1.000000,0.000000,0.000000)"
     style="stroke-linejoin:round;stroke-opacity:0.58823532;fill-opacity:1.0000000;fill-rule:evenodd;stroke:#000000;stroke-linecap:round;stroke-miterlimit:4.0000000;stroke-width:2.0;fill:#fafafa"
     d="M30.0 33.0L30.0 110.0L99.0 110.0L99.0251318673 33.0L30.0 32.9340635811Z"
     id="path10402"
     sodipodi:nodetypes="ccccc" />
  <path
     transform="matrix(1.000000,0.000000,0.000000,1.000000,0.000000,0.000000)"
     style="fill:url(#linearGradient225);fill-opacity:1.0000000;fill-rule:evenodd;stroke:none;stroke-width:1.4895619;stroke-linecap:round;stroke-linejoin:round;stroke-miterlimit:4.0000000;stroke-opacity:0.58823532"
     d="M29.0 37.0L29.0 57.0L99.0 57.0L99.0254955719 37.0L29.0 36.9828725809Z"
     id="path10424"
     sodipodi:nodetypes="ccccc" />
  <path
     transform="matrix(1.000000,0.000000,0.000000,1.000000,0.000000,0.000000)"
     style="stroke-opacity:1;fill-opacity:1;fill-rule:evenodd;stroke:#000000;stroke-dasharray:none;stroke-miterlimit:4;stroke-width:5.0;fill:#ff0000"
     d="M3.5 67.5L9.32114658733 108.643959166C9.84429756983 112.315147926 13.4570787923 116.5 17.1444394927 116.5L112.515470808 116.5C115.774532306 116.49128432 117.897615795 111.877525905 118.382951253 108.643959166L124.499714314 67.8912973389C125.579808791 60.6951442918 121.709703933 53.5 115.900540657 53.5L12.0991990949 53.5C6.29000457299 53.1087026611 2.47119028165 60.2975119293 3.5 67.5Z"
     id="path10403"
     sodipodi:nodetypes="czzzzzzzz" />
  <path
     transform="matrix(1.000000,0.000000,0.000000,1.000000,0.000000,0.000000)"
     style="opacity:0.28301886;fill:url(#linearGradient10415);fill-opacity:1.0000000;fill-rule:evenodd;stroke:none;stroke-width:1.3937240;stroke-miterlimit:4.0000000;stroke-opacity:0.31372550"
     d="M4.0 67.0L10.1985452083 107.663294966C10.6948146446 110.909531167 14.2665295683 114.563553027 17.8925511006 114.617533573L110.757073309 116.0C113.96192698 116.047719916 116.087986938 111.918247901 116.527596672 109.045761393L123.0 66.7534485559C123.978308639 60.3608918395 120.256083467 53.9796638827 114.542931716 54.0L12.4570763606 54.3633908343C6.74392899691 54.2668885552 3.02405751661 60.6160809659 4.0 67.0Z"
     id="path10404"
     sodipodi:nodetypes="czzzzzzzz" />
  <path
     transform="matrix(1.000000,0.000000,0.000000,1.000000,0.000000,0.000000)"
     style="opacity:0.48427674;fill:url(#linearGradient102);fill-opacity:1.0000000;fill-rule:evenodd;stroke:none;stroke-width:1.3937240;stroke-miterlimit:4.0000000;stroke-opacity:0.48026314"
     d="M4.0 67.0L9.31724774382 108.923328066C9.7310173197 112.307322236 13.3848292894 115.997488441 17.0112546396 116.0L110.757073299 116.064853833C113.962285919 115.937359913 116.087986933 111.857663701 116.527596667 108.988181899L123.0 66.7401080717C123.978308639 60.3542381586 120.256083464 53.9796851549 114.542931709 54.0L12.4570762679 54.3630107167C6.74392850068 54.2802077662 3.18629823519 60.6002321279 4.0 67.0Z"
     id="path101"
     sodipodi:nodetypes="czzzzzzzz" />
  <path
     transform="matrix(1.000000,0.000000,0.000000,1.000000,0.000000,0.000000)"
     style="opacity:0.11320753;fill:url(#linearGradient194);fill-opacity:1.0000000;fill-rule:evenodd;stroke-width:1.0000000pt"
     d="M10.0 78.0L13.9939625223 101.282739683C14.6758923709 105.243067905 14.1791321388 111.031323382 19.923075935 111.0L106.51631443 110.527708105C113.531264702 110.489442949 112.920132055 107.040204215 113.934747056 102.223234757L119.0 78.0L10.0 77.9123226609Z"
     id="path10405"
     sodipodi:nodetypes="czzzzcc" />
  <path
     transform="matrix(1.000000,0.000000,0.000000,1.000000,0.000000,0.000000)"
     style="fill:url(#linearGradient10409);fill-opacity:1.0000000;fill-rule:evenodd;stroke-width:0.90415878pt"
     d="M5.0 67.0C4.81280035041 67.9500066657 8.31127622436 60.0 14.2426557144 60.0L112.322992317 60.0C119.619720673 59.8599913986 122.812787496 67.4670021348 123.0 66.6570030662C123.187202461 65.8470120316 125.028999116 55.0 113.674252443 55.0L14.6687373943 55.0C3.17367102287 55.0 5.18719944874 66.1900079612 5.0 67.0Z"
     id="path10407"
     sodipodi:nodetypes="czzzzzz" />
  <path
     transform="matrix(1.000000,0.000000,0.000000,1.000000,0.000000,0.000000)"
     style="fill:none;fill-opacity:1.0000000;fill-rule:evenodd;stroke:none;stroke-width:2.6231930;stroke-miterlimit:4.0000000;stroke-opacity:1.0000000"
     d="M4.0 67.0L9.8211603313 108.151589065C10.344312549 111.814568897 13.9571023013 116.0 17.6444717077 116.0L113.015728198 116.0C116.274797391 116.0 118.397885893 111.385603211 118.883222497 108.151589065L125.0 67.393288566C126.080097027 60.1961398355 122.209983031 53.0 116.40080604 53.0L12.599219398 53.0C6.79001116029 52.606711434 2.97118785258 59.7965153694 4.0 67.0Z"
     id="path99"
     sodipodi:nodetypes="czzzzzzzz" />
  <path
     transform="matrix(1.000000,0.000000,0.000000,1.000000,0.000000,0.000000)"
     style="fill:url(#linearGradient866);fill-opacity:1.0;fill-rule:evenodd;stroke-width:1.0000000pt"
     d="M9.0 68.0L14.2169946778 102.053325006C19.2455831536 79.7789903859 108.506695212 79.2896729012 113.945505621 103.0L119.0 68.0L9.0 67.91174654Z"
     id="path864"
     sodipodi:nodetypes="ccccc" />
</svg>
