/* XPM */
static char *eye_grayed_icon[] = {
/* columns rows colors chars-per-pixel */
"20 20 156 2",
"   c black",
".  c #151515",
"X  c #1E1E1E",
"o  c gray12",
"O  c #272727",
"+  c gray16",
"@  c gray17",
"#  c gray18",
"$  c #323232",
"%  c #3C3C3C",
"&  c gray24",
"*  c gray25",
"=  c #434343",
"-  c #444444",
";  c #494949",
":  c gray29",
">  c #4B4A4A",
",  c #4E4E4E",
"<  c #4E4E4F",
"1  c #4B4F51",
"2  c #4F5050",
"3  c #4B545A",
"4  c #4E565B",
"5  c #524F4F",
"6  c #525253",
"7  c #535353",
"8  c #525454",
"9  c #555555",
"0  c #53585A",
"q  c #555B5F",
"w  c #5A5A5A",
"e  c gray36",
"r  c #5D5D5D",
"t  c #525B60",
"y  c #5F5F60",
"u  c #596065",
"i  c #596166",
"p  c #5A6165",
"a  c #586268",
"s  c #58666D",
"d  c #5C676E",
"f  c #605F5F",
"g  c #626262",
"h  c gray39",
"j  c #656262",
"k  c #696666",
"l  c #686868",
"z  c #686969",
"x  c DimGray",
"c  c #6A6868",
"v  c #6D6D6D",
"b  c #6F6F6F",
"n  c #726F70",
"m  c gray44",
"M  c #737070",
"N  c #737171",
"B  c #747474",
"V  c gray46",
"C  c #767677",
"Z  c #777777",
"A  c #747779",
"S  c #717A7F",
"D  c #797373",
"F  c #7C7676",
"G  c gray47",
"H  c #797979",
"J  c gray48",
"K  c #7B7A7A",
"L  c #7B7B7B",
"P  c #7C7878",
"I  c #7D797A",
"U  c #7D7A7A",
"Y  c #7C7B7D",
"T  c #7D7B7E",
"R  c #7C7C7C",
"E  c gray49",
"W  c #7D7E7E",
"Q  c #7E7E7E",
"!  c #717B81",
"~  c #807B7B",
"^  c #817B7C",
"/  c #807D7F",
"(  c #807E7E",
")  c #827F7F",
"_  c #847E80",
"`  c #838383",
"'  c #848484",
"]  c gray52",
"[  c #878686",
"{  c #878A8B",
"}  c #868A8C",
"|  c #868B8D",
" . c #888587",
".. c #8A8585",
"X. c #8B8686",
"o. c #898689",
"O. c #888888",
"+. c #898989",
"@. c #88898A",
"#. c #8A8989",
"$. c #8B8888",
"%. c #8B8B8B",
"&. c #8C8889",
"*. c #8E8989",
"=. c #8D8C8C",
"-. c #8E8D8D",
";. c #8E8E8E",
":. c #8F8E8E",
">. c gray56",
",. c #8D8F90",
"<. c #909090",
"1. c gray57",
"2. c #909293",
"3. c #919293",
"4. c #929090",
"5. c #929292",
"6. c #939393",
"7. c #959595",
"8. c #969595",
"9. c #969697",
"0. c #999192",
"q. c #989393",
"w. c #989898",
"e. c gray60",
"r. c #9A9A9A",
"t. c #9B9B9B",
"y. c #9F9A9A",
"u. c gray61",
"i. c #9D9D9D",
"p. c gray63",
"a. c #A2A2A2",
"s. c gray64",
"d. c #A7A7A7",
"f. c #A9A3A3",
"g. c #B3ADAD",
"h. c gray71",
"j. c #BEB4B4",
"k. c #B9B9B9",
"l. c #C6BABA",
"z. c #C3C3C3",
"x. c #C5C5C5",
"c. c gray78",
"v. c #CEC4C4",
"b. c #D7CBCB",
"n. c #DCCFCF",
"m. c #ECDFDF",
"M. c gray92",
"N. c #F4E5E5",
"B. c #F6E7E7",
"V. c #F8E9E9",
"C. c #FDEEEE",
"Z. c gray97",
"A. c #FFF0F0",
"S. c #FFF1F1",
"D. c gray100",
"F. c None",
/* pixels */
"F.F.F.F.F.F.F.F.F.F.F.F.F.F.F.F.F.F.F.F.",
"F.F.F.F.F.F.F.F.F.F.F.F.F.F.F.F.F.F.F.F.",
"F.F.F.F.F.F.F.F.F.F.F.F.F.F.F.F.F.F.F.F.",
"F.F.F.F.F.F.F.F.F.; b m L Q Q m - + F.F.",
"F.F.F.F.F.F.o e C 5.w.w.w.w.( U 9 F.F.F.",
"F.F.F.F.F., L w.O.G C G L O.w.w.w.' C ; ",
"F.F.F.  b 5.Q x Q O.5.O.l 6 X.f.7.w.w.G ",
"F.F.  m w.h C 7.i.i.i.w.:.x 6 n.m.4.C $ ",
"F.F.b w.b , >.w.w.a.x.x.d.O.2 0.V.:.; F.",
"F.9 m :.k h 5.w.w.s.M.Z.h.5.q o.v.:.  F.",
"+ * ` b.x h 5.t.w.u.k.c.a.,.d Q g.0.F.F.",
"O b L C.F 6 :.u.w.w.w.w.i.} s Q :.j F.F.",
"# [ ( A.j.> Q w.i.w.w.y.7.! 4 y.O.F.F.F.",
"C R F.A.A.D 8 A } 2.2.} ! 3 &.[ % F.F.F.",
"e - F.A.A.N.U 0 i i i a t _ L w F.F.F.F.",
"F.F.F.F.A.A.N.l.( o.T n m f . F.F.F.F.F.",
"F.F.F.F.o 5 P &...~ M h & F.F.F.F.F.F.F.",
"F.F.F.F.F.F.F.F.F.F.F.F.F.F.F.F.F.F.F.F.",
"F.F.F.F.F.F.F.F.F.F.F.F.F.F.F.F.F.F.F.F.",
"F.F.F.F.F.F.F.F.F.F.F.F.F.F.F.F.F.F.F.F."
};
