/* XPM */
static char *g118[] = {
/* columns rows colors chars-per-pixel */
"20 22 133 2",
"   c black",
".  c #010101",
"X  c gray4",
"o  c gray5",
"O  c #0E0E0E",
"+  c gray6",
"@  c #101010",
"#  c #111111",
"$  c gray7",
"%  c #131313",
"&  c #181818",
"*  c #1D1D1D",
"=  c #2C2C2C",
"-  c #2D2D2D",
";  c gray18",
":  c #2F2F2F",
">  c gray37",
",  c #606060",
"<  c DimGray",
"1  c red",
"2  c #FF0101",
"3  c #FF0202",
"4  c #FF0303",
"5  c #FF0404",
"6  c #FE0707",
"7  c #FF0707",
"8  c #FE0808",
"9  c #FF0909",
"0  c #FE0C0C",
"q  c #FE0D0D",
"w  c #FD1313",
"e  c #FE1111",
"r  c #FE1414",
"t  c #FD2323",
"y  c #FC2929",
"u  c #FB3030",
"i  c #FC3030",
"p  c #FC3131",
"a  c #FD3333",
"s  c #FC3636",
"d  c #FC3E3E",
"f  c #FA4747",
"g  c #FA4848",
"h  c #FB4949",
"j  c #FC4A4A",
"k  c #FC4B4B",
"l  c #FC4D4D",
"z  c #F85353",
"x  c #F95454",
"c  c #FC5454",
"v  c #F76464",
"b  c #FB6464",
"n  c #F96969",
"m  c #F86B6B",
"M  c #F67171",
"N  c #808080",
"B  c #8E8E8E",
"V  c #909090",
"C  c #929292",
"Z  c #939393",
"A  c gray58",
"S  c #959595",
"D  c gray74",
"F  c #F68686",
"G  c #F68989",
"H  c #FA8383",
"J  c #F79D9D",
"K  c #EFB3B3",
"L  c #EABCBC",
"P  c #ECBCBC",
"I  c #EFBFBF",
"U  c #F2AFAF",
"Y  c #F6ADAD",
"T  c #F7ACAC",
"R  c #F6AEAE",
"E  c #F1B2B2",
"W  c #F4B0B0",
"Q  c #F9B1B1",
"!  c #C6C6C6",
"~  c gray78",
"^  c gray79",
"/  c #CACACA",
"(  c gray80",
")  c LightGray",
"_  c gray84",
"`  c #D8D8D8",
"'  c #DADADA",
"]  c gray86",
"[  c #DDDDDD",
"{  c gray87",
"}  c #DFDFDF",
"|  c #EDCFCF",
" . c #EFDFDF",
".. c #F2C2C2",
"X. c #F4C4C4",
"o. c #F5C5C5",
"O. c #F5C7C7",
"+. c #F6C6C6",
"@. c #F2CDCD",
"#. c #F6C9C9",
"$. c #F7CACA",
"%. c #F8C5C5",
"&. c #F8C8C8",
"*. c #F7D6D6",
"=. c #F2DCDC",
"-. c gray88",
";. c #E1E1E1",
":. c #E2E2E2",
">. c gray89",
",. c #E4E4E4",
"<. c gray90",
"1. c #E6E6E6",
"2. c #E7E7E7",
"3. c gray91",
"4. c #E9E9E9",
"5. c #EAEAEA",
"6. c gray92",
"7. c #ECEBEB",
"8. c #ECECEC",
"9. c gray93",
"0. c #EEEEEE",
"q. c #EFEFEF",
"w. c #F3E6E6",
"e. c #F4EBEB",
"r. c gray94",
"t. c #F1F1F1",
"y. c #F3F0F0",
"u. c gray95",
"i. c #F3F3F3",
"p. c #F4F4F4",
"a. c gray96",
"s. c #F6F6F6",
"d. c None",
/* pixels */
"  X X X X X X X X X X X X X &   d.d.d.d.",
"X a.a.a.a.a.u.q.,.,.;.{ ' ^ , :   d.d.d.",
"X a.a.a.a.s.u.u.6.6.,.;.{ ' B ( :   d.d.",
"X a.a.a.a.a.a.a.q.6.,.,.;.{ V a.^ :   d.",
"X u.u.a.a.a.a.a.u.q.6.,.;.;.V a.a.~ =   ",
"X u.u.u.u.a.a.a.u.u.q.6.,.,.< S S V > * ",
"X u.u.u.u.a.a.a.a.u.q.q.6.,.,.;.] _ D % ",
"X q.m u Y u.a.a.%.a b q.q.6.,.;.{ ' ~ % ",
"X 8.G 5 s u.p.a.c 2 H p.r.8.3.,.;.{ ( $ ",
"X 8.w.q q =.u.e.q 9 *.&.X...I L L ;.) $ ",
"X 8.8.g 2 F u.J 2 d Q 2 2 2 2 2 5 ,.` @ ",
"X 6.8.W 5 t u.u 5 Y $.l j j g g z 3.-.@ ",
"X 6.6.6.e 9 W 9 e e.$.l j j j g z 3.,.+ ",
"X 3.6.6.M 2 w 2 n u.Y 2 2 2 2 2 5 q.6.X ",
"X 3.3.6.| 2 2 2 @.u.w.+.+.&.&.&.+.r.6.+ ",
"X 3.3.3.6.u 2 y q.u.u.u.i.a.a.a.a.u.q.+ ",
"X ,.3.3.6.K v K q.q.q.u.u.p.a.a.a.a.u.+ ",
"X ,.3.3.3.3.6.8.8.q.q.r.u.u.p.a.a.a.a.+ ",
"X ,.3.3.3.3.6.6.6.8.q.q.r.u.u.p.a.a.s.@ ",
"X ,.,.3.,.,.6.6.6.6.8.q.q.u.u.u.a.a.s.$ ",
"X ;.,.,.,.,.6.6.6.6.8.q.q.r.u.u.u.p.a.$ ",
"  + + X + + + + + + + + + + + + + + +   "
};
