/* XPM */
static char *g2495[] = {
/* columns rows colors chars-per-pixel */
"20 18 155 2",
"   c black",
".  c #010100",
"X  c #030000",
"o  c #020200",
"O  c #030301",
"+  c #020202",
"@  c #030302",
"#  c gray1",
"$  c gray2",
"%  c #0D0000",
"&  c #0B0A05",
"*  c #0D0C06",
"=  c #0D0D06",
"-  c #0E0C07",
";  c #090909",
":  c #150000",
">  c #1B0000",
",  c #1B0C01",
"<  c #1E1A09",
"1  c #1E1E1E",
"2  c #210000",
"3  c #251C00",
"4  c #271D00",
"5  c #3D0000",
"6  c #282100",
"7  c #2B2300",
"8  c #2D2600",
"9  c #302800",
"0  c #312B00",
"q  c #322B00",
"w  c #232323",
"e  c gray19",
"r  c gray24",
"t  c #3E3E3E",
"y  c #560000",
"u  c #501D1D",
"i  c #591313",
"p  c #4E2E07",
"a  c #5C4E20",
"s  c #5B4D28",
"d  c #5B4E2F",
"f  c #664508",
"g  c #7F4D1C",
"h  c #605832",
"j  c #675B33",
"k  c #746004",
"l  c #7D691D",
"z  c #6B6138",
"x  c #6B6238",
"c  c #444444",
"v  c #494949",
"b  c #4E4E4E",
"n  c #505050",
"m  c #535353",
"M  c #5A5A5A",
"N  c #7D7851",
"B  c DimGray",
"V  c #6A6A6A",
"C  c #747474",
"Z  c #870100",
"A  c #981B15",
"S  c #83382D",
"D  c #9F3939",
"F  c #A80000",
"G  c #A11A1A",
"H  c #BA0000",
"J  c #BB0000",
"K  c #BA2C2B",
"L  c #8F5F00",
"P  c #856D08",
"I  c #996708",
"U  c #9B6E00",
"Y  c #856F23",
"T  c #A46D00",
"R  c #AE7E00",
"E  c #B07400",
"W  c #BB7C00",
"Q  c #D30000",
"!  c #DD1111",
"~  c #E10000",
"^  c #E71010",
"/  c #F02828",
"(  c #C07F00",
")  c #DF7574",
"_  c #E94D4D",
"`  c #F84040",
"'  c #FE5858",
"]  c #F76969",
"[  c #AA9C00",
"{  c #B18E06",
"}  c #B0910B",
"|  c #B99A13",
" . c #BDB137",
".. c #CD9500",
"X. c #DEAD05",
"o. c #DDAA0F",
"O. c #DBAA13",
"+. c #DDAC18",
"@. c #ECA300",
"#. c #E9AA00",
"$. c #EEA900",
"%. c #E5BA00",
"&. c #E7BC00",
"*. c #EAB205",
"=. c #F0AF00",
"-. c #F0B500",
";. c #F1B600",
":. c #F3BC00",
">. c #E0CD07",
",. c #E2D015",
"<. c #F5C200",
"1. c #F5C305",
"2. c #F6C800",
"3. c #F6CB0D",
"4. c #F8CF00",
"5. c #F9D500",
"6. c #FBDB00",
"7. c #F9D315",
"8. c #FADA1D",
"9. c #E4D324",
"0. c #E5D633",
"q. c #FDE100",
"w. c #FDE208",
"e. c #FDE417",
"r. c #FCE025",
"t. c #E7D941",
"y. c #E8DA48",
"u. c #FEEC5B",
"i. c #808080",
"p. c #838383",
"a. c #8B8B8B",
"s. c #909090",
"d. c #939393",
"f. c #9B9B9B",
"g. c #B9B38D",
"h. c gray68",
"j. c #AEAEAE",
"k. c gray70",
"l. c #BBBBBB",
"z. c #C3B694",
"x. c #CABD9B",
"c. c #F7A1A1",
"v. c #E6E0B9",
"b. c #C3C3C3",
"n. c gray77",
"m. c #CBCBCB",
"M. c #CDCDCD",
"N. c #CECECE",
"B. c #D0D0D0",
"V. c #D2D2D2",
"C. c gray83",
"Z. c #D5D5D5",
"A. c gray84",
"S. c #D8D8D8",
"D. c None",
/* pixels */
"D.D.D.D.D.D.  t C p.B t   D.D.D.D.D.D.D.",
"D.D.D.D.D.  i.B.Z.B.B.b.M   D.D.D.D.D.D.",
"D.D.D.D.  B Z.N.d.m a.N.m.v   D.D.D.D.D.",
"D.D.D.D.  l.N.m       b Z.f.$   D.D.D.D.",
"D.D.D.D.1 Z.j.;   D.D.$ n.k.w   D.D.D.D.",
"D.D.D.D.c S.d.    D.D.  j.l.e   D.D.D.D.",
"D.D.D.= N v.g.h x x j s z.x.d     D.D.D.",
"D.D.   .u.r.8.7.3.1.:.-.$.$.@.I   D.D.D.",
"D.D.  y.e.6.5.4.%.{ X.-.-.$.@.(   D.D.D.",
"D.D.  y.w.6.5.4.k   * O.=.$.@.W   D.D.D.",
"D.D.  t.q.6.5.4.P @ - +.@.@.@.E   D.D.D.",
"D.D.  0.q.6.5.4.&.< a -.@.Y I T   u   D.",
"D.D.  9.q.6.5.4.}   - #.f c.) p D ' i D.",
"D.D.  ,.q.6.5.4.| l Y O...S ] _ ` G   D.",
"D.D.  >.q.6.5.4.2.<.:.-.=.U K / ! > D.D.",
"D.D.  [ q.6.5.4.2.<.:.-.R A ^ F ~ H 2 D.",
"        q q 9 8 7 6 4 4 , H Z   y Q 5   ",
"D.D.D.                    %       :   D."
};
