/* XPM */
static char *g3867[] = {
/* columns rows colors chars-per-pixel */
"20 17 55 1",
"  c black",
". c #010101",
"X c #020202",
"o c #040404",
"O c gray2",
"+ c #0B0B0B",
"@ c #0C0C0C",
"# c gray5",
"$ c #0E0E0E",
"% c gray7",
"& c #131313",
"* c gray9",
"= c gray10",
"- c #1B1B1B",
"; c gray13",
": c #222222",
"> c #232323",
", c gray15",
"< c gray16",
"1 c gray17",
"2 c gray18",
"3 c gray19",
"4 c #323232",
"5 c gray22",
"6 c #393939",
"7 c #3E3E3E",
"8 c #444444",
"9 c gray27",
"0 c #464646",
"q c gray28",
"w c #494949",
"e c #4B4B4B",
"r c gray30",
"t c #505050",
"y c gray33",
"u c #555555",
"i c #565656",
"p c gray35",
"a c #5A5A5A",
"s c gray37",
"d c #626262",
"f c gray39",
"g c gray40",
"h c #6A6A6A",
"j c #6C6C6C",
"k c gray45",
"l c #7E7E7E",
"z c #808080",
"x c gray52",
"c c #888888",
"v c #898989",
"b c gray54",
"n c #8D8D8D",
"m c #8E8E8E",
"M c None",
/* pixels */
"MMMMMMM            M",
"MMMMMM             M",
"MMMMM   o6ewq084    ",
"MMMM   Xdy$%*cm2    ",
"MMM   .pml#sxmh  X  ",
"MM    tmn,9mmn= +>  ",
"M    0mma<nmmi  u7  ",
"M   ;hhhhhhhf+ -b&  ",
"               jy   ",
"              ,v$   ",
"   gkkkkkkkk= 4r   M",
"  Onmmmmmmmm1 :+  MM",
"  =mmmmmmmmm5 @   MM",
"  3mmmmmmmmm8    MMM",
"  >eeeeeeeee1    MMM",
"                MMMM",
"                MMMM"
};
