/* XPM */
static char *g4142-9[] = {
/* columns rows colors chars-per-pixel */
"20 21 87 1",
"  c black",
". c #5D5D5D",
"X c #606060",
"o c gray38",
"O c #626262",
"+ c gray39",
"@ c #646464",
"# c #656565",
"$ c gray40",
"% c #676767",
"& c #686868",
"* c DimGray",
"= c gray42",
"- c #6D6D6D",
"; c #6F6F6F",
": c #727272",
"> c gray45",
", c #747474",
"< c gray46",
"1 c #767676",
"2 c #777777",
"3 c gray47",
"4 c gray50",
"5 c #808080",
"6 c gray51",
"7 c #848484",
"8 c gray52",
"9 c #888888",
"0 c gray54",
"q c #8B8B8B",
"w c gray55",
"e c #989898",
"r c gray60",
"t c #9A9A9A",
"y c #9B9B9B",
"u c gray62",
"i c #9F9F9F",
"p c gray64",
"a c #A5A5A5",
"s c gray65",
"d c #A7A7A7",
"f c #A9A9A9",
"g c #AAAAAA",
"h c gray67",
"j c #ACACAC",
"k c gray68",
"l c #AEAEAE",
"z c #AFAFAF",
"x c #B1B1B1",
"c c #B2B2B2",
"v c gray70",
"b c #B4B4B4",
"n c gray71",
"m c #B6B6B6",
"M c #B7B7B7",
"N c gray72",
"B c #B9B9B9",
"V c gray73",
"C c #BBBBBB",
"Z c #BCBCBC",
"A c gray74",
"S c gray",
"D c gray75",
"F c #C0C0C0",
"G c gray76",
"H c gray77",
"J c #C5C5C5",
"K c #C6C6C6",
"L c #CACACA",
"P c gray80",
"I c gray81",
"U c gray82",
"Y c #D2D2D2",
"T c LightGray",
"R c gray83",
"E c #D5D5D5",
"W c #D7D7D7",
"Q c #D8D8D8",
"! c gray85",
"~ c #DADADA",
"^ c gray86",
"/ c gainsboro",
"( c #DDDDDD",
") c gray87",
"_ c #DFDFDF",
"` c gray88",
"' c None",
/* pixels */
"''''''''''+9Z<o.''''",
"''''''''''+9Lk>o.'''",
"''''''''' O9SCj;o.''",
"''''''OoO&>eBZCh=O.'",
"''''.O+7xLNmZbNCh*O@",
"'''OO5HW/)YFxduBCh%O",
"''O+yY(ENurrrrriBCj$",
"'O+jW_CrrrrrrtrriBCk",
"OOt!^grrrrrrrrrrrcAL",
"O8T_hrrrrrrrrrtrzAId",
"+D(NrrrrrrruparvFTf0",
"5WQrrpAYQ(```UZ`)j0+",
"k^ZrZ_````)^`(`_z0+O",
"S)sV``Jsq41w```v0+OO",
"G`d(`l2+OOO2^`M0@O+'",
"K`n`R:OOooO<~Cq@OO''",
"p`W`POOX''+,vq@Oo'''",
":/``~&O'''+@3@OO''''",
"Oc``_6O#''+OOOo'''''",
"O+n``hOO$'+OOO''''''",
"oO#fWL-OO@OO+'''''''"
};
