/* XPM */
static char *g4159[] = {
/* columns rows colors chars-per-pixel */
"20 20 94 2",
"   c gray12",
".  c gray13",
"X  c #222222",
"o  c #232323",
"O  c gray14",
"+  c #272727",
"@  c #282828",
"#  c gray16",
"$  c #2A2A2A",
"%  c #2C2C2C",
"&  c gray20",
"*  c gray21",
"=  c #373737",
"-  c gray23",
";  c #3F3F3F",
":  c #434343",
">  c gray27",
",  c #494949",
"<  c gray29",
"1  c #4E4E4E",
"2  c #505050",
"3  c gray32",
"4  c gray33",
"5  c #555555",
"6  c #565656",
"7  c #585858",
"8  c #5F5F5F",
"9  c #646464",
"0  c #686868",
"q  c #727272",
"w  c gray46",
"e  c #797979",
"r  c gray48",
"t  c #6783AD",
"y  c #808080",
"u  c #8D8D8D",
"i  c #8E8E8E",
"p  c gray60",
"a  c gray61",
"s  c gray62",
"d  c gray63",
"f  c #ACACAC",
"g  c gray73",
"h  c gray74",
"j  c gray75",
"k  c #96A9C6",
"l  c #C5C5C5",
"z  c #C6C6C6",
"x  c gray78",
"c  c #CDCDCD",
"v  c #D0D0D0",
"b  c gray82",
"n  c LightGray",
"m  c gray84",
"M  c #D7D7D7",
"N  c #DADADA",
"B  c gray86",
"V  c gray87",
"C  c #DFDFDF",
"Z  c #C9D3E2",
"A  c #CCD6E3",
"S  c #D9DFEA",
"D  c #DBE1EB",
"F  c gray88",
"G  c #E1E1E1",
"H  c #E2E2E2",
"J  c gray89",
"K  c #E4E4E4",
"L  c gray90",
"P  c #E6E6E6",
"I  c #E7E7E7",
"U  c #E0E6ED",
"Y  c gray91",
"T  c #E9E9E9",
"R  c #EAEAEA",
"E  c gray92",
"W  c #ECECEC",
"Q  c gray93",
"!  c #EEEEEE",
"~  c #EFEFEF",
"^  c gray94",
"/  c #F1F1F1",
"(  c gray95",
")  c #F4F4F4",
"_  c gray96",
"`  c #F6F6F6",
"'  c gray97",
"]  c #F3F5F8",
"[  c #F4F6F8",
"{  c #F8F8F8",
"}  c #F9F9F9",
"|  c gray98",
" . c #FBFBFB",
".. c gray100",
/* pixels */
"u u u u u u u u u u u u u u u u u u u u ",
"u b ! ! ! ! ! ! ! ! ! ! ! ! ! ! ! ! b u ",
"u ! ................................! u ",
"u ! Z t t t t t t t t t t t t t t A ! u ",
"u ! S k k k k k k k k k k k k k k D ! u ",
"u ! ] U U U U U U U U U U U U U U [ ! u ",
"u ! | | | | | | ! m m / | | | | | | R u ",
"u R | ` ` ` | ` p 5 1 p ` | ` ` ` | R u ",
"u R | ` ` ` ` R 5 , : , ! ` ` ` ` ` R u ",
"u R ` / / / / d > 5 , & a / / / / ` R u ",
"u P / / / ! ! 2 - a u # ; ! / / ! ` P u ",
"u P / ! ! ! f = = F N o   f ! ! ! / P u ",
"u P / R R R 5 % w R R 0   1 R R R ! P u ",
"u F ! R R g # o l P R j     j R R ! P u ",
"u P ! P P 8 o O 5 5 5 5 o   9 P P ! F u ",
"u F R F l o   7 r r r r 5   o c P ! F u ",
"u F R F q   # b F F F F b O   r F R F u ",
"u F ! N #   y R P R R R R r   % C ! F u ",
"u l F C N N C F F F F F C C N N C F l u ",
"u u u u u u u u u u u u u u u u u u u u "
};
