/* XPM */
static char *g4167[] = {
/* columns rows colors chars-per-pixel */
"20 24 90 1",
"  c #555555",
". c #5B5B5B",
"X c #5D5D5D",
"o c #5F5F5F",
"O c #62625F",
"+ c #606060",
"@ c gray38",
"# c #626262",
"$ c gray39",
"% c #646464",
"& c #656565",
"* c gray40",
"= c DimGray",
"- c #6A6A6A",
"; c gray42",
": c #6D6D6D",
"> c gray44",
", c #717171",
"< c #727272",
"1 c gray45",
"2 c #747474",
"3 c #757574",
"4 c #767676",
"5 c #777777",
"6 c #797979",
"7 c #7C7C7C",
"8 c gray49",
"9 c #808080",
"0 c #838383",
"q c gray52",
"w c #868686",
"e c gray53",
"r c #888888",
"t c #898989",
"y c #939393",
"u c gray58",
"i c gray59",
"p c #989898",
"a c gray60",
"s c #9A9A9A",
"d c #9B9B9B",
"f c #9D9D9D",
"g c gray62",
"h c gray63",
"j c #A2A2A2",
"k c #A4A4A4",
"l c #A5A5A5",
"z c gray65",
"x c #A7A7A7",
"c c gray66",
"v c #ACACAC",
"b c gray68",
"n c #AEAEAE",
"m c gray69",
"M c #B1B1B1",
"N c #B2B2B2",
"B c gray70",
"V c #B4B4B4",
"C c #B6B6B6",
"Z c #B7B7B7",
"A c gray72",
"S c #B9B9B9",
"D c gray73",
"F c #BBBBBB",
"G c #BCBCBC",
"H c gray74",
"J c #C0C0C0",
"K c #C1C1C1",
"L c gray77",
"P c #C5C5C5",
"I c #C6C6C6",
"U c #C8C8C8",
"Y c #CACACA",
"T c #CBCBCB",
"R c #CDCDCD",
"E c gray81",
"W c #D0D0D0",
"Q c #D2D2D2",
"! c LightGray",
"~ c gray83",
"^ c #D5D5D5",
"/ c gray84",
"( c #D8D8D8",
") c gray85",
"_ c gray86",
"` c #DDDDDD",
"' c gray87",
"] c #DFDFDF",
"[ c gray88",
"{ c None",
/* pixels */
"{{{{{{{{###{{{{{{{{{",
"{{{{{{{####{{{{{{{{{",
"{{{{{{%#6##{{{{{{{{{",
"{{{{{##0Q##{{{{{{{{{",
"{{{{##8ZQ#$%{{{{{{{{",
"{{{o#6ZGP=#####{{{{{",
"{{##3CFZGGKx3###9{{{",
"{%#,AGkcNK/[]J,##%{{",
"##:AFkpssspvY]!t##{{",
"#%GGxsssssspsN'_w##{",
"##hPCssssspsssv[Q;#.",
"9##xPZsffsspsssA]N#$",
"{%$#v[YE[]_/Rvss/)%#",
"{{ #$B]['AAKQ'EkA[e$",
"{{{:#$A[/##$=h)Yv[i#",
"{{{{##%G/##{%#N'v]i$",
"{{{{{ $%N##{{#y'/'3$",
"{{{{{{%#$##{%#v[]K##",
"{{{{{{{o##$;#$Q[)8#9",
"{{{{{{{{=##$#t'E3#${",
"{{{{{{{o###*wvv=##{{",
"{{{9%####%306,##${{{",
"{{#,3,>=$$#####9{{{{",
"{{:%#O##$##$%{{{{{{{"
};
