/* XPM */
static char *g4166[] = {
/* columns rows colors chars-per-pixel */
"20 21 85 1",
"  c black",
". c #010000",
"X c #020000",
"o c #0C0000",
"O c #0D0000",
"+ c #120000",
"@ c #1D0000",
"# c #1F0000",
"$ c #131313",
"% c gray8",
"& c #151515",
"* c #191515",
"= c #1B1B1B",
"- c gray11",
"; c #310000",
": c #350000",
"> c #3A0000",
", c #3C1010",
"< c #252525",
"1 c #272727",
"2 c gray17",
"3 c #2C2C2C",
"4 c #313131",
"5 c #430000",
"6 c #460000",
"7 c #430E0E",
"8 c #500000",
"9 c #500D0D",
"0 c #600000",
"q c #630000",
"w c #720000",
"e c #730707",
"r c #790000",
"t c #494949",
"y c #4B4B4B",
"u c #515151",
"i c gray32",
"p c #555555",
"a c #565656",
"s c #604848",
"d c #635050",
"f c #725555",
"g c #656565",
"h c #676767",
"j c #686262",
"k c #727272",
"l c #747474",
"z c #767676",
"x c #797979",
"c c #810000",
"v c #880000",
"b c #8B0000",
"n c #8F0000",
"m c #920000",
"M c #950000",
"N c #960303",
"B c #980000",
"V c #9A0000",
"C c #9E0000",
"Z c #A20000",
"A c #A20101",
"S c #A30000",
"D c #A40000",
"F c #A70000",
"G c #A80000",
"H c #A90000",
"J c #AA0000",
"K c #AB0000",
"L c #9D4141",
"P c #975B5B",
"I c #937171",
"U c red",
"Y c #808080",
"T c #868686",
"R c gray53",
"E c #8F8585",
"W c #898989",
"Q c gray54",
"! c #8D8B8B",
"~ c #8E8888",
"^ c gray55",
"/ c #8D8D8D",
"( c #8E8E8E",
") c gray57",
"_ c None",
/* pixels */
"W////////////!PIWW__",
"/3&&&&&&&&&&,NJFf/__",
"/&________JJJJJVsW _",
"/&_______UJJJF  yx  ",
"/&       JJJv   tz  ",
"/&      SJF     uT _",
"E9q    nJF      a/__",
"LJS   @JF;      a/__",
"PJJ   mJv       a/__",
"!SJ@ oFFo       a/__",
"/eJ6 wJm        a/__",
"/7Jr CJ:        a/__",
"/*JS>JN         a/__",
"/&VJVJq         a/__",
"/&cJJJ+         a/__",
"/%8JJv          a/__",
"/$ VJ5          a/__",
"Tlhjd<-<uhhhhhhhT/__",
")///x4-2k////////___",
"____     ___________",
"_____   ____________"
};
