/* XPM */
static char *g4253[] = {
/* columns rows colors chars-per-pixel */
"20 24 95 2",
"   c #555555",
".  c #5B5B5B",
"X  c #5D5D5D",
"o  c #5F5F5F",
"O  c #606060",
"+  c gray38",
"@  c #626262",
"#  c gray39",
"$  c #646060",
"%  c #646161",
"&  c #646464",
"*  c #656565",
"=  c gray40",
"-  c #6A6363",
";  c #686868",
":  c #6A6A6A",
">  c gray42",
",  c #6D6D6D",
"<  c #737371",
"1  c #727272",
"2  c gray45",
"3  c #747474",
"4  c gray46",
"5  c #767674",
"6  c #777777",
"7  c gray47",
"8  c #797979",
"9  c gray48",
"0  c #7B7B7B",
"q  c #7E7E7E",
"w  c #808080",
"e  c gray51",
"r  c #838383",
"t  c #868686",
"y  c #888888",
"u  c #898989",
"i  c #8B8B8B",
"p  c gray55",
"a  c #8E8E8E",
"s  c gray56",
"d  c #929292",
"f  c #939393",
"g  c gray58",
"h  c #989898",
"j  c gray60",
"k  c #9A9A9A",
"l  c gray61",
"z  c #9D9D9D",
"x  c gray62",
"c  c #9F9F9F",
"v  c #A0A0A0",
"b  c gray63",
"n  c gray64",
"m  c #A5A5A5",
"M  c #A7A7A7",
"N  c #A9A9A9",
"B  c gray67",
"V  c gray68",
"C  c #AEAEAE",
"Z  c gray69",
"A  c #B1B1B1",
"S  c #B2B2B2",
"D  c #B4B4B4",
"F  c gray71",
"G  c #B6B6B6",
"H  c #B7B7B7",
"J  c gray72",
"K  c #B9B9B9",
"L  c gray73",
"P  c #BBBBBB",
"I  c #BCBCBC",
"U  c gray74",
"Y  c gray76",
"T  c #C6C6C6",
"R  c #C8C8C8",
"E  c gray79",
"W  c gray80",
"Q  c #CECECE",
"!  c gray81",
"~  c gray82",
"^  c LightGray",
"/  c gray83",
"(  c #D5D5D5",
")  c gray84",
"_  c #D7D7D7",
"`  c #D8D8D8",
"'  c gray85",
"]  c #DADADA",
"[  c gray86",
"{  c gainsboro",
"}  c #DDDDDD",
"|  c gray87",
" . c #DFDFDF",
".. c gray88",
"X. c None",
/* pixels */
"X.X.X.X.X.X.X.X.X.@ @ @ X.X.X.X.X.X.X.X.",
"X.X.X.X.X.X.X.X.X.@ , @ @ X.X.X.X.X.X.X.",
"X.X.X.X.X.X.X.X.X.@ h g @ & X.X.X.X.X.X.",
"X.X.X.X.X.X.X.X.X.@ h U d @ @ X.X.X.X.X.",
"X.X.X.X.X.X.X.X.& @ h U K s @ @ X.X.X.X.",
"X.X.X.X.X.@ @ 2 h m A U K K s @ o X.X.X.",
"X.X.X.w @ 2 A ^ ) R K H v K K t @ @ X.X.",
"X.X.& @ u Q { R V h h h h z H K w @ # X.",
"X.X.@ g ` ) N h h h h h h h v K K 0 @ @ ",
"X.@ q ) ) z h h h h h h h z v U R g @ # ",
"X & R ` v h h h h h h h z v K Q M 6 # # ",
"@ s { H h h H R Q ^ ` { A ` { N 9 @ @ w ",
"@ H { z H ) ....{ ` ` ..{ ..V 9 @ @ & X.",
"@ R Q m ..{ H q 2 , v ....A 9 @ @   X.X.",
"@ Q Q U ..h & @ & @ u ..H 9 @ & , X.X.X.",
"@ U { ^ ` & @ & X.@ u H 9 @ @ @ X.X.X.X.",
"@ u { ..{ : @ X.X.@ : 9 @ @   X.X.X.X.X.",
"@ @ T ....u & & X.@ @ @ @ & X.X.X.X.X.X.",
"q @ : Y ..H @ & @ @ @ @ X X.X.X.X.X.X.X.",
"X.@ @ : V R 9 @ @ @ @ : X.X.X.X.X.X.X.X.",
"X.X.@ @ & s h t & # # @ & X.X.X.X.X.X.X.",
"X.X.X.@ @ @ & 9 r 3 & @ & @ & @ w X.X.X.",
"X.X.X.X.w @ @ @ @ @ # & > 2 3 3 < & X.X.",
"X.X.X.X.X.X.X.& # @ # @ @ # $ $ - w X.X."
};
