/* XPM */
static char *g4349[] = {
/* columns rows colors chars-per-pixel */
"20 34 107 2",
"   c gray2",
".  c #0B0B0B",
"X  c gray8",
"o  c gray11",
"O  c #1E2123",
"+  c #232323",
"@  c gray17",
"#  c #292D30",
"$  c #2E3135",
"%  c #343535",
"&  c #303539",
"*  c #3C3C3C",
"=  c #3F4040",
"-  c #434343",
";  c #474749",
":  c #43484E",
">  c #4B4B4B",
",  c #464A52",
"<  c #4F545A",
"1  c #535353",
"2  c #51565D",
"3  c #56595C",
"4  c #5B5C5D",
"5  c #545B63",
"6  c #555E6B",
"7  c #595D64",
"8  c #5D6165",
"9  c #5B636B",
"0  c #5D6674",
"q  c #656565",
"w  c #61676C",
"e  c #63696E",
"r  c #696A6A",
"t  c #646C74",
"y  c #656E78",
"u  c #686F77",
"i  c #667079",
"p  c #6B747D",
"a  c #707274",
"s  c #74797E",
"d  c #7C7C7C",
"f  c #6D7781",
"g  c #6F7982",
"h  c #737C84",
"j  c #737D88",
"k  c #787F87",
"l  c #77808A",
"z  c #7E8287",
"x  c #7B828B",
"c  c #768395",
"v  c #7C8691",
"b  c #7F8893",
"n  c #7E8999",
"m  c #808080",
"M  c #878A8E",
"N  c #838D96",
"B  c #868F99",
"V  c #8B8E92",
"C  c #87919B",
"Z  c #8A949E",
"A  c gray58",
"S  c #818EA1",
"D  c #8492A6",
"F  c #8C96A0",
"G  c #8E98A2",
"H  c #8F9EB3",
"J  c #909BA5",
"K  c #94A2B5",
"L  c #97A6BC",
"P  c #9AA6B2",
"I  c #9EACBD",
"U  c gray68",
"Y  c #A0AEBD",
"T  c #BCBCBC",
"R  c #9FAFC4",
"E  c #9FB0C8",
"W  c #A4B2C3",
"Q  c #A4B4CD",
"!  c #A8B7C7",
"~  c #AAB9C9",
"^  c #AABCD4",
"/  c #BABEC4",
"(  c #AFC0D7",
")  c #BEC5CD",
"_  c #B3C3D4",
"`  c #B8C9DC",
"'  c #BBCDE2",
"]  c #BFD1E4",
"[  c gainsboro",
"{  c #C2D3E5",
"}  c #C4D6E9",
"|  c #C5D8EB",
" . c #CBD5E4",
".. c #CADAEC",
"X. c #D3DCE9",
"o. c #DBDFE7",
"O. c #DAE3EC",
"+. c #DDE6F0",
"@. c #E1E4E7",
"#. c #E1E5EB",
"$. c #E7EAED",
"%. c gray92",
"&. c #E9EDF3",
"*. c #EEF1F5",
"=. c #F4F4F4",
"-. c #F1F4F8",
";. c #FEFEFE",
/* pixels */
"^  .+.+.+.+.] | Y M M M M ) +.+.{  .{ #.",
"| | | | | | | ] 4 1 1 1 1 P / ^ ^ ` { } ",
"| } | | | | | C 1 1 1 1 1 M J J J P ^ } ",
"( { X.X.X...P 1 1 > > 1 > d z z N G ~  .",
"Q X.;.;.;.U > > > > > > ; a m d k F ~ =.",
"Q X.;.;.A > ; ; ; ; ; ; ; r d d k Z ~ =.",
"Q X.[ q - - - - - - - - - r d d k Z ! =.",
"K a - - - - - - - - - - - q d d k C ! =.",
"- = = = = = = * = = = = = e k k k C ~ ..",
"* * * * * * 1 7 * * * = * e h h j B ~ { ",
"% * * * * 7 h 3 * * * * * r h g h B ~  .",
"% % % < n j f 3 % % % % % 7 t t p N W E ",
"% 3 S Q H h p 3 % % % % % 7 t t p N R E ",
"L  .#.o./ V N w % % % % % 4 r r u N W o.",
"Q X.;.=.[ T W h @ @ @ @ @ 4 r r u M W =.",
"Q X.;.;.=.%.` x @ @ @ @ @ 4 r q u v W =.",
"Q X.;.;.;.;.{ l + @ @ @ @ 3 r q t v W =.",
"Q X.;.;.;.;.{ h + + + + + 1 q q t v R =.",
"{ ..........} h + + + + + 7 t t y x W  .",
"| | | | | | | h + + o + + 5 t t t k W { ",
"' } ........| h o o o o o < 0 9 t k W { ",
"Q Q Q Q Q Q ' h o o o o o , 5 5 0 j I E ",
"Q Q Q Q Q Q ' p o X X X X , 5 5 9 j I E ",
"Q  .&.&.&.&.{ p X X X X X ; 3 3 9 h I O.",
"Q X.;.;.;.;.{ p X X X X X - 1 1 7 g I =.",
"Q X.;.;.;.;.{ p . . . . . = 1 1 7 f I =.",
"Q X.;.;.;.;.{ p . . . . . = 2 1 7 f I =.",
"Q O.;.;.;.;.{ y   .   . . = 1 1 5 f I =.",
"} | ........| y           , 5 5 7 f R ] ",
"| | | | | | | y           = 5 5 5 f I ' ",
"' { | | | | } b & $ $ # O , < < 5 p I { ",
"Q Q Q Q Q Q ' | ] Q E R c 0 6 6 t v R R ",
"Q Q Q Q Q Q ' | ] Q Q E H D n n K W ( Q ",
"Q X.-.-.-.-.{ | } -.-.*.$.#.#.#.` ] ] *."
};
