/* XPM */
static char *g5535[] = {
/* columns rows colors chars-per-pixel */
"20 24 117 2",
"   c black",
".  c #010101",
"X  c #020202",
"o  c #040404",
"O  c gray2",
"+  c #060606",
"@  c #070707",
"#  c gray3",
"$  c #090909",
"%  c gray4",
"&  c #0B0B0B",
"*  c gray5",
"=  c #0E0E0E",
"-  c gray6",
";  c #111111",
":  c gray7",
">  c #131313",
",  c gray8",
"<  c #151515",
"1  c #161616",
"2  c gray9",
"3  c #191919",
"4  c gray10",
"5  c #1B1B1B",
"6  c gray11",
"7  c #1D1D1D",
"8  c #1E1E1E",
"9  c gray12",
"0  c #202020",
"q  c gray13",
"w  c #222222",
"e  c #232323",
"r  c #2A2A2A",
"t  c gray17",
"y  c #2C2C2C",
"u  c #2D2D2D",
"i  c gray18",
"p  c #2F2F2F",
"a  c #323232",
"s  c gray21",
"d  c #373737",
"f  c gray22",
"g  c gray23",
"h  c #3C3C3C",
"j  c #3E3E3E",
"k  c gray25",
"l  c #414141",
"z  c gray26",
"x  c #434343",
"c  c #444444",
"v  c gray28",
"b  c #484848",
"n  c #494949",
"m  c gray29",
"M  c gray30",
"N  c #4E4E4E",
"B  c gray31",
"V  c #535353",
"C  c gray33",
"Z  c #585858",
"A  c gray35",
"S  c #5A5A5A",
"D  c #5B5B5B",
"F  c #5D5D5D",
"G  c gray37",
"H  c #5F5F5F",
"J  c gray39",
"K  c #646464",
"L  c #656565",
"P  c #676767",
"I  c DimGray",
"U  c #6A6A6A",
"Y  c gray43",
"T  c #6F6F6F",
"R  c #727272",
"E  c gray45",
"W  c gray46",
"Q  c #797979",
"!  c gray48",
"~  c gray49",
"^  c #7E7E7E",
"/  c gray50",
"(  c #808080",
")  c gray51",
"_  c #838383",
"`  c #848484",
"'  c gray52",
"]  c #868686",
"[  c gray53",
"{  c #898989",
"}  c gray54",
"|  c #8B8B8B",
" . c gray55",
".. c #8E8E8E",
"X. c gray56",
"o. c #909090",
"O. c #939393",
"+. c gray58",
"@. c #959595",
"#. c gray59",
"$. c gray60",
"%. c #9A9A9A",
"&. c gray62",
"*. c #9F9F9F",
"=. c #A0A0A0",
"-. c #A2A2A2",
";. c #A4A4A4",
":. c #A5A5A5",
">. c gray66",
",. c #ACACAC",
"<. c gray69",
"1. c #B4B4B4",
"2. c gray72",
"3. c #BCBCBC",
"4. c #C0C0C0",
"5. c gray77",
"6. c None",
/* pixels */
"6.6.6.                              6.6.",
"6.6.      + $ & = - : ; - * % X       6.",
"6.    % s x x x x x c c c c c z ,     6.",
"    o z b b n n n n n n n n n n b =     ",
"  . f N N N N N N N N N N B B B B g .   ",
"  % V V V V z r r r t i a m C C C C O   ",
"  2 Z A A v X .         . . c S S S %   ",
"  4 G G F %                 O A H H -   ",
"  6 J J j .   6.6.6.6.6.6.  . k K L :   ",
"  7 I I p     6.6.6.6.6.6.    h U U 1   ",
"  9 Y Y p     6.6.6.6.6.6.    d T T 3   ",
"  0 E E u     6.6.6.6.6.6.    a W W 7   ",
"  0 Q Q y                     s ! ! w   ",
"  7 ^ ^ s   @ < 5 5 5 5 5 .   l / / e   ",
"  3 _ ` v   @ ~ =.=.=.=.=.+   M ' ' w   ",
"  2 { { Z X @ ( ;.;.;.:.:.+ X D } } q   ",
"  > ....) # @ _ >.>.>.>.>.+ ;  .X.o.q   ",
"  - +.+.+.R # ] ,.,.,.,.,.@ P @.@.@.8   ",
"  $ $.$.$.$.> { <.<.<.<.<.% ) %.%.%.2   ",
"  . +.*.*.*.,  .1.1.1.1.1.% [ =.=...X   ",
"  . M ;.;.;.< o.2.2.2.2.2.% | :.&.5     ",
"    X N &.-.< O.3.3.3.3.3.& X.&.r X   6.",
"6.    X     # #.4.4.4.4.4.@ o X .     6.",
"6.6.        # $.5.5.5.5.5.@         6.6."
};
