/* XPM */
static char *g5535-6[] = {
/* columns rows colors chars-per-pixel */
"20 24 127 2",
"   c black",
".  c #010101",
"X  c #020202",
"o  c gray1",
"O  c #040404",
"+  c gray2",
"@  c #060606",
"#  c #070707",
"$  c gray3",
"%  c #090909",
"&  c gray4",
"*  c #0B0B0B",
"=  c #0C0C0C",
"-  c gray5",
";  c gray6",
":  c #101010",
">  c gray8",
",  c #151515",
"<  c #161616",
"1  c #181818",
"2  c gray10",
"3  c gray11",
"4  c #1E1E1E",
"5  c gray12",
"6  c gray13",
"7  c #222222",
"8  c #232323",
"9  c gray15",
"0  c #272727",
"q  c gray16",
"w  c #2C2C2C",
"e  c gray18",
"r  c #2F2F2F",
"t  c #313131",
"y  c #323232",
"u  c gray20",
"i  c #343434",
"p  c #353535",
"a  c gray21",
"s  c #373737",
"d  c #3C3C3C",
"f  c #484848",
"g  c gray30",
"h  c #505050",
"j  c gray33",
"k  c gray34",
"l  c #585858",
"z  c #606060",
"x  c #686868",
"c  c #6A6A6A",
"v  c #6D6D6D",
"b  c #6F6F6F",
"n  c #717171",
"m  c #727272",
"M  c #747474",
"N  c #767676",
"B  c gray47",
"V  c gray49",
"C  c #808080",
"Z  c gray52",
"A  c #888888",
"S  c #898989",
"D  c #8B8B8B",
"F  c gray55",
"G  c #8D8D8D",
"H  c #909090",
"J  c #959595",
"K  c #9A9A9A",
"L  c #9B9B9B",
"P  c #9D9D9D",
"I  c gray62",
"U  c #A0A0A0",
"Y  c #A2A2A2",
"T  c gray64",
"R  c gray65",
"E  c #A7A7A7",
"W  c gray66",
"Q  c #A9A9A9",
"!  c #AAAAAA",
"~  c gray67",
"^  c #ACACAC",
"/  c #AEAEAE",
"(  c #AFAFAF",
")  c gray69",
"_  c #B1B1B1",
"`  c #B2B2B2",
"'  c gray70",
"]  c gray71",
"[  c #B6B6B6",
"{  c #B7B7B7",
"}  c gray72",
"|  c #BBBBBB",
" . c #BCBCBC",
".. c gray75",
"X. c #C0C0C0",
"o. c #C3C3C3",
"O. c gray77",
"+. c #C6C6C6",
"@. c gray78",
"#. c #C8C8C8",
"$. c gray79",
"%. c #CBCBCB",
"&. c gray80",
"*. c #CDCDCD",
"=. c gray81",
"-. c #D0D0D0",
";. c gray82",
":. c LightGray",
">. c gray83",
",. c #D5D5D5",
"<. c gray84",
"1. c #D8D8D8",
"2. c gray85",
"3. c gainsboro",
"4. c #DDDDDD",
"5. c gray87",
"6. c #DFDFDF",
"7. c gray88",
"8. c #E1E1E1",
"9. c #E4E4E4",
"0. c gray90",
"q. c #E7E7E7",
"w. c gray91",
"e. c #E9E9E9",
"r. c gray92",
"t. c gray93",
"y. c None",
/* pixels */
"y.y.y.      $ P $.$.$.$.$.#         y.y.",
"y.y.    . ; & U *.*.*.*.*.$ , O .     y.",
"y.    1 C I , T ;.;.;.;.;.* Z K t .   y.",
"    $ J Y Y < R ,.,.,.,.,.* S T U 5     ",
"  . N R R R < Q 2.2.2.2.2.= G E E V X   ",
"  , ! ! ! ! > ^ 4.4.4.4.4.* H ~ ~ ~ &   ",
"  e / / / D & ) 8.8.8.8.8.$ b ( ( ( <   ",
"  y ` ` _ , & ' 0.0.0.0.0.$ $ W ' ' 2   ",
"  i { { m X & [ e.e.e.e.e.% X M { } 6   ",
"  p | | j   * * ; ; ; ; ; X   c  . .9   ",
"  a ....h                     z X.X.w   ",
"  s o.o.g     y.y.y.y.y.y.    j O.O.t   ",
"  a @.@.f     y.y.y.y.y.y.    l #.#.s   ",
"  r %.%.k     y.y.y.y.y.y.    x &.&.s   ",
"  q =.=.n     y.y.y.y.y.y.    B -.-.p   ",
"  8 >.>.A o   y.y.y.y.y.y.  o F ,.,.u   ",
"  3 1.1.+.*                 4 >.2.2.t   ",
"  < 3.3.3.! : o O O O O + + ] 4.4.4.e   ",
"  - 7.7.7.7.4.( T I L K P :.8.8.8.8.7   ",
"  X <.9.9.9.9.0.0.0.0.0.0.0.0.0.0.%.X   ",
"  X v w.w.e.e.e.e.e.e.e.e.e.e.e.6.0     ",
"    o v 5.9.q.r.t.t.t.t.t.t.t.3.d X   y.",
"y.    o         . o + + + @ # o X     y.",
"y.y.                                y.y."
};
