/* XPM */
static char *g5828[] = {
/* columns rows colors chars-per-pixel */
"20 19 189 2",
"   c #1F9E03",
".  c #21A003",
"X  c #24A502",
"o  c #26A402",
"O  c #28A403",
"+  c #29A503",
"@  c #2CA503",
"#  c #2DA902",
"$  c #2DAB01",
"%  c #2EA803",
"&  c #32A405",
"*  c #36A206",
"=  c #36A705",
"-  c #33AB03",
";  c #33A804",
":  c #31AF01",
">  c #34A903",
",  c #35AE02",
"<  c #37AF02",
"1  c #39A207",
"2  c #3EA307",
"3  c #3CA706",
"4  c #3FA607",
"5  c #38AD02",
"6  c #35B002",
"7  c #39B002",
"8  c #39B301",
"9  c #3BB401",
"0  c #3FB103",
"q  c #42A209",
"w  c #40A806",
"e  c #41A806",
"r  c #42AB06",
"t  c #41AC05",
"y  c #45AD05",
"u  c #45AD06",
"i  c #46AC05",
"p  c #46AE05",
"a  c #4BA10B",
"s  c #48A509",
"d  c #48AB07",
"f  c #48AE05",
"g  c #4BAF05",
"h  c #4EAD07",
"j  c #4FAD07",
"k  c #4FAF07",
"l  c #4DA908",
"z  c #40B203",
"x  c #43B403",
"c  c #43B502",
"v  c #43B601",
"b  c #44B103",
"n  c #44B303",
"m  c #45B304",
"M  c #47B304",
"N  c #44B501",
"B  c #45B402",
"V  c #47B403",
"C  c #47B701",
"Z  c #44B801",
"A  c #47B801",
"S  c #49B105",
"D  c #4AB105",
"F  c #4CB404",
"G  c #4DB802",
"H  c #4DB902",
"J  c #4DBB02",
"K  c #4FB803",
"L  c #4DBC01",
"P  c #4FBD02",
"I  c #51A40A",
"U  c #54A00C",
"Y  c #50AD07",
"T  c #56AF07",
"R  c #52A909",
"E  c #54AA09",
"W  c #55AA09",
"Q  c #56A909",
"!  c #56A80A",
"~  c #57AB09",
"^  c #58A10D",
"/  c #58A00E",
"(  c #59A10E",
")  c #59A20D",
"_  c #59A30C",
"`  c #59A30D",
"'  c #5AA70B",
"]  c #59A40C",
"[  c #5AA40C",
"{  c #5AA40D",
"}  c #5AA50C",
"|  c #5AA60C",
" . c #5BA70C",
".. c #5BA80B",
"X. c #5BA90B",
"o. c #5BAA0A",
"O. c #58AF08",
"+. c #5AAF08",
"@. c #5CAA0B",
"#. c #5CAB0A",
"$. c #5CAC0A",
"%. c #5DAD0A",
"&. c #5DAE09",
"*. c #5DAF09",
"=. c #5DAE0A",
"-. c #51B305",
";. c #50B603",
":. c #50B504",
">. c #52B405",
",. c #56B704",
"<. c #52B804",
"1. c #52BF02",
"2. c #53BE02",
"3. c #59B407",
"4. c #59B605",
"5. c #5AB407",
"6. c #5AB507",
"7. c #5EB307",
"8. c #5CB507",
"9. c #5CB706",
"0. c #5FB407",
"q. c #5FB507",
"w. c #5FB606",
"e. c #59B009",
"r. c #5DB008",
"t. c #5EB009",
"y. c #5EB108",
"u. c #5EB208",
"i. c #5FB308",
"p. c #5EB408",
"a. c #5FB408",
"s. c #58BA04",
"d. c #59BD03",
"f. c #59BE03",
"g. c #5BBC04",
"h. c #5FB905",
"j. c #5EB806",
"k. c #5EBB05",
"l. c #5DBE03",
"z. c #5FBF03",
"x. c #5DBC04",
"c. c #5EBF04",
"v. c #5FBE04",
"b. c #60B607",
"n. c #60B706",
"m. c #60B707",
"M. c #60B806",
"N. c #61B807",
"B. c #61B906",
"V. c #61BB05",
"C. c #61BA06",
"Z. c #60BC05",
"A. c #60BD04",
"S. c #61BC05",
"D. c #60BE04",
"F. c #62BD05",
"G. c #62BE04",
"H. c #62BE05",
"J. c #62BF04",
"K. c #63BE04",
"L. c #63BF04",
"P. c #63BF05",
"I. c #58C102",
"U. c #5AC002",
"Y. c #5BC302",
"T. c #5DC103",
"R. c #5EC003",
"E. c #62C502",
"W. c #62C702",
"Q. c #64C103",
"!. c #64C203",
"~. c #65C303",
"^. c #64C004",
"/. c #64C104",
"(. c #65C204",
"). c #65C402",
"_. c #65C403",
"`. c #65C502",
"'. c #64C601",
"]. c #65C702",
"[. c #66C502",
"{. c #66C503",
"}. c #66C602",
"|. c #66C702",
" X c #65C901",
".X c #66C801",
"XX c #67C901",
"oX c #66C802",
"OX c #67C902",
/* pixels */
"/ / / / / / / / / / / / U / / / / ] / / ",
"/ / ] / ] / / ] ] ] ] ] a ]  . ./ ]  . .",
"] ] ] ] ] ] ] ] ] ] ] ] q ] ]  .]  . .I ",
"] ..] ] ] ....]  .......1 X.X.X.@.@.s 3 ",
"@.@...E ........X.X.X.E * @.@.@.%.E   E ",
"%.%.%.E R %.%.%.%.%.%.l w %.%.%.%.3 & %.",
"%.%.%.%.w %.r.%.%.r.r.w d r.e.r.e.. j r.",
"r.e.7.7.T j 7.7.r.b.r.= Y b.w b.p + 0.0.",
"0.0.j 0.7.p 0.b.b.b.b.@ 6.g t b.; p b.N.",
"6.b.p 6.b.p 6.N.b.b.N.+ N.> -.N.X h.N.N.",
">.N.h.D N.6.D N.N.N.N.% N.X h.,.- S.S.S.",
"F S.S.;.N.S.b S.h.S.S.- S.% S.m m ^.S.S.",
"<.s.K.S.l.S.V S.;.K.K.5 ^.0 ^.- g.~.!.^.",
"l.N (.(.(.S.;.R.N (.S.z (.l.!.$ ~.~.!.!.",
"~.- (.(.(.(.l.H H g.l.N ~.~.I.7 ).).).).",
").6 l.~._._._.v ).1.T.N ).).A v ).).).oX",
").N A ).).oX).L oXE.I.v ).oX9 L oXoXoXoX",
"oXI.6 oXoXoXoXW.oXoXoXI.oXoX9 Y.oXoXoXoX",
"OXOXA ).oXoXoXoXoXoXoXoXoXoXL W.oXoXXXXX"
};
