/* XPM */
static char *g5844[] = {
/* columns rows colors chars-per-pixel */
"20 10 80 1",
"  c #149800",
". c #1D9D00",
"X c #1E9D00",
"o c #23A000",
"O c #27A300",
"+ c #29A400",
"@ c #2AA400",
"# c #2CA600",
"$ c #2EA700",
"% c #2FA700",
"& c #2EA800",
"* c #30A800",
"= c #34AA00",
"- c #35AA00",
"; c #35AB00",
": c #39AD00",
"> c #3BAE00",
", c #3DB000",
"< c #3EB000",
"1 c #3EB100",
"2 c #3FB000",
"3 c #43B200",
"4 c #43B300",
"5 c #43B400",
"6 c #44B300",
"7 c #44B400",
"8 c #45B400",
"9 c #47B800",
"0 c #48B600",
"q c #48B700",
"w c #4AB600",
"e c #4AB800",
"r c #4BB800",
"t c #4CB800",
"y c #4DB900",
"u c #4DBB00",
"i c #4EBA00",
"p c #50BA00",
"a c #52BD00",
"s c #54BC00",
"d c #55BD00",
"f c #54BE00",
"g c #58BF00",
"h c #5ABF00",
"j c #56C000",
"k c #59C200",
"l c #5AC000",
"z c #5BC100",
"x c #5CC200",
"c c #5CC300",
"v c #5DC200",
"b c #5DC300",
"n c #5EC100",
"m c #5EC200",
"M c #5FC200",
"N c #5CC400",
"B c #5DC400",
"V c #5FC400",
"C c #5EC600",
"Z c #60C400",
"A c #61C400",
"S c #61C500",
"D c #60C700",
"F c #63C500",
"G c #64C500",
"H c #65C500",
"J c #64C600",
"K c #64C700",
"L c #65C600",
"P c #65C700",
"I c #63C900",
"U c #64C800",
"Y c #65C800",
"T c #65C900",
"R c #65CA00",
"E c #66C800",
"W c #66CA00",
"Q c #66CB00",
"! c #67CA00",
"~ c #67CB00",
/* pixels */
"~~~~~~~~~~~~x~~PHHHP",
"~~~~~~~~~~~~9~HDHPhp",
"~~~D~~~~~~~x>PPPPs+h",
"~~~~tICt~~D6tPhPh+sP",
"~~d~~&+ZPHP%ZhtP-0PP",
"k~Ca4.6PHPP%P#Zh=PPP",
"4kP0.t0PsPP:Z3P:d~PP",
"t>Do,Pka0xZ6PPx-PPPP",
"P,-#PPP0Pxx6PP40PPPP",
"Px d~PPPPPPxPP6DP~PP"
};
