/* XPM */
static char *g5892[] = {
/* columns rows colors chars-per-pixel */
"20 7 83 1",
"  c #1D9300",
". c #1F9400",
"X c #209400",
"o c #259000",
"O c #279800",
"+ c #289100",
"@ c #2B9700",
"# c #2C9500",
"$ c #299800",
"% c #299B00",
"& c #2A9900",
"* c #2C9C00",
"= c #2E9E00",
"- c #338D00",
"; c #3B8D00",
": c #3C8E00",
"> c #3D8F00",
", c #349200",
"< c #349700",
"1 c #319D00",
"2 c #339D00",
"3 c #369900",
"4 c #379C00",
"5 c #369F00",
"6 c #389700",
"7 c #3B9400",
"8 c #3D9000",
"9 c #3E9100",
"0 c #3E9200",
"q c #3D9500",
"w c #3F9400",
"e c #3E9700",
"r c #389800",
"t c #399B00",
"y c #3B9F00",
"u c #3C9900",
"i c #3E9B00",
"p c #3E9D00",
"a c #3F9F00",
"s c #34A100",
"d c #39A100",
"f c #3BA100",
"g c #3CA000",
"h c #3EA200",
"j c #3EA400",
"k c #409500",
"l c #409600",
"z c #409700",
"x c #419700",
"c c #419900",
"v c #419A00",
"b c #429A00",
"n c #429B00",
"m c #429C00",
"M c #439D00",
"N c #429E00",
"B c #439E00",
"V c #449E00",
"C c #449F00",
"Z c #459F00",
"A c #41A100",
"S c #40A200",
"D c #40A300",
"F c #42A000",
"G c #41A500",
"H c #41A700",
"J c #43A400",
"K c #44A100",
"L c #45A000",
"P c #45A100",
"I c #45A300",
"U c #46A200",
"Y c #46A300",
"T c #45A500",
"R c #45A700",
"E c #47A400",
"W c #48A500",
"Q c #48A600",
"! c #49A700",
"~ c #48A800",
"^ c #49A800",
"/ c #4AA900",
"( c #4AAA00",
/* pixels */
";::::::-::::00:00000",
",o7ww0k+wkkkkkkkwkvv",
"v3 7vuv<#vvvBBp3BBCC",
"CBp.Bt@Y.CYYCp3YYAYA",
"YYYy$Y$Y$YEgE1EEEEgd",
"WWWW*d^W1GGG5E^W^E%^",
"^^^^G*^^j^^^R^^^^sH^"
};
