/* XPM */
static char *g606[] = {
/* columns rows colors chars-per-pixel */
"20 6 10 1",
"  c #5FB21F",
". c #68BC1E",
"X c #62C71A",
"o c #66CA1A",
"O c #6EC61D",
"+ c #6BCC1A",
"@ c #70CF1B",
"# c #76CE1C",
"$ c #75D11B",
"% c #7AD41C",
/* pixels */
"%%%%%%%%%%%%%%%%#O. ",
"$$$$$$$$$$$$$$$$$$$$",
"@@@@@@@@@@@@@@@@@@@@",
"++++++++++++++++++++",
"oooooooooooooooooooo",
"XXXXXXXXXXXXXXXXXXXX"
};
