/* XPM */
static char *g6628[] = {
/* columns rows colors chars-per-pixel */
"20 9 134 2",
"   c black",
".  c gray1",
"X  c #040404",
"o  c #070707",
"O  c gray4",
"+  c gray5",
"@  c #0D1011",
"#  c #101010",
"$  c #111111",
"%  c #131313",
"&  c #121316",
"*  c gray9",
"=  c gray10",
"-  c #1D1D1D",
";  c #1E1E1E",
":  c #202020",
">  c #232323",
",  c gray14",
"<  c #272727",
"1  c #22282D",
"2  c #252A2F",
"3  c #2A2A2A",
"4  c gray17",
"5  c #2D2D2D",
"6  c gray18",
"7  c #272D32",
"8  c #2A2F34",
"9  c #2E3033",
"0  c #2C3238",
"q  c #2D333A",
"w  c #2F353A",
"e  c gray19",
"r  c #313131",
"t  c gray20",
"y  c #343434",
"u  c #373737",
"i  c #31373E",
"p  c #32373C",
"a  c #343A3F",
"s  c #3A3A3A",
"d  c gray23",
"f  c #3A3B3C",
"g  c #3A3C3E",
"h  c #3E3E3E",
"j  c #373B41",
"k  c #373D43",
"l  c #393F45",
"z  c #3C4247",
"x  c #3F444A",
"c  c gray25",
"v  c #414141",
"b  c #444444",
"n  c gray28",
"m  c #41474C",
"M  c #454649",
"N  c #44484E",
"B  c #4B4B4B",
"V  c #4E4E4E",
"C  c #515151",
"Z  c gray33",
"A  c gray34",
"S  c #5A5A5A",
"D  c #585B5F",
"F  c #5A5E61",
"G  c #5E6063",
"H  c #5E6366",
"J  c #616367",
"K  c #656565",
"L  c #656769",
"P  c #676A6D",
"I  c #6A6A6A",
"U  c #696A6D",
"Y  c #6C6E6F",
"T  c #6F7071",
"R  c #727376",
"E  c #737475",
"W  c #767778",
"Q  c #7A7B7B",
"!  c gray49",
"~  c #818181",
"^  c gray51",
"/  c #98B6D3",
"(  c #99B7D4",
")  c #9BB8D4",
"_  c #9FBBD6",
"`  c #A1BCD7",
"'  c #A4BED8",
"]  c #A5BFD9",
"[  c #AFC6DD",
"{  c #B0C7DE",
"}  c #B2C9DE",
"|  c #B3C9DF",
" . c #B4CADF",
".. c #B5CBDF",
"X. c #B5CBE0",
"o. c #B6CBE0",
"O. c #B7CCE0",
"+. c #B8CDE1",
"@. c #BACEE1",
"#. c #BBCFE2",
"$. c #BDD0E3",
"%. c #BED1E3",
"&. c #C0D2E4",
"*. c #C1D2E4",
"=. c #C1D3E4",
"-. c #C1D3E5",
";. c #C2D3E5",
":. c #C2D4E5",
">. c #C3D4E5",
",. c #C3D5E6",
"<. c #C4D5E6",
"1. c #C5D6E6",
"2. c #C6D7E7",
"3. c #C8D8E7",
"4. c #CADAE9",
"5. c #CCDBE9",
"6. c #CDDBEA",
"7. c #CFDDEA",
"8. c #D2DFEC",
"9. c #D3E0EC",
"0. c #D4E0EC",
"q. c #D7E3EE",
"w. c #DBE6F0",
"e. c #DCE7F0",
"r. c #DFE9F2",
"t. c #E0E9F2",
"y. c #E2EAF2",
"u. c #E4ECF3",
"i. c #E7EEF5",
"p. c #E8EFF5",
"a. c #ECF2F7",
"s. c #F0F5F9",
"d. c #F1F5F9",
"f. c #F4F7FB",
/* pixels */
"S S S S S Z Z C V V n n c h s u y e 5 4 ",
"S S I ^ ^ ! Q W E T Y U L J F F D f < < ",
"S K f.s.a.p.u.r.w.q.0.8.5.<.:.$.+.o.8 - ",
"Z R t.0.<.<.<.:.:.:.:.&.:.&.&.&.{ ` k * ",
"V P 5.&.+.$.:.3.5.9.0.r.t.p.a.s.+./ i % ",
"n H +.o.O.o. .| | { | |  ...+.+.` / 0 O ",
"c M ] _ ) / / / / / / / / / / / / / $ . ",
"s u g N m x z l k p p w 0 9 7 2 1 @ . . ",
"e e 5 3 < > - - = * % % + O o . . . . . "
};
