/* XPM */
static char *g7281[] = {
/* columns rows colors chars-per-pixel */
"20 21 234 2",
"   c black",
".  c #010000",
"X  c #010101",
"o  c #020100",
"O  c #020200",
"+  c #020201",
"@  c #030300",
"#  c #040301",
"$  c #040400",
"%  c #050401",
"&  c #050500",
"*  c #050502",
"=  c #060401",
"-  c #070702",
";  c #040404",
":  c #060606",
">  c #070707",
",  c #090701",
"<  c #080602",
"1  c #0A0701",
"2  c #080800",
"3  c #0B0B03",
"4  c #0D0801",
"5  c #0D0901",
"6  c #0C0803",
"7  c #0C0902",
"8  c #0C0B02",
"9  c #0C0B04",
"0  c #0C0C00",
"q  c #0E0E00",
"w  c #090909",
"e  c #0C0C0C",
"r  c #110E04",
"t  c #120F06",
"y  c #121200",
"u  c #131200",
"i  c #151400",
"p  c #151500",
"a  c #161500",
"s  c #161600",
"d  c #171600",
"f  c #161309",
"g  c #181701",
"h  c #111111",
"j  c #201F00",
"k  c #262500",
"l  c #292700",
"z  c #2B2901",
"x  c #2D2B00",
"c  c #312C01",
"v  c #322E01",
"b  c #333200",
"n  c #383402",
"m  c #3C3A00",
"M  c #34332D",
"N  c #353535",
"B  c #3E3E3E",
"V  c #433D02",
"C  c #443E01",
"Z  c #464002",
"A  c #4D4603",
"S  c #4F4703",
"D  c #4B4900",
"F  c #4C4B00",
"G  c #534904",
"H  c #514F00",
"J  c #554D04",
"K  c #545300",
"L  c #555300",
"P  c #575400",
"I  c #5B5203",
"U  c #5B5204",
"Y  c #5B5305",
"T  c #5D5103",
"R  c #5A5800",
"E  c #5D5A00",
"W  c #5E5018",
"Q  c #644E0A",
"!  c #68470A",
"~  c #605504",
"^  c #675A05",
"/  c #665C05",
"(  c #685A04",
")  c #6C5F06",
"_  c #626000",
"`  c #656300",
"'  c #696303",
"]  c #6E6D00",
"[  c #786506",
"{  c #7A6905",
"}  c #756410",
"|  c #737000",
" . c #787700",
".. c DimGray",
"X. c gray46",
"o. c #7B7B7B",
"O. c #975F12",
"+. c #817F00",
"@. c #8C7507",
"#. c #966314",
"$. c #966615",
"%. c #966816",
"&. c #966A17",
"*. c #986012",
"=. c #907B08",
"-. c #9F7615",
";. c #A37610",
":. c #8E8B00",
">. c #908007",
",. c #9B8307",
"<. c #9D880B",
"1. c #939100",
"2. c #969400",
"3. c #9B9800",
"4. c #A18009",
"5. c #A7850C",
"6. c #A68E0D",
"7. c #A98608",
"8. c #A8870D",
"9. c #A88F0E",
"0. c #A09504",
"q. c #A7920C",
"w. c #A09E00",
"e. c #AE950B",
"r. c #B28D0F",
"t. c #B69307",
"y. c #BC950D",
"u. c #BD9F0A",
"i. c #BF9F09",
"p. c #A3A000",
"a. c #AAA700",
"s. c #B2AF00",
"d. c #BAA508",
"f. c #B8B400",
"g. c #C58C1E",
"h. c #C98216",
"j. c #C09416",
"k. c #CF9D16",
"l. c #C8A513",
"z. c #C4BE00",
"x. c #CEB20D",
"c. c #D4AB08",
"v. c #D4A613",
"b. c #D6A712",
"n. c #D1AF16",
"m. c #D3B10B",
"M. c #D0B018",
"N. c #E4B903",
"B. c #E4BA03",
"V. c #E4BA04",
"C. c #E4BB04",
"Z. c #E4BC04",
"A. c #E4BC05",
"S. c #E0B516",
"D. c #E0B31C",
"F. c #ECBE1D",
"G. c #F4A818",
"H. c #FAA51B",
"J. c #FFA01E",
"K. c #FFA21F",
"L. c #FFA41D",
"P. c #FFA71D",
"I. c #FCAA1A",
"U. c #FFA81D",
"Y. c #FDAF1C",
"T. c #F3B41F",
"R. c #F2BC18",
"E. c #F7BA1F",
"W. c #FDAD23",
"Q. c #FDAF25",
"!. c #F1B723",
"~. c #F2BE24",
"^. c #F6BD20",
"/. c #F6BF22",
"(. c #FAB521",
"). c #FDB326",
"_. c #FCB628",
"`. c #F9BB25",
"'. c #F9BD22",
"]. c #FABC2B",
"[. c #FBBC2B",
"{. c #FBBE2C",
"}. c #FBBF2C",
"|. c #FCB929",
" X c #FCBA2A",
".X c #FCBC29",
"XX c #C6C200",
"oX c #C9C500",
"OX c #CFCA00",
"+X c #D1D100",
"@X c #D8D800",
"#X c #E7C01C",
"$X c #EDCB19",
"%X c #F2C326",
"&X c #F5C323",
"*X c #F6C122",
"=X c #F5C625",
"-X c #F7C628",
";X c #F0CF21",
":X c #F5C825",
">X c #F5CA26",
",X c #F5CC28",
"<X c #F4CF28",
"1X c #FBC02B",
"2X c #FBC12D",
"3X c #FBC22D",
"4X c #FAC42E",
"5X c #FAC52F",
"6X c #FAC62F",
"7X c #FAC72F",
"8X c #F1C730",
"9X c #F8C730",
"0X c #FAC730",
"qX c #FAC830",
"wX c #FACA31",
"eX c #FACB32",
"rX c #F9CD33",
"tX c #F9CE33",
"yX c #F3D52B",
"uX c #F4D129",
"iX c #F4D32B",
"pX c #F9D034",
"aX c #F9D134",
"sX c #F8D436",
"dX c #F8D737",
"fX c #F8DA38",
"gX c yellow",
"hX c #808080",
"jX c #818181",
"kX c #9B9B9B",
"lX c #9F9F9F",
"zX c #B6B6B6",
"xX c #D7D7D7",
"cX c None",
/* pixels */
"cXcXcXcXcXcX  w >   cXcXcXcXcXcXcXcXcXcX",
"  3 9 8 8 % : o...: # 8 8 6   cXcXcXcXcX",
"< u.m.m.d.% lXkXN h   t.c.7.< cXcXcXcXcX",
"  A.$X;X} M xXkXN e # Q R.k.% cXcXcXcXcX",
"  A.yXfXf X.zXjXB     g !.g.% cXcXcXcXcX",
"  A.iXsXW     t t     ' U j.% cXcXcXcXcX",
"  A.uXsXaX7X7X4X2X[.D.i 0 J z cXcXcXcXcX",
"  A.<XaXtXwX7X4X{.|.9.3 x.c F +XcXcXcXcX",
"  C.,XrXwX4X=XF.{.`.A ) W.r.b s.cXcXcXcX",
"  C.>XwXwX%XY 3 q.l.  ( 8.8.| oXgXcXcXcX",
"  C.=XwX4XM.    n =.          i R z.cXcX",
"  C.=X4X4X~./ % 0.g               p.cXcX",
"  V.&X4X1Xn.'.S.e.3 x Z I C     u XXcXgX",
"  V.&X{.F.i 6.(.A =.Y.U.G.I     P @X .+.",
"  N./.[.|.<.u d.% b.K.H.[ % _   3.P i 2.",
"  N./.|._.T.G   ~ U.L.@.  ,.H   j z w.cX",
"  N.^._.).Q.b.c y.J.I.c { h.F   m a.cXcX",
"< 4.;.%.$.$.#.;.O.O.O.( C ! _ ` f.cXcXcX",
"  < 8 8 4 8 8 4 4 4 4 P   E 0 gXcXcXcXcX",
"cXcXcXcXcXcXcXcXcXcXcXOXk ] cXcXcXcXcXcX",
"cXcXcXcXcXcXcXcXcXcXcXcX:.1.cXcXcXcXcXcX"
};
