/* XPM */
static char *g901[] = {
/* columns rows colors chars-per-pixel */
"20 38 142 2",
"   c black",
".  c #010101",
"X  c #020202",
"o  c #040404",
"O  c gray2",
"+  c #060606",
"@  c #0B0B0B",
"#  c #0C0C0C",
"$  c gray5",
"%  c #0E0E0E",
"&  c gray7",
"*  c #161616",
"=  c #181818",
"-  c #232323",
";  c #282828",
":  c gray19",
">  c #313131",
",  c #353535",
"<  c gray23",
"1  c #3E3E3E",
"2  c #3F3F3F",
"3  c gray25",
"4  c #444444",
"5  c #464646",
"6  c #4C4C4C",
"7  c gray30",
"8  c #515151",
"9  c gray32",
"0  c #535353",
"q  c gray33",
"w  c #5A5A5A",
"e  c #5D5D5D",
"r  c gray38",
"t  c gray39",
"y  c #646464",
"u  c gray40",
"i  c #676767",
"p  c #686868",
"a  c DimGray",
"s  c #6A6A6A",
"d  c gray42",
"f  c #6D6D6D",
"g  c #6F6F6F",
"h  c gray44",
"j  c #747474",
"k  c gray46",
"l  c #777777",
"z  c gray48",
"x  c gray49",
"c  c gray50",
"v  c #866900",
"b  c #BD9300",
"n  c #AF9F79",
"m  c #B3A37F",
"M  c #EDA500",
"N  c #EDA600",
"B  c #EEA800",
"V  c #EEA900",
"C  c #EEAA00",
"Z  c #EFAC00",
"A  c #EFAD00",
"S  c #EFAE00",
"D  c #F0B000",
"F  c #F0B100",
"G  c #F0B200",
"H  c #F0B104",
"J  c #F1B400",
"K  c #F1B500",
"L  c #F1B700",
"P  c #F1B50C",
"I  c #F2B800",
"U  c #F2B900",
"Y  c #F2BB00",
"T  c #F3BB00",
"R  c #F3BC00",
"E  c #F3BD00",
"W  c #F4BF00",
"Q  c #F1B814",
"!  c #F3BC1C",
"~  c #F3BF23",
"^  c #F3C32B",
"/  c #F5C633",
"(  c #F5C93B",
")  c #F6CD43",
"_  c #F7D04B",
"`  c #F7D353",
"'  c #F8D65B",
"]  c #808080",
"[  c gray52",
"{  c #898989",
"}  c #929292",
"|  c #9A9A9A",
" . c #9B9B9B",
".. c gray62",
"X. c #A59C80",
"o. c #A69C80",
"O. c #A69D80",
"+. c #A69E80",
"@. c #BAB094",
"#. c gray64",
"$. c #A5A5A5",
"%. c gray65",
"&. c #A9A9A9",
"*. c #AAAAAA",
"=. c #ACACAC",
"-. c #B2B2B2",
";. c gray70",
":. c #B4B4B4",
">. c gray72",
",. c gray74",
"<. c gray",
"1. c gray75",
"2. c #E0D1AD",
"3. c #E8DAB8",
"4. c #E9DCBB",
"5. c #EADEBF",
"6. c #C0C0C0",
"7. c gray76",
"8. c #C3C3C3",
"9. c #C5C5C5",
"0. c #CBCBCB",
"q. c gray81",
"w. c #D0D0D0",
"e. c gray82",
"r. c #D2D2D2",
"t. c LightGray",
"y. c gray83",
"u. c #D5D5D5",
"i. c #D7D7D7",
"p. c #D8D8D8",
"a. c gainsboro",
"s. c #DFDFDF",
"d. c #EBE0C2",
"f. c #F2E8CC",
"g. c #F3E9CD",
"h. c gray88",
"j. c #E1E1E1",
"k. c gray89",
"l. c #E4E4E4",
"z. c gray90",
"x. c #E6E6E6",
"c. c None",
/* pixels */
"0.1.:.&.} { f : O         c.c.c.c.c.c.c.",
"r.r.r.r.0.%.c j f ,           c.c.c.c.c.",
"r.r.r.r.r.r.r.:.j i 6 #         c.c.c.c.",
"r.r.r.r.r.r.r.r.q...f 5           c.c.c.",
"r.r.r.r.r.r.r.r.r.r.>.h 8 #         c.c.",
"r.r.r.r.r.r.r.r.r.r.r.6.j w #         c.",
"r.r.r.r.r.r.r.r.r.r.r.r.9.h q O         ",
"r.r.r.r.r.r.r.r.r.r.r.r.r.:.a 6 O       ",
"; 8 z 1.r.r.r.r.r.r.r.r.r.r. .a 3       ",
"      # c r.r.r.r.r.r.r.r.r.r.j i &     ",
"          : -.i.r.r.r.r.r.r.r.&.a 6     ",
"            O  .a.r.r.r.r.r.r.r.j a -   ",
"              * 9.a.i.r.r.r.r.r.%.a 8   ",
"c.c.c.          5 i.h.r.r.r.r.r.6.a i   ",
"c.c.c.c.c.        [ h.p.r.r.r.r.r.j a ; ",
"c.c.c.c.c.        = i.h.r.r.r.r.r.} a 8 ",
"c.c.c.c.c.c.        #.z.p.r.r.r.r.%.a e ",
"c.c.c.c.c.c.c.      a z.a.r.r.r.r.=.a r ",
"c.c.c.c.c.c.c.      q h.h.r.r.r.r.-.a r ",
"c.c.c.c.c.c.c.      3 a.z.r.r.r.r.1.a i ",
"c.c.c.c.c.c.c.      < h.z.r.r.r.r.6.a a ",
"c.c.c.c.c.c.c.      < h.z.r.r.r.r.6.a a ",
"c.c.c.c.c.c.c.      < a.z.r.r.r.r.9.a a ",
"c.c.c.c.c.c.c.      < h.z.r.r.r.r.6.a a ",
"c.c.c.c.c.c.c.      < h.z.r.r.r.r.9.a a ",
"c.c.c.c.c.c.c.      < h.z.r.r.r.r.6.a a ",
"                    < a.z.r.r.r.r.6.a a ",
"O O O O O   O O O O < h.z.r.r.r.i.9.a f ",
"O.O.O.O.O.O.O.O.O.O.@.g.g.d.5.4.3.2.m n ",
"' ` _ ) ( / ^ ~ ! Q P H Z Z Z V V V M M ",
"W R R R I I K K K F F F D Z Z V V V M M ",
"W R R R I I I K K F F F D Z Z V V V M M ",
"W R R R I I I K K D D D D Z Z Z V N N N ",
"W R R R I I I K K D D D D Z Z V V V N N ",
"W R R R I I I K K J D D D Z Z V V V N N ",
"W R R R I I I K K D D D D Z Z V V V N N ",
"W R R R I I I K J J D D Z Z Z C V V N N ",
"v b E R I I I K J J D D D Z Z C V V N N "
};
