/* XPM */
static char *g911[] = {
/* columns rows colors chars-per-pixel */
"20 80 97 2",
"   c black",
".  c #010101",
"X  c #020202",
"o  c #060606",
"O  c gray3",
"+  c gray10",
"@  c gray11",
"#  c gray14",
"$  c #2A2A2A",
"%  c gray19",
"&  c #323232",
"*  c gray20",
"=  c #444444",
"-  c #494949",
";  c #606060",
":  c gray39",
">  c gray42",
",  c gray43",
"<  c gray44",
"1  c #747474",
"2  c #777777",
"3  c #7E7E7E",
"4  c #EFAE00",
"5  c #EFAF00",
"6  c #F0AF00",
"7  c #F0B000",
"8  c #F0B100",
"9  c #F0B102",
"0  c #F0B200",
"q  c #F0B300",
"w  c #F1B300",
"e  c #F1B400",
"r  c #F1B500",
"t  c #F1B600",
"y  c #F2B700",
"u  c #F1B30A",
"i  c #F2B805",
"p  c #F1B712",
"a  c #F2B91A",
"s  c #F2BC23",
"d  c #F3BF2B",
"f  c #F3C233",
"g  c #F4C53B",
"h  c #F5C743",
"j  c #F5CA4C",
"k  c #F6CD54",
"l  c #F6D05C",
"z  c #F6CF69",
"x  c #F7D264",
"c  c #F7D56C",
"v  c #F6D372",
"b  c #F7D774",
"n  c #F7D57A",
"m  c #F8DA7D",
"M  c #808080",
"N  c #8B8B8B",
"B  c #8E8E8E",
"V  c #9A9A9A",
"C  c #AAAAAA",
"Z  c gray72",
"A  c #BCBCBC",
"S  c gray74",
"D  c #F8D880",
"F  c #F8D980",
"G  c #F8DA80",
"H  c #F8DB80",
"J  c #F9DB80",
"K  c gray77",
"L  c gray78",
"P  c #CBCBCB",
"I  c gray80",
"U  c gray82",
"Y  c #D2D2D2",
"T  c LightGray",
"R  c gray83",
"E  c #D5D5D5",
"W  c gray84",
"Q  c #D7D7D7",
"!  c #D8D8D8",
"~  c gray85",
"^  c #DADADA",
"/  c gray86",
"(  c #DDDDDD",
")  c gray87",
"_  c #DFDFDF",
"`  c gray88",
"'  c #E1E1E1",
"]  c #E2E2E2",
"[  c gray89",
"{  c #E4E4E4",
"}  c gray90",
"|  c #E6E6E6",
" . c #E7E7E7",
".. c gray91",
"X. c #E9E9E9",
"o. c #F4F4F4",
"O. c None",
/* pixels */
"T R T T T T T I T T T T T T I T T T T T ",
"T R ~ R T T T T T T I T T T T T T T I T ",
"V T T ~ ( T T T T T T T T T T T I T T T ",
"X , T T R ] T T T I T T T T I T T T T T ",
"X X = K T R ] ~ I T T T T T T T T T T I ",
"X X X # K T T ] ( T T T T I T T T I T T ",
"X X X X & P T T } ( T T T T T I T T T I ",
"X X X X X - T T R } ( I T T T T T T T T ",
"X X X X X X ; T T R X.] T T T T I T T T ",
"X X X X X X X 3 T T ( X.~ T T T T T T T ",
"X X X X X X X X C T T } } R T T T T T T ",
"X X X X X X X X * T T R X.} T T T T I T ",
"X X X X X X X X X N T T ] X.] T T T I T ",
"X X X X X X X X X + P T R X.X.R T T T T ",
"X X X X X X X X X X > T T ] X.} T T T T ",
"X X X X X X X X X X O A T R X.X.( T T T ",
"X X X X X X X X X X X , T T } X.} T T T ",
"O.X X X X X X X X X X $ T I ( X.X.~ T T ",
"O.O.X X X X X X X X X X Z T R X.X.] T T ",
"O.O.X X X X X X X X X X 1 T T } X.X.R T ",
"O.O.O.X X X X X X X X X $ T T ] X.X.( T ",
"O.O.O.O.X X X X X X X X X A T ( X.X.} T ",
"O.O.O.O.X X X X X X X X X B T ~ X.X.} T ",
"O.O.O.O.X X X X X X X X X 2 T R X.X.X.~ ",
"O.O.O.O.O.X X X X X X X X ; T R X.X.X.( ",
"O.O.O.O.O.X X X X X X X X = T T X.X.X.] ",
"O.O.O.O.O.X X X X X X X X & T T X.X.X.] ",
"O.O.O.O.O.X X X X X X X X + T T X.X.X.} ",
"O.O.O.O.O.X X X X X X X X X T T X.X.X.} ",
"O.O.O.O.O.X X X X X X X X X T T X.X.X.} ",
"O.O.O.O.O.O.X X X X X X X X T I X.X.X.X.",
"O.O.O.O.O.O.X X X X X X X X T T X.X.X.X.",
"O.O.O.O.O.O.X X X X X X X X T I X.X.X.X.",
"O.O.O.O.O.O.X X X X X X X X T T X.X.X.X.",
"O.O.O.O.O.O.X X X X X X X X T T X.X.X.X.",
"O.O.O.O.O.O.X X X X X X X X T T X.X.X.X.",
"O.O.O.O.O.O.X X X X X X X X T T X.X.X.X.",
"O.O.O.O.O.O.X X X X X X X X T I X.X.X.X.",
"O.O.O.O.O.O.X X X X X X X X T I X.X.X.X.",
"O.O.O.O.O.O.X X X X X X X X T T X.X.X.X.",
"O.O.O.O.O.O.X X X X X X X X T T X.X.X.X.",
"O.O.O.O.O.O.X X X X X X X X T T X.X.X.X.",
"O.O.O.O.O.O.X X X X X X X X T T X.X.X.X.",
"O.O.O.O.O.O.X X X X X X X X T I X.X.X.X.",
"O.O.O.O.O.O.X X X X X X X X T T X.X.X.X.",
"O.O.O.O.O.O.X X X X X X X X T T X.X.X.X.",
"O.O.O.O.O.O.X X X X X X X X T T X.X.X.X.",
"O.O.O.O.O.O.X X X X X X X X T T X.X.X.X.",
"X X X X X X X X X X X X X X T T X.X.X.X.",
"X X X X X X X X X X X X X X T I X.X.X.X.",
"X X X X X X X X X X X X X X T T X.X.X.X.",
"X X X X X X X X X X X X X X T T X.X.X.X.",
"3 3 M M M M M M M M M M 3 M X.X.o.o.o.o.",
"M 3 M M M M M M M M M M 3 3 X.X.o.o.o.o.",
"D J J J D J J H D D D D D D D D D n v x ",
"J m b c x l k j h g f d s a p u 9 6 4 4 ",
"i y r y r r r r r r 5 7 r 7 7 7 7 6 4 4 ",
"y y y r r r r r 7 r r r 7 7 r 7 7 7 4 4 ",
"y y r r r r r r r r 7 7 7 r 7 7 7 7 5 4 ",
"y y r r r r r 7 7 r r 7 r 7 7 7 7 7 5 4 ",
"y y r r r r r r 7 r q q 7 7 7 7 7 6 4 4 ",
"y y r y r r r r r r q q r 5 7 7 7 6 4 4 ",
"y y y r r r r r 7 r q 5 r 7 7 7 5 6 4 4 ",
"y y r y r r r r r 7 q r 7 7 r 7 5 4 4 4 ",
"y y t t q t t q 7 r r r 7 7 7 7 7 7 5 4 ",
"y y t t t q y q r 7 5 7 r 7 r 7 7 7 5 4 ",
"y y y y r r q r r r r 7 7 7 7 7 7 7 5 4 ",
"y y y q r r r r 7 r q r r 5 7 7 7 7 5 4 ",
"y y r y r r r r 7 r 7 7 r 7 r 7 7 6 5 4 ",
"y y y r r r r r r 7 r 7 r 7 7 7 7 6 5 4 ",
"y y r y r r r r r r q r 5 7 7 7 7 6 4 4 ",
"y y r r r r r r 7 r q 7 r 7 7 7 7 6 4 4 ",
"y y q t r r r r 7 7 q 5 7 7 7 7 7 7 5 4 ",
"y y t t r r r r r r q r r 7 7 7 7 7 5 4 ",
"y y t t r r r r r r q 5 r 7 7 7 7 6 5 4 ",
"y y t t r r r r 7 r q q 7 r 7 7 7 6 5 4 ",
"y y t t q t r r r 7 5 7 r 5 7 7 7 6 4 4 ",
"y y t t t q y r r r r r r 7 r 7 7 6 4 4 ",
"y y t t t t q r 7 r 7 7 7 7 7 7 7 7 4 4 ",
"y y t t q t t q r 7 r 7 r 5 7 7 7 7 5 4 "
};
