/* XPM */
static char *grid_xy[] = {
/* columns rows colors chars-per-pixel */
"20 20 174 2",
"   c #040404",
".  c #090909",
"X  c gray6",
"o  c gray8",
"O  c gray10",
"+  c gray12",
"@  c gray14",
"#  c #2A2A2A",
"$  c #2F2F2F",
"%  c #343434",
"&  c #353535",
"*  c #393939",
"=  c #3A3A3A",
"-  c #3F3F3F",
";  c #373C41",
":  c #3C3E40",
">  c #3E4349",
",  c #404141",
"<  c #414142",
"1  c gray27",
"2  c #41464C",
"3  c #41464D",
"4  c #474A4C",
"5  c gray29",
"6  c gray31",
"7  c #464B51",
"8  c #4B4D50",
"9  c #494E54",
"0  c #4C4E50",
"q  c #4B5055",
"w  c #4D5258",
"e  c #4D535B",
"r  c #505050",
"t  c #515151",
"y  c gray33",
"u  c #555555",
"i  c #51565C",
"p  c #52575D",
"a  c #55575B",
"s  c #54595F",
"d  c #525963",
"f  c #535962",
"g  c #525A62",
"h  c #575C61",
"j  c #575D65",
"k  c #585D63",
"l  c #5B5F63",
"z  c #5D6167",
"x  c #5F6266",
"c  c #596169",
"v  c #5A616A",
"b  c #5A636C",
"n  c #5D656D",
"m  c #5F676F",
"M  c gray39",
"N  c #61666B",
"B  c #63666A",
"V  c #65686B",
"C  c #686868",
"Z  c DimGray",
"A  c gray42",
"S  c #696B6F",
"D  c #626973",
"F  c #626A72",
"G  c #646B76",
"H  c #666E76",
"J  c #6C6F73",
"K  c #697179",
"L  c #6B7178",
"P  c #6B737D",
"I  c #6C747C",
"U  c #6F777F",
"Y  c #71777D",
"T  c #7B7B7B",
"R  c gray50",
"E  c #727A82",
"W  c #757A81",
"Q  c #767B81",
"!  c #757D85",
"~  c #788088",
"^  c #7B838B",
"/  c #7E868E",
"(  c #80878F",
")  c #818991",
"_  c #808D99",
"`  c #868F98",
"'  c #9F9F9F",
"]  c #8E9BAF",
"[  c #859CBD",
"{  c #869EBE",
"}  c #949CA5",
"|  c #96A1B1",
" . c #97A3B2",
".. c #9CA6B4",
"X. c #A5B5C5",
"o. c #A2B3CC",
"O. c #A4B5CD",
"+. c #A4B5CE",
"@. c #A9B7C5",
"#. c #ABBBD2",
"$. c #ABBDD3",
"%. c #AEBDD3",
"&. c #ACBED4",
"*. c #AFC1D8",
"=. c #B1C0D5",
"-. c #B5C2D5",
";. c #B4C5DB",
":. c #B7C7DB",
">. c #B9C7DA",
",. c #B8C8DC",
"<. c #B9C9DD",
"1. c #BAC9DD",
"2. c #BBCBDE",
"3. c #BDCCDC",
"4. c #B3CBE6",
"5. c #BACBE1",
"6. c #BACCE1",
"7. c #BDCDE0",
"8. c #BCCEE1",
"9. c #BCCEE3",
"0. c #BDCEE2",
"q. c #BECDE0",
"w. c #BECFE3",
"e. c #BFD0E4",
"r. c #C1D2E3",
"t. c #C2D1E2",
"y. c #C1D1E5",
"u. c #C0D2E4",
"i. c #C0D2E5",
"p. c #C0D2E6",
"a. c #C1D3E6",
"s. c #C1D3E7",
"d. c #C2D2E5",
"f. c #C3D2E5",
"g. c #C2D2E6",
"h. c #C5D0E0",
"j. c #C4D1E2",
"k. c #C6D3E4",
"l. c #C7D4E1",
"z. c #C4D4E6",
"x. c #C4D4E7",
"c. c #C5D4E6",
"v. c #C2D4E8",
"b. c #C3D4E8",
"n. c #C3D5E9",
"m. c #C4D6E9",
"M. c #C5D7EA",
"N. c #C5D8EB",
"B. c #C7D8EB",
"V. c #C8D5E3",
"C. c #CAD6E4",
"Z. c #CBD8E6",
"A. c #C8D8EA",
"S. c #C8D9EB",
"D. c #CAD9EA",
"F. c #CBD9EA",
"G. c #CADBED",
"H. c #CEDBE9",
"J. c #CCDCED",
"K. c #CEDEEE",
"L. c #D0DEED",
"P. c #D1DEED",
"I. c #D4DCE8",
"U. c #D9E3EE",
"Y. c #D3E1F0",
"T. c #D9E5F2",
"R. c #DAE6F3",
"E. c #E1E7EF",
"W. c gray91",
"Q. c #E4EDF6",
"!. c #ECF2F8",
"~. c gray94",
"^. c #FDFDFD",
"/. c gray100",
/* pixels */
"/.T.P.%././.U.n././././.n.U././.G.f.h./.",
"f.m.n.6.f.f.s.@.J J ..8.f.f.f.f.N.e.w.f.",
"z.m.n.6.f.f.8.N 6 q Y ( ` w.f.f.N.f.9.z.",
"/.Y.D.+./.~.S 5 5 5 Z R ) V././.N.8.>./.",
"/.Y.D.+.' r 1 1 1 1 M T / V././.N.8.>./.",
"T.G.B.L - - - , - - z W ^ x.Y.Y.N.n.f.T.",
"P.B.m.z = , N 8 = = l Y ~ f.D.D.M.e.e.P.",
"%.6.6.j G ] P 4 & & p D ! &.+.+.B.*.+.%.",
"/.Y.D.o.^.W.} j $ $ y Z E V././.B.8.>./.",
"/.Y.D.+./.^.Z.j # # 6 Z U V././.B.8.>./.",
"!.K.B.*.Q.Q.D.s @ @ 0 V I f.Q.Q.M.e.3.!.",
"G.M.M.M.M.B.B.e + + q D L f.B.B.B.B.B.G.",
"%.6.6.+.+.+.*.w O O > d H $.+.+.M.*.+.%.",
"E.D.x.+.I.I.t.8 o o - a D 3.I.I.B.<.*.E.",
"/.Y.D.+././.H.7 X X = y m l././.B.8.>./.",
"/.Y.D.+././.H.2 . . & q n l././.B.8.>./.",
"G.B.N.N.N.B.B.>     ; d c f.m.B.B.B.N.G.",
"3.x.e.*.8.8.e./ c d 3 e b ,.8.8.B.5.;.<.",
"[ f.e.+.>.>.6.N.>.-.| | X.:.>.>.M.;.#.{ ",
"/.4.B.%././.T.n././././.n.U././.G.3.[ /."
};
