/* XPM */
static char *group_layer_icon[] = {
/* columns rows colors chars-per-pixel */
"20 20 111 2",
"   c black",
".  c #090700",
"X  c #0A0A00",
"o  c #141100",
"O  c #1A1402",
"+  c #1F1A05",
"@  c #211B04",
"#  c #272000",
"$  c #2A2411",
"%  c #302602",
"&  c #30270E",
"*  c #332902",
"=  c #302912",
"-  c #3E3622",
";  c #423A26",
":  c #5A4700",
">  c #5D4D0C",
",  c #554718",
"<  c #49422F",
"1  c #4B4636",
"2  c #50482F",
"3  c #7C6921",
"4  c #796B3F",
"5  c #565242",
"6  c #977907",
"7  c #836D24",
"8  c #8B7B39",
"9  c #A58405",
"0  c #AF8F13",
"q  c #BF9A0A",
"w  c #AD902F",
"e  c #B89524",
"r  c #B59A3F",
"t  c #948E7A",
"y  c #96917D",
"u  c #99927D",
"i  c #A18D4D",
"p  c #A19156",
"a  c #B6A563",
"s  c #B5A568",
"d  c #B5A874",
"f  c #C39C07",
"g  c #D7AF17",
"h  c #D4AE1A",
"j  c #D8B015",
"k  c #CDA72E",
"l  c #CCA732",
"z  c #CBA934",
"x  c #CEAB3B",
"c  c #D6B42D",
"v  c #DEB724",
"b  c #DAB529",
"n  c #D5B331",
"m  c #E2B711",
"M  c #E2BA1F",
"N  c #E0B922",
"B  c #E6BD3C",
"V  c #E8BE37",
"C  c #E8BF3C",
"Z  c #CFAD40",
"A  c #C1A959",
"S  c #D1AF43",
"D  c #D2B146",
"F  c #D1B64F",
"G  c #DCBF51",
"H  c #D9BD62",
"J  c #E3C13C",
"K  c #EFC63F",
"L  c #F3C634",
"P  c #F1C63C",
"I  c #F3C83B",
"U  c #D9C473",
"Y  c #E6C040",
"T  c #ECC544",
"R  c #ECC64B",
"E  c #E6C453",
"W  c #E9C652",
"Q  c #E8C658",
"!  c #EDC954",
"~  c #EDCB5A",
"^  c #F0C743",
"/  c #F1C945",
"(  c #F2CA4C",
")  c #F2CC53",
"_  c #F3CF5A",
"`  c #F4D15F",
"'  c #FBD454",
"]  c #F9D45B",
"[  c #E9CD63",
"{  c #EAD27A",
"}  c #F6D364",
"|  c #F1D068",
" . c #F9D663",
".. c #FAD768",
"X. c #FBDA6C",
"o. c #FDDC73",
"O. c #FCDD7B",
"+. c #9E9782",
"@. c #B4AC8E",
"#. c #C3B683",
"$. c #C5B98B",
"%. c #C9C5B6",
"&. c #EBD488",
"*. c #ECD88E",
"=. c #EFDB9C",
"-. c #FCDF81",
";. c #FDE185",
":. c #F5E5A8",
">. c #C5C5C5",
",. c #FEFEFE",
"<. c None",
/* pixels */
"<.<.<.<.<.<.<.<.<.<.<.<.<.<.<.<.<.<.<.<.",
"<.<.  o @ + @ @ @ X <.<.<.<.<.<.<.<.<.<.",
"<.<.# 9 q q q q f : @ <.<.<.<.<.<.<.<.<.",
"<.  > h h g g g j m 6 % * * * * * #   <.",
"<.  3 n n n c c b b b v v N N N M 0 O <.",
"<.  8 G a %.%.%.%.%.%.%.%.%.%.s J k @ <.",
"<.  p { #.,.,.,.,.,.,.,.,.,.,.$.[ F @ <.",
"<.  d :.@.>.>.>.>.>.>.>.>.>.>.@.*.U @ <.",
". 5 y +.+.y y t t t t t t t t t u t 2   ",
"; =.;.;.-.O.O.O.o.o.O.O.o.o.o.X.o.X.&.= ",
"< o.X.X...}  . ._ ` ] ] ] ] ] ' ' ' ' $ ",
"- | } } ` ` ` ` ~ ! ) ) ) ) ( ( ( ( R @ ",
"$ H ~ ~ ! ! ! W W R R R T T T T T T x O ",
". A Q E E E W R R R R R T Y Y Y C C w X ",
"  i E E ! ) ! ) ( / / / / ^ ^ T C B 7   ",
"  4 E _ ) ) ( ( ( / ^ ^ ^ ^ I I I V ,   ",
"  2 ' ( ( ( / / R ^ ^ ^ I I I P I L & <.",
"<.$ i D D D S x x x z z l l l l k e O <.",
"<.  O @ @ @ @ @ @ @ @ @ @ @ @ @ @ O   <.",
"<.<.<.<.<.<.<.<.<.<.<.<.<.<.<.<.<.<.<.<."
};
