/* XPM */
static char *icon_icon[] = {
/* columns rows colors chars-per-pixel */
"20 20 231 2",
"   c black",
".  c #010100",
"X  c #020100",
"o  c #030000",
"O  c #020202",
"+  c #040000",
"@  c #070401",
"#  c #070501",
"$  c #040404",
"%  c gray2",
"&  c #080501",
"*  c #0A0602",
"=  c #0B0702",
"-  c #0C0702",
";  c #0D0802",
":  c #0E0903",
">  c #0F0903",
",  c #0D0904",
"<  c #0F0B07",
"1  c #0B0A08",
"2  c #120100",
"3  c #130C03",
"4  c #1E0F04",
"5  c #191005",
"6  c #1D150D",
"7  c #111010",
"8  c gray8",
"9  c #151515",
"0  c gray9",
"q  c #181818",
"w  c #1B1B1B",
"e  c #1E1E1E",
"r  c #2A0901",
"t  c #201506",
"y  c #251707",
"u  c #271807",
"i  c #21190F",
"p  c #291907",
"a  c #2F1D08",
"s  c #2F1E09",
"d  c #241D15",
"f  c #231E18",
"g  c #390A01",
"h  c #301E09",
"j  c #331F09",
"k  c #252019",
"l  c #2B231A",
"z  c #30200E",
"x  c #352009",
"c  c #37200A",
"v  c #37220A",
"b  c #3A260E",
"n  c #3E270B",
"m  c #352410",
"M  c #202020",
"N  c gray14",
"B  c gray15",
"V  c #272727",
"C  c #292520",
"Z  c #292623",
"A  c #292724",
"S  c #282828",
"D  c #2C2C2C",
"F  c #362F28",
"G  c #3C3125",
"H  c gray19",
"J  c #323232",
"K  c gray20",
"L  c #343434",
"P  c gray22",
"I  c gray23",
"U  c #4B1402",
"Y  c #43290C",
"T  c #4B2E0D",
"R  c #4E2C0C",
"E  c #4F310E",
"W  c #4C3010",
"Q  c #50320E",
"!  c #58370F",
"~  c #593710",
"^  c #453B2F",
"/  c #4C3C2A",
"(  c #563E22",
")  c #601802",
"_  c #761901",
"`  c #623C11",
"'  c #623D12",
"]  c #643E12",
"[  c #4C4339",
"{  c #5A452D",
"}  c #6C4213",
"|  c #6D4313",
" . c #734715",
".. c #7A4B16",
"X. c #7D4D16",
"o. c #7F4F17",
"O. c #654A2C",
"+. c #414141",
"@. c #444444",
"#. c #464646",
"$. c #4E4B49",
"%. c #4C4C4C",
"&. c #554D44",
"*. c #59544E",
"=. c gray32",
"-. c gray34",
";. c gray35",
":. c #5B5B5B",
">. c #785E40",
",. c #7C6549",
"<. c DimGray",
"1. c #6A6A6A",
"2. c #6C6C6C",
"3. c gray44",
"4. c #727272",
"5. c #777777",
"6. c gray50",
"7. c #801B01",
"8. c #8E1300",
"9. c #8E1D00",
"0. c #951300",
"q. c #A41500",
"w. c #B91800",
"e. c #804F17",
"r. c #825117",
"t. c #835117",
"y. c #825118",
"u. c #855218",
"i. c #865318",
"p. c #895418",
"a. c #8A5619",
"s. c #8B5619",
"d. c #8D5719",
"f. c #8E5A1F",
"g. c #8B5F2E",
"h. c #8D5F2C",
"j. c #915E22",
"k. c #925F24",
"l. c #8D673B",
"z. c #936026",
"x. c #946227",
"c. c #95642A",
"v. c #96652C",
"b. c #97662E",
"n. c #976935",
"m. c #996931",
"M. c #9A6B34",
"N. c #846F57",
"B. c #837059",
"V. c #916E44",
"C. c #8C7860",
"Z. c #8D7E6E",
"A. c #877C71",
"S. c #A17542",
"D. c #A27643",
"F. c #A37745",
"G. c #C81900",
"H. c #8C847A",
"J. c #9E876C",
"K. c #AB8355",
"L. c #AC8457",
"P. c #AD8659",
"I. c #A58663",
"U. c #A08B73",
"Y. c #A08C75",
"T. c #B49168",
"R. c #B5926A",
"E. c #BE9F7C",
"W. c #BFA17E",
"Q. c #838383",
"!. c #868686",
"~. c #8B8B8B",
"^. c #908E8C",
"/. c #9C9083",
"(. c #99948D",
"). c #959493",
"_. c #9A9692",
"`. c #989898",
"'. c #9D9D9D",
"]. c #A1978C",
"[. c #AC9A84",
"{. c #A3A09C",
"}. c #B0A08E",
"|. c #BCA285",
" X c #BEA990",
".X c #A7A7A7",
"XX c gray66",
"oX c #AEAEAE",
"OX c #B0AFAD",
"+X c #B1B1B1",
"@X c #B7B7B7",
"#X c #B8B5B1",
"$X c gray72",
"%X c #C7AD8E",
"&X c #C7AE92",
"*X c #C9AF92",
"=X c #D3BEA6",
"-X c #D4BFA8",
";X c #D5C2AB",
":X c #DDCCBA",
">X c #DDCEBB",
",X c #C0C0C0",
"<X c #C3C2C2",
"1X c #CACACA",
"2X c gray80",
"3X c #CECECE",
"4X c gray81",
"5X c #D2D1D0",
"6X c #D2D2D2",
"7X c #D5D5D5",
"8X c gray86",
"9X c gainsboro",
"0X c #DFDFDF",
"qX c #E1D5C6",
"wX c #E3D6C7",
"eX c gray88",
"rX c #E1E1E1",
"tX c #E2E2E2",
"yX c gray89",
"uX c #E6E6E6",
"iX c #E7E7E7",
"pX c gray91",
"aX c gray92",
"sX c #EFEFEF",
"dX c #F1F1F1",
"fX c #F3F3F3",
"gX c #F4F4F4",
"hX c gray97",
"jX c #F9F9F9",
"kX c gray100",
"lX c None",
/* pixels */
"lXlXlXlXlXlXlXlXlXlXlXlXlXlXlX  @ lXlXlX",
"lXlXlXlXlXlXlXlXlXlXlXlXlXlX  3 C   lXlX",
"lXlXlXlXlXlXlXlXlXlXlXlXlXlX# Z.}.- lXlX",
"lX      lXlXlXlXlXlXlX  lX  k qXqXd   lX",
"lX  1 =   lXlXlX  :.'.+XQ.A  X>X:XC.= lX",
"lX  &.U.,   lXlX5.fXjXhXfX5X/.-X=X|.- lX",
"lX  [ ;XY.$.).#.tXfXsXuXaXpX_.&X*X%X6   ",
"lX  ^ [.5XjXjXXXtXuX<XJ $XtX<XJ.W.E./   ",
"lX  G ].hXfX8X.X0X0X7X3.4X0XOXI.R.R.{   ",
"lX  l (.pX4X3.1XoX0X0X0X0X0XA.P.L.K.O.  ",
"lX0 A *.6.2XiXuX~.{.0X0X9XH.V.F.F.S.(   ",
"e <.~.<.%.+.@X#XB.l.,.N.>.M.M.m.h.v.m   ",
"-.`.<.#.I L F g.v.c.x.k.k.j.f.W t y.3   ",
"2.!.#.P D B f p.d.p.p.u.t.o.T = c ` : lX",
"=.<.J D N w d u.y.e.o. .Y 4   - ] j   lX",
"J :.B N 0 8 b ..} c 4 - + 2   y Q -   lX",
"  B w 0 7 s | ! r 8.w.q.0.G.g E :   lXlX",
"lXlX  % = y ~ ` R ) _ 9._ U n :   lXlXlX",
"lXlXlXlXlX= : 3 c j a a p 3 :   lXlXlXlX",
"lXlXlXlXlXlXlX              lXlXlXlXlXlX"
};
