/* XPM */
static char *icon_layer_icon[] = {
/* columns rows colors chars-per-pixel */
"20 20 190 2",
"   c black",
".  c #010101",
"X  c gray1",
"o  c #020405",
"O  c #040404",
"+  c #00090C",
"@  c gray3",
"#  c #0B0C0D",
"$  c #0C0C0C",
"%  c #101010",
"&  c #111112",
"*  c #151617",
"=  c #10171B",
"-  c #11181C",
";  c #1B1B1B",
":  c #08222E",
">  c #11212A",
",  c #15313E",
"<  c #2F2F30",
"1  c #283136",
"2  c #083B53",
"3  c #143C4E",
"4  c #263A45",
"5  c #19455A",
"6  c #1C495E",
"7  c #0E5475",
"8  c #134A64",
"9  c #164F69",
"0  c #145371",
"q  c #1E5B78",
"w  c #23414F",
"e  c #2C4550",
"r  c #304955",
"t  c #324A56",
"y  c #254E63",
"u  c #2A607A",
"i  c #404347",
"p  c #434348",
"a  c #444448",
"s  c #464649",
"d  c #484848",
"f  c #5B5B5C",
"g  c gray37",
"h  c #406677",
"j  c #476A7D",
"k  c #686868",
"l  c #6E6E75",
"z  c #015A84",
"x  c #015F89",
"c  c #0A5F87",
"v  c #0B628B",
"b  c #006A9A",
"n  c #116288",
"m  c #18688D",
"M  c #15709A",
"N  c #0070A3",
"B  c #0078AF",
"V  c #007EB7",
"C  c #306C89",
"Z  c #337392",
"A  c #3E7590",
"S  c #3E7B99",
"D  c #3F7C9B",
"F  c #45768D",
"G  c #557685",
"H  c #507689",
"J  c #547688",
"K  c #547A8E",
"L  c #597D8F",
"P  c #607F8F",
"I  c #7B7B81",
"U  c #0080BB",
"Y  c #0082BD",
"T  c #0084C0",
"R  c #0085C2",
"E  c #0087C4",
"W  c #0088C7",
"Q  c #0089C8",
"!  c #008BCA",
"~  c #008BCB",
"^  c #008DCE",
"/  c #008FD1",
"(  c #0091D4",
")  c #0094D7",
"_  c #0095D9",
"`  c #0096DA",
"'  c #0097DC",
"]  c #0098DD",
"[  c #178CC1",
"{  c #1D96CE",
"}  c #009AE0",
"|  c #009AE1",
" . c #009CE3",
".. c #009CE4",
"X. c #009EE6",
"o. c #039FE6",
"O. c #009FE8",
"+. c #00A0E9",
"@. c #00A1EB",
"#. c #00A3ED",
"$. c #00A3EE",
"%. c #00A4EF",
"&. c #00A5F0",
"*. c #00A5F1",
"=. c #00A6F2",
"-. c #00A7F3",
";. c #00A8F5",
":. c #00AAF7",
">. c #00AAF8",
",. c #00ACFA",
"<. c #00ADFC",
"1. c #00AFFF",
"2. c #05B1FF",
"3. c #1BAAEC",
"4. c #1BAFF4",
"5. c #3B9DC9",
"6. c #38A9DD",
"7. c #39B7F1",
"8. c #7A868F",
"9. c #748490",
"0. c #7A8990",
"q. c #7B8E99",
"w. c #489AC0",
"e. c #84848C",
"r. c #85858C",
"t. c gray57",
"y. c #99A2AA",
"u. c #A9A9A9",
"i. c #ABABAD",
"p. c #AFAFB8",
"a. c #B7B7BF",
"s. c gray73",
"d. c #8AB9D4",
"f. c #B8B8C1",
"g. c #B9B9C3",
"h. c #B9B9C5",
"j. c #BBBBC5",
"k. c #BBBBC6",
"l. c #BEBEC2",
"z. c #BFBFC7",
"x. c #C4C4C5",
"c. c #C7C7D1",
"v. c #CACAD4",
"b. c #D3D3D9",
"n. c #D2D2DE",
"m. c #D4D4DF",
"M. c #D5D5E0",
"N. c #D6D6E1",
"B. c #D7D7E2",
"V. c #D1DCE9",
"C. c #D8D8E2",
"Z. c #D8D8E3",
"A. c #D9D9E3",
"S. c #DADAE4",
"D. c #DBDBE4",
"F. c #DBDBE5",
"G. c #DDDDE2",
"H. c #DCDCE5",
"J. c #DDDDE6",
"K. c #DEDEE7",
"L. c #DFDFE8",
"P. c #E1E1E2",
"I. c #E3E3E4",
"U. c #E0E0E8",
"Y. c #E0E0E9",
"T. c #E1E1E9",
"R. c #EAEAF0",
"E. c #ECECF1",
"W. c #EDEDF1",
"Q. c #EDEDF2",
"!. c #EEEEF2",
"~. c #EFEFF3",
"^. c #F0F0F4",
"/. c #F1F1F5",
"(. c #F2F2F5",
"). c #F2F2F6",
"_. c #F3F3F6",
"`. c #F4F4F6",
"'. c #F4F4F7",
"]. c #F5F5F7",
"[. c #F5F5F8",
"{. c #F6F6F8",
"}. c #F7F7F9",
"|. c #F7F7FA",
" X c #F8F8FA",
".X c #F9F9FA",
"XX c #F9F9FB",
"oX c #FAFAFB",
"OX c #FBFBFC",
"+X c None",
/* pixels */
"+X+X+X+X+X+X+X+X+X+X          +X+X+X+X+X",
"+X+X+X+X+X+X+X          = e 4   +X+X+X+X",
"+X+X+X+X+X      - r h F w.6.q   +X+X+X+X",
"+X+X        g x.G 7.3.o.} ` Y >   +X+X+X",
"      ; t.P.[.'.P %.+. .] ) / 5   +X+X+X",
"  d s._.oX[._._.y./ o.} ` ( ^ c o   +X+X",
"  u.OXoX[.[._._.G.M  .] ) / ~ T ,   +X+X",
"  k oXoX[.'._.!.!.C } ` ( ^ ~ T 8   +X+X",
"  1 oX[._._._.!.!.H ' ( / ~ V v 6 #   +X",
"    I.'._._.!.!.R.q.B n u j 9.z.A.a   +X",
"    i._._.!.l.8.J y L b.Y.L.H.S.A.I   +X",
"+X  f 8.K Z [ >.1.*.S Y.L.H.S.S.B.p.  +X",
"+X  * 4.1.1.1.1.1.;.m Y.L.H.S.B.B.n.%   ",
"+X    F 1.1.1.,.*.#.x V.H.S.S.B.m.n.p   ",
"+X+X  1 2.1.>.*.+.o.b d.S.A.B.n.c.k.l   ",
"+X+X  O 5.>.*.+.} ' E D A.v.h.h.h.r.a   ",
"+X+X+X  r #.O.} ) ~ V 0 a.f.r.p $   +X+X",
"+X+X+X  & { ~ V V N z 2 i @   +X+X+X+X+X",
"+X+X+X    w 7 9 3 : +     +X+X+X+X+X+X+X",
"+X+X+X+X            +X+X+X+X+X+X+X+X+X+X"
};
