/* XPM */
static char *ink_object_align[] = {
/* columns rows colors chars-per-pixel */
"20 21 182 2",
"   c black",
".  c #020202",
"X  c gray2",
"o  c #060606",
"O  c gray3",
"+  c #0B0B0B",
"@  c #0E0E0E",
"#  c gray6",
"$  c #101010",
"%  c #111111",
"&  c gray7",
"*  c gray8",
"=  c #151515",
"-  c #161616",
";  c gray9",
":  c #13161A",
">  c #191919",
",  c gray10",
"<  c #1B1B1B",
"1  c gray11",
"2  c #1D1D1D",
"3  c #1E1E1E",
"4  c gray12",
"5  c #202020",
"6  c gray13",
"7  c #222222",
"8  c #232323",
"9  c gray14",
"0  c #252525",
"q  c #272727",
"w  c #282828",
"e  c #2C2C2C",
"r  c gray18",
"t  c #2F2F2F",
"y  c gray19",
"u  c #313131",
"i  c #323232",
"p  c gray20",
"a  c #343434",
"s  c #353535",
"d  c gray21",
"f  c #3A3A3A",
"g  c gray23",
"h  c #3C3C3C",
"j  c #3E3E3E",
"k  c #3F3F3F",
"l  c #3C4146",
"z  c gray25",
"x  c #414141",
"c  c #414242",
"v  c #434343",
"b  c #444444",
"n  c gray27",
"m  c #464646",
"M  c #484848",
"N  c gray29",
"B  c #4C4C4C",
"V  c gray30",
"C  c #4E4E4E",
"Z  c #424E5B",
"A  c #505050",
"S  c #515151",
"D  c gray32",
"F  c #535353",
"G  c #555555",
"H  c #565656",
"J  c gray34",
"K  c #555658",
"L  c #52595E",
"P  c #585858",
"I  c gray35",
"U  c #5A5A5A",
"Y  c #5B5B5B",
"T  c #5D5D5D",
"R  c #4D5A66",
"E  c #5B626B",
"W  c #536270",
"Q  c #606061",
"!  c #626262",
"~  c gray40",
"^  c #626769",
"/  c #718599",
"(  c #7B93AA",
")  c #7E97AE",
"_  c #B60000",
"`  c #BF0000",
"'  c #C60000",
"]  c #C70000",
"[  c #C80000",
"{  c #C90000",
"}  c #808080",
"|  c #84919F",
" . c #95989B",
".. c #8796A3",
"X. c #8097B0",
"o. c #8098B0",
"O. c #819AB1",
"+. c #829BB2",
"@. c #839BB4",
"#. c #839CB4",
"$. c #859DB5",
"%. c #859EB6",
"&. c #869EB7",
"*. c #869FB6",
"=. c #879EB6",
"-. c #9BAAB9",
";. c #9DACBA",
":. c #ADAFAF",
">. c #90ABC5",
",. c #91ABC5",
"<. c #91ACC6",
"1. c #93ACC6",
"2. c #93ADC7",
"3. c #93AEC8",
"4. c #98B6D3",
"5. c #9AB7D3",
"6. c #9AB8D3",
"7. c #9CB8D4",
"8. c #9CB9D5",
"9. c #9FBBD6",
"0. c #A2BCD5",
"q. c #A3BED8",
"w. c #B6BEC6",
"e. c #A7C1D9",
"r. c #A7C1DA",
"t. c #ABC0D7",
"y. c #ABC4DB",
"u. c #AFC6DD",
"i. c #B0C4DA",
"p. c #B3C8DB",
"a. c #B3C9DE",
"s. c #B4CADF",
"d. c #B7CADE",
"f. c #BBCCDF",
"g. c #B8CDE1",
"h. c #B9CDE1",
"j. c #B9CEE1",
"k. c #BACEE2",
"l. c #BCCFE2",
"z. c #BCCFE3",
"x. c #BCD0E2",
"c. c #BDD0E2",
"v. c #BDD0E3",
"b. c #BFD0E0",
"n. c #BED1E3",
"m. c #BED1E4",
"M. c #BFD1E4",
"N. c #C3D2E2",
"B. c #C0D2E4",
"V. c #C1D2E4",
"C. c #C1D3E4",
"Z. c #C3D5E5",
"A. c #C3D5E6",
"S. c #C4D5E6",
"D. c #C6D6E5",
"F. c #C6D6E7",
"G. c #C7D7E7",
"H. c #C8D8E7",
"J. c #CAD8E6",
"K. c #CED9E2",
"L. c #CADAE9",
"P. c #CBDAE9",
"I. c #CCDBEA",
"U. c #CFDBE8",
"Y. c #CFDDEB",
"T. c #D5DEE7",
"R. c #D2DEE8",
"E. c #D2E0EC",
"W. c #D3E0EC",
"Q. c #D6E1EA",
"!. c #DAE3ED",
"~. c #D8E4EF",
"^. c #DDE4EA",
"/. c #DFE6EE",
"(. c #DDE7F0",
"). c #DEE9F1",
"_. c #E1E4E6",
"`. c #E4E8EE",
"'. c #E5ECF3",
"]. c #EBF0F6",
"[. c #F1F5F8",
"{. c None",
/* pixels */
"] ` U U U U S C n h g {.{.{.{.{.{.{.{.{.",
"[ [ U T _.`.^.T.K.^ u {.{.{.{.{.{.{.{.{.",
"[ [ J Q ).m.c.c.m...w {.{.{.{.{.{.{.{.{.",
"[ [ C K B.g.c.Z.r./ 7 {.{.{.{.{.{.{.{.{.",
"[ [ v v 0.7.5.6.5.R = {.{.{.{.{.{.{.{.{.",
"[ [ h a e w 7 4 = % + {.{.{.{.{.{.{.{.{.",
"[ [ {.e 0 4 < = + +   {.{.{.{.{.{.{.{.{.",
"[ [ ~ J J J J F J J J J M M M v k v a   ",
"[ [ U U U U K F S M M n v h g a p t e q ",
"[ ] U  .`.!.Q.R.R.J.S.N.l.f.f.p.i.r.l < ",
"[ [ B -.a.u.y.r.q.9.9.4.4.4.5.4.4.4.W # ",
"[ [ k L $.$.$.$.#.@.+.+.+.+.X.) ) ( :   ",
"[ [ u t e q 8 7 4 < ; & # + O X         ",
"[ [ {.{.{.{.{.{.{.{.{.{.{.{.{.{.{.{.{.{.",
"[ [ Q U U U U J A M M n z g a y {.{.{.{.",
"[ [ T U U J S C M n k g a u e w {.{.{.{.",
"[ [ U :.[.].'.).~.R.L.F.B.k...4 {.{.{.{.",
"[ [ S w.L.g.m.B.Z.L.L.Y.R.g.%.* {.{.{.{.",
"[ [ M ;.g.l.l.l.z.c.B.Z.F.y.%.+ {.{.{.{.",
"[ [ k E 3.3.<.<.,.,.,.,.>.>.Z . {.{.{.{.",
"] _ a y e w 7 4 < * $ + O       {.{.{.{."
};
