/* XPM */
static char *keyframe_icon[] = {
/* columns rows colors chars-per-pixel */
"20 20 63 1",
"  c #434386",
". c #444488",
"X c #49498F",
"o c #4C4C8F",
"O c #4B4B95",
"+ c #4C4C9D",
"@ c #55558F",
"# c #595999",
"$ c #5252A0",
"% c #5252A4",
"& c #5858AC",
"* c #616191",
"= c #666699",
"- c #686893",
"; c #696996",
": c #6F6F94",
"> c #707093",
", c #797992",
"< c #7B7B95",
"1 c #7D7D92",
"2 c #7979E5",
"3 c #7B7BE7",
"4 c #7C7CE9",
"5 c #7C7CEB",
"6 c #7D7DEC",
"7 c #7E7EEF",
"8 c #80808B",
"9 c #80808F",
"0 c #828292",
"q c #868696",
"w c #8C8C99",
"e c #8F8F9C",
"r c #8181E7",
"t c #8383EC",
"y c #8E8EE7",
"u c #8E8EFF",
"i c #9292EC",
"p c #9C9CE7",
"a c #9F9EEB",
"s c #9595FF",
"d c #9D9DFF",
"f c #A9A9E7",
"g c #ABABEB",
"h c #A4A4FF",
"j c #ACABFF",
"k c #B5B4E7",
"l c #B9B8EB",
"z c #B3B3FF",
"x c #BABAFF",
"c c #C4C3E7",
"v c #C6C5EA",
"b c #C8C7E5",
"n c #C9C8E6",
"m c #CAC9E8",
"M c #CCCAE9",
"N c #CDCCEA",
"B c #CFCEEC",
"V c #C2C1FF",
"C c #C9C8FF",
"Z c #D1D0FF",
"A c #D8D7FF",
"S c gray100",
"D c None",
/* pixels */
"DDDDDDDDDDDDDDDDDDDD",
"DDDDDDDDDDDDDDDDDDDD",
"DDDDDDDDDDDDDDDDDDDD",
"DDDDDDDDD oDDDDDDDDD",
"DDDDDDDD.2r@DDDDDDDD",
"DDDDDDDX2usy*DDDDDDD",
"DDDDDDO5usdhp-DDDDDD",
"DDDDD+5usdhjzf>DDDDD",
"DDDD%6usdhjzxVk<DDDD",
"DDD&6usdhjzxVCZcqDDD",
"DDD$tsdhjzxVCZAn8DDD",
"DDDD#ihjzxVCZAn8DDDD",
"DDDDD=azxVCZAm9DDDDD",
"DDDDDD;gVCZAM0DDDDDD",
"DDDDDDD:lZANqDDDDDDD",
"DDDDDDDD,vBwDDDDDDDD",
"DDDDDDDDD1eDDDDDDDDD",
"DDDDDDDDDDDDDDDDDDDD",
"DDDDDDDDDDDDDDDDDDDD",
"DDDDDDDDDDDDDDDDDDDD"
};
