/* XPM */
static char *Landscape2[] = {
/* columns rows colors chars-per-pixel */
"20 15 138 2",
"   c #616B12",
".  c #6B7A04",
"X  c #3F9604",
"o  c #26A700",
"O  c #24A900",
"+  c #2EAA01",
"@  c #3CA700",
"#  c #39AD00",
"$  c #39AE00",
"%  c #3AAF00",
"&  c #3CAD00",
"*  c #3FAE00",
"=  c #3AB000",
"-  c #4B8904",
";  c #459905",
":  c #499400",
">  c #4D9906",
",  c #4E9A06",
"<  c #4F9C06",
"1  c #51870F",
"2  c #588911",
"3  c #5A9700",
"4  c #41A300",
"5  c #40A400",
"6  c #41A400",
"7  c #4AA919",
"8  c #4CB100",
"9  c #4FB200",
"0  c #52A206",
"q  c #53A406",
"w  c #5AAC00",
"e  c #50B300",
"r  c #53B100",
"t  c #50B400",
"y  c #51B600",
"u  c #54B100",
"i  c #54B200",
"p  c #55B200",
"a  c #56B300",
"s  c #56B004",
"d  c #52B800",
"f  c #56B900",
"g  c #5BB30E",
"h  c #5EBC00",
"j  c #5FBC00",
"k  c #4CAC2E",
"l  c #45A632",
"z  c #51A021",
"x  c #5EB334",
"c  c #669C00",
"v  c #7A921F",
"b  c #66A705",
"n  c #69A601",
"m  c #60BC00",
"M  c #60BD00",
"N  c #61BF00",
"B  c #61BF03",
"V  c #62BF00",
"C  c #61BD04",
"Z  c #70BB06",
"A  c #4EAD46",
"S  c #50AF53",
"D  c #58BF6C",
"F  c #5EB97D",
"G  c #6EB965",
"H  c #60B971",
"J  c #61C000",
"K  c #62C000",
"L  c #62C100",
"P  c #62C200",
"I  c #63C500",
"U  c #64C600",
"Y  c #65C600",
"T  c #65C601",
"R  c #65C700",
"E  c #66CA00",
"W  c #67CB00",
"Q  c #67CC00",
"!  c #67CF00",
"~  c #68C901",
"^  c #68CC00",
"/  c #69CF00",
"(  c #69D000",
")  c #6AD000",
"_  c #6AD100",
"`  c #5EC264",
"'  c #22B8F6",
"]  c #2FBCF7",
"[  c #3BB7E1",
"{  c #31BDF7",
"}  c #32BDF7",
"|  c #38BFF7",
" . c #60BA90",
".. c #60BACE",
"X. c #65C48A",
"o. c #77C883",
"O. c #7BCA80",
"+. c #7CCB84",
"@. c #7DCB88",
"#. c #72C09A",
"$. c #6FC7AE",
"%. c #74C9AC",
"&. c #72C8BF",
"*. c #5EC9D6",
"=. c #5ECBDF",
"-. c #43C2F7",
";. c #40C2F8",
":. c #43C3F8",
">. c #4DC6F8",
",. c #4FC7F9",
"<. c #51C7F7",
"1. c #5ECBF9",
"2. c #5ECCFA",
"3. c #60CCF9",
"4. c #6ACFF9",
"5. c #6ED1F9",
"6. c #6ED2FB",
"7. c #7DD7FC",
"8. c #8A5704",
"9. c #8F5902",
"0. c #859C1A",
"q. c #8DB308",
"w. c #FDB64F",
"e. c #FBBA57",
"r. c #FCB955",
"t. c #F1BC65",
"y. c #8FBBB2",
"u. c #ACBB9C",
"i. c #80D6FA",
"p. c #8BDBFA",
"a. c #8CDCFD",
"s. c #90DCFB",
"d. c #A4E1FB",
"f. c #AAE3FB",
"g. c #A8E3FC",
"h. c #EFF8FC",
"j. c #FCFDFD",
"k. c #FDFDFD",
/* pixels */
"e.t.[ ' ' ' ' ' ' ' ' ' ' ' ' ] } ' ' ' ",
"w.r...{ { { -.<.| { { { { { 1.j.k.d.} } ",
"u.y.;.;.4.h.k.k.k.f.;.;.;.;.;.-.,.;.;.;.",
",.,.,.,.,.i.f.a.3.,.,.,.,.,.,.,.,.,.,.,.",
"2.2.=.` *.2.2.2.1.1.1.1.2.2.2.2.1.1.2.2.",
"6.X.g q z  .6.6.6.6.6.6.6.6.6.6.6.6.6.6.",
"7.x 0 < > > &.7.7.7.7.7.7.7.7.7.7.7.7.7.",
"D k > > > > #.%.F S l A D %.p.a.a.a.a.a.",
"O o ; . - X + @ 4 4 4 4 5 5 7 G o.@.+.O.",
"# = & 9.: # # # 5 8 r i i i i b s i i i ",
"d d w 9.3 y r 8 y y f h m m h h j m m h ",
"P P n 8.c P B P P P P P P P P P P P P P ",
"Z v 2   1 B T T T T T T T I T T T T T T ",
"^ q.0.C T E ^ E E E E E E E Q E E / / / ",
"/ / / / _ / / _ _ _ _ _ _ _ _ _ _ _ Q _ "
};
