/* XPM */
static char *Landscape[] = {
/* columns rows colors chars-per-pixel */
"20 15 142 2",
"   c #2C781D",
".  c #34811E",
"X  c #3E951F",
"o  c #3B8E22",
"O  c #3C8E23",
"+  c #428F1E",
"@  c #40941C",
"#  c #41951D",
"$  c #43971C",
"%  c #45901E",
"&  c #519E1F",
"*  c #448C23",
"=  c #449121",
"-  c #518A25",
";  c #568825",
":  c #5F8626",
">  c #5B8E3B",
",  c #519F22",
"<  c #589D2A",
"1  c #579433",
"2  c #5F943A",
"3  c #4FA320",
"4  c #5CA626",
"5  c #5BAA23",
"6  c #5CAD20",
"7  c #5BAB35",
"8  c #5FB22F",
"9  c #5DBB24",
"0  c #59BD2B",
"q  c #688329",
"w  c #7C933C",
"e  c #60B51F",
"r  c #67BA1F",
"t  c #64BE1A",
"y  c #65B523",
"u  c #62B52E",
"i  c #64BB29",
"p  c #64BC28",
"a  c #6FBB27",
"s  c #6AB92F",
"d  c #67B531",
"f  c #778D5A",
"g  c #5FC51F",
"h  c #5FC021",
"j  c #68CA1A",
"k  c #68CB1A",
"l  c #70C61E",
"z  c #70CD1D",
"x  c #72D01B",
"c  c #79D11D",
"v  c #7CD51C",
"b  c #69C125",
"n  c #6AC324",
"m  c #6BC423",
"M  c #6CC523",
"N  c #57ADFF",
"B  c #6FB0FF",
"V  c #73B2FF",
"C  c #7CB7FF",
"Z  c #818B5F",
"A  c #90864E",
"S  c #CBA04D",
"D  c #CAA459",
"F  c #CAAA69",
"G  c #C8B17E",
"H  c #88BEFF",
"J  c #9FB6FF",
"K  c #A2B9FF",
"L  c #B5BDFF",
"P  c #B6C0AA",
"I  c #8DC0FF",
"U  c #96C5FF",
"Y  c #B0D2DC",
"T  c #A4CDFF",
"R  c #ADC0FF",
"E  c #B7C8FF",
"W  c #B8C0FF",
"Q  c #BAC2FF",
"!  c #BAC6FF",
"~  c #BBC7FF",
"^  c #BECFFF",
"/  c #B1D4FF",
"(  c #BBDBF3",
")  c #BBDAFF",
"_  c #BDDBFF",
"`  c #BEDBFF",
"'  c #BDDCF9",
"]  c #C5B792",
"[  c #C1BB9A",
"{  c #C0CBFF",
"}  c #C3CAFF",
"|  c #C5CFFF",
" . c #C1D0FF",
".. c #C2D2FF",
"X. c #C7D6FF",
"o. c #C6DAFF",
"O. c #C4DFFF",
"+. c #CBD4FF",
"@. c #CAD7FF",
"#. c #CCD1FF",
"$. c #CADCFF",
"%. c #CCDAFF",
"&. c #CFDAFF",
"*. c #CCDEFF",
"=. c #CEDFFF",
"-. c #CFDFFF",
";. c #D3DBFF",
":. c #D1DDFF",
">. c #D4D9FF",
",. c #D4DEFF",
"<. c #C6E0FF",
"1. c #C7E1FF",
"2. c #C9E2FF",
"3. c #CBE3FF",
"4. c #CCE3FF",
"5. c #CEE4FF",
"6. c #D1E1FF",
"7. c #D3E2FF",
"8. c #D6E4FF",
"9. c #D9E2FF",
"0. c #D8E6FF",
"q. c #D9E6FF",
"w. c #DBE5FF",
"e. c #DAE7FF",
"r. c #DBE7FF",
"t. c #DCE0FF",
"y. c #DDE5FF",
"u. c #DBE8FF",
"i. c #DDE8FF",
"p. c #DDE9FF",
"a. c #DFEAFF",
"s. c #E2E7FF",
"d. c #E0E8FF",
"f. c #E1E9FF",
"g. c #E0EAFF",
"h. c #E1EBFF",
"j. c #E9ECFF",
"k. c #E8EEFF",
"l. c #EAEDFF",
"z. c #EAEEFF",
"x. c #EBF0FF",
"c. c #ECF1FF",
/* pixels */
"N N N N N N N N N N N N N N N N N N N N ",
") ` ` ` / T U I H C V B B B B B B B B B ",
"f.f.y.9.,.&.@. .E R K J J J J J J J K K ",
"W L L L L L L L L L L L L L L W } #.>.t.",
"! ! ! ! ! ! ! ! ! ! ! ! {  .@.;.s.k.k.k.",
"^ ^ ^ ^ ^ ^ ^ ^ ^ ^  .X.&.,.r.k.x.x.c.z.",
"o.=.r.u.r.r.r.u.a.f.a.a.r.r.8.7.7.4.=.$.",
"4.5.3.3.<.<.<.<.<.<.( ' Y P [ ] G F D S ",
"< w A Z f > 1 2 X o O O o o o * - : q ; ",
"t e 3 $ X # % 5 a y 5 3 = .             ",
"d s v v v v v v v v v v v v c l r 6 & % ",
"x p p 8 7 u M M b n k x x x x x x x x x ",
"k k k k 9 h k k k k k k k k k k k k k k ",
"g g g g g g g g g g g g h g g g g g g g ",
"0 0 0 0 0 0 0 0 0 0 0 0 0 0 0 0 0 0 0 0 "
};
