/* XPM */
static char *lock_icon[] = {
/* columns rows colors chars-per-pixel */
"20 20 130 2",
"   c black",
".  c #010100",
"X  c #010101",
"o  c #020202",
"O  c gray1",
"+  c #040404",
"@  c #0B0A05",
"#  c gray5",
"$  c #100E08",
"%  c #161308",
"&  c #1D1300",
"*  c #1E1A0C",
"=  c #101010",
"-  c #161616",
";  c #29230C",
":  c #2F2B00",
">  c #22201A",
",  c #373014",
"<  c #3D3519",
"1  c #2A2720",
"2  c gray16",
"3  c #302D25",
"4  c #312E26",
"5  c #323232",
"6  c #353535",
"7  c gray23",
"8  c #4A3300",
"9  c #523B00",
"0  c #563F00",
"q  c #4A401E",
"w  c #5B4400",
"e  c #5F4900",
"r  c #644F00",
"t  c #685500",
"y  c #6C5B00",
"u  c #726200",
"i  c #776800",
"p  c #7C6606",
"a  c #796B00",
"s  c gray25",
"d  c #474642",
"f  c #4B4B4B",
"g  c #4E4C48",
"h  c #4C4C4C",
"j  c #4E4E4E",
"k  c gray34",
"l  c gray38",
"z  c gray40",
"x  c #686868",
"c  c gray42",
"v  c #777777",
"b  c #835800",
"n  c #875B00",
"m  c #947901",
"M  c #A97100",
"N  c #B67A00",
"B  c #9A912C",
"V  c #A98F15",
"C  c #BA9523",
"Z  c #C38300",
"A  c #C69D1D",
"S  c #D08B00",
"D  c #DB9300",
"F  c #DC9300",
"G  c #DD9400",
"H  c #C6B500",
"J  c #D4AE03",
"K  c #DAAE00",
"L  c #E0AD0D",
"P  c #EBA200",
"I  c #ECA300",
"U  c #EEAA00",
"Y  c #E7BC00",
"T  c #ECB304",
"R  c #F0B000",
"E  c #F0B205",
"W  c #F1B600",
"Q  c #F1B601",
"!  c #F1BB00",
"~  c #F3BC00",
"^  c #F2BA0D",
"/  c #E0CE0B",
"(  c #E2D11A",
")  c #F3C700",
"_  c #F5C300",
"`  c #F6C900",
"'  c #F8CF00",
"]  c #F4C215",
"[  c #F6CA1D",
"{  c #FAD500",
"}  c #FBDB00",
"|  c #E4D429",
" . c #E6D738",
".. c #F7D125",
"X. c #F9D72D",
"o. c #FBDE35",
"O. c #FDE200",
"+. c #FDE201",
"@. c #FDE40E",
"#. c #FDE620",
"$. c #FCE43D",
"%. c #E7DA48",
"&. c #E8DA46",
"*. c #E8DA48",
"=. c #FDED6C",
"-. c #9B9B9B",
";. c gray61",
":. c gray62",
">. c #A7A6A0",
",. c #A4A4A4",
"<. c #A8A6A1",
"1. c #AFAFAF",
"2. c gray69",
"3. c #B9B9B9",
"4. c gray74",
"5. c gray",
"6. c #C6C6C6",
"7. c #CDCCC7",
"8. c #C8C8C8",
"9. c gray80",
"0. c #CECECE",
"q. c #D0D0D0",
"w. c gray82",
"e. c #D2D2D2",
"r. c LightGray",
"t. c gray83",
"y. c #DDDDD6",
"u. c gray85",
"i. c gray100",
"p. c None",
/* pixels */
"p.p.p.p.p.p.p.p.p.p.p.p.p.p.p.p.p.p.p.p.",
"p.p.p.p.p.p.  2 z v l 6   p.p.p.p.p.p.p.",
"p.p.p.p.p.  c 6.q.q.q.5.k + p.p.p.p.p.p.",
"p.p.p.p.  j q.q.2.c ,.q.0.f   p.p.p.p.p.",
"p.p.p.p.  2.q.c       j q.,.#   p.p.p.p.",
"p.p.p.p.= 0.3.-   p.p.+ 5.5.5   p.p.p.p.",
"p.p.p.p.7 u.-.    p.p.  ;.8.s   p.p.p.p.",
"p.p.p.  d y.>.> 4 4 4 1 <.7.g     p.p.p.",
"p.p.  B =.$.o.X...[ ] ^ E U P n   p.p.p.",
"p.p.  %.#.} { ' ) K ! W R U I F     p.p.",
"p.p.  *.@.} { ' m % * L R U I G     p.p.",
"p.p.  &.O.} { ' p     C R U I D     p.p.",
"p.p.   .O.} { ' Y ; q W R U I S     p.p.",
"p.p.  | O.} { ' J @ $ T R U I Z     p.p.",
"p.p.  ( O.} { ' V , < A R U I N     p.p.",
"p.p.  / O.} { ' ` _ ~ W R U I M     p.p.",
"p.p.  H O.} { ' ` _ ~ W R U P b     p.p.",
"      : a i u y t r e w 0 9 8 &         ",
"p.                                    p.",
"p.p.p.p.p.p.p.p.p.p.p.p.p.p.p.p.p.p.p.p."
};
