<?xml version="1.0" encoding="UTF-8" standalone="no"?>
<!-- Created with Inkscape (http://www.inkscape.org/) -->

<svg
   xmlns:dc="http://purl.org/dc/elements/1.1/"
   xmlns:cc="http://creativecommons.org/ns#"
   xmlns:rdf="http://www.w3.org/1999/02/22-rdf-syntax-ns#"
   xmlns:svg="http://www.w3.org/2000/svg"
   xmlns="http://www.w3.org/2000/svg"
   xmlns:xlink="http://www.w3.org/1999/xlink"
   xmlns:sodipodi="http://sodipodi.sourceforge.net/DTD/sodipodi-0.dtd"
   xmlns:inkscape="http://www.inkscape.org/namespaces/inkscape"
   width="27.933578"
   height="28.364571"
   id="svg3593"
   version="1.1"
   inkscape:version="0.48+devel r9712"
   sodipodi:docname="paste_anim_icon.svg"
   inkscape:export-filename="D:\FuetGames\Framework\src\FuetEngineFramework\tools\HUDEditor\src\images\paste_anim_icon.png"
   inkscape:export-xdpi="64.440002"
   inkscape:export-ydpi="64.440002">
  <defs
     id="defs3595">
    <inkscape:perspective
       sodipodi:type="inkscape:persp3d"
       inkscape:vp_x="0 : 372.04724 : 1"
       inkscape:vp_y="0 : 1000 : 0"
       inkscape:vp_z="1052.3622 : 372.04724 : 1"
       inkscape:persp3d-origin="526.18109 : 248.03149 : 1"
       id="perspective3602" />
    <inkscape:perspective
       id="perspective3612"
       inkscape:persp3d-origin="0.5 : 0.33333333 : 1"
       inkscape:vp_z="1 : 0.5 : 1"
       inkscape:vp_y="0 : 1000 : 0"
       inkscape:vp_x="0 : 0.5 : 1"
       sodipodi:type="inkscape:persp3d" />
    <linearGradient
       xlink:href="#linearGradient800"
       y2="85.673454"
       x2="495.94803"
       y1="74.943916"
       x1="482.62952"
       gradientUnits="userSpaceOnUse"
       id="linearGradient5687"
       inkscape:collect="always" />
    <linearGradient
       id="linearGradient800">
      <stop
         id="stop998"
         offset="0"
         style="stop-color:#f3ff49;stop-opacity:1;" />
      <stop
         id="stop999"
         offset="1"
         style="stop-color:#ffa01e;stop-opacity:1;" />
    </linearGradient>
    <linearGradient
       xlink:href="#linearGradient10585"
       y2="78.522537"
       x2="493.33023"
       y1="77.8489"
       x1="491.43066"
       gradientUnits="userSpaceOnUse"
       id="linearGradient5689"
       inkscape:collect="always" />
    <linearGradient
       id="linearGradient10585">
      <stop
         style="stop-color:#d7d7d7;stop-opacity:1.0000000;"
         offset="0.0000000"
         id="stop10587" />
      <stop
         style="stop-color:#000000;stop-opacity:1.0000000;"
         offset="1.0000000"
         id="stop10595" />
    </linearGradient>
    <linearGradient
       xlink:href="#linearGradient5704"
       y2="211.87985"
       x2="15.652736"
       y1="205.44775"
       x1="11.87961"
       gradientTransform="matrix(1.249566,0,0,1.420757,477.3232,-211.4881)"
       gradientUnits="userSpaceOnUse"
       id="linearGradient6224"
       inkscape:collect="always" />
    <linearGradient
       id="linearGradient5704">
      <stop
         style="stop-color:#5a5a5a;stop-opacity:1;"
         offset="0"
         id="stop5706" />
      <stop
         style="stop-color:#000000;stop-opacity:1.0000000;"
         offset="1.0000000"
         id="stop5708" />
    </linearGradient>
    <linearGradient
       xlink:href="#linearGradient5740"
       y2="214.44499"
       x2="16.37369"
       y1="219.0054"
       x1="21.884281"
       gradientTransform="matrix(1.332493,0,0,2.661873,470.7912,-492.2235)"
       gradientUnits="userSpaceOnUse"
       id="linearGradient6226"
       inkscape:collect="always" />
    <linearGradient
       id="linearGradient5740">
      <stop
         id="stop5742"
         offset="0.0000000"
         style="stop-color:#ffffff;stop-opacity:1.0000000;" />
      <stop
         id="stop5744"
         offset="1.0000000"
         style="stop-color:#98b6d3;stop-opacity:1.0000000;" />
    </linearGradient>
    <linearGradient
       xlink:href="#linearGradient5740"
       y2="218.19952"
       x2="17.852816"
       y1="214.66974"
       x1="16.466093"
       gradientTransform="matrix(1.002867,0,0,1.594894,476.8719,-260.6659)"
       gradientUnits="userSpaceOnUse"
       id="linearGradient6228"
       inkscape:collect="always" />
    <linearGradient
       id="linearGradient6711">
      <stop
         id="stop6713"
         offset="0.0000000"
         style="stop-color:#ffffff;stop-opacity:1.0000000;" />
      <stop
         id="stop6715"
         offset="1.0000000"
         style="stop-color:#98b6d3;stop-opacity:1.0000000;" />
    </linearGradient>
    <linearGradient
       y2="214.44499"
       x2="16.37369"
       y1="219.0054"
       x1="21.884281"
       gradientTransform="matrix(1.332493,0,0,2.661873,470.7912,-492.2235)"
       gradientUnits="userSpaceOnUse"
       id="linearGradient6721"
       xlink:href="#linearGradient5740"
       inkscape:collect="always" />
    <linearGradient
       y2="218.19952"
       x2="17.852816"
       y1="214.66974"
       x1="16.466093"
       gradientTransform="matrix(1.002867,0,0,1.594894,476.8719,-260.6659)"
       gradientUnits="userSpaceOnUse"
       id="linearGradient6723"
       xlink:href="#linearGradient5740"
       inkscape:collect="always" />
    <linearGradient
       xlink:href="#linearGradient800-0"
       y2="85.673454"
       x2="495.94803"
       y1="74.943916"
       x1="482.62952"
       gradientUnits="userSpaceOnUse"
       id="linearGradient5687-4"
       inkscape:collect="always" />
    <linearGradient
       id="linearGradient800-0">
      <stop
         id="stop998-9"
         offset="0"
         style="stop-color:#f3ff49;stop-opacity:1;" />
      <stop
         id="stop999-4"
         offset="1"
         style="stop-color:#ffa01e;stop-opacity:1;" />
    </linearGradient>
    <linearGradient
       xlink:href="#linearGradient10585-8"
       y2="78.522537"
       x2="493.33023"
       y1="77.8489"
       x1="491.43066"
       gradientUnits="userSpaceOnUse"
       id="linearGradient5689-8"
       inkscape:collect="always" />
    <linearGradient
       id="linearGradient10585-8">
      <stop
         style="stop-color:#d7d7d7;stop-opacity:1.0000000;"
         offset="0.0000000"
         id="stop10587-2" />
      <stop
         style="stop-color:#000000;stop-opacity:1.0000000;"
         offset="1.0000000"
         id="stop10595-4" />
    </linearGradient>
    <linearGradient
       xlink:href="#linearGradient5704-5"
       y2="211.87985"
       x2="15.652736"
       y1="205.44775"
       x1="11.87961"
       gradientTransform="matrix(1.249566,0,0,1.420757,477.3232,-211.4881)"
       gradientUnits="userSpaceOnUse"
       id="linearGradient6224-5"
       inkscape:collect="always" />
    <linearGradient
       id="linearGradient5704-5">
      <stop
         style="stop-color:#5a5a5a;stop-opacity:1;"
         offset="0"
         id="stop5706-1" />
      <stop
         style="stop-color:#000000;stop-opacity:1.0000000;"
         offset="1.0000000"
         id="stop5708-7" />
    </linearGradient>
    <linearGradient
       xlink:href="#linearGradient5740-1"
       y2="214.44499"
       x2="16.37369"
       y1="219.0054"
       x1="21.884281"
       gradientTransform="matrix(1.332493,0,0,2.661873,470.7912,-492.2235)"
       gradientUnits="userSpaceOnUse"
       id="linearGradient6226-1"
       inkscape:collect="always" />
    <linearGradient
       id="linearGradient5740-1">
      <stop
         id="stop5742-5"
         offset="0.0000000"
         style="stop-color:#ffffff;stop-opacity:1.0000000;" />
      <stop
         id="stop5744-2"
         offset="1.0000000"
         style="stop-color:#98b6d3;stop-opacity:1.0000000;" />
    </linearGradient>
    <linearGradient
       xlink:href="#linearGradient5740-1"
       y2="218.19952"
       x2="17.852816"
       y1="214.66974"
       x1="16.466093"
       gradientTransform="matrix(1.002867,0,0,1.594894,476.8719,-260.6659)"
       gradientUnits="userSpaceOnUse"
       id="linearGradient6228-7"
       inkscape:collect="always" />
    <linearGradient
       id="linearGradient6809">
      <stop
         id="stop6811"
         offset="0.0000000"
         style="stop-color:#ffffff;stop-opacity:1.0000000;" />
      <stop
         id="stop6813"
         offset="1.0000000"
         style="stop-color:#98b6d3;stop-opacity:1.0000000;" />
    </linearGradient>
    <linearGradient
       y2="214.44499"
       x2="16.37369"
       y1="219.0054"
       x1="21.884281"
       gradientTransform="matrix(1.332493,0,0,2.661873,470.7912,-492.2235)"
       gradientUnits="userSpaceOnUse"
       id="linearGradient6819"
       xlink:href="#linearGradient5740-1"
       inkscape:collect="always" />
    <linearGradient
       y2="218.19952"
       x2="17.852816"
       y1="214.66974"
       x1="16.466093"
       gradientTransform="matrix(1.002867,0,0,1.594894,476.8719,-260.6659)"
       gradientUnits="userSpaceOnUse"
       id="linearGradient6821"
       xlink:href="#linearGradient5740-1"
       inkscape:collect="always" />
    <linearGradient
       id="linearGradient800-3">
      <stop
         id="stop998-8"
         offset="0"
         style="stop-color:#f3ff49;stop-opacity:1;" />
      <stop
         id="stop999-7"
         offset="1"
         style="stop-color:#ffa01e;stop-opacity:1;" />
    </linearGradient>
    <linearGradient
       id="linearGradient10585-2">
      <stop
         style="stop-color:#d7d7d7;stop-opacity:1.0000000;"
         offset="0.0000000"
         id="stop10587-7" />
      <stop
         style="stop-color:#000000;stop-opacity:1.0000000;"
         offset="1.0000000"
         id="stop10595-7" />
    </linearGradient>
    <linearGradient
       xlink:href="#linearGradient1887"
       gradientTransform="matrix(1,0,0,0.900774,0,8.915579)"
       gradientUnits="userSpaceOnUse"
       y2="88.232635"
       x2="499.03857"
       y1="83.8125"
       x1="494.3125"
       id="linearGradient5761"
       inkscape:collect="always" />
    <linearGradient
       id="linearGradient1887">
      <stop
         id="stop1888"
         offset="0.0000000"
         style="stop-color:#fffdf8;stop-opacity:1.0000000;" />
      <stop
         id="stop1889"
         offset="1.0000000"
         style="stop-color:#cdccc7;stop-opacity:1.0000000;" />
    </linearGradient>
    <linearGradient
       xlink:href="#linearGradient5704-9"
       gradientUnits="userSpaceOnUse"
       y2="90.935608"
       x2="497.23138"
       y1="83.419342"
       x1="490"
       id="linearGradient5598"
       inkscape:collect="always" />
    <linearGradient
       id="linearGradient5704-9">
      <stop
         style="stop-color:#5a5a5a;stop-opacity:1;"
         offset="0"
         id="stop5706-3" />
      <stop
         style="stop-color:#000000;stop-opacity:1.0000000;"
         offset="1.0000000"
         id="stop5708-1" />
    </linearGradient>
    <linearGradient
       inkscape:collect="always"
       xlink:href="#linearGradient800-3"
       id="linearGradient7020"
       gradientUnits="userSpaceOnUse"
       x1="482.62952"
       y1="74.943916"
       x2="495.94803"
       y2="85.673454" />
    <linearGradient
       inkscape:collect="always"
       xlink:href="#linearGradient10585-2"
       id="linearGradient7022"
       gradientUnits="userSpaceOnUse"
       x1="491.43066"
       y1="77.8489"
       x2="493.33023"
       y2="78.522537" />
    <linearGradient
       inkscape:collect="always"
       xlink:href="#linearGradient800-3"
       id="linearGradient7034"
       gradientUnits="userSpaceOnUse"
       x1="482.62952"
       y1="74.943916"
       x2="495.94803"
       y2="85.673454" />
    <linearGradient
       inkscape:collect="always"
       xlink:href="#linearGradient10585-2"
       id="linearGradient7036"
       gradientUnits="userSpaceOnUse"
       x1="491.43066"
       y1="77.8489"
       x2="493.33023"
       y2="78.522537" />
    <linearGradient
       inkscape:collect="always"
       xlink:href="#linearGradient5740"
       id="linearGradient7039"
       gradientUnits="userSpaceOnUse"
       gradientTransform="matrix(66.776232,0,0,133.39646,-909.59573,-28938.647)"
       x1="21.884281"
       y1="219.0054"
       x2="16.37369"
       y2="214.44499" />
    <linearGradient
       inkscape:collect="always"
       xlink:href="#linearGradient5740"
       id="linearGradient7041"
       gradientUnits="userSpaceOnUse"
       gradientTransform="matrix(50.257434,0,0,79.926132,-604.86901,-17334.426)"
       x1="16.466093"
       y1="214.66974"
       x2="17.852816"
       y2="218.19952" />
    <linearGradient
       inkscape:collect="always"
       xlink:href="#linearGradient5704"
       id="linearGradient7044"
       gradientUnits="userSpaceOnUse"
       gradientTransform="matrix(62.620448,0,0,71.199472,-582.25267,-14869.941)"
       x1="11.87961"
       y1="205.44775"
       x2="15.652736"
       y2="211.87985" />
    <linearGradient
       inkscape:collect="always"
       xlink:href="#linearGradient800-3"
       id="linearGradient7051"
       gradientUnits="userSpaceOnUse"
       x1="482.62952"
       y1="74.943916"
       x2="495.94803"
       y2="85.673454" />
    <linearGradient
       inkscape:collect="always"
       xlink:href="#linearGradient10585-2"
       id="linearGradient7053"
       gradientUnits="userSpaceOnUse"
       x1="491.43066"
       y1="77.8489"
       x2="493.33023"
       y2="78.522537" />
    <linearGradient
       inkscape:collect="always"
       xlink:href="#linearGradient800-3"
       id="linearGradient7071"
       gradientUnits="userSpaceOnUse"
       x1="482.62952"
       y1="74.943916"
       x2="495.94803"
       y2="85.673454" />
    <linearGradient
       inkscape:collect="always"
       xlink:href="#linearGradient10585-2"
       id="linearGradient7073"
       gradientUnits="userSpaceOnUse"
       x1="491.43066"
       y1="77.8489"
       x2="493.33023"
       y2="78.522537" />
    <linearGradient
       inkscape:collect="always"
       xlink:href="#linearGradient800-3"
       id="linearGradient7084"
       gradientUnits="userSpaceOnUse"
       x1="482.62952"
       y1="74.943916"
       x2="495.94803"
       y2="85.673454" />
    <linearGradient
       inkscape:collect="always"
       xlink:href="#linearGradient10585-2"
       id="linearGradient7086"
       gradientUnits="userSpaceOnUse"
       x1="491.43066"
       y1="77.8489"
       x2="493.33023"
       y2="78.522537" />
    <linearGradient
       inkscape:collect="always"
       xlink:href="#linearGradient800-3"
       id="linearGradient7109"
       gradientUnits="userSpaceOnUse"
       x1="482.62952"
       y1="74.943916"
       x2="495.94803"
       y2="85.673454" />
    <linearGradient
       inkscape:collect="always"
       xlink:href="#linearGradient10585-2"
       id="linearGradient7111"
       gradientUnits="userSpaceOnUse"
       x1="491.43066"
       y1="77.8489"
       x2="493.33023"
       y2="78.522537" />
    <linearGradient
       inkscape:collect="always"
       xlink:href="#linearGradient800-3"
       id="linearGradient7127"
       gradientUnits="userSpaceOnUse"
       x1="482.62952"
       y1="74.943916"
       x2="495.94803"
       y2="85.673454" />
    <linearGradient
       inkscape:collect="always"
       xlink:href="#linearGradient10585-2"
       id="linearGradient7129"
       gradientUnits="userSpaceOnUse"
       x1="491.43066"
       y1="77.8489"
       x2="493.33023"
       y2="78.522537" />
    <linearGradient
       inkscape:collect="always"
       xlink:href="#linearGradient800-3"
       id="linearGradient7145"
       gradientUnits="userSpaceOnUse"
       x1="482.62952"
       y1="74.943916"
       x2="495.94803"
       y2="85.673454" />
    <linearGradient
       inkscape:collect="always"
       xlink:href="#linearGradient10585-2"
       id="linearGradient7147"
       gradientUnits="userSpaceOnUse"
       x1="491.43066"
       y1="77.8489"
       x2="493.33023"
       y2="78.522537" />
    <linearGradient
       inkscape:collect="always"
       xlink:href="#linearGradient800-3"
       id="linearGradient7163"
       gradientUnits="userSpaceOnUse"
       x1="482.62952"
       y1="74.943916"
       x2="495.94803"
       y2="85.673454" />
    <linearGradient
       inkscape:collect="always"
       xlink:href="#linearGradient10585-2"
       id="linearGradient7165"
       gradientUnits="userSpaceOnUse"
       x1="491.43066"
       y1="77.8489"
       x2="493.33023"
       y2="78.522537" />
    <linearGradient
       inkscape:collect="always"
       xlink:href="#linearGradient800-3"
       id="linearGradient7290"
       gradientUnits="userSpaceOnUse"
       x1="482.62952"
       y1="74.943916"
       x2="495.94803"
       y2="85.673454" />
    <linearGradient
       inkscape:collect="always"
       xlink:href="#linearGradient10585-2"
       id="linearGradient7292"
       gradientUnits="userSpaceOnUse"
       x1="491.43066"
       y1="77.8489"
       x2="493.33023"
       y2="78.522537" />
  </defs>
  <sodipodi:namedview
     inkscape:document-units="mm"
     pagecolor="#ffffff"
     bordercolor="#666666"
     borderopacity="1.0"
     inkscape:pageopacity="0.0"
     inkscape:pageshadow="2"
     inkscape:zoom="16"
     inkscape:cx="2.242998"
     inkscape:cy="8.3269008"
     inkscape:current-layer="layer1"
     id="namedview3597"
     showgrid="false"
     inkscape:window-width="1192"
     inkscape:window-height="912"
     inkscape:window-x="86"
     inkscape:window-y="106"
     inkscape:window-maximized="0"
     fit-margin-top="0"
     fit-margin-left="0"
     fit-margin-right="0"
     fit-margin-bottom="0" />
  <metadata
     id="metadata3599">
    <rdf:RDF>
      <cc:Work
         rdf:about="">
        <dc:format>image/svg+xml</dc:format>
        <dc:type
           rdf:resource="http://purl.org/dc/dcmitype/StillImage" />
        <dc:title></dc:title>
      </cc:Work>
    </rdf:RDF>
  </metadata>
  <g
     inkscape:label="Layer 1"
     inkscape:groupmode="layer"
     id="layer1"
     transform="translate(-353.09673,-146.0698)">
    <g
       id="g7281">
      <g
         transform="matrix(37.113724,0,0,37.113724,-12881.327,-5995.724)"
         id="g7155">
        <g
           transform="matrix(0.04040155,0,0,0.04040155,336.99635,162.45567)"
           id="use6217">
          <rect
             rx="0.88388348"
             ry="0.88388348"
             style="color:#000000;fill:url(#linearGradient7290);fill-opacity:1;fill-rule:evenodd;stroke:#000000;stroke-width:1;stroke-linecap:square;stroke-linejoin:round;stroke-miterlimit:4;stroke-opacity:1;stroke-dasharray:none;stroke-dashoffset:0;marker:none;display:inline"
             id="rect7026"
             width="12"
             height="13.99545"
             x="485.5"
             y="76.504547" />
          <path
             inkscape:connector-curvature="0"
             id="path7028"
             d="m 486.4517,89.43563 0,-12 10,0"
             style="fill:none;stroke:#e6bc00;stroke-width:1px;stroke-linecap:square;stroke-linejoin:miter;stroke-opacity:1" />
          <path
             inkscape:connector-curvature="0"
             sodipodi:nodetypes="csssc"
             id="path7030"
             d="m 495,79 c 0,1.10678 -1.6161,0.5 -3,0.5 -1.3839,0 -3,0.60678 -3,-0.5 0,-1.10678 1.6131,-3.51004 2.997,-3.51004 1.3838,0 3.003,2.40326 3.003,3.51004 z"
             style="color:#000000;fill:url(#linearGradient7292);fill-opacity:1;fill-rule:evenodd;stroke:#000000;stroke-width:0.9999994;stroke-linecap:square;stroke-linejoin:miter;stroke-miterlimit:4;stroke-opacity:1;stroke-dashoffset:0;marker:none;display:inline" />
          <path
             inkscape:connector-curvature="0"
             id="path7032"
             d="m 494.0715,77.5 -2.1429,0"
             style="fill:none;stroke:#000000;stroke-width:1.00000012px;stroke-linecap:round;stroke-linejoin:miter;stroke-opacity:1" />
        </g>
        <path
           inkscape:connector-curvature="0"
           sodipodi:nodetypes="ccccsscccccccssccccccccccsscccccccccccccscccccccccccscccccssssssccccccccccssccccccccccccscccscccsscccccccccsccccccsscccccccccccccccssscccccccccccccccsssscccccccccccccccccccccccccccccccccccccccccccccccccc"
           d="m 357.04972,166.20382 -0.005,8.9e-4 -0.006,-0.003 -0.006,-0.003 -0.004,-0.005 c -0.002,-0.003 -0.005,-0.008 -0.007,-0.0124 -0.002,-0.004 -0.006,-0.0155 -0.01,-0.0259 -0.004,-0.0104 -0.0109,-0.0308 -0.0159,-0.0454 l -0.009,-0.0265 -0.005,-0.0176 -0.005,-0.0176 0,-0.006 0,-0.006 0.001,-0.003 c 8.9e-4,-0.002 0.008,-0.009 0.0156,-0.0175 0.008,-0.008 0.0231,-0.0244 0.034,-0.0364 0.011,-0.012 0.0252,-0.0275 0.0315,-0.0345 l 0.0116,-0.0126 0,-0.001 0,-0.001 -0.005,-8.9e-4 -0.005,-9e-4 -0.0275,0.001 c -0.0152,8.9e-4 -0.0428,0.002 -0.0613,0.003 l -0.0337,0.002 -10e-4,0.002 c -8.9e-4,9e-4 -0.005,0.011 -0.0102,0.0223 -0.005,0.0113 -0.0117,0.0286 -0.0154,0.0385 -0.004,0.01 -0.0109,0.0273 -0.016,0.0388 l -0.009,0.0209 -0.004,0.005 -0.004,0.005 -0.006,0.003 -0.006,0.003 -0.007,0 -0.007,0 -0.005,-0.002 -0.005,-0.002 -0.006,-0.006 -0.006,-0.006 -0.0162,-0.0239 c -0.009,-0.0131 -0.0232,-0.0341 -0.0316,-0.0465 -0.008,-0.0125 -0.0166,-0.0251 -0.0181,-0.0282 l -0.003,-0.006 0,-0.005 0,-0.005 0.003,-0.006 0.003,-0.006 0.007,-0.004 0.007,-0.004 0.007,9e-4 0.007,8.9e-4 0.005,0.004 c 0.003,0.002 0.006,0.005 0.008,0.007 0.002,0.002 0.0123,0.0163 0.0237,0.0322 l 0.0207,0.0289 0.002,0 0.002,0 0.009,-0.0216 c 0.005,-0.0119 0.0126,-0.0308 0.0173,-0.0422 0.005,-0.0113 0.0144,-0.0349 0.0215,-0.0525 0.007,-0.0175 0.0158,-0.0387 0.0192,-0.0471 0.004,-0.008 0.0115,-0.0281 0.0179,-0.0438 0.006,-0.0157 0.0161,-0.0393 0.0215,-0.0524 0.005,-0.0132 0.0126,-0.0305 0.0159,-0.0385 0.003,-0.008 0.008,-0.0179 0.01,-0.0219 l 0.004,-0.007 0.006,-0.006 0.006,-0.006 0.004,-0.001 c 0.002,-8.9e-4 0.006,-0.001 0.008,-0.001 l 0.004,0 0.006,0.003 0.006,0.003 0.0125,0.0122 c 0.007,0.007 0.0193,0.0197 0.0277,0.0288 0.008,0.009 0.021,0.0231 0.0281,0.0311 0.007,0.008 0.0154,0.0181 0.0185,0.0226 l 0.006,0.008 3e-5,0.009 3e-5,0.009 -0.003,0.004 c -0.001,0.002 -0.005,0.006 -0.008,0.008 l -0.006,0.004 -0.005,0 -0.005,0 -0.004,-0.002 -0.004,-0.002 -0.008,-0.008 c -0.005,-0.005 -0.0161,-0.0172 -0.0256,-0.0281 -0.009,-0.0109 -0.0198,-0.0226 -0.0229,-0.0259 l -0.006,-0.006 -0.002,0.002 c -9e-4,10e-4 -0.008,0.019 -0.0166,0.0394 -0.008,0.0204 -0.0148,0.0381 -0.0148,0.0392 l 0,0.002 0.003,9e-4 c 0.002,4.2e-4 0.018,0.003 0.0362,0.005 0.0183,0.003 0.0413,0.006 0.0511,0.007 0.01,0.001 0.0309,0.004 0.0468,0.006 l 0.0289,0.004 0.007,0.003 0.007,0.003 0.007,0.006 0.007,0.006 0.004,0.009 0.004,0.009 8.9e-4,0.007 c 4.5e-4,0.004 9e-4,0.01 4.5e-4,0.0126 -2.8e-4,0.003 -0.002,0.0137 -0.005,0.0239 l -0.005,0.0186 -0.0125,0.0382 c -0.007,0.021 -0.0125,0.0388 -0.0125,0.0395 l 0,0.001 10e-4,0 c 9e-4,0 0.008,-0.006 0.0169,-0.0122 0.009,-0.007 0.0232,-0.0188 0.0327,-0.027 0.009,-0.008 0.0218,-0.0179 0.0274,-0.0218 l 0.0102,-0.007 0.006,-0.002 0.006,-0.002 0.005,8.9e-4 0.005,9e-4 0.006,0.005 0.006,0.005 0.002,0.004 0.002,0.004 -1.4e-4,0.004 -1.4e-4,0.004 -0.003,0.005 -0.003,0.005 -0.008,0.008 c -0.005,0.004 -0.0135,0.0119 -0.0197,0.0165 -0.006,0.005 -0.022,0.0177 -0.0351,0.0291 -0.0131,0.0114 -0.0283,0.0246 -0.0338,0.0294 -0.006,0.005 -0.0179,0.0153 -0.0275,0.0233 l -0.0175,0.0146 -0.008,0.004 -0.008,0.004 -0.006,0 -0.006,0 -0.005,-0.004 c -0.003,-0.002 -0.007,-0.006 -0.008,-0.008 l -0.003,-0.004 9e-4,-0.0206 8.9e-4,-0.0206 0.003,-0.0295 c 0.002,-0.0162 0.003,-0.0305 0.003,-0.0316 l 0,-0.002 -0.002,4.2e-4 c -9e-4,2.8e-4 -0.0167,0.0161 -0.0352,0.0352 -0.0184,0.0191 -0.0335,0.035 -0.0335,0.0353 0,2.8e-4 0.003,0.0119 0.007,0.0256 0.004,0.0138 0.0118,0.0379 0.0171,0.0536 0.005,0.0157 0.0105,0.0314 0.0114,0.035 l 0.002,0.006 -10e-4,0.005 -0.001,0.005 -0.005,0.006 -0.005,0.006 -0.004,0.002 c -0.002,0.001 -0.007,0.002 -0.009,0.003 l 0,0 z m -0.20407,-0.3008 c -4.5e-4,-8e-5 -0.004,-9e-4 -0.007,-0.001 -0.004,-8.9e-4 -0.01,-0.003 -0.0137,-0.004 l -0.007,-0.003 -0.008,-0.008 -0.008,-0.008 -0.004,-0.007 -0.004,-0.007 -10e-4,-0.0101 -0.001,-0.0101 8.9e-4,-0.005 c 4.2e-4,-0.003 0.002,-0.009 0.004,-0.0134 l 0.003,-0.008 0.006,-0.007 0.006,-0.007 0.007,-0.005 0.007,-0.005 0.007,-0.002 0.007,-0.002 0.008,0 0.008,0 0.009,0.003 0.009,0.003 0.008,0.006 0.008,0.006 0.004,0.005 c 0.002,0.003 0.005,0.008 0.007,0.0114 l 0.004,0.007 0.002,0.009 0.001,0.009 -0.002,0.009 -0.002,0.009 -0.004,0.008 -0.004,0.008 -0.007,0.007 -0.007,0.007 -0.008,0.004 -0.008,0.004 -0.01,0.001 c -0.005,8.9e-4 -0.01,10e-4 -0.0106,10e-4 z"
           style="fill:#000000;stroke:#fffb00;stroke-width:0.01;stroke-miterlimit:4;stroke-opacity:1;stroke-dasharray:none"
           id="path9" />
      </g>
    </g>
  </g>
</svg>
