/* XPM */
static char *paste_anim_icon[] = {
/* columns rows colors chars-per-pixel */
"20 20 202 2",
"   c black",
".  c #010100",
"X  c #010101",
"o  c #030301",
"O  c #040301",
"+  c #050501",
"@  c #060401",
"#  c #060501",
"$  c #060600",
"%  c #060601",
"&  c #070700",
"*  c gray2",
"=  c #070704",
"-  c #090601",
";  c #090602",
":  c #090702",
">  c #0A0501",
",  c #0A0601",
"<  c #0A0702",
"1  c #090902",
"2  c #0B0802",
"3  c #0B0902",
"4  c #0A0A00",
"5  c #0C0C00",
"6  c #0D0D00",
"7  c gray3",
"8  c #090808",
"9  c gray4",
"0  c #0B0B0B",
"q  c #110E06",
"w  c #121001",
"e  c #121200",
"r  c #141400",
"t  c #161600",
"y  c #131209",
"u  c #191800",
"i  c #1A1901",
"p  c #1D1D00",
"a  c gray12",
"s  c #211E16",
"d  c #242200",
"f  c #252201",
"g  c #282401",
"h  c #282501",
"j  c #2A2601",
"k  c #2A2900",
"l  c #2E2902",
"z  c #302A02",
"x  c #302D01",
"c  c #342F01",
"v  c #363202",
"b  c #393502",
"n  c #3D3502",
"m  c #3C3B00",
"M  c #282828",
"N  c gray19",
"B  c #433C03",
"V  c #473E03",
"C  c #403E36",
"Z  c #494203",
"A  c #494501",
"S  c #484600",
"D  c #4E4303",
"F  c #4C4B00",
"G  c #4E4B00",
"H  c #534804",
"J  c #504D00",
"K  c #574F04",
"L  c #5B4B00",
"P  c #525000",
"I  c #5C5204",
"U  c #5F5D00",
"Y  c #42413B",
"T  c #645A05",
"R  c #616000",
"E  c #686600",
"W  c #716106",
"Q  c #756003",
"!  c #766704",
"~  c #776A07",
"^  c #7B7104",
"/  c #787600",
"(  c #7D7A00",
")  c #7D7B00",
"_  c #7F7D00",
"`  c #52514B",
"'  c gray33",
"]  c #7B7B7B",
"[  c #836C07",
"{  c #806908",
"}  c #896F08",
"|  c #8B6818",
" . c #857408",
".. c #807E00",
"X. c #8F7308",
"o. c #8B7A0C",
"O. c #8F7B0A",
"+. c #8A711C",
"@. c #957C0B",
"#. c #9F7A1D",
"$. c #9E7E1E",
"%. c #B47B12",
"&. c #888600",
"*. c #888700",
"=. c #898700",
"-. c #938208",
";. c #9B840D",
":. c #949200",
">. c #959300",
",. c #A3890E",
"<. c #AB870E",
"1. c #AD890D",
"2. c #AB9E06",
"3. c #B48B0F",
"4. c #BC8E0F",
"5. c #BD960F",
"6. c #B89B11",
"7. c #AF8A20",
"8. c #B09325",
"9. c #AFAD00",
"0. c #B7B300",
"q. c #BAB500",
"w. c #B9B900",
"e. c #BEBB00",
"r. c #C38F10",
"t. c #C69214",
"y. c #C19C12",
"u. c #D78719",
"i. c #D6901E",
"p. c #D5941F",
"a. c #D59721",
"s. c #D59C21",
"d. c #C7A415",
"f. c #CCAB1A",
"g. c #DAAF07",
"h. c #D3AC1A",
"j. c #DCA11F",
"k. c #D8AE1C",
"l. c #DAB006",
"z. c #DFB116",
"x. c #DDA220",
"c. c #D3B82F",
"v. c #E4A015",
"b. c #EAA117",
"n. c #EAAF1A",
"m. c #EFA818",
"M. c #E3BB03",
"N. c #E6BC01",
"B. c #E6BD01",
"V. c #E6BD02",
"C. c #EAB71E",
"Z. c #ECBA1C",
"A. c #FFA01E",
"S. c #FFA11E",
"D. c #FFA21F",
"F. c #FDAA1E",
"G. c #F1B11E",
"H. c #EDB124",
"J. c #FDB326",
"K. c #FCB727",
"L. c #FCB728",
"P. c #FAB824",
"I. c #FABB26",
"U. c #F9BE28",
"Y. c #FBBD2B",
"T. c #FCBA2A",
"R. c #D7D200",
"E. c #D7D700",
"W. c #DBDB00",
"Q. c #EED032",
"!. c #F9C129",
"~. c #FBC129",
"^. c #FBC02C",
"/. c #FBC12D",
"(. c #FBC32E",
"). c #F8C42B",
"_. c #F8C628",
"`. c #F8C72B",
"'. c #FAC42E",
"]. c #FAC52F",
"[. c #FAC62F",
"{. c #F8CA2D",
"}. c #F8CD2E",
"|. c #FAC730",
" X c #FAC931",
".X c #FACA31",
"XX c #F9CD32",
"oX c #F9CE33",
"OX c #F7D331",
"+X c #F7D633",
"@X c #F4D930",
"#X c #F6D934",
"$X c #F8D030",
"%X c #F9D134",
"&X c #F8D436",
"*X c yellow",
"=X c #A9A9A9",
"-X c gray67",
";X c gray83",
":X c #D7D7D7",
">X c gray100",
",X c None",
/* pixels */
",X,X,X,X,Xo 9 = 7 o ,X,X,X,X,X,X,X,X,X,X",
"1 : # # # 9 ' =XN o O O : : ,X,X,X,X,X,X",
"o M.N.N.Q Y ;Xa 9 o L N.g.: ,X,X,X,X,X,X",
"o N.@XQ.y =X;X] M o : H.j.O ,X,X,X,X,X,X",
"o N.#Xc.= ` C s q : l ;.p.: ,X,X,X,X,X,X",
"o N.+X&X8.+.$.7.#.| ~ o  .r ,X,X,X,X,X,X",
"o N.OXOXXX X]./.Y.C.u -.h P *X,X,X,X,X,X",
"o M.$XXX X]._.!.T.,.u n.5.p 9.,X,X,X,X,X",
"o N.$X X].f.v T Z.Z B <.3./ R.*X,X,X,X,X",
"o N.{.|./.o.o o 2.o o o o o r T W.,X,X,X",
"o M.`././.h.P I ^ o o o o o o # e.,X,X,X",
"o N._./.k.6.P.n.1 W ~ } ! o o m *X0.w.,X",
"o N.U.Y.d.6 y.@.H F.S.v.b 1 o E :.d _ ,X",
"o M.U.T.K.O.l h 1.S.b.D l / o ( e _ E.,X",
"o N.I.K.J.G.V f m.S.[ h r.S o e &.*X,X,X",
"o g.s.a.p.i.t.4.u.u.X.c %.G h :.,X,X,X,X",
": : : : : : : > > > Z # F b q.,X,X,X,X,X",
",X,X,X,X,X,X,X,X,X,X*XF T ,X,X,X,X,X,X,X",
",X,X,X,X,X,X,X,X,X,X,X&.&.,X,X,X,X,X,X,X",
",X,X,X,X,X,X,X,X,X,X,X,X,X,X,X,X,X,X,X,X"
};
