/* XPM */
static char *rect5560-7[] = {
/* columns rows colors chars-per-pixel */
"20 8 43 1",
"  c black",
". c #010000",
"X c #040404",
"o c #0E0707",
"O c #0F0808",
"+ c #0E0E0E",
"@ c #100808",
"# c #1F0F0F",
"$ c gray8",
"% c #181818",
"& c #1C1B1B",
"* c #1E1E1E",
"= c gray12",
"- c #211010",
"; c #211212",
": c #221C1C",
"> c #232222",
", c #262020",
"< c #272020",
"1 c #292323",
"2 c #2E2020",
"3 c #2F2222",
"4 c #2C2727",
"5 c #312525",
"6 c #332929",
"7 c #362C2C",
"8 c #585858",
"9 c #5B5B5B",
"0 c gray36",
"q c #5D5D5D",
"w c #5F5F5F",
"e c gray38",
"r c gray40",
"t c #6A6A6A",
"y c #6D6D6D",
"u c gray43",
"i c #6F6F6F",
"p c gray93",
"a c gray96",
"s c gray97",
"d c #F8F8F8",
"f c gray98",
"g c gray100",
/* pixels */
"&>>>>>>>>>>>>>>>>477",
" X+%*************175",
"99qqertuuuuuuuu**>55",
"pafgggggggggggf>>>22",
"pafgggggggggggf$%:22",
"89qweqwwqwwwqqqXXO#-",
"                 o--",
"                 @--"
};
