/* XPM */
static char *rect5540[] = {
/* columns rows colors chars-per-pixel */
"20 16 81 1",
"  c black",
". c #030202",
"X c #040202",
"o c #080404",
"O c #090404",
"+ c #0A0505",
"@ c #0B0505",
"# c gray3",
"$ c #0C0C0C",
"% c #100808",
"& c #120909",
"* c #140A0A",
"= c #180C0C",
"- c #1A0D0D",
"; c #1B0D0D",
": c #1E0F0F",
"> c gray7",
", c gray11",
"< c #1E1E1E",
"1 c #211010",
"2 c #3B1D1D",
"3 c #3C1E1E",
"4 c #202020",
"5 c #3E2020",
"6 c #373737",
"7 c #3F3737",
"8 c gray22",
"9 c #3F3939",
"0 c #3E3E3E",
"q c #442727",
"w c #482D2D",
"e c #413939",
"r c #413C3C",
"t c #4D3232",
"y c #4B3C3C",
"u c #543939",
"i c #573D3D",
"p c #464646",
"a c #4D4646",
"s c gray29",
"d c #564646",
"f c #554D4D",
"g c #594040",
"h c #5A4040",
"j c #5E4545",
"k c #5F4747",
"l c #5C5555",
"z c #625C5C",
"x c #6B5454",
"c c #695B5B",
"v c #6E5E5E",
"b c #715B5B",
"n c #646464",
"m c #6A6363",
"M c #6C6C6C",
"N c #776262",
"B c #7C6868",
"V c #717171",
"C c gray45",
"Z c #747474",
"A c #7B7B7B",
"S c gray49",
"D c #826F6F",
"F c #887676",
"G c #8E7D7D",
"H c #938383",
"J c #948484",
"K c #9A8A8A",
"L c #9B8B8B",
"P c #9D8E8E",
"I c #9F9090",
"U c #A0A0A0",
"Y c #A7A7A7",
"T c gray66",
"R c #AAAAAA",
"E c gray67",
"W c #ACACAC",
"Q c gray68",
"! c #AFAFAF",
"~ c #BCBCBC",
"^ c gray100",
/* pixels */
"AAAALPILLLLLLLLLLLLL",
"C!!CHHHHHHHHHHHHJJHH",
"MEEMGGGGGGGGGGGGGGGG",
"nnnnFFFFFFFFFFFFFFFF",
"DmmDDDDDDDDDDDDDDDDD",
"BzzBBBBBBBBBBBBBBBBB",
"NllNNNNNNvcccccccccc",
"bffbbbbbbfpppppppppp",
"xa00000000Z^^^^^^^~0",
"jr9ddddddrsAAAAAAAn6",
"2**5wujkjy7777779999",
"2**2335qtigggggggggg",
"=OO======*#>,4441444",
"=O OOOOOO 8UYTEW!!S4",
";*OOOOOOOX8UYYYYYYC$",
"1=;111111O          "
};
