/* XPM */
static char *rect12028[] = {
/* columns rows colors chars-per-pixel */
"20 3 5 1",
"  c #607EA9",
". c #627FAA",
"X c #8CA1C1",
"o c #B5C3D7",
"O c #B6C4D7",
/* pixels */
"..                 .",
"XXXXXXXXXXXXXXXXXXXX",
"oooooooooooooooooooo"
};
