/* XPM */
static char *rect6632[] = {
/* columns rows colors chars-per-pixel */
"20 7 79 1",
"  c #92AFCB",
". c #98B6D3",
"X c #99B7D3",
"o c #9AB8D4",
"O c #9EB8D3",
"+ c #9CB9D5",
"@ c #9EBAD5",
"# c #9FBBD6",
"$ c #A1BDD7",
"% c #A5BFD8",
"& c #A8C1DA",
"* c #ABC4DB",
"= c #ACC4DB",
"- c #AFC6DD",
"; c #B2C9DE",
": c #B5C8DB",
"> c #B6CBE0",
", c #B9CDE1",
"< c #B9CEE2",
"1 c #BBCFE2",
"2 c #BCCFE2",
"3 c #BDD0E2",
"4 c #BDD0E3",
"5 c #BED1E3",
"6 c #BFD1E3",
"7 c #BFD2E4",
"8 c #C0D2E4",
"9 c #C0D3E4",
"0 c #C1D3E5",
"q c #C2D4E5",
"w c #C3D5E6",
"e c #C4D5E6",
"r c #C5D6E6",
"t c #C6D7E7",
"y c #C7D7E7",
"u c #C7D8E7",
"i c #C8D8E8",
"p c #C9D8E8",
"a c #CAD9E8",
"s c #CADAE9",
"d c #CBDAE9",
"f c #CBDBE9",
"g c #CCDBE9",
"h c #CDDCE9",
"j c #CEDCEA",
"k c #CEDDEA",
"l c #CFDDEA",
"z c #CFDDEB",
"x c #D1DFEB",
"c c #D2DFEC",
"v c #D3E0EC",
"b c #D4E1ED",
"n c #D5E1ED",
"m c #D6E2EE",
"M c #D7E3EE",
"N c #D8E4EE",
"B c #D9E4EF",
"V c #DAE5EF",
"C c #DBE5EF",
"Z c #DCE6F0",
"A c #DDE7F0",
"S c #DDE7F1",
"D c #DFE8F1",
"F c #E1EAF2",
"G c #E3EBF3",
"H c #E4ECF4",
"J c #E6EDF4",
"K c #E7EEF5",
"L c #E8EEF5",
"P c #E9F0F6",
"I c #EBF1F6",
"U c #EBF1F7",
"Y c #EDF2F7",
"T c #EEF3F8",
"R c #F0F4F8",
"E c #F2F6F9",
"W c #F5F8FB",
"Q c #F9FAFB",
"! c #F9FBFC",
/* pixels */
"Q!WETPLHGSZbbjjauq6:",
"YPJGDZVbxjaee86<>;-*",
"SV8<2668qqeuaaajje#+",
"ja<<68eajxbZDGJPTD..",
"6<288qeeuuafjvbmVa..",
"-=&%$+oX............",
"O+XXXXXX........... "
};
