/* XPM */
static char *rect3610[] = {
/* columns rows colors chars-per-pixel */
"20 20 184 2",
"   c black",
".  c #010101",
"X  c gray1",
"o  c #080706",
"O  c #090907",
"+  c #090909",
"@  c gray4",
"#  c #0E0E0B",
"$  c #11100C",
"%  c #11110C",
"&  c #11110D",
"*  c #10100F",
"=  c #12110E",
"-  c #13130F",
";  c #111111",
":  c #131212",
">  c #151510",
",  c #161511",
"<  c #171612",
"1  c #171712",
"2  c gray8",
"3  c #151515",
"4  c #181712",
"5  c #181813",
"6  c #1B1B1A",
"7  c #1B1B1B",
"8  c gray11",
"9  c gray12",
"0  c #22211B",
"q  c #212120",
"w  c gray15",
"e  c #2D2C26",
"r  c #282828",
"t  c gray18",
"y  c #2F2F2F",
"u  c #343325",
"i  c #353428",
"p  c #37352E",
"a  c #38372D",
"s  c gray19",
"d  c #313131",
"f  c gray20",
"g  c #343434",
"h  c #373737",
"j  c #393939",
"k  c #3F3F39",
"l  c #42423C",
"z  c #56543D",
"x  c gray26",
"c  c #444443",
"v  c gray27",
"b  c #52524F",
"n  c #5D5D5D",
"m  c #676244",
"M  c #626157",
"N  c #616058",
"B  c #726F5B",
"V  c #76704A",
"C  c #787352",
"Z  c #7F7C5E",
"A  c #7D7C72",
"S  c #807B57",
"D  c #827D63",
"F  c #837F65",
"G  c #898259",
"H  c #90895C",
"J  c #8C8765",
"K  c #8A866A",
"L  c #88846C",
"P  c #8C8861",
"I  c #8F8961",
"U  c #8E8A6C",
"Y  c #8B8871",
"T  c #9E9560",
"R  c #A8A279",
"E  c #C1B87E",
"W  c #FEEA74",
"Q  c #FFEB74",
"!  c #FFEB77",
"~  c #FFEC78",
"^  c #808080",
"/  c #9A9A9A",
"(  c #A5A38D",
")  c #AEAA8A",
"_  c #BFB886",
"`  c #A4A3A1",
"'  c #C1B989",
"]  c #CDC280",
"[  c #D5D2BB",
"{  c #D9D7B9",
"}  c #E7DD9F",
"|  c #E8DE9F",
" . c #E9DE9E",
".. c #E1DBB0",
"X. c #EEE08E",
"o. c #EEE59F",
"O. c #FFED81",
"+. c #FFED83",
"@. c #FFED84",
"#. c #FFEE85",
"$. c #FFEE88",
"%. c #FDEE8F",
"&. c #FFEE8C",
"*. c #FFEF8D",
"=. c #FFEF8E",
"-. c #FFEF90",
";. c #FFEF93",
":. c #FFF193",
">. c #FFF094",
",. c #FFF096",
"<. c #FFF097",
"1. c #FFF196",
"2. c #FFF098",
"3. c #FFF099",
"4. c #FFF199",
"5. c #FFF19B",
"6. c #FFF19D",
"7. c #FFF19E",
"8. c #FFF19F",
"9. c #E9E3BB",
"0. c #F5EBAF",
"q. c #FFF2A2",
"w. c #FFF2A3",
"e. c #FFF3A2",
"r. c #FFF2A4",
"t. c #FFF2A5",
"y. c #FFF3AA",
"u. c #FFF3AB",
"i. c #FFF3AC",
"p. c #FFF3AE",
"a. c #FDF3B5",
"s. c #FFF4B0",
"d. c #FFF4B2",
"f. c #FFF4B3",
"g. c #FFF4B4",
"h. c #FFF4B5",
"j. c #FFF5B5",
"k. c #FFF5B9",
"l. c #FFF5BA",
"z. c #FFF5BB",
"x. c #FFF5BC",
"c. c #FFF6BF",
"v. c #CFCCC1",
"b. c #D0D0CE",
"n. c #D8D6C6",
"m. c #ECE9D0",
"M. c #F4F0CE",
"N. c #F9F2C1",
"B. c #FFF6C0",
"V. c #FFF6C1",
"C. c #FFF7C1",
"Z. c #FFF6C2",
"A. c #FFF6C4",
"S. c #FFF7C8",
"D. c #FFF7C9",
"F. c #FFF7CA",
"G. c #FFF7CC",
"H. c #FFF8CD",
"J. c #FFF9CE",
"K. c #F9F6DF",
"L. c #FDF9D3",
"P. c #FFF8D0",
"I. c #FFF8D1",
"U. c #FFF9D1",
"Y. c #FFF8D2",
"T. c #FFF9D4",
"R. c #FFF9D5",
"E. c #FFF9D8",
"W. c #FFFAD8",
"Q. c #FFFBDC",
"!. c #FFFADE",
"~. c #FFFBDE",
"^. c #EFEFEC",
"/. c #F5F4E8",
"(. c #F9F7E0",
"). c #FFFBE5",
"_. c #FBF9E9",
"`. c #FFFBEA",
"'. c #FFFCEB",
"]. c #FFFDF3",
"[. c #FDFCF4",
"{. c #FFFEF4",
"}. c #FEFDF9",
"|. c None",
/* pixels */
"|.|.|.|.|.|.|.|.|.|.|.|.|.|.|.|.|.|.|.|.",
"|.|.|.|.|.  y r 9 |.|.|.|.|.|.|.|.|.|.|.",
"|.|.|.|.h y n ` 9 3 |.|.|.|.|.|.|.|.|.|.",
"|.|.|.g d / {.).n.7 + |.|.|.|.|.|.|.|.|.",
"|.|.d d b.'.E.Y.H.M.p     b x |.|.|.|.|.",
"d d v ^.~.Y.S.B.k.h.B.D q v j |.|.|.|.|.",
"y j }.Y.S.B.k.d.i.r.8. .A m.l |.|.|.|.|.",
"y w {.B.k.d.i.r.8.2.%.B (.~.k 7 |.|.|.|.",
"|.8 v.k.u.' K K J I C [ E.Y.Y ; |.|.|.|.",
"|.3 N B.2.] M /.{._.(.~.A.B...0 #   |.|.",
"|.+ : G.%.@.T ( `.T.S.B.h.u.h.a.} I 5 5 ",
"|.|.  9.+.Q W m { T.k.i.w.2.%.+.>.w.Z % ",
"|.|.  F p.w.8.X.a Y.p.8.;.$.@.w.o.u ;   ",
"|.|.    % % % % e H.2.%.+.~ 2._ 3   |.|.",
"|.|.|.        * ) d.;.8.;.Q :.S   |.|.|.",
"|.|.|.|.|.|.|.1 N.x.0.R  .>.%.G   |.|.|.",
"|.|.|.|.|.|.  > U i 5   > ' ;.H   |.|.|.",
"|.|.|.|.|.|.  >     |.|.  - V b . |.|.|.",
"|.|.|.|.|.|.|.|.|.|.|.|.|.|.o o . |.|.|.",
"|.|.|.|.|.|.|.|.|.|.|.|.|.|.|.. |.|.|.|."
};
