/* XPM */
static char *rect12908[] = {
/* columns rows colors chars-per-pixel */
"20 20 157 2",
"   c #090404",
".  c #0A0505",
"X  c #0B0909",
"o  c #100808",
"O  c #120909",
"+  c #120F0F",
"@  c #140A0A",
"#  c #150A0A",
"$  c #170F0F",
"%  c #190C0C",
"&  c #1B0F0F",
"*  c #1C0D0D",
"=  c #1C0E0E",
"-  c #1D0E0E",
";  c #1E0F0F",
":  c #1F0F0F",
">  c #1B1414",
",  c #1F1010",
"<  c #1F1111",
"1  c #1C1414",
"2  c gray11",
"3  c #211010",
"4  c #201313",
"5  c #211212",
"6  c #211313",
"7  c #221111",
"8  c #231111",
"9  c #221212",
"0  c #221313",
"q  c #251212",
"w  c #271313",
"e  c #251717",
"r  c #261818",
"t  c #271818",
"y  c #271919",
"u  c #2C1616",
"i  c #321818",
"p  c #3B1D1D",
"a  c #3D1F1F",
"s  c gray13",
"d  c #2A2929",
"f  c #332929",
"g  c #302F2F",
"h  c #342929",
"j  c #362D2D",
"k  c #343333",
"l  c #3C3C3C",
"z  c #462A2A",
"x  c #453737",
"c  c #503636",
"v  c #543A3A",
"b  c #543E3E",
"n  c #553E3E",
"m  c #563C3C",
"M  c #474343",
"N  c #4B4A4A",
"B  c #4F4C4C",
"V  c #544444",
"C  c #554545",
"Z  c #554646",
"A  c #514949",
"S  c #554B4B",
"D  c #574C4C",
"F  c #5B4242",
"G  c #5C5555",
"H  c #604848",
"J  c #654D4D",
"K  c #605151",
"L  c #6E5757",
"P  c #695B5B",
"I  c #6E5E5E",
"U  c #715F5F",
"Y  c #636161",
"T  c #676060",
"R  c #696868",
"E  c #6E6C6C",
"W  c #776262",
"Q  c #7A6A6A",
"!  c #717070",
"~  c #7B7373",
"^  c #7D7C7C",
"/  c #806D6D",
"(  c #897777",
")  c #8A7878",
"_  c #888181",
"`  c #898888",
"'  c #898989",
"]  c #938383",
"[  c #9D8E8E",
"{  c #9A9999",
"}  c #A09292",
"|  c #A69898",
" . c #A7A7A7",
".. c #AFA3A3",
"X. c gray66",
"o. c #AFAFAF",
"O. c #B6AAAA",
"+. c #B6ABAB",
"@. c #B8AEAE",
"#. c #B9AEAE",
"$. c #BCB1B1",
"%. c #BCB3B3",
"&. c #BDB3B3",
"*. c #BEB4B4",
"=. c #BFB5B5",
"-. c #C0B6B6",
";. c #C2B8B8",
":. c #C2B9B9",
">. c #C3BABA",
",. c #C4BBBB",
"<. c #C5BCBC",
"1. c #C7BEBE",
"2. c #C9C1C1",
"3. c #C8C2C2",
"4. c #CAC2C2",
"5. c #C8C5C5",
"6. c #C9C6C6",
"7. c #CCC4C4",
"8. c #CDC6C6",
"9. c #CEC6C6",
"0. c #CEC7C7",
"q. c #CFC8C8",
"w. c #D1CACA",
"e. c #D2CBCB",
"r. c #D2CCCC",
"t. c #D3CCCC",
"y. c #D4CECE",
"u. c #D5CECE",
"i. c #D5CFCF",
"p. c #D7D1D1",
"a. c #D8D2D2",
"s. c #D9D3D3",
"d. c #DBD6D6",
"f. c #DCD6D6",
"g. c #DDD7D7",
"h. c #DED8D8",
"j. c #DED9D9",
"k. c #DFDADA",
"l. c #E0DCDC",
"z. c #E1DDDD",
"x. c #E2DDDD",
"c. c #E3DFDF",
"v. c #E4E0E0",
"b. c #E5E1E1",
"n. c #E6E2E2",
"m. c #E6E3E3",
"M. c #E7E3E3",
"N. c #EEECEC",
"B. c #F3F1F1",
"V. c #F4F3F3",
"C. c #F5F3F3",
"Z. c #F6F4F4",
"A. c #F6F5F5",
"S. c #F8F7F7",
"D. c #F9F8F8",
"F. c #FAF9F9",
"G. c gray100",
/* pixels */
"j.j.j.j.g.g.v.G.v.u.r.w.q.7.7.6.3.<.<.<.",
"u.u.u.u.u.u.v.G.x.u.u.u.u.u.u.u.u.p.u.u.",
"7.u.v.v.v.x.j.G.N.v.l.7.s.v.v.x.q.7.7.7.",
";.F.G.G.G.A.p.G.G.G.G.x.G.G.G.G.k.;.;.;.",
"-.G.v.<.A.A.w.G.a.3.G.A.G.g.,.S.v.$.@.@.",
"+.G.v.$.C.C.w.G.r.;.G.B.G.p.*.;.@.......",
"| S.G.G.G.G.F.G.G.G.G.w.G.G.G.G.j.| | | ",
"[ ..3.6.6.7.*.-.q.7.*.} +.7.q.7.*.[ [ [ ",
"] ] _ o.^ ] ] ] ] ] ] ] ] ] ] ] ] ] ] ] ",
") ) ~ ! R ) ) ) ) ) ) ) ) ) ) ) ) ) ) ) ",
"/ / Q T Q / / / / / / / / / / / / / / / ",
"W W W G W W W W I P P P P P P W W W W W ",
"L L L A S D D D B ` { { { { N L L L L L ",
"H n v j x V V V M Y E E E E l J J J J J ",
"p p a @ i a z c n b b b n n n F F F F F ",
"% % %   O @ @ @ + 2 d k k k s h h h h h ",
"- - - O . . . . X ` X.X.X.X.2 t t t t 3 ",
"8 8 8 - 3 3 8 8 < 1 1 > > > > 3 3 3 8 8 ",
"w w w - 8 8 w w 0 0 0 0 3 0 < 0 w w w w ",
"u u u 3 - - - - 0 V K K K K 0 u u u u u "
};
