/* XPM */
static char *rect2838[] = {
/* columns rows colors chars-per-pixel */
"20 10 152 2",
"   c black",
".  c #040000",
"X  c gray2",
"o  c #0B0000",
"O  c #080606",
"+  c #0B0505",
"@  c #0B0B0B",
"#  c #0E0B0B",
"$  c gray9",
"%  c #1D1010",
"&  c gray11",
"*  c #250000",
"=  c #2F0000",
"-  c #350000",
";  c #3D0202",
":  c gray17",
">  c gray20",
",  c #343434",
"<  c gray21",
"1  c #383535",
"2  c #3B3535",
"3  c gray22",
"4  c #3F3838",
"5  c gray24",
"6  c #3E3E3E",
"7  c #2A582A",
"8  c #387938",
"9  c #4B0000",
"0  c #4C0000",
"q  c #4C3030",
"w  c #612B2B",
"e  c #793737",
"r  c #7B3B3B",
"t  c #7D3A3A",
"y  c #7F3B3B",
"u  c #434343",
"i  c #4C4949",
"p  c #485048",
"a  c #505050",
"s  c #565656",
"d  c #5F5F5F",
"f  c #7E4646",
"g  c #7A4A4A",
"h  c gray42",
"j  c #6D6A6A",
"k  c #6F6F6F",
"l  c #716666",
"z  c #7A6060",
"x  c gray48",
"c  c #7C7E7C",
"v  c #3CBD3C",
"b  c #42A636",
"n  c #49AF49",
"m  c #56A256",
"M  c #61AE61",
"N  c #6EA26E",
"B  c #64C264",
"V  c #61F661",
"C  c #6FFF6F",
"Z  c #833838",
"A  c #875656",
"S  c #885353",
"D  c #934E4E",
"F  c #915050",
"G  c #827A7A",
"H  c #827E7E",
"J  c #926D6D",
"K  c #976969",
"L  c #9F6161",
"P  c #937B7B",
"I  c #AC7070",
"U  c #B17373",
"Y  c #B37E7E",
"T  c #B7886D",
"R  c #80D059",
"E  c gray52",
"W  c gray54",
"Q  c #889585",
"!  c #988D8D",
"~  c #929090",
"^  c #979797",
"/  c #999797",
"(  c #9A9A9A",
")  c #9B9B9B",
"_  c gray67",
"`  c #BDA2A2",
"'  c #B7B7B7",
"]  c #BFB6B6",
"[  c #84D584",
"{  c #8AD18A",
"}  c #83FF83",
"|  c #A4FFA4",
" . c #AAFFAA",
".. c #B1FFB1",
"X. c #C59292",
"o. c #D39393",
"O. c #DC9C9C",
"+. c #DFBC9C",
"@. c #E1A1A1",
"#. c #E0BFBF",
"$. c #FFABAB",
"%. c #FFAFAF",
"&. c #FFB0B0",
"*. c #FFB7B7",
"=. c #FFB8B8",
"-. c #FFB9B9",
";. c #FFBBBB",
":. c #FFBDBD",
">. c #FFBEBE",
",. c #D6D3D3",
"<. c #D5D5D5",
"1. c #D7D4D4",
"2. c gray87",
"3. c #D2FFD2",
"4. c #E0CACA",
"5. c #FFC0C0",
"6. c #FFC2C2",
"7. c #FFC4C4",
"8. c #FFC8C8",
"9. c #FFCBCB",
"0. c #FFCCCC",
"q. c #FFD0D0",
"w. c #FFD2D2",
"e. c #FFD3D3",
"r. c #FFD7D7",
"t. c #FFDADA",
"y. c gray88",
"u. c #EBE1E0",
"i. c #E5FFE5",
"p. c #EAFFEA",
"a. c #FFE0E0",
"s. c #FFE2E2",
"d. c #FFE3E3",
"f. c #FFE4E4",
"g. c #FFE5E5",
"h. c #FFE6E6",
"j. c #FFE7E7",
"k. c #FFE8E8",
"l. c #FFEAEA",
"z. c #FFEBEB",
"x. c #FFEFEF",
"c. c gray94",
"v. c #F3F3F3",
"b. c #F5F3F3",
"n. c honeydew",
"m. c #FFF1F1",
"M. c #FFF6F6",
"N. c #FFF7F7",
"B. c #FFFBFB",
"V. c #FDFFFD",
"C. c #FFFDFD",
"Z. c gray100",
/* pixels */
"D 0.K = z g t.g.w.- w A r.t.- q h c.) u ",
"m.g.l.x.x.#.s.N.l.g.g.l.g.s.g.B.Z.Z.Z.Z.",
"&.$.-.0.*.4.w.%.-.5.0.s.>.%.8.w.7.-.0.Z.",
"# ~ G l + + 4 / v.N.u.,.2 2 X % & _ 1.Z.",
"t ; S O.` U 0 t T +.B T Z r J f , @ E Z.",
"j o H B.1.] . i ! B.Q b n p 2.^ a   x v.",
"F 9 L >.@.X.* e U 5.o.P 7 v 8 k ' $ : 5 ",
"Z.Z.Z.Z.Z.y.Z.Z.Z.Z.Z.Z.Z.Z. .} i.n.3.Z.",
"Z.Z.Z.Z.Z.y.Z.) 3 , d W Z.Z.Z.p.C ..| Z.",
"Z.Z.Z.Z.Z.y.x 5   > s c { [ m M B V N > "
};
