/* XPM */
static char *rect10534[] = {
/* columns rows colors chars-per-pixel */
"20 20 43 1",
"  c #5A5A73",
". c #2B2BBC",
"X c #3D3DA1",
"o c #3F3FA3",
"O c #0505F7",
"+ c blue",
"@ c #0505F8",
"# c #0606F9",
"$ c #0B0BFE",
"% c #0C0CFE",
"& c #1212FF",
"* c #2828C1",
"= c #2D2DFF",
"- c #3D3DFE",
"; c #4040A4",
": c #4141A5",
"> c #4444A8",
", c #4747AB",
"< c #4B4BAF",
"1 c #4D4DB1",
"2 c #4E4EB2",
"3 c #5050B4",
"4 c #5555B9",
"5 c #4242FF",
"6 c #5D5DF6",
"7 c #5E5EF7",
"8 c #7070D4",
"9 c #7777DB",
"0 c #7A7ADE",
"q c #6666F7",
"w c #7C7CE0",
"e c #7474F7",
"r c #8080E4",
"t c #8585E9",
"y c #8686EA",
"u c #8888EC",
"i c #8989ED",
"p c #8A8AEE",
"a c #8B8BEF",
"s c #8E8EF2",
"d c #8F8FF3",
"f c #D2D2EB",
"g c #D6D6EF",
/* pixels */
"gq%++++++++++++++@* ",
"7++++++++++++++++++.",
"$++++++++++++++++++O",
"++++++++++++++++++++",
"++++++++++++++++++++",
"+++++dddy<XXooo+++++",
"+++++ddw>oXXXXX+++++",
"+++++d9oXXXXXX4+++++",
"+++++0;XXXXX;8d+++++",
"+++++;XXXXX,rdd+++++",
"+++++XXXXX3uddd+++++",
"+++++XXXX3pdadd+++++",
"+++++XXX2pdddad+++++",
"+++++XX<uadaddd+++++",
"+++++X;tdddddad+++++",
"++++++++++++++++++++",
"++++++++++++++++++++",
"O++++++++++++++++++$",
".++++++++++++++++++7",
" .@+++++++++++&=5-ef"
};
