/* XPM */
static char *rect2868[] = {
/* columns rows colors chars-per-pixel */
"20 23 52 1",
"  c #800000",
". c #810000",
"X c #820000",
"o c #830000",
"O c #840000",
"+ c #850000",
"@ c #860000",
"# c #870000",
"$ c #880000",
"% c #8B0000",
"& c #DF0909",
"* c #E00909",
"= c #E50A0A",
"- c #E80A0A",
"; c #F30B0B",
": c #FC0C0C",
"> c #D95F5F",
", c #DB6161",
"< c #FD4949",
"1 c #E06666",
"2 c #E36A6A",
"3 c #ED7474",
"4 c #F27878",
"5 c #808080",
"6 c #D8B0B0",
"7 c #DAB5B5",
"8 c #DBB6B6",
"9 c #DCB9B9",
"0 c #DEBCBC",
"q c #DFBFBF",
"w c #FC8383",
"e c #FE8686",
"r c #E0C1C1",
"t c #E3C6C6",
"y c #E4C8C8",
"u c #E6CCCC",
"i c #E8D0D0",
"p c #E8D1D1",
"a c #E9D2D2",
"s c #ECD9D9",
"d c #EDDBDB",
"f c #EEDCDC",
"g c #EFDEDE",
"h c #F0E0E0",
"j c #F3E6E6",
"k c #F6ECEC",
"l c #F6EDED",
"z c #F7EEEE",
"x c #F9F2F2",
"c c #FBF7F7",
"v c gray100",
"b c None",
/* pixels */
"tifh2=        bbbbbb",
"ldjl3;        %bbbbb",
"8r6r>*  O O       bb",
"lfxhe;   OO$  O O$Ob",
"uhdtw-  OOOO   O   b",
"yiqt,*   O   O    Ob",
"cvvv4:b   bbbb bbbbb",
"098i1*    bbbbbbbbbb",
"vvvve:bbbbbbbbbbbbbb",
"vvvve:bbbbbbbbbbbbbb",
"vvvve:bbbbbbbbbbbbbb",
"vvvve:bbbbbbbbbbbbbb",
"vvvve:bbbbbbbbbbbbbb",
"vvvve:bbbbbbbbbbbbbb",
"vvvve:bbbbbbbbbbbbbb",
"vvvve:bbbbbbbbbbbbbb",
"vvvve:bbbbbbbbbbbbbb",
"vvvve:bbbbbbbbbbbbbb",
"vvvve:bbbbbbbbbbbbbb",
"vvvve:bbbbbbbbbbbbbb",
"vvvve:bbbbbbbbbbbbbb",
"eeee<:bbbbbbbbbbbbbb",
"bbbbbbbbbbbbbbbbbbbb"
};
