/* XPM */
static char *rect4355[] = {
/* columns rows colors chars-per-pixel */
"20 21 216 2",
"   c #040404",
".  c gray4",
"X  c gray6",
"o  c #151515",
"O  c gray10",
"+  c #202020",
"@  c #252525",
"#  c gray17",
"$  c gray19",
"%  c #353535",
"&  c gray21",
"*  c #393939",
"=  c gray23",
"-  c #363B41",
";  c #3D3F42",
":  c #3E4349",
">  c gray25",
",  c #414141",
"<  c #464646",
"1  c #40444A",
"2  c #41464D",
"3  c #42474D",
"4  c #474A4D",
"5  c #4B4B4B",
"6  c #4B4D4F",
"7  c #4C4C4C",
"8  c #4C4D4E",
"9  c #454B51",
"0  c #494F55",
"q  c #4C5155",
"w  c #4D5358",
"e  c #4D535B",
"r  c #515151",
"t  c #535455",
"y  c gray33",
"u  c #50545B",
"i  c #51575D",
"p  c #53575E",
"a  c #54575D",
"s  c #53585C",
"d  c #565A5E",
"f  c #535A62",
"g  c #555A60",
"h  c #555B65",
"j  c #595E64",
"k  c #5D6266",
"l  c #596169",
"z  c #5A626B",
"x  c #5A636B",
"c  c #5F6469",
"v  c #5C656D",
"b  c #5F676F",
"n  c #616465",
"m  c #646464",
"M  c #676767",
"N  c #646668",
"B  c #686868",
"V  c #696A6C",
"C  c #6C6C6C",
"Z  c #626A73",
"A  c #636B73",
"S  c #636A74",
"D  c #656D76",
"F  c #687079",
"G  c #6A727C",
"H  c #6B737C",
"J  c #6F777F",
"K  c #777C7F",
"L  c #7B7B7B",
"P  c #737A81",
"I  c #727A82",
"U  c #777D83",
"Y  c #747D85",
"T  c #778088",
"R  c #78808B",
"E  c #7B838C",
"W  c #7E868F",
"Q  c #7D8999",
"!  c #818181",
"~  c #83878E",
"^  c #808890",
"/  c #818A92",
"(  c #848C95",
")  c #808D99",
"_  c #888E94",
"`  c #849BBD",
"'  c #859CBC",
"]  c #859DBD",
"[  c #919BA6",
"{  c #949FA9",
"}  c #95A0B0",
"|  c #96A1B2",
" . c #9AA9C0",
".. c #A6B6C6",
"X. c #A4B5CE",
"o. c #AEB7C4",
"O. c #A8BAD2",
"+. c #AABAD1",
"@. c #ABBBD2",
"#. c #ABBBD3",
"$. c #AABCD4",
"%. c #ACBCD3",
"&. c #AEBDD3",
"*. c #AFBED5",
"=. c #B3BFD3",
"-. c #B0BED4",
";. c #AFC0D7",
":. c #B0C1D6",
">. c #B6C7D7",
",. c #B1C2D9",
"<. c #B3C5DB",
"1. c #B5C3D8",
"2. c #B5C4D8",
"3. c #B4C4DA",
"4. c #B5C6DB",
"5. c #B6C4D8",
"6. c #B7C5D8",
"7. c #B7C7DB",
"8. c #B5C6DC",
"9. c #B7C7DC",
"0. c #B9C6D9",
"q. c #BAC7DA",
"w. c #B8C8DC",
"e. c #B9C9DD",
"r. c #B9C9DE",
"t. c #BBCADE",
"y. c #BCCBDD",
"u. c #BDCCDF",
"i. c #BDCDDF",
"p. c #B3CBE5",
"a. c #BACCE1",
"s. c #BDCDE2",
"d. c #BFCDE1",
"f. c #BFCEE1",
"g. c #BECFE3",
"h. c #BFCFE3",
"j. c #BCCFE4",
"k. c #BECFE5",
"l. c #BED0E4",
"z. c #CBCBCB",
"x. c #CED4D8",
"c. c #C3D1E0",
"v. c #C1D2E6",
"b. c #C1D2E7",
"n. c #C1D3E6",
"m. c #C2D3E6",
"M. c #C2D3E7",
"N. c #C3D4E7",
"B. c #C5D0E0",
"V. c #C4D3E6",
"C. c #C5D4E6",
"Z. c #C6D5E5",
"A. c #C6D5E7",
"S. c #C2D3E8",
"D. c #C3D5E8",
"F. c #C3D6E8",
"G. c #C3D6E9",
"H. c #C3D6EA",
"J. c #C4D6E8",
"K. c #C4D6EA",
"L. c #C4D7EA",
"P. c #C5D7EB",
"I. c #C5D8EB",
"U. c #C6D8EB",
"Y. c #C6D8EC",
"T. c #C6D9EC",
"R. c #C7D9EC",
"E. c #CAD5E3",
"W. c #CBD4E3",
"Q. c #CBD6E3",
"!. c #C8D5E5",
"~. c #C9D6E5",
"^. c #CBD6E4",
"/. c #C8D7E9",
"(. c #CCD8E5",
"). c #CED8E5",
"_. c #CED9E6",
"`. c #C8D8EB",
"'. c #CBD8E8",
"]. c #CAD9EA",
"[. c #CAD9EB",
"{. c #CADAEB",
"}. c #C8D9EC",
"|. c #C8D9ED",
" X c #C9DAEC",
".X c #CADBED",
"XX c #CEDBEB",
"oX c #CFDBEA",
"OX c #CDDDED",
"+X c #CCDCEE",
"@X c #CDDDEE",
"#X c #CEDDEF",
"$X c #CFDDEE",
"%X c #D0DCE9",
"&X c #D1DCEA",
"*X c #D0DFEF",
"=X c #D5DEEA",
"-X c #D8DFEA",
";X c #D3E1EF",
":X c #DAE3EE",
">X c #DBE3EF",
",X c #D9E5F1",
"<X c #DEE7F2",
"1X c #DDE9F3",
"2X c #E3E9EF",
"3X c #E4EAF0",
"4X c #E6EEF7",
"5X c #E8EDF3",
"6X c #E9EDF5",
"7X c #EFF2F7",
"8X c #EFF3F9",
"9X c #F1F4F7",
"0X c #F5FAFC",
"qX c #F6F9FC",
"wX c #FDFDFD",
"eX c gray100",
/* pixels */
"eXeXeXeXeXeXeXeXeXeXeXeXeXeXeXeXeXeXeXeX",
"eX4X<XB.eXeX5XC.eXeXeXeXC.6XeXeX,X=X=XeX",
"XX}.J.,.[.XXC.>._ _ o.!.N.V.[.'.Y.d.w.oX",
"b.P.J.H.H.J.J.U r r ^ [ { b.H.H.Y.J.H.l.",
"eX;X[.X.eXeX~ 7 5 7 C ! ^ (.eXeXU.i.q.eX",
"eX;X[.X.z.M < < < < m L W (.eXeXU.d.q.eX",
"4X$XY.R , , , = , , n K E C.1X1XP.b.c.4X",
"$XY.U.c = = d 6 = = k P T N.[.[.P.J.J.*X",
"O.a.a.a u Q G 4 & & s S Y %.X.X.U.;.X.O.",
"7X$X/. .2Xx.( s $ $ t V P c.3X3XY.w.4.9X",
"eX;X[.X.eXeX(.j # # r B K !.eXeXU.i.q.eX",
"0X*X[.O.8X8XXXg @ @ 7 N G !.8X8XU.d.y.0X",
"}.U.U.U.U.U.U.a + + q Z F b.U.U.U.L.U.}.",
"4.k.d.O.-.%.4.w O O : h D ;.%.%.U.<.O.4.",
"-XJ.N.X.W.W.d.0 o o ; a Z q.W.W.U.9.-.=X",
"eX;X[.X.eXeX%X9 X X = y b Q.eXeXU.d.q.eX",
"eX;X[.X.eXeX&X3 . . & r b Q.eXeXU.i.q.eX",
"$XY.U.H.}.}.Y.:     - f l b.}.}.U.U.J.$X",
"i.H.N.,.d.d.d.) z f 3 w l w.d.d.U.a.9.d.",
"' b.l.X.>.4.w.Y.q.-.} } ..9.4.4.U.<.O.` ",
"eXp.[.&.eXeX:Xb.eXeXeXeXS.:XeXeX$Xw.' eX"
};
