/* XPM */
static char *rect5540-3[] = {
/* columns rows colors chars-per-pixel */
"20 10 38 1",
"  c #170C0C",
". c #190C0C",
"X c #1A0D0D",
"o c #1B0D0D",
"O c #1B0E0E",
"+ c #1D0E0E",
"@ c #1E0E0E",
"# c #1E0F0F",
"$ c #1F0F0F",
"% c #1F1010",
"& c #201010",
"* c #221111",
"= c #271313",
"- c #281414",
"; c #2A1414",
": c #2C1616",
"> c #2D1616",
", c #2E1717",
"< c #301717",
"1 c #311717",
"2 c #301818",
"3 c #321818",
"4 c #331919",
"5 c #341919",
"6 c #351919",
"7 c #341A1A",
"8 c #351A1A",
"9 c #361A1A",
"0 c #371B1B",
"q c #381B1B",
"w c #381C1C",
"e c #391C1C",
"r c #3A1C1C",
"t c #3B1D1D",
"y c #312323",
"u c #403131",
"i c #463838",
"p c #615151",
/* pixels */
"O*------*           ",
"O+$+$**%+OiiiiiiiiyO",
"+++++++%+OppppppppuO",
"->112222=+++++++++++",
">25552252>>>->>>>>>>",
"12550555555525525525",
"15qeeeee521111111111",
"5555555555qtteeeeeq5",
"qqqqqqqq55eeeeqqqq52",
"etetetete55225525555"
};
