/* XPM */
static char *rect12026-7[] = {
/* columns rows colors chars-per-pixel */
"20 21 89 1",
"  c black",
". c #010000",
"X c #050000",
"o c #080000",
"O c #0B0000",
"+ c #0B0B0B",
"@ c gray5",
"# c gray6",
"$ c #1B1B1B",
"% c #280000",
"& c #2D0000",
"* c #360000",
"= c #3A0000",
"- c #3D0000",
"; c #222222",
": c #252525",
"> c gray15",
", c #282626",
"< c #282828",
"1 c #292828",
"2 c gray16",
"3 c #302525",
"4 c gray21",
"5 c #3C3C3C",
"6 c #400000",
"7 c #440000",
"8 c #441313",
"9 c #560000",
"0 c #422020",
"q c #432020",
"w c #610000",
"e c #650000",
"r c #6B0000",
"t c #611717",
"y c #631414",
"u c #691414",
"i c #700000",
"p c #750000",
"a c #780000",
"s c #790000",
"d c #7A0000",
"f c #7D0000",
"g c #7E0000",
"h c #721111",
"j c #6C3939",
"k c #515151",
"l c #6F6F6F",
"z c #717171",
"x c #7C7C7C",
"c c #800000",
"v c #810000",
"b c #840000",
"n c #870000",
"m c #880000",
"M c #890000",
"N c #8A0000",
"B c #8F0000",
"V c #8E0909",
"C c #910000",
"Z c #980000",
"A c #990000",
"S c #9D0000",
"D c #9F0000",
"F c #A10000",
"G c #A10303",
"H c #A20000",
"J c #A30000",
"K c #A40000",
"L c #A50000",
"P c #A60000",
"I c #A70000",
"U c #A80000",
"Y c #A90000",
"T c #AA0000",
"R c #9B4848",
"E c #975C5C",
"W c #946767",
"Q c #927575",
"! c red",
"~ c #808080",
"^ c #848484",
"/ c #8F8585",
"( c #898989",
") c gray54",
"_ c #8B8B8B",
"` c #8E8989",
"' c gray55",
"] c #8D8D8D",
"[ c None",
/* pixels */
"''''''''''''''''WQ''",
"'k222222222222qVTTj'",
"'2           ATTTTu'",
"'2 [[[[[[[[ATTTTNw,^",
"'2 [[[[[[[!TTTI   ;x",
"'2        ITTn    ;~",
"'2       ITI%     >)",
"/tf     nTT7      2'",
"RTT9   oITf       2'",
"ETTd   CTS        2'",
"`GTd  oITe        2'",
"'hTN  dTH         2'",
"'qTIX HTd         2'",
"'2IT*-TIo         2'",
"'2CTrvTv          2'",
"'2rTHTT=          2'",
"'2&TTTS           2'",
"'2 HTTp           2'",
"'2 nTT6           2'",
"'k23t8@@#$>2222222k)",
"'''')z425z)'''''''''"
};
