/* XPM */
static char *rect5679[] = {
/* columns rows colors chars-per-pixel */
"20 9 71 1",
"  c #7F5C08",
". c #32A203",
"X c #3FA704",
"o c #3CAA15",
"O c #3EB225",
"+ c #439506",
"@ c #4E9A06",
"# c #4F9A06",
"$ c #40A300",
"% c #41A300",
"& c #41A401",
"* c #4AAD00",
"= c #47B000",
"- c #48B000",
"; c #49B400",
": c #4AB400",
"> c #4FB600",
", c #57AC1F",
"< c #5CB900",
"1 c #5EBA00",
"2 c #5FBA00",
"3 c #5FBB00",
"4 c #58AA26",
"5 c #56AF37",
"6 c #618103",
"7 c #62B602",
"8 c #65B308",
"9 c #61B801",
"0 c #65BE00",
"q c #75BF76",
"w c #62C100",
"e c #62C200",
"r c #63C200",
"t c #63C300",
"y c #20B6F6",
"u c #20B7F6",
"i c #20B7F7",
"p c #21B7F7",
"a c #36BEF8",
"s c #38BFF7",
"d c #38BFF8",
"f c #5DB88D",
"g c #64C68B",
"h c #79C985",
"j c #7DCB88",
"k c #6EC8B9",
"l c #72C6AF",
"z c #44C3F8",
"x c #4BC4F8",
"c c #53C7F8",
"v c #50C8F9",
"b c #51C8F9",
"n c #51C9F9",
"m c #52C8F9",
"M c #56CAF9",
"N c #6FC9C2",
"B c #68CEF4",
"V c #69CFF9",
"C c #69D0FA",
"Z c #69D0FB",
"A c #7FD6EF",
"S c #7ED6F4",
"D c #7AD5FA",
"F c #826A02",
"G c #808080",
"H c #80D5E9",
"J c #82D9FD",
"K c #8AD9FA",
"L c #8DDAFA",
"P c #93DCFB",
"I c None",
/* pixels */
"IIIIIIIIIIIIIIIIIIII",
"IIIIiiiiiiiiiiaiiIII",
"IIIIsddcPKzddzLxdIII",
"IIIIbbbMDVbbbbbbbIII",
"IIIICg,fBVVVCCCZZIII",
"IIIIH4@@lSNkAJJJJIII",
"IIIIO.6+oX$X&5qhjIII",
"IIII::F*==>222923III",
"IIII08 7wwwwwwtttIII"
};
