/* XPM */
static char *rect4616[] = {
/* columns rows colors chars-per-pixel */
"20 6 46 1",
"  c #030202",
". c #040202",
"X c #050202",
"o c #050303",
"O c #060303",
"+ c #070303",
"@ c #050404",
"# c #0C0606",
"$ c #0E0707",
"% c #0F0808",
"& c #190D0D",
"* c #1A0D0D",
"= c #1B0D0D",
"- c #1C0F0F",
"; c #171616",
": c #1E1A1A",
"> c #201010",
", c #211010",
"< c #201313",
"1 c #221111",
"2 c #221212",
"3 c #231414",
"4 c #261313",
"5 c #271313",
"6 c #251717",
"7 c #201C1C",
"8 c #271919",
"9 c #2D1616",
"0 c #2F1717",
"q c #281919",
"w c #301717",
"e c #341919",
"r c #341A1A",
"t c #351B1B",
"y c #361B1B",
"u c #371B1B",
"i c #3A1D1D",
"p c #2C2020",
"a c #322727",
"s c #322828",
"d c #323131",
"f c #363333",
"g c #473838",
"h c #504F4F",
"j c #565555",
"k c #595858",
/* pixels */
"@-***##%%;hjkdaaaq6.",
".,,,>**--:fff7,,>>,.",
".5555>5555666655555.",
".99995,5>qgggq99999.",
".rrrrwrrrwww9wrrrrr+",
"+iiiirrrrrruuriiiiu+"
};
