/* XPM */
static char *rect2820[] = {
/* columns rows colors chars-per-pixel */
"20 20 74 1",
"  c #000307",
". c #010B17",
"X c #010D1A",
"o c #020F1D",
"O c #04101D",
"+ c #191B1D",
"@ c #021121",
"# c #031225",
"$ c #031527",
"% c #05162A",
"& c #05182E",
"* c #061A31",
"= c #061B35",
"- c #071D37",
"; c #071F3B",
": c #08213F",
"> c #082241",
", c #092545",
"< c #092748",
"1 c #09284B",
"2 c #0A2A4F",
"3 c #052953",
"4 c #072F5C",
"5 c #102E51",
"6 c #133051",
"7 c #183251",
"8 c #1D3551",
"9 c #093567",
"0 c #0A3A71",
"q c #213851",
"w c #263A51",
"e c #293D51",
"r c #2E3F51",
"t c #0C407B",
"y c #324151",
"u c #374351",
"i c #384551",
"p c #3A4651",
"a c #3D4651",
"s c #3E4751",
"d c #3F4851",
"f c #414951",
"g c #434A51",
"h c #454A51",
"j c #0E4686",
"k c #0F4B90",
"l c #11519A",
"z c #1357A4",
"x c #155CAE",
"c c #1662B9",
"v c #1868C3",
"b c #1A6DCD",
"n c #1B73D7",
"m c #1D79E1",
"M c #1F7EEC",
"N c #2084F6",
"B c #238AFF",
"V c #3191FF",
"C c #3F98FF",
"Z c #4DA0FF",
"A c #5AA7FF",
"S c #68AFFF",
"D c #75B6FF",
"F c #83BEFF",
"G c #91C5FF",
"H c #9FCCFF",
"J c #ACD3FF",
"K c #B1D6FF",
"L c #B7D9FF",
"P c #BCDCFF",
"I c #C2DFFF",
"U c #C7E2FF",
"Y c #CCE5FF",
"T c #D2E8FF",
/* pixels */
" .Xo@#$%&*=-;:>,<12O",
".3490tjklzxcvbnmMNB5",
"X490tjklzxcvbnmMNBV5",
"o90tjklzxcvbnmMNBVC7",
"@0tjklzxcvbnmMNBVCZ8",
"#tjklzxcvbnmMNBVCZAq",
"$jklzxcvbnmMNBVCZASw",
"%klzxcvbnmMNBVCZASDe",
"&lzxcvbnmMNBVCZASDFr",
"*zxcvbnmMNBVCZASDFGu",
"=xcvbnmMNBVCZASDFGHu",
"-cvbnmMNBVCZASDFGHJi",
";vbnmMNBVCZASDFGHJKi",
":bnmMNBVCZASDFGHJKLa",
">nmMNBVCZASDFGHJKLPa",
",mMNBVCZASDFGHJKLPIf",
"<MNBVCZASDFGHJKLPIUf",
"1NBVCZASDFGHJKLPIUYf",
"2BVCZASDFGHJKLPIUYTh",
"O5678qweryuiiaaffhh+"
};
