/* XPM */
static char *rect6692[] = {
/* columns rows colors chars-per-pixel */
"20 6 100 2",
"   c black",
".  c #010101",
"X  c #020202",
"o  c #040404",
"O  c #070707",
"+  c gray4",
"@  c #0C0C0C",
"#  c gray5",
"$  c #101010",
"%  c #131313",
"&  c #101114",
"*  c #161616",
"=  c gray9",
"-  c gray10",
";  c #1D1D1D",
":  c #202020",
">  c gray13",
",  c #232323",
"<  c gray15",
"1  c gray16",
"2  c gray17",
"3  c #2D2D2D",
"4  c gray18",
"5  c #2F3132",
"6  c gray19",
"7  c #323232",
"8  c gray20",
"9  c #353535",
"0  c gray22",
"q  c gray23",
"w  c gray24",
"e  c #3E3E3E",
"r  c #414141",
"t  c #414245",
"y  c #444444",
"u  c #484848",
"i  c #4B4B4B",
"p  c #4E4E4E",
"a  c #515151",
"s  c gray32",
"d  c gray33",
"f  c gray34",
"g  c #5A5A5A",
"h  c #656565",
"j  c #65798B",
"k  c #687B8D",
"l  c #697C8E",
"z  c #6A7D8F",
"x  c #6B7E90",
"c  c #6C8092",
"v  c #6D8193",
"b  c #6E8294",
"n  c #6F8395",
"m  c #718496",
"M  c #728597",
"N  c #738698",
"B  c #748799",
"V  c #75889B",
"C  c #76899C",
"Z  c #758BA0",
"A  c #778EA3",
"S  c #8994A1",
"D  c #8E99A5",
"F  c #919CA7",
"G  c #959FA8",
"H  c #8EA2B4",
"J  c #97A3AB",
"K  c #9BA4AD",
"L  c #9FA6B0",
"P  c #A1AAB1",
"I  c #A5ACB2",
"U  c #A8AFB4",
"Y  c #ACB1B7",
"T  c #B0B4B9",
"R  c #B2B6BA",
"E  c #B6B9BD",
"W  c #B8BDBF",
"Q  c #98B6D3",
"!  c #99B7D3",
"~  c #9BB8D4",
"^  c #9CB9D5",
"/  c #9EBAD6",
"(  c #AEB9C3",
")  c #A0BBD6",
"_  c #A2BDD7",
"`  c #A3BED8",
"'  c #A5BFD9",
"]  c #BABDC0",
"[  c #A6C0D9",
"{  c #AAC3DB",
"}  c #ADC5DC",
"|  c #B1C7DE",
" . c #B4CADF",
".. c #B7CCE0",
"X. c #BBCFE2",
"o. c #BED1E3",
"O. c #C2D3E5",
"+. c #C5D6E6",
"@. c #C8D8E8",
"#. c #CCDBE9",
/* pixels */
"g g g g g f d s p u u y r w q q 9 6 4 2 ",
"g h ] W E R T Y U I P K K J G F D S 6 , ",
"s ( #.@.+.O.o.X.X. .| } { ' _ / ~ ! A = ",
"u H ' _ / ! Q Q ! Q Q Q ! Q ! ! ! ! Z # ",
"w t C C C V M M m b b v x x z l l j &   ",
"6 6 4 1 < , , ; - = % $ # + O o         "
};
