/* XPM */
static char *rect3072[] = {
/* columns rows colors chars-per-pixel */
"20 20 37 1",
"  c black",
". c #01081C",
"X c #020921",
"o c #030A27",
"O c #050C2C",
"+ c #040C2E",
"@ c #060E34",
"# c #080D31",
"$ c #090E37",
"% c #09103A",
"& c #0B103C",
"* c #0B1141",
"= c #0D1241",
"- c #0D1347",
"; c #0E1346",
": c #0F154D",
"> c #10144C",
", c #111653",
"< c #121551",
"1 c #131756",
"2 c #13185A",
"3 c #15185C",
"4 c #151960",
"5 c #171B66",
"6 c #181961",
"7 c #191B66",
"8 c #1B1C69",
"9 c #191D6D",
"0 c #1B1D6C",
"q c #1D1E71",
"w c #1C1E73",
"e c #1E1F76",
"r c #1E2079",
"t c #20217C",
"y c #202280",
"u c #222386",
"i c #24258C",
/* pixels */
"                    ",
" 8eq97631<:-=&$#+o. ",
" tiuyrw95421:-*%@+X ",
" tiuyrw9542<:-*%@+X ",
" tiuyrw95421:-*%@+X ",
" tiuyrw9542<:-*%@+X ",
" tiuyrq95421:-*%@+X ",
" tiuyre9542<:-*%@+X ",
" riuyrw9542,:-*%@+X ",
" riuyrw9542,:-*%@+X ",
" tiuyrw9542,:-*%@+X ",
" tiuyrw9542,:-*%@+X ",
" tiuyrw9542,:-*%@+X ",
" tiuyrw9542,:-*%@+X ",
" tiuyrw9542,:-*%@+X ",
" tiuyrw9542,:-*%@+X ",
" tiuyre95421:;*%@+X ",
" tiuyrw9742<:;*%@+X ",
" 8rq97431<>;=&$#+o. ",
"                    "
};
