/* XPM */
static char *rect5376[] = {
/* columns rows colors chars-per-pixel */
"20 54 75 1",
"  c black",
". c #090909",
"X c #0E0E0E",
"o c #272727",
"O c #282828",
"+ c gray16",
"@ c #2A2A2A",
"# c gray17",
"$ c #2C2C2C",
"% c #2D2D2D",
"& c gray18",
"* c #2F2F2F",
"= c gray19",
"- c #313131",
"; c #323232",
": c gray20",
"> c #343434",
", c #353535",
"< c gray21",
"1 c #373737",
"2 c gray22",
"3 c #393939",
"4 c #3A3A3A",
"5 c #9F9F9F",
"6 c #A0A0A0",
"7 c gray63",
"8 c #A2A2A2",
"9 c #A4A4A4",
"0 c #A5A5A5",
"q c #A7A7A7",
"w c gray66",
"e c #A9A9A9",
"r c #AAAAAA",
"t c #ACACAC",
"y c gray68",
"u c #AFAFAF",
"i c #B1B1B1",
"p c #B2B2B2",
"a c #B4B4B4",
"s c gray71",
"d c #B7B7B7",
"f c #B9B9B9",
"g c gray73",
"h c #BCBCBC",
"j c gray74",
"k c gray75",
"l c #C1C1C1",
"z c gray76",
"x c gray77",
"c c #C5C5C5",
"v c gray78",
"b c gray79",
"n c #CACACA",
"m c gray80",
"M c #CDCDCD",
"N c #CECECE",
"B c gray81",
"V c gray82",
"C c #D2D2D2",
"Z c gray83",
"A c #D5D5D5",
"S c gray84",
"D c #D7D7D7",
"F c gray85",
"G c #DADADA",
"H c gainsboro",
"J c gray87",
"K c #DFDFDF",
"L c #E1E1E1",
"P c #E2E2E2",
"I c #E4E4E4",
"U c #E6E6E6",
"Y c #E7E7E7",
"T c #E9E9E9",
"R c #EAEAEA",
/* pixels */
"                    ",
"                    ",
"  .oooooooooooooo.  ",
"  o55555555555555o  ",
"  O66666666677777O  ",
"  O88888888888888O  ",
"  +99999999999999+  ",
"  +00000000000000+  ",
"  +qqqqqqqqqqqqqq+  ",
"  @wwwweeeeeeeeee@  ",
"  @rrrrrrrrrrrrrr@  ",
"  @tttttttttttttt@  ",
"  #yyyyyyyyyyyyyy#  ",
"  #uuuuuuuuuuuuuu#  ",
"  $iiiiiiiiiiiiii$  ",
"  $pppppppppppppp$  ",
"  $aaaaaaaaaaaaaa$  ",
"  %ssssssssssssss%  ",
"  %dddddddddddddd%  ",
"  &ffffffffffffff&  ",
"  &gggggggggggggg&  ",
"  &hhhhhhhhhhhhhh&  ",
"  *jjjjjjjjjjjjjj*  ",
"  *kkkkkkkkkkkkkk*  ",
"  =llllllllllllll=  ",
"  =zzzzzzzzzzzzzz=  ",
"  =xxxxxxxxxxxxxx=  ",
"  -cccccccccccccc-  ",
"  -vvvvvvvvvvvvvv-  ",
"  ;bbbbbbbbbbbbbb;  ",
"  ;nnnnnnnnnnnnnn;  ",
"  ;mmmmmmmmmmmmmm;  ",
"  :MMMMMMMMMMNNNN:  ",
"  :BBBBBBBBBBBBBB:  ",
"  >VVVVVVVVVVVVVV>  ",
"  >CCCCCCCCCCCCCC>  ",
"  >ZZZZZZZZZZZZZZ>  ",
"  ,AAAAASSSSSSSSS,  ",
"  ,DDDDDDDDDDDDDD,  ",
"  <FFFFFFFFFFFFFF<  ",
"  <GGGGGGGGGGGGGG<  ",
"  <HHHHHHHHHHHHHH<  ",
"  1JJJJJJJJJJJJJJ1  ",
"  1KKKKKKKKKKKKKK1  ",
"  2LLLLLLLLLLLLLL2  ",
"  2PPPPPPPPPPPPPP2  ",
"  2IIIIIIIIIIIIII2  ",
"  3UUUUUUUUUUUUUU3  ",
"  3YYYYYYYYYYYYYY3  ",
"  4TTTTTTTTTTTTTT4  ",
"  4RRRRRRRRRRRRRR4  ",
"  X44444444444444X  ",
"                    ",
"                    "
};
