/* XPM */
static char *runner[] = {
/* columns rows colors chars-per-pixel */
"20 21 3 1",
"  c black",
". c gray100",
"X c None",
/* pixels */
"XXXXXXXX   XXXXXXXXX",
"XXXXXXXX    XXXXXXXX",
"XXXXXXX      XXXXXXX",
"XXXXXXX       XXXXXX",
"XXXXXX    X   XXXXXX",
"X    X    XX  XXXXXX",
"X               XXXX",
"X                XXX",
"X                XXX",
"XX               XXX",
"  XX             X  ",
"   X   XXX      X   ",
"      XXX           ",
"X     XX           X",
"X     XX          XX",
"XX   XXX   X     XXX",
"XXXXXXXX   X    XXXX",
"XXXXXXXX    X XXXXXX",
"XXXXXXXXX   XXXXXXXX",
"XXXXXXXXX   XXXXXXXX",
"XXXXXXXXX   XXXXXXXX"
};
