<?xml version="1.0" encoding="UTF-8" standalone="no"?>
<!-- Created with Inkscape (http://www.inkscape.org/) -->

<svg
   xmlns:dc="http://purl.org/dc/elements/1.1/"
   xmlns:cc="http://creativecommons.org/ns#"
   xmlns:rdf="http://www.w3.org/1999/02/22-rdf-syntax-ns#"
   xmlns:svg="http://www.w3.org/2000/svg"
   xmlns="http://www.w3.org/2000/svg"
   xmlns:sodipodi="http://sodipodi.sourceforge.net/DTD/sodipodi-0.dtd"
   xmlns:inkscape="http://www.inkscape.org/namespaces/inkscape"
   width="396.3064"
   height="414.04321"
   id="svg3593"
   version="1.1"
   inkscape:version="0.47 r22583"
   sodipodi:docname="runner.svg"
   inkscape:export-filename="runner.png"
   inkscape:export-xdpi="184"
   inkscape:export-ydpi="184">
  <defs
     id="defs3595">
    <inkscape:perspective
       sodipodi:type="inkscape:persp3d"
       inkscape:vp_x="0 : 372.04724 : 1"
       inkscape:vp_y="0 : 1000 : 0"
       inkscape:vp_z="1052.3622 : 372.04724 : 1"
       inkscape:persp3d-origin="526.18109 : 248.03149 : 1"
       id="perspective3602" />
    <inkscape:perspective
       id="perspective3612"
       inkscape:persp3d-origin="0.5 : 0.33333333 : 1"
       inkscape:vp_z="1 : 0.5 : 1"
       inkscape:vp_y="0 : 1000 : 0"
       inkscape:vp_x="0 : 0.5 : 1"
       sodipodi:type="inkscape:persp3d" />
  </defs>
  <sodipodi:namedview
     inkscape:document-units="mm"
     pagecolor="#ffffff"
     bordercolor="#666666"
     borderopacity="1.0"
     inkscape:pageopacity="0.0"
     inkscape:pageshadow="2"
     inkscape:zoom="1.4142136"
     inkscape:cx="128.57936"
     inkscape:cy="185.79999"
     inkscape:current-layer="layer1"
     id="namedview3597"
     showgrid="false"
     inkscape:window-width="1192"
     inkscape:window-height="912"
     inkscape:window-x="33"
     inkscape:window-y="52"
     inkscape:window-maximized="0" />
  <metadata
     id="metadata3599">
    <rdf:RDF>
      <cc:Work
         rdf:about="">
        <dc:format>image/svg+xml</dc:format>
        <dc:type
           rdf:resource="http://purl.org/dc/dcmitype/StillImage" />
        <dc:title></dc:title>
      </cc:Work>
    </rdf:RDF>
  </metadata>
  <g
     inkscape:label="Layer 1"
     inkscape:groupmode="layer"
     id="layer1"
     transform="translate(-180.22209,-75.37979)">
    <path
       style="fill:#000000"
       d="m 394.22209,488.81857 c -5.8863,1.18106 -12.69672,-2.93494 -15.7545,-7.93878 -13.37277,-25.33016 -20.3396,-53.55259 -30.43714,-80.32081 -3.07179,-12.63348 -8.53217,-25.12945 -7.80836,-38.31067 14.45282,-19.13758 32.79165,-35.3064 48.37122,-53.64441 7.10091,-8.79023 16.77537,-16.5627 22.62878,-25.82191 -3.88888,-3.79912 -12.61452,-1.58991 -18.4528,-1.77178 -26.9909,1.12858 -53.95932,2.71673 -80.9254,4.31918 -15.98876,29.5939 -24.70731,62.9092 -40.14947,92.87566 -4.48526,7.56222 -12.82039,12.82962 -21.78118,11.17474 -15.12312,-2.35063 -21.82947,-18.40731 -30.11925,-29.5 -13.1549,-20.14938 -27.98649,-39.30313 -39.5719,-60.42032 -1.121,-8.15966 2.75753,-17.38955 11.0718,-19.90824 7.85445,-5.14461 18.44735,-0.0843 23.6635,6.81744 11.50391,15.07193 22.33091,30.64551 33.4363,46.01112 6.09295,-0.7156 5.5329,-11.32157 9.01,-15.9259 31.53729,-75.6041 61.12184,-152.05676 93.90133,-227.120073 4.5279,-8.620503 15.22124,-17.886846 25.38082,-12.455668 12.52493,6.030118 20.21318,18.993269 30.55474,27.923931 15.24076,16.95829 31.65693,33.09733 44.43831,52.07771 0.60348,8.59803 0.86574,17.78649 -8.3767,22.25 -7.46668,7.74297 -18.88093,0.86824 -24.2895,-6.09811 -14.23335,-14.47635 -26.78776,-30.4877 -40.8188,-45.1519 -9.94002,19.81806 -18.14728,41.00566 -24.971,62.06875 22.77623,4.88915 47.55891,7.05951 71.15553,10.2949 18.93629,2.98026 38.44917,3.91509 57.03118,8.42396 7.85243,1.86687 13.9566,7.67418 18.85349,13.64548 7.29911,14.16635 7.47427,30.56961 2.30721,45.56692 -5.56537,25.03261 -16.08975,48.71595 -22.34741,73.5 23.72328,-13.63434 42.42071,-35.65427 65.80189,-50.42869 7.45015,-4.13741 17.94045,-5.21876 23.59745,2.42924 7.83879,4.99968 8.87769,15.74891 3.1271,22.78139 -19.31714,19.6819 -42.7581,35.07601 -62.84318,54.08296 -16.17634,13.23026 -31.11298,28.42448 -48.53713,39.91051 -5.98099,4.12552 -14.96851,6.94028 -20.83883,1.33223 -10.73338,-4.38156 -8.36633,-14.60026 -7.88704,-23.49552 0.2685,-21.37329 4.28809,-42.46341 5.57974,-63.75877 -19.05953,15.87997 -35.552,35.5295 -53,53.44209 7.96005,30.7328 19.52216,60.37294 28.2736,90.84809 -2.05424,9.59069 -8.70302,19.28083 -19.2744,20.29525 z M 240.53049,262.26795 c -11.70815,-1.34765 -22.92034,-5.99749 -30.09219,-15.55395 -8.80601,-8.59869 -11.58565,-22.13846 -10.70231,-34.01604 1.7617,-14.43778 10.67179,-27.01448 23.26797,-34.0163 14.80427,-7.72154 34.24975,-5.20208 46.64086,6.068 10.64372,8.40709 16.05117,22.74321 15.48016,36.03537 -1.33746,12.20104 -6.49507,24.11629 -16.26645,31.86305 -7.80193,6.78894 -18.19255,9.05568 -28.32804,9.61987 z"
       id="path3651" />
  </g>
</svg>
