/* XPM */
static char *save_icon[] = {
/* columns rows colors chars-per-pixel */
"20 20 165 2",
"   c black",
".  c #000005",
"X  c #000007",
"o  c #000008",
"O  c #000009",
"+  c #00000B",
"@  c #02020B",
"#  c #00000D",
"$  c #00000E",
"%  c #04070F",
"&  c #111216",
"*  c #25292C",
"=  c #272B2E",
"-  c #31353A",
";  c #363A40",
":  c #3A3D44",
">  c #3F464C",
",  c #3B5476",
"<  c #425C7E",
"1  c #547296",
"2  c #577496",
"3  c #5A7596",
"4  c #5E7796",
"5  c #687A8D",
"6  c #617A96",
"7  c #647C96",
"8  c #607E9D",
"9  c #687E96",
"0  c #2B8EC6",
"q  c #2E90C7",
"w  c #3292C7",
"e  c #3694C8",
"r  c #3A95C8",
"t  c #3E97C9",
"y  c #62809D",
"u  c #64809D",
"i  c #65829D",
"p  c #66839D",
"a  c #6B8196",
"s  c #6E8496",
"d  c #68849D",
"f  c #708596",
"g  c #748796",
"h  c #768996",
"j  c #7B8693",
"k  c #678DB2",
"l  c #638CBA",
"z  c #6E91AF",
"x  c #4199C9",
"c  c #4199CB",
"v  c #419ACD",
"b  c #449BCD",
"n  c #479CCC",
"m  c #469DCE",
"M  c #4B9ECD",
"N  c #4FA0CD",
"B  c #52A1CE",
"V  c #54A2CB",
"C  c #55A3CE",
"Z  c #58A4CC",
"A  c #59A5CE",
"S  c #5CA1C9",
"D  c #5CA6CC",
"F  c #5DA7CF",
"G  c #5EAAD6",
"H  c #61A4CA",
"J  c #60A7CD",
"K  c #60A8CF",
"L  c #63A9CD",
"P  c #67ABCE",
"I  c #6BADCE",
"U  c #6FAFCF",
"Y  c #60ABD6",
"T  c #61ACD7",
"R  c #63ACD7",
"E  c #64A9D0",
"W  c #64ABD1",
"Q  c #67ABD0",
"!  c #65ADD7",
"~  c #67AED7",
"^  c #6AADD1",
"/  c #69AED8",
"(  c #6AAFD8",
")  c #6CB0D9",
"_  c #6EB1D9",
"`  c #73B0CF",
"'  c #76B2D0",
"]  c #70B1D9",
"[  c #71B2D9",
"{  c #7AB4D0",
"}  c #7EB6D1",
"|  c #78B5E0",
" . c #80868F",
".. c #818C98",
"X. c #828C98",
"o. c #838C98",
"O. c #A0A1A6",
"+. c #A1A2A6",
"@. c #A1A3A6",
"#. c #A2A3A6",
"$. c #A5A7AD",
"%. c #ADADAE",
"&. c #A5AFBE",
"*. c #ADAFB3",
"=. c #AFAFB0",
"-. c #AEAFB3",
";. c #ACAEB4",
":. c #AFB0B3",
">. c #AFB1B3",
",. c #AAB3BF",
"<. c #B0B2B3",
"1. c #B1B2B3",
"2. c #B2B2B3",
"3. c #B5B5B6",
"4. c #B7B7B8",
"5. c #BABABB",
"6. c #82B8D1",
"7. c #8FBED6",
"8. c #B0BBC8",
"9. c #8AC1DE",
"0. c #96C8E5",
"q. c #ABC5D6",
"w. c #BFC0C5",
"e. c #B9C4D0",
"r. c #BBCDD7",
"t. c #BEC9D3",
"y. c #BECAD3",
"u. c gray78",
"i. c #C2C3C9",
"p. c #CACACA",
"a. c gray80",
"s. c #CCCCCD",
"d. c #C3CED6",
"f. c #C9D4DA",
"g. c #CAD4DA",
"h. c #CBD4DA",
"j. c #CBD4DB",
"k. c #CDD3D8",
"l. c #CCD5DB",
"z. c #D1D3D7",
"x. c #D4D6D9",
"c. c #D8D9DC",
"v. c #D9DBDD",
"b. c #DCDCDE",
"n. c gray87",
"m. c gray88",
"M. c #E1E1E1",
"N. c #E9EEFB",
"B. c #E8EEFF",
"V. c #EBF1FF",
"C. c #ECF0FB",
"Z. c #EEF2FB",
"A. c #ECF1FF",
"S. c #EEF3FF",
"D. c #F1F4FB",
"F. c #F3F5FB",
"G. c #F0F4FF",
"H. c #F2F6FF",
"J. c #F6F7FB",
"K. c #F4F7FF",
"L. c #F5F8FF",
"P. c #F9FAFF",
"I. c #FDFDFF",
"U. c gray100",
"Y. c None",
/* pixels */
"Y.Y.Y.Y.Y.Y.Y.Y.Y.Y.Y.Y.Y.Y.Y.Y.Y.Y.Y.Y.",
"Y.Y.  . + + + + + + + + + + + +   Y.Y.Y.",
"Y.  % l 5 o.o.o.o.o.o.o.....j k , $ Y.Y.",
"Y.  < 7.+.L.G.A.B.B.V.A.G.L.J.8 | + Y.Y.",
"Y.  1 6.+.P.L.G.A.B.B.V.S.K.F.y [ . Y.Y.",
"Y.  2 } +.I.P.L.G.A.B.B.A.S.F.i [ . Y.Y.",
"Y.  3 { +.I.I.P.L.G.A.B.B.V.Z.i ) + Y.Y.",
"Y.  4 ' #.I.I.I.P.L.S.V.B.B.C.p ) . Y.Y.",
"Y.  6 ` #.I.I.I.I.P.K.S.A.B.N.d / . Y.Y.",
"Y.  7 U  .<.<.<.<.<.>.>.>.*.$.z / + Y.Y.",
"Y.  9 I ^ ^ L K F A C B N M n x ! . Y.Y.",
"Y.  a P L q.l.h.h.h.h.h.r.x t r ! + Y.Y.",
"Y.  s L J d.c.k.M.M.M.M.c.t r e ! . Y.Y.",
"Y.  f J D t.t.H n.M.M.M.x.r e w T . Y.Y.",
"Y.  g D C e.e.S n.M.M.M.z.e w q T + Y.Y.",
"Y.  h A V 8.i.,.a.a.p.u.w.w q 0 Y . Y.Y.",
"Y.  > 9.W &.5.4.3.<.=.%.-.m b v 0.+ Y.Y.",
"Y.Y.$ & = - : : : : : : ; = = * + + Y.Y.",
"Y.Y.Y.                          Y.Y.Y.Y.",
"Y.Y.Y.Y.Y.Y.Y.Y.Y.Y.Y.Y.Y.Y.Y.Y.Y.Y.Y.Y."
};
