/* XPM */
static char *shape_star[] = {
/* columns rows colors chars-per-pixel */
"20 20 180 2",
"   c black",
".  c #030302",
"X  c gray1",
"o  c #040403",
"O  c #040404",
"+  c #060606",
"@  c #090909",
"#  c gray4",
"$  c #0D0D0A",
"%  c #0E0E0B",
"&  c #0E0E0E",
"*  c #10100C",
"=  c #12120E",
"-  c #13120E",
";  c #13130F",
":  c #14140F",
">  c #131313",
",  c #151510",
"<  c #151515",
"1  c #191815",
"2  c #1A1A14",
"3  c #181818",
"4  c #191919",
"5  c #201F17",
"6  c #252319",
"7  c #26251D",
"8  c #222222",
"9  c #2A2920",
"0  c #2C2B20",
"q  c gray16",
"w  c gray17",
"e  c #2F2F2F",
"r  c #302F23",
"t  c #312F27",
"y  c gray19",
"u  c #313130",
"i  c #313131",
"p  c #323232",
"a  c gray21",
"s  c #373737",
"d  c #3B3B37",
"f  c #393939",
"g  c #3B3B39",
"h  c #3A3A3A",
"j  c #3E3D39",
"k  c #3F3F3F",
"l  c #403F3A",
"z  c #424030",
"x  c #49473C",
"c  c #4C493A",
"v  c #5B573D",
"b  c #4E4D44",
"n  c #52524F",
"m  c gray33",
"M  c #5B5A51",
"N  c #5A5955",
"B  c #5C5B50",
"V  c #625E4A",
"C  c #636254",
"Z  c #67665D",
"A  c #706E5C",
"S  c #797451",
"D  c #6F6D61",
"F  c #767468",
"G  c #857F56",
"H  c #817F76",
"J  c #84805C",
"K  c #8D8659",
"L  c #988E52",
"P  c #88877E",
"I  c #97926B",
"U  c #A29C71",
"Y  c #A49E79",
"T  c #CABC69",
"R  c #FFEB74",
"E  c #FFEC78",
"W  c #FFEC7E",
"Q  c #9E9B81",
"!  c #9E9B82",
"~  c #939291",
"^  c #A4A184",
"/  c #ADAB9F",
"(  c #ADAC9E",
")  c #B1AB80",
"_  c #B2B2B1",
"`  c #CBC186",
"'  c #C9C49F",
"]  c #D3CB9D",
"[  c #D0CAA4",
"{  c #EBDC88",
"}  c #E4DA96",
"|  c #F0E185",
" . c #FFED81",
".. c #FFED82",
"X. c #FFED83",
"o. c #FFEE88",
"O. c #FFEE89",
"+. c #FFEF8B",
"@. c #FFEF8E",
"#. c #F2E79D",
"$. c #F5E99D",
"%. c #FEEE92",
"&. c #FFEF92",
"*. c #FFEF93",
"=. c #FFF090",
"-. c #FFF093",
";. c #FFF094",
":. c #FFF097",
">. c #FFF098",
",. c #FFF099",
"<. c #FFF09A",
"1. c #FFF19C",
"2. c #FFF09E",
"3. c #FFF19E",
"4. c #F6EBA6",
"5. c #F6ECAD",
"6. c #F6ECB6",
"7. c #F7EFBD",
"8. c #FFF1A0",
"9. c #FFF1A1",
"0. c #FEF1A7",
"q. c #FFF2A4",
"w. c #FEF2A7",
"e. c #FFF2A6",
"r. c #FFF3A6",
"t. c #FDF2AB",
"y. c #FFF2A8",
"u. c #FFF3A9",
"i. c #FFF3AB",
"p. c #FEF2AD",
"a. c #FFF3AF",
"s. c #FFF4AF",
"d. c #FFF4B0",
"f. c #FFF4B4",
"g. c #FFF4B5",
"h. c #FFF4B6",
"j. c #FFF5B7",
"k. c #F9F0B8",
"l. c #FFF5B9",
"z. c #FFF5BB",
"x. c #FFF5BC",
"c. c #FFF6BE",
"v. c #FFF6BF",
"b. c #DFDEDD",
"n. c #F3EFD6",
"m. c #FDF5C3",
"M. c #FFF6C2",
"N. c #FFF6C3",
"B. c #FFF7C4",
"V. c #FFF7C6",
"C. c #FFF7CA",
"Z. c #FDF7CF",
"A. c #FFF7CE",
"S. c #FFF8C9",
"D. c #FFF8CB",
"F. c #FFF8CC",
"G. c #FFF9CE",
"H. c #FFF9CF",
"J. c #FFF8D2",
"K. c #FFF9D3",
"L. c #FFF9D4",
"P. c #FFFAD8",
"I. c #FFFBDB",
"U. c #FFFADD",
"Y. c #FFFBDF",
"T. c #ECEBE6",
"R. c #FCF8E0",
"E. c #FCF8E1",
"W. c #FDF9E1",
"Q. c #FFFBE0",
"!. c #FFFDE7",
"~. c #F9F8E8",
"^. c #FAF9EF",
"/. c #FFFCE9",
"(. c #F6F6F4",
"). c #FFFEF2",
"_. c #FFFEF4",
"`. c #FFFEF7",
"'. c gray100",
"]. c None",
/* pixels */
"].].].].].].  q ].].].].].].].].].].].].",
"].].].].].s e q 8 ].].].].].].].].].].].",
"].].].].y p _ T.p >   ].].].].].].].].].",
"].].].p s b./.Y.R.M +   ].].].].].].].].",
"].f e m (.Y.L.A.V.H.! X @ n k ].].].].].",
"p p ~ ).L.C.V.x.h.d.h.] d Z f ].].].].].",
"e f `.C.m.x.f.p.y.8.<.` ( R.z ].].].].].",
"].8 ^.z.f.p.y.8.<.*.| D R.Y.b 4 ].].].].",
"].4 / z.q.Y M P P F B n.J.H.^ & ].].].].",
"].< j m.*.{ C ~.).!.Y.J.x.z.7.V 2 %   ].",
"].  @ A.O...T A /.J.V.z.p.q.q.y.y.} z % ",
"].].  ' ..R E L ! P.h.y.3.;.O.X.<.#.r : ",
"].].  c 6.5.4.$.t Z.y.<.@.X.@.q.U ;   ].",
"].].            x S.*.O.W R <.J ;   ].].",
"].].].].].].].1 [ p.3.s.q.E -.S   ].].].",
"].].].].].].+ ; m.k.) 0 I 3.-.G   ].].].",
"].].].].].].  % 7 1     ; v *.K   ].].].",
"].].].].].].  o   ].].].].  6 9   ].].].",
"].].].].].].].].].].].].].].  ;   ].].].",
"].].].].].].].].].].].].].].].].].].].]."
};
