/* XPM */
static char *star[] = {
/* columns rows colors chars-per-pixel */
"20 20 222 2",
"   c black",
".  c #020202",
"X  c #030302",
"o  c gray2",
"O  c gray4",
"+  c #0B0B0B",
"@  c gray5",
"#  c #0E0E0E",
"$  c #101010",
"%  c #121211",
"&  c #131313",
"*  c gray8",
"=  c #161616",
"-  c #191814",
";  c #181818",
":  c gray11",
">  c gray12",
",  c #26251E",
"<  c #202020",
"1  c #222222",
"2  c gray15",
"3  c #2A2927",
"4  c gray16",
"5  c #2B2B29",
"6  c gray17",
"7  c #2C2C2C",
"8  c #2D2D2D",
"9  c gray18",
"0  c #2F2F2F",
"q  c #30302F",
"w  c #37362F",
"e  c gray19",
"r  c #313131",
"t  c gray20",
"y  c #343434",
"u  c #3E3E3E",
"i  c #403F39",
"p  c #41413F",
"a  c #444338",
"s  c #444339",
"d  c #484532",
"f  c #48473F",
"g  c #4D4B3B",
"h  c #5D593E",
"j  c #414141",
"k  c #4B4B4B",
"l  c #4C4C4B",
"z  c #4D4D4C",
"x  c gray30",
"c  c #50504E",
"v  c #58574E",
"b  c #5A5A5A",
"n  c #666456",
"m  c #62615A",
"M  c #646258",
"N  c #6B6753",
"B  c #686554",
"V  c #6E6A50",
"C  c #6C6855",
"Z  c #6B6A5E",
"A  c #706B4D",
"S  c #6A6A6A",
"D  c #767465",
"F  c #847F65",
"G  c #89835F",
"H  c #958B4E",
"J  c #818077",
"K  c #83827D",
"L  c #8A897F",
"P  c #98926E",
"I  c #A39B6A",
"U  c #A39C6D",
"Y  c #A39D71",
"T  c #A39D74",
"R  c #A39D77",
"E  c #A39D7B",
"W  c #C2B66F",
"Q  c #C7B862",
"!  c #E8D878",
"~  c #FFEB74",
"^  c #FFEB76",
"/  c #FFEB77",
"(  c #FFEC7B",
")  c #FFED7F",
"_  c #808080",
"`  c #979581",
"'  c gray58",
"]  c #A6A392",
"[  c #A9A790",
"{  c #BDB998",
"}  c #AAAAAA",
"|  c #B8B6A2",
" . c #C3BFAA",
".. c #CCC5A0",
"X. c #CAC8AC",
"o. c #CECCB5",
"O. c #CDCAB8",
"+. c #D2CFBA",
"@. c #D1CFBE",
"#. c #FFED80",
"$. c #FFED83",
"%. c #FFED85",
"&. c #FFED86",
"*. c #FFEE86",
"=. c #FBEB8C",
"-. c #FFEE89",
";. c #FFEE8A",
":. c #FFEE8C",
">. c #FFEF8D",
",. c #FFEF8E",
"<. c #FFEF8F",
"1. c #F7E999",
"2. c #FFEF90",
"3. c #FFEF91",
"4. c #FFEF93",
"5. c #FEEF95",
"6. c #FFF094",
"7. c #FFF095",
"8. c #FFF097",
"9. c #FFF098",
"0. c #FFF099",
"q. c #FFF09A",
"w. c #FFF09B",
"e. c #FFF19B",
"r. c #FFF19C",
"t. c #FFF19E",
"y. c #FFF19F",
"u. c #FFF1A1",
"i. c #FFF2A1",
"p. c #FFF2A2",
"a. c #FFF2A3",
"s. c #FFF2A4",
"d. c #FFF2A6",
"f. c #FFF2A7",
"g. c #FFF2A8",
"h. c #FFF3A9",
"j. c #FFF3AA",
"k. c #FFF3AB",
"l. c #FFF3AC",
"z. c #FFF3AD",
"x. c #FFF4AF",
"c. c #FFF4B0",
"v. c #FFF4B1",
"b. c #FFF4B2",
"n. c #FFF4B4",
"m. c #FFF4B5",
"M. c #FFF5B6",
"N. c #FFF5B7",
"B. c #FFF5B9",
"V. c #FFF5BA",
"C. c #FFF5BB",
"Z. c #FFF5BE",
"A. c #FFF6BE",
"S. c #FFF6BF",
"D. c #CBCBCA",
"F. c #DAD8C9",
"G. c #E9E4C2",
"H. c #EEEACB",
"J. c #E7E6DB",
"K. c #FFF6C0",
"L. c #FFF6C1",
"P. c #FFF6C2",
"I. c #FFF6C3",
"U. c #FFF7C3",
"Y. c #FFF6C4",
"T. c #FFF7C4",
"R. c #FFF7C5",
"E. c #FFF7C7",
"W. c #FCF4C8",
"Q. c #FFF7C8",
"!. c #FFF7C9",
"~. c #FFF8CC",
"^. c #FFF8CD",
"/. c #FFF8CE",
"(. c #FFF8CF",
"). c #FAF6DD",
"_. c #FFF8D0",
"`. c #FFF8D1",
"'. c #FFF8D2",
"]. c #FFF8D3",
"[. c #FFF9D2",
"{. c #FFF9D3",
"}. c #FFF9D4",
"|. c #FFF9D6",
" X c #FFF9D7",
".X c #FFFAD6",
"XX c #FFF9D8",
"oX c #FFF9D9",
"OX c #FFFADA",
"+X c #FFFADC",
"@X c #FFFADD",
"#X c #FFFADF",
"$X c #FFFBDF",
"%X c #EAE9E3",
"&X c #ECECEC",
"*X c #F2F1EB",
"=X c #F4F3EF",
"-X c #FAF7E2",
";X c #FFFBE1",
":X c #FFFBE2",
">X c #FFFBE3",
",X c #FFFBE5",
"<X c #FFFCE5",
"1X c #FFFCE7",
"2X c #FFFCE8",
"3X c #FFFCE9",
"4X c #FFFCEC",
"5X c #FFFCED",
"6X c #FFFDEF",
"7X c #F6F5F0",
"8X c #F6F6F5",
"9X c #FFFDF1",
"0X c #FEFDF2",
"qX c #FFFEF6",
"wX c #FFFEF8",
"eX c #FFFFFB",
"rX c gray99",
"tX c #FFFEFD",
"yX c #FFFFFD",
"uX c #FFFFFE",
"iX c gray100",
"pX c None",
/* pixels */
"pXpXpXpXpXpXpXpX0 9 4 2 pXpXpXpXpXpXpXpX",
"pXpXpXpXpXpXpXr 9 y r < : pXpXpXpXpXpXpX",
"pXpXpXpXpXpX9 6 b 8X7Xx ; * pXpXpXpXpXpX",
"pXpXpXpX9 0 6 ' tX5X1X6XL $ +   pXpXpXpX",
"pXpXpXr 9 9 D.eX1X@XXX|.>X .+     pXpXpX",
"pXpXr 9 u &XqX@X|.[./.Q.R.[.G.-     x l ",
"  r 9 S tX5X|.`./.Q.R.P.C.N.P.Q.g   9 j ",
"r 9 } tX>X`.^.Q.R.A.C.N.c.z.h.c.P.G x | ",
"9 b tXXX/.R.P.A.C.N.c.z.h.d.t.t.1.v @.1X",
"4 7 tX|.P.A.C.N.x.h.d.p.t.0.7.3.G J 1X>X",
"< > %XXXC.c.c.h.d.p.t.0.7.3.:.W p -X+XXX",
"t : K 1Xc.h.d.D m M n B N V A i +.>X[./.",
"pX* 7 3Xz.p.t.P k [ =X*XJ.F.O.o.>X[.T.U.",
"pX& # ).N.0.3.=.C Z 9XqX6X1X1X@X[.U.C.N.",
"pX# + ] R.:.-.%.! f ` 9X1X|.~.R.S.N.c.h.",
"pXpXo y [.%.#.( / Q q X.1X/.P.C.c.x.d.t.",
"pXpX    [.,.~ ~ ~ ~ H 3 H.+XC.c.h.p.0.7.",
"pXpX    ..N.p.t.0.0.7.h s .XT.d.t.0.6.;.",
"pXpXpX  , E R R Y U I d s [.N.0.7.,.*.#.",
"pXpXpX                $ { /.0.6.;.#.( ~ "
};
