/* XPM */
static char *text4135[] = {
/* columns rows colors chars-per-pixel */
"20 11 90 1",
"  c black",
". c #020202",
"X c gray1",
"o c #040404",
"O c gray2",
"+ c #060606",
"@ c #090909",
"# c gray4",
"$ c #0B0B0B",
"% c gray5",
"& c #131313",
"* c #151515",
"= c gray9",
"- c #181818",
"; c #1D1D1D",
": c gray12",
"> c #202020",
", c gray19",
"< c #323232",
"1 c #373737",
"2 c #3A3A3A",
"3 c #3C3C3C",
"4 c #434343",
"5 c gray29",
"6 c #4B4B4B",
"7 c #4C4C4C",
"8 c #535353",
"9 c #555555",
"0 c gray35",
"q c #626262",
"w c gray39",
"e c #6C6C6C",
"r c gray43",
"t c #838383",
"y c #868686",
"u c #888888",
"i c #8E8E8E",
"p c gray56",
"a c #909090",
"s c #929292",
"d c #959595",
"f c #979797",
"g c #989898",
"h c gray60",
"j c gray61",
"k c #9D9D9D",
"l c #9F9FA9",
"z c #A4A4A4",
"x c #A5A5A5",
"c c gray65",
"v c #AAAAAA",
"b c gray67",
"n c gray68",
"m c #AFAFAF",
"M c gray69",
"N c #B2B2B3",
"B c gray70",
"V c #B6B6B6",
"C c gray72",
"Z c #BBBBBB",
"A c gray74",
"S c #BABAC7",
"D c #C0C0C0",
"F c #C1C1C1",
"G c gray77",
"H c #C6C6C6",
"J c #C8C8C8",
"K c gray80",
"L c gray81",
"P c gray83",
"I c #D5D5D5",
"U c gray84",
"Y c #D7D7D7",
"T c #D8D8D8",
"R c gray85",
"E c #DADADA",
"W c #DDDDDD",
"Q c gray87",
"! c #DFDFDF",
"~ c #C4C4EC",
"^ c #C8C8EC",
"/ c gray88",
"( c #E2E2E2",
") c gray89",
"_ c #E4E4E4",
"` c gray90",
"' c #E6E6E6",
"] c #E7E7E7",
"[ c gray91",
"{ c #E9E9E9",
/* pixels */
"~^SlVR{]{]]{]{InzZ//",
"{bo>o4I{]{{{{G-o; 5I",
"I&w/A j]]]]]{7%L/h z",
"n b]Q;3{]]]]/MZ{]D f",
"j V]{,;Q]]]]]]]]]a V",
"a D/{5oI]/]]]]/]bowQ",
"f Z]{1*R/]]//]]b 9IQ",
"z M]Q>,]]/]/]]VowI]Q",
"G u]Lot]]II/]D$0/QQQ",
"]e$t3%J]{9*R/2 ->>>h",
"/RzeyJ//]MhQRpaaappD"
};
