/* XPM */
static char *text4241[] = {
/* columns rows colors chars-per-pixel */
"20 46 193 2",
"   c black",
".  c #010101",
"X  c #020202",
"o  c gray1",
"O  c #040404",
"+  c #060606",
"@  c gray3",
"#  c gray4",
"$  c #0C0C0C",
"%  c #0E0E0E",
"&  c #101010",
"*  c gray7",
"=  c gray8",
"-  c #151515",
";  c #161616",
":  c gray9",
">  c #191919",
",  c #1B1B1B",
"<  c #1D1D1D",
"1  c gray12",
"2  c gray13",
"3  c #232323",
"4  c #252525",
"5  c #272727",
"6  c gray16",
"7  c #2A2A2A",
"8  c gray17",
"9  c #2C2C2C",
"0  c #2D2D2D",
"q  c gray18",
"w  c gray19",
"e  c #323232",
"r  c #343434",
"t  c gray21",
"y  c #373738",
"u  c gray22",
"i  c #3A3A3A",
"p  c #3A3A3B",
"a  c gray23",
"s  c #3B3C3D",
"d  c #3C3C3C",
"f  c gray24",
"g  c #3E3E3E",
"h  c #3F3F3F",
"j  c #383D42",
"k  c #393E44",
"l  c #3A4045",
"z  c #3C4147",
"x  c #3D4348",
"c  c #3F444A",
"v  c gray25",
"b  c #414141",
"n  c gray26",
"m  c #434343",
"M  c #434344",
"N  c gray27",
"B  c gray28",
"V  c #40464B",
"C  c #42474C",
"Z  c #43484E",
"A  c #47494B",
"S  c #454A4F",
"D  c #47494C",
"F  c #494949",
"G  c #4B4B4B",
"H  c #484B4D",
"J  c #4A4C4F",
"K  c gray30",
"L  c #4E4E4E",
"P  c gray31",
"I  c #464B51",
"U  c #474C51",
"Y  c #484D53",
"T  c #4A4D50",
"R  c #4A4F54",
"E  c #4D4F51",
"W  c #4B5056",
"Q  c #4C5257",
"!  c #4F5357",
"~  c #4E5359",
"^  c #4F555A",
"/  c #515151",
"(  c #535353",
")  c #505255",
"_  c #555555",
"`  c #565656",
"'  c gray34",
"]  c #51565B",
"[  c #52585D",
"{  c #54595E",
"}  c #555A60",
"|  c #555B60",
" . c #565B61",
".. c #5F6368",
"X. c #5F656E",
"o. c #606265",
"O. c #686868",
"+. c gray43",
"@. c #626973",
"#. c #656B71",
"$. c #646B75",
"%. c #656B74",
"&. c #6D757E",
"*. c #6E767F",
"=. c #72777C",
"-. c gray48",
";. c #6D7582",
":. c #6D7682",
">. c #6F7784",
",. c #727A81",
"<. c #727A82",
"1. c #737C84",
"2. c #747B83",
"3. c #747B85",
"4. c #767C82",
"5. c #747C84",
"6. c #757C85",
"7. c #788088",
"8. c #7A838B",
"9. c #7E858C",
"0. c #7A8594",
"q. c #7E8891",
"w. c #7E899A",
"e. c #7F8A9B",
"r. c #808181",
"t. c #87909A",
"y. c #88919D",
"u. c #959595",
"i. c #939FAC",
"p. c #92A1B6",
"a. c #93A1B6",
"s. c #93A1B7",
"d. c #94A2B7",
"f. c #99A8BF",
"g. c gray65",
"h. c #AEAEAE",
"j. c #A1ACB9",
"k. c #A1ADBD",
"l. c #A3B0BD",
"z. c #B6B6B6",
"x. c #A6B4C2",
"c. c #A0B0C8",
"v. c #A3B4CD",
"b. c #A4B5CE",
"n. c #ACBCCC",
"m. c #A8BAD2",
"M. c #B1BED0",
"N. c #B2C1D6",
"B. c #B3C1D6",
"V. c #B6C4D7",
"C. c #B7C4D8",
"Z. c #B7C5D8",
"A. c #B5C7DD",
"S. c #B8C6D5",
"D. c #B9CADF",
"F. c #B9CBE0",
"G. c #BDCFE1",
"H. c #BCCEE3",
"J. c #BED1E5",
"K. c #C5C5C5",
"L. c gray84",
"P. c #DDDDDD",
"I. c #C3D1E2",
"U. c #C0D3E5",
"Y. c #C1D2E6",
"T. c #C2D3E6",
"R. c #C3D3E6",
"E. c #C5D4E5",
"W. c #C6D5E6",
"Q. c #C4D7E9",
"!. c #C5D7EA",
"~. c #C6D7EA",
"^. c #C5D8EB",
"/. c #CDDDEE",
"(. c #CEDDEE",
"). c #D0DFEF",
"_. c gray88",
"`. c #E1E1E1",
"'. c #E4E4E4",
"]. c gray91",
"[. c #E3EAF2",
"{. c #E6ECF4",
"}. c gray94",
"|. c #F3F3F3",
" X c #F6F6F6",
".X c gray97",
"XX c #F8F8F8",
"oX c gray98",
"OX c #FBFBFB",
"+X c #FAFBFC",
"@X c #FDFDFD",
"#X c #FEFEFE",
"$X c gray100",
/* pixels */
"m.m.[.{.{.{.{.{.{.T.^.^.l.` ` ` ` ` ` ' ",
"^.^.^.^.^.^.^.^.^.^.^.^.=.` _ _ _ _ _ ` ",
"^.^.^.^.^.^.^.^.^.^.^.x.( ( ( ( ( ( ( ( ",
"^.^.^.^.^.^.^.^.^.^.T.o.( W / / / / / / ",
"F.F.T.T.T.T.T.T.T.T.4.L P L P P L L L L ",
"b.b.+X$X$X$X$X$X$X9.L L L L L L K L K K ",
"b.b.+X$X$X$X$XoX-.G G G F G G G F K F K ",
"b.b.+X$X$X$X_.O.F F F F F F F F F F F F ",
"b.b.+X$X$Xg.L N F N F N B B B B B B B B ",
"b.b.+X].+.N N N N N N N N N N N N N N N ",
"b.f.r.F b N b b b N N b M M b b m m m m ",
"%.M b b b b b b b b b b b b b b b b b b ",
"h h h h h h h h b h b b b v h v v v v v ",
"h h i h i h i h h h o.) h h h h h h h h ",
"i i i h i h i h h #.8.E i d d d a a a a ",
"i i i i i i i J <.6.5.J i i i i a i i i ",
"u u u t i i %.w.>.&.<.H u u u u u u u u ",
"t t t t X.d.d.w.>.&.<.A t t t t t t t t ",
"r d @.a.v.c.a.w.>.&.1.A r r r r r r r r ",
"0.c.V.A.V.M.k.t.3.<.q.J e e e e e e e e ",
"b.b.OX$X$X|.L.h.u.t.i.Q e w w w w w w w ",
"b.b.+X$X$X X_.K.z.j.n.{ q q q q q q q q ",
"b.b.+X$X$XoX}.'.P.S.G. .8 8 8 7 q q q q ",
"b.b.+X$X$X$XOXXX XI.^.{ 7 7 7 7 8 8 7 8 ",
"b.b.+X$X$X$X$X$X$XE.^.{ 7 7 6 6 6 6 6 6 ",
"b.b.+X$X$X$X$X$X$XE.^.{ 5 5 5 5 5 5 5 5 ",
"b.b.+X$X$X$X$X$X$XE.^.[ 5 4 4 4 4 4 4 4 ",
"J.J.(.(././././.(.Q.^.] 3 3 3 3 3 3 3 3 ",
"^.^.^.^.Q.^.^.^.^.^.^.] 2 2 2 2 2 2 2 2 ",
"^.^.^.^.Q.Q.^.^.^.^.^.Q 1 1 1 1 1 1 1 1 ",
"^.^.^.^.^.^.^.^.^.^.^.Q < < < < < < < < ",
"b.b.b.b.b.b.b.b.b.A.^.W , , , , , , , , ",
"b.b.b.b.b.b.b.b.b.A.^.Y , , : , , : , , ",
"b.b.b.b.b.b.b.b.b.A.^.Y : : ; ; : : ; : ",
"b.v.B.V.B.B.B.B.B.D.Q.I ; ; ; ; ; ; ; ; ",
"b.v.+X$X$X$X$X$X$XE.^.I * = = = = = = = ",
"b.b.+X$X$X$X$X$X$XE.^.I * * * * * * * * ",
"b.b.+X$X$X$X$X$X$XE.^.Z & & & & & & & & ",
"b.b.+X$X$X$X$X$X$XE.^.V % % % % % % % % ",
"b.b.+X$X$X$X$X$X$XE.^.V $ $ $ $ $ $ $ $ ",
"b.b.+X$X$X$X$X$X$XE.^.V # # # # # # # # ",
"b.b.+X$X$X$X$X$X$XE.^.x @ @ @ @ @ @ @ @ ",
"G.H.).).).).).).).Q.^.z + + + + + + + + ",
"^.^.^.^.^.Q.^.^.^.^.^.z O O O O O o o o ",
"^.^.^.^.^.^.^.^.^.^.Q.j X X X X X X X X ",
"^.^.^.^.^.^.^.^.^.Q.Q.j X X X X X X X X "
};
