/* XPM */
static char *text4241-2[] = {
/* columns rows colors chars-per-pixel */
"20 40 109 2",
"   c gray1",
".  c #0B0B0B",
"X  c gray8",
"o  c gray11",
"O  c #232323",
"+  c gray17",
"@  c gray20",
"#  c #3C3C3C",
"$  c #3C4147",
"%  c #3E4449",
"&  c #434343",
"*  c #41464C",
"=  c #46494C",
"-  c #4B4B4B",
";  c #464B51",
":  c #474F5A",
">  c #4A4E51",
",  c #4C5055",
"<  c #4E545C",
"1  c #525253",
"2  c #52575C",
"3  c #54585E",
"4  c #585959",
"5  c #4F5660",
"6  c #545B63",
"7  c #585F68",
"8  c #5C636C",
"9  c #5F6770",
"0  c #5F6877",
"q  c #646464",
"w  c #62676C",
"e  c #65696F",
"r  c #6A6A6A",
"t  c #616771",
"y  c #646B73",
"u  c #616B7A",
"i  c #696E75",
"p  c #686F78",
"a  c #66707D",
"s  c #6D7277",
"d  c #6B737C",
"f  c #747475",
"g  c #71777D",
"h  c #77797C",
"j  c #7B7B7B",
"k  c #6F7780",
"l  c #747B83",
"z  c #757F8C",
"x  c #797D83",
"c  c #787F88",
"v  c #7C8186",
"b  c #7A838D",
"n  c #7C8693",
"m  c #7D8995",
"M  c gray51",
"N  c #80878F",
"B  c #838B94",
"V  c #828E99",
"C  c #86919C",
"Z  c #89939D",
"A  c #909090",
"S  c #95989B",
"D  c #838EA0",
"F  c #8A96A1",
"G  c #8E9AA6",
"H  c #8C9AAD",
"J  c #929EAA",
"K  c #96A2AE",
"L  c #94A2B5",
"P  c #94A2B8",
"I  c #98A4B0",
"U  c #9EAAB7",
"Y  c #9FACB9",
"T  c #ACACAC",
"R  c #B5B8BC",
"E  c #BBBBBB",
"W  c #9EAEC3",
"Q  c #A5B4C6",
"!  c #A4B5CE",
"~  c #A9B5C5",
"^  c #ACBBCA",
"/  c #A7B8D0",
"(  c #ADBDD1",
")  c #B2BECE",
"_  c #B2C2D4",
"`  c #B7C8D8",
"'  c #BBCADD",
"]  c #BDCDE0",
"[  c #BFD1E6",
"{  c #C3C7CB",
"}  c #C1CCDD",
"|  c gray83",
" . c gray86",
".. c #C3D3E6",
"X. c #C3D5E8",
"o. c #C5D8EB",
"O. c #C8D5E5",
"+. c #C9DAEC",
"@. c #D3DFED",
"#. c #DEE4ED",
"$. c #D6E3F1",
"%. c #E3E4E6",
"&. c #E2E6EC",
"*. c #EAEAEA",
"=. c #E7EDF4",
"-. c #E9EFF6",
";. c #EBF0F6",
":. c #F4F4F6",
">. c #FEFEFE",
/* pixels */
">.:.>.=.X.o.J h j j j j %.:.:.O.O.o.O.>.",
"o.o.o.o.o.' 4 1 1 1 1 1 ) ` ` ` ' } ..o.",
"o.o.o.o.o.b 1 1 1 1 1 1 U U U U U ^ ' o.",
"X.X.X.X.~ 1 1 , 1 1 1 1 Z Z B B F U ` X.",
">.>.>.R 1 - - - - - - 1 M M M M B I ) >.",
">.>.E - - - - - - - - - j M M x B K _ >.",
">.A - - & - - - - & = = j j j x B K ) >.",
"q & & - & - & & - & & & f h j x n K ) >.",
"& & & & & & & & & & & & f j j g b K ) >.",
"& & # & & # # & & # & & g h h k b J ) -.",
"& # # # = - # # # # # # g l x c b K _ o.",
"# # # > c 1 # # # # # # k l l x b J _ o.",
"# # e c l > # # # # # @ g g k k v G _ +.",
"3 V n p l = @ @ @ @ # # t p y p v G Q ! ",
"! L n p l = @ @ @ @ @ @ t y t p v G Q ! ",
"' ~ B k n > @ @ @ @ @ @ e e e p l G ~ } ",
">. .T S I 2 @ + @ @ + + r r r s l F ^ >.",
">.*.| { ` 6 + + + + + + q r r i l F ^ >.",
">.:.:.&.X.6 + + + + + + q r r y l F ^ >.",
">.>.>.;.o.3 + + + + + + q r q e l F ^ >.",
">.>.>.;.o.3 + O O + O O q q q e k F ^ >.",
"$.$.$.$.o.2 O O O O O O w e e y d F ^ $.",
"o.o.o.o.o.2 O O O O O O t p y p d C ( o.",
"o.o.o.o.o.< o o o o o o 8 y t t d C ^ o.",
"' ' ' ] o.2 o o o o o o 6 8 8 8 d C Q ] ",
"! ! ! / o., o o X o o o 2 6 6 8 a C W ! ",
"! ! ! ! o., X X X o X X < 6 6 6 p V W ! ",
"#.#.#.@.o.> X X X X X X 1 4 2 6 u V ~ #.",
">.>.>.;.o.; X X X X X X 1 4 4 6 u V ~ >.",
">.>.>.;.o.; X . X . . X 1 4 4 3 y B ~ >.",
">.>.>.;.o.* . . . . . . 1 1 1 3 u m ~ >.",
">.>.>.;.o.* . . . . . . - 1 1 3 t m ~ >.",
">.>.>.;.o.% . .   . . . - > 1 2 9 m ~ >.",
"+.+.+.+.o.%   .         < 6 6 6 8 m / o.",
"o.o.o.o.o.$             < 6 6 6 8 n ^ o.",
"o.o.o.o.o.$             < 6 5 6 8 n ^ o.",
"! ! ! / o.o.[ ! ! W H 0 < : : 5 9 m W ! ",
"! ! ! / o.o.[ ! ! ! P z 0 0 0 u b H Q ! ",
"/ / / ( o.o...! ! ! Q P H H H P Q _ _ / ",
">.>.>.;.o.o...>.>.>.>.>.>.>.>.+.o.o.o.>."
};
