/* XPM */
static char *text2826[] = {
/* columns rows colors chars-per-pixel */
"20 4 66 1",
"  c #5B5A69",
". c #5F5E6C",
"X c #68676E",
"o c #737378",
"O c #727189",
"+ c #777594",
"@ c #8D8C95",
"# c #93929E",
"$ c #95959A",
"% c #9897A2",
"& c #9896B9",
"* c #9A97BB",
"= c #A8A6BD",
"- c #AFAFB1",
"; c #B0AFBB",
": c #B3B2BC",
"> c #B5B4BE",
", c #B8B8BC",
"< c #AFADC5",
"1 c #B7B6C1",
"2 c #B2B0C8",
"3 c #B8B7C9",
"4 c #BBBAC3",
"5 c #BCBBC0",
"6 c #C1C1C5",
"7 c #CCCADF",
"8 c #D4D4D6",
"9 c #D2D1D8",
"0 c #DDDDDF",
"q c #C6C3E7",
"w c #C9C6EF",
"e c #D0CFE2",
"r c #D4D3E6",
"t c #D5D4E7",
"y c #D9D8EA",
"u c #D9D8EC",
"i c #D5D4F3",
"p c #DDDBF5",
"a c #E0DFE2",
"s c #E2E2E5",
"d c #E6E6E7",
"f c #E6E5EC",
"g c #E8E7EE",
"h c #ECEBEF",
"j c #EEEEEF",
"k c #E8E7F3",
"l c #EEEDF3",
"z c #EEEEF0",
"x c #EFEFF0",
"c c #EFEFF1",
"v c #EFEEF2",
"b c #EFEFF2",
"n c #F0F0F1",
"m c #F0F0F3",
"M c #F3F3F3",
"N c #F1F1F5",
"B c #F2F2F7",
"V c #F4F3F7",
"C c #F1F1F8",
"Z c #F3F2FA",
"A c #F5F5FB",
"S c #F7F7F9",
"D c #F7F7FA",
"F c #F7F6FD",
"G c #F8F8FB",
"H c #F8F8FC",
/* pixels */
"xd8,ja#:9xDb3bCerGDw",
"M-$6@.x41Ox+f2&DykCp",
"MoX6@ x41Ox+g<&FyCFi",
"Md05xs%:;Ol+=NBeruqF"
};
