/* XPM */
static char *about_memory_xpm[] = {
/* width height num_colors chars_per_pixel */
"    16    16      256            2",
/* colors */
"`` c #1d1d1c",
"`. c #000000",
"`# c #1c1c1c",
"`a c #fffdf8",
"`b c #d0c4cd",
"`c c #77557c",
"`d c #fcfbf6",
"`e c #f9f7f2",
"`f c #f6f4ef",
"`g c #f2f0eb",
"`h c #d2c9cd",
"`i c #7e657d",
"`j c #d2c7cd",
"`k c #faf8f3",
"`l c #f6f5f0",
"`m c #f3f1ec",
"`n c #efeee9",
"`o c #d5cece",
"`p c #85727f",
"`q c #85737f",
"`r c #d2cbcb",
"`s c #f7f5f0",
"`t c #f4f2ed",
"`u c #f0efea",
"`v c #edebe6",
"`w c #d8d3d0",
"`x c #8d8182",
"`y c #8c8081",
"`z c #d3cecb",
"`A c #f5f3ee",
"`B c #f1efea",
"`C c #eeece7",
"`D c #eae9e4",
"`E c #dad7d1",
"`F c #948e85",
"`G c #938d85",
"`H c #938c84",
"`I c #e69949",
"`J c #f17f07",
"`K c #f07e07",
"`L c #dddbd3",
"`M c #9b998a",
"`N c #9a9989",
"`O c #9a9889",
"`P c #989887",
"`Q c #dfa253",
"`R c #e78c1a",
"`S c #e78d19",
"`T c #e68c19",
"`U c #dfded4",
"`V c #a2a58d",
"`W c #a1a48c",
"`X c #9fa38b",
"`Y c #9ea28a",
"`Z c #d9ab5e",
"`0 c #e1992b",
"`1 c #e0992a",
"`2 c #e09829",
"`3 c #df9829",
"`4 c #7ad421",
"`5 c #9ccd65",
"`6 c #a8af91",
"`7 c #a6ae90",
"`8 c #a5ac8f",
".` c #a4ab8d",
".. c #d5b267",
".# c #daa53c",
".a c #d9a43b",
".b c #d8a33b",
".c c #d7a23a",
".d c #88d938",
".e c #a4d270",
".f c #adb895",
".g c #adb795",
".h c #abb593",
".i c #aab492",
".j c #d0b970",
".k c #d5af4c",
".l c #d3ae4b",
".m c #d2ad4b",
".n c #d1ac4a",
".o c #96dc4e",
".p c #97dc4f",
".q c #96dc4f",
".r c #acd67c",
".s c #b4c09b",
".t c #b2be99",
".u c #b0bd97",
".v c #afbb95",
".w c #cebf7a",
".x c #d0b75c",
".y c #cfb65b",
".z c #cdb55a",
".A c #ccb358",
".B c #a5e167",
".C c #a5e166",
".D c #a4e065",
".E c #b2d986",
".F c #b8c79e",
".G c #b6c59d",
".H c #b4c39b",
".I c #b2c299",
".J c #cac484",
".K c #ccbf6b",
".L c #cabe69",
".M c #c8bc68",
".N c #c7ba67",
".O c #b3e67e",
".P c #b2e57c",
".Q c #b0e37b",
".R c #bbdc93",
".S c #bdcda4",
".T c #bbcba2",
".U c #b9c9a0",
".V c #b7c79e",
".W c #c7c98d",
".X c #c9c57a",
".Y c #c7c478",
".Z c #c6c276",
".0 c #c3c074",
".1 c #c2ea95",
".2 c #c0e995",
".3 c #bfe693",
".4 c #bde591",
".5 c #c2de9f",
".6 c #c2d1a9",
".7 c #bfcfa7",
".8 c #bdcda5",
"#` c #bbcba3",
"#. c #c8cd96",
"## c #c7cb88",
"#a c #c6c885",
"#b c #c3c683",
"#c c #c1c482",
"#d c #cfedab",
"#e c #cdeba9",
"#f c #cae9a7",
"#g c #c8e7a4",
"#h c #cae1ad",
"#i c #c7d6ae",
"#j c #c5d3ac",
"#k c #c2d1aa",
"#l c #c0cfa7",
"#m c #c7d1a1",
"#n c #c7cd95",
"#o c #c5cb93",
"#p c #c3c890",
"#q c #c0c68e",
"#r c #1b1b1b",
"#s c #000000",
"#t c #000000",
"#u c #000000",
"#v c #000000",
"#w c #000000",
"#x c #000000",
"#y c #000000",
"#z c #000000",
"#A c #000000",
"#B c #000000",
"#C c #000000",
"#D c #000000",
"#E c #000000",
"#F c #000000",
"#G c #000000",
"#H c #000000",
"#I c #000000",
"#J c #000000",
"#K c #000000",
"#L c #000000",
"#M c #000000",
"#N c #000000",
"#O c #000000",
"#P c #000000",
"#Q c #000000",
"#R c #000000",
"#S c #000000",
"#T c #000000",
"#U c #000000",
"#V c #000000",
"#W c #000000",
"#X c #000000",
"#Y c #000000",
"#Z c #000000",
"#0 c #000000",
"#1 c #000000",
"#2 c #000000",
"#3 c #000000",
"#4 c #000000",
"#5 c #000000",
"#6 c #000000",
"#7 c #000000",
"#8 c #000000",
"a` c #000000",
"a. c #000000",
"a# c #000000",
"aa c #000000",
"ab c #000000",
"ac c #000000",
"ad c #000000",
"ae c #000000",
"af c #000000",
"ag c #000000",
"ah c #000000",
"ai c #000000",
"aj c #000000",
"ak c #000000",
"al c #000000",
"am c #000000",
"an c #000000",
"ao c #000000",
"ap c #000000",
"aq c #000000",
"ar c #000000",
"as c #000000",
"at c #000000",
"au c #000000",
"av c #000000",
"aw c #000000",
"ax c #000000",
"ay c #000000",
"az c #000000",
"aA c #000000",
"aB c #000000",
"aC c #000000",
"aD c #000000",
"aE c #000000",
"aF c #000000",
"aG c #000000",
"aH c #000000",
"aI c #000000",
"aJ c #000000",
"aK c #000000",
"aL c #000000",
"aM c #000000",
"aN c #000000",
"aO c #000000",
"aP c #000000",
"aQ c #000000",
"aR c #000000",
"aS c #000000",
"aT c #000000",
"aU c #000000",
"aV c #000000",
"aW c #000000",
"aX c #000000",
"aY c #000000",
"aZ c #000000",
"a0 c #000000",
"a1 c #000000",
"a2 c #000000",
"a3 c #000000",
"a4 c #000000",
"a5 c #000000",
"a6 c #000000",
"a7 c #000000",
"a8 c #000000",
/* pixels */
"```.`.`.`.`.`.`.`.`.`.`.`.`.`.`#",
"`.`a`a`a`a`b`c`c`c`c`b`d`e`f`g`.",
"`.`a`a`a`a`h`i`i`i`i`j`k`l`m`n`.",
"`.`a`a`a`a`o`p`q`q`q`r`s`t`u`v`.",
"`.`a`a`a`a`w`x`x`x`y`z`A`B`C`D`.",
"`.`a`a`a`a`E`F`F`G`H`I`J`K`K`K`.",
"`.`a`a`a`a`L`M`N`O`P`Q`R`S`S`T`.",
"`.`a`a`a`a`U`V`W`X`Y`Z`0`1`2`3`.",
"`.`4`4`4`4`5`6`7`8.`...#.a.b.c`.",
"`..d.d.d.d.e.f.g.h.i.j.k.l.m.n`.",
"`..o.p.p.q.r.s.t.u.v.w.x.y.z.A`.",
"`..B.B.C.D.E.F.G.H.I.J.K.L.M.N`.",
"`..O.O.P.Q.R.S.T.U.V.W.X.Y.Z.0`.",
"`..1.2.3.4.5.6.7.8#`#.###a#b#c`.",
"`.#d#e#f#g#h#i#j#k#l#m#n#o#p#q`.",
"```.`.`.`.`.`.`.`.`.`.`.`.`.`.#r"
};
