/* XPM */
static char *add_xml_text_node_xpm[] = {
/* width height num_colors chars_per_pixel */
"    24    24      256            2",
/* colors */
"`` c #1d1d1d",
"`. c #000000",
"`# c #191919",
"`a c #e4e4e0",
"`b c #ffffff",
"`c c #fcfcfc",
"`d c #f9f9f9",
"`e c #f6f6f6",
"`f c #f2f2f2",
"`g c #efefef",
"`h c #ececec",
"`i c #e9e9e9",
"`j c #e6e6e6",
"`k c #e3e3e3",
"`l c #dfdfdf",
"`m c #dcdcdc",
"`n c #060606",
"`o c #b9b9b6",
"`p c #f7f7f7",
"`q c #070707",
"`r c #f3f3f3",
"`s c #e0e0e0",
"`t c #d9d9d9",
"`u c #f0f0f0",
"`v c #ededed",
"`w c #dddddd",
"`x c #dadada",
"`y c #d6d6d6",
"`z c #fafafa",
"`A c #f1f1f1",
"`B c #f5f5f5",
"`C c #eeeeee",
"`D c #ebebeb",
"`E c #eaeaea",
"`F c #d7d7d7",
"`G c #d3d3d3",
"`H c #757575",
"`I c #080808",
"`J c #fdfdfd",
"`K c #787878",
"`L c #e7e7e7",
"`M c #666666",
"`N c #565656",
"`O c #d4d4d4",
"`P c #d1d1d1",
"`Q c #212121",
"`R c #b7b7b7",
"`S c #2c2c2c",
"`T c #e4e4e4",
"`U c #bababa",
"`V c #c9c9c9",
"`W c #181818",
"`X c #cacaca",
"`Y c #cecece",
"`Z c #040404",
"`0 c #0e0e0e",
"`1 c #030303",
"`2 c #cfcfcf",
"`3 c #cbcbcb",
"`4 c #222222",
"`5 c #050505",
"`6 c #a9a9a9",
"`7 c #dedede",
"`8 c #aeaeae",
".` c #cdcdcd",
".. c #c8c8c8",
".# c #7b7b7b",
".a c #020202",
".b c #0a0a0a",
".c c #424242",
".d c #0f0f0f",
".e c #7a7a7a",
".f c #dbdbdb",
".g c #6b6b6b",
".h c #0c0c0c",
".i c #c5c5c5",
".j c #fefefe",
".k c #fbfbfb",
".l c #f8f8f8",
".m c #e8e8e8",
".n c #e5e5e5",
".o c #e2e2e2",
".p c #d8d8d8",
".q c #d5d5d5",
".r c #d2d2d2",
".s c #c2c2c2",
".t c #cccccc",
".u c #bfbfbf",
".v c #c6c6c6",
".w c #bcbcbc",
".x c #afafaf",
".y c #1e1e1e",
".z c #1a1a1a",
".A c #a3a3a3",
".B c #c3c3c3",
".C c #c0c0c0",
".D c #b9b9b9",
".E c #141414",
".F c #b0b0b0",
".G c #a2a2a2",
".H c #101010",
".I c #9f9f9f",
".J c #d0d0d0",
".K c #5a5a5a",
".L c #4f4f4f",
".M c #494949",
".N c #3c3c3c",
".O c #353535",
".P c #2e2e2e",
".Q c #313131",
".R c #9c9c9c",
".S c #9a9a9a",
".T c #2d2d2d",
".U c #818181",
".V c #686868",
".W c #121212",
".X c #575757",
".Y c #272727",
".Z c #151515",
".0 c #aaaaaa",
".1 c #959595",
".2 c #c7c7c7",
".3 c #515151",
".4 c #ababab",
".5 c #969696",
".6 c #c4c4c4",
".7 c #4b4b4b",
".8 c #1c1c1c",
"#` c #e1e1e1",
"#. c #a7a7a7",
"## c #c1c1c1",
"#a c #454545",
"#b c #161616",
"#c c #bebebe",
"#d c #3f3f3f",
"#e c #bbbbbb",
"#f c #393939",
"#g c #0d0d0d",
"#h c #333333",
"#i c #babab7",
"#j c #363636",
"#k c #303030",
"#l c #2b2b2b",
"#m c #242424",
"#n c #1f1f1e",
"#o c #1c1c1b",
"#p c #000000",
"#q c #000000",
"#r c #000000",
"#s c #000000",
"#t c #000000",
"#u c #000000",
"#v c #000000",
"#w c #000000",
"#x c #000000",
"#y c #000000",
"#z c #000000",
"#A c #000000",
"#B c #000000",
"#C c #000000",
"#D c #000000",
"#E c #000000",
"#F c #000000",
"#G c #000000",
"#H c #000000",
"#I c #000000",
"#J c #000000",
"#K c #000000",
"#L c #000000",
"#M c #000000",
"#N c #000000",
"#O c #000000",
"#P c #000000",
"#Q c #000000",
"#R c #000000",
"#S c #000000",
"#T c #000000",
"#U c #000000",
"#V c #000000",
"#W c #000000",
"#X c #000000",
"#Y c #000000",
"#Z c #000000",
"#0 c #000000",
"#1 c #000000",
"#2 c #000000",
"#3 c #000000",
"#4 c #000000",
"#5 c #000000",
"#6 c #000000",
"#7 c #000000",
"#8 c #000000",
"a` c #000000",
"a. c #000000",
"a# c #000000",
"aa c #000000",
"ab c #000000",
"ac c #000000",
"ad c #000000",
"ae c #000000",
"af c #000000",
"ag c #000000",
"ah c #000000",
"ai c #000000",
"aj c #000000",
"ak c #000000",
"al c #000000",
"am c #000000",
"an c #000000",
"ao c #000000",
"ap c #000000",
"aq c #000000",
"ar c #000000",
"as c #000000",
"at c #000000",
"au c #000000",
"av c #000000",
"aw c #000000",
"ax c #000000",
"ay c #000000",
"az c #000000",
"aA c #000000",
"aB c #000000",
"aC c #000000",
"aD c #000000",
"aE c #000000",
"aF c #000000",
"aG c #000000",
"aH c #000000",
"aI c #000000",
"aJ c #000000",
"aK c #000000",
"aL c #000000",
"aM c #000000",
"aN c #000000",
"aO c #000000",
"aP c #000000",
"aQ c #000000",
"aR c #000000",
"aS c #000000",
"aT c #000000",
"aU c #000000",
"aV c #000000",
"aW c #000000",
"aX c #000000",
"aY c #000000",
"aZ c #000000",
"a0 c #000000",
"a1 c #000000",
"a2 c #000000",
"a3 c #000000",
"a4 c #000000",
"a5 c #000000",
"a6 c #000000",
"a7 c #000000",
"a8 c #000000",
/* pixels */
"```.`.`.`.`.`.`.`.`.`.`.`.`.`.`.`.`.`.`.`.`.`#`a",
"`.`b`b`b`b`b`b`b`b`b`b`c`d`e`f`g`h`i`j`k`l`m`n`o",
"`.`b`b`b`b`b`b`b`p`q`c`d`e`r`g`h`i`j`k`s`m`t`n`o",
"`.`b`b`b`b`b`b`b`p`q`d`e`r`u`v`i`j`k`s`w`x`y`n`o",
"`.`b`b`z`p`p`A`b`B`q`C`D`h`v`E`j`l`t`x`x`F`G`n`o",
"`.`b`H`I`q`q`.`J`f`.`q`q`I`K`L`M`n`n`q`N`O`P`n`o",
"`.`b`Q`F`b`p`q`z`g`q`u`v`R`S`T```U`x`V`W`X`Y`n`o",
"`.`J`Z`z`b`B`q`p`h`q`v`E`y`0`l`1`F`F`O`2`Y`3`n`o",
"`.`b`4`Y`d`u`n`A`h`5`k`s`6`S`7```8.``X..`3..`n`o",
"`.`b.#`0`5.a.a.b`C.c`n`n.d.e.f.g.h`n`n.h...i`n`o",
"`.`b.j.k.l`B`A`h`D.m.n.o`7.f.p.q.r`2`3...i.s`n`o",
"`..j.k.l`B`f`C`D.m.n.o`l`m.p.q.r`2.t...i.s.u`n`o",
"`..k.l`B`f`g.o.m.n`F`l`m`t.q.r`2.t`V.v.s.u.w`n`o",
"`..l`B`f`g.x.y`w`F.z.A`t`y.r`2.t`V.v.B.C.w.D`n`o",
"`.`e`f`g.x.E.F`k`l.G.H.I`G.J.K.K`N.L.M.c.N.O.P.Q",
"`.`r`g.x.E.F`k`s`m`t.R.d.S.`.K`b`b`b`b`b`b`b`f.T",
"`.`u.o.E.U`k`s`w`x`y`G.V.W.B.X`b`b`b`.`.`b`b`A.Y",
"`.`v`E.F.Z.0`w`x`F`G.1.H.S.2.3`b`b`b`.`.`b`b`A`Q",
"`.`E`L`k.4.E.G`F`O.5.H.S.2.6.7`b`.`.`.`.`.`q`u.8",
"`.`L`T#``w#..y.`.2`#.S.2.6###a`b`.`.`.`.`.`q`u#b",
"`.`T#``7.f`F.``P`Y.6.2.6###c#d`b`b`b`.`.`b`b`u.H",
"`.#``7.f.p`O`P`Y`3...i###c#e#f`b`b`b`.`.`b`b`g#g",
"`#`n`n`n`n`n`n`n`n`n`n`n`n`n#h`f`A`A`A`u`u`g`s#g",
"`a#i`o`o`o`o`o`o`o`o`o`o`o`o#j#k#l#m#n`W.W#g#g#o"
};
