/* XPM */
static char *adjust_pivot_vertical_center_xpm[] = {
/* width height num_colors chars_per_pixel */
"    22    22      256            2",
/* colors */
"`` c #000000",
"`. c #3a3a3a",
"`# c #797979",
"`a c #a75050",
"`b c #9e5757",
"`c c #ffffff",
"`d c #ff8787",
"`e c #ffa0a0",
"`f c #ff8686",
"`g c #ffa1a1",
"`h c #ff8484",
"`i c #ffa2a2",
"`j c #ff8383",
"`k c #ffa4a4",
"`l c #ff8282",
"`m c #ffa5a5",
"`n c #ff8080",
"`o c #ffa6a6",
"`p c #a049ae",
"`q c #b671be",
"`r c #7a8cfc",
"`s c #121bf2",
"`t c #242bee",
"`u c #a0aefd",
"`v c #2c4afb",
"`w c #0025fb",
"`x c #687dfd",
"`y c #f6f6ff",
"`z c #350ee2",
"`A c #6337d7",
"`B c #f8f8ff",
"`C c #ff7b7b",
"`D c #ffadad",
"`E c #ff7979",
"`F c #ffafaf",
"`G c #ff7878",
"`H c #ffb0b0",
"`I c #ff7777",
"`J c #ffb1b1",
"`K c #ff7575",
"`L c #ffb3b3",
"`M c #ff7474",
"`N c #ffb4b4",
"`O c #af4848",
"`P c #945f5f",
"`Q c #000000",
"`R c #000000",
"`S c #000000",
"`T c #000000",
"`U c #000000",
"`V c #000000",
"`W c #000000",
"`X c #000000",
"`Y c #000000",
"`Z c #000000",
"`0 c #000000",
"`1 c #000000",
"`2 c #000000",
"`3 c #000000",
"`4 c #000000",
"`5 c #000000",
"`6 c #000000",
"`7 c #000000",
"`8 c #000000",
".` c #000000",
".. c #000000",
".# c #000000",
".a c #000000",
".b c #000000",
".c c #000000",
".d c #000000",
".e c #000000",
".f c #000000",
".g c #000000",
".h c #000000",
".i c #000000",
".j c #000000",
".k c #000000",
".l c #000000",
".m c #000000",
".n c #000000",
".o c #000000",
".p c #000000",
".q c #000000",
".r c #000000",
".s c #000000",
".t c #000000",
".u c #000000",
".v c #000000",
".w c #000000",
".x c #000000",
".y c #000000",
".z c #000000",
".A c #000000",
".B c #000000",
".C c #000000",
".D c #000000",
".E c #000000",
".F c #000000",
".G c #000000",
".H c #000000",
".I c #000000",
".J c #000000",
".K c #000000",
".L c #000000",
".M c #000000",
".N c #000000",
".O c #000000",
".P c #000000",
".Q c #000000",
".R c #000000",
".S c #000000",
".T c #000000",
".U c #000000",
".V c #000000",
".W c #000000",
".X c #000000",
".Y c #000000",
".Z c #000000",
".0 c #000000",
".1 c #000000",
".2 c #000000",
".3 c #000000",
".4 c #000000",
".5 c #000000",
".6 c #000000",
".7 c #000000",
".8 c #000000",
"#` c #000000",
"#. c #000000",
"## c #000000",
"#a c #000000",
"#b c #000000",
"#c c #000000",
"#d c #000000",
"#e c #000000",
"#f c #000000",
"#g c #000000",
"#h c #000000",
"#i c #000000",
"#j c #000000",
"#k c #000000",
"#l c #000000",
"#m c #000000",
"#n c #000000",
"#o c #000000",
"#p c #000000",
"#q c #000000",
"#r c #000000",
"#s c #000000",
"#t c #000000",
"#u c #000000",
"#v c #000000",
"#w c #000000",
"#x c #000000",
"#y c #000000",
"#z c #000000",
"#A c #000000",
"#B c #000000",
"#C c #000000",
"#D c #000000",
"#E c #000000",
"#F c #000000",
"#G c #000000",
"#H c #000000",
"#I c #000000",
"#J c #000000",
"#K c #000000",
"#L c #000000",
"#M c #000000",
"#N c #000000",
"#O c #000000",
"#P c #000000",
"#Q c #000000",
"#R c #000000",
"#S c #000000",
"#T c #000000",
"#U c #000000",
"#V c #000000",
"#W c #000000",
"#X c #000000",
"#Y c #000000",
"#Z c #000000",
"#0 c #000000",
"#1 c #000000",
"#2 c #000000",
"#3 c #000000",
"#4 c #000000",
"#5 c #000000",
"#6 c #000000",
"#7 c #000000",
"#8 c #000000",
"a` c #000000",
"a. c #000000",
"a# c #000000",
"aa c #000000",
"ab c #000000",
"ac c #000000",
"ad c #000000",
"ae c #000000",
"af c #000000",
"ag c #000000",
"ah c #000000",
"ai c #000000",
"aj c #000000",
"ak c #000000",
"al c #000000",
"am c #000000",
"an c #000000",
"ao c #000000",
"ap c #000000",
"aq c #000000",
"ar c #000000",
"as c #000000",
"at c #000000",
"au c #000000",
"av c #000000",
"aw c #000000",
"ax c #000000",
"ay c #000000",
"az c #000000",
"aA c #000000",
"aB c #000000",
"aC c #000000",
"aD c #000000",
"aE c #000000",
"aF c #000000",
"aG c #000000",
"aH c #000000",
"aI c #000000",
"aJ c #000000",
"aK c #000000",
"aL c #000000",
"aM c #000000",
"aN c #000000",
"aO c #000000",
"aP c #000000",
"aQ c #000000",
"aR c #000000",
"aS c #000000",
"aT c #000000",
"aU c #000000",
"aV c #000000",
"aW c #000000",
"aX c #000000",
"aY c #000000",
"aZ c #000000",
"a0 c #000000",
"a1 c #000000",
"a2 c #000000",
"a3 c #000000",
"a4 c #000000",
"a5 c #000000",
"a6 c #000000",
"a7 c #000000",
"a8 c #000000",
/* pixels */
"````````````````````````````````````````````",
"````````````````````````````````````````````",
"`````.`#`#`#`#`#`#`#`a`b`#`#`#`#`#`#`#`.````",
"`````#`c`c`c`c`c`c`c`d`e`c`c`c`c`c`c`c`#````",
"`````#`c`c`c`c`c`c`c`f`g`c`c`c`c`c`c`c`#````",
"`````#`c`c`c`c`c`c`c`h`i`c`c`c`c`c`c`c`#````",
"`````#`c`c`c`c`c`c`c`j`k`c`c`c`c`c`c`c`#````",
"`````#`c`c`c`c`c`c`c`l`m`c`c`c`c`c`c`c`#````",
"`````#`c`c`c`c`c`c`c`n`o`c`c`c`c`c`c`c`#````",
"`````#`c`c`c`c`c`c`c`p`q`c`c`c`c`c`c`c`#````",
"`````#`c`c`c`c`c`c`r`s`t`u`c`c`c`c`c`c`#````",
"`````#`c`c`c`c`c`c`v`w`w`x`c`c`c`c`c`c`#````",
"`````#`c`c`c`c`c`c`y`z`A`B`c`c`c`c`c`c`#````",
"`````#`c`c`c`c`c`c`c`C`D`c`c`c`c`c`c`c`#````",
"`````#`c`c`c`c`c`c`c`E`F`c`c`c`c`c`c`c`#````",
"`````#`c`c`c`c`c`c`c`G`H`c`c`c`c`c`c`c`#````",
"`````#`c`c`c`c`c`c`c`I`J`c`c`c`c`c`c`c`#````",
"`````#`c`c`c`c`c`c`c`K`L`c`c`c`c`c`c`c`#````",
"`````#`c`c`c`c`c`c`c`M`N`c`c`c`c`c`c`c`#````",
"`````.`#`#`#`#`#`#`#`O`P`#`#`#`#`#`#`#`.````",
"````````````````````````````````````````````",
"````````````````````````````````````````````"
};
