/* XPM */
static char *adjust_frame_bottomcenter_xpm[] = {
/* width height num_colors chars_per_pixel */
"    22    22      256            2",
/* colors */
"`` c #000000",
"`. c #070707",
"`# c #3d3d3d",
"`a c #747474",
"`b c #777777",
"`c c #a74d4d",
"`d c #9c5656",
"`e c #636363",
"`f c #222222",
"`g c #020202",
"`h c #2f2f2f",
"`i c #151515",
"`j c #8a8a8a",
"`k c #f2f2f2",
"`l c #ffffff",
"`m c #ff8686",
"`n c #ffa1a1",
"`o c #c5c5c5",
"`p c #4d4d4d",
"`q c #010101",
"`r c #313131",
"`s c #6e6e6e",
"`t c #0b0b0b",
"`u c #8e8e8e",
"`v c #ff8484",
"`w c #ffa3a3",
"`x c #dbdbdb",
"`y c #494949",
"`z c #6c6c6c",
"`A c #686868",
"`B c #0f0f0f",
"`C c #292929",
"`D c #e3e3e3",
"`E c #ff8383",
"`F c #ffa4a4",
"`G c #c8c8c8",
"`H c #2b2b2b",
"`I c #4b4b4b",
"`J c #676767",
"`K c #d9d9d9",
"`L c #909090",
"`M c #bebebe",
"`N c #2e2e2e",
"`O c #e5e5e5",
"`P c #ff8282",
"`Q c #ffa5a5",
"`R c #cacaca",
"`S c #d7d7d7",
"`T c #fefefe",
"`U c #bababa",
"`V c #303030",
"`W c #e7e7e7",
"`X c #ff8080",
"`Y c #ffa7a7",
"`Z c #cbcbcb",
"`0 c #2a2a2a",
"`1 c #dadada",
"`2 c #b7b7b7",
"`3 c #e9e9e9",
"`4 c #ffa8a8",
"`5 c #cccccc",
"`6 c #b4b4b4",
"`7 c #787878",
"`8 c #ff7f7f",
".` c #fda8a8",
".. c #4a4a4a",
".# c #d8d8d8",
".a c #ff7d7d",
".b c #ffabab",
".c c #ff7c7c",
".d c #ffacac",
".e c #cecece",
".f c #656565",
".g c #ff7a7a",
".h c #ffaeae",
".i c #c2c2c2",
".j c #cfcfcf",
".k c #ff7979",
".l c #ffafaf",
".m c #e0e0e0",
".n c #2c2c2c",
".o c #d6d6d6",
".p c #a446a8",
".q c #b978c3",
".r c #d0d0d0",
".s c #856969",
".t c #e3afaf",
".u c #b37f7f",
".v c #d6a2a2",
".w c #552121",
".x c #daa6a6",
".y c #fbc7c7",
".z c #7b75e2",
".A c #121af1",
".B c #2327eb",
".C c #9e8ada",
".D c #dba7a7",
".E c #562222",
".F c #dba8a8",
".G c #d6a3a3",
".H c #dfabab",
".I c #a04d4d",
".J c #be2929",
".K c #9e0a0a",
".L c #a30f0f",
".M c #e44f4f",
".N c #f35f5f",
".O c #2c2fdf",
".P c #0025fb",
".Q c #623cbb",
".R c #e14d4d",
".S c #a51010",
".T c #ac1717",
".U c #6f6f6f",
".V c #090909",
".W c #1b1b1b",
".X c #a3a3a3",
".Y c #f2f3ff",
".Z c #330ce2",
".0 c #633ada",
".1 c #f6f6ff",
".2 c #c3c3c3",
".3 c #393939",
".4 c #707070",
".5 c #323232",
".6 c #ff7272",
".7 c #ffb6b6",
".8 c #535353",
"#` c #3c3c3c",
"#. c #050505",
"## c #b04545",
"#a c #945e5e",
"#b c #626262",
"#c c #1e1e1e",
"#d c #030303",
"#e c #000000",
"#f c #000000",
"#g c #000000",
"#h c #000000",
"#i c #000000",
"#j c #000000",
"#k c #000000",
"#l c #000000",
"#m c #000000",
"#n c #000000",
"#o c #000000",
"#p c #000000",
"#q c #000000",
"#r c #000000",
"#s c #000000",
"#t c #000000",
"#u c #000000",
"#v c #000000",
"#w c #000000",
"#x c #000000",
"#y c #000000",
"#z c #000000",
"#A c #000000",
"#B c #000000",
"#C c #000000",
"#D c #000000",
"#E c #000000",
"#F c #000000",
"#G c #000000",
"#H c #000000",
"#I c #000000",
"#J c #000000",
"#K c #000000",
"#L c #000000",
"#M c #000000",
"#N c #000000",
"#O c #000000",
"#P c #000000",
"#Q c #000000",
"#R c #000000",
"#S c #000000",
"#T c #000000",
"#U c #000000",
"#V c #000000",
"#W c #000000",
"#X c #000000",
"#Y c #000000",
"#Z c #000000",
"#0 c #000000",
"#1 c #000000",
"#2 c #000000",
"#3 c #000000",
"#4 c #000000",
"#5 c #000000",
"#6 c #000000",
"#7 c #000000",
"#8 c #000000",
"a` c #000000",
"a. c #000000",
"a# c #000000",
"aa c #000000",
"ab c #000000",
"ac c #000000",
"ad c #000000",
"ae c #000000",
"af c #000000",
"ag c #000000",
"ah c #000000",
"ai c #000000",
"aj c #000000",
"ak c #000000",
"al c #000000",
"am c #000000",
"an c #000000",
"ao c #000000",
"ap c #000000",
"aq c #000000",
"ar c #000000",
"as c #000000",
"at c #000000",
"au c #000000",
"av c #000000",
"aw c #000000",
"ax c #000000",
"ay c #000000",
"az c #000000",
"aA c #000000",
"aB c #000000",
"aC c #000000",
"aD c #000000",
"aE c #000000",
"aF c #000000",
"aG c #000000",
"aH c #000000",
"aI c #000000",
"aJ c #000000",
"aK c #000000",
"aL c #000000",
"aM c #000000",
"aN c #000000",
"aO c #000000",
"aP c #000000",
"aQ c #000000",
"aR c #000000",
"aS c #000000",
"aT c #000000",
"aU c #000000",
"aV c #000000",
"aW c #000000",
"aX c #000000",
"aY c #000000",
"aZ c #000000",
"a0 c #000000",
"a1 c #000000",
"a2 c #000000",
"a3 c #000000",
"a4 c #000000",
"a5 c #000000",
"a6 c #000000",
"a7 c #000000",
"a8 c #000000",
/* pixels */
"````````````````````````````````````````````",
"````````````````````````````````````````````",
"`````.`#`a`b`b`b`b`b`c`d`b`b`b`b`b`e`f`g````",
"`````h```i`j`k`l`l`l`m`n`l`l`l`o`p`q```r````",
"`````s`.```t`u`l`l`l`v`w`l`l`l`x`y```.`z````",
"`````b`A`B`C`D`l`l`l`E`F`l`l`l`G`H`I`J`b````",
"`````b`K`L`M`N`O`l`l`P`Q`l`l`R`H`x`S`x`b````",
"`````b`l`T`l`U`V`W`l`X`Y`l`Z`0`1`l`l`l`b````",
"`````b`l`l`l`l`2`r`3`X`4`5`0`K`l`l`l`l`b````",
"`````b`l`l`l`l`l`6`7`8.`...#`l`l`l`l`l`b````",
"`````b`l`l`l`l`l`l`l.a.b`l`l`l`l`l`l`l`b````",
"`````b`l`l`l`l`l`l`l.c.d`l`l`l`l`l`l`l`b````",
"`````b`l`l`l`l`l.e.f.g.h`z.i`l`l`l`l`l`b````",
"`````b`l`l`l`l.j`0`S.k.l.m.n`R`l`l`l`l`b````",
"`````b`l`l`l.j`0.o`l.p.q`l`x`H.r`l`l`l`b````",
"````.s.t.u.v.w.x.y.z.A.B.C.y.D.E.F.G.H.s````",
"````.I.J.K.L.M.N.N.O.P.P.Q.N.N.R.S.T.J.I````",
"````.U.V``.W.X`l`l.Y.Z.0.1`l`l.2.3```t.4````",
"````.5``.V`s.m`l`l`l.6.7`l`l`l.j.8`q``#`````",
"````#..5.U`b`b`b`b`b###a`b`b`b`b`b#b#c#d````",
"````````````````````````````````````````````",
"````````````````````````````````````````````"
};
