/* XPM */
static char *adjust_pivot_vertical_center_xpm[] = {
/* width height num_colors chars_per_pixel */
"    20    20      256            2",
/* colors */
"`` c #000000",
"`. c #848484",
"`# c #b7b7b7",
"`a c #d46f6f",
"`b c #ce7b7b",
"`c c #ffffff",
"`d c #ff9595",
"`e c #ffaaaa",
"`f c #ff9494",
"`g c #ffabab",
"`h c #ff9292",
"`i c #ffadad",
"`j c #ff9191",
"`k c #ffaeae",
"`l c #ff8f8f",
"`m c #ffb0b0",
"`n c #c368a7",
"`o c #d18cbd",
"`p c #a1affd",
"`q c #2020ec",
"`r c #2f2feb",
"`s c #c0c8fe",
"`t c #5d75fb",
"`u c #0124fa",
"`v c #0225fa",
"`w c #93a3fc",
"`x c #6d2fc9",
"`y c #935dd1",
"`z c #ff8888",
"`A c #ffb7b7",
"`B c #ff8686",
"`C c #ffb9b9",
"`D c #ff8585",
"`E c #ffbaba",
"`F c #ff8383",
"`G c #ffbcbc",
"`H c #ff8282",
"`I c #ffbdbd",
"`J c #d95f5f",
"`K c #c88b8b",
"`L c #000000",
"`M c #000000",
"`N c #000000",
"`O c #000000",
"`P c #000000",
"`Q c #000000",
"`R c #000000",
"`S c #000000",
"`T c #000000",
"`U c #000000",
"`V c #000000",
"`W c #000000",
"`X c #000000",
"`Y c #000000",
"`Z c #000000",
"`0 c #000000",
"`1 c #000000",
"`2 c #000000",
"`3 c #000000",
"`4 c #000000",
"`5 c #000000",
"`6 c #000000",
"`7 c #000000",
"`8 c #000000",
".` c #000000",
".. c #000000",
".# c #000000",
".a c #000000",
".b c #000000",
".c c #000000",
".d c #000000",
".e c #000000",
".f c #000000",
".g c #000000",
".h c #000000",
".i c #000000",
".j c #000000",
".k c #000000",
".l c #000000",
".m c #000000",
".n c #000000",
".o c #000000",
".p c #000000",
".q c #000000",
".r c #000000",
".s c #000000",
".t c #000000",
".u c #000000",
".v c #000000",
".w c #000000",
".x c #000000",
".y c #000000",
".z c #000000",
".A c #000000",
".B c #000000",
".C c #000000",
".D c #000000",
".E c #000000",
".F c #000000",
".G c #000000",
".H c #000000",
".I c #000000",
".J c #000000",
".K c #000000",
".L c #000000",
".M c #000000",
".N c #000000",
".O c #000000",
".P c #000000",
".Q c #000000",
".R c #000000",
".S c #000000",
".T c #000000",
".U c #000000",
".V c #000000",
".W c #000000",
".X c #000000",
".Y c #000000",
".Z c #000000",
".0 c #000000",
".1 c #000000",
".2 c #000000",
".3 c #000000",
".4 c #000000",
".5 c #000000",
".6 c #000000",
".7 c #000000",
".8 c #000000",
"#` c #000000",
"#. c #000000",
"## c #000000",
"#a c #000000",
"#b c #000000",
"#c c #000000",
"#d c #000000",
"#e c #000000",
"#f c #000000",
"#g c #000000",
"#h c #000000",
"#i c #000000",
"#j c #000000",
"#k c #000000",
"#l c #000000",
"#m c #000000",
"#n c #000000",
"#o c #000000",
"#p c #000000",
"#q c #000000",
"#r c #000000",
"#s c #000000",
"#t c #000000",
"#u c #000000",
"#v c #000000",
"#w c #000000",
"#x c #000000",
"#y c #000000",
"#z c #000000",
"#A c #000000",
"#B c #000000",
"#C c #000000",
"#D c #000000",
"#E c #000000",
"#F c #000000",
"#G c #000000",
"#H c #000000",
"#I c #000000",
"#J c #000000",
"#K c #000000",
"#L c #000000",
"#M c #000000",
"#N c #000000",
"#O c #000000",
"#P c #000000",
"#Q c #000000",
"#R c #000000",
"#S c #000000",
"#T c #000000",
"#U c #000000",
"#V c #000000",
"#W c #000000",
"#X c #000000",
"#Y c #000000",
"#Z c #000000",
"#0 c #000000",
"#1 c #000000",
"#2 c #000000",
"#3 c #000000",
"#4 c #000000",
"#5 c #000000",
"#6 c #000000",
"#7 c #000000",
"#8 c #000000",
"a` c #000000",
"a. c #000000",
"a# c #000000",
"aa c #000000",
"ab c #000000",
"ac c #000000",
"ad c #000000",
"ae c #000000",
"af c #000000",
"ag c #000000",
"ah c #000000",
"ai c #000000",
"aj c #000000",
"ak c #000000",
"al c #000000",
"am c #000000",
"an c #000000",
"ao c #000000",
"ap c #000000",
"aq c #000000",
"ar c #000000",
"as c #000000",
"at c #000000",
"au c #000000",
"av c #000000",
"aw c #000000",
"ax c #000000",
"ay c #000000",
"az c #000000",
"aA c #000000",
"aB c #000000",
"aC c #000000",
"aD c #000000",
"aE c #000000",
"aF c #000000",
"aG c #000000",
"aH c #000000",
"aI c #000000",
"aJ c #000000",
"aK c #000000",
"aL c #000000",
"aM c #000000",
"aN c #000000",
"aO c #000000",
"aP c #000000",
"aQ c #000000",
"aR c #000000",
"aS c #000000",
"aT c #000000",
"aU c #000000",
"aV c #000000",
"aW c #000000",
"aX c #000000",
"aY c #000000",
"aZ c #000000",
"a0 c #000000",
"a1 c #000000",
"a2 c #000000",
"a3 c #000000",
"a4 c #000000",
"a5 c #000000",
"a6 c #000000",
"a7 c #000000",
"a8 c #000000",
/* pixels */
"````````````````````````````````````````",
"````````````````````````````````````````",
"`````.`#`#`#`#`#`#`a`b`#`#`#`#`#`#`.````",
"`````#`c`c`c`c`c`c`d`e`c`c`c`c`c`c`#````",
"`````#`c`c`c`c`c`c`f`g`c`c`c`c`c`c`#````",
"`````#`c`c`c`c`c`c`h`i`c`c`c`c`c`c`#````",
"`````#`c`c`c`c`c`c`j`k`c`c`c`c`c`c`#````",
"`````#`c`c`c`c`c`c`l`m`c`c`c`c`c`c`#````",
"`````#`c`c`c`c`c`c`n`o`c`c`c`c`c`c`#````",
"`````#`c`c`c`c`c`p`q`r`s`c`c`c`c`c`#````",
"`````#`c`c`c`c`c`t`u`v`w`c`c`c`c`c`#````",
"`````#`c`c`c`c`c`c`x`y`c`c`c`c`c`c`#````",
"`````#`c`c`c`c`c`c`z`A`c`c`c`c`c`c`#````",
"`````#`c`c`c`c`c`c`B`C`c`c`c`c`c`c`#````",
"`````#`c`c`c`c`c`c`D`E`c`c`c`c`c`c`#````",
"`````#`c`c`c`c`c`c`F`G`c`c`c`c`c`c`#````",
"`````#`c`c`c`c`c`c`H`I`c`c`c`c`c`c`#````",
"`````.`#`#`#`#`#`#`J`K`#`#`#`#`#`#`.````",
"````````````````````````````````````````",
"````````````````````````````````````````"
};
