/* XPM */
static char *adjust_pivot_bottom_right_xpm[] = {
/* width height num_colors chars_per_pixel */
"    22    22      256            2",
/* colors */
"`` c #000000",
"`. c #140000",
"`# c #3e3e3e",
"`a c #7d7d7d",
"`b c #916a6a",
"`c c #f70808",
"`d c #ffffff",
"`e c #ffd9d9",
"`f c #ff0f0f",
"`g c #ffdada",
"`h c #ffdede",
"`i c #ff0e0e",
"`j c #ffe0e0",
"`k c #ff0d0d",
"`l c #ffe2e2",
"`m c #ffe6e6",
"`n c #ff0c0c",
"`o c #ffe8e8",
"`p c #ff0b0b",
"`q c #ffebeb",
"`r c #ffeded",
"`s c #ff0a0a",
"`t c #ffefef",
"`u c #fff3f3",
"`v c #ff0909",
"`w c #fff5f5",
"`x c #b1a0f1",
"`y c #8f037b",
"`z c #dad5fb",
"`A c #040000",
"`B c #8e6d6d",
"`C c #ffc0c0",
"`D c #b58fcd",
"`E c #2126ec",
"`F c #1014f4",
"`G c #3236e8",
"`H c #7b687e",
"`I c #300000",
"`J c #fa0505",
"`K c #ff1212",
"`L c #a11866",
"`M c #0025fb",
"`N c #993d62",
"`O c #e9ecff",
"`P c #544cf3",
"`Q c #1d06ee",
"`R c #817ff7",
"`S c #7b7b81",
"`T c #cd2e2e",
"`U c #000000",
"`V c #000000",
"`W c #000000",
"`X c #000000",
"`Y c #000000",
"`Z c #000000",
"`0 c #000000",
"`1 c #000000",
"`2 c #000000",
"`3 c #000000",
"`4 c #000000",
"`5 c #000000",
"`6 c #000000",
"`7 c #000000",
"`8 c #000000",
".` c #000000",
".. c #000000",
".# c #000000",
".a c #000000",
".b c #000000",
".c c #000000",
".d c #000000",
".e c #000000",
".f c #000000",
".g c #000000",
".h c #000000",
".i c #000000",
".j c #000000",
".k c #000000",
".l c #000000",
".m c #000000",
".n c #000000",
".o c #000000",
".p c #000000",
".q c #000000",
".r c #000000",
".s c #000000",
".t c #000000",
".u c #000000",
".v c #000000",
".w c #000000",
".x c #000000",
".y c #000000",
".z c #000000",
".A c #000000",
".B c #000000",
".C c #000000",
".D c #000000",
".E c #000000",
".F c #000000",
".G c #000000",
".H c #000000",
".I c #000000",
".J c #000000",
".K c #000000",
".L c #000000",
".M c #000000",
".N c #000000",
".O c #000000",
".P c #000000",
".Q c #000000",
".R c #000000",
".S c #000000",
".T c #000000",
".U c #000000",
".V c #000000",
".W c #000000",
".X c #000000",
".Y c #000000",
".Z c #000000",
".0 c #000000",
".1 c #000000",
".2 c #000000",
".3 c #000000",
".4 c #000000",
".5 c #000000",
".6 c #000000",
".7 c #000000",
".8 c #000000",
"#` c #000000",
"#. c #000000",
"## c #000000",
"#a c #000000",
"#b c #000000",
"#c c #000000",
"#d c #000000",
"#e c #000000",
"#f c #000000",
"#g c #000000",
"#h c #000000",
"#i c #000000",
"#j c #000000",
"#k c #000000",
"#l c #000000",
"#m c #000000",
"#n c #000000",
"#o c #000000",
"#p c #000000",
"#q c #000000",
"#r c #000000",
"#s c #000000",
"#t c #000000",
"#u c #000000",
"#v c #000000",
"#w c #000000",
"#x c #000000",
"#y c #000000",
"#z c #000000",
"#A c #000000",
"#B c #000000",
"#C c #000000",
"#D c #000000",
"#E c #000000",
"#F c #000000",
"#G c #000000",
"#H c #000000",
"#I c #000000",
"#J c #000000",
"#K c #000000",
"#L c #000000",
"#M c #000000",
"#N c #000000",
"#O c #000000",
"#P c #000000",
"#Q c #000000",
"#R c #000000",
"#S c #000000",
"#T c #000000",
"#U c #000000",
"#V c #000000",
"#W c #000000",
"#X c #000000",
"#Y c #000000",
"#Z c #000000",
"#0 c #000000",
"#1 c #000000",
"#2 c #000000",
"#3 c #000000",
"#4 c #000000",
"#5 c #000000",
"#6 c #000000",
"#7 c #000000",
"#8 c #000000",
"a` c #000000",
"a. c #000000",
"a# c #000000",
"aa c #000000",
"ab c #000000",
"ac c #000000",
"ad c #000000",
"ae c #000000",
"af c #000000",
"ag c #000000",
"ah c #000000",
"ai c #000000",
"aj c #000000",
"ak c #000000",
"al c #000000",
"am c #000000",
"an c #000000",
"ao c #000000",
"ap c #000000",
"aq c #000000",
"ar c #000000",
"as c #000000",
"at c #000000",
"au c #000000",
"av c #000000",
"aw c #000000",
"ax c #000000",
"ay c #000000",
"az c #000000",
"aA c #000000",
"aB c #000000",
"aC c #000000",
"aD c #000000",
"aE c #000000",
"aF c #000000",
"aG c #000000",
"aH c #000000",
"aI c #000000",
"aJ c #000000",
"aK c #000000",
"aL c #000000",
"aM c #000000",
"aN c #000000",
"aO c #000000",
"aP c #000000",
"aQ c #000000",
"aR c #000000",
"aS c #000000",
"aT c #000000",
"aU c #000000",
"aV c #000000",
"aW c #000000",
"aX c #000000",
"aY c #000000",
"aZ c #000000",
"a0 c #000000",
"a1 c #000000",
"a2 c #000000",
"a3 c #000000",
"a4 c #000000",
"a5 c #000000",
"a6 c #000000",
"a7 c #000000",
"a8 c #000000",
/* pixels */
"````````````````````````````````````````````",
"```````````````````````````````````.````````",
"`````#`a`a`a`a`a`a`a`a`a`a`a`a`a`b`c`a`#````",
"`````a`d`d`d`d`d`d`d`d`d`d`d`d`d`e`f`d`a````",
"`````a`d`d`d`d`d`d`d`d`d`d`d`d`d`g`f`d`a````",
"`````a`d`d`d`d`d`d`d`d`d`d`d`d`d`h`i`d`a````",
"`````a`d`d`d`d`d`d`d`d`d`d`d`d`d`j`k`d`a````",
"`````a`d`d`d`d`d`d`d`d`d`d`d`d`d`l`k`d`a````",
"`````a`d`d`d`d`d`d`d`d`d`d`d`d`d`m`n`d`a````",
"`````a`d`d`d`d`d`d`d`d`d`d`d`d`d`o`p`d`a````",
"`````a`d`d`d`d`d`d`d`d`d`d`d`d`d`q`p`d`a````",
"`````a`d`d`d`d`d`d`d`d`d`d`d`d`d`r`s`d`a````",
"`````a`d`d`d`d`d`d`d`d`d`d`d`d`d`t`s`d`a````",
"`````a`d`d`d`d`d`d`d`d`d`d`d`d`d`u`v`d`a````",
"`````a`d`d`d`d`d`d`d`d`d`d`d`d`d`w`v`d`a````",
"`````a`d`d`d`d`d`d`d`d`d`d`d`d`d`x`y`z`a````",
"```A`B`h`h`h`h`h`h`h`h`e`C`C`C`D`E`F`G`H````",
"```I`J`s`s`s`K`K`K`K`K`K`K`K`K`L`M`M`M`N````",
"`````a`d`d`d`d`d`d`d`d`d`d`d`d`O`P`Q`R`S````",
"`````#`a`a`a`a`a`a`a`a`a`a`a`a`a`a`T`a`#````",
"````````````````````````````````````````````",
"````````````````````````````````````````````"
};
