/* XPM */
static char *adjust_pivot_bottom_center_xpm[] = {
/* width height num_colors chars_per_pixel */
"    22    22      256            2",
/* colors */
"`` c #000000",
"`. c #040000",
"`# c #100000",
"`a c #3e3e3e",
"`b c #7d7d7d",
"`c c #ca3333",
"`d c #db2323",
"`e c #ffffff",
"`f c #ff6969",
"`g c #ff4545",
"`h c #ff6b6b",
"`i c #ff4343",
"`j c #ff6d6d",
"`k c #ff4242",
"`l c #ff6f6f",
"`m c #ff4040",
"`n c #ff7171",
"`o c #ff3f3f",
"`p c #ff7373",
"`q c #ff3e3e",
"`r c #ff7575",
"`s c #ff3c3c",
"`t c #ff7777",
"`u c #ff3b3b",
"`v c #ff7878",
"`w c #ff3a3a",
"`x c #ff7b7b",
"`y c #ff3838",
"`z c #ff7c7c",
"`A c #ff7f7f",
"`B c #ff3636",
"`C c #943bac",
"`D c #881190",
"`E c #8e6d6d",
"`F c #ffdede",
"`G c #7d7ce9",
"`H c #1a17e8",
"`I c #1515ef",
"`J c #5853de",
"`K c #ffc0c0",
"`L c #8f6c6c",
"`M c #fa0606",
"`N c #ff0a0a",
"`O c #ff1111",
"`P c #ff1212",
"`Q c #581ba7",
"`R c #0025fb",
"`S c #2020db",
"`T c #ff1515",
"`U c #c83434",
"`V c #d7dcff",
"`W c #3911d8",
"`X c #2506e4",
"`Y c #c7ceff",
"`Z c #9b5f5f",
"`0 c #b84343",
"`1 c #000000",
"`2 c #000000",
"`3 c #000000",
"`4 c #000000",
"`5 c #000000",
"`6 c #000000",
"`7 c #000000",
"`8 c #000000",
".` c #000000",
".. c #000000",
".# c #000000",
".a c #000000",
".b c #000000",
".c c #000000",
".d c #000000",
".e c #000000",
".f c #000000",
".g c #000000",
".h c #000000",
".i c #000000",
".j c #000000",
".k c #000000",
".l c #000000",
".m c #000000",
".n c #000000",
".o c #000000",
".p c #000000",
".q c #000000",
".r c #000000",
".s c #000000",
".t c #000000",
".u c #000000",
".v c #000000",
".w c #000000",
".x c #000000",
".y c #000000",
".z c #000000",
".A c #000000",
".B c #000000",
".C c #000000",
".D c #000000",
".E c #000000",
".F c #000000",
".G c #000000",
".H c #000000",
".I c #000000",
".J c #000000",
".K c #000000",
".L c #000000",
".M c #000000",
".N c #000000",
".O c #000000",
".P c #000000",
".Q c #000000",
".R c #000000",
".S c #000000",
".T c #000000",
".U c #000000",
".V c #000000",
".W c #000000",
".X c #000000",
".Y c #000000",
".Z c #000000",
".0 c #000000",
".1 c #000000",
".2 c #000000",
".3 c #000000",
".4 c #000000",
".5 c #000000",
".6 c #000000",
".7 c #000000",
".8 c #000000",
"#` c #000000",
"#. c #000000",
"## c #000000",
"#a c #000000",
"#b c #000000",
"#c c #000000",
"#d c #000000",
"#e c #000000",
"#f c #000000",
"#g c #000000",
"#h c #000000",
"#i c #000000",
"#j c #000000",
"#k c #000000",
"#l c #000000",
"#m c #000000",
"#n c #000000",
"#o c #000000",
"#p c #000000",
"#q c #000000",
"#r c #000000",
"#s c #000000",
"#t c #000000",
"#u c #000000",
"#v c #000000",
"#w c #000000",
"#x c #000000",
"#y c #000000",
"#z c #000000",
"#A c #000000",
"#B c #000000",
"#C c #000000",
"#D c #000000",
"#E c #000000",
"#F c #000000",
"#G c #000000",
"#H c #000000",
"#I c #000000",
"#J c #000000",
"#K c #000000",
"#L c #000000",
"#M c #000000",
"#N c #000000",
"#O c #000000",
"#P c #000000",
"#Q c #000000",
"#R c #000000",
"#S c #000000",
"#T c #000000",
"#U c #000000",
"#V c #000000",
"#W c #000000",
"#X c #000000",
"#Y c #000000",
"#Z c #000000",
"#0 c #000000",
"#1 c #000000",
"#2 c #000000",
"#3 c #000000",
"#4 c #000000",
"#5 c #000000",
"#6 c #000000",
"#7 c #000000",
"#8 c #000000",
"a` c #000000",
"a. c #000000",
"a# c #000000",
"aa c #000000",
"ab c #000000",
"ac c #000000",
"ad c #000000",
"ae c #000000",
"af c #000000",
"ag c #000000",
"ah c #000000",
"ai c #000000",
"aj c #000000",
"ak c #000000",
"al c #000000",
"am c #000000",
"an c #000000",
"ao c #000000",
"ap c #000000",
"aq c #000000",
"ar c #000000",
"as c #000000",
"at c #000000",
"au c #000000",
"av c #000000",
"aw c #000000",
"ax c #000000",
"ay c #000000",
"az c #000000",
"aA c #000000",
"aB c #000000",
"aC c #000000",
"aD c #000000",
"aE c #000000",
"aF c #000000",
"aG c #000000",
"aH c #000000",
"aI c #000000",
"aJ c #000000",
"aK c #000000",
"aL c #000000",
"aM c #000000",
"aN c #000000",
"aO c #000000",
"aP c #000000",
"aQ c #000000",
"aR c #000000",
"aS c #000000",
"aT c #000000",
"aU c #000000",
"aV c #000000",
"aW c #000000",
"aX c #000000",
"aY c #000000",
"aZ c #000000",
"a0 c #000000",
"a1 c #000000",
"a2 c #000000",
"a3 c #000000",
"a4 c #000000",
"a5 c #000000",
"a6 c #000000",
"a7 c #000000",
"a8 c #000000",
/* pixels */
"````````````````````````````````````````````",
"`````````````````````.`#````````````````````",
"`````a`b`b`b`b`b`b`b`c`d`b`b`b`b`b`b`b`a````",
"`````b`e`e`e`e`e`e`e`f`g`e`e`e`e`e`e`e`b````",
"`````b`e`e`e`e`e`e`e`h`i`e`e`e`e`e`e`e`b````",
"`````b`e`e`e`e`e`e`e`j`k`e`e`e`e`e`e`e`b````",
"`````b`e`e`e`e`e`e`e`l`m`e`e`e`e`e`e`e`b````",
"`````b`e`e`e`e`e`e`e`n`o`e`e`e`e`e`e`e`b````",
"`````b`e`e`e`e`e`e`e`p`q`e`e`e`e`e`e`e`b````",
"`````b`e`e`e`e`e`e`e`r`s`e`e`e`e`e`e`e`b````",
"`````b`e`e`e`e`e`e`e`t`u`e`e`e`e`e`e`e`b````",
"`````b`e`e`e`e`e`e`e`v`w`e`e`e`e`e`e`e`b````",
"`````b`e`e`e`e`e`e`e`x`y`e`e`e`e`e`e`e`b````",
"`````b`e`e`e`e`e`e`e`z`y`e`e`e`e`e`e`e`b````",
"`````b`e`e`e`e`e`e`e`A`B`e`e`e`e`e`e`e`b````",
"`````b`e`e`e`e`e`e`e`C`D`e`e`e`e`e`e`e`b````",
"`````E`F`F`F`F`F`F`G`H`I`J`K`K`K`K`K`K`L````",
"`````M`N`N`N`O`P`P`Q`R`R`S`P`P`P`P`P`T`U````",
"`````b`e`e`e`e`e`e`V`W`X`Y`e`e`e`e`e`e`b````",
"`````a`b`b`b`b`b`b`b`Z`0`b`b`b`b`b`b`b`a````",
"````````````````````````````````````````````",
"````````````````````````````````````````````"
};
