/* XPM */
static char *adjust_frame_top_left_xpm[] = {
/* width height num_colors chars_per_pixel */
"    22    22      256            2",
/* colors */
"`` c #000000",
"`. c #080808",
"`# c #3a3a3a",
"`a c #a64747",
"`b c #995d5d",
"`c c #797979",
"`d c #646464",
"`e c #262626",
"`f c #020202",
"`g c #313131",
"`h c #1e03b9",
"`i c #4f2ca4",
"`j c #efefef",
"`k c #ffffff",
"`l c #c5c5c5",
"`m c #4b4b4b",
"`n c #010101",
"`o c #964c4c",
"`p c #1120dc",
"`q c #0125fa",
"`r c #6235a6",
"`s c #f56d6d",
"`t c #ee6666",
"`u c #b32b2b",
"`v c #880000",
"`w c #8b0303",
"`x c #974a4a",
"`y c #8a6767",
"`z c #3634b7",
"`A c #1c1ae2",
"`B c #1c1dd1",
"`C c #8f74c3",
"`D c #fab9b9",
"`E c #d69595",
"`F c #5f1e1e",
"`G c #8b4a4a",
"`H c #8a4949",
"`I c #8a6666",
"`J c #d8d8d8",
"`K c #5a21ae",
"`L c #8957ae",
"`M c #2b2b2b",
"`N c #e0e0e0",
"`O c #cecece",
"`P c #292929",
"`Q c #d6d6d6",
"`R c #e7e7e7",
"`S c #fe7373",
"`T c #ffb5b5",
"`U c #c2c2c2",
"`V c #303030",
"`W c #e5e5e5",
"`X c #ff7272",
"`Y c #ffb6b6",
"`Z c #bababa",
"`0 c #2e2e2e",
"`1 c #e6e6e6",
"`2 c #d5d5d5",
"`3 c #ff7070",
"`4 c #ffb8b8",
"`5 c #b4b4b4",
"`6 c #747474",
"`7 c #fefefe",
"`8 c #494949",
".` c #ff6f6f",
".. c #ffb9b9",
".# c #ff6d6d",
".a c #ffbaba",
".b c #ff6c6c",
".c c #ffbcbc",
".d c #626262",
".e c #6a6a6a",
".f c #c4c4c4",
".g c #ff6b6b",
".h c #ffbdbd",
".i c #d0d0d0",
".j c #d4d4d4",
".k c #e1e1e1",
".l c #2d2d2d",
".m c #cacaca",
".n c #ff6969",
".o c #ffbfbf",
".p c #dadada",
".q c #cdcdcd",
".r c #e2e2e2",
".s c #e44d4d",
".t c #dc9d9d",
".u c #d3d3d3",
".v c #d2d2d2",
".w c #282828",
".x c #dedede",
".y c #707070",
".z c #ac1414",
".A c #5c1e1e",
".B c #cfcfcf",
".C c #2c2c2c",
".D c #555555",
".E c #6d6d6d",
".F c #0a0a0a",
".G c #9b0101",
".H c #5f2323",
".I c #d9d9d9",
".J c #4c4c4c",
".K c #727272",
".L c #343434",
".M c #9e0303",
".N c #824747",
".O c #5d5d5d",
".P c #3c3c3c",
".Q c #050505",
".R c #323232",
".S c #b03d3d",
".T c #906565",
".U c #656565",
".V c #1f1f1f",
".W c #030303",
".X c #000000",
".Y c #000000",
".Z c #000000",
".0 c #000000",
".1 c #000000",
".2 c #000000",
".3 c #000000",
".4 c #000000",
".5 c #000000",
".6 c #000000",
".7 c #000000",
".8 c #000000",
"#` c #000000",
"#. c #000000",
"## c #000000",
"#a c #000000",
"#b c #000000",
"#c c #000000",
"#d c #000000",
"#e c #000000",
"#f c #000000",
"#g c #000000",
"#h c #000000",
"#i c #000000",
"#j c #000000",
"#k c #000000",
"#l c #000000",
"#m c #000000",
"#n c #000000",
"#o c #000000",
"#p c #000000",
"#q c #000000",
"#r c #000000",
"#s c #000000",
"#t c #000000",
"#u c #000000",
"#v c #000000",
"#w c #000000",
"#x c #000000",
"#y c #000000",
"#z c #000000",
"#A c #000000",
"#B c #000000",
"#C c #000000",
"#D c #000000",
"#E c #000000",
"#F c #000000",
"#G c #000000",
"#H c #000000",
"#I c #000000",
"#J c #000000",
"#K c #000000",
"#L c #000000",
"#M c #000000",
"#N c #000000",
"#O c #000000",
"#P c #000000",
"#Q c #000000",
"#R c #000000",
"#S c #000000",
"#T c #000000",
"#U c #000000",
"#V c #000000",
"#W c #000000",
"#X c #000000",
"#Y c #000000",
"#Z c #000000",
"#0 c #000000",
"#1 c #000000",
"#2 c #000000",
"#3 c #000000",
"#4 c #000000",
"#5 c #000000",
"#6 c #000000",
"#7 c #000000",
"#8 c #000000",
"a` c #000000",
"a. c #000000",
"a# c #000000",
"aa c #000000",
"ab c #000000",
"ac c #000000",
"ad c #000000",
"ae c #000000",
"af c #000000",
"ag c #000000",
"ah c #000000",
"ai c #000000",
"aj c #000000",
"ak c #000000",
"al c #000000",
"am c #000000",
"an c #000000",
"ao c #000000",
"ap c #000000",
"aq c #000000",
"ar c #000000",
"as c #000000",
"at c #000000",
"au c #000000",
"av c #000000",
"aw c #000000",
"ax c #000000",
"ay c #000000",
"az c #000000",
"aA c #000000",
"aB c #000000",
"aC c #000000",
"aD c #000000",
"aE c #000000",
"aF c #000000",
"aG c #000000",
"aH c #000000",
"aI c #000000",
"aJ c #000000",
"aK c #000000",
"aL c #000000",
"aM c #000000",
"aN c #000000",
"aO c #000000",
"aP c #000000",
"aQ c #000000",
"aR c #000000",
"aS c #000000",
"aT c #000000",
"aU c #000000",
"aV c #000000",
"aW c #000000",
"aX c #000000",
"aY c #000000",
"aZ c #000000",
"a0 c #000000",
"a1 c #000000",
"a2 c #000000",
"a3 c #000000",
"a4 c #000000",
"a5 c #000000",
"a6 c #000000",
"a7 c #000000",
"a8 c #000000",
/* pixels */
"````````````````````````````````````````````",
"````````````````````````````````````````````",
"`````.`#`a`b`c`c`c`c`c`c`c`c`c`c`c`d`e`f````",
"`````g```h`i`j`k`k`k`k`k`k`k`k`l`m`n```g````",
"`````o`p`q`q`r`s`s`s`s`s`s`s`s`t`u`v`w`x````",
"`````y`z`A`B`C`D`D`D`D`D`D`D`D`E`F`G`H`I````",
"`````c`J`K`L`M`N`k`k`k`k`k`k`O`P`Q`R`J`c````",
"`````c`k`S`T`U`V`W`k`k`k`k`O`P`Q`k`k`k`c````",
"`````c`k`X`Y`k`Z`0`1`k`k`O`P`2`k`k`k`k`c````",
"`````c`k`3`4`k`k`5`6`k`7`8`J`k`k`k`k`k`c````",
"`````c`k.`..`k`k`k`k`k`k`k`k`k`k`k`k`k`c````",
"`````c`k.#.a`k`k`k`k`k`k`k`k`k`k`k`k`k`c````",
"`````c`k.b.c`k`k`O.d`k`k.e.f`k`k`k`k`k`c````",
"`````c`k.g.h`k.i`P.j`k`k.k.l.m`k`k`k`k`c````",
"`````c`k.n.o.i`P.j`k`k`k`k.p`P.q`k`k`k`c````",
"`````c.r.s.t`P.u`k`k`k`k`k`k.v.w`2.x.p`c````",
"`````c.y.z.A.u`k`k`k`k`k`k`k`k.B.C.D.E`c````",
"````.y.F.G.H`Z`k`k`k`k`k`k`k`k.I.J``.F.K````",
"````.L``.M.N.p`k`k`k`k`k`k`k`k.v.O`f``.P````",
"````.Q.R.S.T`c`c`c`c`c`c`c`c`c`c`c.U.V.W````",
"````````````````````````````````````````````",
"````````````````````````````````````````````"
};
