/* XPM */
static char *al_bottom_out_xpm[] = {
/* width height num_colors chars_per_pixel */
"    24    24      256            2",
/* colors */
"`` c #e8e8e4",
"`. c #5b5b5b",
"`# c #424242",
"`a c #3b3b3b",
"`b c #343434",
"`c c #2e2e2e",
"`d c #3e3e3e",
"`e c #fdfaf4",
"`f c #fff1ca",
"`g c #ffe494",
"`h c #fdd76a",
"`i c #1d1d1d",
"`j c #fff5d9",
"`k c #ffc929",
"`l c #ffd352",
"`m c #ffcd38",
"`n c #131313",
"`o c #2a2a2a",
"`p c #ffecb3",
"`q c #ffd457",
"`r c #ffdf7f",
"`s c #ffc312",
"`t c #090909",
"`u c #202020",
"`v c #ffe28d",
"`w c #ffe085",
"`x c #ffeaad",
"`y c #ffbf00",
"`z c #000000",
"`A c #161616",
"`B c #fdda74",
"`C c #ffcb32",
"`D c #fdc51d",
"`E c #c80000",
"`F c #f8fafa",
"`G c #e1e9f2",
"`H c #c8d8e7",
"`I c #b4c9de",
"`J c #383838",
"`K c #fafbfc",
"`L c #f0f5f8",
"`M c #e0e9f2",
"`N c #d0ddeb",
"`O c #c3d4e5",
"`P c #aec5dc",
"`Q c #99b7d3",
"`R c #a1bcd6",
"`S c #363636",
"`T c #f7f9fb",
"`U c #acc4db",
"`V c #bfd1e3",
"`W c #a9c2da",
"`X c #303030",
"`Y c #f3f6fa",
"`Z c #b9cee1",
"`0 c #cad9e8",
"`1 c #dae5ef",
"`2 c #b2c8de",
"`3 c #cedcea",
"`4 c #98b6d3",
"`5 c #323232",
"`6 c #f2f6f9",
"`7 c #afc6dd",
"`8 c #c1d3e4",
".` c #a5bfd8",
".. c #282828",
".# c #e6edf4",
".a c #d2dfeb",
".b c #e2eaf2",
".c c #c2d4e5",
".d c #d1deeb",
".e c #2d2d2d",
".f c #eef3f7",
".g c #c4d5e6",
".h c #a0bcd6",
".i c #1f1f1f",
".j c #d8e3ee",
".k c #eaf0f6",
".l c #c5d6e6",
".m c #d4e0ec",
".n c #e9eff5",
".o c #b5cadf",
".p c #c7d7e7",
".q c #9bb8d4",
".r c #171717",
".s c #cbdae8",
".t c #d7e2ee",
".u c #232323",
".v c #e4ecf3",
".w c #b8cce0",
".x c #0f0f0f",
".y c #aec6dc",
".z c #9db8d4",
".A c #9ab8d4",
".B c #9db9d5",
".C c #e0e9f1",
".D c #bbcee2",
".E c #cddbe9",
".F c #222222",
".G c #030303",
".H c #050607",
".I c #020303",
".J c #17191c",
".K c #dde7f0",
".L c #1a1a1a",
".M c #dbe5ef",
".N c #bed0e3",
".O c #252525",
".P c #d7e3ee",
".Q c #151515",
".R c #d6e2ed",
".S c #c0d3e4",
".T c #d3e0ec",
".U c #b5cbdf",
".V c #e3ebf3",
".W c #111111",
".X c #c3d5e5",
".Y c #b8cde0",
".Z c #0c0c0c",
".0 c #cfdce9",
".1 c #b4cade",
".2 c #1b1b1b",
".3 c #bbcfe2",
".4 c #d9e4ef",
".5 c #e8eff5",
".6 c #030304",
".7 c #1c1c1c",
".8 c #181818",
"#` c #bed1e3",
"#. c #cddce9",
"## c #dce6f0",
"#a c #ebf1f6",
"#b c #d0deeb",
"#c c #dfe8f1",
"#d c #eef3f8",
"#e c #c4d5e5",
"#f c #f1f5f9",
"#g c #0e0e0e",
"#h c #c2d3e5",
"#i c #e5edf4",
"#j c #f4f7fa",
"#k c #0b0b0b",
"#l c #c2d3e3",
"#m c #aac3da",
"#n c #a2bdd6",
"#o c #000000",
"#p c #000000",
"#q c #000000",
"#r c #000000",
"#s c #000000",
"#t c #000000",
"#u c #000000",
"#v c #000000",
"#w c #000000",
"#x c #000000",
"#y c #000000",
"#z c #000000",
"#A c #000000",
"#B c #000000",
"#C c #000000",
"#D c #000000",
"#E c #000000",
"#F c #000000",
"#G c #000000",
"#H c #000000",
"#I c #000000",
"#J c #000000",
"#K c #000000",
"#L c #000000",
"#M c #000000",
"#N c #000000",
"#O c #000000",
"#P c #000000",
"#Q c #000000",
"#R c #000000",
"#S c #000000",
"#T c #000000",
"#U c #000000",
"#V c #000000",
"#W c #000000",
"#X c #000000",
"#Y c #000000",
"#Z c #000000",
"#0 c #000000",
"#1 c #000000",
"#2 c #000000",
"#3 c #000000",
"#4 c #000000",
"#5 c #000000",
"#6 c #000000",
"#7 c #000000",
"#8 c #000000",
"a` c #000000",
"a. c #000000",
"a# c #000000",
"aa c #000000",
"ab c #000000",
"ac c #000000",
"ad c #000000",
"ae c #000000",
"af c #000000",
"ag c #000000",
"ah c #000000",
"ai c #000000",
"aj c #000000",
"ak c #000000",
"al c #000000",
"am c #000000",
"an c #000000",
"ao c #000000",
"ap c #000000",
"aq c #000000",
"ar c #000000",
"as c #000000",
"at c #000000",
"au c #000000",
"av c #000000",
"aw c #000000",
"ax c #000000",
"ay c #000000",
"az c #000000",
"aA c #000000",
"aB c #000000",
"aC c #000000",
"aD c #000000",
"aE c #000000",
"aF c #000000",
"aG c #000000",
"aH c #000000",
"aI c #000000",
"aJ c #000000",
"aK c #000000",
"aL c #000000",
"aM c #000000",
"aN c #000000",
"aO c #000000",
"aP c #000000",
"aQ c #000000",
"aR c #000000",
"aS c #000000",
"aT c #000000",
"aU c #000000",
"aV c #000000",
"aW c #000000",
"aX c #000000",
"aY c #000000",
"aZ c #000000",
"a0 c #000000",
"a1 c #000000",
"a2 c #000000",
"a3 c #000000",
"a4 c #000000",
"a5 c #000000",
"a6 c #000000",
"a7 c #000000",
"a8 c #000000",
/* pixels */
"`````````````````````````````````````.`#`a`b`c`d",
"`````````````````````````````````````d`e`f`g`h`i",
"`````````````````````````````````````b`j`k`l`m`n",
"`````````````````````````````````````o`p`q`r`s`t",
"`````````````````````````````````````u`v`w`x`y`z",
"`````````````````````````````````````A`B`C`y`D`z",
"`E`E`E`E`E`E`E`E`E`E`E`E`E`E`E`E`E`E`E`E`E`E`E`E",
"```a`F`G`H`I`z```J`K`L`M`N`O`z`P`Q`R`z``````````",
"```S`T`U`V`W`z```X`Y`Z`0`1`2`z`V`3`4`z``````````",
"```5`6`7`8.``z``...#`8.a.b.``z.c.d`4`z``````````",
"``.e.f`2.g.h`z``.i.j`0`1.k`4`z.l.m`4`z``````````",
"``...n.o.p.q`z``.r.s.a.b`6`4`z`H.t`4`z``````````",
"``.u.v.w`0`4`z``.x`8.y.z.A.B`z.s`1`4`z``````````",
"``.i.C.D.E`4`z``.F.G.H.H.H.I.J`3.K`4`z``````````",
"``.L.M.N`N`4`z````````.O.P`2`8.d.C`4`z``````````",
"``.Q.R.S.T`4`z````````.F.m.U.g.m.V`4`z``````````",
"``.W.a.X.R`4`z````````.i.d.Y.p.R.#`4`z``````````",
"``.Z.0.1.q`R`z````````.2`3.3`0.4.5`4`z``````````",
"``.F.6.H.H.I.7````````.8.s#`#.###a`4`z``````````",
"``````````````````````.Q`H`8#b#c#d`4`z``````````",
"``````````````````````.W.l#e.T.b#f`4`z``````````",
"``````````````````````#g#h.p.R#i#j`4`z``````````",
"``````````````````````#k#l#m`4`4`4#n`z``````````",
"``````````````````````.F`z`z`z`z`z`z.7``````````"
};
