/* XPM */
static char *al_baselines_hor_xpm[] = {
/* width height num_colors chars_per_pixel */
"    24    24      256            2",
/* colors */
"`` c #e8e8e4",
"`. c #a4a4a1",
"`# c #242424",
"`a c #363635",
"`b c #c2c2be",
"`c c #81817f",
"`d c #181817",
"`e c #bebebb",
"`f c #0d0d0d",
"`g c #000000",
"`h c #323231",
"`i c #71716f",
"`j c #7f7f7d",
"`k c #d5d9d9",
"`l c #b4bfc7",
"`m c #a6b3c0",
"`n c #b6c0c9",
"`o c #dee0df",
"`p c #898987",
"`q c #c1c1be",
"`r c #979794",
"`s c #acb9c3",
"`t c #567495",
"`u c #788fa7",
"`v c #8398ad",
"`w c #56718c",
"`x c #506882",
"`y c #d7dad9",
"`z c #dededa",
"`A c #0f0f0e",
"`B c #565654",
"`C c #1a1a1a",
"`D c #c5c5c2",
"`E c #e5e6e2",
"`F c #6e87a1",
"`G c #a5b3c0",
"`H c #d9dbd9",
"`I c #3a5169",
"`J c #9fa8ae",
"`K c #626261",
"`L c #171716",
"`M c #dfdfdb",
"`N c #121212",
"`O c #e7e7e3",
"`P c #e4e5e2",
"`Q c #cacfd1",
"`R c #acb4ba",
"`S c #8a96a0",
"`T c #36485c",
"`U c #939aa0",
"`V c #9d9d9b",
"`W c #d4d4d0",
"`X c #b0b0ad",
"`Y c #5e5e5c",
"`Z c #9ba8b4",
"`0 c #475f79",
"`1 c #485d73",
"`2 c #697885",
"`3 c #8e979e",
"`4 c #313f4d",
"`5 c #8f9498",
"`6 c #d1d1ce",
"`7 c #b4b4b1",
"`8 c #656563",
".` c #bbbbb8",
".. c #c8cdd0",
".# c #3b536d",
".a c #aab2b6",
".b c #e1e2de",
".c c #1e2935",
".d c #868a8d",
".e c #161615",
".f c #828280",
".g c #40403f",
".h c #ced1d2",
".i c #33475d",
".j c #abb1b5",
".k c #e2e2df",
".l c #6c7277",
".m c #121a22",
".n c #787b7c",
".o c #e7e2de",
".p c #e7e1dd",
".q c #3a3837",
".r c #141313",
".s c #bbb6b3",
".t c #878d94",
".u c #35404e",
".v c #333d47",
".w c #222a33",
".x c #77787a",
".y c #4c4d4f",
".z c #4a4948",
".A c #ca0e0d",
".B c #c90606",
".C c #400202",
".D c #590303",
".E c #c80606",
".F c #b60809",
".G c #c70606",
".H c #3b3b3a",
".I c #191919",
".J c #ddddd9",
".K c #e2e2de",
".L c #cfcfcc",
".M c #1d1d1d",
".N c #020202",
".O c #292928",
".P c #787876",
".Q c #d6d6d2",
".R c #bdbdba",
".S c #4c4c4b",
".T c #393938",
".U c #050504",
".V c #141414",
".W c #ccccc8",
".X c #3a3a39",
".Y c #888885",
".Z c #000000",
".0 c #000000",
".1 c #000000",
".2 c #000000",
".3 c #000000",
".4 c #000000",
".5 c #000000",
".6 c #000000",
".7 c #000000",
".8 c #000000",
"#` c #000000",
"#. c #000000",
"## c #000000",
"#a c #000000",
"#b c #000000",
"#c c #000000",
"#d c #000000",
"#e c #000000",
"#f c #000000",
"#g c #000000",
"#h c #000000",
"#i c #000000",
"#j c #000000",
"#k c #000000",
"#l c #000000",
"#m c #000000",
"#n c #000000",
"#o c #000000",
"#p c #000000",
"#q c #000000",
"#r c #000000",
"#s c #000000",
"#t c #000000",
"#u c #000000",
"#v c #000000",
"#w c #000000",
"#x c #000000",
"#y c #000000",
"#z c #000000",
"#A c #000000",
"#B c #000000",
"#C c #000000",
"#D c #000000",
"#E c #000000",
"#F c #000000",
"#G c #000000",
"#H c #000000",
"#I c #000000",
"#J c #000000",
"#K c #000000",
"#L c #000000",
"#M c #000000",
"#N c #000000",
"#O c #000000",
"#P c #000000",
"#Q c #000000",
"#R c #000000",
"#S c #000000",
"#T c #000000",
"#U c #000000",
"#V c #000000",
"#W c #000000",
"#X c #000000",
"#Y c #000000",
"#Z c #000000",
"#0 c #000000",
"#1 c #000000",
"#2 c #000000",
"#3 c #000000",
"#4 c #000000",
"#5 c #000000",
"#6 c #000000",
"#7 c #000000",
"#8 c #000000",
"a` c #000000",
"a. c #000000",
"a# c #000000",
"aa c #000000",
"ab c #000000",
"ac c #000000",
"ad c #000000",
"ae c #000000",
"af c #000000",
"ag c #000000",
"ah c #000000",
"ai c #000000",
"aj c #000000",
"ak c #000000",
"al c #000000",
"am c #000000",
"an c #000000",
"ao c #000000",
"ap c #000000",
"aq c #000000",
"ar c #000000",
"as c #000000",
"at c #000000",
"au c #000000",
"av c #000000",
"aw c #000000",
"ax c #000000",
"ay c #000000",
"az c #000000",
"aA c #000000",
"aB c #000000",
"aC c #000000",
"aD c #000000",
"aE c #000000",
"aF c #000000",
"aG c #000000",
"aH c #000000",
"aI c #000000",
"aJ c #000000",
"aK c #000000",
"aL c #000000",
"aM c #000000",
"aN c #000000",
"aO c #000000",
"aP c #000000",
"aQ c #000000",
"aR c #000000",
"aS c #000000",
"aT c #000000",
"aU c #000000",
"aV c #000000",
"aW c #000000",
"aX c #000000",
"aY c #000000",
"aZ c #000000",
"a0 c #000000",
"a1 c #000000",
"a2 c #000000",
"a3 c #000000",
"a4 c #000000",
"a5 c #000000",
"a6 c #000000",
"a7 c #000000",
"a8 c #000000",
/* pixels */
"````````````````````````````````````````````````",
"````````````````````````````````````````````````",
"````````````````````````````````````````````````",
"````````````````````````````````````````````````",
"````````````````````````````````````````````````",
"`````````.`#`a`b`````c`d`b``````````````````````",
"`````````e`f`g`h`````i`g`j```````k`l`m`n`o``````",
"```````````p`g`g`.```q`g`r`````s`t`u`v`w`x`y````",
"```````````z`A`g`B`````C`D```E`F`G`````H`I`J````",
"`````````````K`g`L```M`N`O```````P`Q`R`S`T`U````",
"`````````````V`g`g`W`X`Y```````Z`0`1`2`3`4`5````",
"`````````````6`g`g`7`8.`````...#.a````.b.c.d````",
"``````````````.e`g.f.g``````.h.i.j``.k.l.m.n````",
".o.p.p.p.p.p.p.q`g.r.s.p.p.p.p.t.u.v.w.x.y.z.p.p",
".A.B.B.B.B.B.B.C`g.D.B.B.B.B.B.B.E.F.G.B.B.B.B.B",
"``````````````.H.I.J````````````````````````````",
"``.K````````.L.M.```````````````````````````````",
"`B.N.O.P.Q.R.S.R````````````````````````````````",
".T`g`g`g.U.V`e``````````````````````````````````",
".W.X.O.X.Y.J````````````````````````````````````",
"````````````````````````````````````````````````",
"````````````````````````````````````````````````",
"````````````````````````````````````````````````",
"````````````````````````````````````````````````"
};
