/* XPM */
static char *al_bottom_in_xpm[] = {
/* width height num_colors chars_per_pixel */
"    24    23      256            2",
/* colors */
"`` c #e8e8e4",
"`. c #545454",
"`# c #353535",
"`a c #2b2b2b",
"`b c #202020",
"`c c #161616",
"`d c #0b0b0b",
"`e c #010101",
"`f c #1c1c1c",
"`g c #3d3d3d",
"`h c #e9eff4",
"`i c #d7e3ee",
"`j c #c3d4e5",
"`k c #aec5dc",
"`l c #99b7d3",
"`m c #a1bcd6",
"`n c #000000",
"`o c #3b3b3b",
"`p c #eaf0f6",
"`q c #a0bcd6",
"`r c #afc6dd",
"`s c #bed1e3",
"`t c #cddcea",
"`u c #98b6d3",
"`v c #383838",
"`w c #e8eef5",
"`x c #a2bdd7",
"`y c #b1c8de",
"`z c #c0d3e4",
"`A c #d0ddea",
"`B c #e5edf4",
"`C c #a4bfd8",
"`D c #b4c9df",
"`E c #d2dfeb",
"`F c #333333",
"`G c #e3ebf3",
"`H c #a7c0d9",
"`I c #b6cbdf",
"`J c #c5d6e6",
"`K c #d4e0ec",
"`L c #303030",
"`M c #e1eaf2",
"`N c #a9c2da",
"`O c #b8cce0",
"`P c #c7d7e7",
"`Q c #d6e2ed",
"`R c #2e2e2e",
"`S c #dfe8f1",
"`T c #abc3db",
"`U c #bacee1",
"`V c #c9d9e8",
"`W c #d8e4ee",
"`X c #dce6f0",
"`Y c #adc5dc",
"`Z c #bcd0e2",
"`0 c #cbdae9",
"`1 c #dbe5ef",
"`2 c #292929",
"`3 c #dae5ef",
"`4 c #bfd1e3",
"`5 c #cedcea",
"`6 c #dde7f0",
"`7 c #343434",
"`8 c #282829",
".` c #1a1a1b",
".. c #080808",
".# c #262626",
".a c #d8e3ee",
".b c #b2c8de",
".c c #c1d3e4",
".d c #d0ddeb",
".e c #f7f9fa",
".f c #e1e9f1",
".g c #c8d8e7",
".h c #b4c9dd",
".i c #232323",
".j c #d6e1ed",
".k c #b4cadf",
".l c #d2dfec",
".m c #363636",
".n c #f7f9fb",
".o c #acc4db",
".p c #212121",
".q c #d3e0ec",
".r c #b6cbe0",
".s c #d4e1ec",
".t c #323232",
".u c #f2f6f9",
".v c #c2d3e4",
".w c #1e1e1e",
".x c #d1deeb",
".y c #b8cde0",
".z c #e6edf4",
".A c #2d2d2d",
".B c #eef3f7",
".C c #c4d5e6",
".D c #a0bbd6",
".E c #cfddea",
".F c #cad9e8",
".G c #d9e4ee",
".H c #282828",
".I c #e9eff5",
".J c #b5cadf",
".K c #9bb8d4",
".L c #272727",
".M c #1b1b1b",
".N c #0f0f0f",
".O c #030303",
".P c #1b1c1d",
".Q c #e4ecf3",
".R c #fafbfb",
".S c #f0f4f8",
".T c #e0e9f2",
".U c #c2d4e5",
".V c #ecf2f7",
".W c #1f1f1f",
".X c #e0e9f1",
".Y c #bbcee2",
".Z c #cddbe9",
".0 c #f3f6fa",
".1 c #b9cee1",
".2 c #eef3f8",
".3 c #1a1a1a",
".4 c #e2eaf2",
".5 c #f1f5f9",
".6 c #151515",
".7 c #111111",
".8 c #c3d5e5",
"#` c #171717",
"#. c #cbdae8",
"## c #f5f8fa",
"#a c #0c0c0c",
"#b c #cedce8",
"#c c #b4cade",
"#d c #a1bcd5",
"#e c #c1d2e3",
"#f c #acc3da",
"#g c #9fbad6",
"#h c #9ab7d4",
"#i c #a2bdd6",
"#j c #c80000",
"#k c #000000",
"#l c #000000",
"#m c #000000",
"#n c #000000",
"#o c #000000",
"#p c #000000",
"#q c #000000",
"#r c #000000",
"#s c #000000",
"#t c #000000",
"#u c #000000",
"#v c #000000",
"#w c #000000",
"#x c #000000",
"#y c #000000",
"#z c #000000",
"#A c #000000",
"#B c #000000",
"#C c #000000",
"#D c #000000",
"#E c #000000",
"#F c #000000",
"#G c #000000",
"#H c #000000",
"#I c #000000",
"#J c #000000",
"#K c #000000",
"#L c #000000",
"#M c #000000",
"#N c #000000",
"#O c #000000",
"#P c #000000",
"#Q c #000000",
"#R c #000000",
"#S c #000000",
"#T c #000000",
"#U c #000000",
"#V c #000000",
"#W c #000000",
"#X c #000000",
"#Y c #000000",
"#Z c #000000",
"#0 c #000000",
"#1 c #000000",
"#2 c #000000",
"#3 c #000000",
"#4 c #000000",
"#5 c #000000",
"#6 c #000000",
"#7 c #000000",
"#8 c #000000",
"a` c #000000",
"a. c #000000",
"a# c #000000",
"aa c #000000",
"ab c #000000",
"ac c #000000",
"ad c #000000",
"ae c #000000",
"af c #000000",
"ag c #000000",
"ah c #000000",
"ai c #000000",
"aj c #000000",
"ak c #000000",
"al c #000000",
"am c #000000",
"an c #000000",
"ao c #000000",
"ap c #000000",
"aq c #000000",
"ar c #000000",
"as c #000000",
"at c #000000",
"au c #000000",
"av c #000000",
"aw c #000000",
"ax c #000000",
"ay c #000000",
"az c #000000",
"aA c #000000",
"aB c #000000",
"aC c #000000",
"aD c #000000",
"aE c #000000",
"aF c #000000",
"aG c #000000",
"aH c #000000",
"aI c #000000",
"aJ c #000000",
"aK c #000000",
"aL c #000000",
"aM c #000000",
"aN c #000000",
"aO c #000000",
"aP c #000000",
"aQ c #000000",
"aR c #000000",
"aS c #000000",
"aT c #000000",
"aU c #000000",
"aV c #000000",
"aW c #000000",
"aX c #000000",
"aY c #000000",
"aZ c #000000",
"a0 c #000000",
"a1 c #000000",
"a2 c #000000",
"a3 c #000000",
"a4 c #000000",
"a5 c #000000",
"a6 c #000000",
"a7 c #000000",
"a8 c #000000",
/* pixels */
"`````````````````````````````````.`#`a`b`c`d`e`f",
"`````````````````````````````````g`h`i`j`k`l`m`n",
"`````````````````````````````````o`p`q`r`s`t`u`n",
"`````````````````````````````````v`w`x`y`z`A`u`n",
"`````````````````````````````````#`B`C`D`j`E`u`n",
"`````````````````````````````````F`G`H`I`J`K`u`n",
"`````````````````````````````````L`M`N`O`P`Q`u`n",
"`````````````````````````````````R`S`T`U`V`W`u`n",
"`````n```````````````````````````a`X`Y`Z`0`1`u`n",
"`````n```````````````````````````2`3`r`4`5`6`u`n",
"`````n`````````.`7`8.`..`f``````.#.a.b.c.d`S`u`n",
"`````n`````````o.e.f.g.h`n``````.i.j.k`j.l`M`u`n",
"`````n````````.m.n.o`4`N`n``````.p.q.r`J.s`G`u`n",
"`````n````````.t.u`r.v`C`n``````.w.x.y`P`Q.z`u`n",
"`````n````````.A.B.b.C.D`n```````f.E`U.F.G`w`u`n",
"`````n````````.H.I.J`P.K`n```.`F.L.M.N.O.P`p`u`n",
"`````n````````.i.Q`O.F`u`n```v.R.S.T.d.U`n.V`u`n",
"`````n````````.W.X.Y.Z`u`n```L.0.1.F`3.b`n.2`u`n",
"`````n````````.3`1`s.d`u`n``.H.z.c`E.4`C`n.5`u`n",
"`n`n`n`n`n````.6`Q`z.q`u`n``.W.a.F`3`p`u`n.0`u`n",
"```n`n`n``````.7`E.8`Q`u`n``#`#.`E.4.u`u`n##`u`n",
"`````n````````#a#b#c.K#d`n``.N#e#f#g#h.K`n`u#i`n",
"#j#j#j#j#j#j#j#j#j#j#j#j#j#j#j#j#j#j#j#j#j#j#j#j"
};
