/* XPM */
static char *al_right_in_xpm[] = {
/* width height num_colors chars_per_pixel */
"    24    24      256            2",
/* colors */
"`` c #e8e8e4",
"`. c #c80000",
"`# c #5a5a59",
"`a c #3f3f3f",
"`b c #414141",
"`c c #3e3e3e",
"`d c #3b3b3b",
"`e c #393939",
"`f c #363636",
"`g c #353535",
"`h c #323232",
"`i c #2f3030",
"`j c #2c2d2d",
"`k c #292a2a",
"`l c #272728",
"`m c #242425",
"`n c #222223",
"`o c #1f1f20",
"`p c #1d1d1e",
"`q c #1a1a1b",
"`r c #171717",
"`s c #161616",
"`t c #131313",
"`u c #0d0e0e",
"`v c #3a3a3a",
"`w c #e8eef3",
"`x c #e9eff5",
"`y c #e7edf4",
"`z c #e4ecf3",
"`A c #e2eaf2",
"`B c #e0e8f1",
"`C c #dde7f0",
"`D c #dbe5f0",
"`E c #d9e4ef",
"`F c #d7e3ee",
"`G c #d5e1ed",
"`H c #d3e0ec",
"`I c #d1deeb",
"`J c #cfddea",
"`K c #ccdbe9",
"`L c #cad9e8",
"`M c #c8d8e7",
"`N c #c5d6e6",
"`O c #c3d4e5",
"`P c #c1d3e4",
"`Q c #c3d3e4",
"`R c #303030",
"`S c #d7e3ed",
"`T c #a2bdd7",
"`U c #a4bfd8",
"`V c #a7c0d9",
"`W c #a9c2da",
"`X c #abc3db",
"`Y c #adc5dc",
"`Z c #b0c7dd",
"`0 c #b2c8de",
"`1 c #b4cadf",
"`2 c #b6cbe0",
"`3 c #b8cde1",
"`4 c #bbcee1",
"`5 c #bdd0e2",
"`6 c #bfd1e3",
"`7 c #c3d5e5",
"`8 c #c6d6e6",
".` c #aac2da",
".. c #252525",
".# c #b0c6dd",
".a c #b1c8de",
".b c #b4c9df",
".c c #b6cbdf",
".d c #b8cde0",
".e c #bacee1",
".f c #bcd0e2",
".g c #c7d7e7",
".h c #515355",
".i c #383838",
".j c #282828",
".k c #202020",
".l c #0f0f0f",
".m c #1c1c1c",
".n c #b0c6dc",
".o c #bdd1e3",
".p c #c9d9e8",
".q c #ccdae9",
".r c #cedcea",
".s c #d0deeb",
".t c #d2dfec",
".u c #d4e1ec",
".v c #d7e2ed",
".w c #d9e4ee",
".x c #333333",
".y c #f9fbfc",
".z c #f3f7fa",
".A c #e6edf4",
".B c #d8e3ee",
".C c #cbdae8",
".D c #bacee2",
".E c #111111",
".F c #9bb8d3",
".G c #cbdbe9",
".H c #d0ddeb",
".I c #d2dfeb",
".J c #d4e0ec",
".K c #d6e2ed",
".L c #d8e4ee",
".M c #dbe5ef",
".N c #dfe8f1",
".O c #e1eaf2",
".P c #e4ebf3",
".Q c #e8eef5",
".R c #272727",
".S c #f1f5f9",
".T c #b9cde1",
".U c #070707",
".V c #a3bcd5",
".W c #98b6d3",
".X c #1b1b1b",
".Y c #e0e9f2",
".Z c #dae4ef",
".0 c #9ebad5",
".1 c #232323",
".2 c #000000",
".3 c #eaf0f6",
".4 c #f2f6f9",
".5 c #97b5d1",
".6 c #030303",
".7 c #c5d5e4",
".8 c #a5bfd8",
"#` c #a1bcd6",
"#. c #545454",
"## c #2d2d2d",
"#a c #242424",
"#b c #1f1f1f",
"#c c #1a1a1a",
"#d c #151515",
"#e c #0c0c0c",
"#f c #343434",
"#g c #f7f9fa",
"#h c #f7f9fb",
"#i c #eef3f7",
"#j c #e0e9f1",
"#k c #cedce8",
"#l c #282829",
"#m c #e1e9f1",
"#n c #acc4db",
"#o c #afc6dd",
"#p c #b5cadf",
"#q c #b8cce0",
"#r c #bbcee2",
"#s c #bed0e3",
"#t c #c0d3e4",
"#u c #b4cade",
"#v c #c4d5e6",
"#w c #cddbe9",
"#x c #d3dfec",
"#y c #9bb8d4",
"#z c #080808",
"#A c #b4c9dd",
"#B c #a0bcd6",
"#C c #a1bcd5",
"#D c #000000",
"#E c #000000",
"#F c #000000",
"#G c #000000",
"#H c #000000",
"#I c #000000",
"#J c #000000",
"#K c #000000",
"#L c #000000",
"#M c #000000",
"#N c #000000",
"#O c #000000",
"#P c #000000",
"#Q c #000000",
"#R c #000000",
"#S c #000000",
"#T c #000000",
"#U c #000000",
"#V c #000000",
"#W c #000000",
"#X c #000000",
"#Y c #000000",
"#Z c #000000",
"#0 c #000000",
"#1 c #000000",
"#2 c #000000",
"#3 c #000000",
"#4 c #000000",
"#5 c #000000",
"#6 c #000000",
"#7 c #000000",
"#8 c #000000",
"a` c #000000",
"a. c #000000",
"a# c #000000",
"aa c #000000",
"ab c #000000",
"ac c #000000",
"ad c #000000",
"ae c #000000",
"af c #000000",
"ag c #000000",
"ah c #000000",
"ai c #000000",
"aj c #000000",
"ak c #000000",
"al c #000000",
"am c #000000",
"an c #000000",
"ao c #000000",
"ap c #000000",
"aq c #000000",
"ar c #000000",
"as c #000000",
"at c #000000",
"au c #000000",
"av c #000000",
"aw c #000000",
"ax c #000000",
"ay c #000000",
"az c #000000",
"aA c #000000",
"aB c #000000",
"aC c #000000",
"aD c #000000",
"aE c #000000",
"aF c #000000",
"aG c #000000",
"aH c #000000",
"aI c #000000",
"aJ c #000000",
"aK c #000000",
"aL c #000000",
"aM c #000000",
"aN c #000000",
"aO c #000000",
"aP c #000000",
"aQ c #000000",
"aR c #000000",
"aS c #000000",
"aT c #000000",
"aU c #000000",
"aV c #000000",
"aW c #000000",
"aX c #000000",
"aY c #000000",
"aZ c #000000",
"a0 c #000000",
"a1 c #000000",
"a2 c #000000",
"a3 c #000000",
"a4 c #000000",
"a5 c #000000",
"a6 c #000000",
"a7 c #000000",
"a8 c #000000",
/* pixels */
"```````````````````````````````````````````````.",
"```#`a`b`c`d`e`f`g`h`i`j`k`l`m`n`o`p`q`r`s`t`u`.",
"```v`w`x`y`z`A`B`C`D`E`F`G`H`I`J`K`L`M`N`O`P`Q`.",
"```R`S`T`T`U`V`W`X`Y`Z`0`1`2`3`4`5`6`P`7`8`M.``.",
"``..`7.#.a.b.c.d.e.f`6`P`O`N.g`L.h.i`R.j.k`r.l`.",
"``.m.n.o`P`O`N.g.p.q.r.s.t.u.v.w.x.y.z.A.B.C.D`.",
"``.E.F.G.H.I.J.K.L.M`C.N.O.P.A.Q.R.S.T`P.p.I`Y`.",
"``.U.V.W.W.W.W.W.W.W.W.W.W.W.W.W.X.Y`L.I.Z`A.0`.",
"``.1.2.2.2.2.2.2.2.2.2.2.2.2.2.2.l.s.Z`A.3.4.5`.",
"````````````````````````````````.6.7`0.8.W.W#``.",
"````````````````````````````````.m.2.2.2.2.2.2`.",
"```````````````````````````````````````````````.",
"``````````````````````#.`d`f`h##.j#a#b#c#d.E#e`.",
"``````````````````````#f#g#h.4#i`x`z#j.M.K.I#k`.",
"``````````````````````#l#m#n#o`0#p#q#r#s#t`7#u`.",
"```````````````````````q`M`6`P#v.g`L#w.H#x.K#y`.",
"``````````````````````#z#A`W.8#B#y.W.W.W.W.W#C`.",
"``````````````````````.m.2.2.2.2.2.2.2.2.2.2.2`.",
"```````````````````````````````````````````````.",
"````````````````````````````````````````.2`````.",
"````````````````````````````````````````.2.2```.",
"``````````````````.2.2.2.2.2.2.2.2.2.2.2.2.2.2`.",
"````````````````````````````````````````.2.2```.",
"````````````````````````````````````````.2`````."
};
