/* XPM */
static char *al_top_in_xpm[] = {
/* width height num_colors chars_per_pixel */
"    24    23      256            2",
/* colors */
"`` c #c80000",
"`. c #e8e8e4",
"`# c #000000",
"`a c #3b3b3b",
"`b c #f7f9fa",
"`c c #e1e9f1",
"`d c #c8d8e7",
"`e c #b4c9dd",
"`f c #383838",
"`g c #fafbfc",
"`h c #f0f5f8",
"`i c #e0e9f2",
"`j c #d0ddeb",
"`k c #c2d3e5",
"`l c #99b7d3",
"`m c #a1bcd6",
"`n c #363636",
"`o c #f7f9fb",
"`p c #acc4db",
"`q c #bfd1e3",
"`r c #a9c2da",
"`s c #303030",
"`t c #f3f6fa",
"`u c #b9cee1",
"`v c #cad9e8",
"`w c #dae5ef",
"`x c #b2c8de",
"`y c #cddcea",
"`z c #98b6d3",
"`A c #323232",
"`B c #f2f6f9",
"`C c #afc6dd",
"`D c #c1d3e4",
"`E c #a5bfd8",
"`F c #282828",
"`G c #e6edf4",
"`H c #d2dfeb",
"`I c #e2eaf2",
"`J c #d0ddea",
"`K c #2d2d2d",
"`L c #eef3f7",
"`M c #c4d5e6",
"`N c #a0bcd6",
"`O c #1f1f1f",
"`P c #d8e3ee",
"`Q c #eaf0f6",
"`R c #e9eff5",
"`S c #b5cadf",
"`T c #c7d7e7",
"`U c #9bb8d4",
"`V c #171717",
"`W c #cbdae8",
"`X c #d4e0ec",
"`Y c #242424",
"`Z c #e4ecf3",
"`0 c #b8cce0",
"`1 c #0f0f0f",
"`2 c #acc4da",
"`3 c #9fbad6",
"`4 c #99b7d4",
"`5 c #9ebad5",
"`6 c #d6e2ed",
"`7 c #e0e9f1",
"`8 c #bbcee2",
".` c #cddbe9",
".. c #222222",
".# c #030303",
".a c #050607",
".b c #020303",
".c c #181a1c",
".d c #d8e4ee",
".e c #1a1a1a",
".f c #dbe5ef",
".g c #bed0e3",
".h c #2b2b2b",
".i c #dce6f0",
".j c #adc5dc",
".k c #bcd0e2",
".l c #cbdae9",
".m c #151515",
".n c #c0d3e4",
".o c #d3dfec",
".p c #292929",
".q c #cedcea",
".r c #dde7f0",
".s c #111111",
".t c #c3d5e5",
".u c #262626",
".v c #dfe8f1",
".w c #0c0c0c",
".x c #cedce8",
".y c #b4cade",
".z c #a1bcd5",
".A c #232323",
".B c #d6e1ed",
".C c #b4cadf",
".D c #c3d4e5",
".E c #d2dfec",
".F c #e1eaf2",
".G c #030304",
".H c #1c1c1c",
".I c #212121",
".J c #d3e0ec",
".K c #b6cbe0",
".L c #c5d6e6",
".M c #d4e1ec",
".N c #e3ebf3",
".O c #1e1e1e",
".P c #d1deeb",
".Q c #b8cde0",
".R c #cfddea",
".S c #bacee1",
".T c #d9e4ee",
".U c #e8eef5",
".V c #191919",
".W c #ccdbe9",
".X c #bdd0e2",
".Y c #ecf2f7",
".Z c #141414",
".0 c #d0deeb",
".1 c #eef3f8",
".2 c #121212",
".3 c #c6d6e6",
".4 c #f1f5f9",
".5 c #d5e1ed",
".6 c #e4ebf3",
".7 c #f3f6f9",
".8 c #d7e2ee",
"#` c #f5f8fa",
"#. c #0a0a0a",
"## c #c2d3e3",
"#a c #aac3da",
"#b c #a2bdd6",
"#c c #000000",
"#d c #000000",
"#e c #000000",
"#f c #000000",
"#g c #000000",
"#h c #000000",
"#i c #000000",
"#j c #000000",
"#k c #000000",
"#l c #000000",
"#m c #000000",
"#n c #000000",
"#o c #000000",
"#p c #000000",
"#q c #000000",
"#r c #000000",
"#s c #000000",
"#t c #000000",
"#u c #000000",
"#v c #000000",
"#w c #000000",
"#x c #000000",
"#y c #000000",
"#z c #000000",
"#A c #000000",
"#B c #000000",
"#C c #000000",
"#D c #000000",
"#E c #000000",
"#F c #000000",
"#G c #000000",
"#H c #000000",
"#I c #000000",
"#J c #000000",
"#K c #000000",
"#L c #000000",
"#M c #000000",
"#N c #000000",
"#O c #000000",
"#P c #000000",
"#Q c #000000",
"#R c #000000",
"#S c #000000",
"#T c #000000",
"#U c #000000",
"#V c #000000",
"#W c #000000",
"#X c #000000",
"#Y c #000000",
"#Z c #000000",
"#0 c #000000",
"#1 c #000000",
"#2 c #000000",
"#3 c #000000",
"#4 c #000000",
"#5 c #000000",
"#6 c #000000",
"#7 c #000000",
"#8 c #000000",
"a` c #000000",
"a. c #000000",
"a# c #000000",
"aa c #000000",
"ab c #000000",
"ac c #000000",
"ad c #000000",
"ae c #000000",
"af c #000000",
"ag c #000000",
"ah c #000000",
"ai c #000000",
"aj c #000000",
"ak c #000000",
"al c #000000",
"am c #000000",
"an c #000000",
"ao c #000000",
"ap c #000000",
"aq c #000000",
"ar c #000000",
"as c #000000",
"at c #000000",
"au c #000000",
"av c #000000",
"aw c #000000",
"ax c #000000",
"ay c #000000",
"az c #000000",
"aA c #000000",
"aB c #000000",
"aC c #000000",
"aD c #000000",
"aE c #000000",
"aF c #000000",
"aG c #000000",
"aH c #000000",
"aI c #000000",
"aJ c #000000",
"aK c #000000",
"aL c #000000",
"aM c #000000",
"aN c #000000",
"aO c #000000",
"aP c #000000",
"aQ c #000000",
"aR c #000000",
"aS c #000000",
"aT c #000000",
"aU c #000000",
"aV c #000000",
"aW c #000000",
"aX c #000000",
"aY c #000000",
"aZ c #000000",
"a0 c #000000",
"a1 c #000000",
"a2 c #000000",
"a3 c #000000",
"a4 c #000000",
"a5 c #000000",
"a6 c #000000",
"a7 c #000000",
"a8 c #000000",
/* pixels */
"````````````````````````````````````````````````",
"`.`.`#`.`.`.`a`b`c`d`e`#`.`f`g`h`i`j`k`#`l`m`#`.",
"`.`#`#`#`.`.`n`o`p`q`r`#`.`s`t`u`v`w`x`#`y`z`#`.",
"`#`#`#`#`#`.`A`B`C`D`E`#`.`F`G`D`H`I`E`#`J`z`#`.",
"`.`.`#`.`.`.`K`L`x`M`N`#`.`O`P`v`w`Q`z`#`H`z`#`.",
"`.`.`#`.`.`.`F`R`S`T`U`#`.`V`W`H`I`B`z`#`X`z`#`.",
"`.`.`#`.`.`.`Y`Z`0`v`z`#`.`1`D`2`3`4`5`#`6`z`#`.",
"`.`.`#`.`.`.`O`7`8.``z`#`....#.a.a.a.b.c.d`z`#`.",
"`.`.`#`.`.`..e.f.g`j`z`#`.`.`..h.i.j.k.l.f`z`#`.",
"`.`.`#`.`.`..m`6.n.o`z`#`.`.`..p`w`C`q.q.r`z`#`.",
"`.`.`#`.`.`..s`H.t`6`z`#`.`.`..u`P`x`D`j.v`z`#`.",
"`.`.`#`.`.`..w.x.y`U.z`#`.`.`..A.B.C.D.E.F`z`#`.",
"`.`.`#`.`.`....G.a.a.b.H`.`.`..I.J.K.L.M.N`z`#`.",
"`.`.`#`.`.`.`.`.`.`.`.`.`.`.`..O.P.Q`T`6`G`z`#`.",
"`.`.`#`.`.`.`.`.`.`.`.`.`.`.`..H.R.S`v.T.U`z`#`.",
"`.`.`.`.`.`.`.`.`.`.`.`.`.`.`..V.W.X.W.f`Q`z`#`.",
"`.`.`.`.`.`.`.`.`.`.`.`.`.`.`.`V`v`q.q.r.Y`z`#`.",
"`.`.`.`.`.`.`.`.`.`.`.`.`.`.`..Z`d`D.0.v.1`z`#`.",
"`.`.`.`.`.`.`.`.`.`.`.`.`.`.`..2.3.D.E.F.4`z`#`.",
"`.`.`.`.`.`.`.`.`.`.`.`.`.`.`.`1.t.L.5.6.7`z`#`.",
"`.`.`.`.`.`.`.`.`.`.`.`.`.`.`..w`D`d.8`G#``z`#`.",
"`.`.`.`.`.`.`.`.`.`.`.`.`.`.`.#.###a`z`z`z#b`#`.",
"`.`.`.`.`.`.`.`.`.`.`.`.`.`.`...`#`#`#`#`#`#.H`."
};
