/* XPM */
static char *al_top_out_xpm[] = {
/* width height num_colors chars_per_pixel */
"    24    24      256            2",
/* colors */
"`` c #e8e8e4",
"`. c #545454",
"`# c #353535",
"`a c #2b2b2b",
"`b c #202020",
"`c c #161616",
"`d c #0b0b0b",
"`e c #010101",
"`f c #1c1c1c",
"`g c #3c3c3c",
"`h c #e9eff4",
"`i c #d7e3ee",
"`j c #c3d4e5",
"`k c #aec5dc",
"`l c #99b7d3",
"`m c #a1bcd6",
"`n c #000000",
"`o c #393939",
"`p c #e9eff5",
"`q c #b0c7dd",
"`r c #bfd2e3",
"`s c #cedcea",
"`t c #98b6d3",
"`u c #363636",
"`v c #e6edf4",
"`w c #a4bed8",
"`x c #b3c9de",
"`y c #c2d4e5",
"`z c #d1deeb",
"`A c #323232",
"`B c #e3ebf3",
"`C c #a7c0d9",
"`D c #b6cbdf",
"`E c #c5d6e6",
"`F c #d4e0ec",
"`G c #343434",
"`H c #282829",
"`I c #1a1a1b",
"`J c #080808",
"`K c #2f2f2f",
"`L c #e0e9f2",
"`M c #aac2da",
"`N c #b9cde1",
"`O c #c8d8e7",
"`P c #d7e2ee",
"`Q c #3b3b3b",
"`R c #f8fafa",
"`S c #e1e9f2",
"`T c #b4c9de",
"`U c #2c2c2c",
"`V c #dde7f0",
"`W c #adc4db",
"`X c #bccfe2",
"`Y c #cbdae8",
"`Z c #dae5ef",
"`0 c #f7f9fb",
"`1 c #acc4db",
"`2 c #bfd1e3",
"`3 c #a9c2da",
"`4 c #292929",
"`5 c #afc6dd",
"`6 c #f2f6f9",
"`7 c #c1d3e4",
"`8 c #a5bfd8",
".` c #252525",
".. c #b2c9de",
".# c #e0e9f1",
".a c #2d2d2d",
".b c #eef3f7",
".c c #b2c8de",
".d c #c4d5e6",
".e c #a0bcd6",
".f c #222222",
".g c #b5cbdf",
".h c #282828",
".i c #b5cadf",
".j c #c7d7e7",
".k c #9bb8d4",
".l c #333333",
".m c #272727",
".n c #1b1b1b",
".o c #0f0f0f",
".p c #030303",
".q c #181a1c",
".r c #d7e2ed",
".s c #232323",
".t c #e4ecf3",
".u c #b8cce0",
".v c #cad9e8",
".w c #383838",
".x c #fafbfc",
".y c #f0f5f8",
".z c #d0ddeb",
".A c #d9e4ef",
".B c #1f1f1f",
".C c #bbcee2",
".D c #cddbe9",
".E c #303030",
".F c #f3f7fa",
".G c #dce6f0",
".H c #ebf1f6",
".I c #1a1a1a",
".J c #dbe5ef",
".K c #bed0e3",
".L c #d2dfeb",
".M c #e2eaf2",
".N c #dfe8f1",
".O c #eef3f8",
".P c #151515",
".Q c #d6e2ed",
".R c #c0d3e4",
".S c #d3e0ec",
".T c #d8e3ee",
".U c #dae4ef",
".V c #eaf0f6",
".W c #f1f5f9",
".X c #111111",
".Y c #c3d5e5",
".Z c #171717",
".0 c #e5edf4",
".1 c #f4f7fa",
".2 c #0c0c0c",
".3 c #cfdce9",
".4 c #b4cade",
".5 c #aec6dc",
".6 c #9cb7d3",
".7 c #99b7d4",
".8 c #9db9d5",
"#` c #a2bdd6",
"#. c #c80000",
"## c #3e3e3e",
"#a c #fdfaf4",
"#b c #fff1c9",
"#c c #ffe494",
"#d c #fdd76a",
"#e c #1d1d1d",
"#f c #fff5d9",
"#g c #ffc929",
"#h c #ffd352",
"#i c #ffcd38",
"#j c #131313",
"#k c #2a2a2a",
"#l c #ffecb3",
"#m c #ffd557",
"#n c #ffdf80",
"#o c #ffc312",
"#p c #090909",
"#q c #ffe28d",
"#r c #ffe085",
"#s c #ffeaad",
"#t c #ffbf00",
"#u c #fdda74",
"#v c #ffcb31",
"#w c #fdc51d",
"#x c #272726",
"#y c #060606",
"#z c #000000",
"#A c #000000",
"#B c #000000",
"#C c #000000",
"#D c #000000",
"#E c #000000",
"#F c #000000",
"#G c #000000",
"#H c #000000",
"#I c #000000",
"#J c #000000",
"#K c #000000",
"#L c #000000",
"#M c #000000",
"#N c #000000",
"#O c #000000",
"#P c #000000",
"#Q c #000000",
"#R c #000000",
"#S c #000000",
"#T c #000000",
"#U c #000000",
"#V c #000000",
"#W c #000000",
"#X c #000000",
"#Y c #000000",
"#Z c #000000",
"#0 c #000000",
"#1 c #000000",
"#2 c #000000",
"#3 c #000000",
"#4 c #000000",
"#5 c #000000",
"#6 c #000000",
"#7 c #000000",
"#8 c #000000",
"a` c #000000",
"a. c #000000",
"a# c #000000",
"aa c #000000",
"ab c #000000",
"ac c #000000",
"ad c #000000",
"ae c #000000",
"af c #000000",
"ag c #000000",
"ah c #000000",
"ai c #000000",
"aj c #000000",
"ak c #000000",
"al c #000000",
"am c #000000",
"an c #000000",
"ao c #000000",
"ap c #000000",
"aq c #000000",
"ar c #000000",
"as c #000000",
"at c #000000",
"au c #000000",
"av c #000000",
"aw c #000000",
"ax c #000000",
"ay c #000000",
"az c #000000",
"aA c #000000",
"aB c #000000",
"aC c #000000",
"aD c #000000",
"aE c #000000",
"aF c #000000",
"aG c #000000",
"aH c #000000",
"aI c #000000",
"aJ c #000000",
"aK c #000000",
"aL c #000000",
"aM c #000000",
"aN c #000000",
"aO c #000000",
"aP c #000000",
"aQ c #000000",
"aR c #000000",
"aS c #000000",
"aT c #000000",
"aU c #000000",
"aV c #000000",
"aW c #000000",
"aX c #000000",
"aY c #000000",
"aZ c #000000",
"a0 c #000000",
"a1 c #000000",
"a2 c #000000",
"a3 c #000000",
"a4 c #000000",
"a5 c #000000",
"a6 c #000000",
"a7 c #000000",
"a8 c #000000",
/* pixels */
"```````````````````````.`#`a`b`c`d`e`f``````````",
"```````````````````````g`h`i`j`k`l`m`n``````````",
"```````````````````````o`p`m`q`r`s`t`n``````````",
"```````````````````````u`v`w`x`y`z`t`n``````````",
"```````````````````````A`B`C`D`E`F`t`n``````````",
"```.`G`H`I`J`f`````````K`L`M`N`O`P`t`n``````````",
"```Q`R`S`O`T`n`````````U`V`W`X`Y`Z`t`n``````````",
"```u`0`1`2`3`n`````````4`Z`5`2`s`V`t`n``````````",
"```A`6`5`7`8`n````````.``P..`7`z.#`t`n``````````",
"``.a.b.c.d.e`n````````.f`F.g.d`F`B`t`n``````````",
"``.h`p.i.j.k`n```..l.m.n.o.p.q.r`v`t`n``````````",
"``.s.t.u.v`t`n``.w.x.y`L.z`7`n.A`p`t`n``````````",
"``.B.#.C.D`t`n``.E.F`N.v`Z.c`n.G.H`t`n``````````",
"``.I.J.K.z`t`n``.h`v`7.L.M`8`n.N.O`t`n``````````",
"``.P.Q.R.S`t`n```b.T.v.U.V`t`n.M.W`t`n``````````",
"``.X.L.Y.Q`t`n``.Z`Y.L.M`6`t`n.0.1`t`n``````````",
"``.2.3.4.k`m`n``.o`7.5.6.7.8`n`t`t#``n``````````",
"#.#.#.#.#.#.#.#.#.#.#.#.#.#.#.#.#.#.#.#.#.#.#.#.",
"````````````````````````````````````###a#b#c#d#e",
"`````````````````````````````````````G#f#g#h#i#j",
"````````````````````````````````````#k#l#m#n#o#p",
"`````````````````````````````````````b#q#r#s#t`n",
"`````````````````````````````````````c#u#v#t#w`n",
"````````````````````````````````````#x#y`n`n`n`f"
};
