/* XPM */
static char *arrows_ver_xpm[] = {
/* width height num_colors chars_per_pixel */
"    24    24      256            2",
/* colors */
"`` c #e8e8e4",
"`. c #2a2a2a",
"`# c #000000",
"`a c #191919",
"`b c #e4e4e0",
"`c c #141414",
"`d c #c1d2e3",
"`e c #b2c8de",
"`f c #a7c1d9",
"`g c #9db9d5",
"`h c #98b6d3",
"`i c #a2bcd6",
"`j c #080909",
"`k c #e1e1dd",
"`l c #1a1a1a",
"`m c #c8d8e7",
"`n c #cddcea",
"`o c #d9e4ef",
"`p c #e4ecf3",
"`q c #eff3f8",
"`r c #fafbfc",
"`s c #9bb8d4",
"`t c #0b0c0d",
"`u c #212121",
"`v c #d1dfea",
"`w c #c9d8e7",
"`x c #d3e0ec",
"`y c #dee8f1",
"`z c #e9eff5",
"`A c #f4f7fa",
"`B c #060606",
"`C c #262626",
"`D c #dae5ee",
"`E c #c3d4e5",
"`F c #cedcea",
"`G c #d8e4ee",
"`H c #e3ebf3",
"`I c #eef3f8",
"`J c #9bb9d4",
"`K c #2c2c2c",
"`L c #e4ecf2",
"`M c #bed1e3",
"`N c #d3dfec",
"`O c #dde7f0",
"`P c #e8eff5",
"`Q c #a5bfd8",
"`R c #323232",
"`S c #eef3f6",
"`T c #b8cde1",
"`U c #c2d4e5",
"`V c #cddbe9",
"`W c #d8e3ee",
"`X c #aec5dc",
"`Y c #393939",
"`Z c #f6f9fa",
"`0 c #b3c9df",
"`1 c #bccfe2",
"`2 c #c7d7e7",
"`3 c #d2dfeb",
"`4 c #b7cce0",
"`5 c #3f3f3f",
"`6 c #f8f9fa",
"`7 c #f6f9fb",
"`8 c #ebf1f6",
".` c #e0e9f2",
".. c #d6e2ed",
".# c #cbdae8",
".a c #c5d5e4",
".b c #090909",
".c c #5f5f5e",
".d c #3c3c3c",
".e c #333333",
".f c #181818",
".g c #0f0f0f",
".h c #212120",
".i c #e5e5e1",
".j c #8a8a87",
".k c #747472",
".l c #81817f",
".m c #e6e6e2",
".n c #7f7f7d",
".o c #d5dde3",
".p c #cdd8e1",
".q c #c8d5df",
".r c #c3d1dd",
".s c #c0cfdc",
".t c #c5d2dd",
".u c #797977",
".v c #d8e0e6",
".w c #dbe2e7",
".x c #e1e6e9",
".y c #e6eaeb",
".z c #ebedee",
".A c #f1f1f0",
".B c #c2d0dc",
".C c #7a7b79",
".D c #858583",
".E c #dce3e7",
".F c #d9e0e5",
".G c #dee4e8",
".H c #e3e8ea",
".I c #e8ebec",
".J c #eeefef",
".K c #888886",
".L c #d6dee4",
".M c #e0e6e9",
".N c #e6e9eb",
".O c #8b8b88",
".P c #d3dde4",
".Q c #d8e0e5",
".R c #c6d3de",
".S c #8e8e8b",
".T c #ebeded",
".U c #d0dbe3",
".V c #d5dee4",
".W c #dbe2e6",
".X c #cbd6e0",
".Y c #91918f",
".Z c #eff0ef",
".0 c #ced9e2",
".1 c #d2dce3",
".2 c #dde4e7",
".3 c #cfdae2",
".4 c #949491",
".5 c #f0f0ee",
".6 c #e9eced",
".7 c #e4e8eb",
".8 c #dfe5e8",
"#` c #dae1e6",
"#. c #a4a4a1",
"## c #929290",
"#a c #8e8e8c",
"#b c #7c7c7a",
"#c c #787876",
"#d c #858582",
"#e c #e7e7e3",
"#f c #000000",
"#g c #000000",
"#h c #000000",
"#i c #000000",
"#j c #000000",
"#k c #000000",
"#l c #000000",
"#m c #000000",
"#n c #000000",
"#o c #000000",
"#p c #000000",
"#q c #000000",
"#r c #000000",
"#s c #000000",
"#t c #000000",
"#u c #000000",
"#v c #000000",
"#w c #000000",
"#x c #000000",
"#y c #000000",
"#z c #000000",
"#A c #000000",
"#B c #000000",
"#C c #000000",
"#D c #000000",
"#E c #000000",
"#F c #000000",
"#G c #000000",
"#H c #000000",
"#I c #000000",
"#J c #000000",
"#K c #000000",
"#L c #000000",
"#M c #000000",
"#N c #000000",
"#O c #000000",
"#P c #000000",
"#Q c #000000",
"#R c #000000",
"#S c #000000",
"#T c #000000",
"#U c #000000",
"#V c #000000",
"#W c #000000",
"#X c #000000",
"#Y c #000000",
"#Z c #000000",
"#0 c #000000",
"#1 c #000000",
"#2 c #000000",
"#3 c #000000",
"#4 c #000000",
"#5 c #000000",
"#6 c #000000",
"#7 c #000000",
"#8 c #000000",
"a` c #000000",
"a. c #000000",
"a# c #000000",
"aa c #000000",
"ab c #000000",
"ac c #000000",
"ad c #000000",
"ae c #000000",
"af c #000000",
"ag c #000000",
"ah c #000000",
"ai c #000000",
"aj c #000000",
"ak c #000000",
"al c #000000",
"am c #000000",
"an c #000000",
"ao c #000000",
"ap c #000000",
"aq c #000000",
"ar c #000000",
"as c #000000",
"at c #000000",
"au c #000000",
"av c #000000",
"aw c #000000",
"ax c #000000",
"ay c #000000",
"az c #000000",
"aA c #000000",
"aB c #000000",
"aC c #000000",
"aD c #000000",
"aE c #000000",
"aF c #000000",
"aG c #000000",
"aH c #000000",
"aI c #000000",
"aJ c #000000",
"aK c #000000",
"aL c #000000",
"aM c #000000",
"aN c #000000",
"aO c #000000",
"aP c #000000",
"aQ c #000000",
"aR c #000000",
"aS c #000000",
"aT c #000000",
"aU c #000000",
"aV c #000000",
"aW c #000000",
"aX c #000000",
"aY c #000000",
"aZ c #000000",
"a0 c #000000",
"a1 c #000000",
"a2 c #000000",
"a3 c #000000",
"a4 c #000000",
"a5 c #000000",
"a6 c #000000",
"a7 c #000000",
"a8 c #000000",
/* pixels */
"```````````````````````````.`#`#`#`#`#`#`#`a`b``",
"```````````````````````````c`d`e`f`g`h`h`i`j`k``",
"```````````````````````````l`m`n`o`p`q`r`s`t`k``",
"```````````````````````````u`v`w`x`y`z`A`s`t`k``",
"```````````````````B`k`````C`D`E`F`G`H`I`J`t`k``",
"`````````````````B`#`#`k```K`L`M`m`N`O`P`Q`t`k``",
"```````````````B`#`#`#`#`k`R`S`T`U`V`W`H`X`t`k``",
"```````````````````B`k`````Y`Z`0`1`2`3`O`4`t`k``",
"```````````````````B`k`````5`6`7`8.`...#.a.b`k``",
"```````````````````B`k````.c.d.e`.`u.f.g`B.h.i``",
"```````````````````B`k``````````````````````````",
"```````````````````B`k``````````````````````````",
"```````````````````B`k``````````````````````````",
"```````````````````B`k``````````````````````````",
"```````````````````B`k````.j.k.k.k.k.k.k.k.l.m``",
"```````````````````B`k````.n.o.p.q.r.s.s.t.u`b``",
"```````````````````B`k````.l.v.w.x.y.z.A.B.C`b``",
"```````````````````B`k````.D.E.F.G.H.I.J.B.C`b``",
"```````````````````B`k````.K.x.L.w.M.N.z.B.C`b``",
"``````````````````````````.O.y.P.Q.G.H.I.R.C`b``",
"``````````````````````````.S.T.U.V.W.M.N.X.C`b``",
"``````````````````````````.Y.Z.0.1.Q.2.H.3.C`b``",
"``````````````````````````.4.5.Z.6.7.8#`.L.u`b``",
"``````````````````````````#.###a.j.D.l#b#c#d#e``"
};
