/* XPM */
static char *CEditorAboutBox_XPM[]={
/* CEditorAboutBox_XPM*/
"20 20 232 2",
"      c None",
" 0    c #000000",
" 1    c #080501",
" 2    c #100D08",
" 3    c #3A3631",
" 4    c #8D7F6F",
" 5    c #C1B4A6",
" 6    c #0D0802",
" 7    c #010100",
" 8    c #252019",
" 9    c #E1D5C6",
" a    c #E6DACC",
" b    c #362F27",
" c    c #11110F",
" d    c #0D0904",
" e    c #5A5A5A",
" f    c #A6A6A6",
" g    c #B7B7B7",
" h    c #838383",
" i    c #221E1B",
" j    c #BFAA92",
" k    c #DDCEBB",
" l    c #DDCCBA",
" m    c #9B8872",
" n    c #4C463E",
" o    c #AD9C89",
" p    c #14100C",
" q    c #7C7C7C",
" r    c #F6F6F6",
" s    c #F9F9F9",
" t    c #F7F7F7",
" u    c #F5F5F5",
" v    c #CBCAC9",
" w    c #A39587",
" x    c #D4BFA8",
" y    c #D3BEA6",
" z    c #C3AC92",
" A    c #0E0802",
" B    c #453D34",
" C    c #D6C2AC",
" D    c #A59581",
" E    c #615F5D",
" F    c #A9A8A7",
" G    c #5E5E5E",
" H    c #E2E2E2",
" I    c #F1F1F1",
" J    c #EFEFEF",
" K    c #E7E7E7",
" L    c #EBEBEB",
" M    c #938F8A",
" N    c #CAB194",
" O    c #C9AF92",
" P    c #C8AE90",
" Q    c #282017",
" R    c #3E352B",
" S    c #B4A088",
" T    c #DFDEDD",
" U    c #FBFBFB",
" V    c #A4A4A4",
" W    c #E3E3E3",
" X    c #C4C4C4",
" Y    c #353535",
" Z    c #B0B0B0",
" &    c #E1E1E1",
"0     c #BAB9B8",
"00    c #A68D70",
"01    c #BFA17E",
"02    c #BE9F7C",
"03    c #574633",
"04    c #372D23",
"05    c #ADA396",
"06    c #F4F4F4",
"07    c #EEEEEE",
"08    c #D7D7D7",
"09    c #A2A2A2",
"0a    c #DFDFDF",
"0b    c #E0E0E0",
"0c    c #D8D8D8",
"0d    c #707070",
"0e    c #CBCBCB",
"0f    c #ABAAA8",
"0g    c #A88864",
"0h    c #B6936B",
"0i    c #B49168",
"0j    c #624D34",
"0k    c #262018",
"0l    c #9F978E",
"0m    c #767676",
"0n    c #C3C3C3",
"0o    c #857B70",
"0p    c #AD8659",
"0q    c #AC8457",
"0r    c #AB8355",
"0s    c #6C5030",
"0t    c #020100",
"0u    c #151515",
"0v    c #2E2D2A",
"0w    c #615A53",
"0x    c #7E7E7E",
"0y    c #C2C2C2",
"0z    c #E6E6E6",
"0A    c #92908F",
"0B    c #B2AFAD",
"0C    c #DDDDDD",
"0D    c #8E877E",
"0E    c #8E6B43",
"0F    c #A37745",
"0G    c #A27643",
"0H    c #A17542",
"0I    c #5C4124",
"0J    c #1A1A1A",
"0K    c #777777",
"0L    c #8E8E8E",
"0M    c #656565",
"0N    c #4B4B4B",
"0O    c #404040",
"0P    c #A5A5A5",
"0Q    c #B7B3AF",
"0R    c #8B7660",
"0S    c #89653D",
"0T    c #7F6A51",
"0U    c #85735E",
"0V    c #796045",
"0W    c #956834",
"0X    c #9A6B34",
"0Y    c #90632E",
"0Z    c #8C5F2C",
"0&    c #97662E",
"1     c #382712",
"10    c #606060",
"11    c #989898",
"12    c #444444",
"13    c #3C3C3C",
"14    c #333333",
"15    c #2F2A23",
"16    c #8C602D",
"17    c #96652C",
"18    c #95642A",
"19    c #946227",
"1a    c #936026",
"1b    c #925F24",
"1c    c #915E22",
"1d    c #8E5A1F",
"1e    c #523311",
"1f    c #1C1106",
"1g    c #815118",
"1h    c #160E04",
"1i    c #6C6C6C",
"1j    c #868686",
"1k    c #424242",
"1l    c #383838",
"1m    c #303030",
"1n    c #272727",
"1o    c #1F1C19",
"1p    c #835218",
"1q    c #8D5719",
"1r    c #8C5619",
"1s    c #895518",
"1t    c #865318",
"1u    c #835117",
"1v    c #7F4F17",
"1w    c #4B2E0D",
"1x    c #0C0702",
"1y    c #37220A",
"1z    c #663F12",
"1A    c #0E0903",
"1B    c #515151",
"1C    c #696969",
"1D    c #343434",
"1E    c #2C2C2C",
"1F    c #242424",
"1G    c #1B1B1B",
"1H    c #1D1710",
"1I    c #835118",
"1J    c #825117",
"1K    c #804F17",
"1L    c #7D4D16",
"1M    c #734715",
"1N    c #43290C",
"1O    c #191005",
"1P    c #0A0602",
"1Q    c #643E12",
"1R    c #342009",
"1S    c #030201",
"1T    c #292929",
"1U    c #555555",
"1V    c #282828",
"1W    c #202020",
"1X    c #181818",
"1Y    c #141414",
"1Z    c #37240E",
"1&    c #7A4B16",
"2     c #6C4213",
"20    c #37200A",
"21    c #1E0F04",
"22    c #040000",
"23    c #100100",
"24    c #020000",
"25    c #251607",
"26    c #52330F",
"27    c #191919",
"28    c #131313",
"29    c #11100F",
"2a    c #30200D",
"2b    c #58370F",
"2c    c #2A0901",
"2d    c #8E1300",
"2e    c #B91800",
"2f    c #A41500",
"2g    c #941300",
"2h    c #C71900",
"2i    c #3C0A01",
"2j    c #50320E",
"2k    c #0F0A03",
"2l    c #040404",
"2m    c #241606",
"2n    c #5A3710",
"2o    c #623C11",
"2p    c #502D0C",
"2q    c #621902",
"2r    c #801B01",
"2s    c #8E1D00",
"2t    c #771901",
"2u    c #4E1503",
"2v    c #41280C",
"2w    c #0B0702",
"2x    c #070401",
"2y    c #130B03",
"2z    c #372209",
"2A    c #352109",
"2B    c #321F09",
"2C    c #2D1C08",
"                               0 1      ",
"                             0 2 3 0    ",
"                             1 4 5 6    ",
"   0 7 0                   0 8 9 a b 0  ",
"   0 c d 0       0 e f g h i j k l m 1  ",
"   0 n o p 0     q r s t u v w x y z A  ",
"   0 B C D E F G H I J K L K M N O P Q 0",
"   0 R S T U s V W K X Y Z &0 00010203 0",
"   00405060708090a0b0c0d0e0a0f0g0h0i0j 0",
"   00k0l L0e0m0n g0a0a0a0a0a0o0p0q0r0s0t",
"  0u0v0w0x0y K0z0A0B0a0a0C0D0E0F0G0H0I 0",
"0J0K0L0M0N0O0P0Q0R0S0T0U0V0W0X0Y0Z0&1  0",
"10110M12131415161718191a1b1c1d1e1f1g1h 0",
"1i1j1k1l1m1n1o1p1q1r1s1t1u1v1w1x1y1z1A  ",
"1B1C1D1E1F1G1H1I1J1K1L1M1N1O0t1P1Q1R1S  ",
"1T1U1V1W1X1Y1Z1&2 20211x22232425261x 0  ",
" 0270u28292a2 2b2c2d2e2f2g2h2i2j2k 0    ",
"     02l1P2m2n2o2p2q2r2s2t2u2v2w0t      ",
"          2x A2y2z2A2B2B2C2k 6 0        ",
"               0 0 0 0 0 0 0            "};

