/* XPM */
static char *CHUDEditorGUI_WxBitmapButton15_XPM[]={
/* CHUDEditorGUI_WxBitmapButton15 */
"20 20 67 2",
"      c None",
" 0    c #010B17",
" 1    c #020D1B",
" 2    c #020F1E",
" 3    c #031121",
" 4    c #031325",
" 5    c #041528",
" 6    c #05172C",
" 7    c #05192F",
" 8    c #061B32",
" 9    c #061C36",
" a    c #071E39",
" b    c #07203C",
" c    c #082240",
" d    c #092443",
" e    c #092546",
" f    c #0A274A",
" g    c #0A294D",
" h    c #0B2B50",
" i    c #04101E",
" j    c #052952",
" k    c #072F5C",
" l    c #093466",
" m    c #0A3A70",
" n    c #0C407A",
" o    c #0E4585",
" p    c #0F4B8F",
" q    c #115199",
" r    c #1356A3",
" s    c #145CAD",
" t    c #1661B7",
" u    c #1867C2",
" v    c #1A6DCC",
" w    c #1B72D6",
" x    c #1D78E0",
" y    c #1F7EEA",
" z    c #2083F5",
" A    c #2289FF",
" B    c #102F54",
" C    c #3090FF",
" D    c #143254",
" E    c #3E98FF",
" F    c #193454",
" G    c #4B9FFF",
" H    c #1D3754",
" I    c #59A7FF",
" J    c #66AEFF",
" K    c #263B54",
" L    c #74B5FF",
" M    c #2B3E54",
" N    c #82BDFF",
" O    c #344354",
" P    c #90C4FF",
" Q    c #9DCCFF",
" R    c #3A4654",
" S    c #ABD3FF",
" T    c #B1D6FF",
" U    c #3E4854",
" V    c #B6D9FF",
" W    c #BCDCFF",
" X    c #C6E1FF",
" Y    c #414A54",
" Z    c #454C54",
" &    c #CCE4FF",
"0     c #D1E7FF",
"00    c #213954",
"01    c #1A1C1E",
"   0 1 2 3 4 5 6 7 8 9 a b c d e f g h i",
" 0 j k l m n o p q r s t u v w x y z A B",
" 1 k l m n o p q r s t u v w x y z A C D",
" 2 l m n o p q r s t u v w x y z A C E F",
" 3 m n o p q r s t u v w x y z A C E G H",
" 4 n o p q r s t u v w x y z A C E G I H",
" 5 o p q r s t u v w x y z A C E G I J K",
" 6 p q r s t u v w x y z A C E G I J L M",
" 7 q r s t u v w x y z A C E G I J L N O",
" 8 r s t u v w x y z A C E G I J L N P O",
" 9 s t u v w x y z A C E G I J L N P Q R",
" a t u v w x y z A C E G I J L N P Q S R",
" b u v w x y z A C E G I J L N P Q S T U",
" c v w x y z A C E G I J L N P Q S T V U",
" d w x y z A C E G I J L N P Q S S V W U",
" e x y z A C E G I J L N P Q S T V W X Y",
" f y z A C E G I J L N P Q S S V W X X Z",
" g z A C E G I J L N P Q S T V W W X & Z",
" h A C E G I J L N P Q S T V W X X &0  Z",
" i B D F H00 K M M O R R U U U Y Z Z Z01"};

