/* XPM */
static char *CHUDEditorGUI_WxBitmapButton9_XPM[]={
/* CHUDEditorGUI_WxBitmapButton9 */
"20 20 215 2",
"      c None",
" 0    c #313337",
" 1    c #383C3F",
" 2    c #3B3E41",
" 3    c #404448",
" 4    c #474A4D",
" 5    c #47494D",
" 6    c #5B5B5F",
" 7    c #69666A",
" 8    c #656265",
" 9    c #867877",
" a    c #AF9E9D",
" b    c #CCCCCC",
" c    c #AAA0A0",
" d    c #5E585A",
" e    c #393B3F",
" f    c #474A4E",
" g    c #464A4E",
" h    c #313336",
" i    c #655D5F",
" j    c #625E60",
" k    c #424448",
" l    c #33363A",
" m    c #3C4346",
" n    c #474B4F",
" o    c #796F6F",
" p    c #333639",
" q    c #3D4548",
" r    c #3B4447",
" s    c #36373A",
" t    c #333337",
" u    c #2C2E32",
" v    c #3A3C40",
" w    c #393D40",
" x    c #766F6F",
" y    c #333537",
" z    c #3B4245",
" A    c #3A3F43",
" B    c #39393D",
" C    c #AEA5A5",
" D    c #212125",
" E    c #35373A",
" F    c #343639",
" G    c #3D3E42",
" H    c #333538",
" I    c #383A3D",
" J    c #403F42",
" K    c #2D2F32",
" L    c #323437",
" M    c #303235",
" N    c #34363A",
" O    c #333437",
" P    c #494648",
" Q    c #36383C",
" R    c #2C2D30",
" S    c #2A2B2F",
" T    c #38393C",
" U    c #494749",
" V    c #28282C",
" W    c #242428",
" X    c #37383B",
" Y    c #C19D93",
" Z    c #CA9180",
" &    c #B6A7A5",
"0     c #3B3C3F",
"00    c #303135",
"01    c #454447",
"02    c #A69694",
"03    c #181A1C",
"04    c #1A1C1E",
"05    c #C39C91",
"06    c #DD8E74",
"07    c #DE8B6F",
"08    c #B38072",
"09    c #B1A7A7",
"0a    c #3F4043",
"0b    c #2F3033",
"0c    c #434245",
"0d    c #A9A8A6",
"0e    c #676569",
"0f    c #2C2D31",
"0g    c #1D1E21",
"0h    c #3E3F42",
"0i    c #C1A198",
"0j    c #DB8E74",
"0k    c #E48C70",
"0l    c #B48375",
"0m    c #D57154",
"0n    c #B28073",
"0o    c #434346",
"0p    c #333438",
"0q    c #2B2C30",
"0r    c #756D6F",
"0s    c #767174",
"0t    c #63656B",
"0u    c #2D2E32",
"0v    c #2C2C30",
"0w    c #4E4D50",
"0x    c #BAA49E",
"0y    c #DB8F77",
"0z    c #E28C70",
"0A    c #B68576",
"0B    c #D87052",
"0C    c #D67153",
"0D    c #AF8479",
"0E    c #454547",
"0F    c #27272B",
"0G    c #2E2F33",
"0H    c #2F3034",
"0I    c #292A2D",
"0J    c #383A3E",
"0K    c #B0AEAF",
"0L    c #D5917C",
"0M    c #BB8676",
"0N    c #D67154",
"0O    c #D47255",
"0P    c #AB8277",
"0Q    c #BEB0AD",
"0R    c #46464A",
"0S    c #424346",
"0T    c #666365",
"0U    c #494B4E",
"0V    c #AAA4A4",
"0W    c #90A8B4",
"0X    c #BC978E",
"0Y    c #C08776",
"0Z    c #D37256",
"0&    c #D17357",
"1     c #AA8277",
"10    c #B8958B",
"11    c #4C4B4E",
"12    c #313236",
"13    c #555254",
"14    c #B8ABA9",
"15    c #414548",
"16    c #A29897",
"17    c #90A8B1",
"18    c #77919D",
"19    c #978785",
"1a    c #CE7359",
"1b    c #9C8782",
"1c    c #AC8F87",
"1d    c #505052",
"1e    c #5D595B",
"1f    c #A3918D",
"1g    c #5F5C5F",
"1h    c #A7AFB6",
"1i    c #8F9195",
"1j    c #6A92A3",
"1k    c #708E9D",
"1l    c #8F8B8D",
"1m    c #A6908A",
"1n    c #BFC1C3",
"1o    c #545356",
"1p    c #36383B",
"1q    c #5A5659",
"1r    c #928280",
"1s    c #AAA8A9",
"1t    c #A8AEB3",
"1u    c #A7A3A5",
"1v    c #748E9B",
"1w    c #908B8D",
"1x    c #A28982",
"1y    c #BDB7B7",
"1z    c #59575A",
"1A    c #3B3D41",
"1B    c #565457",
"1C    c #B4B1B2",
"1D    c #ADABAE",
"1E    c #A5ABB1",
"1F    c #9C9596",
"1G    c #9D7F79",
"1H    c #B9AFAE",
"1I    c #B1C5CD",
"1J    c #3B4144",
"1K    c #3B4044",
"1L    c #45484C",
"1M    c #B8AAA7",
"1N    c #ABADB2",
"1O    c #878284",
"1P    c #B2AFB0",
"1Q    c #616266",
"1R    c #3C4144",
"1S    c #42484B",
"1T    c #41474B",
"1U    c #3D4145",
"1V    c #66656A",
"1W    c #B2A09D",
"1X    c #B9B3B4",
"1Y    c #AE9791",
"1Z    c #837878",
"1&    c #9B8986",
"2     c #D0D1D2",
"20    c #757073",
"21    c #54575C",
"22    c #4B4D52",
"23    c #585B60",
"24    c #736F73",
"25    c #B69F99",
"26    c #807A7D",
"27    c #4E5155",
"28    c #7B7274",
"29    c #6E696B",
"2a    c #646265",
"2b    c #5E5E62",
"2c    c #5A5A5E",
"2d    c #5F5D61",
"2e    c #656266",
"2f    c #696669",
"2g    c #837877",
"2h    c #B6A7A7",
"2i    c #797275",
"2j    c #5A5C60",
"2k    c #505358",
"2l    c #5F5F63",
"   0 1 2 3 4 5 6 7 8 9 a b b b b b b b b",
" c d e f g h i j k l m n o b b b b b b b",
" b b p q r s b b b t u v w x b b b b b b",
" b b y z A B b b b C D E F G b b b b b b",
" b b H v I J b b b b K L F M b b b b b b",
" b b N F O P b b b b Q R S K b b b b b b",
" b b T F h U b b b b e V W X b b Y Z & b",
" b b0  F0001 b b b02 N0304 o b0506070809",
" b b0a F0b0c b b0d0e0f0g0h b0i0j0k0l0m0n",
" b b0o0p0q I0r0s0t0u0v0w b0x0y0z0A0B0C0D",
" b b0E V0F0G0H0f0I0F0J b0K0L0z0M0N0O0P0Q",
" b b0R0F0F0S0T0U0f V M0V0W0X0Y0Z0&1 10 b",
" b b1112 H13 b14150H N161718191a1b1c b b",
" b b1d F F1e b b1f I1g1h1i1j1k1l1m1n b b",
" b b1o0J1p1q b b b1r1s1t1u1v1w1x1y b b b",
" b b1z1A1A1B b b b b1C1D1E1F1G1H b b b b",
" b1I f1J1K1L b b b b b1M1N1O1P b b b b b",
"021Q1R1S1T1U1V1W b b b b1X1Y1Z1&2  b b b",
"2021 n n f222324 b b b2 2526272728 b b b",
"292a2b2c2d2e2f2g b b b2 2h2i2j2k2l b b b"};

