/* XPM */
static char *CHUDEditorGUI_WxBitmapButton11_XPM[]={
/* CHUDEditorGUI_WxBitmapButton11 */
"20 20 166 2",
"      c None",
" 0    c #000000",
" 1    c #37241B",
" 2    c #55372D",
" 3    c #4E2B2B",
" 4    c #281616",
" 5    c #4D3425",
" 6    c #F6CBB5",
" 7    c #FACDBC",
" 8    c #895849",
" 9    c #874848",
" a    c #F59696",
" b    c #E78A8A",
" c    c #321A1A",
" d    c #412C1C",
" e    c #F7CAAD",
" f    c #FBCCB4",
" g    c #F9C1AC",
" h    c #F6B5A3",
" i    c #80493E",
" j    c #823F3F",
" k    c #F08787",
" l    c #F38989",
" m    c #F78C8C",
" n    c #EA8383",
" o    c #261414",
" p    c #6B4C34",
" q    c #FCCAAA",
" r    c #FAC0A3",
" s    c #F7B49B",
" t    c #F4A993",
" u    c #EE9B8A",
" v    c #763A33",
" w    c #7D3737",
" x    c #EA7878",
" y    c #ED7979",
" z    c #F07B7B",
" A    c #F47F7F",
" B    c #F58383",
" C    c #422222",
" D    c #875A3E",
" E    c #F7B391",
" F    c #F4A78A",
" G    c #F09B82",
" H    c #EC8D7A",
" I    c #E77E72",
" J    c #6D2C29",
" K    c #782E2E",
" L    c #E36868",
" M    c #E66969",
" N    c #EA6B6B",
" O    c #EC6F6F",
" P    c #EE7272",
" Q    c #5E2D2D",
" R    c #7E4D34",
" S    c #F09B79",
" T    c #ED8C71",
" U    c #E77E69",
" V    c #E26E61",
" W    c #DC5E59",
" X    c #DC5656",
" Y    c #DE5757",
" Z    c #E15A5A",
" &    c #E55D5D",
"0     c #E66060",
"00    c #5A2626",
"01    c #753E29",
"02    c #E87F60",
"03    c #E36F58",
"04    c #DE5E50",
"05    c #D84D48",
"06    c #D64545",
"07    c #DA4848",
"08    c #DD4B4B",
"09    c #DD4E4E",
"0a    c #561E1E",
"0b    c #6A2F1E",
"0c    c #DE6047",
"0d    c #D94F3F",
"0e    c #D23C37",
"0f    c #D13535",
"0g    c #D33838",
"0h    c #D43B3B",
"0i    c #511818",
"0j    c #73301C",
"0k    c #D95136",
"0l    c #D33E2E",
"0m    c #CB2B26",
"0n    c #C92323",
"0o    c #CE2727",
"0p    c #D02C2C",
"0q    c #581515",
"0r    c #753218",
"0s    c #DA552E",
"0t    c #D34225",
"0u    c #CC2F1D",
"0v    c #C51B15",
"0w    c #C31313",
"0x    c #C71818",
"0y    c #CC2020",
"0z    c #D12D2D",
"0A    c #5B1717",
"0B    c #773414",
"0C    c #DB5825",
"0D    c #D4461D",
"0E    c #CD3315",
"0F    c #C7200D",
"0G    c #BC0B05",
"0H    c #BC0606",
"0I    c #C41313",
"0J    c #C92020",
"0K    c #CF2C2C",
"0L    c #D43838",
"0M    c #5F1D1D",
"0N    c #773710",
"0O    c #DC5C1C",
"0P    c #D64A14",
"0Q    c #CF370C",
"0R    c #C82404",
"0S    c #BF1400",
"0T    c #430200",
"0U    c #4D0303",
"0V    c #BF1313",
"0W    c #C71F1F",
"0X    c #CD2C2C",
"0Y    c #D23737",
"0Z    c #D64343",
"0&    c #622323",
"1     c #522808",
"10    c #DE6113",
"11    c #D74F0B",
"12    c #D03C03",
"13    c #CA2D00",
"14    c #C12000",
"15    c #440700",
"16    c #4D0808",
"17    c #C11F1F",
"18    c #C92B2B",
"19    c #CE3636",
"1a    c #D54242",
"1b    c #DA4F4F",
"1c    c #3E1818",
"1d    c #1F0E01",
"1e    c #C24C02",
"1f    c #D34600",
"1g    c #CD3900",
"1h    c #C42C00",
"1i    c #440C00",
"1j    c #4D0C0C",
"1k    c #C52A2A",
"1l    c #CC3535",
"1m    c #D24242",
"1n    c #BD4444",
"1o    c #170909",
"1p    c #1F0C00",
"1q    c #B93E00",
"1r    c #C63700",
"1s    c #450F00",
"1t    c #4E1111",
"1u    c #C63434",
"1v    c #B43838",
"1w    c #190909",
"1x    c #180800",
"1y    c #2F0D00",
"1z    c #200909",
"1A    c #0F0505",
"                                        ",
"       0 0 0 0             0 0 0        ",
"     0 0 1 2 0 0         0 0 3 4 0      ",
"   0 0 5 6 7 8 0 0     0 0 9 a b c 0    ",
"   0 d e f g h i 0 0 0 0 j k l m n o 0  ",
"   0 p q r s t u v 0 0 w x y z A B C 0  ",
"   0 0 D E F G H I J K L M N O P Q 0 0  ",
"     0 0 R S T U V W X Y Z &0 00 0 0    ",
"       0 00102030405060708090a 0 0      ",
"         0 00b0c0d0e0f0g0h0i 0 0        ",
"         0 00j0k0l0m0n0o0p0q 0 0        ",
"       0 00r0s0t0u0v0w0x0y0z0A 0 0      ",
"     0 00B0C0D0E0F0G0H0I0J0K0L0M 0 0    ",
"   0 00N0O0P0Q0R0S0T0U0V0W0X0Y0Z0& 0 0  ",
"   01 101112131415 0 0161718191a1b1c 0  ",
"   01d1e1f1g1h1i 0 0 0 01j1k1l1m1n1o 0  ",
"     01p1q1r1s 0 0     0 01t1u1v1w 0    ",
"       01x1y 0 0         0 01z1A 0      ",
"         0 0 0             0 0 0        ",
"                                        "};

