/* XPM */
static char *clonetiler_per_column_shift_xpm[] = {
/* width height num_colors chars_per_pixel */
"    24    24      256            2",
/* colors */
"`` c #e8e8e4",
"`. c #545454",
"`# c #313131",
"`a c #222222",
"`b c #141414",
"`c c #050505",
"`d c #1c1c1c",
"`e c #3c3c3c",
"`f c #f3f6f9",
"`g c #e4ecf3",
"`h c #cfddea",
"`i c #bfd1e2",
"`j c #000000",
"`k c #383838",
"`l c #f4f7fa",
"`m c #a3bdd7",
"`n c #bccfe2",
"`o c #b6cbe0",
"`p c #343434",
"`q c #f0f4f8",
"`r c #a8c1d9",
"`s c #c1d3e4",
"`t c #b2c8de",
"`u c #303030",
"`v c #ecf2f7",
"`w c #acc4db",
"`x c #c6d6e6",
"`y c #aec5dc",
"`z c #2c2c2c",
"`A c #e8eff5",
"`B c #b1c8de",
"`C c #cbdae8",
"`D c #aac3da",
"`E c #282828",
"`F c #d0ddea",
"`G c #a6c0d9",
"`H c #242424",
"`I c #e0e9f2",
"`J c #bbcfe2",
"`K c #d5e1ed",
"`L c #a2bdd7",
"`M c #202020",
"`N c #dce6f0",
"`O c #c0d2e4",
"`P c #d9e4ef",
"`Q c #9ebad5",
"`R c #d8e3ee",
"`S c #c5d6e6",
"`T c #dee8f1",
"`U c #9ab7d3",
"`V c #e4ebf3",
"`W c #181818",
"`X c #d4e0ec",
"`Y c #cad9e8",
"`Z c #e3ebf3",
"`0 c #98b6d3",
"`1 c #d0ddeb",
"`2 c #101010",
"`3 c #ccdbe9",
"`4 c #edf2f7",
"`5 c #adc4db",
"`6 c #0c0c0c",
"`7 c #cbd9e7",
"`8 c #b3c9de",
".` c #a2bdd6",
".. c #aac2da",
".# c #1a1a1a",
".a c #151515",
".b c #131313",
".c c #b7cbe0",
".d c #dcdcd9",
".e c #d2d2cf",
".f c #dcdcd8",
".g c #e0e9f1",
".h c #c0d3e4",
".i c #dae4ef",
".j c #1b1b1b",
".k c #dfe8f1",
".l c #171717",
".m c #cadae8",
".n c #e9eff5",
".o c #0f0f0f",
".p c #ccdae9",
".q c #d2e0eb",
".r c #e9f0f5",
".s c #0b0b0b",
".t c #ccdae7",
".u c #b5cade",
".v c #a2bcd6",
".w c #a8c1d7",
".x c #000000",
".y c #000000",
".z c #000000",
".A c #000000",
".B c #000000",
".C c #000000",
".D c #000000",
".E c #000000",
".F c #000000",
".G c #000000",
".H c #000000",
".I c #000000",
".J c #000000",
".K c #000000",
".L c #000000",
".M c #000000",
".N c #000000",
".O c #000000",
".P c #000000",
".Q c #000000",
".R c #000000",
".S c #000000",
".T c #000000",
".U c #000000",
".V c #000000",
".W c #000000",
".X c #000000",
".Y c #000000",
".Z c #000000",
".0 c #000000",
".1 c #000000",
".2 c #000000",
".3 c #000000",
".4 c #000000",
".5 c #000000",
".6 c #000000",
".7 c #000000",
".8 c #000000",
"#` c #000000",
"#. c #000000",
"## c #000000",
"#a c #000000",
"#b c #000000",
"#c c #000000",
"#d c #000000",
"#e c #000000",
"#f c #000000",
"#g c #000000",
"#h c #000000",
"#i c #000000",
"#j c #000000",
"#k c #000000",
"#l c #000000",
"#m c #000000",
"#n c #000000",
"#o c #000000",
"#p c #000000",
"#q c #000000",
"#r c #000000",
"#s c #000000",
"#t c #000000",
"#u c #000000",
"#v c #000000",
"#w c #000000",
"#x c #000000",
"#y c #000000",
"#z c #000000",
"#A c #000000",
"#B c #000000",
"#C c #000000",
"#D c #000000",
"#E c #000000",
"#F c #000000",
"#G c #000000",
"#H c #000000",
"#I c #000000",
"#J c #000000",
"#K c #000000",
"#L c #000000",
"#M c #000000",
"#N c #000000",
"#O c #000000",
"#P c #000000",
"#Q c #000000",
"#R c #000000",
"#S c #000000",
"#T c #000000",
"#U c #000000",
"#V c #000000",
"#W c #000000",
"#X c #000000",
"#Y c #000000",
"#Z c #000000",
"#0 c #000000",
"#1 c #000000",
"#2 c #000000",
"#3 c #000000",
"#4 c #000000",
"#5 c #000000",
"#6 c #000000",
"#7 c #000000",
"#8 c #000000",
"a` c #000000",
"a. c #000000",
"a# c #000000",
"aa c #000000",
"ab c #000000",
"ac c #000000",
"ad c #000000",
"ae c #000000",
"af c #000000",
"ag c #000000",
"ah c #000000",
"ai c #000000",
"aj c #000000",
"ak c #000000",
"al c #000000",
"am c #000000",
"an c #000000",
"ao c #000000",
"ap c #000000",
"aq c #000000",
"ar c #000000",
"as c #000000",
"at c #000000",
"au c #000000",
"av c #000000",
"aw c #000000",
"ax c #000000",
"ay c #000000",
"az c #000000",
"aA c #000000",
"aB c #000000",
"aC c #000000",
"aD c #000000",
"aE c #000000",
"aF c #000000",
"aG c #000000",
"aH c #000000",
"aI c #000000",
"aJ c #000000",
"aK c #000000",
"aL c #000000",
"aM c #000000",
"aN c #000000",
"aO c #000000",
"aP c #000000",
"aQ c #000000",
"aR c #000000",
"aS c #000000",
"aT c #000000",
"aU c #000000",
"aV c #000000",
"aW c #000000",
"aX c #000000",
"aY c #000000",
"aZ c #000000",
"a0 c #000000",
"a1 c #000000",
"a2 c #000000",
"a3 c #000000",
"a4 c #000000",
"a5 c #000000",
"a6 c #000000",
"a7 c #000000",
"a8 c #000000",
/* pixels */
"```.`#`a`b`c`d``````````````````````````````````",
"```e`f`g`h`i`j``````````````````````````````````",
"```k`l`m`n`o`j``````````````````````````````````",
"```p`q`r`s`t`j``````````````````````````````````",
"```u`v`w`x`y`j`````.`#`a`b`c`d``````````````````",
"```z`A`B`C`D`j`````e`f`g`h`i`j``````````````````",
"```E`g`o`F`G`j`````k`l`m`n`o`j``````````````````",
"```H`I`J`K`L`j`````p`q`r`s`t`j``````````````````",
"```M`N`O`P`Q`j`````u`v`w`x`y`j`````.`#`a`b`c`d``",
"```d`R`S`T`U`j`````z`A`B`C`D`j`````e`f`V`h`i`j``",
"```W`X`Y`Z`0`j`````E`g`o`F`G`j`````k`l`m`n`o`j``",
"```b`1`h`A`0`j`````H`I`J`K`L`j`````p`q`r`s`t`j``",
"```2`3`X`4`0`j`````M`N`O`P`Q`j`````u`v`5`x`y`j``",
"```6`7`8`Q.``j`````d`R`S`T`U`j`````z`A`t`C..`j``",
"``.#.a.a.a.a.b`````W`X`Y`Z`0`j`````E`g.c`1`G`j``",
"``.d.e.e.e.e.f`````b`1`h`A`0`j`````H.g`n`K`L`j``",
"```````````````````2`3`X`4`0`j`````M`N.h.i`Q`j``",
"```````````````````6`7`8`Q.``j````.j`R`S.k`U`j``",
"``````````````````.#.a.a.a.a.b````.l`X.m`V`0`j``",
"``````````````````.f.e.e.e.e.f````.b`F`h.n`0`j``",
"``````````````````````````````````.o.p.q.r`0`j``",
"``````````````````````````````````.s.t.u.v.w`j``",
"```````````````````````````````````a`j`j`j`j`d``",
"````````````````````````````````````````````````"
};
