/* XPM */
static char *clonetiler_per_column_rotation_xpm[] = {
/* width height num_colors chars_per_pixel */
"    24    24      256            2",
/* colors */
"`` c #e8e8e4",
"`. c #e7e7e3",
"`# c #b4b4b1",
"`a c #e3e3e0",
"`b c #545454",
"`c c #313131",
"`d c #222222",
"`e c #141414",
"`f c #050505",
"`g c #1b1b1b",
"`h c #383837",
"`i c #0d0d0d",
"`j c #7b7b79",
"`k c #3c3c3c",
"`l c #f3f6f9",
"`m c #e4ecf3",
"`n c #bfccd7",
"`o c #60666d",
"`p c #2f3032",
"`q c #bcc6d1",
"`r c #bacbda",
"`s c #151516",
"`t c #a7a7a5",
"`u c #6c6c6a",
"`v c #d5d5d1",
"`w c #383838",
"`x c #f4f7fa",
"`y c #a0b9d2",
"`z c #434445",
"`A c #a7aeb5",
"`B c #dae2ea",
"`C c #c4d5e5",
"`D c #c2d3e3",
"`E c #86929c",
"`F c #131313",
"`G c #5b5f62",
"`H c #151616",
"`I c #80807e",
"`J c #343434",
"`K c #f0f4f8",
"`L c #a8c1d9",
"`M c #61666a",
"`N c #c8ced4",
"`O c #c6d5e2",
"`P c #acc4db",
"`Q c #c5d5e6",
"`R c #727f8b",
"`S c #454a4d",
"`T c #c0d2e3",
"`U c #b6c9dd",
"`V c #5e666c",
"`W c #232322",
"`X c #a4a4a1",
"`Y c #303030",
"`Z c #ecf2f7",
"`0 c #aebbc9",
"`1 c #4e5052",
"`2 c #e5e8ec",
"`3 c #aec5dc",
"`4 c #b2c4d5",
"`5 c #343538",
"`6 c #d0dbe6",
"`7 c #bdd1e3",
"`8 c #c5d6e6",
".` c #bbcee1",
".. c #aabccd",
".# c #353a3e",
".a c #424240",
".b c #c4c4c0",
".c c #2c2c2c",
".d c #e8eff5",
".e c #b1c8de",
".f c #cbdae8",
".g c #68727c",
".h c #7b7c7d",
".i c #d4e1ec",
".j c #6f7881",
".k c #999da2",
".l c #e5ecf3",
".m c #a5bfd8",
".n c #b3c9de",
".o c #c8d8e8",
".p c #aec5db",
".q c #93a4b2",
".r c #1a1c1d",
".s c #656563",
".t c #d9d9d6",
".u c #282828",
".v c #b6cbe0",
".w c #d0ddea",
".x c #9eb6cd",
".y c #2e2e2e",
".z c #e4ebef",
".A c #85909b",
".B c #4f5152",
".C c #cdd1d6",
".D c #e7edf4",
".E c #b9cde0",
".F c #b0c7dd",
".G c #c1d3e4",
".H c #d0deeb",
".I c #c1d2e4",
".J c #a4bdd7",
".K c #75818c",
".L c #898987",
".M c #e5e5e1",
".N c #242424",
".O c #e0e9f2",
".P c #bbcfe2",
".Q c #d5e1ed",
".R c #a2bdd7",
".S c #161616",
".T c #868787",
".U c #dae4ee",
".V c #a7b6c6",
".W c #636669",
".X c #65686b",
".Y c #ccd1d7",
".Z c #d4dfe8",
".0 c #b8cce0",
".1 c #bfd1e3",
".2 c #d0ddeb",
".3 c #d8e2ee",
".4 c #b4c9de",
".5 c #a2bad2",
".6 c #50585d",
".7 c #2a2a29",
".8 c #adadaa",
"#` c #202020",
"#. c #dce6f0",
"## c #c0d2e4",
"#a c #d9e4ef",
"#b c #9ebad5",
"#c c #010101",
"#d c #474747",
"#e c #d5dbe0",
"#f c #c2d3e4",
"#g c #ccdae9",
"#h c #a6aeb6",
"#i c #3f4346",
"#j c #616263",
"#k c #dee5ed",
"#l c #cbd9e7",
"#m c #bed1e3",
"#n c #cddce9",
"#o c #dee8f1",
"#p c #d6e2ed",
"#q c #9eb1c5",
"#r c #242627",
"#s c #6e6e6c",
"#t c #1c1c1c",
"#u c #d8e3ee",
"#v c #9ab7d3",
"#w c #000000",
"#x c #b3b3b1",
"#y c #575758",
"#z c #d7e2ec",
"#A c #c3d4e5",
"#B c #b6c9dc",
"#C c #5e666d",
"#D c #2d2d2d",
"#E c #afb2b5",
"#F c #d8e4ee",
"#G c #c5d6e5",
"#H c #e9eff5",
"#I c #636a6f",
"#J c #6d6d6b",
"#K c #181818",
"#L c #d4e0ec",
"#M c #cad9e8",
"#N c #e3ebf3",
"#O c #98b6d3",
"#P c #5c5c5b",
"#Q c #bac0c4",
"#R c #c7d7e7",
"#S c #d3e0ec",
"#T c #e3ebf2",
"#U c #292c2e",
"#V c #5a5a59",
"#W c #424242",
"#X c #c3cad0",
"#Y c #cfddea",
"#Z c #c6d6e6",
"#0 c #c8d8e7",
"#1 c #adbfd0",
"#2 c #181817",
"#3 c #ddddd9",
"#4 c #cbcbc8",
"#5 c #333434",
"#6 c #d2deeb",
"#7 c #c9d8e7",
"#8 c #bdd0e3",
"a` c #9aacbd",
"a. c #2f2f2e",
"a# c #bfbfbc",
"aa c #484847",
"ab c #606263",
"ac c #cbd6e0",
"ad c #474a4c",
"ae c #91918e",
"af c #101010",
"ag c #ccdbe9",
"ah c #edf2f7",
"ai c #787876",
"aj c #93979c",
"ak c #c7d7e6",
"al c #a5bfd6",
"am c #6d757c",
"an c #111111",
"ao c #e0e0dc",
"ap c #9f9f9d",
"aq c #272727",
"ar c #474847",
"as c #0c0c0c",
"at c #a2bdd6",
"au c #272726",
"av c #c5d0d9",
"aw c #9fa9b1",
"ax c #171819",
"ay c #626261",
"az c #d8d8d4",
"aA c #888886",
"aB c #c2c2bf",
"aC c #1a1a1a",
"aD c #151515",
"aE c #959592",
"aF c #080808",
"aG c #3f3f3e",
"aH c #c1c1be",
"aI c #dcdcd9",
"aJ c #d2d2cf",
"aK c #dcdcd8",
"aL c #c6c6c3",
"aM c #000000",
"aN c #000000",
"aO c #000000",
"aP c #000000",
"aQ c #000000",
"aR c #000000",
"aS c #000000",
"aT c #000000",
"aU c #000000",
"aV c #000000",
"aW c #000000",
"aX c #000000",
"aY c #000000",
"aZ c #000000",
"a0 c #000000",
"a1 c #000000",
"a2 c #000000",
"a3 c #000000",
"a4 c #000000",
"a5 c #000000",
"a6 c #000000",
"a7 c #000000",
"a8 c #000000",
/* pixels */
"````````````````````````````````````````````````",
"````````````````````````````````````````````````",
"````````````````````````````````````````````````",
"`````````````.`#`a``````````````````````````````",
"`b`c`d`e`f`g`h`i`j``````````````````````````````",
"`k`l`m`n`o`p`q`r`s`t`u`v````````````````````````",
"`w`x`y`z`A`B`C`D`E`F`G`H`I`a````````````````````",
"`J`K`L`M`N`O`P`Q`R`S`T`U`V`W`X``````````````````",
"`Y`Z`P`0`1`2`3`4`5`6`7`8.`...#.a.b``````````````",
".c.d.e.f.g.h.i.j.k.l.m.n`C.o.p.q.r.s.t``````````",
".u`m.v.w.x.y.z.A.B.C.D.E.F.G.H.I.J.K`s.L.M``````",
".N.O.P.Q.R.S.T.U.V.W.X.Y.Z.0.1.2.3.4.5.6.7.8````",
"#`#.###a#b#c#d#e#f#g#h#i#j#k#l#m#n#o#p.m#q#r#s``",
"#t#u`8#o#v#w#x#y#z#A#.#B#C#D#E#F#G.f#.#H#b#I#J``",
"#K#L#M#N#O#w``#P#Q#R#S#T#b#U#V#W#X#Y#Z#0#1#2#3``",
"`e.2#Y.d#O#w``#4#5#6#7#N#8a`a.a#aaabac#Aadae````",
"afag#Lah#O#w````aiajak.1alamanao``apaqara.`.````",
"as#l.n#bat#w````#3auavawaxayaz``````aoaAaB``````",
"aCaDaDaDaD`F``````aEaFaGaH``````````````````````",
"aIaJaJaJaJaK```````.aL``````````````````````````",
"````````````````````````````````````````````````",
"````````````````````````````````````````````````",
"````````````````````````````````````````````````",
"````````````````````````````````````````````````"
};
