/* XPM */
static char *clonetiler_per_column_xpm[] = {
/* width height num_colors chars_per_pixel */
"    16    16      256            2",
/* colors */
"`` c #e8e8e4",
"`. c #545454",
"`# c #2a2a2a",
"`a c #121212",
"`b c #1c1c1c",
"`c c #3b3b3b",
"`d c #f6f8f9",
"`e c #bfd0e1",
"`f c #000000",
"`g c #373737",
"`h c #f4f7fa",
"`i c #b6cbe0",
"`j c #b6cbdf",
"`k c #333333",
"`l c #eff4f8",
"`m c #b2c8de",
"`n c #b1c8de",
"`o c #f0f4f8",
"`p c #2e2e2e",
"`q c #ebf1f6",
"`r c #adc5dc",
"`s c #e7eef4",
"`t c #a9c2da",
"`u c #262626",
"`v c #e2eaf2",
"`w c #a4bfd8",
"`x c #e2ebf2",
"`y c #212121",
"`z c #dee7f1",
"`A c #a0bcd6",
"`B c #dee7f0",
"`C c #a0bbd6",
"`D c #1d1d1d",
"`E c #d9e4ef",
"`F c #9cb8d4",
"`G c #9bb8d4",
"`H c #dae4ef",
"`I c #191919",
"`J c #d5e1ed",
"`K c #98b6d3",
"`L c #141414",
"`M c #d1deeb",
"`N c #d0deeb",
"`O c #101010",
"`P c #ccdbe9",
"`Q c #0c0c0c",
"`R c #ccdae7",
"`S c #a2bcd5",
"`T c #222222",
"`U c #000000",
"`V c #000000",
"`W c #000000",
"`X c #000000",
"`Y c #000000",
"`Z c #000000",
"`0 c #000000",
"`1 c #000000",
"`2 c #000000",
"`3 c #000000",
"`4 c #000000",
"`5 c #000000",
"`6 c #000000",
"`7 c #000000",
"`8 c #000000",
".` c #000000",
".. c #000000",
".# c #000000",
".a c #000000",
".b c #000000",
".c c #000000",
".d c #000000",
".e c #000000",
".f c #000000",
".g c #000000",
".h c #000000",
".i c #000000",
".j c #000000",
".k c #000000",
".l c #000000",
".m c #000000",
".n c #000000",
".o c #000000",
".p c #000000",
".q c #000000",
".r c #000000",
".s c #000000",
".t c #000000",
".u c #000000",
".v c #000000",
".w c #000000",
".x c #000000",
".y c #000000",
".z c #000000",
".A c #000000",
".B c #000000",
".C c #000000",
".D c #000000",
".E c #000000",
".F c #000000",
".G c #000000",
".H c #000000",
".I c #000000",
".J c #000000",
".K c #000000",
".L c #000000",
".M c #000000",
".N c #000000",
".O c #000000",
".P c #000000",
".Q c #000000",
".R c #000000",
".S c #000000",
".T c #000000",
".U c #000000",
".V c #000000",
".W c #000000",
".X c #000000",
".Y c #000000",
".Z c #000000",
".0 c #000000",
".1 c #000000",
".2 c #000000",
".3 c #000000",
".4 c #000000",
".5 c #000000",
".6 c #000000",
".7 c #000000",
".8 c #000000",
"#` c #000000",
"#. c #000000",
"## c #000000",
"#a c #000000",
"#b c #000000",
"#c c #000000",
"#d c #000000",
"#e c #000000",
"#f c #000000",
"#g c #000000",
"#h c #000000",
"#i c #000000",
"#j c #000000",
"#k c #000000",
"#l c #000000",
"#m c #000000",
"#n c #000000",
"#o c #000000",
"#p c #000000",
"#q c #000000",
"#r c #000000",
"#s c #000000",
"#t c #000000",
"#u c #000000",
"#v c #000000",
"#w c #000000",
"#x c #000000",
"#y c #000000",
"#z c #000000",
"#A c #000000",
"#B c #000000",
"#C c #000000",
"#D c #000000",
"#E c #000000",
"#F c #000000",
"#G c #000000",
"#H c #000000",
"#I c #000000",
"#J c #000000",
"#K c #000000",
"#L c #000000",
"#M c #000000",
"#N c #000000",
"#O c #000000",
"#P c #000000",
"#Q c #000000",
"#R c #000000",
"#S c #000000",
"#T c #000000",
"#U c #000000",
"#V c #000000",
"#W c #000000",
"#X c #000000",
"#Y c #000000",
"#Z c #000000",
"#0 c #000000",
"#1 c #000000",
"#2 c #000000",
"#3 c #000000",
"#4 c #000000",
"#5 c #000000",
"#6 c #000000",
"#7 c #000000",
"#8 c #000000",
"a` c #000000",
"a. c #000000",
"a# c #000000",
"aa c #000000",
"ab c #000000",
"ac c #000000",
"ad c #000000",
"ae c #000000",
"af c #000000",
"ag c #000000",
"ah c #000000",
"ai c #000000",
"aj c #000000",
"ak c #000000",
"al c #000000",
"am c #000000",
"an c #000000",
"ao c #000000",
"ap c #000000",
"aq c #000000",
"ar c #000000",
"as c #000000",
"at c #000000",
"au c #000000",
"av c #000000",
"aw c #000000",
"ax c #000000",
"ay c #000000",
"az c #000000",
"aA c #000000",
"aB c #000000",
"aC c #000000",
"aD c #000000",
"aE c #000000",
"aF c #000000",
"aG c #000000",
"aH c #000000",
"aI c #000000",
"aJ c #000000",
"aK c #000000",
"aL c #000000",
"aM c #000000",
"aN c #000000",
"aO c #000000",
"aP c #000000",
"aQ c #000000",
"aR c #000000",
"aS c #000000",
"aT c #000000",
"aU c #000000",
"aV c #000000",
"aW c #000000",
"aX c #000000",
"aY c #000000",
"aZ c #000000",
"a0 c #000000",
"a1 c #000000",
"a2 c #000000",
"a3 c #000000",
"a4 c #000000",
"a5 c #000000",
"a6 c #000000",
"a7 c #000000",
"a8 c #000000",
/* pixels */
"````````````````````````````````",
"```.`#`a`b```.`#`a`b```.`#`a`b``",
"```c`d`e`f```c`d`e`f```c`d`e`f``",
"```g`h`i`f```g`h`j`f```g`h`i`f``",
"```k`l`m`f```k`l`n`f```k`o`m`f``",
"```p`q`r`f```p`q`r`f```p`q`r`f``",
"```#`s`t`f```#`s`t`f```#`s`t`f``",
"```u`v`w`f```u`v`w`f```u`x`w`f``",
"```y`z`A`f```y`B`C`f```y`z`A`f``",
"```D`E`F`f```D`E`G`f```D`H`F`f``",
"```I`J`K`f```I`J`K`f```I`J`K`f``",
"```L`M`K`f```L`N`K`f```L`M`K`f``",
"```O`P`K`f```O`P`K`f```O`P`K`f``",
"```Q`R`S`f```Q`R`S`f```Q`R`S`f``",
"```T`f`f`b```T`f`f`b```T`f`f`b``",
"````````````````````````````````"
};
