/* XPM */
static char *clonetiler_per_row_scale_xpm[] = {
/* width height num_colors chars_per_pixel */
"    24    24      256            2",
/* colors */
"`` c #545454",
"`. c #3d3d3d",
"`# c #3b3b3b",
"`a c #383838",
"`b c #363636",
"`c c #343434",
"`d c #313131",
"`e c #2f2f2f",
"`f c #2c2c2c",
"`g c #2a2a2a",
"`h c #272727",
"`i c #252525",
"`j c #222222",
"`k c #202020",
"`l c #1e1e1e",
"`m c #1b1b1b",
"`n c #191919",
"`o c #161616",
"`p c #141414",
"`q c #111111",
"`r c #0f0f0f",
"`s c #0c0c0c",
"`t c #0a0a0a",
"`u c #333333",
"`v c #f3f5f7",
"`w c #f5f9fb",
"`x c #f3f7fa",
"`y c #f1f6f9",
"`z c #eef4f8",
"`A c #ecf2f7",
"`B c #ebf1f6",
"`C c #e9eff5",
"`D c #e6edf4",
"`E c #e4ecf3",
"`F c #e2eaf2",
"`G c #dfe8f1",
"`H c #dde7f0",
"`I c #dbe5ef",
"`J c #d8e3ee",
"`K c #d6e2ed",
"`L c #d4e0ec",
"`M c #d2dfeb",
"`N c #d0deea",
"`O c #cedcea",
"`P c #cbdbe9",
"`Q c #cbd9e7",
"`R c #000000",
"`S c #9fbad6",
"`T c #9fbbd6",
"`U c #a1bcd7",
"`V c #a4bed8",
"`W c #a7c0d9",
"`X c #aac2db",
"`Y c #acc4dc",
"`Z c #afc6dd",
"`0 c #b1c8dd",
"`1 c #b4cade",
"`2 c #b7cce0",
"`3 c #bacde1",
"`4 c #bccfe2",
"`5 c #bfd1e3",
"`6 c #c1d3e4",
"`7 c #c4d5e6",
"`8 c #c7d7e7",
".` c #cad9e8",
".. c #ccdbe9",
".# c #cfddea",
".a c #b8cde1",
".b c #d9e4ef",
".c c #aec6dd",
".d c #b0c7dd",
".e c #b2c9de",
".f c #b5cbdf",
".g c #b8cde0",
".h c #bbcfe2",
".i c #bed1e3",
".j c #c4d5e5",
".k c #c6d7e7",
".l c #c9d9e8",
".m c #d4e1ed",
".n c #d7e3ee",
".o c #dae5ef",
".p c #e0e9f1",
".q c #e3ebf3",
".r c #a9c2da",
".s c #cbdae9",
".t c #c0d2e4",
".u c #c3d4e5",
".v c #c6d6e6",
".w c #c8d8e7",
".x c #d1deeb",
".y c #dce6f0",
".z c #e5ecf3",
".A c #e7eef5",
".B c #eaf0f6",
".C c #edf2f7",
".D c #f0f4f8",
".E c #f3f6f9",
".F c #f6f8fb",
".G c #99b7d3",
".H c #020202",
".I c #c0d1e2",
".J c #b8cce0",
".K c #b6cbdf",
".L c #b3c9de",
".M c #afc6dc",
".N c #acc4db",
".O c #aac3da",
".P c #a8c1d9",
".Q c #a5bfd8",
".R c #a3bed7",
".S c #a1bcd6",
".T c #9ebad5",
".U c #9cb9d4",
".V c #9ab7d3",
".W c #98b6d3",
".X c #a2bdd6",
".Y c #1c1c1c",
".Z c #e8e8e4",
".0 c #404040",
".1 c #3a3a3a",
".2 c #373737",
".3 c #353535",
".4 c #323232",
".5 c #292929",
".6 c #262626",
".7 c #222323",
".8 c #1f2020",
"#` c #1c1c1d",
"#. c #19191a",
"## c #161617",
"#a c #141415",
"#b c #0d0e0e",
"#c c #f4f7f9",
"#d c #f1f5f8",
"#e c #eef3f7",
"#f c #ecf1f6",
"#g c #e6edf3",
"#h c #e3ebf2",
"#i c #e0e9f2",
"#j c #dde7f1",
"#k c #dae6ef",
"#l c #d9e4ee",
"#m c #d3e0ec",
"#n c #d0deeb",
"#o c #cddbe9",
"#p c #cad9e7",
"#q c #e4ebf3",
"#r c #a8c1da",
"#s c #b6cbe0",
"#t c #bacee1",
"#u c #bdd0e3",
"#v c #d2dfec",
"#w c #c5d5e6",
"#x c #ccdae9",
"#y c #d3dfec",
"#z c #dae4ef",
"#A c #e8eef5",
"#B c #eef3f8",
"#C c #050505",
"#D c #c0d1e3",
"#E c #b9cde0",
"#F c #aec5dc",
"#G c #abc3db",
"#H c #a9c1da",
"#I c #a6bfd9",
"#J c #a3bdd8",
"#K c #a0bbd6",
"#L c #9dbad5",
"#M c #9ab8d4",
"#N c #9bb8d4",
"#O c #a2bcd6",
"#P c #030303",
"#Q c #050607",
"#R c #020303",
"#S c #60605f",
"#T c #474746",
"#U c #444443",
"#V c #414140",
"#W c #3d3d3c",
"#X c #393938",
"#Y c #363635",
"#Z c #333332",
"#0 c #2f2f2e",
"#1 c #2b2b2a",
"#2 c #272726",
"#3 c #252524",
"#4 c #212120",
"#5 c #1d1d1c",
"#6 c #191918",
"#7 c #323231",
"#8 c #2e2e2e",
"a` c #f2f4f7",
"a. c #f5f8fa",
"a# c #f1f5f9",
"aa c #e9f0f6",
"ab c #dee8f1",
"ac c #d7e2ee",
"ad c #cad8e5",
"ae c #c5d6e6",
"af c #090909",
"ag c #c1d3e2",
"ah c #9fbcd6",
"ai c #080809",
"aj c #0b0c0d",
"ak c #080909",
"al c #e4e4e0",
"am c #e1e1dd",
"an c #000000",
"ao c #000000",
"ap c #000000",
"aq c #000000",
"ar c #000000",
"as c #000000",
"at c #000000",
"au c #000000",
"av c #000000",
"aw c #000000",
"ax c #000000",
"ay c #000000",
"az c #000000",
"aA c #000000",
"aB c #000000",
"aC c #000000",
"aD c #000000",
"aE c #000000",
"aF c #000000",
"aG c #000000",
"aH c #000000",
"aI c #000000",
"aJ c #000000",
"aK c #000000",
"aL c #000000",
"aM c #000000",
"aN c #000000",
"aO c #000000",
"aP c #000000",
"aQ c #000000",
"aR c #000000",
"aS c #000000",
"aT c #000000",
"aU c #000000",
"aV c #000000",
"aW c #000000",
"aX c #000000",
"aY c #000000",
"aZ c #000000",
"a0 c #000000",
"a1 c #000000",
"a2 c #000000",
"a3 c #000000",
"a4 c #000000",
"a5 c #000000",
"a6 c #000000",
"a7 c #000000",
"a8 c #000000",
/* pixels */
"```.`#`a`b`c`d`e`f`g`h`i`j`k`l`m`n`o`p`q`r`s`t`j",
"`u`v`w`x`y`z`A`B`C`D`E`F`G`H`I`J`K`L`M`N`O`P`Q`R",
"`h`C`S`T`U`V`W`X`Y`Z`0`1`2`3`4`5`6`7`8.`...#.a`R",
"`m.b.c.d.e.f.g.h.i`6.j.k.l...#`M.m.n.o`H.p.q.r`R",
"`r.s.t.u.v.w.s`O.x`L`K.b.y`G`F.z.A.B.C.D.E.F.G`R",
".H.I.J.K.L`0.M.N.O.P.Q.R.S.T.U.V.W.W.W.W.W.W.X`R",
".Y`R`R`R`R`R`R`R`R`R`R`R`R`R`R`R`R`R`R`R`R`R`R.Y",
".Z.Z.Z.Z.Z.Z.Z.Z.Z.Z.Z.Z.Z.Z.Z.Z.Z.Z.Z.Z.Z.Z.Z.Z",
".Z.Z.Z.Z.Z.Z.Z.Z.Z.Z.Z.Z.Z.Z.Z.Z.Z.Z.Z.Z.Z.Z.Z.Z",
".Z.Z``.0.0`..1.2.3.4`e`f.5.6.7.8#`#.###a#b`j.Z.Z",
".Z.Z`d#c`x#d#e#f`C#g#h#i#j#k#l`K#m#n#o.`#p`R.Z.Z",
".Z.Z`j#q`U.Q#r.N`Z.L#s#t#u`6`7.w.s.##v`K.L`R.Z.Z",
".Z.Z`p.##t.i`6#w.w#x.##y`K#z`H#i`E#A`B#B.T`R.Z.Z",
".Z.Z#C#D#E.K.L.d#F#G#H#I#J#K#L#M#N#N#N#N#O`R.Z.Z",
".Z.Z.Y#P#Q#Q#Q#Q#Q#Q#Q#Q#Q#Q#Q#Q#Q#Q#Q#Q#R.Y.Z.Z",
".Z.Z.Z.Z.Z.Z.Z.Z.Z.Z.Z.Z.Z.Z.Z.Z.Z.Z.Z.Z.Z.Z.Z.Z",
".Z.Z.Z.Z.Z.Z.Z.Z.Z.Z.Z.Z.Z.Z.Z.Z.Z.Z.Z.Z.Z.Z.Z.Z",
".Z.Z.Z.Z#S#T#U#V#W#X#Y#Z#0#1#2#3#4#5#6#7.Z.Z.Z.Z",
".Z.Z.Z.Z#8a`a.a#.Caa`D`Fab.oac#m.#.sad`R.Z.Z.Z.Z",
".Z.Z.Z.Z.Y.o`Z.L`2`4.tae.``O#y.n.y#i.r`R.Z.Z.Z.Z",
".Z.Z.Z.Zafag#E.f`0#F#G`W#Jah.U#N#N#N#O`R.Z.Z.Z.Z",
".Z.Z.Z.Z`naiajajajajajajajajajajajajak`n.Z.Z.Z.Z",
".Z.Z.Z.Zalamamamamamamamamamamamamamamal.Z.Z.Z.Z",
".Z.Z.Z.Z.Z.Z.Z.Z.Z.Z.Z.Z.Z.Z.Z.Z.Z.Z.Z.Z.Z.Z.Z.Z"
};
