/* XPM */
static char *cut_path_xpm[] = {
/* width height num_colors chars_per_pixel */
"    16    16      256            2",
/* colors */
"`` c #e8e8e4",
"`. c #dd9c99",
"`# c #dfaaa7",
"`a c #d66967",
"`b c #db8b89",
"`c c #dc8e8b",
"`d c #dfa8a5",
"`e c #e5d0cd",
"`f c #e2bab6",
"`g c #e2bcb9",
"`h c #e7e3e0",
"`i c #e8e6e2",
"`j c #e0afac",
"`k c #e4cfcb",
"`l c #d76a69",
"`m c #e5d2cf",
"`n c #e8e7e3",
"`o c #dc908d",
"`p c #de9c9a",
"`q c #e5d4d0",
"`r c #d34f4e",
"`s c #dfa4a1",
"`t c #e7e2de",
"`u c #e7e0dc",
"`v c #e4cac6",
"`w c #2b2b2a",
"`x c #0e0e0d",
"`y c #210505",
"`z c #e0cdca",
"`A c #e4ceca",
"`B c #d03938",
"`C c #000000",
"`D c #d9d9d6",
"`E c #131312",
"`F c #c9c9c6",
"`G c #e6ddd9",
"`H c #e4c8c5",
"`I c #424241",
"`J c #9a9a97",
"`K c #e1b9b6",
"`L c #d55d5b",
"`M c #8e8e8b",
"`N c #393938",
"`O c #e7e7e3",
"`P c #e8e5e1",
"`Q c #dc9391",
"`R c #3c3c3b",
"`S c #6e6e6c",
"`T c #d76b6a",
"`U c #d0d0cd",
"`V c #dbd0cd",
"`W c #e2bebb",
"`X c #db8784",
"`Y c #d97977",
"`Z c #131313",
"`0 c #0b0909",
"`1 c #c9615f",
"`2 c #151515",
"`3 c #d2d2cf",
"`4 c #1c1c1c",
"`5 c #dcdcd8",
"`6 c #000000",
"`7 c #000000",
"`8 c #000000",
".` c #000000",
".. c #000000",
".# c #000000",
".a c #000000",
".b c #000000",
".c c #000000",
".d c #000000",
".e c #000000",
".f c #000000",
".g c #000000",
".h c #000000",
".i c #000000",
".j c #000000",
".k c #000000",
".l c #000000",
".m c #000000",
".n c #000000",
".o c #000000",
".p c #000000",
".q c #000000",
".r c #000000",
".s c #000000",
".t c #000000",
".u c #000000",
".v c #000000",
".w c #000000",
".x c #000000",
".y c #000000",
".z c #000000",
".A c #000000",
".B c #000000",
".C c #000000",
".D c #000000",
".E c #000000",
".F c #000000",
".G c #000000",
".H c #000000",
".I c #000000",
".J c #000000",
".K c #000000",
".L c #000000",
".M c #000000",
".N c #000000",
".O c #000000",
".P c #000000",
".Q c #000000",
".R c #000000",
".S c #000000",
".T c #000000",
".U c #000000",
".V c #000000",
".W c #000000",
".X c #000000",
".Y c #000000",
".Z c #000000",
".0 c #000000",
".1 c #000000",
".2 c #000000",
".3 c #000000",
".4 c #000000",
".5 c #000000",
".6 c #000000",
".7 c #000000",
".8 c #000000",
"#` c #000000",
"#. c #000000",
"## c #000000",
"#a c #000000",
"#b c #000000",
"#c c #000000",
"#d c #000000",
"#e c #000000",
"#f c #000000",
"#g c #000000",
"#h c #000000",
"#i c #000000",
"#j c #000000",
"#k c #000000",
"#l c #000000",
"#m c #000000",
"#n c #000000",
"#o c #000000",
"#p c #000000",
"#q c #000000",
"#r c #000000",
"#s c #000000",
"#t c #000000",
"#u c #000000",
"#v c #000000",
"#w c #000000",
"#x c #000000",
"#y c #000000",
"#z c #000000",
"#A c #000000",
"#B c #000000",
"#C c #000000",
"#D c #000000",
"#E c #000000",
"#F c #000000",
"#G c #000000",
"#H c #000000",
"#I c #000000",
"#J c #000000",
"#K c #000000",
"#L c #000000",
"#M c #000000",
"#N c #000000",
"#O c #000000",
"#P c #000000",
"#Q c #000000",
"#R c #000000",
"#S c #000000",
"#T c #000000",
"#U c #000000",
"#V c #000000",
"#W c #000000",
"#X c #000000",
"#Y c #000000",
"#Z c #000000",
"#0 c #000000",
"#1 c #000000",
"#2 c #000000",
"#3 c #000000",
"#4 c #000000",
"#5 c #000000",
"#6 c #000000",
"#7 c #000000",
"#8 c #000000",
"a` c #000000",
"a. c #000000",
"a# c #000000",
"aa c #000000",
"ab c #000000",
"ac c #000000",
"ad c #000000",
"ae c #000000",
"af c #000000",
"ag c #000000",
"ah c #000000",
"ai c #000000",
"aj c #000000",
"ak c #000000",
"al c #000000",
"am c #000000",
"an c #000000",
"ao c #000000",
"ap c #000000",
"aq c #000000",
"ar c #000000",
"as c #000000",
"at c #000000",
"au c #000000",
"av c #000000",
"aw c #000000",
"ax c #000000",
"ay c #000000",
"az c #000000",
"aA c #000000",
"aB c #000000",
"aC c #000000",
"aD c #000000",
"aE c #000000",
"aF c #000000",
"aG c #000000",
"aH c #000000",
"aI c #000000",
"aJ c #000000",
"aK c #000000",
"aL c #000000",
"aM c #000000",
"aN c #000000",
"aO c #000000",
"aP c #000000",
"aQ c #000000",
"aR c #000000",
"aS c #000000",
"aT c #000000",
"aU c #000000",
"aV c #000000",
"aW c #000000",
"aX c #000000",
"aY c #000000",
"aZ c #000000",
"a0 c #000000",
"a1 c #000000",
"a2 c #000000",
"a3 c #000000",
"a4 c #000000",
"a5 c #000000",
"a6 c #000000",
"a7 c #000000",
"a8 c #000000",
/* pixels */
"```````````````.`#`a`b`c`d``````",
"```````````e`c`f`g`h`i`j`k`l`m``",
"`````````n`e`o```````````i`p`q`n",
"`````````o`l`````````````````r`s",
"`````````t`u`````````````````t`v",
"`w`x`x`x`y`z`````````````````A`B",
"`C`D`D`D`E`F`````````````````G`H",
"`C```````I`J`````````````````K`L",
"`C```````M`N`O`````````````P`Q`i",
"`C```````O`R`S`O`````````i`A`T`n",
"`C`````````U`R`N`J`F`V`W`X`Y````",
"`C```````````O`M`I`Z`0`1`h`n````",
"`C```````````````````2`3````````",
"`C```````````````````2`3````````",
"`C```````````````````2`3````````",
"`4`C`C`C`C`C`C`C`C`C`Z`5````````"
};
