/* XPM */
static char *delete_xml_node_xpm[] = {
/* width height num_colors chars_per_pixel */
"    24    24      256            2",
/* colors */
"`` c #1d1d1d",
"`. c #000000",
"`# c #191919",
"`a c #e4e4e0",
"`b c #ffffff",
"`c c #fcfcfc",
"`d c #f9f9f9",
"`e c #f6f6f6",
"`f c #f2f2f2",
"`g c #efefef",
"`h c #ececec",
"`i c #e9e9e9",
"`j c #e6e6e6",
"`k c #e3e3e3",
"`l c #dfdfdf",
"`m c #dcdcdc",
"`n c #060606",
"`o c #b9b9b6",
"`p c #f3f3f3",
"`q c #737373",
"`r c #e0e0e0",
"`s c #d9d9d9",
"`t c #f0f0f0",
"`u c #ededed",
"`v c #dddddd",
"`w c #dadada",
"`x c #d6d6d6",
"`y c #fdfdfd",
"`z c #eaeaea",
"`A c #d7d7d7",
"`B c #d3d3d3",
"`C c #dbdbdb",
"`D c #fafafa",
"`E c #f7f7f7",
"`F c #e7e7e7",
"`G c #d4d4d4",
"`H c #d1d1d1",
"`I c #e1e1e1",
"`J c #141414",
"`K c #b7b7b7",
"`L c #bcbcbc",
"`M c #d5d5d5",
"`N c #3a3a3a",
"`O c #676767",
"`P c #383838",
"`Q c #1c1c1c",
"`R c #8f8f8f",
"`S c #cecece",
"`T c #c3c3c3",
"`U c #878787",
"`V c #f4f4f4",
"`W c #afafaf",
"`X c #adadad",
"`Y c #161616",
"`Z c #a8a8a8",
"`0 c #a6a6a6",
"`1 c #cbcbcb",
"`2 c #909090",
"`3 c #020202",
"`4 c #848484",
"`5 c #f1f1f1",
"`6 c #ebebeb",
"`7 c #dedede",
"`8 c #d8d8d8",
".` c #c8c8c8",
".. c #8c8c8c",
".# c #131313",
".a c #eeeeee",
".b c #e8e8e8",
".c c #e4e4e4",
".d c #0a0a0a",
".e c #a4a4a4",
".f c #c6c6c6",
".g c #c5c5c5",
".h c #b8b8b8",
".i c #f5f5f5",
".j c #cacaca",
".k c #e5e5e5",
".l c #e2e2e2",
".m c #d2d2d2",
".n c #7c7c7c",
".o c #0f0f0f",
".p c #686868",
".q c #c2c2c2",
".r c #fefefe",
".s c #fbfbfb",
".t c #cfcfcf",
".u c #cccccc",
".v c #bfbfbf",
".w c #f8f8f8",
".x c #c9c9c9",
".y c #b4b4b4",
".z c #a3a3a3",
".A c #c0c0c0",
".B c #b9b9b9",
".C c #a7a7a7",
".D c #121212",
".E c #9f9f9f",
".F c #d0d0d0",
".G c #c49c9c",
".H c #ab0606",
".I c #aa0000",
".J c #a60000",
".K c #b58d8b",
".L c #a9a9a9",
".M c #a2a2a2",
".N c #9a9a9a",
".O c #cdcdcd",
".P c #ab0202",
".Q c #ae0c0c",
".R c #b01111",
".S c #aa0505",
".T c #7a7a7a",
".U c #757575",
".V c #101010",
".W c #aa0101",
".X c #e0a1a1",
".Y c #edc8c8",
".Z c #af0f0f",
".0 c #b11515",
".1 c #f0d2d2",
".2 c #b0b0b0",
".3 c #969696",
".4 c #c7c7c7",
".5 c #d98e8e",
".6 c #eecdcd",
".7 c #f1d5d5",
".8 c #df9e9e",
"#` c #ababab",
"#. c #a0a0a0",
"## c #c4c4c4",
"#a c #dc9696",
"#b c #e1a6a6",
"#c c #1b1b1b",
"#d c #c1c1c1",
"#e c #bebebe",
"#f c #ab0404",
"#g c #efcfcf",
"#h c #e0a2a2",
"#i c #d88b8b",
"#j c #ecc5c5",
"#k c #bbbbbb",
"#l c #c85b5b",
"#m c #d78686",
"#n c #babab7",
"#o c #d9b1ae",
"#p c #000000",
"#q c #000000",
"#r c #000000",
"#s c #000000",
"#t c #000000",
"#u c #000000",
"#v c #000000",
"#w c #000000",
"#x c #000000",
"#y c #000000",
"#z c #000000",
"#A c #000000",
"#B c #000000",
"#C c #000000",
"#D c #000000",
"#E c #000000",
"#F c #000000",
"#G c #000000",
"#H c #000000",
"#I c #000000",
"#J c #000000",
"#K c #000000",
"#L c #000000",
"#M c #000000",
"#N c #000000",
"#O c #000000",
"#P c #000000",
"#Q c #000000",
"#R c #000000",
"#S c #000000",
"#T c #000000",
"#U c #000000",
"#V c #000000",
"#W c #000000",
"#X c #000000",
"#Y c #000000",
"#Z c #000000",
"#0 c #000000",
"#1 c #000000",
"#2 c #000000",
"#3 c #000000",
"#4 c #000000",
"#5 c #000000",
"#6 c #000000",
"#7 c #000000",
"#8 c #000000",
"a` c #000000",
"a. c #000000",
"a# c #000000",
"aa c #000000",
"ab c #000000",
"ac c #000000",
"ad c #000000",
"ae c #000000",
"af c #000000",
"ag c #000000",
"ah c #000000",
"ai c #000000",
"aj c #000000",
"ak c #000000",
"al c #000000",
"am c #000000",
"an c #000000",
"ao c #000000",
"ap c #000000",
"aq c #000000",
"ar c #000000",
"as c #000000",
"at c #000000",
"au c #000000",
"av c #000000",
"aw c #000000",
"ax c #000000",
"ay c #000000",
"az c #000000",
"aA c #000000",
"aB c #000000",
"aC c #000000",
"aD c #000000",
"aE c #000000",
"aF c #000000",
"aG c #000000",
"aH c #000000",
"aI c #000000",
"aJ c #000000",
"aK c #000000",
"aL c #000000",
"aM c #000000",
"aN c #000000",
"aO c #000000",
"aP c #000000",
"aQ c #000000",
"aR c #000000",
"aS c #000000",
"aT c #000000",
"aU c #000000",
"aV c #000000",
"aW c #000000",
"aX c #000000",
"aY c #000000",
"aZ c #000000",
"a0 c #000000",
"a1 c #000000",
"a2 c #000000",
"a3 c #000000",
"a4 c #000000",
"a5 c #000000",
"a6 c #000000",
"a7 c #000000",
"a8 c #000000",
/* pixels */
"```.`.`.`.`.`.`.`.`.`.`.`.`.`.`.`.`.`.`.`.`.`#`a",
"`.`b`b`b`b`b`b`b`b`b`b`c`d`e`f`g`h`i`j`k`l`m`n`o",
"`.`b`b`b`b`b`b`b`b`b`c`d`e`p`g`h`i`q`k`r`m`s`n`o",
"`.`b`b`b`b`b`b`b`b`c`d`e`p`t`u`i`j`.`r`v`w`x`n`o",
"`.`b`b`b`b`b`b`b`y`d`e`p`t`u`z`j`k`.`v`w`A`B`n`o",
"`.`b`b`C`b`b`b`w`D`E`p`t`u`z`F`k`r`.`w`A`G`H`n`o",
"`.`b`I`J`K`b`L`J`M`.`N```O`P`Q`R`v`.`A`G`H`S`n`o",
"`.`b`b`T`J`U`J`K`V`.`W`X`Y`Z`0```C`.`G`H`S`1`n`o",
"`.`b`b`b`2`3`4`V`5`.`6`F`.`I`7`.`8`.`H`S`1.``n`o",
"`.`b`b`L`J...#`X.a`..b.c`.`7`C`.`M.d.e.f.`.g`n`o",
"`.`b`r`J.h.i.h.#.j`..k.l`.`C`8`..m.n.o.p.g.q`n`o",
"`..r.s`C.i`f.a.t.b.k.l`l`m`8`M.m.t.u.`.g.q.v`n`o",
"`..s.w.i`f`g.c.b.k`w`l`m`s`M.m.t.u.x.f.q.v`L`n`o",
"`..w.i`f`g.y```w`w``.z`s`x.m.t.u.x.f`T.A`L.B`n`o",
"`.`e`f`g.y.#.C`k`l.e.D.E`B.F.G.H.I.I.I.I.I.I.J.K",
"`.`p`g.y`J.L`k`r`m`s.M.D.N.O.H.I.P.Q.I.I.R.P.I.S",
"`.`t.c`Y.T`k`r`v`w`x`B.U.V.A.I.W.X.Y.Z.0.1.X.P.I",
"`.`u`z.2`J`0`v`w`A`B.E.D.3.4.I.I.5`b.6.7`b.8.P.I",
"`.`z`F`k#`.#.M`A`G#..D.3.4##.I.I.I#a`b`b#b.P.I.I",
"`.`F.c`I`v.C#c.j.j#c.3.4###d.I.I.0.1`b`b.Y.Z.I.I",
"`..c`I`7`C`A`1`H`S.q.4###d#e.I#f#g`b#h#i`b#j.P.I",
"`.`I`7`C`8`G`H`S`1.`.g#d#e#k.I.I#l.X.P.I#m#l.I.I",
"`#`n`n`n`n`n`n`n`n`n`n`n`n`n.J.I.I.I.I.I.I.I.I.H",
"`a#n`o`o`o`o`o`o`o`o`o`o`o`o.K.S.I.I.I.I.I.I.H#o"
};
