/* XPM */
static char *delete_xml_attribute_xpm[] = {
/* width height num_colors chars_per_pixel */
"    24    24      256            2",
/* colors */
"`` c #1d1d1d",
"`. c #000000",
"`# c #191919",
"`a c #e4e4e0",
"`b c #ffffff",
"`c c #fcfcfc",
"`d c #f9f9f9",
"`e c #f6f6f6",
"`f c #f2f2f2",
"`g c #efefef",
"`h c #ececec",
"`i c #e9e9e9",
"`j c #e6e6e6",
"`k c #e3e3e3",
"`l c #dfdfdf",
"`m c #dcdcdc",
"`n c #060606",
"`o c #b9b9b6",
"`p c #f3f3f3",
"`q c #e0e0e0",
"`r c #d9d9d9",
"`s c #f0f0f0",
"`t c #ededed",
"`u c #dddddd",
"`v c #dadada",
"`w c #d6d6d6",
"`x c #070707",
"`y c #fdfdfd",
"`z c #eaeaea",
"`A c #d7d7d7",
"`B c #d3d3d3",
"`C c #f7f7f7",
"`D c #171717",
"`E c #fafafa",
"`F c #e7e7e7",
"`G c #d4d4d4",
"`H c #d1d1d1",
"`I c #f4f4f4",
"`J c #e4e4e4",
"`K c #e1e1e1",
"`L c #cecece",
"`M c #e5e5e5",
"`N c #f1f1f1",
"`O c #161616",
"`P c #c7c7c7",
"`Q c #cbcbcb",
"`R c #0e0e0e",
"`S c #c4c4c4",
"`T c #c8c8c8",
"`U c #fefefe",
"`V c #151515",
"`W c #c1c1c1",
"`X c #c5c5c5",
"`Y c #fbfbfb",
"`Z c #dedede",
"`0 c #eeeeee",
"`1 c #ebebeb",
"`2 c #e8e8e8",
"`3 c #d8d8d8",
"`4 c #d0d0d0",
"`5 c #cdcdcd",
"`6 c #cacaca",
"`7 c #c2c2c2",
"`8 c #f8f8f8",
".` c #dbdbdb",
".. c #bfbfbf",
".# c #f5f5f5",
".a c #c6c6c6",
".b c #bcbcbc",
".c c #a3a3a3",
".d c #e2e2e2",
".e c #c3c3c3",
".f c #c0c0c0",
".g c #b9b9b9",
".h c #a1a1a1",
".i c #c49c9c",
".j c #ab0606",
".k c #aa0000",
".l c #a60000",
".m c #b58d8b",
".n c #9f9f9f",
".o c #999999",
".p c #929292",
".q c #909090",
".r c #8e8e8e",
".s c #a90404",
".t c #ab0202",
".u c #ae0c0c",
".v c #b01111",
".w c #aa0505",
".x c #9a9a9a",
".y c #9d9d9d",
".z c #9b9b9b",
".A c #969696",
".B c #949494",
".C c #8d8d8d",
".D c #aa0101",
".E c #e0a1a1",
".F c #edc8c8",
".G c #af0f0f",
".H c #b11515",
".I c #f0d2d2",
".J c #919191",
".K c #939393",
".L c #d98e8e",
".M c #eecdcd",
".N c #f1d5d5",
".O c #df9e9e",
".P c #dc9696",
".Q c #e1a6a6",
".R c #bebebe",
".S c #ab0404",
".T c #efcfcf",
".U c #e0a2a2",
".V c #d88b8b",
".W c #ecc5c5",
".X c #bbbbbb",
".Y c #c85b5b",
".Z c #d78686",
".0 c #babab7",
".1 c #d9b1ae",
".2 c #000000",
".3 c #000000",
".4 c #000000",
".5 c #000000",
".6 c #000000",
".7 c #000000",
".8 c #000000",
"#` c #000000",
"#. c #000000",
"## c #000000",
"#a c #000000",
"#b c #000000",
"#c c #000000",
"#d c #000000",
"#e c #000000",
"#f c #000000",
"#g c #000000",
"#h c #000000",
"#i c #000000",
"#j c #000000",
"#k c #000000",
"#l c #000000",
"#m c #000000",
"#n c #000000",
"#o c #000000",
"#p c #000000",
"#q c #000000",
"#r c #000000",
"#s c #000000",
"#t c #000000",
"#u c #000000",
"#v c #000000",
"#w c #000000",
"#x c #000000",
"#y c #000000",
"#z c #000000",
"#A c #000000",
"#B c #000000",
"#C c #000000",
"#D c #000000",
"#E c #000000",
"#F c #000000",
"#G c #000000",
"#H c #000000",
"#I c #000000",
"#J c #000000",
"#K c #000000",
"#L c #000000",
"#M c #000000",
"#N c #000000",
"#O c #000000",
"#P c #000000",
"#Q c #000000",
"#R c #000000",
"#S c #000000",
"#T c #000000",
"#U c #000000",
"#V c #000000",
"#W c #000000",
"#X c #000000",
"#Y c #000000",
"#Z c #000000",
"#0 c #000000",
"#1 c #000000",
"#2 c #000000",
"#3 c #000000",
"#4 c #000000",
"#5 c #000000",
"#6 c #000000",
"#7 c #000000",
"#8 c #000000",
"a` c #000000",
"a. c #000000",
"a# c #000000",
"aa c #000000",
"ab c #000000",
"ac c #000000",
"ad c #000000",
"ae c #000000",
"af c #000000",
"ag c #000000",
"ah c #000000",
"ai c #000000",
"aj c #000000",
"ak c #000000",
"al c #000000",
"am c #000000",
"an c #000000",
"ao c #000000",
"ap c #000000",
"aq c #000000",
"ar c #000000",
"as c #000000",
"at c #000000",
"au c #000000",
"av c #000000",
"aw c #000000",
"ax c #000000",
"ay c #000000",
"az c #000000",
"aA c #000000",
"aB c #000000",
"aC c #000000",
"aD c #000000",
"aE c #000000",
"aF c #000000",
"aG c #000000",
"aH c #000000",
"aI c #000000",
"aJ c #000000",
"aK c #000000",
"aL c #000000",
"aM c #000000",
"aN c #000000",
"aO c #000000",
"aP c #000000",
"aQ c #000000",
"aR c #000000",
"aS c #000000",
"aT c #000000",
"aU c #000000",
"aV c #000000",
"aW c #000000",
"aX c #000000",
"aY c #000000",
"aZ c #000000",
"a0 c #000000",
"a1 c #000000",
"a2 c #000000",
"a3 c #000000",
"a4 c #000000",
"a5 c #000000",
"a6 c #000000",
"a7 c #000000",
"a8 c #000000",
/* pixels */
"```.`.`.`.`.`.`.`.`.`.`.`.`.`.`.`.`.`.`.`.`.`#`a",
"`.`b`b`b`b`b`b`b`b`b`b`c`d`e`f`g`h`i`j`k`l`m`n`o",
"`.`b`b`.`.`.`b`b`b`b`c`d`e`p`g`h`i`j`k`q`m`r`n`o",
"`.`b`b`.`b`.`b`b`b`c`d`e`p`s`t`i`j`k`q`u`v`w`n`o",
"`.`b`b`.`x`.`b`b`y`d`e`p`s`t`z`j`k`q`u`v`A`B`n`o",
"`.`b`b`C`D`q`b`y`E`C`p`s`t`z`F`k`q`u`v`A`G`H`n`o",
"`.`b`b`b`D`F`y`E`C`I`s`t`z`F`J`K`u`v`A`G`H`L`n`o",
"`.`b`b`b`D`M`E`C`I`N`O`.`.`.`.`.`.`.`P`H`L`Q`n`o",
"`.`b`b`b`D`x`x`x`x`x`.`F`b`b`b`b`b`R`S`L`Q`T`n`o",
"`.`b`b`U`D`r`h`i`F`J`V`x`x`x`x`x`x`.`W`Q`T`X`n`o",
"`.`b`U`Y`O`Z`N`0`1`2`3`G`4`5`6`T`X`7`Q`T`X`7`n`o",
"`.`U`Y`8`O.``0`1`2`M`.`x`x`x`x`n`n`.`T`X`7..`n`o",
"`.`Y`8.#`.`.`.`.`.`.`.`b`b`b`b`b`b`..a`7...b`n`o",
"`.`8.#`f.c`h`i`M.d`l`.`.`.`.`.`.`.`..e.f.b.g`n`o",
"`.`e`f`g.h`i`j`k`l`m`r`w`B`4.i.j.k.k.k.k.k.k.l.m",
"`.`p`g`h.n`j`k`q`m`r.o.p.q.r.s.k.t.u.k.k.v.t.k.w",
"`.`s`h`i.x.y.z.o.A.B.C`3`v`3.k.D.E.F.G.H.I.E.t.k",
"`.`t`z`j`q`u`v`A`G`H.J.B.K.J.k.k.L`b.M.N`b.O.t.k",
"`.`z`F`k`q`u`v`A`G`H`X`7...b.k.k.k.P`b`b.Q.t.k.k",
"`.`F`J`K`u`v`A`G`H`L`6`P`S`W.k.k.H.I`b`b.F.G.k.k",
"`.`J`K`Z.``A`G`H`L`Q`P`S`W.R.k.S.T`b.U.V`b.W.t.k",
"`.`K`Z.``3`G`H`L`Q`T`X`W.R.X.k.k.Y.E.t.k.Z.Y.k.k",
"`#`n`n`n`n`n`n`n`n`n`n`n`n`n.l.k.k.k.k.k.k.k.k.j",
"`a.0`o`o`o`o`o`o`o`o`o`o`o`o.m.w.k.k.k.k.k.k.j.1"
};
