/* XPM */
static char *dialog_toggle_xpm[] = {
/* width height num_colors chars_per_pixel */
"    16    16      256            2",
/* colors */
"`` c #e8e8e4",
"`. c #e2bbb7",
"`# c #da8482",
"`a c #1d1d1d",
"`b c #000000",
"`c c #270000",
"`d c #ba0e0e",
"`e c #e5edf4",
"`f c #d5e1ed",
"`g c #c4d5e5",
"`h c #b3c9de",
"`i c #a2bdd7",
"`j c #98b6d3",
"`k c #a192aa",
"`l c #c71c1e",
"`m c #c09999",
"`n c #bebebe",
"`o c #0b0b0b",
"`p c #b5090a",
"`q c #ffffff",
"`r c #f4cdcd",
"`s c #ce2121",
"`t c #d9d9d5",
"`u c #7a7a7a",
"`v c #515150",
"`w c #424242",
"`x c #656665",
"`y c #d0d0cd",
"`z c #616161",
"`A c #a6a6a6",
"`B c #e2e4e6",
"`C c #d1d8e0",
"`D c #7c838a",
"`E c #181919",
"`F c #cfcfcb",
"`G c #848482",
"`H c #a5a5a5",
"`I c #f5f9fc",
"`J c #e5eef8",
"`K c #d5e4f3",
"`L c #c5d9ef",
"`M c #64717f",
"`N c #4d4f4f",
"`O c #4a4a4a",
"`P c #dde1e4",
"`Q c #e3edf7",
"`R c #d3e2f3",
"`S c #c3d8ee",
"`T c #b3ceea",
"`U c #91aecd",
"`V c #121314",
"`W c #bb0f0f",
"`X c #363637",
"`Y c #cbd4de",
"`Z c #d1e1f2",
"`0 c #c1d7ee",
"`1 c #b1cce9",
"`2 c #a1c2e5",
"`3 c #81a3c8",
"`4 c #111314",
"`5 c #5d5d5d",
"`6 c #737b85",
"`7 c #bfd5ed",
"`8 c #afcbe9",
".` c #9fc0e4",
".. c #8fb6e0",
".# c #4d6379",
".a c #4c4e4f",
".b c #9e9e9b",
".c c #0d0e0e",
".d c #5f6f7e",
".e c #8caacb",
".f c #7ea1c7",
".g c #151719",
".h c #b1b1ae",
".i c #161615",
".j c #7f7f7d",
".k c #000000",
".l c #000000",
".m c #000000",
".n c #000000",
".o c #000000",
".p c #000000",
".q c #000000",
".r c #000000",
".s c #000000",
".t c #000000",
".u c #000000",
".v c #000000",
".w c #000000",
".x c #000000",
".y c #000000",
".z c #000000",
".A c #000000",
".B c #000000",
".C c #000000",
".D c #000000",
".E c #000000",
".F c #000000",
".G c #000000",
".H c #000000",
".I c #000000",
".J c #000000",
".K c #000000",
".L c #000000",
".M c #000000",
".N c #000000",
".O c #000000",
".P c #000000",
".Q c #000000",
".R c #000000",
".S c #000000",
".T c #000000",
".U c #000000",
".V c #000000",
".W c #000000",
".X c #000000",
".Y c #000000",
".Z c #000000",
".0 c #000000",
".1 c #000000",
".2 c #000000",
".3 c #000000",
".4 c #000000",
".5 c #000000",
".6 c #000000",
".7 c #000000",
".8 c #000000",
"#` c #000000",
"#. c #000000",
"## c #000000",
"#a c #000000",
"#b c #000000",
"#c c #000000",
"#d c #000000",
"#e c #000000",
"#f c #000000",
"#g c #000000",
"#h c #000000",
"#i c #000000",
"#j c #000000",
"#k c #000000",
"#l c #000000",
"#m c #000000",
"#n c #000000",
"#o c #000000",
"#p c #000000",
"#q c #000000",
"#r c #000000",
"#s c #000000",
"#t c #000000",
"#u c #000000",
"#v c #000000",
"#w c #000000",
"#x c #000000",
"#y c #000000",
"#z c #000000",
"#A c #000000",
"#B c #000000",
"#C c #000000",
"#D c #000000",
"#E c #000000",
"#F c #000000",
"#G c #000000",
"#H c #000000",
"#I c #000000",
"#J c #000000",
"#K c #000000",
"#L c #000000",
"#M c #000000",
"#N c #000000",
"#O c #000000",
"#P c #000000",
"#Q c #000000",
"#R c #000000",
"#S c #000000",
"#T c #000000",
"#U c #000000",
"#V c #000000",
"#W c #000000",
"#X c #000000",
"#Y c #000000",
"#Z c #000000",
"#0 c #000000",
"#1 c #000000",
"#2 c #000000",
"#3 c #000000",
"#4 c #000000",
"#5 c #000000",
"#6 c #000000",
"#7 c #000000",
"#8 c #000000",
"a` c #000000",
"a. c #000000",
"a# c #000000",
"aa c #000000",
"ab c #000000",
"ac c #000000",
"ad c #000000",
"ae c #000000",
"af c #000000",
"ag c #000000",
"ah c #000000",
"ai c #000000",
"aj c #000000",
"ak c #000000",
"al c #000000",
"am c #000000",
"an c #000000",
"ao c #000000",
"ap c #000000",
"aq c #000000",
"ar c #000000",
"as c #000000",
"at c #000000",
"au c #000000",
"av c #000000",
"aw c #000000",
"ax c #000000",
"ay c #000000",
"az c #000000",
"aA c #000000",
"aB c #000000",
"aC c #000000",
"aD c #000000",
"aE c #000000",
"aF c #000000",
"aG c #000000",
"aH c #000000",
"aI c #000000",
"aJ c #000000",
"aK c #000000",
"aL c #000000",
"aM c #000000",
"aN c #000000",
"aO c #000000",
"aP c #000000",
"aQ c #000000",
"aR c #000000",
"aS c #000000",
"aT c #000000",
"aU c #000000",
"aV c #000000",
"aW c #000000",
"aX c #000000",
"aY c #000000",
"aZ c #000000",
"a0 c #000000",
"a1 c #000000",
"a2 c #000000",
"a3 c #000000",
"a4 c #000000",
"a5 c #000000",
"a6 c #000000",
"a7 c #000000",
"a8 c #000000",
/* pixels */
"`````````````````````.`#````````",
"```a`b`b`b`b`b`b`b`c`d`.````````",
"```b`e`f`g`h`i`j`k`l`m``````````",
"```b`e`f`g`h`i`k`l`.`n``````````",
"```o`b`b`b`b`c`p`m`n`n``````````",
"```b`q`q`q`r`s`.`````n``````````",
"```b`q`q`r`s`.`````t`u`v`w`x`y``",
"```b`q`r`s`.`````t`z`A`B`C`D`E`F",
"```b`r`s`.```````G`H`I`J`K`L`M`N",
"```c`s`.`````````O`P`Q`R`S`T`U`V",
"`.`W`m`n`n`n`n`n`X`Y`Z`0`1`2`3`4",
"`#`.`````````````5`6`7`8.`...#.a",
"````````````````.b.c.d.e.f.#.g`F",
"``````````````.h.i.b`N`4`4.a`F``",
"````````````.h.i.h``````````````",
"````````````.j.h````````````````"
};
