/* XPM */
static char *distribute_vdist_xpm[] = {
/* width height num_colors chars_per_pixel */
"    24    24      256            2",
/* colors */
"`` c #e8e8e4",
"`. c #626261",
"`# c #4b4b4b",
"`a c #464646",
"`b c #424242",
"`c c #3d3d3d",
"`d c #393939",
"`e c #343434",
"`f c #303030",
"`g c #2b2b2b",
"`h c #272727",
"`i c #222222",
"`j c #1e1e1e",
"`k c #191919",
"`l c #141414",
"`m c #101010",
"`n c #0b0b0b",
"`o c #070707",
"`p c #1e1e1d",
"`q c #4a4a4a",
"`r c #e2e8f0",
"`s c #a4b8d2",
"`t c #000000",
"`u c #454545",
"`v c #ca0e0d",
"`w c #c80000",
"`x c #503737",
"`y c #3b3b3b",
"`z c #363636",
"`A c #323232",
"`B c #2d2d2d",
"`C c #292929",
"`D c #242424",
"`E c #202020",
"`F c #1b1b1b",
"`G c #171717",
"`H c #121212",
"`I c #0d0d0d",
"`J c #090909",
"`K c #040404",
"`L c #1c1c1c",
"`M c #0e0e0d",
"`N c #d9d9d6",
"`O c #5d4545",
"`P c #474747",
"`Q c #3e3e3e",
"`R c #252525",
"`S c #e4e4e0",
"`T c #060606",
"`U c #e1e1dd",
"`V c #e2e8ef",
"`W c #a5b9d2",
"`X c #4f3737",
"`Y c #373737",
"`Z c #2e2e2e",
"`0 c #262626",
"`1 c #1d1d1d",
"`2 c #151515",
"`3 c #0c0c0c",
"`4 c #030303",
"`5 c #e2e2de",
"`6 c #dadad7",
"`7 c #d3d3cf",
"`8 c #191918",
".` c #0a0a0a",
".. c #e6e6e2",
".# c #e3e3df",
".a c #e2e2df",
".b c #e1e1de",
".c c #e4e4e1",
".d c #c30000",
".e c #5c4646",
".f c #4d4848",
".g c #494343",
".h c #443e3e",
".i c #3f3939",
".j c #3a3535",
".k c #353030",
".l c #222221",
".m c #181818",
".n c #545453",
".o c #3a3a3a",
".p c #353535",
".q c #161616",
".r c #111111",
".s c #020202",
".t c #000000",
".u c #000000",
".v c #000000",
".w c #000000",
".x c #000000",
".y c #000000",
".z c #000000",
".A c #000000",
".B c #000000",
".C c #000000",
".D c #000000",
".E c #000000",
".F c #000000",
".G c #000000",
".H c #000000",
".I c #000000",
".J c #000000",
".K c #000000",
".L c #000000",
".M c #000000",
".N c #000000",
".O c #000000",
".P c #000000",
".Q c #000000",
".R c #000000",
".S c #000000",
".T c #000000",
".U c #000000",
".V c #000000",
".W c #000000",
".X c #000000",
".Y c #000000",
".Z c #000000",
".0 c #000000",
".1 c #000000",
".2 c #000000",
".3 c #000000",
".4 c #000000",
".5 c #000000",
".6 c #000000",
".7 c #000000",
".8 c #000000",
"#` c #000000",
"#. c #000000",
"## c #000000",
"#a c #000000",
"#b c #000000",
"#c c #000000",
"#d c #000000",
"#e c #000000",
"#f c #000000",
"#g c #000000",
"#h c #000000",
"#i c #000000",
"#j c #000000",
"#k c #000000",
"#l c #000000",
"#m c #000000",
"#n c #000000",
"#o c #000000",
"#p c #000000",
"#q c #000000",
"#r c #000000",
"#s c #000000",
"#t c #000000",
"#u c #000000",
"#v c #000000",
"#w c #000000",
"#x c #000000",
"#y c #000000",
"#z c #000000",
"#A c #000000",
"#B c #000000",
"#C c #000000",
"#D c #000000",
"#E c #000000",
"#F c #000000",
"#G c #000000",
"#H c #000000",
"#I c #000000",
"#J c #000000",
"#K c #000000",
"#L c #000000",
"#M c #000000",
"#N c #000000",
"#O c #000000",
"#P c #000000",
"#Q c #000000",
"#R c #000000",
"#S c #000000",
"#T c #000000",
"#U c #000000",
"#V c #000000",
"#W c #000000",
"#X c #000000",
"#Y c #000000",
"#Z c #000000",
"#0 c #000000",
"#1 c #000000",
"#2 c #000000",
"#3 c #000000",
"#4 c #000000",
"#5 c #000000",
"#6 c #000000",
"#7 c #000000",
"#8 c #000000",
"a` c #000000",
"a. c #000000",
"a# c #000000",
"aa c #000000",
"ab c #000000",
"ac c #000000",
"ad c #000000",
"ae c #000000",
"af c #000000",
"ag c #000000",
"ah c #000000",
"ai c #000000",
"aj c #000000",
"ak c #000000",
"al c #000000",
"am c #000000",
"an c #000000",
"ao c #000000",
"ap c #000000",
"aq c #000000",
"ar c #000000",
"as c #000000",
"at c #000000",
"au c #000000",
"av c #000000",
"aw c #000000",
"ax c #000000",
"ay c #000000",
"az c #000000",
"aA c #000000",
"aB c #000000",
"aC c #000000",
"aD c #000000",
"aE c #000000",
"aF c #000000",
"aG c #000000",
"aH c #000000",
"aI c #000000",
"aJ c #000000",
"aK c #000000",
"aL c #000000",
"aM c #000000",
"aN c #000000",
"aO c #000000",
"aP c #000000",
"aQ c #000000",
"aR c #000000",
"aS c #000000",
"aT c #000000",
"aU c #000000",
"aV c #000000",
"aW c #000000",
"aX c #000000",
"aY c #000000",
"aZ c #000000",
"a0 c #000000",
"a1 c #000000",
"a2 c #000000",
"a3 c #000000",
"a4 c #000000",
"a5 c #000000",
"a6 c #000000",
"a7 c #000000",
"a8 c #000000",
/* pixels */
"`````````````.`#`a`b`c`d`e`f`g`h`i`j`k`l`m`n`o`p",
"`````````````q`r`r`r`r`r`r`r`r`r`r`r`r`r`r`r`s`t",
"`````````````u`r`s`s`s`s`s`s`s`s`s`s`s`s`s`s`s`t",
"`v`w`w`w`w`w`x`y`z`A`B`C`D`E`F`G`H`I`J`K`t`t`t`L",
"```t````````````````````````````````````````````",
"`t`t`t``````````````````````````````````````````",
"```t````````````````````````````````````````````",
"```t````````````````````````````````````````````",
"`M`t`t`N````````````````````````````````````````",
"```M`N``````````````````````````````````````````",
"`v`w`w`w`w`w`w`w`O`P`Q`z`B`R`L`l`n`F`S``````````",
"`````````````````q`r`r`r`r`r`r`r`s`T`U``````````",
"`````````````````u`V`W`W`W`W`W`W`W`T`U``````````",
"`v`w`w`w`w`w`w`w`X`Y`Z`0`1`2`3`4`t`k`S``````````",
"```2`5``````````````````````````````````````````",
"`2`t`M`5````````````````````````````````````````",
"`6`T`7``````````````````````````````````````````",
"```T`U``````````````````````````````````````````",
"`8`t.``6````````````````````````````````````````",
"`5`M`7``````...#.#.#.#.#.a`5`5`5`5`5.b`U`U.c````",
"`v.d`w`w`w`w.e.f.g.h.i.j.k`f`g`0.l`1.m`H`I`F````",
"`````````````q`r`r`r`r`r`r`r`r`r`r`r`r`r`s`t````",
"`````````````u`r`s`s`s`s`s`s`s`s`s`s`s`s`s`t````",
"````````````.n.o.p`f`g`0`E`F.q.r`3`o.s`t`t`L````"
};
