/* XPM */
static char *distribute_bottom_xpm[] = {
/* width height num_colors chars_per_pixel */
"    24    24      256            2",
/* colors */
"`` c #e8e8e4",
"`. c #545454",
"`# c #393939",
"`a c #323232",
"`b c #2b2b2b",
"`c c #242424",
"`d c #1d1d1d",
"`e c #161616",
"`f c #0e0e0e",
"`g c #222222",
"`h c #343434",
"`i c #f7f9fa",
"`j c #f4f7fa",
"`k c #ecf1f7",
"`l c #e4ecf3",
"`m c #dce6f0",
"`n c #d5e1ed",
"`o c #cfdce8",
"`p c #000000",
"`q c #282829",
"`r c #e1e9f2",
"`s c #aec6dc",
"`t c #b3c9de",
"`u c #b8cde0",
"`v c #bdd0e2",
"`w c #c2d3e4",
"`x c #181919",
"`y c #c8d8e7",
"`z c #c1d3e4",
"`A c #c6d6e6",
"`B c #cadae8",
"`C c #cfddea",
"`D c #d4e0ec",
"`E c #99b6d3",
"`F c #e7e1dd",
"`G c #080808",
"`H c #b3c8dc",
"`I c #a7c1d9",
"`J c #a0bbd5",
"`K c #9ab7d4",
"`L c #a4bdd5",
"`M c #c90606",
"`N c #1f0101",
"`O c #060000",
"`P c #060606",
"`Q c #232323",
"`R c #e1e1dd",
"`S c #e5e5e1",
"`T c #e3e3df",
"`U c #e2e2de",
"`V c #e4e4e0",
"`W c #5e5e5d",
"`X c #4f4f4f",
"`Y c #474748",
"`Z c #3f4040",
"`0 c #383838",
"`1 c #2f2f2f",
"`2 c #272728",
"`3 c #1e1e1e",
"`4 c #151616",
"`5 c #1b1b1b",
"`6 c #0e0e0d",
"`7 c #535353",
"`8 c #e2e8f0",
".` c #e2e8ef",
".. c #a5b9d2",
".# c #0e0d0d",
".a c #e1dbd7",
".b c #e2dcd8",
".c c #4c4d4d",
".d c #e2e7ee",
".e c #a8bad3",
".f c #a8bbd3",
".g c #a9bbd3",
".h c #ca0e0d",
".i c #c90f0e",
".j c #573636",
".k c #3f3434",
".l c #372c2c",
".m c #2f2424",
".n c #271c1c",
".o c #212120",
".p c #191918",
".q c #111110",
".r c #2b2b2a",
".s c #d9d9d6",
".t c #dededa",
".u c #ddddda",
".v c #ddddd9",
".w c #dcdcd9",
".x c #dcdcd8",
".y c #dbdbd8",
".z c #dbdbd7",
".A c #e1e1de",
".B c #5a5a59",
".C c #4b4b4b",
".D c #4e4e4e",
".E c #4c4c4b",
".F c #494948",
".G c #454545",
".H c #424242",
".I c #3f3f40",
".J c #3c3d3c",
".K c #393a39",
".L c #363737",
".M c #323333",
".N c #2f3030",
".O c #2c2d2d",
".P c #292a29",
".Q c #262727",
".R c #1e1e1f",
".S c #3b3b3b",
".T c #f1f4f6",
".U c #f1f4f8",
".V c #eef3f7",
".W c #eaf0f5",
".X c #e7eef4",
".Y c #e4ecf2",
".Z c #e2eaf2",
".0 c #dee8f1",
".1 c #dbe6ef",
".2 c #d9e4ee",
".3 c #d6e1ed",
".4 c #d3dfeb",
".5 c #d0deea",
".6 c #cddbe9",
".7 c #cad9e8",
".8 c #c9d8e7",
"#` c #030304",
"#. c #dadad7",
"## c #2e2e2d",
"#a c #e1eaf2",
"#b c #a5bfd8",
"#c c #abc3db",
"#d c #afc6dd",
"#e c #b7cce0",
"#f c #bbcfe2",
"#g c #bfd1e3",
"#h c #c3d4e5",
"#i c #c7d7e7",
"#j c #cbdae8",
"#k c #d3dfec",
"#l c #d7e2ed",
"#m c #050607",
"#n c #151515",
"#o c #20201f",
"#p c #cedcea",
"#q c #bdd1e3",
"#r c #c0d2e4",
"#s c #c4d5e6",
"#t c #cbdae9",
"#u c #d2dfeb",
"#v c #d9e4ef",
"#w c #dde7f0",
"#x c #e0e9f1",
"#y c #e7eef5",
"#z c #ebf0f6",
"#A c #9fbbd6",
"#B c #e6d9d6",
"#C c #151413",
"#D c #e0d3d0",
"#E c #bdcbdb",
"#F c #b8ccdf",
"#G c #b4c9de",
"#H c #b2c7dd",
"#I c #afc5db",
"#J c #acc3da",
"#K c #a8c1d9",
"#L c #a6bfd8",
"#M c #a3bdd7",
"#N c #9db9d4",
"#O c #a5bed5",
"#P c #020202",
"#Q c #310303",
"#R c #0c0101",
"#S c #000000",
"#T c #000000",
"#U c #000000",
"#V c #000000",
"#W c #000000",
"#X c #000000",
"#Y c #000000",
"#Z c #000000",
"#0 c #000000",
"#1 c #000000",
"#2 c #000000",
"#3 c #000000",
"#4 c #000000",
"#5 c #000000",
"#6 c #000000",
"#7 c #000000",
"#8 c #000000",
"a` c #000000",
"a. c #000000",
"a# c #000000",
"aa c #000000",
"ab c #000000",
"ac c #000000",
"ad c #000000",
"ae c #000000",
"af c #000000",
"ag c #000000",
"ah c #000000",
"ai c #000000",
"aj c #000000",
"ak c #000000",
"al c #000000",
"am c #000000",
"an c #000000",
"ao c #000000",
"ap c #000000",
"aq c #000000",
"ar c #000000",
"as c #000000",
"at c #000000",
"au c #000000",
"av c #000000",
"aw c #000000",
"ax c #000000",
"ay c #000000",
"az c #000000",
"aA c #000000",
"aB c #000000",
"aC c #000000",
"aD c #000000",
"aE c #000000",
"aF c #000000",
"aG c #000000",
"aH c #000000",
"aI c #000000",
"aJ c #000000",
"aK c #000000",
"aL c #000000",
"aM c #000000",
"aN c #000000",
"aO c #000000",
"aP c #000000",
"aQ c #000000",
"aR c #000000",
"aS c #000000",
"aT c #000000",
"aU c #000000",
"aV c #000000",
"aW c #000000",
"aX c #000000",
"aY c #000000",
"aZ c #000000",
"a0 c #000000",
"a1 c #000000",
"a2 c #000000",
"a3 c #000000",
"a4 c #000000",
"a5 c #000000",
"a6 c #000000",
"a7 c #000000",
"a8 c #000000",
/* pixels */
"```````````````.`#`a`b`c`d`e`f`g````````````````",
"```````````````h`i`j`k`l`m`n`o`p````````````````",
"```````````````q`r`s`t`u`v`w`t`p````````````````",
"```````````````x`y`z`A`B`C`D`E`p````````````````",
"`F`F`F`F`F`F`F`G`H`I`J`K`K`K`L`p````````````````",
"`M`M`M`M`M`M`M`N`O`O`O`O`O`P`P`Q````````````````",
"`R`P`R``````````````````````````````````````````",
"`p`p`p``````````````````````````````````````````",
"```p````````````````````````````````````````````",
"```p````````````````````````````````````````````",
"```p`````````````S`T`T`T`T`U`U`U`U`V````````````",
"`U`p`R`````````S`W`X`Y`Z`0`1`2`3`4`5````````````",
"`6`p`P`U```````V`7`8`8`8`8`8`8.`..`p````````````",
"`F.#.a`F`F`F`F.b.c.d.e.e.e.f.f.f.g`p````````````",
".h.h.h.h.h.h.h.i.j.k.l.m.n.o.p.q`6.r````````````",
".s`p.s``````````````````````````````````````````",
"`P`p`P``````````````````````````````````````````",
"```p`````````V.t.t.t.u.u.v.v.v.w.x.x.x.x.y.z.z.A",
"```p````````.B.C.D.E.F.G.H.I.J.K.L.M.N.O.P.Q.R`5",
"```p````````.S.T.U.V.W.X.Y.Z.0.1.2.3.4.5.6.7.8#`",
"#.`p.s``````###a#b`I#c#d`t#e#f#g#h#i#j`C#k#l`t#m",
"#n`p`6`U````#o#p#q#r#s`y#t`C#u.3#v#w#x`l#y#z#A#m",
"#B#C#D#B#B#B.q#E#F#G#H#I#J#K#L#M`J#N#N#N#N#N#O#P",
".h.h.h.h.h.h#Q#R#R#R#R#R#R`6`6`6`6`6`6`6`6`6`6.r"
};
