/* XPM */
static char *distribute_hcentre_xpm[] = {
/* width height num_colors chars_per_pixel */
"    24    24      256            2",
/* colors */
"`` c #e8e8e4",
"`. c #ca0e0d",
"`# c #e6d9d6",
"`a c #0e0e0d",
"`b c #e2e2de",
"`c c #000000",
"`d c #e1e1dd",
"`e c #c80000",
"`f c #060606",
"`g c #d9d9d6",
"`h c #e7e1dd",
"`i c #c90606",
"`j c #151413",
"`k c #0e0d0d",
"`l c #e0d3d0",
"`m c #5a5a59",
"`n c #343434",
"`o c #282828",
"`p c #0f0f0f",
"`q c #030303",
"`r c #1c1c1c",
"`s c #be0202",
"`t c #1b0e0e",
"`u c #424242",
"`v c #e9eff3",
"`w c #d3e0ec",
"`x c #9fbbd6",
"`y c #a1bcd6",
"`z c #020303",
"`A c #3f3f3f",
"`B c #c70c0d",
"`C c #a2afc9",
"`D c #3e3e3e",
"`E c #eaf0f5",
"`F c #a5bfd9",
"`G c #cad9e8",
"`H c #9ab7d4",
"`I c #050607",
"`J c #393939",
"`K c #e7eef3",
"`L c #a8c2da",
"`M c #cdcdda",
"`N c #3b3b3b",
"`O c #a8c1da",
"`P c #cddbe9",
"`Q c #e3e3df",
"`R c #4e4e4e",
"`S c #312b2b",
"`T c #c30101",
"`U c #080808",
"`V c #323232",
"`W c #e0e9f1",
"`X c #aec6dc",
"`Y c #c80c0d",
"`Z c #d2d2dd",
"`0 c #383838",
"`1 c #e4ecf2",
"`2 c #abc3da",
"`3 c #cfddea",
"`4 c #dededa",
"`5 c #474747",
"`6 c #f3eff1",
"`7 c #c80606",
"`8 c #b5cade",
".` c #2c2c2c",
".. c #dae4ee",
".# c #b4c9df",
".a c #c80d0e",
".b c #d8d6e0",
".c c #9ab8d4",
".d c #e1eaf1",
".e c #d2dfec",
".f c #464645",
".g c #edeaef",
".h c #afc5dc",
".i c #262626",
".j c #d3e0eb",
".k c #bacee1",
".l c #dedae2",
".m c #313131",
".n c #dee7f0",
".o c #b1c7dd",
".p c #d5e1ed",
".q c #414141",
".r c #e8e8ed",
".s c #aac3da",
".t c #212121",
".u c #cedce8",
".v c #c0d2e4",
".w c #e6edf4",
".x c #2e2e2e",
".y c #dbe5ee",
".z c #b3c9de",
".A c #c5d6e6",
".B c #d8e3ee",
".C c #ddddda",
".D c #3d3d3d",
".E c #e5edf4",
".F c #bccfe2",
".G c #a7c0d8",
".H c #1a1a1a",
".I c #c7d8e6",
".J c #c5d6e7",
".K c #d9e4ef",
".L c #ecf2f7",
".M c #9bb8d4",
".N c #2b2b2b",
".O c #d8e3ed",
".P c #b6cbdf",
".Q c #c8d8e7",
".R c #dbe5ef",
".S c #ddddd9",
".T c #e2eaf2",
".U c #bfd2e3",
".V c #a2bdd6",
".W c #141414",
".X c #c3d4e3",
".Y c #a7c1d9",
".Z c #9fbbd5",
".0 c #272727",
".1 c #d5e1ec",
".2 c #b8cde1",
".3 c #cbdae9",
".4 c #dee8f1",
".5 c #353534",
".6 c #dee8f0",
".7 c #c2d4e5",
".8 c #282827",
"#` c #080809",
"#. c #0b0c0d",
"## c #080909",
"#a c #191919",
"#b c #252524",
"#c c #d2dfea",
"#d c #bbcfe2",
"#e c #cedcea",
"#f c #e1eaf2",
"#g c #dcdcd9",
"#h c #dae4ef",
"#i c #e5e5e1",
"#j c #e4e4e0",
"#k c #222221",
"#l c #d0dde9",
"#m c #bed1e3",
"#n c #d1deeb",
"#o c #e4ecf3",
"#p c #dcdcd8",
"#q c #d6e2ed",
"#r c #1e1e1e",
"#s c #cddbe8",
"#t c #c1d3e4",
"#u c #d4e0ec",
"#v c #e7eef4",
"#w c #d2dfeb",
"#x c #cbdae8",
"#y c #1b1b1b",
"#z c #cad9e7",
"#A c #c3d5e6",
"#B c #d7e3ee",
"#C c #eaf0f6",
"#D c #242423",
"#E c #cddcea",
"#F c #181818",
"#G c #c7d7e6",
"#H c #c6d6e7",
"#I c #dae5ef",
"#J c #edf2f7",
"#K c #dbdbd8",
"#L c #cbd9e7",
"#M c #aac2da",
"#N c #a3bdd6",
"#O c #c4d5e5",
"#P c #c9d8e8",
"#Q c #dde7f0",
"#R c #f0f4f8",
"#S c #181817",
"#T c #111111",
"#U c #c3d3e3",
"#V c #a6bfd9",
"#W c #98b6d3",
"#X c #a2bcd6",
"#Y c #2a2a2a",
"#Z c #000000",
"#0 c #000000",
"#1 c #000000",
"#2 c #000000",
"#3 c #000000",
"#4 c #000000",
"#5 c #000000",
"#6 c #000000",
"#7 c #000000",
"#8 c #000000",
"a` c #000000",
"a. c #000000",
"a# c #000000",
"aa c #000000",
"ab c #000000",
"ac c #000000",
"ad c #000000",
"ae c #000000",
"af c #000000",
"ag c #000000",
"ah c #000000",
"ai c #000000",
"aj c #000000",
"ak c #000000",
"al c #000000",
"am c #000000",
"an c #000000",
"ao c #000000",
"ap c #000000",
"aq c #000000",
"ar c #000000",
"as c #000000",
"at c #000000",
"au c #000000",
"av c #000000",
"aw c #000000",
"ax c #000000",
"ay c #000000",
"az c #000000",
"aA c #000000",
"aB c #000000",
"aC c #000000",
"aD c #000000",
"aE c #000000",
"aF c #000000",
"aG c #000000",
"aH c #000000",
"aI c #000000",
"aJ c #000000",
"aK c #000000",
"aL c #000000",
"aM c #000000",
"aN c #000000",
"aO c #000000",
"aP c #000000",
"aQ c #000000",
"aR c #000000",
"aS c #000000",
"aT c #000000",
"aU c #000000",
"aV c #000000",
"aW c #000000",
"aX c #000000",
"aY c #000000",
"aZ c #000000",
"a0 c #000000",
"a1 c #000000",
"a2 c #000000",
"a3 c #000000",
"a4 c #000000",
"a5 c #000000",
"a6 c #000000",
"a7 c #000000",
"a8 c #000000",
/* pixels */
"```````.`#`a`b```````c`d`e```f```````g`f`h`i````",
"```````.`j`c`c`c`c`c`c`f`e`f`c`c`c`c`c`c`k`i````",
"```````.`l`f`d```````c`d`e`d`c```````g`f`h`i````",
"```````.`#`b`````````````e```d```````````h`i````",
"```````.`#```````````````e```````````````h`i````",
"```````.`#```````````````e```````````````h`i````",
"```````.`#`````````m`n`o`e`p`q`r`````````h`i````",
"`m`n`o`s`t`q`r`````u`v`w`e`x`y`z`````````h`i````",
"`A`v`w`B`C`y`z`````D`E`F`e`G`H`I`````````h`i````",
"`J`K`L`B`M`H`I`````N`K`O`e`P`H`I`````Q`R`S`T`U`r",
"`V`W`X`Y`Z`H`I`````0`1`2`e`3`H`I`````4`5`6`7`8`c",
".`...#.a.b.c`I`````n.d`X`e.e`H`I`````4.f.g`7.h`c",
".i.j.k.a.l.c`I````.m.n.o`e.p`H`I`````4.q.r`7.s`c",
".t.u.v`w.w.c`I````.x.y.z.A.B.c`I````.C.D.E.F.G`c",
".H.I.J.K.L.M`I````.N.O.P.Q.R.c`I````.S`0.T.U.V`c",
".W.X.Y`H.c.Z`z````.0.1.2.3.4.c`I````.S.5.6.7`x`c",
".8#`#.#.#.###a````#b#c#d#e#f.c`I````#g.m#h.A`x`c",
"#i`d`d`d`d`d#j````#k#l#m#n#o.c`I````#p.`#q.Q`x`c",
"``````````````````#r#s#t#u#v.c`I````#p.0#w#x`x`c",
"``````````````````#y#z#A#B#C.M`I````#p#D`3#E`x`c",
"``````````````````#F#G#H#I#J.M`I````#K`r#L#M#N`c",
"``````````````````.W#O#P#Q#R.M`I`````d#S`a`a`a#S",
"``````````````````#T#U#V#W#W#X`z``````#j`d`d`d#j",
"``````````````````#Y`c`c`c`c`c`r````````````````"
};
