/* XPM */
static char *distribute_baselines_vert_xpm[] = {
/* width height num_colors chars_per_pixel */
"    24    24      256            2",
/* colors */
"`` c #e8e8e4",
"`. c #a9a9a6",
"`# c #333332",
"`a c #444443",
"`b c #c9c9c6",
"`c c #888886",
"`d c #262626",
"`e c #c7c7c4",
"`f c #b2b2af",
"`g c #070707",
"`h c #000000",
"`i c #393938",
"`j c #676765",
"`k c #80807e",
"`l c #81817f",
"`m c #aaaaa7",
"`n c #b9b9b6",
"`o c #949492",
"`p c #d9d9d6",
"`q c #090909",
"`r c #5c5c5a",
"`s c #191918",
"`t c #c3c3bf",
"`u c #565655",
"`v c #20201f",
"`w c #e1e1dd",
"`x c #111111",
"`y c #e6e6e2",
"`z c #959593",
"`A c #dcdcd8",
"`B c #595958",
"`C c #ccccc8",
"`D c #bdbdba",
"`E c #6a6a68",
"`F c #b8b8b5",
"`G c #131313",
"`H c #8d8d8b",
"`I c #3d3d3c",
"`J c #373737",
"`K c #b6b6b3",
"`L c #c90606",
"`M c #c80000",
"`N c #400000",
"`O c #520000",
"`P c #0e0e0d",
"`Q c #e2e2de",
"`R c #3c3c3b",
"`S c #151515",
"`T c #060606",
"`U c #d5d5d1",
"`V c #1b1b1b",
"`W c #5d5d5b",
"`X c #383837",
"`Y c #888885",
"`Z c #e0e0dc",
"`0 c #cdcdc9",
"`1 c #515150",
"`2 c #b3b3b0",
"`3 c #dadad7",
"`4 c #2d2d2d",
"`5 c #0f0f0e",
"`6 c #101010",
"`7 c #b5b5b2",
"`8 c #c0c0bd",
".` c #292928",
".. c #2d2d2c",
".# c #7b7b79",
".a c #d6d6d2",
".b c #d5d9d9",
".c c #b4bfc7",
".d c #a5b3c0",
".e c #b6c0c9",
".f c #dee0df",
".g c #adb9c3",
".h c #567495",
".i c #788fa7",
".j c #8397ac",
".k c #55708b",
".l c #4e6781",
".m c #d7d9d8",
".n c #e6e6e3",
".o c #6e88a2",
".p c #d9dbda",
".q c #3a5068",
".r c #9fa7ae",
".s c #e4e5e2",
".t c #caced0",
".u c #abb4b9",
".v c #8a959f",
".w c #36475b",
".x c #929a9f",
".y c #9ba8b4",
".z c #465e77",
".A c #475c72",
".B c #697784",
".C c #8e969d",
".D c #303e4c",
".E c #8d9397",
".F c #c9ced0",
".G c #3a526c",
".H c #a9b0b6",
".I c #e1e2de",
".J c #1d2834",
".K c #85898b",
".L c #cfd2d2",
".M c #33465c",
".N c #abb0b4",
".O c #e2e2df",
".P c #6c7277",
".Q c #121921",
".R c #77797a",
".S c #889097",
".T c #34414d",
".U c #323c46",
".V c #232b33",
".W c #777a7c",
".X c #4c4e50",
".Y c #494a4a",
".Z c #c30000",
".0 c #000000",
".1 c #000000",
".2 c #000000",
".3 c #000000",
".4 c #000000",
".5 c #000000",
".6 c #000000",
".7 c #000000",
".8 c #000000",
"#` c #000000",
"#. c #000000",
"## c #000000",
"#a c #000000",
"#b c #000000",
"#c c #000000",
"#d c #000000",
"#e c #000000",
"#f c #000000",
"#g c #000000",
"#h c #000000",
"#i c #000000",
"#j c #000000",
"#k c #000000",
"#l c #000000",
"#m c #000000",
"#n c #000000",
"#o c #000000",
"#p c #000000",
"#q c #000000",
"#r c #000000",
"#s c #000000",
"#t c #000000",
"#u c #000000",
"#v c #000000",
"#w c #000000",
"#x c #000000",
"#y c #000000",
"#z c #000000",
"#A c #000000",
"#B c #000000",
"#C c #000000",
"#D c #000000",
"#E c #000000",
"#F c #000000",
"#G c #000000",
"#H c #000000",
"#I c #000000",
"#J c #000000",
"#K c #000000",
"#L c #000000",
"#M c #000000",
"#N c #000000",
"#O c #000000",
"#P c #000000",
"#Q c #000000",
"#R c #000000",
"#S c #000000",
"#T c #000000",
"#U c #000000",
"#V c #000000",
"#W c #000000",
"#X c #000000",
"#Y c #000000",
"#Z c #000000",
"#0 c #000000",
"#1 c #000000",
"#2 c #000000",
"#3 c #000000",
"#4 c #000000",
"#5 c #000000",
"#6 c #000000",
"#7 c #000000",
"#8 c #000000",
"a` c #000000",
"a. c #000000",
"a# c #000000",
"aa c #000000",
"ab c #000000",
"ac c #000000",
"ad c #000000",
"ae c #000000",
"af c #000000",
"ag c #000000",
"ah c #000000",
"ai c #000000",
"aj c #000000",
"ak c #000000",
"al c #000000",
"am c #000000",
"an c #000000",
"ao c #000000",
"ap c #000000",
"aq c #000000",
"ar c #000000",
"as c #000000",
"at c #000000",
"au c #000000",
"av c #000000",
"aw c #000000",
"ax c #000000",
"ay c #000000",
"az c #000000",
"aA c #000000",
"aB c #000000",
"aC c #000000",
"aD c #000000",
"aE c #000000",
"aF c #000000",
"aG c #000000",
"aH c #000000",
"aI c #000000",
"aJ c #000000",
"aK c #000000",
"aL c #000000",
"aM c #000000",
"aN c #000000",
"aO c #000000",
"aP c #000000",
"aQ c #000000",
"aR c #000000",
"aS c #000000",
"aT c #000000",
"aU c #000000",
"aV c #000000",
"aW c #000000",
"aX c #000000",
"aY c #000000",
"aZ c #000000",
"a0 c #000000",
"a1 c #000000",
"a2 c #000000",
"a3 c #000000",
"a4 c #000000",
"a5 c #000000",
"a6 c #000000",
"a7 c #000000",
"a8 c #000000",
/* pixels */
"```````````````````````.`#`a`b`````c`d`e````````",
"```````````````````````f`g`h`i`````j`h`k````````",
"`````````````````````````l`h`h`m```n`h`o````````",
"`````````````````````````p`q`h`r`````s`t````````",
"```````````````````````````u`h`v```w`x`y````````",
"```````````````````````````z`h`h`A`f`B``````````",
"```````````````````````````C`h`h`D`E`F``````````",
"`````````````````````````````G`h`H`I````````````",
"`````````````````````````````J`h`s`K````````````",
"`L`M`M`M`M`M`M`M`M`M`M`M`M`M`N`h`O`M`M`M`M`M`M`M",
"`````P`Q`````````````````````R`S`p``````````````",
"```P`h`T`Q`````````````````U`V`f````````````````",
"`P`h`h`h`T`Q```W`q`X`Y`Z`0`1`2``````````````````",
"`Q`w`T`3`w`````4`h`h`h`5`6`7````````````````````",
"`````T`w```````8.``V...#.a``````````````````````",
"`````T`w````````````````````.b.c.d.e.f``````````",
"`````T`w``````````````````.g.h.i.j.k.l.m````````",
"`````T`w````````````````.n.o.d````.p.q.r````````",
"`````T`w````````````````````.s.t.u.v.w.x````````",
"`````T`w``````````````````.y.z.A.B.C.D.E````````",
"`P`T`h`T`T`Q````````````.F.G.H````.I.J.K````````",
"`Q`T`h`h`3``````````````.L.M.N``.O.P.Q.R````````",
"```Q`T`3``````````````````.S.T.U.V.W.X.Y````````",
"`L`M.Z`M`M`M`M`M`M`M`M`M`M`M`M`M`M`M`M`M`M`M`M`M"
};
