/* XPM */
static char *distribute_hdist_xpm[] = {
/* width height num_colors chars_per_pixel */
"    24    24      256            2",
/* colors */
"`` c #e8e8e4",
"`. c #cb1515",
"`# c #e7e2de",
"`a c #111111",
"`b c #e2e2de",
"`c c #0e0e0d",
"`d c #151515",
"`e c #e5e5e1",
"`f c #000000",
"`g c #ca0e0d",
"`h c #c90606",
"`i c #0e0d0d",
"`j c #060606",
"`k c #e7e1dd",
"`l c #c80000",
"`m c #d9d3cf",
"`n c #040404",
"`o c #e1e1dd",
"`p c #dadad7",
"`q c #70706f",
"`r c #545454",
"`s c #4f4f4e",
"`t c #543737",
"`u c #e2dcd9",
"`v c #624444",
"`w c #4e4e4e",
"`x c #494949",
"`y c #5a5a59",
"`z c #4f4f4f",
"`A c #e2e7ef",
"`B c #e2e8ef",
"`C c #473c3d",
"`D c #dcd6d2",
"`E c #4b4b4b",
"`F c #3b3b3b",
"`G c #4a4a4a",
"`H c #abbed5",
"`I c #423738",
"`J c #664242",
"`K c #533838",
"`L c #e6e6e2",
"`M c #474747",
"`N c #e2e8f0",
"`O c #a7bad3",
"`P c #363636",
"`Q c #454545",
"`R c #3c3334",
"`S c #dbd6d2",
"`T c #4b4545",
"`U c #e2e7ee",
"`V c #3b3535",
"`W c #e3e3df",
"`X c #424242",
"`Y c #a4b8d2",
"`Z c #323232",
"`0 c #404040",
"`1 c #372e2f",
"`2 c #dbd5d2",
"`3 c #433d3d",
"`4 c #a9bcd4",
"`5 c #342e2e",
"`6 c #3d3d3d",
"`7 c #2d2d2d",
"`8 c #33292a",
".` c #dbd5d1",
".. c #a6bad3",
".# c #2b2525",
".a c #393939",
".b c #292929",
".c c #2f2425",
".d c #dad5d1",
".e c #332d2d",
".f c #221c1c",
".g c #343434",
".h c #242424",
".i c #313131",
".j c #2c2d2d",
".k c #dbdbd7",
".l c #2a2a2a",
".m c #1a1a1a",
".n c #303030",
".o c #202020",
".p c #2c2c2c",
".q c #272829",
".r c #212121",
".s c #121212",
".t c #2b2b2b",
".u c #1b1b1b",
".v c #262626",
".w c #222323",
".x c #dadad6",
".y c #191919",
".z c #0a0a0a",
".A c #272727",
".B c #171717",
".C c #222221",
".D c #1d1e1f",
".E c #222222",
".F c #1d1d1d",
".G c #18191a",
".H c #242423",
".I c #161615",
".J c #e4e4e0",
".K c #1e1e1e",
".L c #0d0d0d",
".M c #181818",
".N c #141516",
".O c #d9d9d6",
".P c #090909",
".Q c #131313",
".R c #131414",
".S c #0e0e0e",
".T c #a5b9d2",
".U c #101010",
".V c #262625",
".W c #0b0b0b",
".X c #070707",
".Y c #1e1e1d",
".Z c #1c1c1c",
".0 c #000000",
".1 c #000000",
".2 c #000000",
".3 c #000000",
".4 c #000000",
".5 c #000000",
".6 c #000000",
".7 c #000000",
".8 c #000000",
"#` c #000000",
"#. c #000000",
"## c #000000",
"#a c #000000",
"#b c #000000",
"#c c #000000",
"#d c #000000",
"#e c #000000",
"#f c #000000",
"#g c #000000",
"#h c #000000",
"#i c #000000",
"#j c #000000",
"#k c #000000",
"#l c #000000",
"#m c #000000",
"#n c #000000",
"#o c #000000",
"#p c #000000",
"#q c #000000",
"#r c #000000",
"#s c #000000",
"#t c #000000",
"#u c #000000",
"#v c #000000",
"#w c #000000",
"#x c #000000",
"#y c #000000",
"#z c #000000",
"#A c #000000",
"#B c #000000",
"#C c #000000",
"#D c #000000",
"#E c #000000",
"#F c #000000",
"#G c #000000",
"#H c #000000",
"#I c #000000",
"#J c #000000",
"#K c #000000",
"#L c #000000",
"#M c #000000",
"#N c #000000",
"#O c #000000",
"#P c #000000",
"#Q c #000000",
"#R c #000000",
"#S c #000000",
"#T c #000000",
"#U c #000000",
"#V c #000000",
"#W c #000000",
"#X c #000000",
"#Y c #000000",
"#Z c #000000",
"#0 c #000000",
"#1 c #000000",
"#2 c #000000",
"#3 c #000000",
"#4 c #000000",
"#5 c #000000",
"#6 c #000000",
"#7 c #000000",
"#8 c #000000",
"a` c #000000",
"a. c #000000",
"a# c #000000",
"aa c #000000",
"ab c #000000",
"ac c #000000",
"ad c #000000",
"ae c #000000",
"af c #000000",
"ag c #000000",
"ah c #000000",
"ai c #000000",
"aj c #000000",
"ak c #000000",
"al c #000000",
"am c #000000",
"an c #000000",
"ao c #000000",
"ap c #000000",
"aq c #000000",
"ar c #000000",
"as c #000000",
"at c #000000",
"au c #000000",
"av c #000000",
"aw c #000000",
"ax c #000000",
"ay c #000000",
"az c #000000",
"aA c #000000",
"aB c #000000",
"aC c #000000",
"aD c #000000",
"aE c #000000",
"aF c #000000",
"aG c #000000",
"aH c #000000",
"aI c #000000",
"aJ c #000000",
"aK c #000000",
"aL c #000000",
"aM c #000000",
"aN c #000000",
"aO c #000000",
"aP c #000000",
"aQ c #000000",
"aR c #000000",
"aS c #000000",
"aT c #000000",
"aU c #000000",
"aV c #000000",
"aW c #000000",
"aX c #000000",
"aY c #000000",
"aZ c #000000",
"a0 c #000000",
"a1 c #000000",
"a2 c #000000",
"a3 c #000000",
"a4 c #000000",
"a5 c #000000",
"a6 c #000000",
"a7 c #000000",
"a8 c #000000",
/* pixels */
"```````.`#`a```b`c```.`#```.```d`e```f```g``````",
"```````h`i`f`j`j`f`c`h`k```h`d`f`f`f`f`f`l``````",
"```````h`m`n`o`p`j`b`h`k```h`b`j`e```f```l``````",
"```````h`k`p`````b```h`k```h```b`````````l``````",
"```````h`k```````````h`k```h`````````````l``````",
"```````h`k```````````h`k```h`````````````l``````",
"`q`r`s`t`u```````````h`k```h`````````````v`w`x`y",
"`z`A`B`C`D```````````h`k```h`````````````E`B`B`F",
"`G`B`H`I`D```````````J`w`x`K`L```````````M`N`O`P",
"`Q`B`O`R`S```````````T`U`B`V`W```````````X`N`Y`Z",
"`0`B`O`1`2```````````3`B`4`5`b```````````6`N`Y`7",
"`F`B`O`8.````````````V`B...#`b``````````.a`N`Y.b",
"`P`B`O.c.d``````````.e`B...f`b``````````.g`N`Y.h",
".i`B`O.j.k``````````.l`B...m`b``````````.n`N`Y.o",
".p`B`O.q.k``````````.r`B...s`o``````````.t`N`Y.u",
".v`B`O.w.x``````````.y`B...z`o``````````.A`N`Y.B",
".C`B`O.D.x```````````a`O`Y`j`o``````````.E`N`Y.s",
".F`B`O.G.x``````````.H`j`j.I.J``````````.K`N`Y.L",
".M`B`O.N.O```````````e`o`o.J````````````.y`N`Y.P",
".Q`B`O.R.O```````````````````````````````d`N`Y`n",
".S.T`Y.R.O``````````````````````````````.U`N`Y`f",
".V`f`f.I`o``````````````````````````````.W`N`Y`f",
"````````````````````````````````````````.X`Y`Y`f",
"````````````````````````````````````````.Y`f`f.Z"
};
