/* XPM */
static char *distribute_baselines_hor_xpm[] = {
/* width height num_colors chars_per_pixel */
"    24    24      256            2",
/* colors */
"`` c #c90606",
"`. c #e7e1dd",
"`# c #e8e8e4",
"`a c #000000",
"`b c #c2c2be",
"`c c #7d0404",
"`d c #dbd6d2",
"`e c #969694",
"`f c #bfbfbc",
"`g c #e7e7e3",
"`h c #151515",
"`i c #181717",
"`j c #d9d9d5",
"`k c #d5d5d1",
"`l c #171716",
"`m c #d5d9da",
"`n c #b4bfc8",
"`o c #a5b3c0",
"`p c #b5c0c9",
"`q c #dddfde",
"`r c #b3b3b0",
"`s c #020000",
"`t c #6d6d6b",
"`u c #242424",
"`v c #070707",
"`w c #adb5c0",
"`x c #577595",
"`y c #778fa7",
"`z c #8499ad",
"`A c #58738e",
"`B c #4f6781",
"`C c #d5d8d8",
"`D c #400202",
"`E c #0b0b0b",
"`F c #e3e3df",
"`G c #787876",
"`H c #313130",
"`I c #c80708",
"`J c #7087a1",
"`K c #a1b0bd",
"`L c #dddfdd",
"`M c #3c526a",
"`N c #9ca4ab",
"`O c #940404",
"`P c #acaca9",
"`Q c #91918e",
"`R c #60605e",
"`S c #e4e5e2",
"`T c #cacfd1",
"`U c #acb5bb",
"`V c #8b97a1",
"`W c #384b5e",
"`X c #8a9399",
"`Y c #c80606",
"`Z c #111110",
"`0 c #737371",
"`1 c #5e5e5c",
"`2 c #9c9c99",
"`3 c #9ca7b2",
"`4 c #476079",
"`5 c #475c73",
"`6 c #697785",
"`7 c #8d959d",
"`8 c #364453",
".` c #858c90",
".. c #464443",
".# c #50504f",
".a c #3d3d3c",
".b c #e3e3e0",
".c c #b1151a",
".d c #3b536d",
".e c #a7afb5",
".f c #e5e6e2",
".g c #222e39",
".h c #7e8385",
".i c #797674",
".j c #30302f",
".k c #ababa8",
".l c #71716f",
".m c #b51013",
".n c #34485e",
".o c #aab0b3",
".p c #71777b",
".q c #131a23",
".r c #727676",
".s c #9f9b99",
".t c #101010",
".u c #4c4c4b",
".v c #d6d6d2",
".w c #8a8f96",
".x c #364350",
".y c #333d48",
".z c #242c34",
".A c #75797a",
".B c #525556",
".C c #474948",
".D c #bcb8b4",
".E c #8e8e8b",
".F c #d1d2d0",
".G c #e6e6e2",
".H c #bab5b2",
".I c #373737",
".J c #a39f9c",
".K c #0e0e0d",
".L c #c3c3bf",
".M c #e2e2de",
".N c #868683",
".O c #7e7e7b",
".P c #c6c6c3",
".Q c #c60606",
".R c #3a3837",
".S c #b8b8b5",
".T c #9c9c9a",
".U c #757573",
".V c #280101",
".W c #b9b4b1",
".X c #1d1d1d",
".Y c #3e3e3d",
".Z c #a40505",
".0 c #90908d",
".1 c #9d9d9b",
".2 c #c5c5c1",
".3 c #000000",
".4 c #000000",
".5 c #000000",
".6 c #000000",
".7 c #000000",
".8 c #000000",
"#` c #000000",
"#. c #000000",
"## c #000000",
"#a c #000000",
"#b c #000000",
"#c c #000000",
"#d c #000000",
"#e c #000000",
"#f c #000000",
"#g c #000000",
"#h c #000000",
"#i c #000000",
"#j c #000000",
"#k c #000000",
"#l c #000000",
"#m c #000000",
"#n c #000000",
"#o c #000000",
"#p c #000000",
"#q c #000000",
"#r c #000000",
"#s c #000000",
"#t c #000000",
"#u c #000000",
"#v c #000000",
"#w c #000000",
"#x c #000000",
"#y c #000000",
"#z c #000000",
"#A c #000000",
"#B c #000000",
"#C c #000000",
"#D c #000000",
"#E c #000000",
"#F c #000000",
"#G c #000000",
"#H c #000000",
"#I c #000000",
"#J c #000000",
"#K c #000000",
"#L c #000000",
"#M c #000000",
"#N c #000000",
"#O c #000000",
"#P c #000000",
"#Q c #000000",
"#R c #000000",
"#S c #000000",
"#T c #000000",
"#U c #000000",
"#V c #000000",
"#W c #000000",
"#X c #000000",
"#Y c #000000",
"#Z c #000000",
"#0 c #000000",
"#1 c #000000",
"#2 c #000000",
"#3 c #000000",
"#4 c #000000",
"#5 c #000000",
"#6 c #000000",
"#7 c #000000",
"#8 c #000000",
"a` c #000000",
"a. c #000000",
"a# c #000000",
"aa c #000000",
"ab c #000000",
"ac c #000000",
"ad c #000000",
"ae c #000000",
"af c #000000",
"ag c #000000",
"ah c #000000",
"ai c #000000",
"aj c #000000",
"ak c #000000",
"al c #000000",
"am c #000000",
"an c #000000",
"ao c #000000",
"ap c #000000",
"aq c #000000",
"ar c #000000",
"as c #000000",
"at c #000000",
"au c #000000",
"av c #000000",
"aw c #000000",
"ax c #000000",
"ay c #000000",
"az c #000000",
"aA c #000000",
"aB c #000000",
"aC c #000000",
"aD c #000000",
"aE c #000000",
"aF c #000000",
"aG c #000000",
"aH c #000000",
"aI c #000000",
"aJ c #000000",
"aK c #000000",
"aL c #000000",
"aM c #000000",
"aN c #000000",
"aO c #000000",
"aP c #000000",
"aQ c #000000",
"aR c #000000",
"aS c #000000",
"aT c #000000",
"aU c #000000",
"aV c #000000",
"aW c #000000",
"aX c #000000",
"aY c #000000",
"aZ c #000000",
"a0 c #000000",
"a1 c #000000",
"a2 c #000000",
"a3 c #000000",
"a4 c #000000",
"a5 c #000000",
"a6 c #000000",
"a7 c #000000",
"a8 c #000000",
/* pixels */
"```.`#`a`#`#`#`#`#`#`#`a`#`#```.`#`#`#`#`#`#`#`#",
"```.`a`a`#`#`#`#`#`#`#`a`a`#```.`#`#`#`#`#`#`#`#",
"```a`a`a`a`a`a`a`a`a`a`a`a`a```.`#`#`#`#`#`#`#`#",
"```.`a`a`#`#`#`#`#`#`#`a`a`#```.`#`#`#`#`#`#`#`#",
"```.`#`a`#`#`#`#`#`#`#`a`#`#```.`#`#`#`#`#`#`#`#",
"```.`#`#`#`#`#`#`#`#`#`#`#`#```.`#`#`#`#`#`#`#`#",
"```.`#`#`#`#`#`#`#`#`#`#`#`#```.`#`#`#`#`#`#`#`#",
"```.`#`#`#`#`#`#`#`#`#`#`#`b`c`d`#`#`#`e`f`#`#`#",
"```.`#`#`#`#`#`#`#`#`#`#`g`h`a`i`j`#`k`a`l`#`#`#",
"```.`m`n`o`p`q`#`#`#`#`#`#`r`s`a`t`#`#`u`v`g`#`#",
"```w`x`y`z`A`B`C`#`#`#`#`#`#`D`a`E`F`#`G`H`#`#`#",
"`I`J`K`#`#`L`M`N`#`#`#`#`#`#`O`a`a`P`#`Q`R`#`#`#",
"```.`S`T`U`V`W`X`#`#`#`#`#`#`Y`Z`a`0`#`1`2`#`#`#",
"```3`4`5`6`7`8.``#`#`#`#`#`#``..`a.#`#.a.b`#`#`#",
".c.d.e`#`#.f.g.h`#`#`#`#`#`#``.i`a.j.k.l`#`#`#`#",
".m.n.o`#.b.p.q.r`#`#`#`#`#`#``.s`a.t.u.v`#`#`#`#",
"``.w.x.y.z.A.B.C`#`#`#`#`#`#``.D`a`a.E`#`#`#`#`#",
"```.`g.F.G`#`#`#`#`#`#`#`#`#``.H`a.I`g`#`#`#`#`#",
"```.`#`#`#`#`#`#`#`#`#`#`#`#``.J.K.L`#`#`#`#`#`#",
"```.`#`#`#`#`#`#.M.N.O.P`#`#.Q.R.S`#`#`#`#`#`#`#",
"```.`#`#`#`#`#`#.T`a`a`a.a.U.V.W`#`#`#`#`#`#`#`#",
"```.`#`#`#`#`#`#.v.X`a`a`a.Y.Z`.`#`#`#`#`#`#`#`#",
"```.`#`#`#`#`#`#`#.v.0.1.2`#```.`#`#`#`#`#`#`#`#",
"```.`#`#`#`#`#`#`#`#`#`#`#`#```.`#`#`#`#`#`#`#`#"
};
