/* XPM */
static char *draw_connector_xpm[] = {
/* width height num_colors chars_per_pixel */
"    24    24      256            2",
/* colors */
"`` c #e8e8e4",
"`. c #1c1c1c",
"`# c #000000",
"`a c #ebf0f4",
"`b c #e4ecf3",
"`c c #dae5ef",
"`d c #d1deeb",
"`e c #c7d7e7",
"`f c #bed1e3",
"`g c #bacde0",
"`h c #dee8f1",
"`i c #9ebad5",
"`j c #aac3db",
"`k c #b7cce0",
"`l c #c3d4e5",
"`m c #cfddea",
"`n c #a5bfd8",
"`o c #a4bed8",
"`p c #b0c7dd",
"`q c #bdd0e2",
"`r c #c9d8e8",
"`s c #d5e1ed",
"`t c #98b6d3",
"`u c #30302f",
"`v c #9c9c99",
"`w c #c0d2e4",
"`x c #b6cbe0",
"`y c #dbe5ef",
"`z c #bbbbb8",
"`A c #1d1d1d",
"`B c #6e6e6c",
"`C c #e6e6e2",
"`D c #b1c8dd",
"`E c #bcd0e2",
"`F c #c9d8e7",
"`G c #e1eaf2",
"`H c #d6d6d2",
"`I c #3c3c3b",
"`J c #424240",
"`K c #d9d9d6",
"`L c #a9c1d9",
"`M c #99b6d3",
"`N c #a2bcd6",
"`O c #e5e5e1",
"`P c #686866",
"`Q c #212120",
"`R c #c0c0bd",
"`S c #969694",
"`T c #0f0f0f",
"`U c #e0e0dc",
"`V c #2e2e2e",
"`W c #a4a4a1",
"`X c #2b2b2a",
"`Y c #161615",
"`Z c #e1e1dd",
"`0 c #60605e",
"`1 c #868683",
"`2 c #0e0e0d",
"`3 c #f9f6ee",
"`4 c #fff9e8",
"`5 c #fff2ce",
"`6 c #ffecb5",
"`7 c #ffe69b",
"`8 c #ffdf82",
".` c #fdda71",
".. c #16150f",
".# c #c9c9c6",
".a c #fef0c6",
".b c #ffc722",
".c c #ffcc36",
".d c #ffd455",
".e c #ffdc74",
".f c #ffe392",
".g c #fecd3c",
".h c #1d190e",
".i c #c1c1be",
".j c #232323",
".k c #fee395",
".l c #ffd044",
".m c #ffd65f",
".n c #ffde7e",
".o c #ffe69c",
".p c #ffeebb",
".q c #fec20d",
".r c #1d190c",
".s c #7e7e7b",
".t c #676765",
".u c #f9d770",
".v c #ffd047",
".w c #ffca2d",
".x c #ffc414",
".y c #ffbf00",
".z c #fdc316",
".A c #16140d",
".B c #393938",
".C c #aaaaa7",
".D c #464645",
".E c #e3e3df",
".F c #242424",
".G c #b7cbe0",
".H c #dfe8f1",
".I c #000000",
".J c #000000",
".K c #000000",
".L c #000000",
".M c #000000",
".N c #000000",
".O c #000000",
".P c #000000",
".Q c #000000",
".R c #000000",
".S c #000000",
".T c #000000",
".U c #000000",
".V c #000000",
".W c #000000",
".X c #000000",
".Y c #000000",
".Z c #000000",
".0 c #000000",
".1 c #000000",
".2 c #000000",
".3 c #000000",
".4 c #000000",
".5 c #000000",
".6 c #000000",
".7 c #000000",
".8 c #000000",
"#` c #000000",
"#. c #000000",
"## c #000000",
"#a c #000000",
"#b c #000000",
"#c c #000000",
"#d c #000000",
"#e c #000000",
"#f c #000000",
"#g c #000000",
"#h c #000000",
"#i c #000000",
"#j c #000000",
"#k c #000000",
"#l c #000000",
"#m c #000000",
"#n c #000000",
"#o c #000000",
"#p c #000000",
"#q c #000000",
"#r c #000000",
"#s c #000000",
"#t c #000000",
"#u c #000000",
"#v c #000000",
"#w c #000000",
"#x c #000000",
"#y c #000000",
"#z c #000000",
"#A c #000000",
"#B c #000000",
"#C c #000000",
"#D c #000000",
"#E c #000000",
"#F c #000000",
"#G c #000000",
"#H c #000000",
"#I c #000000",
"#J c #000000",
"#K c #000000",
"#L c #000000",
"#M c #000000",
"#N c #000000",
"#O c #000000",
"#P c #000000",
"#Q c #000000",
"#R c #000000",
"#S c #000000",
"#T c #000000",
"#U c #000000",
"#V c #000000",
"#W c #000000",
"#X c #000000",
"#Y c #000000",
"#Z c #000000",
"#0 c #000000",
"#1 c #000000",
"#2 c #000000",
"#3 c #000000",
"#4 c #000000",
"#5 c #000000",
"#6 c #000000",
"#7 c #000000",
"#8 c #000000",
"a` c #000000",
"a. c #000000",
"a# c #000000",
"aa c #000000",
"ab c #000000",
"ac c #000000",
"ad c #000000",
"ae c #000000",
"af c #000000",
"ag c #000000",
"ah c #000000",
"ai c #000000",
"aj c #000000",
"ak c #000000",
"al c #000000",
"am c #000000",
"an c #000000",
"ao c #000000",
"ap c #000000",
"aq c #000000",
"ar c #000000",
"as c #000000",
"at c #000000",
"au c #000000",
"av c #000000",
"aw c #000000",
"ax c #000000",
"ay c #000000",
"az c #000000",
"aA c #000000",
"aB c #000000",
"aC c #000000",
"aD c #000000",
"aE c #000000",
"aF c #000000",
"aG c #000000",
"aH c #000000",
"aI c #000000",
"aJ c #000000",
"aK c #000000",
"aL c #000000",
"aM c #000000",
"aN c #000000",
"aO c #000000",
"aP c #000000",
"aQ c #000000",
"aR c #000000",
"aS c #000000",
"aT c #000000",
"aU c #000000",
"aV c #000000",
"aW c #000000",
"aX c #000000",
"aY c #000000",
"aZ c #000000",
"a0 c #000000",
"a1 c #000000",
"a2 c #000000",
"a3 c #000000",
"a4 c #000000",
"a5 c #000000",
"a6 c #000000",
"a7 c #000000",
"a8 c #000000",
/* pixels */
"```````````.`#`#`#`#`#`#`#`.````````````````````",
"```````````#`a`b`c`d`e`f`g`#````````````````````",
"```````````#`h`i`j`k`l`m`n`#````````````````````",
"```````````#`m`o`p`q`r`s`t`#`u`v````````````````",
"```````````#`w`j`x`l`m`y`t`#`z`A`B`C````````````",
"```````````#`D`p`E`F`s`G`t`#```H`I`J`K``````````",
"```````````#`L`M`t`t`t`t`N`#`````O`P`Q`R````````",
"```````````.`#`#`#`#`#`#`#`.`````````S`T````````",
"```````````U`V`````````````````````````#````````",
"```````````W`J```X`#`#`#`#`#`#`#`Y`Z```#````````",
"```````````0`1```2`3`4`5`6`7`8.`..`K```#````````",
"```````````..#```2.a.b.c.d.e.f.g.h`K```#````````",
"````````.i.j`````2.k.l.m.n.o.p.q.r`K```#````````",
"````````.s.t`````2.u.v.w.x.y.y.z.A`K```#````````",
"````````.B.C`````X`#`#`#`#`#`#`#`Y`Z```#````````",
"````````.D.E``````````````````````````.F````````",
"`.`#`#`#`#`#`#`#`.`````````````.`#`#`#`#`#`#`#`.",
"`#`a`b`c`d`e`f`g`#`````````````#`a`b`c`d`e`f`g`#",
"`#`h`i`j.G`l`m`n`#`````````````#.H`i`j.G`l`m`n`#",
"`#`m`o`p`q`r`s`t`#`````````````#`m`o`p`q`r`s`t`#",
"`#`w`j`x`l`m`y`t`#`````````````#`w`j`x`l`m`y`t`#",
"`#`D`p`E`F`s`G`t`#`````````````#`D`p`E`F`s`G`t`#",
"`#`L`M`t`t`t`t`N`#`````````````#`L`M`t`t`t`t`N`#",
"`.`#`#`#`#`#`#`#`.`````````````.`#`#`#`#`#`#`#`."
};
