/* XPM */
static char *draw_select_xpm[] = {
/* width height num_colors chars_per_pixel */
"    24    24      256            2",
/* colors */
"`` c #e8e8e4",
"`. c #efefed",
"`# c #ecece8",
"`a c #ffffff",
"`b c #f3f3f3",
"`c c #ebebe7",
"`d c #757575",
"`e c #f3f3f2",
"`f c #eaeae6",
"`g c #fefefe",
"`h c #010101",
"`i c #868685",
"`j c #f2f2f1",
"`k c #e9e9e6",
"`l c #020202",
"`m c #000000",
"`n c #979797",
"`o c #f0f0ef",
"`p c #e9e9e5",
"`q c #fdfdfd",
"`r c #030303",
"`s c #a7a7a7",
"`t c #040404",
"`u c #b6b6b6",
"`v c #efefee",
"`w c #fcfcfc",
"`x c #050505",
"`y c #060606",
"`z c #c4c4c4",
"`A c #0b0b0b",
"`B c #cfcfcf",
"`C c #070707",
"`D c #101010",
"`E c #dadada",
"`F c #fbfbfb",
"`G c #080808",
"`H c #161616",
"`I c #e3e3e3",
"`J c #fbfbfa",
"`K c #090909",
"`L c #1e1e1e",
"`M c #eaeaea",
"`N c #fafaf9",
"`O c #0a0a0a",
"`P c #141414",
"`Q c #191919",
"`R c #131313",
"`S c #343434",
"`T c #f1f1f1",
"`U c #efefec",
"`V c #f9f9f9",
"`W c #f1f1f0",
"`X c #f8f8f8",
"`Y c #f7f7f7",
"`Z c #0c0c0c",
"`0 c #3a3a3a",
"`1 c #717171",
"`2 c #969696",
"`3 c #0d0d0d",
"`4 c #282828",
"`5 c #f0f0f0",
"`6 c #0e0e0e",
"`7 c #eeeeee",
"`8 c #ededea",
".` c #272727",
".. c #e7e7e7",
".# c #f0f0ed",
".a c #ececeb",
".b c #5a5a5a",
".c c #5b5b5b",
".d c #dfdfdf",
".e c #eeeeec",
".f c #f1f1ee",
".g c #b5b5b5",
".h c #cbcbcb",
".i c #f0f0ee",
".j c #eeeeed",
".k c #f5f5f5",
".l c #2e2e2e",
".m c #f6f6f6",
".n c #4a4a4a",
".o c #6d6d6d",
".p c #e9e9e9",
".q c #ededec",
".r c #d5d5d4",
".s c #ededeb",
".t c #edede9",
".u c #000000",
".v c #000000",
".w c #000000",
".x c #000000",
".y c #000000",
".z c #000000",
".A c #000000",
".B c #000000",
".C c #000000",
".D c #000000",
".E c #000000",
".F c #000000",
".G c #000000",
".H c #000000",
".I c #000000",
".J c #000000",
".K c #000000",
".L c #000000",
".M c #000000",
".N c #000000",
".O c #000000",
".P c #000000",
".Q c #000000",
".R c #000000",
".S c #000000",
".T c #000000",
".U c #000000",
".V c #000000",
".W c #000000",
".X c #000000",
".Y c #000000",
".Z c #000000",
".0 c #000000",
".1 c #000000",
".2 c #000000",
".3 c #000000",
".4 c #000000",
".5 c #000000",
".6 c #000000",
".7 c #000000",
".8 c #000000",
"#` c #000000",
"#. c #000000",
"## c #000000",
"#a c #000000",
"#b c #000000",
"#c c #000000",
"#d c #000000",
"#e c #000000",
"#f c #000000",
"#g c #000000",
"#h c #000000",
"#i c #000000",
"#j c #000000",
"#k c #000000",
"#l c #000000",
"#m c #000000",
"#n c #000000",
"#o c #000000",
"#p c #000000",
"#q c #000000",
"#r c #000000",
"#s c #000000",
"#t c #000000",
"#u c #000000",
"#v c #000000",
"#w c #000000",
"#x c #000000",
"#y c #000000",
"#z c #000000",
"#A c #000000",
"#B c #000000",
"#C c #000000",
"#D c #000000",
"#E c #000000",
"#F c #000000",
"#G c #000000",
"#H c #000000",
"#I c #000000",
"#J c #000000",
"#K c #000000",
"#L c #000000",
"#M c #000000",
"#N c #000000",
"#O c #000000",
"#P c #000000",
"#Q c #000000",
"#R c #000000",
"#S c #000000",
"#T c #000000",
"#U c #000000",
"#V c #000000",
"#W c #000000",
"#X c #000000",
"#Y c #000000",
"#Z c #000000",
"#0 c #000000",
"#1 c #000000",
"#2 c #000000",
"#3 c #000000",
"#4 c #000000",
"#5 c #000000",
"#6 c #000000",
"#7 c #000000",
"#8 c #000000",
"a` c #000000",
"a. c #000000",
"a# c #000000",
"aa c #000000",
"ab c #000000",
"ac c #000000",
"ad c #000000",
"ae c #000000",
"af c #000000",
"ag c #000000",
"ah c #000000",
"ai c #000000",
"aj c #000000",
"ak c #000000",
"al c #000000",
"am c #000000",
"an c #000000",
"ao c #000000",
"ap c #000000",
"aq c #000000",
"ar c #000000",
"as c #000000",
"at c #000000",
"au c #000000",
"av c #000000",
"aw c #000000",
"ax c #000000",
"ay c #000000",
"az c #000000",
"aA c #000000",
"aB c #000000",
"aC c #000000",
"aD c #000000",
"aE c #000000",
"aF c #000000",
"aG c #000000",
"aH c #000000",
"aI c #000000",
"aJ c #000000",
"aK c #000000",
"aL c #000000",
"aM c #000000",
"aN c #000000",
"aO c #000000",
"aP c #000000",
"aQ c #000000",
"aR c #000000",
"aS c #000000",
"aT c #000000",
"aU c #000000",
"aV c #000000",
"aW c #000000",
"aX c #000000",
"aY c #000000",
"aZ c #000000",
"a0 c #000000",
"a1 c #000000",
"a2 c #000000",
"a3 c #000000",
"a4 c #000000",
"a5 c #000000",
"a6 c #000000",
"a7 c #000000",
"a8 c #000000",
/* pixels */
"````````````````````````````````````````````````",
"```````````.`#``````````````````````````````````",
"```````````a`b`c````````````````````````````````",
"```````````a`d`e`f``````````````````````````````",
"```````````g`h`i`j`k````````````````````````````",
"```````````g`l`m`n`o`p``````````````````````````",
"```````````q`r`m`h`s`o`p````````````````````````",
"```````````q`t`m`m`r`u`v````````````````````````",
"```````````w`x`m`m`m`y`z`.``````````````````````",
"```````````w`y`m`m`m`m`A`B`v````````````````````",
"```````````w`C`m`m`m`m`m`D`E`.``````````````````",
"```````````F`G`m`m`m`m`m`m`H`I`.````````````````",
"```````````J`K`m`m`m`m`m`m`m`L`M`.``````````````",
"```````````N`O`m`m`m`m`m`P`Q`R`S`T`U````````````",
"```````````V`A`m`m`m`m`r`W`X`Y`V`q`o````````````",
"```````````V`Z`m`0`1`m`m`2`.````````````````````",
"```````````X`3`4`5`X`D`m`6`7`8``````````````````",
"```````````X.`...#.a.b`m`m.c`5``````````````````",
"```````````X.d.e``.f.g`m`m`m.h.i````````````````",
"```````````V.j`````f.k`C`m`m.l.m`k``````````````",
"```````````f````````.a.n`K.o.p.q`p``````````````",
"````````````````````.i.r`5.s.t``````````````````",
"`````````````````````f`.`#``````````````````````",
"````````````````````````````````````````````````"
};
