/* XPM */
static char *draw_arc_xpm[] = {
/* width height num_colors chars_per_pixel */
"    24    24      256            2",
/* colors */
"`` c #e8e8e4",
"`. c #e5e5e1",
"`# c #e4e4e0",
"`a c #e1e1dd",
"`b c #91918f",
"`c c #6b6b6a",
"`d c #525252",
"`e c #484847",
"`f c #444444",
"`g c #494949",
"`h c #5e5e5d",
"`i c #80807f",
"`j c #dadad7",
"`k c #b4b4b2",
"`l c #5d5d5d",
"`m c #909090",
"`n c #c4c4c3",
"`o c #f2f1f1",
"`p c #f6f5f5",
"`q c #c7c5c4",
"`r c #8d8b8b",
"`s c #535252",
"`t c #383838",
"`u c #9d9d9b",
"`v c #767675",
"`w c #4d4d4d",
"`x c #aaaaa9",
"`y c #fefefe",
"`z c #fffdfc",
"`A c #fffafa",
"`B c #fff6f6",
"`C c #fff2f3",
"`D c #fff1f3",
"`E c #fef3f4",
"`F c #b0aaaa",
"`G c #303030",
"`H c #515150",
"`I c #dededb",
"`J c #767674",
"`K c #585857",
"`L c #eaeaea",
"`M c #fefdfd",
"`N c #fff7f8",
"`O c #fff3f5",
"`P c #fff0f2",
"`Q c #ffedef",
"`R c #ffeaec",
"`S c #ffe7e9",
"`T c #ffe4e6",
"`U c #fee9ec",
"`V c #eedddf",
"`W c #434141",
"`X c #474746",
"`Y c #b7b7b3",
"`Z c #484848",
"`0 c #e6e6e6",
"`1 c #fffefe",
"`2 c #fff9fa",
"`3 c #fff6f7",
"`4 c #fff3f4",
"`5 c #fff0f1",
"`6 c #ffe9ec",
"`7 c #ffe6e9",
"`8 c #ffe3e6",
".` c #ffe0e3",
".. c #ffdde0",
".# c #ffdfe2",
".a c #f1dcde",
".b c #232323",
".c c #8f8f8d",
".d c #e3e3df",
".e c #4c4c4c",
".f c #a2a2a1",
".g c #ffeff1",
".h c #ffecee",
".i c #ffe9eb",
".j c #ffdce0",
".k c #ffd9dd",
".l c #ffd6da",
".m c #fedde0",
".n c #ac9e9f",
".o c #1b1b1b",
".p c #d6d6d3",
".q c #939391",
".r c #4e4e4e",
".s c #fff9f9",
".t c #fff5f6",
".u c #fff2f4",
".v c #ffe5e8",
".w c #ffe2e5",
".x c #ffdfe3",
".y c #ffd2d7",
".z c #ffd0d4",
".A c #fedee2",
".B c #343232",
".C c #676766",
".D c #787877",
".E c #fefbfb",
".F c #ffeff0",
".G c #ffebed",
".H c #ffe8eb",
".I c #ffdbdf",
".J c #ffd8dc",
".K c #ffd5da",
".L c #ffcfd4",
".M c #ffccd1",
".N c #756a6b",
".O c #2e2e2d",
".P c #474747",
".Q c #ababaa",
".R c #fff8f9",
".S c #ffeef0",
".T c #ffe8ea",
".U c #ffe5e7",
".V c #ffe1e5",
".W c #ffdee2",
".X c #ffd5d9",
".Y c #ffd1d6",
".Z c #ffced4",
".0 c #ffcbd1",
".1 c #ffc8ce",
".2 c #b89fa3",
".3 c #0f0f0f",
".4 c #363636",
".5 c #e0e0e0",
".6 c #ffeeef",
".7 c #ffeaed",
".8 c #ffe7ea",
"#` c #ffe4e7",
"#. c #ffe1e4",
"## c #ffdee1",
"#a c #ffdbde",
"#b c #ffd7dc",
"#c c #ffd4d9",
"#d c #ffced3",
"#e c #ffcbd0",
"#f c #ffc7cd",
"#g c #ffc4cb",
"#h c #ffc3ca",
"#i c #f2ccd0",
"#j c #020202",
"#k c #dcdcd8",
"#l c #313131",
"#m c #e1dfde",
"#n c #ffe0e4",
"#o c #ffdde1",
"#p c #ffdade",
"#q c #ffd7db",
"#r c #ffd4d8",
"#s c #ffcdd3",
"#t c #ffcad0",
"#u c #ffc4ca",
"#v c #ffc1c7",
"#w c #ffbfc6",
"#x c #f2c9ce",
"#y c #000000",
"#z c #dadad6",
"#A c #3a3a39",
"#B c #a7a5a4",
"#C c #ffd3d8",
"#D c #ffd0d5",
"#E c #ffcdd2",
"#F c #ffcacf",
"#G c #ffc0c7",
"#H c #ffbdc4",
"#I c #ffc1c8",
"#J c #b89a9d",
"#K c #080808",
"#L c #535352",
"#M c #696767",
"#N c #feeeef",
"#O c #ffc9cf",
"#P c #ffc6cc",
"#Q c #ffc3c9",
"#R c #ffb9c1",
"#S c #706162",
"#T c #222222",
"#U c #7d7d7c",
"#V c #323232",
"#W c #fef1f3",
"#X c #ffccd2",
"#Y c #ffc2c9",
"#Z c #ffbcc3",
"#0 c #ffb7bf",
"#1 c #feccd1",
"#2 c #2a2525",
"#3 c #51514f",
"#4 c #dfdfdc",
"#5 c #212121",
"#6 c #979291",
"#7 c #fee8ea",
"#8 c #ffd8dd",
"a` c #ffc5cb",
"a. c #ffb8c0",
"a# c #ffb5bd",
"aa c #fec1c8",
"ab c #ad9193",
"ac c #030303",
"ad c #cfcfcc",
"ae c #9f9f9c",
"af c #151515",
"ag c #e4d3d4",
"ah c #ffdcdf",
"ai c #ffd2d6",
"aj c #ffc2c8",
"ak c #ffbec5",
"al c #ffbbc3",
"am c #f0c1c5",
"an c #060606",
"ao c #7b7b79",
"ap c #424241",
"aq c #232222",
"ar c #e9d3d6",
"as c #fedcdf",
"at c #ffbbc2",
"au c #ffb8bf",
"av c #fec2c9",
"aw c #efc1c5",
"ax c #262222",
"ay c #242424",
"az c #e0e0dd",
"aA c #3b3b3a",
"aB c #948888",
"aC c #fedce0",
"aD c #ffd2d5",
"aE c #ffc9ce",
"aF c #ffbdc5",
"aG c #a88c8e",
"aH c #060505",
"aI c #282827",
"aJ c #d8d8d4",
"aK c #8e8e8c",
"aL c #060605",
"aM c #211e1e",
"aN c #6c6262",
"aO c #b39b9d",
"aP c #f0c9cd",
"aQ c #f4cace",
"aR c #bb9d9f",
"aS c #736465",
"aT c #7c7c7a",
"aU c #555553",
"aV c #242423",
"aW c #090909",
"aX c #070707",
"aY c #4f4f4e",
"aZ c #cececa",
"a0 c #dbdbd7",
"a1 c #000000",
"a2 c #000000",
"a3 c #000000",
"a4 c #000000",
"a5 c #000000",
"a6 c #000000",
"a7 c #000000",
"a8 c #000000",
/* pixels */
"````````````````````````````````````````````````",
"```````````````````````.`#``````````````````````",
"```````````````a`b`c`d`e`f`g`h`i`j``````````````",
"`````````````k`d`l`m`n`o`p`q`r`s`t`u````````````",
"`````````.`v`w`x`y`z`A`B`C`C`D`E`F`G`H`I````````",
"`````````J`K`L`M`A`N`O`P`Q`R`S`T`U`V`W`X````````",
"```````Y`Z`0`1`2`3`4`5`Q`6`7`8.`...#.a.b.c``````",
"````.d.e.f`M`2`3`4.g.h.i`7`8.`.j.k.l.m.n.o.p````",
"````.q.r`M.s.t.u.g.h.i.v.w.x.j.k.l.y.z.A.B`h````",
"````.C.D.E.t`C.F.G.H.v.w.#.I.J.K.y.L.M.y.N.O````",
"````.P.Q.R`D.S.G.T.U.V.W.I.J.X.Y.Z.0.1.0.2.3````",
"````.4.5`4.6.7.8#`#.###a#b#c.Y#d#e#f#g#h#i#j#k``",
"````#l#m`5`R`S#`#n#o#p#q#r.Y#s#t#f#u#v#w#x#y#z``",
"````#A#B.g`7`8.`..#p#q#C#D#E#F#f#h#G#H#I#J#K````",
"````#L#M#N`8.`.j.k.l#C#D#E#O#P#Q#G#H#R#Q#S#T````",
"````#U#V#W#n.j.k.l.y.L#X#O#P#Y#w#Z#R#0#1#2#3````",
"````#4#5#6#7#8.K.y.L.M.1a`#Y#w#Za.a#aaabacad````",
"``````aeafagahai.Z.0.1a`ajakala.a##Ramanao``````",
"````````apaqaras.M.1#g#Iakataua#avawaxay````````",
"````````azaA#KaBaCaDaE#IaF#w#h#1aGaHaIaJ````````",
"````````````aKaLaMaNaOaPaQaRaS#2acaT````````````",
"``````````````aJaUaVaW#y#yaX#5aYaZ``````````````",
"``````````````````````a0aJ``````````````````````",
"````````````````````````````````````````````````"
};
