/* XPM */
static char *draw_pen_xpm[] = {
/* width height num_colors chars_per_pixel */
"    24    24      256            2",
/* colors */
"`` c #e8e8e4",
"`. c #dadad7",
"`# c #677778",
"`a c #b6dde1",
"`b c #bedfe2",
"`c c #d7e4e3",
"`d c #aaaaa7",
"`e c #4f4f4f",
"`f c #4c4c4c",
"`g c #494949",
"`h c #474747",
"`i c #444444",
"`j c #414141",
"`k c #3e3e3e",
"`l c #3c3c3c",
"`m c #393939",
"`n c #363636",
"`o c #333333",
"`p c #353535",
"`q c #828382",
"`r c #415153",
"`s c #b7dfe4",
"`t c #d2ebee",
"`u c #abd8df",
"`v c #c5d8dc",
"`w c #7c7c7a",
"`x c #8d8d8b",
"`y c #e7e7e3",
"`z c #202323",
"`A c #8aadb1",
"`B c #d7edf0",
"`C c #dcf0f2",
"`D c #a0cdd8",
"`E c #8bb8ca",
"`F c #d3dbdd",
"`G c #ddddda",
"`H c #545454",
"`I c #b4b4b1",
"`J c #252c2d",
"`K c #b0dde1",
"`L c #f6fbfc",
"`M c #b9dfe4",
"`N c #94c2d0",
"`O c #7dabc1",
"`P c #8eadc1",
"`Q c #c1c1be",
"`R c #454545",
"`S c #dcdcd9",
"`T c #454847",
"`U c #6c888b",
"`V c #c9e8eb",
"`W c #eaf6f7",
"`X c #a1ced8",
"`Y c #89b7c9",
"`Z c #71a0ba",
"`0 c #5b8aac",
"`1 c #dadede",
"`2 c #797977",
"`3 c #7d7d7b",
"`4 c #cdcdc9",
"`5 c #101313",
"`6 c #a9d4d9",
"`7 c #ebf6f7",
"`8 c #c7e6ea",
".` c #95c3d1",
".. c #7eacc2",
".# c #6695b3",
".a c #4e7da4",
".b c #7c99b4",
".c c #e1e3e1",
".d c #d9d9d5",
".e c #343434",
".f c #c7c7c3",
".g c #6e6f6d",
".h c #506465",
".i c #bce2e6",
".j c #a3d0d9",
".k c #8ab8ca",
".l c #72a1bb",
".m c #5a89ac",
".n c #42729d",
".o c #34618e",
".p c #5d656b",
".q c #91918f",
".r c #525251",
".s c #e5e5e1",
".t c #131514",
".u c #97bec2",
".v c #bee3e7",
".w c #cae7eb",
".x c #97c4d2",
".y c #7fadc3",
".z c #6796b4",
".A c #4f7ea5",
".B c #376796",
".C c #264059",
".D c #535352",
".E c #e4e4e0",
".F c #373736",
".G c #a6a6a3",
".H c #080909",
".I c #afdce1",
".J c #a3d0da",
".K c #8bb9cb",
".L c #73a2bc",
".M c #5b8aad",
".N c #44739e",
".O c #151a1f",
".P c #b3b3b0",
".Q c #afafac",
".R c #282827",
".S c #e2e2de",
".T c #585a58",
".U c #181b1b",
".V c #47595b",
".W c #64818a",
".X c #76a0b4",
".Y c #6897b4",
".Z c #507fa5",
".0 c #386897",
".1 c #2a4e72",
".2 c #222426",
".3 c #4c4c4a",
".4 c #828280",
".5 c #939391",
".6 c #878787",
".7 c #8c8d8b",
".8 c #444742",
"#` c #0c0f10",
"#. c #2a404f",
"## c #406b92",
"#a c #192634",
"#b c #888886",
"#c c #b1b1ae",
"#d c #2b2b2a",
"#e c #616160",
"#f c #d7d6d6",
"#g c #fff4d5",
"#h c #ffe9a8",
"#i c #ebcc72",
"#j c #695b31",
"#k c #0b0b08",
"#l c #141d24",
"#m c #222528",
"#n c #e1e1dd",
"#o c #1a1a1a",
"#p c #c4c4c0",
"#q c #d7d7d3",
"#r c #eae2cd",
"#s c #ffebb0",
"#t c #ffdf83",
"#u c #ffd455",
"#v c #fac527",
"#w c #271f09",
"#x c #71716f",
"#y c #696967",
"#z c #747472",
"#A c #e4e4e1",
"#B c #777774",
"#C c #282826",
"#D c #59513a",
"#E c #b39642",
"#F c #fbc82f",
"#G c #866605",
"#H c #423f37",
"#I c #ababa8",
"#J c #383837",
"#K c #090909",
"#L c #707070",
"#M c #0f0c04",
"#N c #171309",
"#O c #110f09",
"#P c #c9c9c6",
"#Q c #bbbbb8",
"#R c #2c2c2b",
"#S c #565654",
"#T c #575756",
"#U c #626261",
"#V c #494948",
"#W c #c3c3bf",
"#X c #bbbbb7",
"#Y c #c7c7c4",
"#Z c #212120",
"#0 c #dbdbd7",
"#1 c #a9a9a8",
"#2 c #0b0b0b",
"#3 c #c6c6c3",
"#4 c #1d1d1d",
"#5 c #8c8c8a",
"#6 c #949493",
"#7 c #1d1d1c",
"#8 c #e6e6e2",
"a` c #7a7a78",
"a. c #5d5d5b",
"a# c #353534",
"aa c #7b7b7b",
"ab c #323232",
"ac c #787876",
"ad c #000000",
"ae c #adadaa",
"af c #161615",
"ag c #4e4e4e",
"ah c #050505",
"ai c #d1d1ce",
"aj c #0e0e0e",
"ak c #efefef",
"al c #ffffff",
"am c #a5a5a2",
"an c #535351",
"ao c #181817",
"ap c #989895",
"aq c #323231",
"ar c #90908d",
"as c #3d3d3c",
"at c #7e7e7c",
"au c #161616",
"av c #070707",
"aw c #222221",
"ax c #060606",
"ay c #f7f7f7",
"az c #242424",
"aA c #000000",
"aB c #000000",
"aC c #000000",
"aD c #000000",
"aE c #000000",
"aF c #000000",
"aG c #000000",
"aH c #000000",
"aI c #000000",
"aJ c #000000",
"aK c #000000",
"aL c #000000",
"aM c #000000",
"aN c #000000",
"aO c #000000",
"aP c #000000",
"aQ c #000000",
"aR c #000000",
"aS c #000000",
"aT c #000000",
"aU c #000000",
"aV c #000000",
"aW c #000000",
"aX c #000000",
"aY c #000000",
"aZ c #000000",
"a0 c #000000",
"a1 c #000000",
"a2 c #000000",
"a3 c #000000",
"a4 c #000000",
"a5 c #000000",
"a6 c #000000",
"a7 c #000000",
"a8 c #000000",
/* pixels */
"```````````````````````````````.`#`a`b`c````````",
"```d`e`f`g`h`i`j`k`l`m`n`o`p```q`r`s`t`u`v``````",
"`````w`x`````````````````````y`z`A`B`C`D`E`F````",
"`````G`H`I```````````````````d`J`K`L`M`N`O`P````",
"```````Q`R`S`````````````````T`U`V`W`X`Y`Z`0`1``",
"`````````2`3```````````````4`5`6`7`8.`...#.a.b.c",
"````````.d.e.f````````````.g.h.i`L.j.k.l.m.n.o.p",
"``````````.q.r``````````.s.t.u.v.w.x.y.z.A.B.C.D",
"``````````.E.F.G````````.s.H`6.I.J.K.L.M.N.B.O.P",
"````````````.Q.R.S````````.T.U.V.W.X.Y.Z.0.1.2``",
"``````````````.3.4````````.5.6.7.8#`#.##.B#a#b``",
"``````````````#c#d````````#e#f#g#h#i#j#k#l#m#n``",
"```````````````y#o#p````#q`j#r#s#t#u#v#w#x`.````",
"````````````````#y#z````#A#B#C#D#E#F#G#H````````",
"````````````````#I#J``````.Q#K#L#M#N#O#P````````",
"````````````````#Q#R``````#S#T#U#V#W#X``````````",
"````````````````#Y#Z````#0#K#1#2.G``````````````",
"````````````````#3#4````#5#4#6#7#8``````````````",
"````````````````a`a.````a#aaabac````````````````",
"#Radadad#4````aeaf#Y````#7agahai````````````````",
"ajakalaladamanaoae``.E#napaqar``````````````````",
"ajakalaladasat#0``.Eauavaw``````````````````````",
"ajakalaladaxadadadadavayav``````````````````````",
"#Radadad#4````````.E#oadaz``````````````````````"
};
