/* XPM */
static char *draw_dropper_xpm[] = {
/* width height num_colors chars_per_pixel */
"    24    24      256            2",
/* colors */
"`` c #e8e8e4",
"`. c #e2e2de",
"`# c #929290",
"`a c #363635",
"`b c #232322",
"`c c #858583",
"`d c #e0e0dc",
"`e c #434342",
"`f c #7a7777",
"`g c #817e7e",
"`h c #3b3a3a",
"`i c #080808",
"`j c #777776",
"`k c #e6e6e2",
"`l c #3e3e3e",
"`m c #918d8d",
"`n c #504e4e",
"`o c #111010",
"`p c #000000",
"`q c #181818",
"`r c #bcbcb9",
"`s c #bfbfbc",
"`t c #a4a4a1",
"`u c #6d6b6b",
"`v c #737070",
"`w c #494747",
"`x c #161616",
"`y c #1b1b1a",
"`z c #babab6",
"`A c #0a0a0a",
"`B c #0b0b0b",
"`C c #282726",
"`D c #6a6868",
"`E c #413f3f",
"`F c #0d0d0d",
"`G c #81817f",
"`H c #090909",
"`I c #020202",
"`J c #010101",
"`K c #282828",
"`L c #dcdcd8",
"`M c #868684",
"`N c #040404",
"`O c #0c0c0b",
"`P c #383837",
"`Q c #dededa",
"`R c #b7b7b4",
"`S c #616161",
"`T c #b3b3b3",
"`U c #070707",
"`V c #2c2c2b",
"`W c #a7a7a5",
"`X c #b7b7b5",
"`Y c #5f6060",
"`Z c #eff0f1",
"`0 c #f9fafd",
"`1 c #7c7d7d",
"`2 c #0b0b0a",
"`3 c #b9b9b6",
"`4 c #5c5d5e",
"`5 c #e8ebef",
"`6 c #e2ecf7",
"`7 c #9aa1a8",
"`8 c #191919",
".` c #bbbbb8",
".. c #5a5b5c",
".# c #e1e7ec",
".a c #cbddf0",
".b c #8c98a5",
".c c #c3c3bf",
".d c #bcbcba",
".e c #595a5c",
".f c #dae2ea",
".g c #b3ceea",
".h c #7d8fa4",
".i c #161717",
".j c #c0c0bd",
".k c #bebebb",
".l c #57585a",
".m c #d4dee8",
".n c #9dbfe4",
".o c #6d86a1",
".p c #141517",
".q c #bdbdba",
".r c #c2c2bf",
".s c #4d4f51",
".t c #d3dde7",
".u c #95bae2",
".v c #6482a1",
".w c #121416",
".x c #bbbbb7",
".y c #dededb",
".z c #48494b",
".A c #6f8dae",
".B c #90b7e1",
".C c #6684a4",
".D c #111314",
".E c #b8b8b5",
".F c #7a7b7a",
".G c #526172",
".H c #8ab3df",
".I c #607d9b",
".J c #101213",
".K c #b4b4b1",
".L c #33363a",
".M c #7ca1c8",
".N c #374555",
".O c #191b1c",
".P c #b5b5b2",
".Q c #c3c3c0",
".R c #1e2022",
".S c #121518",
".T c #5a5c5c",
".U c #e7e7e3",
".V c #989897",
".W c #828281",
".X c #b2b2af",
".Y c #9d9d9b",
".Z c #68696a",
".0 c #3f4041",
".1 c #dbdbd8",
".2 c #d4d4d1",
".3 c #49494a",
".4 c #adc2d9",
".5 c #3f454c",
".6 c #b3b3b0",
".7 c #a0a09e",
".8 c #59626b",
"#` c #3f4e5d",
"#. c #878784",
"## c #a0a09d",
"#a c #2e363e",
"#b c #7a9ec5",
"#c c #232a32",
"#d c #e3e3df",
"#e c #4f5151",
"#f c #0e0f10",
"#g c #515253",
"#h c #e4e4e0",
"#i c #000000",
"#j c #000000",
"#k c #000000",
"#l c #000000",
"#m c #000000",
"#n c #000000",
"#o c #000000",
"#p c #000000",
"#q c #000000",
"#r c #000000",
"#s c #000000",
"#t c #000000",
"#u c #000000",
"#v c #000000",
"#w c #000000",
"#x c #000000",
"#y c #000000",
"#z c #000000",
"#A c #000000",
"#B c #000000",
"#C c #000000",
"#D c #000000",
"#E c #000000",
"#F c #000000",
"#G c #000000",
"#H c #000000",
"#I c #000000",
"#J c #000000",
"#K c #000000",
"#L c #000000",
"#M c #000000",
"#N c #000000",
"#O c #000000",
"#P c #000000",
"#Q c #000000",
"#R c #000000",
"#S c #000000",
"#T c #000000",
"#U c #000000",
"#V c #000000",
"#W c #000000",
"#X c #000000",
"#Y c #000000",
"#Z c #000000",
"#0 c #000000",
"#1 c #000000",
"#2 c #000000",
"#3 c #000000",
"#4 c #000000",
"#5 c #000000",
"#6 c #000000",
"#7 c #000000",
"#8 c #000000",
"a` c #000000",
"a. c #000000",
"a# c #000000",
"aa c #000000",
"ab c #000000",
"ac c #000000",
"ad c #000000",
"ae c #000000",
"af c #000000",
"ag c #000000",
"ah c #000000",
"ai c #000000",
"aj c #000000",
"ak c #000000",
"al c #000000",
"am c #000000",
"an c #000000",
"ao c #000000",
"ap c #000000",
"aq c #000000",
"ar c #000000",
"as c #000000",
"at c #000000",
"au c #000000",
"av c #000000",
"aw c #000000",
"ax c #000000",
"ay c #000000",
"az c #000000",
"aA c #000000",
"aB c #000000",
"aC c #000000",
"aD c #000000",
"aE c #000000",
"aF c #000000",
"aG c #000000",
"aH c #000000",
"aI c #000000",
"aJ c #000000",
"aK c #000000",
"aL c #000000",
"aM c #000000",
"aN c #000000",
"aO c #000000",
"aP c #000000",
"aQ c #000000",
"aR c #000000",
"aS c #000000",
"aT c #000000",
"aU c #000000",
"aV c #000000",
"aW c #000000",
"aX c #000000",
"aY c #000000",
"aZ c #000000",
"a0 c #000000",
"a1 c #000000",
"a2 c #000000",
"a3 c #000000",
"a4 c #000000",
"a5 c #000000",
"a6 c #000000",
"a7 c #000000",
"a8 c #000000",
/* pixels */
"`````````````````````````````````````.`#`a`b`c`.",
"```````````````````````````````````d`e`f`g`h`i`j",
"`````````````````````````````````k`l`m`f`n`o`p`q",
"`````````````````````````````r`s`t`u`v`w`x`p`p`y",
"```````````````````````````z`A`B`C`D`E`F`p`p`i`G",
"```````````````````````````z`A`p`H`I`J`p`p`i`K`L",
"`````````````````````````````M`N`p`p`p`J`O`P`Q``",
"```````````````````````````R`S`T`U`p`H`V`W`k````",
"`````````````````````````X`Y`Z`0`1`J`p`2`s``````",
"```````````````````````3`4`5`6`7`8`#`H`B`s``````",
"````````````````````.`...#.a.b`q.c```r`s````````",
"``````````````````.d.e.f.g.h.i.j````````````````",
"````````````````.k.l.m.n.o.p.q``````````````````",
"``````````````.r.s.t.u.v.w.x````````````````````",
"````````````.y.z.A.B.C.D.E``````````````````````",
"````````````.F.G.H.I.J.K````````````````````````",
"``````````.k.L.M.N.O.P``````````````````````````",
"``````````.Q.R.S.T`L````````````````````````````",
"````````.U.V.W.X````````````````````````````````",
"````````.Y.Z.0.1````````````````````````````````",
"``````.2.3.4.5.6````````````````````````````````",
"``````.7.8.H#`#.````````````````````````````````",
"``````###a#b#c.Y````````````````````````````````",
"``````#d#e#f#g#h````````````````````````````````"
};
