/* XPM */
static char *draw_gradient_xpm[] = {
/* width height num_colors chars_per_pixel */
"    24    24      256            2",
/* colors */
"`` c #1c1a1c",
"`. c #4c9654",
"`# c #acaeac",
"`a c #5cba6c",
"`b c #acdaac",
"`c c #2c5234",
"`d c #dce6dc",
"`e c #94b694",
"`f c #5c5e5c",
"`g c #c4e6c4",
"`h c #e4f6e4",
"`i c #84ca8c",
"`j c #8c8e8c",
"`k c #3c6644",
"`l c #74c27c",
"`m c #647a64",
"`n c #9cd29c",
"`o c #dceedc",
"`p c #cceacc",
"`q c #9caaa4",
"`r c #343a34",
"`s c #bce2bc",
"`t c #3c7244",
"`u c #6cbe74",
"`v c #b4e2bc",
"`w c #545254",
"`x c #6c6e6c",
"`y c #f4faf4",
"`z c #9c9e9c",
"`A c #a4daac",
"`B c #b4deb4",
"`C c #eceae4",
"`D c #94ce94",
"`E c #949694",
"`F c #7cca8c",
"`G c #7c827c",
"`H c #a4d6a4",
"`I c #d4ead4",
"`J c #444644",
"`K c #748e74",
"`L c #b4d2b4",
"`M c #e4e6dc",
"`N c #8cc694",
"`O c #646664",
"`P c #cce2cc",
"`Q c #ecf6ec",
"`R c #849684",
"`S c #546a5c",
"`T c #7cc684",
"`U c #e4f2e4",
"`V c #2c2e2c",
"`W c #54a664",
"`X c #64ba6c",
"`Y c #acdeb4",
"`Z c #3c523c",
"`0 c #646264",
"`1 c #8c928c",
"`2 c #446a44",
"`3 c #74c67c",
"`4 c #747674",
"`5 c #9cd6a4",
"`6 c #dcf2dc",
"`7 c #a4aaa4",
"`8 c #44724c",
".` c #6cc274",
".. c #545e54",
".# c #94d29c",
".a c #d4eed4",
".b c #4c4e4c",
".c c #e4eae4",
".d c #b4b2b4",
".e c #acdab4",
".f c #2c5634",
".g c #94b69c",
".h c #5c625c",
".i c #c4e6cc",
".j c #e4f6ec",
".k c #8cce94",
".l c #9cd2a4",
".m c #ccead4",
".n c #2c4e34",
".o c #bce2c4",
".p c #545654",
".q c #6c726c",
".r c #fcfefc",
".s c #b4debc",
".t c #94ce9c",
".u c #7c867c",
".v c #a4d6ac",
".w c #444a44",
".x c #d4d6d4",
".y c #e4e6e4",
".z c #9cc69c",
".A c #cce6cc",
".B c #ecfaf4",
".C c #343234",
".D c #5ca264",
".E c #64be74",
".F c #8c9294",
".G c #446a4c",
".H c #74c684",
".I c #747e74",
".J c #dcf2e4",
".K c #a4aeac",
".L c #44764c",
".M c #6cc27c",
".N c #d4eedc",
".O c #000000",
".P c #000000",
".Q c #000000",
".R c #000000",
".S c #000000",
".T c #000000",
".U c #000000",
".V c #000000",
".W c #000000",
".X c #000000",
".Y c #000000",
".Z c #000000",
".0 c #000000",
".1 c #000000",
".2 c #000000",
".3 c #000000",
".4 c #000000",
".5 c #000000",
".6 c #000000",
".7 c #000000",
".8 c #000000",
"#` c #000000",
"#. c #000000",
"## c #000000",
"#a c #000000",
"#b c #000000",
"#c c #000000",
"#d c #000000",
"#e c #000000",
"#f c #000000",
"#g c #000000",
"#h c #000000",
"#i c #000000",
"#j c #000000",
"#k c #000000",
"#l c #000000",
"#m c #000000",
"#n c #000000",
"#o c #000000",
"#p c #000000",
"#q c #000000",
"#r c #000000",
"#s c #000000",
"#t c #000000",
"#u c #000000",
"#v c #000000",
"#w c #000000",
"#x c #000000",
"#y c #000000",
"#z c #000000",
"#A c #000000",
"#B c #000000",
"#C c #000000",
"#D c #000000",
"#E c #000000",
"#F c #000000",
"#G c #000000",
"#H c #000000",
"#I c #000000",
"#J c #000000",
"#K c #000000",
"#L c #000000",
"#M c #000000",
"#N c #000000",
"#O c #000000",
"#P c #000000",
"#Q c #000000",
"#R c #000000",
"#S c #000000",
"#T c #000000",
"#U c #000000",
"#V c #000000",
"#W c #000000",
"#X c #000000",
"#Y c #000000",
"#Z c #000000",
"#0 c #000000",
"#1 c #000000",
"#2 c #000000",
"#3 c #000000",
"#4 c #000000",
"#5 c #000000",
"#6 c #000000",
"#7 c #000000",
"#8 c #000000",
"a` c #000000",
"a. c #000000",
"a# c #000000",
"aa c #000000",
"ab c #000000",
"ac c #000000",
"ad c #000000",
"ae c #000000",
"af c #000000",
"ag c #000000",
"ah c #000000",
"ai c #000000",
"aj c #000000",
"ak c #000000",
"al c #000000",
"am c #000000",
"an c #000000",
"ao c #000000",
"ap c #000000",
"aq c #000000",
"ar c #000000",
"as c #000000",
"at c #000000",
"au c #000000",
"av c #000000",
"aw c #000000",
"ax c #000000",
"ay c #000000",
"az c #000000",
"aA c #000000",
"aB c #000000",
"aC c #000000",
"aD c #000000",
"aE c #000000",
"aF c #000000",
"aG c #000000",
"aH c #000000",
"aI c #000000",
"aJ c #000000",
"aK c #000000",
"aL c #000000",
"aM c #000000",
"aN c #000000",
"aO c #000000",
"aP c #000000",
"aQ c #000000",
"aR c #000000",
"aS c #000000",
"aT c #000000",
"aU c #000000",
"aV c #000000",
"aW c #000000",
"aX c #000000",
"aY c #000000",
"aZ c #000000",
"a0 c #000000",
"a1 c #000000",
"a2 c #000000",
"a3 c #000000",
"a4 c #000000",
"a5 c #000000",
"a6 c #000000",
"a7 c #000000",
"a8 c #000000",
/* pixels */
".c`d`d`d`d`d`d`d`d`d`d`d`d`d`d`M`d`M`M.y`M.y`M`C",
"`d`a`a`a`a`a`a`a`X`X`u`l`T`i`N.k.#`5`A`b`Y`v.o.c",
"`d`a`d`Q`Q`Q`Q`Q`Q`Q`h`U`o.a.m`p.i.o`s`Y.e.e`g.y",
"`d`a`Q.r.r.r.r.r.r.r`y`U`U`o.a.A`g.o.s.e`A`H`p.y",
"`d`a`Q.d`f`f`0`0`M`y`Q`U`6`I.m.i.o`B.e`A`5.l`I.c",
"`d`a`Q.b`x`z`z.C`7`Q`U`o.N.m.i`s`s.e`b`H.l.#.N`C",
"`d`a`Q.b.d.r.r`w`7`U.J`o.m.A`g.s`B.e`5.l.#.#`o.c",
"`d`a`Q.b`#.r.r.b`q`U.N`I.i`g`s`B.e`H`5.#.k.k`o`C",
"`d`a`Q`w`J`x`0```4`6`I`p`g.o.s.e`A`5.#.k`i`N`h`C",
"`d`a`Q.x`E`E`j.I.p.u.i`g.o`B`Y.v`5.#.k`i`i`i`Q.c",
"`d`X`Q.r`y`Q`U`6.A.q.h`L.s`Y`b`5`n.k.k`i`3`i.B`C",
"`d`X`Q`y`Q`h`6`o.m`g`R.w.g`b`5.l.#.k`i`T`l`T`y`C",
"`d`u`h`y`h`U`o.m.A`g.o`e.w`K.l.#`N`i`T`l`u.H.r`C",
"`d`l`U`Q`U.N`I.A`g.s.s.e.z..`S`i`i`F`l.M.E`l.r`C",
"`d`l`6`U`o.a`p.i.o.s`Y.v`5.t`m.w.G.L`8`t.D`l.r`C",
"`d`T`o`o.N`p.i.o.s`B`A`H.#.t`i`Z`V`0`O`r.f`l.r`C",
"`d`i.a.N.m.A.o`s`Y`b`H.#.#.k`i`k`4.r.r`j`c`l.r`C",
"`d`N.m`I.A.o`s`B.e.v.l.#`N`i`F`k`4.r.r`j`c`l.r`C",
"`d.k`p`p.o`s.s.e`H`5.#.k`i`F`l`k`J`z`E.p`c`l.r`C",
"`M.t`g.i.o`v.e`A`5.#.k`i`i`3`l`W.n.n.n.n`.`l.r`C",
"`d`n.o.o`v`B`A`5`n.k.k`i.H`l`u`X`a`X`a`X`a`l.r`C",
"`M`5.o`s`B.v.v`5.l.#.k`i`i`T`l`l`l`l`l`l`l`i.r`C",
"`M.v`A`B.s`g.i`p`I`o.J`Q`Q`y.r.r.r.r.r.r.r.r.r`C",
".c.y.y.y.c.y.y`C.y.c`C.y`C.c`C.c`C`C.y`C`C`C`C.y"
};
