/* XPM */
static char *draw_zoom_xpm[] = {
/* width height num_colors chars_per_pixel */
"    24    24      256            2",
/* colors */
"`` c #e8e8e4",
"`. c #c8c8c5",
"`# c #717170",
"`a c #3f4041",
"`b c #111213",
"`c c #101111",
"`d c #3c3d3e",
"`e c #6f706e",
"`f c #c5c5c1",
"`g c #e7e7e3",
"`h c #838382",
"`i c #101213",
"`j c #4e5a66",
"`k c #78899b",
"`l c #a8bcd0",
"`m c #a2b7ce",
"`n c #7a8b9c",
"`o c #535f6a",
"`p c #0f1011",
"`q c #777876",
"`r c #e5e5e1",
"`s c #424344",
"`t c #2c3137",
"`u c #b1c2d5",
"`v c #eaf1f9",
"`w c #fafbfd",
"`x c #f6f9fc",
"`y c #eff4fa",
"`z c #e0ebf6",
"`A c #c6daef",
"`B c #a7bacf",
"`C c #31363b",
"`D c #363738",
"`E c #e3e3e0",
"`F c #cfdff0",
"`G c #ffffff",
"`H c #f9fbfd",
"`I c #f2f6fb",
"`J c #ebf2f9",
"`K c #e4edf7",
"`L c #d7e5f3",
"`M c #c8daef",
"`N c #c3d8ee",
"`O c #c4d8ed",
"`P c #363a3f",
"`Q c #707070",
"`R c #acbed2",
"`S c #fbfcfe",
"`T c #f5f9fc",
"`U c #eef4fa",
"`V c #e7eff8",
"`W c #dfeaf5",
"`X c #c8dbef",
"`Y c #c4d8ee",
"`Z c #c6daee",
"`0 c #cadcf0",
"`1 c #b4c4d5",
"`2 c #121314",
"`3 c #b9b9b8",
"`4 c #717270",
"`5 c #525d68",
"`6 c #dfeaf6",
"`7 c #dde8f5",
"`8 c #ccdef0",
".` c #cedff1",
".. c #d0e0f1",
".# c #6b737b",
".a c #5d5d5d",
".b c #e7e7e4",
".c c #7e8e9d",
".d c #ecf3f9",
".e c #d9e6f4",
".f c #cddef1",
".g c #d2e1f2",
".h c #d4e3f2",
".i c #9aa5af",
".j c #343536",
".k c #e2e2df",
".l c #b2c2d4",
".m c #e3edf7",
".n c #dce8f5",
".o c #d5e4f3",
".p c #ccdef1",
".q c #caddf0",
".r c #d2e2f2",
".s c #d4e3f3",
".t c #d6e4f3",
".u c #d8e5f4",
".v c #c6d2de",
".w c #0b0c0c",
".x c #dbdbd8",
".y c #101112",
".z c #b9c9d9",
".A c #cbdef0",
".B c #dae7f4",
".C c #cad4df",
".D c #0b0b0b",
".E c #d4d4d2",
".F c #8b98a4",
".G c #cbddef",
".H c #cfdff1",
".I c #d1e1f2",
".J c #d8e6f4",
".K c #dee9f5",
".L c #a4abb2",
".M c #333434",
".N c #dadad8",
".O c #6e6e6c",
".P c #5c646c",
".Q c #cfe0f1",
".R c #d3e2f2",
".S c #d5e3f3",
".T c #d6e5f3",
".U c #deeaf5",
".V c #e2ecf7",
".W c #787d81",
".X c #5c5c5d",
".Y c #e0e0dd",
".Z c #b9c6d4",
".0 c #dbe7f4",
".1 c #e6eff8",
".2 c #d0d8df",
".3 c #141415",
".4 c #a6a6a6",
".5 c #e6e6e3",
".6 c #757574",
".7 c #36393c",
".8 c #d8e5f3",
"#` c #dde9f5",
"#. c #e1ebf6",
"## c #e3ecf7",
"#a c #e5eef7",
"#b c #e8f0f8",
"#c c #434546",
"#d c #666666",
"#e c #a4a4a3",
"#f c #d9d9d5",
"#g c #363737",
"#h c #3b3e40",
"#i c #c6cfda",
"#j c #e9f0f8",
"#k c #d5dae0",
"#l c #444547",
"#m c #393a3a",
"#n c #5a5a5a",
"#o c #929292",
"#p c #5d5d5b",
"#q c #c6a367",
"#r c #e8e7e2",
"#s c #e1e1de",
"#t c #6f6f6e",
"#u c #131414",
"#v c #75797d",
"#w c #a7acb3",
"#x c #d4dae2",
"#y c #d6dce3",
"#z c #acb0b5",
"#A c #7d7f82",
"#B c #595959",
"#C c #444444",
"#D c #b2b2b2",
"#E c #d6d6d6",
"#F c #54554d",
"#G c #d29e2d",
"#H c #f7bb5e",
"#I c #b5b5b4",
"#J c #353636",
"#K c #0c0c0c",
"#L c #343434",
"#M c #7d7d7c",
"#N c #646463",
"#O c #bbbbbb",
"#P c #63635e",
"#Q c #717539",
"#R c #f9fdaa",
"#S c #f7c65c",
"#T c #f7ba5d",
"#U c #e5e5e2",
"#V c #dededc",
"#W c #d6d6d4",
"#X c #d0d0cf",
"#Y c #d7d7d5",
"#Z c #dededb",
"#0 c #b7b7b4",
"#1 c #20201e",
"#2 c #2e2c25",
"#3 c #595524",
"#4 c #ede640",
"#5 c #f7f770",
"#6 c #fefeee",
"#7 c #f2c45c",
"#8 c #f7ba5b",
"a` c #e8e7e1",
"a. c #e6e6e2",
"a# c #4f3e24",
"aa c #795813",
"ab c #f9cd32",
"ac c #f8d435",
"ad c #f7db39",
"ae c #f8e96a",
"af c #fefded",
"ag c #edc05b",
"ah c #f3b658",
"ai c #deddd8",
"aj c #72562d",
"ak c #a47018",
"al c #fbbb2a",
"am c #fac22d",
"an c #f9c930",
"ao c #fadc64",
"ap c #fefbec",
"aq c #eaba5a",
"ar c #eeb155",
"as c #e8e7e0",
"at c #dfded9",
"au c #6c522e",
"av c #a06614",
"aw c #fda922",
"ax c #fcb025",
"ay c #fbb728",
"az c #fcce5e",
"aA c #fef9eb",
"aB c #e4a940",
"aC c #e9ae57",
"aD c #dfdeda",
"aE c #685030",
"aF c #9b6213",
"aG c #fea01e",
"aH c #fea620",
"aI c #fdb73d",
"aJ c #f1a924",
"aK c #d28c2b",
"aL c #634e32",
"aM c #955f13",
"aN c #fda01e",
"aO c #fd9f1e",
"aP c #b8781d",
"aQ c #ceae7e",
"aR c #dfdfda",
"aS c #5e4b32",
"aT c #905b13",
"aU c #e38f1b",
"aV c #945f17",
"aW c #a27d4b",
"aX c #e7e7e2",
"aY c #e0dfdb",
"aZ c #5f503a",
"a0 c #583f1d",
"a1 c #a3947d",
"a2 c #000000",
"a3 c #000000",
"a4 c #000000",
"a5 c #000000",
"a6 c #000000",
"a7 c #000000",
"a8 c #000000",
/* pixels */
"`````````.`#`a`b`c`d`e`f````````````````````````",
"`````g`h`i`j`k`l`m`n`o`p`q`r````````````````````",
"```g`s`t`u`v`w`x`y`z`A`B`C`D`E``````````````````",
"```h`t`F`G`H`I`J`K`L`M`N`O`P`Q``````````````````",
"`.`b`R`S`T`U`V`W`X`Y`Z`X`0`1`2`3````````````````",
"`4`5`6`I`J`K`7`0`A`X`0`8.`...#.a.b``````````````",
"`a.c.d`V`z.e.f`X`0`8.`...g.h.i.j.k``````````````",
"`b.l.m.n.o.p.q`8.`...r.s.t.u.v.w.x``````````````",
".y.z.e.g.q.A.`...r.s.t.u.B.n.C.D.E``````````````",
"`d.F.f.G.H.I.r.s.t.J.B.n.K`z.L.M.N``````````````",
".O.P.Q.I.R.S.T.J.B.n.U`z.V`K.W.X.Y``````````````",
"`f`c.Z.S`L.e.0`7.U`z.V`K.1.2.3.4.5``````````````",
"``.6.7.8.0#``6#.###a.1#b`v#c#d#e#f``````````````",
"```r#g#h#i#..m#a`V#j`J#k#l#m#n#o#p#q#r``````````",
"````#s#t#u#v#w#x#y#z#A.3#B#C#D#E#F#G#H#r````````",
"````````#I.a#J#K.D#L.a.4#M#N#O#P#Q#R#S#T#r``````",
"``````````#U#V#W#X#Y#Z`r#0#1#2#3#4#5#6#7#8a`````",
"````````````````````````a.a#aaabacadaeafagaha```",
"``````````````````````````aiajakalamanaoapaqaras",
"````````````````````````````atauavawaxayazaAaBaC",
"``````````````````````````````aDaEaFaGaGaHaIaJaK",
"````````````````````````````````ataLaMaNaGaOaPaQ",
"``````````````````````````````````aRaSaTaUaVaWaX",
"````````````````````````````````````aYaZa0a1`g``"
};
