/* XPM */
static char *duplicate_layer_icon_xpm[] = {
/* width height num_colors chars_per_pixel */
"    58    54      256            2",
/* colors */
"`` c #040204",
"`. c #648e5c",
"`# c #2c4224",
"`a c #7cce64",
"`b c #34621c",
"`c c #949294",
"`d c #5c6654",
"`e c #c4c6c4",
"`f c #54b62c",
"`g c #5c725c",
"`h c #242224",
"`i c #4c4a4c",
"`j c #e4e6e4",
"`k c #acaeac",
"`l c #64965c",
"`m c #4c6244",
"`n c #5c6a54",
"`o c #747274",
"`p c #acd6ac",
"`q c #74ae6c",
"`r c #243a1c",
"`s c #141214",
"`t c #848684",
"`u c #445e34",
"`v c #545654",
"`w c #d4d6d4",
"`x c #f4f6f4",
"`y c #6c6a6c",
"`z c #444244",
"`A c #94da84",
"`B c #346e1c",
"`C c #9c9e9c",
"`D c #bcbabc",
"`E c #747a6c",
"`F c #74c25c",
"`G c #848e84",
"`H c #4c6e3c",
"`I c #646a5c",
"`J c #343234",
"`K c #0c0a0c",
"`L c #8cca7c",
"`M c #446234",
"`N c #647e5c",
"`O c #2c2a2c",
"`P c #4c524c",
"`Q c #eceeec",
"`R c #1c1a1c",
"`S c #545e54",
"`T c #dcdedc",
"`U c #3c4e34",
"`V c #7c7a7c",
"`W c #8c8e8c",
"`X c #3c3a3c",
"`Y c #9c9a9c",
"`Z c #646264",
"`0 c #d4d2d4",
"`1 c #64c244",
"`2 c #6c7264",
"`3 c #b4b6b4",
"`4 c #8c968c",
"`5 c #54624c",
"`6 c #5c6e5c",
"`7 c #aceaa4",
"`8 c #7cb66c",
".` c #fcfefc",
".. c #a4a6a4",
".# c #c4c2c4",
".a c #84c274",
".b c #8c9284",
".c c #040604",
".d c #64925c",
".e c #344624",
".f c #7cd264",
".g c #3c662c",
".h c #949694",
".i c #cccacc",
".j c #647664",
".k c #242624",
".l c #4c4e4c",
".m c #eceaec",
".n c #b4b2b4",
".o c #6ca264",
".p c #4c624c",
".q c #5c6a5c",
".r c #747674",
".s c #7cb26c",
".t c #141614",
".u c #8c8a8c",
".v c #445e3c",
".w c #5c5a5c",
".x c #dcdadc",
".y c #fcfafc",
".z c #6c6e6c",
".A c #444644",
".B c #94de84",
".C c #446e34",
".D c #a4a2a4",
".E c #bcbebc",
".F c #747e74",
".G c #7cbe74",
".H c #546a4c",
".I c #646e64",
".J c #343634",
".K c #0c0e0c",
".L c #8cd27c",
".M c #446634",
".N c #2c2e2c",
".O c #545254",
".P c #f4f2f4",
".Q c #1c1e1c",
".R c #5c5e5c",
".S c #e4e2e4",
".T c #444a44",
".U c #7c7e7c",
".V c #3c3e3c",
".W c #646664",
".X c #6cc24c",
".Y c #b4e6b4",
".Z c #8c928c",
".0 c #000000",
".1 c #000000",
".2 c #000000",
".3 c #000000",
".4 c #000000",
".5 c #000000",
".6 c #000000",
".7 c #000000",
".8 c #000000",
"#` c #000000",
"#. c #000000",
"## c #000000",
"#a c #000000",
"#b c #000000",
"#c c #000000",
"#d c #000000",
"#e c #000000",
"#f c #000000",
"#g c #000000",
"#h c #000000",
"#i c #000000",
"#j c #000000",
"#k c #000000",
"#l c #000000",
"#m c #000000",
"#n c #000000",
"#o c #000000",
"#p c #000000",
"#q c #000000",
"#r c #000000",
"#s c #000000",
"#t c #000000",
"#u c #000000",
"#v c #000000",
"#w c #000000",
"#x c #000000",
"#y c #000000",
"#z c #000000",
"#A c #000000",
"#B c #000000",
"#C c #000000",
"#D c #000000",
"#E c #000000",
"#F c #000000",
"#G c #000000",
"#H c #000000",
"#I c #000000",
"#J c #000000",
"#K c #000000",
"#L c #000000",
"#M c #000000",
"#N c #000000",
"#O c #000000",
"#P c #000000",
"#Q c #000000",
"#R c #000000",
"#S c #000000",
"#T c #000000",
"#U c #000000",
"#V c #000000",
"#W c #000000",
"#X c #000000",
"#Y c #000000",
"#Z c #000000",
"#0 c #000000",
"#1 c #000000",
"#2 c #000000",
"#3 c #000000",
"#4 c #000000",
"#5 c #000000",
"#6 c #000000",
"#7 c #000000",
"#8 c #000000",
"a` c #000000",
"a. c #000000",
"a# c #000000",
"aa c #000000",
"ab c #000000",
"ac c #000000",
"ad c #000000",
"ae c #000000",
"af c #000000",
"ag c #000000",
"ah c #000000",
"ai c #000000",
"aj c #000000",
"ak c #000000",
"al c #000000",
"am c #000000",
"an c #000000",
"ao c #000000",
"ap c #000000",
"aq c #000000",
"ar c #000000",
"as c #000000",
"at c #000000",
"au c #000000",
"av c #000000",
"aw c #000000",
"ax c #000000",
"ay c #000000",
"az c #000000",
"aA c #000000",
"aB c #000000",
"aC c #000000",
"aD c #000000",
"aE c #000000",
"aF c #000000",
"aG c #000000",
"aH c #000000",
"aI c #000000",
"aJ c #000000",
"aK c #000000",
"aL c #000000",
"aM c #000000",
"aN c #000000",
"aO c #000000",
"aP c #000000",
"aQ c #000000",
"aR c #000000",
"aS c #000000",
"aT c #000000",
"aU c #000000",
"aV c #000000",
"aW c #000000",
"aX c #000000",
"aY c #000000",
"aZ c #000000",
"a0 c #000000",
"a1 c #000000",
"a2 c #000000",
"a3 c #000000",
"a4 c #000000",
"a5 c #000000",
"a6 c #000000",
"a7 c #000000",
"a8 c #000000",
/* pixels */
".`.`.`.`.`.`.`.`.`.`.`.`.`.`.`.`.`.`.`.`.`.`.`.`.`.`.`.`.`.`.`.K`X.J.J`X.J.J.J.J`J.J`J.K`K`K`x.`.`.`.`.`.`.`.`.`.`.`",
".`.`.`.`.`.`.`.`.`.`.`.`.`.`.`.`.`.`.`.`.`.`.`.`.`.`.`.`.`.`.``s`C.D.D`C.D`C`Y`Y.h`c`c`z.Q.J.t.y.`.`.`.`.`.`.`.`.`.`",
".`.`.`.`.`.`.`.`.`.`.`.`.`.`.`.`.`.`.`.`.`.`.`.`.`.`.`.`.`.`.``R`x`x`x`x`x.P`Q.m`j`j`T`k`O.W`Y`s`x.`.`.`.`.`.`.`.`.`",
".`.`.`.`.`.`.`.`.`.`.`.`.`.`.`.`.`.`.`.`.`.`.`.`.`.`.`.`.`.`.``R.P`x.y.P.y.P.P`Q.m.m.S`T`s.W`x`Y`s.y.`.`.`.`.`.`.`.`",
".`.`.`.`.`.`.`.`.`.`.`.`.`.`.`.`.`.`.`.`.`.`.`.`.`.`.`.`.`.`.``R.P.P`x`x`x`x`x.P`Q.m`j.S.N`y`x`x`Y`s`x.`.`.`.`.`.`.`",
".`.`.`.`.`.`.`.`.`.`.`.`.`.`.`.`.`.`.`.`.`.`.`.`.`.`.`.`.`.`.``R.P.P`x.P.y`x`x`x.P`Q.m`j`W`K.c`s.K`K.J.`.`.`.`.`.`.`",
".`.`.`.`.`.`.`.`.`.`.`.`.`.`.`.`.`.`.`.`.`.`.`.`.`.`.`.`.`.`.``R`Q.P.P`x.P`x.y.P.P`Q`Q.m`j.S.#.r.R`h`X.`.`.`.`.`.`.`",
".`.`.`.`.`.`.`.`.`.`.`.`.`.`.`.`.`.`.`.`.`.`.`.`.`.`.`.`.`.`.``R`Q.P.P.P`x.P`x`x.y.P.P.m.m`j.S`T.x`z.O.`.`.`.`.`.`.`",
".`.`.`.`.`.`.`.`.`.`.`.`.`.`.`.`.`.`.`.`.`.`.`.`.`.`.`.`.`.`.``R`Q`Q.P`Q`x.P`x.y.P`x.P`Q`Q`j`j.S`T.l`v.`.`.`.`.`.`.`",
".`.`.`.`.`.`.`.`.`.`.`.`.`.`.`.`.`.`.`.`.`.`.`.`.`.`.`.`.`.`.``R`Q.P`Q.P.P.P.P`x`x`x`x.P`Q.m.m`j.S.O.O.`.`.`.`.`.`.`",
".`.`.`.`.`.`.`.`.`.`.`.`.`.`.`.`.`.`.`.`.`.`.`.`.`.`.`.`.`.`.``R.m`Q`Q.P`Q`x.P.P`x.y`x.y.P`Q.m`j`j`v.l.`.`.`.`.`.`.`",
".`.`.`.`.`.`.`.`.`.`.`.`.`.`.`.`.`.`.`.`.`.`.`.`.`.`.`.`.`.`.``R.m`Q`Q.P`Q.P.P.P`x`x`x`x`k.F.F.x`j.w`i.`.`.`.`.`.`.`",
".z`o.z.z.z.z.z.z.z.z`i`z`3.`.`.`.`.`.`.`.`.`.`.`.`.`.`.`.`.`.`.t.m.m`Q`Q.P`Q.P.P.P`x.y.P`n`F`l`3.m`Z.A.`.`.`.`.`.`.`",
"`v`v.O`v.O.O.O.O`i`i`R`R.c`D.`.`.`.`.`.`.`.`.`.`.`.`.`.`.`.`.``R`j.m.m`Q`Q`Q`Q.P.P.P.P`x`n`a.o.n`Q`Z`z.`.`.`.`.`.`.`",
".m`j.m.S.S.x.x`w`0`0`I`O`v`s`3.`.`.`.`.`.`.`.x.#.#.#`e`e`e.i`3`s.i.m.m`Q.m.P`Q.P`Q`Q`U`m.v`a`8`S.I`P`z.`.`.`.`.`.`.`",
"`x`x`x.y.P`Q.m.m`j.S`3`h`y`0.t`D.`.`.`.`.`.`.S`h````````````````.i`j`Q.m`Q.m`Q`Q.P.S`b`f`1`a`A`7.Y.T.V.`.`.`.`.`.`.`",
".P`x.y.P`x.P`Q.m`j`j.S.t.W.y`0`s`3.`.`.`.`.`.`.x````````````.N.t.m`j.m`j`Q.m`Q.P`Q`j`r.g.C`a.L`N`g.T`X.`.`.`.`.`.`.`",
".P`x.P`x`x`x.P`Q`Q.m.S`X`J`o.r`Z.c.n.`.`.`.``D.R.c````````.r.`.t`j.m`j.m.m.m`Q.m`Q.P.S`j`2`F.G`W.m`o`X.`.`.`.`.`.`.`",
".P`x`x.y`x.y.P.P`Q.m`j.E`J.K`h.k`R.J.``w`V`R``.K`i````.c`C.`.``R`j`j.m`j.m.m.m`Q`Q`Q.P`Q`E`F.a`W`x.r`X.`.`.`.`.`.`.`",
".P.P.P.P`x`x`x`x.P`Q.m`j`j.S.n`y`R.N`J````.l`k.y.S``.K.#.`.`.``R.S`j`j.m`j`j`Q.m.m`Q`Q.P`G`m.p`C`x`o.J.`.`.`.`.`.`.`",
"`Q.P.P`x`x.y.P`x.P.P`Q.m`j.S`T`T.l`i.J.h`Q.`.`.``w.k`T.`.`.`.```.t`R.t`R.t`R.t`R.t`R.t`R.t.t`R.t`R.t`J.`.`.`.`.`.`.`",
"`Q.P`Q`x.P.P`x.y`x.P`Q`Q.m`j.S`T.O.O.`.`.`.`.`.`.S`Q.`.`.`.`.`.`.`.`.`.`.`.`.`.`.`.`.`.`.`.`.`.`.`.`.`.`.`.`.`.`.`.`",
"`Q`Q.P.P.P`x`x`x`x.y.P.P.m`j`j.S.O.O.`.`.`.`.`.`.`.`.`.`.`.`.`.`.`.`.`.`.`.`.`.`.`.`.`.`.`.`.`.`.`.`.`.`.`.`.`.`.`.`",
"`Q.P`Q.P.P.P.P`x`x`x`x.P`Q`Q.m`j`v.l.`.`.`.`.`.`.`.`.`.`.`.`.`.`.`.`.`.`.`.`.`.`.`.`.`.`.`.`.`.`.`.`.`.`.`.`.`.`.`.`",
".m`Q`Q`Q.P`Q`x.P`x.y.P`x`x`Q.m`j.R`i.`.`.`.`.`.`.`.`.`.`.`.`.`.`.`.`.`.`.`.`.`.`.`.`.`.`.`.`.`.`.`.`.`.`.`.`.`.`.`.`",
".m`Q`Q.P`Q.P.P.P.P`x`x.y`x.P`Q.m`Z.A.`.`.`.`.`.`.`.`.`.`.`.`.`.`.`.`.`.`.`.`.`.`.`.`.`.`.`.`.`.`.`.`.`.`.`.`.`.`.`.`",
".m.m.m`Q.P`Q.P.P`x`x`x`x`x`x.P`Q`Z`z.`.`.`.`.`.`.`.`.`.`.`.`.`.`.`.`.`.`.`.`.`.`.`.`.`.`.`.`.`.`.`.`.`.`.`.`.`.`.`.`",
".m`j`Q`Q`Q.P`Q`Q.P.P`x.y.P.y.P.P.W.V`c`x.`.`.`.`.`.S.`.`.`.`.``D`3`3`D.n`3`D`3`3`D.n`3.D`Y.P.`.`.`.`.`.`.`.`.`.`.`.`",
"`j.m.m.m`Q`Q.P`Q.P.P.P.P`x`x`x.P.z.k```s.U`Q.`.`.`.A`e.`.`.``Q`s`i`i.A`i.A.A`z`z`z`z.V`s`K`K`Q.`.`.`.`.`.`.`.`.`.`.`",
".m`j.m.m.m`Q`Q.P`Q.P.P`x`x.y.P`x`o`X`e.l```K`o.S.``J`s.#.`.`.m.t.E.#.E.#.E`D`D`3.n`k`k`i.Q.O`s`Q.`.`.`.`.`.`.`.`.`.`",
"`j.m`j.m.m`Q.m`Q`Q.P`Q`x.P.P`x.y`o.J.`.``w`Z``.c.w````.K`e.`.m.Q`x`x`x`x.y.P`Q.m.m`j.S`C.Q`t..`s.P.`.`.`.`.`.`.`.`.`",
"`j`j.m`j.m.m`Q`Q`Q.P.P.P.P`x.P`x`o`X.`.`.`.`.S`o.c``````.K`e.m`R.P`x.y.P.P`x.P`Q.m`j`j.x.K`t.P..`s`Q.`.`.`.`.`.`.`.`",
"`j`j.m`j.m`j`Q.m`Q`Q`Q.P`Q`x.P`x`o.J.`.`.`.`.``T`K`````````K.n.Q.P.P.P`x`x`x`x.P`Q.m`j`j`h`V.S`T`c`s.P.`.`.`.`.`.`.`",
"`R.t`R.t`R.t`R`R.t`R`R.t`R`R`R`R.Q.R.`.`.`.``e`R``````````````.t.P.P`x`x.y`x`x.P.P`Q.m`j`W`s``.K`s.c`i.`.`.`.`.`.`.`",
".`.`.`.`.`.`.`.`.`.`.`.`.`.`.`.`.`.`.`.`.`.``j.i.n`C.u`o.R.N`R```e.P.P.P`x`x.y`x.P`Q`Q.m`j.S`0.u.w`R.l.`.`.`.`.`.`.`",
".`.`.`.`.`.`.`.`.`.`.`.`.`.`.`.`.`.`.`.`.`.`.`.`.`.`.`.`.`.`.m.Q`Q.P`Q`x.P`x.P`x.y.P.P.m.m`j.S`T`0.V.z.`.`.`.`.`.`.`",
".`.`.`.`.`.`.`.`.`.`.`.`.`.`.`.`.`.`.`.`.`.`.`.`.`.`.`.`.`.`.m`R`Q.P.P.P.P`x`x`x`x`x.P`Q`Q`j`j.S`w`i`y.`.`.`.`.`.`.`",
".`.`.`.`.`.`.`.`.`.`.`.`.`.`.`.`.`.`.`.`.`.`.`.`.`.`.`.`.`.`.m.Q`Q`Q`Q.P`Q`x.P`x.y.P`x`x.P.m`j`j`T`i.W.`.`.`.`.`.`.`",
".`.`.`.`.`.`.`.`.`.`.`.`.`.`.`.`.`.`.`.`.`.`.`.`.`.`.`.`.`.`.m`R.m`Q`Q.P.P.P.P.P`x`x.y.P.P`Q.m.m.S.l`Z.`.`.`.`.`.`.`",
".`.`.`.`.`.`.`.`.`.`.`.`.`.`.`.`.`.`.`.`.`.`.`.`.`.`.`.`.`.`.m.Q.m`Q`Q`Q.P`Q.P.P`x`x`x`x.Z`6`I.x`j.l`Z.`.`.`.`.`.`.`",
".`.`.`.`.`.`.`.`.`.`.`.`.`.`.`.`.`.`.`.`.`.`.`.`.`.`.`.`.`.`.m.Q.m.m`Q`Q.P`Q.P.P`x`x.y`x`n`a`.`e.m.O.w.`.`.`.`.`.`.`",
".`.`.`.`.`.`.`.`.`.`.`.`.`.`.`.`.`.`.`.`.`.`.`.`.`.`.`.`.`.`.m`R`j.m`Q.m`Q.P`Q.P.P.P.P`x`n.f.d.i`Q`v`v.`.`.`.`.`.`.`",
".`.`.`.`.`.`.`.`.`.`.`.`.`.`.`.`.`.`.`.`.`.`.`.`.`.`.`.`.`.`.m.Q.m`j.m`Q.m`Q`Q`Q.P`T`#`u.C`a`8`d`d.T`v.`.`.`.`.`.`.`",
".`.`.`.`.`.`.`.`.`.`.`.`.`.`.`.`.`.`.`.`.`.`.`.`.`.`.`.`.`.`.m.Q`j.m.m.m`Q`Q.P`Q.P`w`B`f.X.f`A`7`p.A.l.`.`.`.`.`.`.`",
".`.`.`.`.`.`.`.`.`.`.`.`.`.`.`.`.`.`.`.`.`.`.`.`.`.`.`.`.`.`.m`R`j`j`j.m.m.m.m`Q`Q.x`#.g.M.f`L`6.q.A`i.`.`.`.`.`.`.`",
".`.`.`.`.`.`.`.`.`.`.`.`.`.`.`.`.`.`.`.`.`.`.`.`.`.`.`.`.`.`.m.Q`j.m.m`j.m`Q.m`Q`Q.P`Q.P`I`a`q`k`x.W`i.`.`.`.`.`.`.`",
".`.`.`.`.`.`.`.`.`.`.`.`.`.`.`.`.`.`.`.`.`.`.`.`.`.`.`.`.`.`.m`R`j`j`j.m`j.m.m`Q.m`Q.P.P.q`a.s..`x`y.A.`.`.`.`.`.`.`",
".`.`.`.`.`.`.`.`.`.`.`.`.`.`.`.`.`.`.`.`.`.`.`.`.`.`.`.`.`.`.m`R`j`j`j.m`j.m.m.m`Q.m`Q.P`G.H`5`D`x`y`z.`.`.`.`.`.`.`",
".`.`.`.`.`.`.`.`.`.`.`.`.`.`.`.`.`.`.`.`.`.`.`.`.`.`.`.`.`.`.m.c`R.t`R.t`R.t.t`R.t`R.t`R`R`R.t`R.t`R`P.`.`.`.`.`.`.`",
".`.`.`.`.`.`.`.`.`.`.`.`.`.`.`.`.`.`.`.`.`.`.`.`.`.`.`.`.`.`.`.`.`.`.`.`.`.`.`.`.`.`.`.`.`.`.`.`.`.`.`.`.`.`.`.`.`.`",
".`.`.`.`.`.`.`.`.`.`.`.`.`.`.`.`.`.`.`.`.`.`.`.`.`.`.`.`.`.`.`.`.`.`.`.`.`.`.`.`.`.`.`.`.`.`.`.`.`.`.`.`.`.`.`.`.`.`",
".`.`.`.`.`.`.`.`.`.`.`.`.`.`.`.`.`.`.`.`.`.`.`.`.`.`.`.`.`.`.`.`.`.`.`.`.`.`.`.`.`.`.`.`.`.`.`.`.`.`.`.`.`.`.`.`.`.`",
".`.`.`.`.`.`.`.`.`.`.`.`.`.`.`.`.`.`.`.`.`.`.`.`.`.`.`.`.`.`.`.`.`.`.`.`.`.`.`.`.`.`.`.`.`.`.`.`.`.`.`.`.`.`.`.`.`.`",
".`.`.`.`.`.`.`.`.`.`.`.`.`.`.`.`.`.`.`.`.`.`.`.`.`.`.`.`.`.`.`.`.`.`.`.`.`.`.`.`.`.`.`.`.`.`.`.`.`.`.`.`.`.`.`.`.`.`"
};
