/* XPM */
static char *duplicate_xml_node_xpm[] = {
/* width height num_colors chars_per_pixel */
"    23    24      256            2",
/* colors */
"`` c #6e6e6c",
"`. c #5d5d5b",
"`# c #6c6c6a",
"`a c #e6e6e2",
"`b c #e8e8e4",
"`c c #f5f5f3",
"`d c #f2f2f1",
"`e c #f0f0ef",
"`f c #eeeeec",
"`g c #ececeb",
"`h c #eaeae8",
"`i c #e7e7e6",
"`j c #e6e6e4",
"`k c #e3e3e2",
"`l c #e1e1e0",
"`m c #dfdfdd",
"`n c #dddddb",
"`o c #dbdbd9",
"`p c #d8d8d7",
"`q c #60605f",
"`r c #bbbbb8",
"`s c #f3f3f1",
"`t c #efefed",
"`u c #e8e8e6",
"`v c #e4e4e2",
"`w c #e0e0de",
"`x c #dddddc",
"`y c #d9d9d7",
"`z c #d7d7d5",
"`A c #f1f1ef",
"`B c #ededeb",
"`C c #eaeae9",
"`D c #e6e6e5",
"`E c #e2e2e0",
"`F c #dbdbda",
"`G c #d7d7d6",
"`H c #d5d5d3",
"`I c #efefee",
"`J c #e9e9e7",
"`K c #e4e4e3",
"`L c #e0e0df",
"`M c #dededc",
"`N c #dadad8",
"`O c #d5d5d4",
"`P c #d3d3d1",
"`Q c #ebebe9",
"`R c #e7e7e5",
"`S c #e3e3e1",
"`T c #dcdcda",
"`U c #d8d8d6",
"`V c #d4d4d2",
"`W c #d1d1d0",
"`X c #e9e9e8",
"`Y c #e5e5e3",
"`Z c #2b2b2b",
"`0 c #070706",
"`1 c #060606",
"`2 c #050504",
"`3 c #070707",
"`4 c #232323",
"`5 c #f0f0f0",
"`6 c #f7f7f7",
"`7 c #ececec",
"`8 c #f5f5f5",
".` c #f1f1f1",
".. c #e3e3e3",
".# c #e8e8e8",
".a c #e5e5e5",
".b c #e1e1e1",
".c c #dcdcdc",
".d c #d8d8d8",
".e c #d4d4d4",
".f c #cfcfcf",
".g c #000000",
".h c #bfbfbc",
".i c #e1e1df",
".j c #ffffff",
".k c #c3c3c3",
".l c #1f1f1f",
".m c #eeeeee",
".n c #ededed",
".o c #202020",
".p c #b0b0b0",
".q c #e4e4e4",
".r c #e0e0e0",
".s c #d7d7d7",
".t c #d3d3d3",
".u c #161616",
".v c #bababa",
".w c #f6f6f6",
".x c #f2f2f2",
".y c #b6b6b6",
".z c #141414",
".A c #aaaaaa",
".B c #f3f3f3",
".C c #eaeaea",
".D c #131313",
".E c #a4a4a4",
".F c #d9d9d9",
".G c #d0d0d0",
".H c #cccccc",
".I c #181818",
".J c #858585",
".K c #f8f8f8",
".L c #efefef",
".M c #ebebeb",
".N c #e6e6e6",
".O c #e2e2e2",
".P c #7c7c7c",
".Q c #111111",
".R c #cbcbcb",
".S c #d1d1d1",
".T c #c8c8c8",
".U c #c1c1c1",
".V c #151515",
".W c #b5b5b5",
".X c #e7e7e7",
".Y c #ababab",
".Z c #9f9f9f",
".0 c #cdcdcd",
".1 c #c9c9c9",
".2 c #c5c5c5",
".3 c #dededd",
".4 c #f9f9f9",
".5 c #bbbbbb",
".6 c #afafaf",
".7 c #d2d2d2",
".8 c #cecece",
"#` c #cacaca",
"#. c #dadad9",
"## c #d6d6d4",
"#a c #1c1c1c",
"#b c #5a5a5a",
"#c c #565656",
"#d c #4f4f4f",
"#e c #494949",
"#f c #424242",
"#g c #3c3c3c",
"#h c #353535",
"#i c #2f2f2f",
"#j c #2d2d2d",
"#k c #6d6d6b",
"#l c #040404",
"#m c #e9e9e9",
"#n c #dbdbdb",
"#o c #5e5e5e",
"#p c #fafafa",
"#q c #272727",
"#r c #dddddd",
"#s c #5b5b5b",
"#t c #212121",
"#u c #dedede",
"#v c #dadada",
"#w c #d5d5d5",
"#x c #555555",
"#y c #1b1b1b",
"#z c #dfdfdf",
"#A c #d6d6d6",
"#B c #101010",
"#C c #434343",
"#D c #0a0a0a",
"#E c #3d3d3d",
"#F c #2b2b2a",
"#G c #3b3b3b",
"#H c #323231",
"#I c #252525",
"#J c #191919",
"#K c #131312",
"#L c #0d0d0d",
"#M c #0e0e0d",
"#N c #000000",
"#O c #000000",
"#P c #000000",
"#Q c #000000",
"#R c #000000",
"#S c #000000",
"#T c #000000",
"#U c #000000",
"#V c #000000",
"#W c #000000",
"#X c #000000",
"#Y c #000000",
"#Z c #000000",
"#0 c #000000",
"#1 c #000000",
"#2 c #000000",
"#3 c #000000",
"#4 c #000000",
"#5 c #000000",
"#6 c #000000",
"#7 c #000000",
"#8 c #000000",
"a` c #000000",
"a. c #000000",
"a# c #000000",
"aa c #000000",
"ab c #000000",
"ac c #000000",
"ad c #000000",
"ae c #000000",
"af c #000000",
"ag c #000000",
"ah c #000000",
"ai c #000000",
"aj c #000000",
"ak c #000000",
"al c #000000",
"am c #000000",
"an c #000000",
"ao c #000000",
"ap c #000000",
"aq c #000000",
"ar c #000000",
"as c #000000",
"at c #000000",
"au c #000000",
"av c #000000",
"aw c #000000",
"ax c #000000",
"ay c #000000",
"az c #000000",
"aA c #000000",
"aB c #000000",
"aC c #000000",
"aD c #000000",
"aE c #000000",
"aF c #000000",
"aG c #000000",
"aH c #000000",
"aI c #000000",
"aJ c #000000",
"aK c #000000",
"aL c #000000",
"aM c #000000",
"aN c #000000",
"aO c #000000",
"aP c #000000",
"aQ c #000000",
"aR c #000000",
"aS c #000000",
"aT c #000000",
"aU c #000000",
"aV c #000000",
"aW c #000000",
"aX c #000000",
"aY c #000000",
"aZ c #000000",
"a0 c #000000",
"a1 c #000000",
"a2 c #000000",
"a3 c #000000",
"a4 c #000000",
"a5 c #000000",
"a6 c #000000",
"a7 c #000000",
"a8 c #000000",
/* pixels */
"```.`.`.`.`.`.`.`.`.`.`.`.`.`.`#`a`b`b`b`b`b`b",
"`.`c`d`e`f`g`h`i`j`k`l`m`n`o`p`q`r`b`b`b`b`b`b",
"`.`s`e`t`g`h`u`j`v`l`w`x`o`y`z`q`r`b`b`b`b`b`b",
"`.`A`t`B`C`u`D`v`E`w`x`F`y`G`H`q`r`b`b`b`b`b`b",
"`.`I`B`C`J`D`K`E`L`M`F`N`G`O`P`q`r`b`b`b`b`b`b",
"`.`B`Q`J`R`K`S`L`M`T`N`U`O`V`W`q`r`b`b`b`b`b`b",
"`.`Q`X`R`Y`Z`0`1`1`1`1`1`1`1`1`2`1`3`3`3`3`4`b",
"`.`X`i`Y`k`0`5`6`6`6`7`8.`...#.a.b.c.d.e.f.g.h",
"`.`i`j`k.i`1`6.j.j.k.l.m.n.o.p.#.q.r.c.s.t.g.h",
"`.`j`v`l`m`1`6.j.k.u.v.w.x.y.z.A.b.c.d.e.f.g.h",
"`.`v`l`w`x`1`6.k.u.v`6.B.m.C.p.D.E.F.e.G.H.g.h",
"`.`E`w`M`F`1.m.I.J.K.B.L.M.N.O.P.Q.R.S.H.T.g.h",
"`.`L`M`T`N`1`6.U.V.W`5.M.X...Y.D.Z.S.0.1.2.g.h",
"`..3`T`N`U`1.w.4.5.V.6.#.q.Y.D.Z.7.8#`.2.U.g.h",
"`.`n#.`U##`1.x.w.`.W#a.F.d#b#b#c#d#e#f#g#h#i#j",
"#k`.`.`.`.#l.m.x.m#m#n.b.c#o#p.j.j.j.j.j.j.K#q",
"`b.h.h.h.h`1.M.m.C.N.O#r.F#s#p.j.j`3.g`6.j.K#t",
"`b`b`b`b`b`3.#.M.X.O#u#v#w#x.4.j.j`3.g`6.j.K#y",
"`b`b`b`b`b`3.a.X..#z#v#A.7#d.4`3.g.g.g.g.g`5.u",
"`b`b`b`b`b`3.b.q#z#n.s.7.8#e.4`3.g.g.g.g.g`5#B",
"`b`b`b`b`b`3#r.r.c.d.t.f#`#C.4.j.j`3.g`6.j`6#D",
"`b`b`b`b`b`3.e#A.S.0.1.2.U#E.4.j.j`3.g`6.j`6`1",
"`b`b`b`b`b#F`3`3`3`3`3`3`3#h`7.`.`.``5`5.L.#`1",
"`b`b`b`b`b`b.h.h.h.h.h.h.h#G#H`Z#I.l#J#K#L#M.V"
};
