/* XPM */
static char *file_export_xpm[] = {
/* width height num_colors chars_per_pixel */
"    16    16      256            2",
/* colors */
"`` c #757574",
"`. c #5f5f5f",
"`# c #5b5b5b",
"`a c #565656",
"`b c #515151",
"`c c #4d4d4d",
"`d c #484848",
"`e c #464645",
"`f c #9f9f9c",
"`g c #e8e8e4",
"`h c #606060",
"`i c #fffdf8",
"`j c #fdfbf6",
"`k c #fbf9f4",
"`l c #383838",
"`m c #3d3d3d",
"`n c #9b9b99",
"`o c #5d5d5d",
"`p c #fefcf7",
"`q c #f9f7f2",
"`r c #cfcfcf",
"`s c #363636",
"`t c #989896",
"`u c #595959",
"`v c #f7f5f0",
"`w c #ffffff",
"`x c #cdcdcd",
"`y c #303030",
"`z c #969693",
"`A c #555555",
"`B c #fcfaf5",
"`C c #f4f3ee",
"`D c #4f4f4e",
"`E c #323232",
"`F c #2b2b2b",
"`G c #252525",
"`H c #2c2c2c",
"`I c #525252",
"`J c #f5f3ee",
"`K c #f2f0eb",
"`L c #f0eee9",
"`M c #edece7",
"`N c #ebe9e4",
"`O c #c8c8c8",
"`P c #1e1e1e",
"`Q c #4e4e4e",
"`R c #faf8f3",
"`S c #f2f1ec",
"`T c #e9e7e2",
"`U c #1b1b1b",
"`V c #000000",
"`W c #4b4b4b",
"`X c #f3f1ec",
"`Y c #eeece7",
"`Z c #ebeae5",
"`0 c #e6e5e0",
"`1 c #171717",
"`2 c #474747",
"`3 c #f8f6f1",
"`4 c #f0efea",
"`5 c #434343",
"`6 c #f5f4ef",
"`7 c #f1efea",
"`8 c #eceae5",
".` c #e9e8e3",
".. c #e7e5e0",
".# c #e4e3de",
".a c #e2e1dc",
".b c #101010",
".c c #404040",
".d c #eeede8",
".e c #e7e6e1",
".f c #e5e3de",
".g c #e0ded9",
".h c #0c0c0c",
".i c #3c3c3c",
".j c #efede8",
".k c #eae8e3",
".l c #e0dfda",
".m c #dedcd7",
".n c #090909",
".o c #ecebe6",
".p c #e5e4df",
".q c #e3e1dc",
".r c #deddd8",
".s c #dbdad5",
".t c #050505",
".u c #353535",
".v c #edebe6",
".w c #eae9e4",
".x c #e8e6e1",
".y c #dcdad5",
".z c #d9d8d3",
".A c #010101",
".B c #313131",
".C c #454544",
".D c #292929",
".E c #242424",
".F c #202020",
".G c #161616",
".H c #111111",
".I c #0d0d0d",
".J c #080808",
".K c #040404",
".L c #000000",
".M c #000000",
".N c #000000",
".O c #000000",
".P c #000000",
".Q c #000000",
".R c #000000",
".S c #000000",
".T c #000000",
".U c #000000",
".V c #000000",
".W c #000000",
".X c #000000",
".Y c #000000",
".Z c #000000",
".0 c #000000",
".1 c #000000",
".2 c #000000",
".3 c #000000",
".4 c #000000",
".5 c #000000",
".6 c #000000",
".7 c #000000",
".8 c #000000",
"#` c #000000",
"#. c #000000",
"## c #000000",
"#a c #000000",
"#b c #000000",
"#c c #000000",
"#d c #000000",
"#e c #000000",
"#f c #000000",
"#g c #000000",
"#h c #000000",
"#i c #000000",
"#j c #000000",
"#k c #000000",
"#l c #000000",
"#m c #000000",
"#n c #000000",
"#o c #000000",
"#p c #000000",
"#q c #000000",
"#r c #000000",
"#s c #000000",
"#t c #000000",
"#u c #000000",
"#v c #000000",
"#w c #000000",
"#x c #000000",
"#y c #000000",
"#z c #000000",
"#A c #000000",
"#B c #000000",
"#C c #000000",
"#D c #000000",
"#E c #000000",
"#F c #000000",
"#G c #000000",
"#H c #000000",
"#I c #000000",
"#J c #000000",
"#K c #000000",
"#L c #000000",
"#M c #000000",
"#N c #000000",
"#O c #000000",
"#P c #000000",
"#Q c #000000",
"#R c #000000",
"#S c #000000",
"#T c #000000",
"#U c #000000",
"#V c #000000",
"#W c #000000",
"#X c #000000",
"#Y c #000000",
"#Z c #000000",
"#0 c #000000",
"#1 c #000000",
"#2 c #000000",
"#3 c #000000",
"#4 c #000000",
"#5 c #000000",
"#6 c #000000",
"#7 c #000000",
"#8 c #000000",
"a` c #000000",
"a. c #000000",
"a# c #000000",
"aa c #000000",
"ab c #000000",
"ac c #000000",
"ad c #000000",
"ae c #000000",
"af c #000000",
"ag c #000000",
"ah c #000000",
"ai c #000000",
"aj c #000000",
"ak c #000000",
"al c #000000",
"am c #000000",
"an c #000000",
"ao c #000000",
"ap c #000000",
"aq c #000000",
"ar c #000000",
"as c #000000",
"at c #000000",
"au c #000000",
"av c #000000",
"aw c #000000",
"ax c #000000",
"ay c #000000",
"az c #000000",
"aA c #000000",
"aB c #000000",
"aC c #000000",
"aD c #000000",
"aE c #000000",
"aF c #000000",
"aG c #000000",
"aH c #000000",
"aI c #000000",
"aJ c #000000",
"aK c #000000",
"aL c #000000",
"aM c #000000",
"aN c #000000",
"aO c #000000",
"aP c #000000",
"aQ c #000000",
"aR c #000000",
"aS c #000000",
"aT c #000000",
"aU c #000000",
"aV c #000000",
"aW c #000000",
"aX c #000000",
"aY c #000000",
"aZ c #000000",
"a0 c #000000",
"a1 c #000000",
"a2 c #000000",
"a3 c #000000",
"a4 c #000000",
"a5 c #000000",
"a6 c #000000",
"a7 c #000000",
"a8 c #000000",
/* pixels */
"```.`#`a`b`c`d`e`f`g`g`g`g`g`g`g",
"`h`i`i`i`i`j`k`l`m`n`g`g`g`g`g`g",
"`o`i`i`i`p`k`q`l`r`s`t`g`g`g`g`g",
"`u`i`i`p`k`q`v`l`w`x`y`z`g`g`g`g",
"`A`i`p`B`q`v`C`D`E`F`G`H`g`g`g`g",
"`I`p`B`q`v`J`K`L`M`N`O`P`g`g`g`g",
"`Q`B`R`v`J`S`L`M`N`T`O`U`g`V`g`g",
"`W`R`v`J`X`L`Y`Z`T`0`O`1`g`V`V`g",
"`2`3`J`X`4`Y`V`V`V`V`V`V`V`V`V`V",
"`5`6`X`7`Y`8.`...#.a`O.b`g`V`V`g",
".c`X`7.d`8.`.e.f.a.g`O.h`g`V`g`g",
".i`7.j`8.k.e.f.a.l.m`O.n`g`g`g`g",
"`l.j.o.k.e.p.q.l.r.s`O.t`g`g`g`g",
".u.v.w.x.p.q.l.r.y.z`O.A`g`g`g`g",
".B`O`O`O`O`O`O`O`O`O`O`V`g`g`g`g",
".C.D.E.F`U.G.H.I.J.K`V`U`g`g`g`g"
};
