/* XPM */
static char *fill_radial_xpm[] = {
/* width height num_colors chars_per_pixel */
"    20    20      256            2",
/* colors */
"`` c #1c1c1c",
"`. c #000000",
"`# c #98b6d3",
"`a c #99b6d3",
"`b c #9db9d5",
"`c c #9fbbd6",
"`d c #a1bcd7",
"`e c #a2bdd7",
"`f c #a0bbd6",
"`g c #99b7d3",
"`h c #9ab7d3",
"`i c #9cb9d5",
"`j c #a6bfd9",
"`k c #a9c2db",
"`l c #abc3db",
"`m c #abc3dc",
"`n c #a6c0d9",
"`o c #9ebad6",
"`p c #a4bed8",
"`q c #aac2db",
"`r c #aec6dd",
"`s c #b2c8df",
"`t c #b4cae0",
"`u c #b5cae0",
"`v c #afc6dd",
"`w c #a5bfd9",
"`x c #9ebad5",
"`y c #acc4dc",
"`z c #b7cce1",
"`A c #bbcee3",
"`B c #bed0e4",
"`C c #bed1e5",
"`D c #9bb8d4",
"`E c #a3bed8",
"`F c #b3c9df",
"`G c #bacde2",
"`H c #c0d2e5",
"`I c #c4d5e7",
"`J c #c7d7e9",
"`K c #c8d8e9",
"`L c #bacee3",
"`M c #9db9d4",
"`N c #a8c1da",
"`O c #b1c7de",
"`P c #b9cde2",
"`Q c #c1d2e6",
"`R c #cddbeb",
"`S c #d0dded",
"`T c #d2deee",
"`U c #a2bcd6",
"`V c #9ab7d4",
"`W c #adc4dc",
"`X c #b6cbe1",
"`Y c #bfd1e5",
"`Z c #cfdcec",
"`0 c #d5e1ef",
"`1 c #dbe5f1",
"`2 c #dde6f2",
"`3 c #a5bfd8",
"`4 c #b0c7de",
"`5 c #c3d4e7",
"`6 c #ccdaeb",
"`7 c #d5e0ef",
"`8 c #dee7f2",
".` c #e5ecf5",
".. c #e8eef6",
".# c #c2d4e7",
".a c #b0c6de",
".b c #a8c1d9",
".c c #bccfe3",
".d c #c5d6e8",
".e c #cfdded",
".f c #dae4f1",
".g c #eff3f9",
".h c #f3f7fa",
".i c #eef3f8",
".j c #e4ecf5",
".k c #d9e4f1",
".l c #c5d5e8",
".m c #b1c8df",
".n c #a9c2da",
".o c #a9c1da",
".p c #b3c8df",
".q c #bdcfe4",
".r c #c6d6e8",
".s c #dce5f2",
".t c #e7eef6",
".u c #f3f6fa",
".v c #fefefe",
".w c #f2f6fa",
".x c #e7edf6",
".y c #aac2da",
".z c #eef2f8",
".A c #e4ebf5",
".B c #d9e3f1",
".C c #dde7f2",
".D c #d4e0ef",
".E c #cbdaeb",
".F c #c2d3e6",
".G c #afc6de",
".H c #a7c0d9",
".I c #adc5dd",
".J c #dce6f2",
".K c #cedcec",
".L c #a5bed8",
".M c #c1d3e6",
".N c #c8d7e9",
".O c #d1deed",
".P c #b8cde2",
".Q c #a1bcd6",
".R c #c7d6e8",
".S c #a3bdd8",
".T c #9cb8d4",
".U c #bdd0e4",
".V c #b4c9e0",
".W c #aec5dd",
".X c #9dbad5",
".Y c #9fbad5",
".Z c #a4bed7",
".0 c #a8c0d9",
".1 c #acc4db",
".2 c #a3bdd7",
".3 c #9eb9d4",
".4 c #000000",
".5 c #000000",
".6 c #000000",
".7 c #000000",
".8 c #000000",
"#` c #000000",
"#. c #000000",
"## c #000000",
"#a c #000000",
"#b c #000000",
"#c c #000000",
"#d c #000000",
"#e c #000000",
"#f c #000000",
"#g c #000000",
"#h c #000000",
"#i c #000000",
"#j c #000000",
"#k c #000000",
"#l c #000000",
"#m c #000000",
"#n c #000000",
"#o c #000000",
"#p c #000000",
"#q c #000000",
"#r c #000000",
"#s c #000000",
"#t c #000000",
"#u c #000000",
"#v c #000000",
"#w c #000000",
"#x c #000000",
"#y c #000000",
"#z c #000000",
"#A c #000000",
"#B c #000000",
"#C c #000000",
"#D c #000000",
"#E c #000000",
"#F c #000000",
"#G c #000000",
"#H c #000000",
"#I c #000000",
"#J c #000000",
"#K c #000000",
"#L c #000000",
"#M c #000000",
"#N c #000000",
"#O c #000000",
"#P c #000000",
"#Q c #000000",
"#R c #000000",
"#S c #000000",
"#T c #000000",
"#U c #000000",
"#V c #000000",
"#W c #000000",
"#X c #000000",
"#Y c #000000",
"#Z c #000000",
"#0 c #000000",
"#1 c #000000",
"#2 c #000000",
"#3 c #000000",
"#4 c #000000",
"#5 c #000000",
"#6 c #000000",
"#7 c #000000",
"#8 c #000000",
"a` c #000000",
"a. c #000000",
"a# c #000000",
"aa c #000000",
"ab c #000000",
"ac c #000000",
"ad c #000000",
"ae c #000000",
"af c #000000",
"ag c #000000",
"ah c #000000",
"ai c #000000",
"aj c #000000",
"ak c #000000",
"al c #000000",
"am c #000000",
"an c #000000",
"ao c #000000",
"ap c #000000",
"aq c #000000",
"ar c #000000",
"as c #000000",
"at c #000000",
"au c #000000",
"av c #000000",
"aw c #000000",
"ax c #000000",
"ay c #000000",
"az c #000000",
"aA c #000000",
"aB c #000000",
"aC c #000000",
"aD c #000000",
"aE c #000000",
"aF c #000000",
"aG c #000000",
"aH c #000000",
"aI c #000000",
"aJ c #000000",
"aK c #000000",
"aL c #000000",
"aM c #000000",
"aN c #000000",
"aO c #000000",
"aP c #000000",
"aQ c #000000",
"aR c #000000",
"aS c #000000",
"aT c #000000",
"aU c #000000",
"aV c #000000",
"aW c #000000",
"aX c #000000",
"aY c #000000",
"aZ c #000000",
"a0 c #000000",
"a1 c #000000",
"a2 c #000000",
"a3 c #000000",
"a4 c #000000",
"a5 c #000000",
"a6 c #000000",
"a7 c #000000",
"a8 c #000000",
/* pixels */
"```.`.`.`.`.`.`.`.`.`.`.`.`.`.`.`.`.`.``",
"`.`#`#`#`#`#`a`b`c`d`e`d`f`b`g`#`#`#`h`.",
"`.`#`#`#`#`i`d`j`k`l`m`l`k`n`e`b`#`#`h`.",
"`.`#`#`#`o`p`q`r`s`t`u`t`s`v`q`w`o`#`h`.",
"`.`#`#`x`w`y`s`z`A`B`C`B`A`z`s`y`w`x`h`.",
"`.`#`D`E`m`F`G`H`I`J`K`J`I`H`L`F`m`E`M`.",
"`.`#`f`N`O`P`Q`J`R`S`T`S`R`J`Q`P`O`N`U`.",
"`.`V`E`W`X`Y`J`Z`0`1`2`1`0`Z`J`C`X`W`3`.",
"`.`b`n`4`P`5`6`7`8.`...``8`7`6.#`P.a.b`.",
"`.`o`N`s.c.d.e.f.`.g.h.i.j.k`Z.l`A.m.n`.",
"`.`c.o.p.q.r`S.s.t.u.v.w.x`1`S.r.c`s.y`.",
"`.`o`N`s.c.r.e.f.`.i.u.z.A.B`Z.l`A`O.n`.",
"`.`b`n`4`G`5`6`0`8.`...`.C.D.E.F`P.G.H`.",
"`.`V`p.I`X`Y`J`Z`0`1.J.f`7.K.r`B`u`y.L`.",
"`.`#`f`k.m`P.M.N`R`S.O`S`6`J`H.P`4`N.Q`.",
"`.`#`D`p`y`F`L`H`I`J.N.R`5`Y`P`s`l.S.T`.",
"`.`#`#`o`w`y`s`z`A.U`C.U`A`X.m`m`p`b`h`.",
"`.`#`#`#`o`w`q`v`s.V`u.V.m.W`k`p.X`#`h`.",
"`.`h`h`h`h.Y.Z.0`l.1`W.1.y.H.2.3`h`h`M`.",
"```.`.`.`.`.`.`.`.`.`.`.`.`.`.`.`.`.`.``"
};
