/* XPM */
static char *fill_gradient_xpm[] = {
/* width height num_colors chars_per_pixel */
"    20    20      256            2",
/* colors */
"`` c #1c1c1c",
"`. c #000000",
"`# c #bacee3",
"`a c #bed1e5",
"`b c #c2d4e7",
"`c c #c7d6e8",
"`d c #cbd9ea",
"`e c #cfdcec",
"`f c #d3dfee",
"`g c #d7e2f0",
"`h c #dce6f2",
"`i c #e1e9f4",
"`j c #e6edf5",
"`k c #ebf0f7",
"`l c #f0f4f9",
"`m c #f4f7fb",
"`n c #f9fbfd",
"`o c #fefefe",
"`p c #ffffff",
"`q c #b8cce2",
"`r c #bccfe3",
"`s c #c0d2e5",
"`t c #c4d5e7",
"`u c #c8d8e9",
"`v c #ccdaeb",
"`w c #d0dded",
"`x c #d5e0ef",
"`y c #d9e4f1",
"`z c #dee7f2",
"`A c #e3ebf4",
"`B c #e8eef6",
"`C c #edf2f8",
"`D c #f1f5fa",
"`E c #f6f9fb",
"`F c #fbfcfd",
"`G c #b5cae0",
"`H c #b9cde2",
"`I c #bdd0e4",
"`J c #c2d3e6",
"`K c #c6d6e8",
"`L c #cad9ea",
"`M c #cedbec",
"`N c #d2deee",
"`O c #d6e2f0",
"`P c #dbe5f1",
"`Q c #e0e8f3",
"`R c #e5ecf5",
"`S c #eaeff7",
"`T c #eef3f9",
"`U c #f3f6fa",
"`V c #f8fafc",
"`W c #fdfdfe",
"`X c #b3c9df",
"`Y c #b7cbe1",
"`Z c #bbcee3",
"`0 c #bfd1e5",
"`1 c #c3d4e7",
"`2 c #c7d7e9",
"`3 c #cbdaeb",
"`4 c #cfdded",
"`5 c #d8e3f0",
"`6 c #dde6f2",
"`7 c #e2eaf4",
"`8 c #e7edf6",
".` c #ebf1f7",
".. c #f5f8fb",
".# c #fafbfd",
".a c #b0c7de",
".b c #b4cae0",
".c c #b8cde2",
".d c #bccfe4",
".e c #c1d2e6",
".f c #c5d5e8",
".g c #c9d8e9",
".h c #cddbeb",
".i c #d1deed",
".j c #d5e1ef",
".k c #dae4f1",
".l c #dfe8f3",
".m c #e4ebf5",
".n c #e8eff6",
".o c #f2f6fa",
".p c #f7f9fc",
".q c #aec5dd",
".r c #b2c8df",
".s c #b6cbe1",
".t c #bed0e4",
".u c #cedcec",
".v c #d2dfee",
".w c #e1e9f3",
".x c #eaf0f7",
".y c #eff3f9",
".z c #f9fafb",
".A c #abc3dc",
".B c #afc6de",
".C c #b3c9e0",
".D c #b7cce1",
".E c #bbcfe3",
".F c #c4d4e7",
".G c #c8d7e9",
".H c #d4e0ef",
".I c #d9e3f0",
".J c #e3eaf4",
".K c #e7eef6",
".L c #ecf1f8",
".M c #f1f5f9",
".N c #f6f8fa",
".O c #a9c2db",
".P c #adc4dc",
".Q c #b1c7de",
".R c #c1d3e6",
".S c #c9d8ea",
".T c #cddbec",
".U c #d1deee",
".V c #d6e1ef",
".W c #e4ecf5",
".X c #e9eff7",
".Y c #eef3f8",
".Z c #f3f6f9",
".0 c #a6c0d9",
".1 c #aac3db",
".2 c #e1eaf4",
".3 c #f0f4f8",
".4 c #a4bed8",
".5 c #a8c1da",
".6 c #acc4dc",
".7 c #b4c9e0",
".8 c #ccdbeb",
"#` c #dee7f3",
"#. c #edf2f7",
"## c #a1bcd7",
"#a c #a5bfd9",
"#b c #adc5dd",
"#c c #b1c8df",
"#d c #bacde2",
"#e c #e0e9f3",
"#f c #eaf0f6",
"#g c #9fbad6",
"#h c #a3bdd8",
"#i c #a7c0da",
"#j c #afc6dd",
"#k c #dde7f2",
"#l c #9cb9d5",
"#m c #a0bcd7",
"#n c #9ab7d3",
"#o c #9ebad5",
"#p c #a2bdd7",
"#q c #aac2db",
"#r c #98b6d3",
"#s c #9bb8d4",
"#t c #9fbbd6",
"#u c #a3bed8",
"#v c #a7c1da",
"#w c #b0c6de",
"#x c #99b6d3",
"#y c #9db9d5",
"#z c #c5d6e8",
"#A c #9ab7d4",
"#B c #9ebad6",
"#C c #a2bdd8",
"#D c #abc3db",
"#E c #b3c8df",
"#F c #9cb8d4",
"#G c #a0bbd6",
"#H c #c0d2e6",
"#I c #000000",
"#J c #000000",
"#K c #000000",
"#L c #000000",
"#M c #000000",
"#N c #000000",
"#O c #000000",
"#P c #000000",
"#Q c #000000",
"#R c #000000",
"#S c #000000",
"#T c #000000",
"#U c #000000",
"#V c #000000",
"#W c #000000",
"#X c #000000",
"#Y c #000000",
"#Z c #000000",
"#0 c #000000",
"#1 c #000000",
"#2 c #000000",
"#3 c #000000",
"#4 c #000000",
"#5 c #000000",
"#6 c #000000",
"#7 c #000000",
"#8 c #000000",
"a` c #000000",
"a. c #000000",
"a# c #000000",
"aa c #000000",
"ab c #000000",
"ac c #000000",
"ad c #000000",
"ae c #000000",
"af c #000000",
"ag c #000000",
"ah c #000000",
"ai c #000000",
"aj c #000000",
"ak c #000000",
"al c #000000",
"am c #000000",
"an c #000000",
"ao c #000000",
"ap c #000000",
"aq c #000000",
"ar c #000000",
"as c #000000",
"at c #000000",
"au c #000000",
"av c #000000",
"aw c #000000",
"ax c #000000",
"ay c #000000",
"az c #000000",
"aA c #000000",
"aB c #000000",
"aC c #000000",
"aD c #000000",
"aE c #000000",
"aF c #000000",
"aG c #000000",
"aH c #000000",
"aI c #000000",
"aJ c #000000",
"aK c #000000",
"aL c #000000",
"aM c #000000",
"aN c #000000",
"aO c #000000",
"aP c #000000",
"aQ c #000000",
"aR c #000000",
"aS c #000000",
"aT c #000000",
"aU c #000000",
"aV c #000000",
"aW c #000000",
"aX c #000000",
"aY c #000000",
"aZ c #000000",
"a0 c #000000",
"a1 c #000000",
"a2 c #000000",
"a3 c #000000",
"a4 c #000000",
"a5 c #000000",
"a6 c #000000",
"a7 c #000000",
"a8 c #000000",
/* pixels */
"```.`.`.`.`.`.`.`.`.`.`.`.`.`.`.`.`.`.``",
"`.`#`a`b`c`d`e`f`g`h`i`j`k`l`m`n`o`p`o`.",
"`.`q`r`s`t`u`v`w`x`y`z`A`B`C`D`E`F`p`o`.",
"`.`G`H`I`J`K`L`M`N`O`P`Q`R`S`T`U`V`W`o`.",
"`.`X`Y`Z`0`1`2`3`4`f`5`6`7`8.``l...#`o`.",
"`..a.b.c.d.e.f.g.h.i.j.k.l.m.n`C.o.p`F`.",
"`..q.r.s`#.t`J`K`L.u.v`g`h.w`j.x.y`m.z`.",
"`..A.B.C.D.E`s.F.G`v`w.H.I`z.J.K.L.M.N`.",
"`..O.P.Q`G`H`I.R.f.S.T.U.V`P`Q.W.X.Y.Z`.",
"`..0.1.q.r.s`Z`0`1`2`d`e`f`5`6.2`j`k.3`.",
"`..4.5.6.a.7`q.d`s`t`u.8`w`x.k#``A`B#.`.",
"`.###a.O#b#c.s#d.t`J`K`L.u.v`g`P#e`R#f`.",
"`.#g#h#i.A#j`X.D`Z`0`1`2`3`w.H.I#k`7.K`.",
"`.#l#m.4.5.6.a`G`H`I.e.f.S.h.i.V.k.l.m`.",
"`.#n#o#p.0#q.q.r.s`#`a`b`K`d`e`f`g`h`i`.",
"`.#r#s#t#u#v.A#w.7`q`r`s`t.G`v`w.H`y`z`.",
"`.#r#x#y###a.O#b.Q`G`H`I.R#z`L`M`N.V`P`.",
"`.#r#r#A#B#C.0#D#j#E`Y`Z`0`1`2`3`e`f`5`.",
"`.#r#r#r#F#G.4.5.6.a.b`q.d#H.f.g.h.i.V`.",
"```.`.`.`.`.`.`.`.`.`.`.`.`.`.`.`.`.`.``"
};
