/* XPM */
static char *flow_into_frame_xpm[] = {
/* width height num_colors chars_per_pixel */
"    16    16      256            2",
/* colors */
"`` c #1d1d1c",
"`. c #000000",
"`# c #1c1c1c",
"`a c #fffdf8",
"`b c #fcfbf6",
"`c c #f9f7f2",
"`d c #f6f4ef",
"`e c #f2f0eb",
"`f c #fdfbf6",
"`g c #faf8f3",
"`h c #f6f5f0",
"`i c #f3f1ec",
"`j c #efeee9",
"`k c #1f1f1e",
"`l c #dfddd9",
"`m c #fbf9f4",
"`n c #f7f5f0",
"`o c #f4f2ed",
"`p c #f0efea",
"`q c #edebe6",
"`r c #fcfaf5",
"`s c #f8f6f1",
"`t c #f5f3ee",
"`u c #f1efea",
"`v c #eeece7",
"`w c #eae9e4",
"`x c #0c0c0c",
"`y c #efede8",
"`z c #ebe9e4",
"`A c #e8e6e1",
"`B c #1d1d1d",
"`C c #eceae5",
"`D c #e9e7e2",
"`E c #e5e4df",
"`F c #2e2e2e",
"`G c #e9e8e3",
"`H c #e6e4df",
"`I c #e2e1dc",
"`J c #3f3f3f",
"`K c #d9d7d3",
"`L c #e7e5e0",
"`M c #e3e2dd",
"`N c #e0ded9",
"`O c #383838",
"`P c #060606",
"`Q c #1e1e1d",
"`R c #e4e3de",
"`S c #e1dfda",
"`T c #dddcd7",
"`U c #e2e0db",
"`V c #deddd8",
"`W c #dbd9d4",
"`X c #fefcf7",
"`Y c #d8d7d2",
"`Z c #d9d8d3",
"`0 c #d5d4cf",
"`1 c #dad8d3",
"`2 c #d6d5d0",
"`3 c #d3d2cd",
"`4 c #d7d6d1",
"`5 c #d4d2cd",
"`6 c #d0cfca",
"`7 c #1b1b1b",
"`8 c #000000",
".` c #000000",
".. c #000000",
".# c #000000",
".a c #000000",
".b c #000000",
".c c #000000",
".d c #000000",
".e c #000000",
".f c #000000",
".g c #000000",
".h c #000000",
".i c #000000",
".j c #000000",
".k c #000000",
".l c #000000",
".m c #000000",
".n c #000000",
".o c #000000",
".p c #000000",
".q c #000000",
".r c #000000",
".s c #000000",
".t c #000000",
".u c #000000",
".v c #000000",
".w c #000000",
".x c #000000",
".y c #000000",
".z c #000000",
".A c #000000",
".B c #000000",
".C c #000000",
".D c #000000",
".E c #000000",
".F c #000000",
".G c #000000",
".H c #000000",
".I c #000000",
".J c #000000",
".K c #000000",
".L c #000000",
".M c #000000",
".N c #000000",
".O c #000000",
".P c #000000",
".Q c #000000",
".R c #000000",
".S c #000000",
".T c #000000",
".U c #000000",
".V c #000000",
".W c #000000",
".X c #000000",
".Y c #000000",
".Z c #000000",
".0 c #000000",
".1 c #000000",
".2 c #000000",
".3 c #000000",
".4 c #000000",
".5 c #000000",
".6 c #000000",
".7 c #000000",
".8 c #000000",
"#` c #000000",
"#. c #000000",
"## c #000000",
"#a c #000000",
"#b c #000000",
"#c c #000000",
"#d c #000000",
"#e c #000000",
"#f c #000000",
"#g c #000000",
"#h c #000000",
"#i c #000000",
"#j c #000000",
"#k c #000000",
"#l c #000000",
"#m c #000000",
"#n c #000000",
"#o c #000000",
"#p c #000000",
"#q c #000000",
"#r c #000000",
"#s c #000000",
"#t c #000000",
"#u c #000000",
"#v c #000000",
"#w c #000000",
"#x c #000000",
"#y c #000000",
"#z c #000000",
"#A c #000000",
"#B c #000000",
"#C c #000000",
"#D c #000000",
"#E c #000000",
"#F c #000000",
"#G c #000000",
"#H c #000000",
"#I c #000000",
"#J c #000000",
"#K c #000000",
"#L c #000000",
"#M c #000000",
"#N c #000000",
"#O c #000000",
"#P c #000000",
"#Q c #000000",
"#R c #000000",
"#S c #000000",
"#T c #000000",
"#U c #000000",
"#V c #000000",
"#W c #000000",
"#X c #000000",
"#Y c #000000",
"#Z c #000000",
"#0 c #000000",
"#1 c #000000",
"#2 c #000000",
"#3 c #000000",
"#4 c #000000",
"#5 c #000000",
"#6 c #000000",
"#7 c #000000",
"#8 c #000000",
"a` c #000000",
"a. c #000000",
"a# c #000000",
"aa c #000000",
"ab c #000000",
"ac c #000000",
"ad c #000000",
"ae c #000000",
"af c #000000",
"ag c #000000",
"ah c #000000",
"ai c #000000",
"aj c #000000",
"ak c #000000",
"al c #000000",
"am c #000000",
"an c #000000",
"ao c #000000",
"ap c #000000",
"aq c #000000",
"ar c #000000",
"as c #000000",
"at c #000000",
"au c #000000",
"av c #000000",
"aw c #000000",
"ax c #000000",
"ay c #000000",
"az c #000000",
"aA c #000000",
"aB c #000000",
"aC c #000000",
"aD c #000000",
"aE c #000000",
"aF c #000000",
"aG c #000000",
"aH c #000000",
"aI c #000000",
"aJ c #000000",
"aK c #000000",
"aL c #000000",
"aM c #000000",
"aN c #000000",
"aO c #000000",
"aP c #000000",
"aQ c #000000",
"aR c #000000",
"aS c #000000",
"aT c #000000",
"aU c #000000",
"aV c #000000",
"aW c #000000",
"aX c #000000",
"aY c #000000",
"aZ c #000000",
"a0 c #000000",
"a1 c #000000",
"a2 c #000000",
"a3 c #000000",
"a4 c #000000",
"a5 c #000000",
"a6 c #000000",
"a7 c #000000",
"a8 c #000000",
/* pixels */
"```.`.`.`.`.`.`.`.`.`.`.`.`.`.`#",
"`.`a`a`a`a`a`a`a`a`a`a`b`c`d`e`.",
"`.`a`.`.`.`.`.`.`.`.`f`g`h`i`j`.",
"`.`a`k`l`a`.`.`a`l`k`m`n`o`p`q`.",
"`.`a`a`a`a`.`.`a`a`r`s`t`u`v`w`.",
"`.`a`a`a`a`x`.`a`b`c`d`e`y`z`A`.",
"`.`a`a`a`a`B`.`f`g`h`i`j`C`D`E`.",
"`.`a`a`a`a`F`.`m`n`o`p`q`G`H`I`.",
"`.`a`a`a`l`J`.`K`t`u`v`.`L`M`N`.",
"`.`a`a`a`k`O`P`Q`e`y`z`.`R`S`T`.",
"`.`a`a`a`f`g`h`i`j`C`D`.`U`V`W`.",
"`.`a`a`X`m`n`o`p`q`.`.`.`.`.`Y`.",
"`.`a`a`r`s`t`u`v`w`L`.`.`.`Z`0`.",
"`.`a`b`c`d`e`y`z`A`R`S`.`1`2`3`.",
"`.`f`g`h`i`j`C`D`E`U`V`W`4`5`6`.",
"```.`.`.`.`.`.`.`.`.`.`.`.`.`.`7"
};
