/* XPM */
static char *fullscreen_xpm[] = {
/* width height num_colors chars_per_pixel */
"    15    16      256            2",
/* colors */
"`` c #e8e8e4",
"`. c #000000",
"`# c #e5e5e1",
"`a c #222221",
"`b c #070707",
"`c c #060707",
"`d c #060607",
"`e c #1e1f1f",
"`f c #e1e1dd",
"`g c #e0e7ec",
"`h c #cdd9e5",
"`i c #bbccdd",
"`j c #a8bfd5",
"`k c #95b1cd",
"`l c #93b0cc",
"`m c #050606",
"`n c #0c0c0c",
"`o c #030303",
"`p c #020303",
"`q c #020203",
"`r c #08090a",
"`s c #fffdf8",
"`t c #fefcf7",
"`u c #f9f7f2",
"`v c #f4f3ee",
"`w c #efeee9",
"`x c #ebe9e4",
"`y c #e6e4df",
"`z c #060606",
"`A c #fbf9f4",
"`B c #f6f4ef",
"`C c #f1efea",
"`D c #ecebe6",
"`E c #e7e6e1",
"`F c #e2e1dc",
"`G c #fcfaf5",
"`H c #f8f6f1",
"`I c #f3f1ec",
"`J c #eeece7",
"`K c #e9e7e2",
"`L c #e4e3de",
"`M c #dfded9",
"`N c #f4f2ed",
"`O c #e1dfda",
"`P c #dcdbd6",
"`Q c #eeece8",
"`R c #e9e8e3",
"`S c #e5e4df",
"`T c #e0dfda",
"`U c #dbdad5",
"`V c #d7d5d0",
"`W c #d2d0cb",
"`X c #222220",
"`Y c #20201f",
"`Z c #000000",
"`0 c #000000",
"`1 c #000000",
"`2 c #000000",
"`3 c #000000",
"`4 c #000000",
"`5 c #000000",
"`6 c #000000",
"`7 c #000000",
"`8 c #000000",
".` c #000000",
".. c #000000",
".# c #000000",
".a c #000000",
".b c #000000",
".c c #000000",
".d c #000000",
".e c #000000",
".f c #000000",
".g c #000000",
".h c #000000",
".i c #000000",
".j c #000000",
".k c #000000",
".l c #000000",
".m c #000000",
".n c #000000",
".o c #000000",
".p c #000000",
".q c #000000",
".r c #000000",
".s c #000000",
".t c #000000",
".u c #000000",
".v c #000000",
".w c #000000",
".x c #000000",
".y c #000000",
".z c #000000",
".A c #000000",
".B c #000000",
".C c #000000",
".D c #000000",
".E c #000000",
".F c #000000",
".G c #000000",
".H c #000000",
".I c #000000",
".J c #000000",
".K c #000000",
".L c #000000",
".M c #000000",
".N c #000000",
".O c #000000",
".P c #000000",
".Q c #000000",
".R c #000000",
".S c #000000",
".T c #000000",
".U c #000000",
".V c #000000",
".W c #000000",
".X c #000000",
".Y c #000000",
".Z c #000000",
".0 c #000000",
".1 c #000000",
".2 c #000000",
".3 c #000000",
".4 c #000000",
".5 c #000000",
".6 c #000000",
".7 c #000000",
".8 c #000000",
"#` c #000000",
"#. c #000000",
"## c #000000",
"#a c #000000",
"#b c #000000",
"#c c #000000",
"#d c #000000",
"#e c #000000",
"#f c #000000",
"#g c #000000",
"#h c #000000",
"#i c #000000",
"#j c #000000",
"#k c #000000",
"#l c #000000",
"#m c #000000",
"#n c #000000",
"#o c #000000",
"#p c #000000",
"#q c #000000",
"#r c #000000",
"#s c #000000",
"#t c #000000",
"#u c #000000",
"#v c #000000",
"#w c #000000",
"#x c #000000",
"#y c #000000",
"#z c #000000",
"#A c #000000",
"#B c #000000",
"#C c #000000",
"#D c #000000",
"#E c #000000",
"#F c #000000",
"#G c #000000",
"#H c #000000",
"#I c #000000",
"#J c #000000",
"#K c #000000",
"#L c #000000",
"#M c #000000",
"#N c #000000",
"#O c #000000",
"#P c #000000",
"#Q c #000000",
"#R c #000000",
"#S c #000000",
"#T c #000000",
"#U c #000000",
"#V c #000000",
"#W c #000000",
"#X c #000000",
"#Y c #000000",
"#Z c #000000",
"#0 c #000000",
"#1 c #000000",
"#2 c #000000",
"#3 c #000000",
"#4 c #000000",
"#5 c #000000",
"#6 c #000000",
"#7 c #000000",
"#8 c #000000",
"a` c #000000",
"a. c #000000",
"a# c #000000",
"aa c #000000",
"ab c #000000",
"ac c #000000",
"ad c #000000",
"ae c #000000",
"af c #000000",
"ag c #000000",
"ah c #000000",
"ai c #000000",
"aj c #000000",
"ak c #000000",
"al c #000000",
"am c #000000",
"an c #000000",
"ao c #000000",
"ap c #000000",
"aq c #000000",
"ar c #000000",
"as c #000000",
"at c #000000",
"au c #000000",
"av c #000000",
"aw c #000000",
"ax c #000000",
"ay c #000000",
"az c #000000",
"aA c #000000",
"aB c #000000",
"aC c #000000",
"aD c #000000",
"aE c #000000",
"aF c #000000",
"aG c #000000",
"aH c #000000",
"aI c #000000",
"aJ c #000000",
"aK c #000000",
"aL c #000000",
"aM c #000000",
"aN c #000000",
"aO c #000000",
"aP c #000000",
"aQ c #000000",
"aR c #000000",
"aS c #000000",
"aT c #000000",
"aU c #000000",
"aV c #000000",
"aW c #000000",
"aX c #000000",
"aY c #000000",
"aZ c #000000",
"a0 c #000000",
"a1 c #000000",
"a2 c #000000",
"a3 c #000000",
"a4 c #000000",
"a5 c #000000",
"a6 c #000000",
"a7 c #000000",
"a8 c #000000",
/* pixels */
"```````````````.``````````````",
"`````````````.`.`.````````````",
"``````````````````````````````",
"`````#`a`b`b`c`c`d`d`d`e`#````",
"`````f`b`g`h`i`j`k`l`l`m`f````",
"`````f`b`g`h`i`j`k`l`l`m`f````",
"```.`f`n`o`o`p`p`q`q`q`r`f`.``",
"`.`.`f`b`s`t`u`v`w`x`y`z`f`.`.",
"```.`f`b`s`A`B`C`D`E`F`z`f`.``",
"`````f`b`G`H`I`J`K`L`M`z`f````",
"`````f`b`u`N`w`x`y`O`P`z`f````",
"`````f`b`Q`R`S`T`U`V`W`z`f````",
"`````#`X`b`b`b`b`b`b`b`Y`#````",
"``````````````````````````````",
"`````````````.`.`.````````````",
"```````````````.``````````````"
};
