/* XPM */
static char *graph_layout_xpm[] = {
/* width height num_colors chars_per_pixel */
"    30    20      256            2",
/* colors */
"`` c #e8e8e4",
"`. c #b1b4e8",
"`# c #838de8",
"`a c #858de9",
"`b c #b7b9e8",
"`c c #e7e7e4",
"`d c #848de8",
"`e c #b1c6d9",
"`f c #d7d7d5",
"`g c #7a84df",
"`h c #838ce8",
"`i c #e6e6e4",
"`j c #828ce7",
"`k c #a5a5a2",
"`l c #30302f",
"`m c #878ac5",
"`n c #838de7",
"`o c #54578e",
"`p c #bcbcb9",
"`q c #aeaeab",
"`r c #6063a0",
"`s c #b1b3e8",
"`t c #dbdbd7",
"`u c #595958",
"`v c #525250",
"`w c #d9d9d5",
"`x c #c8c8c5",
"`y c #2c2c2b",
"`z c #d2d2cf",
"`A c #afafac",
"`B c #313130",
"`C c #d5d5d1",
"`D c #525593",
"`E c #9c9c99",
"`F c #b0b0ad",
"`G c #373736",
"`H c #e1e1dd",
"`I c #b1b1ae",
"`J c #d4d4d0",
"`K c #8f8f8c",
"`L c #4f4f4e",
"`M c #e6e6e3",
"`N c #b2b4e8",
"`O c #747dd9",
"`P c #a7a8d8",
"`Q c #7577ae",
"`R c #818be5",
"`S c #aaade8",
"`T c #e6e6e2",
"`U c #d0d0cd",
"`V c #b7b7b4",
"`W c #9d9d9c",
"`X c #b0c5da",
"`Y c #848de9",
"`Z c #818ae5",
"`0 c #7b84e0",
"`1 c #838ce9",
"`2 c #717cd7",
"`3 c #343435",
"`4 c #4c4c4a",
"`5 c #676765",
"`6 c #818181",
"`7 c #818ce7",
"`8 c #bdbdba",
".` c #636361",
".. c #7882dd",
".# c #abade2",
".a c #4c4c4b",
".b c #adaede",
".c c #7780db",
".d c #949493",
".e c #626261",
".f c #e7e7e3",
".g c #3a3a39",
".h c #7e7e7b",
".i c #8c8c8a",
".j c #50504f",
".k c #a6a6a3",
".l c #383837",
".m c #e5e5e1",
".n c #2d2d2d",
".o c #e0e0dc",
".p c #2f2f2e",
".q c #9a9a97",
".r c #6f6f6d",
".s c #ababa8",
".t c #494948",
".u c #484847",
".v c #d9d9d6",
".w c #393938",
".x c #787bb1",
".y c #818be6",
".z c #7d85e1",
".A c #b6b6b5",
".B c #535351",
".C c #7984de",
".D c #9598d4",
".E c #7f87e4",
".F c #2a2a29",
".G c #333332",
".H c #444443",
".I c #7b85e1",
".J c #aaade9",
".K c #cfcfcb",
".L c #000000",
".M c #000000",
".N c #000000",
".O c #000000",
".P c #000000",
".Q c #000000",
".R c #000000",
".S c #000000",
".T c #000000",
".U c #000000",
".V c #000000",
".W c #000000",
".X c #000000",
".Y c #000000",
".Z c #000000",
".0 c #000000",
".1 c #000000",
".2 c #000000",
".3 c #000000",
".4 c #000000",
".5 c #000000",
".6 c #000000",
".7 c #000000",
".8 c #000000",
"#` c #000000",
"#. c #000000",
"## c #000000",
"#a c #000000",
"#b c #000000",
"#c c #000000",
"#d c #000000",
"#e c #000000",
"#f c #000000",
"#g c #000000",
"#h c #000000",
"#i c #000000",
"#j c #000000",
"#k c #000000",
"#l c #000000",
"#m c #000000",
"#n c #000000",
"#o c #000000",
"#p c #000000",
"#q c #000000",
"#r c #000000",
"#s c #000000",
"#t c #000000",
"#u c #000000",
"#v c #000000",
"#w c #000000",
"#x c #000000",
"#y c #000000",
"#z c #000000",
"#A c #000000",
"#B c #000000",
"#C c #000000",
"#D c #000000",
"#E c #000000",
"#F c #000000",
"#G c #000000",
"#H c #000000",
"#I c #000000",
"#J c #000000",
"#K c #000000",
"#L c #000000",
"#M c #000000",
"#N c #000000",
"#O c #000000",
"#P c #000000",
"#Q c #000000",
"#R c #000000",
"#S c #000000",
"#T c #000000",
"#U c #000000",
"#V c #000000",
"#W c #000000",
"#X c #000000",
"#Y c #000000",
"#Z c #000000",
"#0 c #000000",
"#1 c #000000",
"#2 c #000000",
"#3 c #000000",
"#4 c #000000",
"#5 c #000000",
"#6 c #000000",
"#7 c #000000",
"#8 c #000000",
"a` c #000000",
"a. c #000000",
"a# c #000000",
"aa c #000000",
"ab c #000000",
"ac c #000000",
"ad c #000000",
"ae c #000000",
"af c #000000",
"ag c #000000",
"ah c #000000",
"ai c #000000",
"aj c #000000",
"ak c #000000",
"al c #000000",
"am c #000000",
"an c #000000",
"ao c #000000",
"ap c #000000",
"aq c #000000",
"ar c #000000",
"as c #000000",
"at c #000000",
"au c #000000",
"av c #000000",
"aw c #000000",
"ax c #000000",
"ay c #000000",
"az c #000000",
"aA c #000000",
"aB c #000000",
"aC c #000000",
"aD c #000000",
"aE c #000000",
"aF c #000000",
"aG c #000000",
"aH c #000000",
"aI c #000000",
"aJ c #000000",
"aK c #000000",
"aL c #000000",
"aM c #000000",
"aN c #000000",
"aO c #000000",
"aP c #000000",
"aQ c #000000",
"aR c #000000",
"aS c #000000",
"aT c #000000",
"aU c #000000",
"aV c #000000",
"aW c #000000",
"aX c #000000",
"aY c #000000",
"aZ c #000000",
"a0 c #000000",
"a1 c #000000",
"a2 c #000000",
"a3 c #000000",
"a4 c #000000",
"a5 c #000000",
"a6 c #000000",
"a7 c #000000",
"a8 c #000000",
/* pixels */
"```````````````.`#`a`b```````````````````````````````.`#`a`b",
"`````````````c`d`e`e`a`````````````````````````````c`d`e`e`a",
"`````````````f`g`e`e`h`````````````````````````````i`j`e`e`h",
"```````````k`l`m`n`d`o`p```````````````````````````q`r`n`d`s",
"```c`i`t`u`v`w```i`c`x`y`z```````````````````````A`B`C`i`c``",
"`s`d`n`D`E`````````````F`G`H```````````````````I`l`J````````",
"`h`e`e`j`i```````````````K`L`M`i```````````N`#`O`P``````````",
"`a`e`e`d`c`````````````````Q`R`#`S`T`U`V`W`#`X`X`Y``````````",
"`b`Z`0`.```````````````````1`X`X`2`3`4`5`6`7`X`X`1``````````",
"```8.``````````````````````Y`X`X`#`c```````S`#...#``````````",
"```J.a````````````````````.b.c`#`N```````````i.d.e``````````",
"``.f.g````````````````````.h.i``````````````````.j.k````````",
"````.l``````````````````.m.n.o```````````````````w.p`C``````",
"````.l``````````````````.q.r``````````````````````.s.t``````",
"````.u.v````````````````.w`U````````````````````````.x.y`a`b",
"```..z`h`b```````````c.A.B`````````````````````````c`d`e`e`a",
"`c`d`e`e`a`````````s`d.C.D`````````````````````````i`j`e`e`h",
"`i`j`e`e.E.F.F.G.H.I`e`e`j`i````````````````````````.J`n`d`s",
"``.J`n`d`s````.o.K`h`e`e`d`c```````````````````````````i`c``",
"`````i`c```````````b`a`#`.``````````````````````````````````"
};
