/* XPM */
static char *grid_axonom_xpm[] = {
/* width height num_colors chars_per_pixel */
"    16    16      256            2",
/* colors */
"`` c #e8e8e4",
"`. c #8282f0",
"`# c #e2e2e5",
"`a c #e7e7e4",
"`b c #4b4bf6",
"`c c #9c9ced",
"`d c #7a7af1",
"`e c #7575f1",
"`f c #8989ef",
"`g c #7e7ef0",
"`h c #0e0efd",
"`i c #d9d9e6",
"`j c #ababeb",
"`k c #1b1bfc",
"`l c #0000ff",
"`m c #4747f7",
"`n c #d2d2e7",
"`o c #0606fe",
"`p c #babae9",
"`q c #3737f9",
"`r c #3434f9",
"`s c #0303fe",
"`t c #1414fd",
"`u c #5e5ef4",
"`v c #d5d5e6",
"`w c #c5c5e8",
"`x c #c0c0e9",
"`y c #8888ef",
"`z c #6a6af3",
"`A c #0c0cfd",
"`B c #5353f5",
"`C c #9696ee",
"`D c #6464f3",
"`E c #1212fd",
"`F c #8181f0",
"`G c #6767f3",
"`H c #1616fc",
"`I c #9d9ded",
"`J c #cccce8",
"`K c #2e2efa",
"`L c #4242f8",
"`M c #dedee5",
"`N c #c1c1e8",
"`O c #2727fa",
"`P c #d8d8e6",
"`Q c #6e6ef2",
"`R c #4e4ef6",
"`S c #0a0afd",
"`T c #3131f9",
"`U c #2f2ff9",
"`V c #b3b3ea",
"`W c #aeaeeb",
"`X c #2a2afa",
"`Y c #4040f8",
"`Z c #2323fb",
"`0 c #4242f7",
"`1 c #c4c4e8",
"`2 c #e6e6e4",
"`3 c #1a1afc",
"`4 c #5252f5",
"`5 c #0404fe",
"`6 c #4c4cf6",
"`7 c #2222fb",
"`8 c #a2a2ec",
".` c #e3e3e5",
".. c #8080f0",
".# c #9797ed",
".a c #4040f7",
".b c #dcdce6",
".c c #9292ee",
".d c #1919fc",
".e c #5b5bf4",
".f c #0505fe",
".g c #4f4ff6",
".h c #1d1dfc",
".i c #9b9bed",
".j c #9e9eed",
".k c #0909fd",
".l c #bbbbe9",
".m c #b1b1ea",
".n c #2d2dfa",
".o c #3939f8",
".p c #3c3cf8",
".q c #cacae8",
".r c #2c2cfa",
".s c #dfdfe5",
".t c #3a3af8",
".u c #3636f9",
".v c #d3d3e6",
".w c #8686ef",
".x c #7676f1",
".y c #0d0dfd",
".z c #5252f6",
".A c #e4e4e4",
".B c #8383f0",
".C c #1313fd",
".D c #6262f4",
".E c #9898ed",
".F c #b8b8ea",
".G c #3535f9",
".H c #2525fb",
".I c #3f3ff8",
".J c #c1c1e9",
".K c #c7c7e8",
".L c #bdbde9",
".M c #cccce7",
".N c #6969f3",
".O c #1111fd",
".P c #7272f2",
".Q c #7c7cf1",
".R c #5a5af5",
".S c #5757f5",
".T c #000000",
".U c #000000",
".V c #000000",
".W c #000000",
".X c #000000",
".Y c #000000",
".Z c #000000",
".0 c #000000",
".1 c #000000",
".2 c #000000",
".3 c #000000",
".4 c #000000",
".5 c #000000",
".6 c #000000",
".7 c #000000",
".8 c #000000",
"#` c #000000",
"#. c #000000",
"## c #000000",
"#a c #000000",
"#b c #000000",
"#c c #000000",
"#d c #000000",
"#e c #000000",
"#f c #000000",
"#g c #000000",
"#h c #000000",
"#i c #000000",
"#j c #000000",
"#k c #000000",
"#l c #000000",
"#m c #000000",
"#n c #000000",
"#o c #000000",
"#p c #000000",
"#q c #000000",
"#r c #000000",
"#s c #000000",
"#t c #000000",
"#u c #000000",
"#v c #000000",
"#w c #000000",
"#x c #000000",
"#y c #000000",
"#z c #000000",
"#A c #000000",
"#B c #000000",
"#C c #000000",
"#D c #000000",
"#E c #000000",
"#F c #000000",
"#G c #000000",
"#H c #000000",
"#I c #000000",
"#J c #000000",
"#K c #000000",
"#L c #000000",
"#M c #000000",
"#N c #000000",
"#O c #000000",
"#P c #000000",
"#Q c #000000",
"#R c #000000",
"#S c #000000",
"#T c #000000",
"#U c #000000",
"#V c #000000",
"#W c #000000",
"#X c #000000",
"#Y c #000000",
"#Z c #000000",
"#0 c #000000",
"#1 c #000000",
"#2 c #000000",
"#3 c #000000",
"#4 c #000000",
"#5 c #000000",
"#6 c #000000",
"#7 c #000000",
"#8 c #000000",
"a` c #000000",
"a. c #000000",
"a# c #000000",
"aa c #000000",
"ab c #000000",
"ac c #000000",
"ad c #000000",
"ae c #000000",
"af c #000000",
"ag c #000000",
"ah c #000000",
"ai c #000000",
"aj c #000000",
"ak c #000000",
"al c #000000",
"am c #000000",
"an c #000000",
"ao c #000000",
"ap c #000000",
"aq c #000000",
"ar c #000000",
"as c #000000",
"at c #000000",
"au c #000000",
"av c #000000",
"aw c #000000",
"ax c #000000",
"ay c #000000",
"az c #000000",
"aA c #000000",
"aB c #000000",
"aC c #000000",
"aD c #000000",
"aE c #000000",
"aF c #000000",
"aG c #000000",
"aH c #000000",
"aI c #000000",
"aJ c #000000",
"aK c #000000",
"aL c #000000",
"aM c #000000",
"aN c #000000",
"aO c #000000",
"aP c #000000",
"aQ c #000000",
"aR c #000000",
"aS c #000000",
"aT c #000000",
"aU c #000000",
"aV c #000000",
"aW c #000000",
"aX c #000000",
"aY c #000000",
"aZ c #000000",
"a0 c #000000",
"a1 c #000000",
"a2 c #000000",
"a3 c #000000",
"a4 c #000000",
"a5 c #000000",
"a6 c #000000",
"a7 c #000000",
"a8 c #000000",
/* pixels */
"`````.`#`a`b`c`d`e`f`````g``````",
"`````h`i```j`k`l`m`n`````o``````",
"`````h`i`p`q`r`s`t`u`v```o```w`x",
"`y`z`A`B`k`C```o`i`D`E`F`o`G`H`I",
"`J`K`l`L`M`````o`````N`O`l`m`P``",
"`Q`R`S`T`U`V```o```W`X`Y`s`Z`0`1",
"`2```h`i`C`3`4`5`6`7`8```o.`...#",
"`````h`i```v`q`l.a.b`````o``````",
"`2```h`P.c.d.e.f.g.h.i```o``.j`c",
"`Q`R.k`K`q.l```o``.m.n.o`5.p`O`W",
".q.r`l`m.s`````o`````v.t`l.u.v``",
".w.x.y.z`k`C```o.A.B.C.D`o`z`t.E",
"`````h`i.F`r.G`5.H.I.J```o``.K.L",
"`````h`i```w.r`l.p`n`````o``````",
"`````h.M.N.O`g`o.P`t.Q`#`o``````",
"`````y.j.R.v``.w``.M.S`v.w``````"
};
