/* XPM */
static char *group_layer_icon_xpm[] = {
/* columns rows colors chars-per-pixel */
"20 20 108 2",
"   c #171305",
".  c #1C1603",
"X  c #1F1A07",
"o  c #261E03",
"O  c #221C09",
"+  c #2C2301",
"@  c #2C250E",
"#  c #282210",
"$  c #302912",
"%  c #362F1A",
"&  c #38311B",
"*  c #3C3721",
"=  c #433600",
"-  c #433D28",
";  c #53461D",
":  c #715C06",
">  c #735F0B",
",  c #4F482C",
"<  c #77693B",
"1  c #585345",
"2  c #5F5B4D",
"3  c #8D7313",
"4  c #836E2A",
"5  c #917B21",
"6  c #A68504",
"7  c #BA9507",
"8  c #B89509",
"9  c #9F8A3A",
"0  c #AC8C26",
"q  c #B1952C",
"w  c #AC9035",
"e  c #D4AD1A",
"r  c #D7B017",
"t  c #DCB212",
"y  c #E2B91F",
"u  c #C7A32E",
"i  c #CDAD2C",
"p  c #D0AE2B",
"a  c #D6B227",
"s  c #DAB423",
"d  c #DFB820",
"f  c #D2B02C",
"g  c #C7A434",
"h  c #C7A63A",
"j  c #C8A73D",
"k  c #D4B331",
"l  c #E9BF37",
"z  c #E5BD3C",
"x  c #E8BF3C",
"c  c #E4C13C",
"v  c #E9C03C",
"b  c #F3C633",
"n  c #F1C63C",
"m  c #F1C83D",
"M  c #9F8A49",
"N  c #AA9041",
"B  c #B29E58",
"V  c #BDA549",
"C  c #B6A668",
"Z  c #BEAE75",
"A  c #CCAB43",
"S  c #C0A757",
"D  c #DCBF52",
"F  c #C2AE67",
"G  c #D9BD61",
"H  c #E7C141",
"J  c #ECC544",
"K  c #ECC64B",
"L  c #F0C743",
"P  c #F1C945",
"I  c #F2CB4C",
"U  c #E5C354",
"Y  c #E9C652",
"T  c #ECC954",
"R  c #E8C659",
"E  c #EDCB5A",
"W  c #F2CC53",
"Q  c #F3CF5A",
"!  c #FBD454",
"~  c #F3D05F",
"^  c #F9D45B",
"/  c #E9CD63",
"(  c #F6D264",
")  c #F9D663",
"_  c #F1D169",
"`  c #FAD768",
"'  c #FCDA6D",
"]  c #E9D27A",
"[  c #FBDB73",
"{  c #FCDE7B",
"}  c #9F9986",
"|  c #A19B86",
" . c #A39D89",
".. c #A7A18A",
"X. c #ADA58B",
"o. c #BEBEBE",
"O. c #C3B686",
"+. c #C5B888",
"@. c #E9D187",
"#. c #E5D18A",
"$. c #ECD797",
"%. c #FDE081",
"&. c #CFCCBF",
"*. c #EDDDA2",
"=. c #CFCCC0",
"-. c #D1CFC4",
";. c #FAFAFA",
":. c None",
/* pixels */
":.:.:.:.:.:.:.:.:.:.:.:.:.:.:.:.:.:.:.:.",
":.:.:.:.:.:.:.:.:.:.:.:.:.:.:.:.:.:.:.:.",
":.:.+ 6 8 8 8 8 7 = :.:.:.:.:.:.:.:.:.:.",
":.:.> e e e e r r y : + + + + + + o :.:.",
":.:.5 k f i i p p p a a s s s y y 3 :.:.",
":.:.9 D C -.-.-.-.=.=.&.-.&.&.C c q :.:.",
":.:.B ] O.;.;.;.;.;.;.;.;.;.;.+./ V :.:.",
":.:.Z *.X.o.o.o.o.o.o.o.o.o.&.X.#.F :.:.",
":.2 .... . . . .| | | | } } } } ..| 1 :.",
"* $.%.{ { { { [ [ [ [ [ ' ' ' ' ' ' @.% ",
"- [ ' ` ` ` ` ) ) ^ ^ ^ ^ ! ! ^ ! ! ! % ",
"& _ ( ( ( Q Q Q Q Q W W W W I I I P J @ ",
"# G E E T T T T K K K K J J J J J J A O ",
":.S R R U Y Y K K K K K J J H H x l w :.",
":.M U R T W W I I I P P P P P m v z 4 :.",
":.< T W W W I I K I P L L L m m n l ; :.",
":., W W W I K I J P P P n v m n n b $ :.",
":.# N A A A j j j h g g g g u u u 0 O :.",
":.:.  O O O O O O O O O O O O O o . :.:.",
":.:.:.:.:.:.:.:.:.:.:.:.:.:.:.:.:.:.:.:."
};
