/* XPM */
static char *help_keys_xpm[] = {
/* width height num_colors chars_per_pixel */
"    16    16      256            2",
/* colors */
"`` c #aaaaaa",
"`. c #000000",
"`# c #e8e8e4",
"`a c #1c1c1c",
"`b c #696969",
"`c c #585858",
"`d c #505050",
"`e c #484848",
"`f c #3f3f3f",
"`g c #4c4c4b",
"`h c #474747",
"`i c #4c4c4c",
"`j c #6b6b6b",
"`k c #4e4e4e",
"`l c #525252",
"`m c #dcdcdc",
"`n c #292929",
"`o c #494949",
"`p c #444444",
"`q c #c1c1c1",
"`r c #d6d6d6",
"`s c #1b1b1b",
"`t c #333333",
"`u c #363636",
"`v c #d9d9d9",
"`w c #eeeeee",
"`x c #0d0d0d",
"`y c #c80000",
"`z c #0c0c0c",
"`A c #1d1d1d",
"`B c #282828",
"`C c #272727",
"`D c #070707",
"`E c #323231",
"`F c #111111",
"`G c #090909",
"`H c #010101",
"`I c #323232",
"`J c #3e3e3e",
"`K c #595958",
"`L c #3d3d3d",
"`M c #353535",
"`N c #2e2e2e",
"`O c #1e1e1e",
"`P c #161616",
"`Q c #0f0f0f",
"`R c #171717",
"`S c #3a3a3a",
"`T c #aeaeae",
"`U c #c8c8c8",
"`V c #cccccc",
"`W c #cfcfcf",
"`X c #d2d2d2",
"`Y c #d5d5d5",
"`Z c #d8d8d8",
"`0 c #d1d1d1",
"`1 c #fbfbfb",
"`2 c #252525",
"`3 c #d4d4d4",
"`4 c #d7d7d7",
"`5 c #dadada",
"`6 c #dddddd",
"`7 c #e0e0e0",
"`8 c #e3e3e3",
".` c #e6e6e6",
".. c #e9e9e9",
".# c #ececec",
".a c #2a2a2a",
".b c #080808",
".c c #000000",
".d c #000000",
".e c #000000",
".f c #000000",
".g c #000000",
".h c #000000",
".i c #000000",
".j c #000000",
".k c #000000",
".l c #000000",
".m c #000000",
".n c #000000",
".o c #000000",
".p c #000000",
".q c #000000",
".r c #000000",
".s c #000000",
".t c #000000",
".u c #000000",
".v c #000000",
".w c #000000",
".x c #000000",
".y c #000000",
".z c #000000",
".A c #000000",
".B c #000000",
".C c #000000",
".D c #000000",
".E c #000000",
".F c #000000",
".G c #000000",
".H c #000000",
".I c #000000",
".J c #000000",
".K c #000000",
".L c #000000",
".M c #000000",
".N c #000000",
".O c #000000",
".P c #000000",
".Q c #000000",
".R c #000000",
".S c #000000",
".T c #000000",
".U c #000000",
".V c #000000",
".W c #000000",
".X c #000000",
".Y c #000000",
".Z c #000000",
".0 c #000000",
".1 c #000000",
".2 c #000000",
".3 c #000000",
".4 c #000000",
".5 c #000000",
".6 c #000000",
".7 c #000000",
".8 c #000000",
"#` c #000000",
"#. c #000000",
"## c #000000",
"#a c #000000",
"#b c #000000",
"#c c #000000",
"#d c #000000",
"#e c #000000",
"#f c #000000",
"#g c #000000",
"#h c #000000",
"#i c #000000",
"#j c #000000",
"#k c #000000",
"#l c #000000",
"#m c #000000",
"#n c #000000",
"#o c #000000",
"#p c #000000",
"#q c #000000",
"#r c #000000",
"#s c #000000",
"#t c #000000",
"#u c #000000",
"#v c #000000",
"#w c #000000",
"#x c #000000",
"#y c #000000",
"#z c #000000",
"#A c #000000",
"#B c #000000",
"#C c #000000",
"#D c #000000",
"#E c #000000",
"#F c #000000",
"#G c #000000",
"#H c #000000",
"#I c #000000",
"#J c #000000",
"#K c #000000",
"#L c #000000",
"#M c #000000",
"#N c #000000",
"#O c #000000",
"#P c #000000",
"#Q c #000000",
"#R c #000000",
"#S c #000000",
"#T c #000000",
"#U c #000000",
"#V c #000000",
"#W c #000000",
"#X c #000000",
"#Y c #000000",
"#Z c #000000",
"#0 c #000000",
"#1 c #000000",
"#2 c #000000",
"#3 c #000000",
"#4 c #000000",
"#5 c #000000",
"#6 c #000000",
"#7 c #000000",
"#8 c #000000",
"a` c #000000",
"a. c #000000",
"a# c #000000",
"aa c #000000",
"ab c #000000",
"ac c #000000",
"ad c #000000",
"ae c #000000",
"af c #000000",
"ag c #000000",
"ah c #000000",
"ai c #000000",
"aj c #000000",
"ak c #000000",
"al c #000000",
"am c #000000",
"an c #000000",
"ao c #000000",
"ap c #000000",
"aq c #000000",
"ar c #000000",
"as c #000000",
"at c #000000",
"au c #000000",
"av c #000000",
"aw c #000000",
"ax c #000000",
"ay c #000000",
"az c #000000",
"aA c #000000",
"aB c #000000",
"aC c #000000",
"aD c #000000",
"aE c #000000",
"aF c #000000",
"aG c #000000",
"aH c #000000",
"aI c #000000",
"aJ c #000000",
"aK c #000000",
"aL c #000000",
"aM c #000000",
"aN c #000000",
"aO c #000000",
"aP c #000000",
"aQ c #000000",
"aR c #000000",
"aS c #000000",
"aT c #000000",
"aU c #000000",
"aV c #000000",
"aW c #000000",
"aX c #000000",
"aY c #000000",
"aZ c #000000",
"a0 c #000000",
"a1 c #000000",
"a2 c #000000",
"a3 c #000000",
"a4 c #000000",
"a5 c #000000",
"a6 c #000000",
"a7 c #000000",
"a8 c #000000",
/* pixels */
"`````.`#`.`````````.`#`.````````",
"`.`.`a`#`a`.`.`.`.`a`#`a`.`.`.`.",
"`#`#`#`#`#`#`#`#`#`#`#`#`#`#`#`#",
"`b`c`d`e`f`g`#`b`c`d`h`f`i`#`j`k",
"`l`m`m`m`m`n`#`l`m`m`m`m`n`#`o`m",
"`p`m`q`r```s`#`p`m`q`r```s`#`t`m",
"`u`m`v`w```x`#`u`m`y`w```z`#`A`m",
"`B`````````.`#`C```y`````.`#`D``",
"`E`F`G`H`.`A`#`I`F`y`H`.`A`#`a`.",
"`#`#`#`#`#`#`#`#`#`y`#`#`#`#`#`#",
"`o`J`I`J`#`K`L`M`N`y`O`P`Q`D`.`.",
"`m`m`m`R`#`S`m`m`m`y`m`m`m`m`m`m",
"`T`y`y`y`y`y`y`y`y`y`U`V`W`X`Y`Z",
"`0`1```.`#`2`m`3`4`5`6`7`8.`...#",
"```````.`#`s````````````````````",
"`.`.`.`a`#.a.b`H`.`.`.`.`.`.`.`."
};
