/* XPM */
static char *icon_bone[] = {
/* width height num_colors chars_per_pixel */
"    20    20      256            2",
/* colors */
"`` c #ffffff",
"`. c #b59794",
"`# c #6e352e",
"`a c #6b322b",
"`b c #a4827f",
"`c c #f6f3f3",
"`d c #bea4a1",
"`e c #824e3a",
"`f c #f9e49e",
"`g c #fbe69f",
"`h c #b08860",
"`i c #7f4c47",
"`j c #703931",
"`k c #f8e39d",
"`l c #fde9a1",
"`m c #8a5943",
"`n c #dbcece",
"`o c #e9e2e2",
"`p c #7e493d",
"`q c #fdeaa6",
"`r c #ae865e",
"`s c #bba3a3",
"`t c #fbf9f9",
"`u c #6e342e",
"`v c #fdecaf",
"`w c #7b4435",
"`x c #e5dbdb",
"`y c #855853",
"`z c #ddc498",
"`A c #fdeaa5",
"`B c #f7e29c",
"`C c #632722",
"`D c #e8dfdf",
"`E c #fefdfd",
"`F c #b39696",
"`G c #764239",
"`H c #f8e8bb",
"`I c #fdeeb7",
"`J c #fdecae",
"`K c #fce9a4",
"`L c #b18862",
"`M c #875541",
"`N c #6a2f28",
"`O c #b29591",
"`P c #a37f7f",
"`Q c #93685f",
"`R c #fbf1d0",
"`S c #fef2ca",
"`T c #fef0c0",
"`U c #fdeaa4",
"`V c #f7e19b",
"`W c #a68484",
"`X c #916764",
"`Y c #fef9e5",
"`Z c #fef7dc",
"`0 c #fef5d3",
"`1 c #fef2c9",
"`2 c #fdeeb6",
"`3 c #fdecad",
"`4 c #fdeaa3",
"`5 c #6f362e",
"`6 c #d2c0c0",
"`7 c #764140",
"`8 c #6f3735",
".` c #9a7371",
".. c #aa8a8a",
".# c #8f6464",
".a c #fefcf7",
".b c #fffbee",
".c c #fef7db",
".d c #e0ccaf",
".e c #a8836d",
".f c #c7a886",
".g c #ead6a3",
".h c #d6b987",
".i c #824e3b",
".j c #aa8a86",
".k c #d2c1c1",
".l c #723934",
".m c #dcbfa9",
".n c #f3dec8",
".o c #79433f",
".p c #ddd0d0",
".q c #bea6a6",
".r c #82514f",
".s c #fcf8f4",
".t c #fffefe",
".u c #fffdf7",
".v c #ece1d5",
".w c #8b5f58",
".x c #784643",
".y c #a68482",
".z c #7f4c49",
".A c #916662",
".B c #cfbdbd",
".C c #733d3a",
".D c #d8b497",
".E c #efd3b6",
".F c #f1d9bf",
".G c #dbc0ad",
".H c #591a19",
".I c #865450",
".J c #f1e4d9",
".K c #fbf4ec",
".L c #fdf9f5",
".M c #e9e1e0",
".N c #6e3736",
".O c #cebdbd",
".P c #6e3430",
".Q c #ebc9a5",
".R c #edceae",
".S c #efd4b7",
".T c #f1d9c0",
".U c #e8d0bc",
".V c #f5e4d2",
".W c #f7e9db",
".X c #f9efe4",
".Y c #e7d9d3",
".Z c #6e3636",
".0 c #e1d5d5",
".1 c #77433f",
".2 c #c09578",
".3 c #ebc9a6",
".4 c #edcfaf",
".5 c #f1d9c1",
".6 c #f3dfca",
".7 c #f7eadb",
".8 c #f0eaea",
"#` c #8f635f",
"#. c #6b302b",
"## c #9d6b5c",
"#a c #ecceae",
"#b c #efd4b8",
"#c c #f1dac1",
"#d c #c9ab9e",
"#e c #906565",
"#f c #946c6b",
"#g c #ad7d68",
"#h c #edcfb0",
"#i c #efd5b9",
"#j c #f1dac2",
"#k c #b38d80",
"#l c #b59999",
"#m c #b89b9b",
"#n c #af8068",
"#o c #ebcaa7",
"#p c #edd0b0",
"#q c #a77d6f",
"#r c #ad8f8e",
"#s c #b78970",
"#t c #eac7a2",
"#u c #ebcaa8",
"#v c #edd0b1",
"#w c #76403a",
"#x c #dfd3d3",
"#y c #c9b4b3",
"#z c #783e37",
"#A c #e3be9b",
"#B c #e7c39f",
"#C c #996756",
"#D c #976f6c",
"#E c #c2abaa",
"#F c #723936",
"#G c #632723",
"#H c #ab8887",
"#I c #fcfbfb",
"#J c #000000",
"#K c #000000",
"#L c #000000",
"#M c #000000",
"#N c #000000",
"#O c #000000",
"#P c #000000",
"#Q c #000000",
"#R c #000000",
"#S c #000000",
"#T c #000000",
"#U c #000000",
"#V c #000000",
"#W c #000000",
"#X c #000000",
"#Y c #000000",
"#Z c #000000",
"#0 c #000000",
"#1 c #000000",
"#2 c #000000",
"#3 c #000000",
"#4 c #000000",
"#5 c #000000",
"#6 c #000000",
"#7 c #000000",
"#8 c #000000",
"a` c #000000",
"a. c #000000",
"a# c #000000",
"aa c #000000",
"ab c #000000",
"ac c #000000",
"ad c #000000",
"ae c #000000",
"af c #000000",
"ag c #000000",
"ah c #000000",
"ai c #000000",
"aj c #000000",
"ak c #000000",
"al c #000000",
"am c #000000",
"an c #000000",
"ao c #000000",
"ap c #000000",
"aq c #000000",
"ar c #000000",
"as c #000000",
"at c #000000",
"au c #000000",
"av c #000000",
"aw c #000000",
"ax c #000000",
"ay c #000000",
"az c #000000",
"aA c #000000",
"aB c #000000",
"aC c #000000",
"aD c #000000",
"aE c #000000",
"aF c #000000",
"aG c #000000",
"aH c #000000",
"aI c #000000",
"aJ c #000000",
"aK c #000000",
"aL c #000000",
"aM c #000000",
"aN c #000000",
"aO c #000000",
"aP c #000000",
"aQ c #000000",
"aR c #000000",
"aS c #000000",
"aT c #000000",
"aU c #000000",
"aV c #000000",
"aW c #000000",
"aX c #000000",
"aY c #000000",
"aZ c #000000",
"a0 c #000000",
"a1 c #000000",
"a2 c #000000",
"a3 c #000000",
"a4 c #000000",
"a5 c #000000",
"a6 c #000000",
"a7 c #000000",
"a8 c #000000",
/* pixels */
"`````````````````````````.`#`a`b`c``````",
"```````````````````````d`e`f`g`h`i``````",
"```````````````````````j`k`l`l`l`m`n````",
"`````````````````````o`p`q`l`l`l`r`s````",
"`````````````````````t`u`v`q`l`l`w`x````",
"```````````````````````y`z`v`A`B`C`D`E``",
"`````````````````````F`G`H`I`J`K`L`M`N`O",
"```````````````````P`Q`R`S`T`I`J`U`l`V`a",
"`````````````````W`X`Y`Z`0`1`T`2`3`4`l`5",
"```6`7`8.`````...#.a.b`Y.c.d.e.f.g.h.i.j",
".k.l.m.n.o.p.q.r.s.t.u.v.w.x.q.y.z.A.B``",
".C.D.E.F.G.H.I.J.K.L.M.N.O``````````````",
".P.Q.R.S.T.U.V.W.X.Y.Z.0````````````````",
".1.2.3.4.S.5.6.V.7`7`n``````````````````",
".8#`#.###a#b#c.6#d#e````````````````````",
"`````E#f#g#h#i#j#k#l````````````````````",
"``````#m#n#o#p#i#q.q````````````````````",
"``````#r#s#t#u#v#w#x````````````````````",
"``````#y#z#A#B#C#D``````````````````````",
"````````#E#F#G#H#I``````````````````````"
};
