/* XPM */
static char *input_devices_xpm[] = {
/* width height num_colors chars_per_pixel */
"    16    16      256            2",
/* colors */
"`` c #1d1d1c",
"`. c #000000",
"`# c #1a1b1b",
"`a c #f0f4f8",
"`b c #e5edf4",
"`c c #dbe5ef",
"`d c #d0ddeb",
"`e c #c5d6e6",
"`f c #bacee1",
"`g c #b0c7dd",
"`h c #a5bfd8",
"`i c #9ab7d4",
"`j c #98b6d3",
"`k c #0b0b0b",
"`l c #08090a",
"`m c #f7f5f0",
"`n c #b2b1ad",
"`o c #e8e6e1",
"`p c #f4f2ed",
"`q c #f0eee9",
"`r c #edebe7",
"`s c #e9e8e3",
"`t c #e7e5e0",
"`u c #e3e2dd",
"`v c #fffdf8",
"`w c #c4c3bf",
"`x c #3f3f3e",
"`y c #d9d7d3",
"`z c #fcfbf6",
"`A c #f9f7f2",
"`B c #f6f4ef",
"`C c #f2f0eb",
"`D c #efede8",
"`E c #ebe9e4",
"`F c #5e5e5c",
"`G c #b5b4b0",
"`H c #fdfbf6",
"`I c #faf8f3",
"`J c #f6f5f0",
"`K c #f3f1ec",
"`L c #efeee9",
"`M c #eceae5",
"`N c #e9e7e2",
"`O c #e5e4df",
"`P c #ceccc9",
"`Q c #414140",
"`R c #fcfaf5",
"`S c #fbf9f4",
"`T c #f0efea",
"`U c #edebe6",
"`V c #e6e4df",
"`W c #e2e1dc",
"`X c #636261",
"`Y c #91908d",
"`Z c #f8f6f1",
"`0 c #f5f3ee",
"`1 c #f1efea",
"`2 c #eeece7",
"`3 c #eae9e4",
"`4 c #e0ded9",
"`5 c #2e2e2d",
"`6 c #292928",
"`7 c #a09f9c",
"`8 c #e4e3de",
".` c #e1dfda",
".. c #dddcd7",
".# c #6a6967",
".a c #908f8c",
".b c #d8d6d2",
".c c #262525",
".d c #92918e",
".e c #e2e0db",
".f c #deddd8",
".g c #dbd9d4",
".h c #e3e1dd",
".i c #20201f",
".j c #eeece8",
".k c #bebdb9",
".l c #222221",
".m c #dfded9",
".n c #dbdad5",
".o c #d8d7d2",
".p c #72716f",
".q c #7c7b78",
".r c #050505",
".s c #e5e4e0",
".t c #6e6d6b",
".u c #d9d8d3",
".v c #d5d4cf",
".w c #3b3b3a",
".x c #1b1b1a",
".y c #d6d5d0",
".z c #d3d2cd",
".A c #d7d6d1",
".B c #d4d2cd",
".C c #d0cfca",
".D c #1b1b1b",
".E c #000000",
".F c #000000",
".G c #000000",
".H c #000000",
".I c #000000",
".J c #000000",
".K c #000000",
".L c #000000",
".M c #000000",
".N c #000000",
".O c #000000",
".P c #000000",
".Q c #000000",
".R c #000000",
".S c #000000",
".T c #000000",
".U c #000000",
".V c #000000",
".W c #000000",
".X c #000000",
".Y c #000000",
".Z c #000000",
".0 c #000000",
".1 c #000000",
".2 c #000000",
".3 c #000000",
".4 c #000000",
".5 c #000000",
".6 c #000000",
".7 c #000000",
".8 c #000000",
"#` c #000000",
"#. c #000000",
"## c #000000",
"#a c #000000",
"#b c #000000",
"#c c #000000",
"#d c #000000",
"#e c #000000",
"#f c #000000",
"#g c #000000",
"#h c #000000",
"#i c #000000",
"#j c #000000",
"#k c #000000",
"#l c #000000",
"#m c #000000",
"#n c #000000",
"#o c #000000",
"#p c #000000",
"#q c #000000",
"#r c #000000",
"#s c #000000",
"#t c #000000",
"#u c #000000",
"#v c #000000",
"#w c #000000",
"#x c #000000",
"#y c #000000",
"#z c #000000",
"#A c #000000",
"#B c #000000",
"#C c #000000",
"#D c #000000",
"#E c #000000",
"#F c #000000",
"#G c #000000",
"#H c #000000",
"#I c #000000",
"#J c #000000",
"#K c #000000",
"#L c #000000",
"#M c #000000",
"#N c #000000",
"#O c #000000",
"#P c #000000",
"#Q c #000000",
"#R c #000000",
"#S c #000000",
"#T c #000000",
"#U c #000000",
"#V c #000000",
"#W c #000000",
"#X c #000000",
"#Y c #000000",
"#Z c #000000",
"#0 c #000000",
"#1 c #000000",
"#2 c #000000",
"#3 c #000000",
"#4 c #000000",
"#5 c #000000",
"#6 c #000000",
"#7 c #000000",
"#8 c #000000",
"a` c #000000",
"a. c #000000",
"a# c #000000",
"aa c #000000",
"ab c #000000",
"ac c #000000",
"ad c #000000",
"ae c #000000",
"af c #000000",
"ag c #000000",
"ah c #000000",
"ai c #000000",
"aj c #000000",
"ak c #000000",
"al c #000000",
"am c #000000",
"an c #000000",
"ao c #000000",
"ap c #000000",
"aq c #000000",
"ar c #000000",
"as c #000000",
"at c #000000",
"au c #000000",
"av c #000000",
"aw c #000000",
"ax c #000000",
"ay c #000000",
"az c #000000",
"aA c #000000",
"aB c #000000",
"aC c #000000",
"aD c #000000",
"aE c #000000",
"aF c #000000",
"aG c #000000",
"aH c #000000",
"aI c #000000",
"aJ c #000000",
"aK c #000000",
"aL c #000000",
"aM c #000000",
"aN c #000000",
"aO c #000000",
"aP c #000000",
"aQ c #000000",
"aR c #000000",
"aS c #000000",
"aT c #000000",
"aU c #000000",
"aV c #000000",
"aW c #000000",
"aX c #000000",
"aY c #000000",
"aZ c #000000",
"a0 c #000000",
"a1 c #000000",
"a2 c #000000",
"a3 c #000000",
"a4 c #000000",
"a5 c #000000",
"a6 c #000000",
"a7 c #000000",
"a8 c #000000",
/* pixels */
"```.`.`.`.`.`.`.`.`.`.`.`.`.`.`#",
"`.`a`b`c`d`e`f`g`h`i`j`j`j`j`j`.",
"`.`a`b`c`d`e`f`g`h`i`j`j`j`j`j`.",
"`k`.`.`.`.`.`.`.`.`.`.`.`.`.`.`l",
"`.`m`m`m`m`m`n`o`m`p`q`r`s`t`u`.",
"`.`v`v`v`v`w`x`y`z`A`B`C`D`E`o`.",
"`.`v`v`v`v`F`G`H`I`J`K`L`M`N`O`.",
"`.`v`v`v`P`Q`R`S`m`p`T`U`s`V`W`.",
"`.`v`v`v`X`Y`R`Z`0`1`2`3`t`u`4`.",
"`.`v`v`y`5`6`7`B`C`D`E`o`8.`..`.",
"`.`v`v.#.a.b.c.d`L`M`N`O.e.f.g`.",
"`.`v.h.i.j`m.k.l`U`s`V`W.m.n.o`.",
"`.`v.p.q`Z`0`1.r.s`t`u`4.t.u.v`.",
"`.`v.w`.`.`.`.`.`.`.`.`..x.y.z`.",
"`.`H`I`J`K`L`M`N`O.e.f.g.A.B.C`.",
"```.`.`.`.`.`.`.`.`.`.`.`.`.`..D"
};
