/* XPM */
static char *integer_icon_xpm[] = {
/* width height num_colors chars_per_pixel */
"    19    20      256            2",
/* colors */
"`` c #ffffff",
"`. c #e2ecf6",
"`# c #d0dcea",
"`a c #e9edf4",
"`b c #ceddef",
"`c c #cad5e3",
"`d c #fdfdfd",
"`e c #f2f6fa",
"`f c #cfddee",
"`g c #d8dfea",
"`h c #dee8f4",
"`i c #cfdbea",
"`j c #ecf0f4",
"`k c #e0eaf4",
"`l c #c8daec",
"`m c #c5d7eb",
"`n c #c8d9ea",
"`o c #cfdeee",
"`p c #c6d8ec",
"`q c #c1d4e8",
"`r c #aeb8c6",
"`s c #a4afb9",
"`t c #b2c0cb",
"`u c #c5d7ea",
"`v c #c2d3e8",
"`w c #c8d9ec",
"`x c #dae6f1",
"`y c #d5dfea",
"`z c #bccee3",
"`A c #b0c1d8",
"`B c #afc1d8",
"`C c #c4d7ea",
"`D c #a4b2c5",
"`E c #535354",
"`F c #525252",
"`G c #737980",
"`H c #acbbcb",
"`I c #9caabc",
"`J c #aec0d7",
"`K c #becfe4",
"`L c #bbcde2",
"`M c #b7c5db",
"`N c #fafbfd",
"`O c #d6e2ef",
"`P c #c1d2e5",
"`Q c #cbd5e3",
"`R c #bccbdb",
"`S c #5a5d60",
"`T c #4c4c4c",
"`U c #4d4d4d",
"`V c #6c6d6f",
"`W c #818890",
"`X c #7a7f89",
"`Y c #e7ebef",
"`Z c #d2e0ef",
"`0 c #becde2",
"`1 c #d0d7e6",
"`2 c #f4f6f9",
"`3 c #c3d3e6",
"`4 c #d3dbe8",
"`5 c #bcbcbc",
"`6 c #545658",
"`7 c #474747",
"`8 c #606162",
".` c #7b828a",
".. c #787d86",
".# c #f7f7f7",
".a c #d9e5f1",
".b c #bed0e3",
".c c #d9e0eb",
".d c #fbfdfd",
".e c #dae6f3",
".f c #c3d3e7",
".g c #d1dce8",
".h c #6f7172",
".i c #414141",
".j c #414142",
".k c #5a5b5b",
".l c #777f85",
".m c #767a84",
".n c #edf0f4",
".o c #f4f6fa",
".p c #d5e2f0",
".q c #c1d0e4",
".r c #d6deea",
".s c #f8fbfd",
".t c #dae5f2",
".u c #454647",
".v c #3b3b3b",
".w c #4e5053",
".x c #60656a",
".y c #505355",
".z c #737b83",
".A c #757d85",
".B c #c2d3e5",
".C c #c6d8eb",
".D c #d1deed",
".E c #dbe1ec",
".F c #bccee1",
".G c #b9cbe0",
".H c #acbcd2",
".I c #4f5256",
".J c #7a828e",
".K c #95a1af",
".L c #5b6069",
".M c #353535",
".N c #4d5053",
".O c #6f767e",
".P c #666d77",
".Q c #adbccf",
".R c #b2c1d4",
".S c #becee2",
".T c #b7c9df",
".U c #acbbd1",
".V c #becbdb",
".W c #9daab8",
".X c #6d7681",
".Y c #2f2f2f",
".Z c #535455",
".0 c #6e747c",
".1 c #6a7179",
".2 c #c7d7eb",
".3 c #8b98ab",
".4 c #2a2a2a",
".5 c #4f5051",
".6 c #6a7178",
".7 c #676c75",
".8 c #eef3fa",
"#` c #d1dfef",
"#. c #c5d5e8",
"## c #ccdaea",
"#a c #e1eaf5",
"#b c #c6d9ec",
"#c c #95a3b4",
"#d c #242424",
"#e c #46494b",
"#f c #656d74",
"#g c #666c74",
"#h c #dae4ed",
"#i c #cfdfef",
"#j c #c2d3e7",
"#k c #cfdcea",
"#l c #ebf1f7",
"#m c #dae4ee",
"#n c #c5d6e9",
"#o c #c2d4e8",
"#p c #c4d4e6",
"#q c #96a4b4",
"#r c #1e1e1e",
"#s c #3c3f44",
"#t c #626a71",
"#u c #5f6770",
"#v c #bfcddf",
"#w c #c4d5e9",
"#x c #c0d2e7",
"#y c #c0cfe3",
"#z c #cad8e7",
"#A c #cad7e9",
"#B c #bdcfe2",
"#C c #bbc7db",
"#D c #d1dae7",
"#E c #c5d8eb",
"#F c #8896a8",
"#G c #181818",
"#H c #393b3f",
"#I c #5f676f",
"#J c #585e67",
"#K c #ccd2df",
"#L c #cad8e9",
"#M c #bacbdf",
"#N c #becbdc",
"#O c #c9d9ed",
"#P c #8694a6",
"#Q c #121212",
"#R c #3b3c3e",
"#S c #5c626a",
"#T c #5a5f67",
"#U c #f5f5f5",
"#V c #8593a5",
"#W c #0c0c0c",
"#X c #353738",
"#Y c #595f67",
"#Z c #565c64",
"#0 c #e2ebf5",
"#1 c #c7d9ea",
"#2 c #ccdced",
"#3 c #95a4b3",
"#4 c #070707",
"#5 c #2b2e31",
"#6 c #555c65",
"#7 c #565e66",
"#8 c #c6d6e6",
"a` c #c4d6ea",
"a. c #c7d8ea",
"a# c #dbe8f3",
"aa c #d2dae8",
"ab c #bbcee3",
"ac c #afc0d7",
"ad c #94a2b5",
"ae c #2c3036",
"af c #2b2f35",
"ag c #32363c",
"ah c #515961",
"ai c #4c535d",
"aj c #a9b9d0",
"ak c #bed0e4",
"al c #b2c2d7",
"am c #fafafb",
"an c #abbdd5",
"ao c #e7ecf3",
"ap c #eaeef2",
"aq c #8e9298",
"ar c #666e78",
"as c #e7ebee",
"at c #eff2f7",
"au c #e9f0f6",
"av c #c9d5e5",
"aw c #e1e7ef",
"ax c #e3edf5",
"ay c #b9c7db",
"az c #f9fbfd",
"aA c #d8e2ef",
"aB c #edf2f9",
"aC c #c5d1e1",
"aD c #d7dfe9",
"aE c #000000",
"aF c #000000",
"aG c #000000",
"aH c #000000",
"aI c #000000",
"aJ c #000000",
"aK c #000000",
"aL c #000000",
"aM c #000000",
"aN c #000000",
"aO c #000000",
"aP c #000000",
"aQ c #000000",
"aR c #000000",
"aS c #000000",
"aT c #000000",
"aU c #000000",
"aV c #000000",
"aW c #000000",
"aX c #000000",
"aY c #000000",
"aZ c #000000",
"a0 c #000000",
"a1 c #000000",
"a2 c #000000",
"a3 c #000000",
"a4 c #000000",
"a5 c #000000",
"a6 c #000000",
"a7 c #000000",
"a8 c #000000",
/* pixels */
"``````````````````````````````````````",
"```.`#`a`````b`c`d```e`f`g`````h`i`j``",
"`k`l`m`n`o`o`p`q`r`s`t`u`v`o`o`w`m`n`x",
"`y`z`z`A`B`B`C`D`E`F`G`H`I`J`B`K`L`B`M",
"`N`O`P`Q`j`j`R`S`T`U`V`W`X`Y`j`Z`0`1`2",
"```h`3`4```5`6`7`7`7`8.`...#``.a.b.c``",
".d.e.f.g.h.i.i.j.i.i.k.l.m.n.o.p.q.r.s",
".t`p`m`m.u.v.w.x.v.v.y.z.A.B.C`p`m`m.D",
".E.F.G.H.I.J.K.L.M.M.N.O.P.Q.R.S.T.U.V",
"```h`3`4```d.W.X.Y.Y.Z.0.1.#``.a.b.c``",
"```h`3`4````.2.3.4.4.5.6.7.#``.a.b.c``",
".8#`#.###a#a#b#c#d#d#e#f#g#h#a#i#j#k#l",
"#m#n#o.b#p#p.C#q#r#r#s#t#u#v#p#w#x#y#z",
"`j#A#B#C#D#D#E#F#G#G#H#I#J#K#D#L#M#N.E",
"```h`3`4````#O#P#Q#Q#R#S#T#U``.a.b.c``",
"```h`3`4````#O#V#W#W#X#Y#Z#U``.a.b.c``",
"#0`w.C#1#2#2`p#3#4#4#5#6#7#8#2`pa`a.a#",
"aaab`zacacac`Cadaeafagahaiajacak`Lacal",
"am`O`P`Q`j`j.Canaoapaq.Xaras`j`Z`0`1at",
"``auavaw````axay`N``azaA`Q````aBaCaD``"
};
