/* XPM */
static char *join_bevel_xpm[] = {
/* width height num_colors chars_per_pixel */
"    24    24      256            2",
/* colors */
"`` c #e8e8e4",
"`. c #b0b0ad",
"`# c #080809",
"`a c #000000",
"`b c #b6b6b3",
"`c c #0f1011",
"`d c #70859b",
"`e c #99b6d4",
"`f c #c0cfdc",
"`g c #bcbcb9",
"`h c #111213",
"`i c #6b7f94",
"`j c #c2c2be",
"`k c #131415",
"`l c #66798d",
"`m c #c7c7c4",
"`n c #161718",
"`o c #617386",
"`p c #ccccc8",
"`q c #18191a",
"`r c #5c6d7e",
"`s c #d0d0cd",
"`t c #1d1e1f",
"`u c #566676",
"`v c #d5d5d1",
"`w c #222324",
"`x c #505f6d",
"`y c #d9d9d5",
"`z c #272929",
"`A c #4a5765",
"`B c #dbdbd7",
"`C c #2d2e2f",
"`D c #45515d",
"`E c #fcfdfe",
"`F c #ffffff",
"`G c #9cb8d5",
"`H c #c2d1dd",
"`I c #dfdfdb",
"`J c #333435",
"`K c #3f4a54",
"`L c #98b5d3",
"`M c #e1e1dd",
"`N c #3b3c3c",
"`O c #3a434d",
"`P c #98b5d2",
"`Q c #424343",
"`R c #353d46",
"`S c #97b4d2",
"`T c #95b2cf",
"`U c #010101",
"`V c #020202",
"`W c #020203",
"`X c #030303",
"`Y c #97b3d1",
"`Z c #040404",
"`0 c #96b2d0",
"`1 c #050505",
"`2 c #050606",
"`3 c #95b1ce",
"`4 c #060606",
"`5 c #bbc9d6",
"`6 c #000000",
"`7 c #000000",
"`8 c #000000",
".` c #000000",
".. c #000000",
".# c #000000",
".a c #000000",
".b c #000000",
".c c #000000",
".d c #000000",
".e c #000000",
".f c #000000",
".g c #000000",
".h c #000000",
".i c #000000",
".j c #000000",
".k c #000000",
".l c #000000",
".m c #000000",
".n c #000000",
".o c #000000",
".p c #000000",
".q c #000000",
".r c #000000",
".s c #000000",
".t c #000000",
".u c #000000",
".v c #000000",
".w c #000000",
".x c #000000",
".y c #000000",
".z c #000000",
".A c #000000",
".B c #000000",
".C c #000000",
".D c #000000",
".E c #000000",
".F c #000000",
".G c #000000",
".H c #000000",
".I c #000000",
".J c #000000",
".K c #000000",
".L c #000000",
".M c #000000",
".N c #000000",
".O c #000000",
".P c #000000",
".Q c #000000",
".R c #000000",
".S c #000000",
".T c #000000",
".U c #000000",
".V c #000000",
".W c #000000",
".X c #000000",
".Y c #000000",
".Z c #000000",
".0 c #000000",
".1 c #000000",
".2 c #000000",
".3 c #000000",
".4 c #000000",
".5 c #000000",
".6 c #000000",
".7 c #000000",
".8 c #000000",
"#` c #000000",
"#. c #000000",
"## c #000000",
"#a c #000000",
"#b c #000000",
"#c c #000000",
"#d c #000000",
"#e c #000000",
"#f c #000000",
"#g c #000000",
"#h c #000000",
"#i c #000000",
"#j c #000000",
"#k c #000000",
"#l c #000000",
"#m c #000000",
"#n c #000000",
"#o c #000000",
"#p c #000000",
"#q c #000000",
"#r c #000000",
"#s c #000000",
"#t c #000000",
"#u c #000000",
"#v c #000000",
"#w c #000000",
"#x c #000000",
"#y c #000000",
"#z c #000000",
"#A c #000000",
"#B c #000000",
"#C c #000000",
"#D c #000000",
"#E c #000000",
"#F c #000000",
"#G c #000000",
"#H c #000000",
"#I c #000000",
"#J c #000000",
"#K c #000000",
"#L c #000000",
"#M c #000000",
"#N c #000000",
"#O c #000000",
"#P c #000000",
"#Q c #000000",
"#R c #000000",
"#S c #000000",
"#T c #000000",
"#U c #000000",
"#V c #000000",
"#W c #000000",
"#X c #000000",
"#Y c #000000",
"#Z c #000000",
"#0 c #000000",
"#1 c #000000",
"#2 c #000000",
"#3 c #000000",
"#4 c #000000",
"#5 c #000000",
"#6 c #000000",
"#7 c #000000",
"#8 c #000000",
"a` c #000000",
"a. c #000000",
"a# c #000000",
"aa c #000000",
"ab c #000000",
"ac c #000000",
"ad c #000000",
"ae c #000000",
"af c #000000",
"ag c #000000",
"ah c #000000",
"ai c #000000",
"aj c #000000",
"ak c #000000",
"al c #000000",
"am c #000000",
"an c #000000",
"ao c #000000",
"ap c #000000",
"aq c #000000",
"ar c #000000",
"as c #000000",
"at c #000000",
"au c #000000",
"av c #000000",
"aw c #000000",
"ax c #000000",
"ay c #000000",
"az c #000000",
"aA c #000000",
"aB c #000000",
"aC c #000000",
"aD c #000000",
"aE c #000000",
"aF c #000000",
"aG c #000000",
"aH c #000000",
"aI c #000000",
"aJ c #000000",
"aK c #000000",
"aL c #000000",
"aM c #000000",
"aN c #000000",
"aO c #000000",
"aP c #000000",
"aQ c #000000",
"aR c #000000",
"aS c #000000",
"aT c #000000",
"aU c #000000",
"aV c #000000",
"aW c #000000",
"aX c #000000",
"aY c #000000",
"aZ c #000000",
"a0 c #000000",
"a1 c #000000",
"a2 c #000000",
"a3 c #000000",
"a4 c #000000",
"a5 c #000000",
"a6 c #000000",
"a7 c #000000",
"a8 c #000000",
/* pixels */
"```````````````````````.`#`a`a`a`a`a`a`a`a`a`a`a",
"`````````````````````b`c`d`e`e`e`e`e`e`e`e`e`e`f",
"```````````````````g`h`i`e`e`e`e`e`e`e`e`e`e`e`f",
"`````````````````j`k`l`e`e`e`e`e`e`e`e`e`e`e`e`f",
"```````````````m`n`o`e`e`e`e`e`e`e`e`e`e`e`e`e`f",
"`````````````p`q`r`e`e`e`e`e`e`e`e`e`e`e`e`e`e`f",
"```````````s`t`u`e`e`e`e`e`e`e`e`e`e`e`e`e`e`e`f",
"`````````v`w`x`e`e`e`e`e`e`e`e`e`e`e`e`e`e`e`e`f",
"```````y`z`A`e`e`e`e`e`e`e`e`e`e`e`e`e`e`e`e`e`f",
"`````B`C`D`e`e`e`e`E`F`G`e`E`F`G`e`E`F`G`e`E`F`H",
"```I`J`K`L`e`e`e`e`E`F`G`e`E`F`G`e`E`F`G`e`E`F`H",
"`M`N`O`P`e`e`e`e`e`e`e`e`e`e`e`e`e`e`e`e`e`e`e`f",
"`Q`R`S`e`e`e`e`e`e`e`e`e`e`e`e`e`e`e`e`e`e`e`e`f",
"`a`T`e`e`e`e`e`e`e`E`F`G`e`e`e`e`e`e`e`e`e`e`e`f",
"`U`e`e`e`e`e`e`e`e`E`F`G`e`e`e`e`e`e`e`e`e`e`e`f",
"`U`L`e`e`e`e`e`e`e`e`e`e`e`e`e`e`e`e`e`e`e`e`e`f",
"`V`P`e`e`e`e`e`e`e`e`e`e`e`e`e`e`e`e`e`e`e`e`e`f",
"`W`S`e`e`e`e`e`e`e`E`F`G`e`e`e`e`e`a`a`a`a`a`a`a",
"`X`Y`e`e`e`e`e`e`e`E`F`G`e`e`e`e`e`a````````````",
"`X`Y`e`e`e`e`e`e`e`e`e`e`e`e`e`e`e`a````````````",
"`Z`0`e`e`e`e`e`e`e`e`e`e`e`e`e`e`e`a````````````",
"`1`T`e`e`e`e`e`e`e`E`F`G`e`e`e`e`e`a````````````",
"`2`3`e`e`e`e`e`e`e`E`F`G`e`e`e`e`e`a````````````",
"`4`5`f`f`f`f`f`f`f`f`f`f`f`f`f`f`f`a````````````"
};
