/* XPM */
static char *label_layer_icon_xpm[] = {
/* columns rows colors chars-per-pixel */
"20 20 226 2",
"   c #02080E",
".  c #02090F",
"X  c #020910",
"o  c #020A10",
"O  c #020A11",
"+  c #030A11",
"@  c #030B12",
"#  c #030B13",
"$  c #030C12",
"%  c #030C13",
"&  c #030C14",
"*  c #030D14",
"=  c #040D14",
"-  c #040D15",
";  c #040E15",
":  c #040E16",
">  c #040F16",
",  c #040F17",
"<  c #040F18",
"1  c #041018",
"2  c #051018",
"3  c #051019",
"4  c #051119",
"5  c #05111A",
"6  c #05121A",
"7  c #05121B",
"8  c #05121C",
"9  c #05131C",
"0  c #06131C",
"q  c #06131D",
"w  c #06141D",
"e  c #06141E",
"r  c #06151E",
"t  c #06151F",
"y  c #07151F",
"u  c #071520",
"i  c #071620",
"p  c #071621",
"a  c #071721",
"s  c #071722",
"d  c #071822",
"f  c #071823",
"g  c #15558E",
"h  c #165892",
"j  c #175B95",
"k  c #185E99",
"l  c #185F99",
"z  c #19619D",
"x  c #19629D",
"c  c #2B6395",
"v  c #316A9C",
"b  c #306A9E",
"n  c #1A65A1",
"m  c #1F69A3",
"M  c #1C68A4",
"N  c #1D6BA8",
"B  c #1E6EAC",
"V  c #2F77AF",
"C  c #3973A4",
"Z  c #2273B1",
"A  c #2074B4",
"S  c #2177B7",
"D  c #2278B7",
"F  c #227ABB",
"G  c #247DBF",
"H  c #3381BA",
"J  c #5C86AC",
"K  c #4983B1",
"L  c #4488BD",
"P  c #688AAA",
"I  c #678FB3",
"U  c #688DB0",
"Y  c #6790B5",
"T  c #6591B7",
"R  c #7294B4",
"E  c #7B9AB7",
"W  c #7C99B5",
"Q  c #7497B8",
"!  c #7398B9",
"~  c #7399BB",
"^  c #7199BD",
"/  c #7B9BB8",
"(  c #7B9CBA",
")  c #7A9CBB",
"_  c #7F9CB9",
"`  c #7FA1BF",
"'  c #2683C6",
"]  c #2786CA",
"[  c #2886CA",
"{  c #2C86C8",
"}  c #2889CE",
"|  c #3086C6",
" . c #3A8CC9",
".. c #3F91CC",
"X. c #298CD1",
"o. c #298CD2",
"O. c #2A8FD5",
"+. c #2B92D9",
"@. c #2C92D9",
"#. c #2D95DD",
"$. c #2E98E0",
"%. c #2E98E1",
"&. c #2F9BE4",
"*. c #3099E0",
"=. c #339AE2",
"-. c #309FE8",
";. c #31A2EC",
":. c #4693CB",
">. c #4494CE",
",. c #4595CE",
"<. c #4C94CB",
"1. c #4A95CD",
"2. c #5495C6",
"3. c #559ACD",
"4. c #559CD0",
"5. c #6498C1",
"6. c #619CC8",
"7. c #769FC1",
"8. c #5FA2D3",
"9. c #57A7DE",
"0. c #60A0CE",
"q. c #62A1CF",
"w. c #67A1CE",
"e. c #6CA3CE",
"r. c #6CA5CF",
"t. c #7FA2C1",
"y. c #78A4C7",
"u. c #77A6CA",
"i. c #76A6CB",
"p. c #77A7CD",
"a. c #78A5C9",
"s. c #77A8CE",
"d. c #7EACCF",
"f. c #60A1D1",
"g. c #62A5D6",
"h. c #6CA6D2",
"j. c #6BA7D4",
"k. c #77ABD1",
"l. c #77ACD3",
"z. c #73ACD6",
"x. c #77ADD5",
"c. c #79AAD0",
"v. c #7CAED4",
"b. c #7EB4DB",
"n. c #7FB6DD",
"m. c #44ADF1",
"M. c #61AFE5",
"N. c #7FB7E0",
"B. c #73BCED",
"V. c #73BDEF",
"C. c #7DC8F9",
"Z. c #80A0BD",
"A. c #80A0BF",
"S. c #8DA8C2",
"D. c #8CA9C3",
"F. c #8BAAC5",
"G. c #8CA9C5",
"H. c #8FADC9",
"J. c #86AFD0",
"K. c #84B0D2",
"L. c #83B3D7",
"P. c #84B1D4",
"I. c #84B2D6",
"U. c #99BAD3",
"Y. c #9EBCD4",
"T. c #92BAD8",
"R. c #91BDDD",
"E. c #91BEDF",
"W. c #99BEDA",
"Q. c #9FBED8",
"!. c #98BFDC",
"~. c #A2BBD1",
"^. c #80B9E2",
"/. c #80BBE4",
"(. c #81BDE6",
"). c #8CBEE3",
"_. c #A2C4DE",
"`. c #ACC4D8",
"'. c #AFC7DA",
"]. c #AFC8DB",
"[. c #B0C6D9",
"{. c #B0C6DA",
"}. c #92C0E1",
"|. c #8DCEF8",
" X c #98D0F6",
".X c #99D2F8",
"XX c #99D4F9",
"oX c #A7D2EF",
"OX c #B9D1E4",
"+X c #BED5E6",
"@X c #B5D3E9",
"#X c #BFD8EB",
"$X c #C6DBEB",
"%X c #C1DAEC",
"&X c #C2DBED",
"*X c #C2DCEE",
"=X c #C3DCEF",
"-X c #D2E3EF",
";X c #D3E3EF",
":X c #D9E4EE",
">X c #DAE6EF",
",X c #C3E0F4",
"<X c #CDE1F0",
"1X c #C0E2F8",
"2X c #D6E7F4",
"3X c #DCECF7",
"4X c #E7F0F7",
"5X c #EBF3F9",
"6X c #ECF2F8",
"7X c #EEF4F8",
"8X c #EFF4F9",
"9X c #EAF5FC",
"0X c #F0F8FD",
"qX c #F3F8FC",
"wX c #F6FAFC",
"eX c #F7FAFC",
"rX c #F9FBFC",
"tX c #F8FBFD",
"yX c #FBFCFD",
"uX c #FBFCFE",
"iX c #FCFEFF",
"pX c #FDFEFF",
"aX c #FEFEFE",
"sX c #FEFEFF",
"dX c #FFFFFF",
"fX c None",
/* pixels */
"fX.     . . . + + + + $ $ $ $ - - - - < ",
". P W E / ( ( ~.'.'.].].U.y.a.a.p.s.6.< ",
"+ W S.D.G.F.H.yXpXpXpXpX8XK.K.P.J.L.q.9 ",
". R A.A.` A.`.pXpXpXpXpXpXW.c.k.x.x.<.9 ",
". U Q ! ! ^ >XpXpXpXpXpXpX$Xe.r.h.j. .9 ",
"+ J Y Y I y.pXpXpXrXpXpXpXrXw.0.f.8.{ 9 ",
"+ c v v C Y.pXpXpX%X:XpXpXpXR.3.4...[ 9 ",
"+ g h j k :XpXpXpXu.T.pXpXpX<X1.,.[ } u ",
"+ h j l K pXpXpX6XZ H uXpXpXpX,.[ } o.w ",
"+ j l x ~.pXpXpX_.Z S #XpXpXpX).} o.O.w ",
"- l x m 8XpXpXpX2.S F z.pXpXpX3Xo.O.@.w ",
"+ x n 5.pXpXpX4XD F G | uXpXpXpX9.@.#.a ",
"- n M OXpXpXpX7X%X=X=X=XqXpXpXpXoX#.%.y ",
"- M V rXpXpXpXpXpXpXpXpXpXpXpXpX0X=.-.y ",
"- m v.pXpXpXpXpXpXpXpXpXpXpXpXpXpXB.-.a ",
"- B ;XpXpXpX@Xn.N.L.^./.(.,XpXpXpX,X;.f ",
"- L pXpXpXpX:.' ] } o.O.@.M.pXpXpXpXm.f ",
"- !.pXpXpX2X' [ } o.O.@.#.*.9XpXpXpX|.f ",
"4 v.R.R.}.g.[ } o.O.@.#.#.-.B. X.XXXC.f ",
", 4 1 4 4 4 4 4 9 4 w w w w w w y y y y "
};
