/* XPM */
static char *Landscape_xpm[] = {
/* columns rows colors chars-per-pixel */
"20 20 136 2",
"   c #226A18",
".  c #2F781A",
"X  c #2E7B1D",
"o  c #8D7A2D",
"O  c #2D851B",
"+  c #2D861B",
"@  c #38841F",
"#  c #338D1C",
"$  c #3B9D11",
"%  c #359419",
"&  c #3A8C22",
"*  c #418D1D",
"=  c #4E8C1C",
"-  c #48971B",
";  c #51951D",
":  c #678A1F",
">  c #4DA81D",
",  c #53A21E",
"<  c #58B714",
"1  c #62B31F",
"2  c #418A22",
"3  c #488923",
"4  c #538625",
"5  c #499621",
"6  c #4C9329",
"7  c #758535",
"8  c #7A9C3F",
"9  c #58A523",
"0  c #5BB827",
"q  c #5EBC24",
"w  c #58BC2D",
"e  c #5CAF31",
"r  c #5EAD33",
"t  c #55A03C",
"y  c #67BF27",
"u  c #68BF26",
"i  c #68B12A",
"p  c #66BC28",
"a  c #6DB931",
"s  c #62C71A",
"d  c #62C61B",
"f  c #62C81A",
"g  c #69CB1A",
"h  c #6FCB1E",
"j  c #70C31F",
"k  c #71CF1B",
"l  c #74CE1D",
"z  c #76CE1F",
"x  c #7AD01B",
"c  c #79D31C",
"v  c #7CD11E",
"b  c #5DC223",
"n  c #67C124",
"m  c #69C125",
"M  c #6EC327",
"N  c #70C625",
"B  c #71AB65",
"V  c #80803A",
"C  c #879331",
"Z  c #9F9037",
"A  c #B88D3D",
"S  c #BB8C3E",
"D  c #80D71C",
"F  c #81D71D",
"G  c #7BB789",
"H  c #7EB78B",
"J  c #57ADFF",
"K  c #5DAEFF",
"L  c #65B2FF",
"P  c #74BAFF",
"I  c #89BFA4",
"U  c #CFBE93",
"Y  c #CDC3A5",
"T  c #CBC8B7",
"R  c #81B2FF",
"E  c #8BB8FF",
"W  c #A4B6FF",
"Q  c #ABBCFF",
"!  c #B5BCFF",
"~  c #9DCFCD",
"^  c #83C1FF",
"/  c #84C2FF",
"(  c #A6C9FF",
")  c #B9C0FF",
"_  c #B8C2FF",
"`  c #B8C6FF",
"'  c #BBC9FF",
"]  c #BFC8FF",
"[  c #BFCDFF",
"{  c #BED0FF",
"}  c #BAD5FF",
"|  c #B8DCFE",
" . c #BCDDFF",
".. c #C9D0D1",
"X. c #C7D7EA",
"o. c #C7DBEE",
"O. c #C2C7FF",
"+. c #C3CFFF",
"@. c #C6CEFF",
"#. c #C7DDF1",
"$. c #C3D3FF",
"%. c #CDD2FF",
"&. c #CAD4FF",
"*. c #C5DCFB",
"=. c #C1D9FF",
"-. c #C7DAFF",
";. c #C6DCFF",
":. c #CCDAFF",
">. c #CADCFF",
",. c #CFDFFF",
"<. c #D5DBFF",
"1. c #D6DEFF",
"2. c #D6DFFF",
"3. c #D8DBFF",
"4. c #C7E1F8",
"5. c #C3E1FF",
"6. c #C6E2FE",
"7. c #CEE2FF",
"8. c #D6E2FF",
"9. c #D0E4FF",
"0. c #D3E5FF",
"q. c #D6E6FF",
"w. c #D6E7FF",
"e. c #D8E7FF",
"r. c #DDE4FF",
"t. c #DFE4FF",
"y. c #D9E8FF",
"u. c #DFEAFF",
"i. c #E3E8FF",
"p. c #E2ECFF",
"a. c #E5ECFF",
"s. c #E5EEFF",
"d. c #E9ECFF",
"f. c #EBEFFF",
"g. c #EBF0FF",
"h. c #ECF1FF",
/* pixels */
"J J J J J J J J J J K J J J J J J J J J ",
"^ / / / ^ P L K K K K K K K K K K K K K ",
"q.y.y.e.7.:.;.=.} ( E P R R R R R R R R ",
"i.i.r.1.:.&.$.` Q W W W W W W W W W W W ",
") ! ! ! ! ! ! ! ! ! ! ! ! ! ! ! ! O.%.3.",
"_ ) _ _ _ _ _ _ _ ) ' ! O.@.%.<.t.a.f.d.",
"' ' ' ' ' ' ' ' ' ' ' ' ' ' O.8.f.f.f.f.",
"{ { { { { { { { { [ [ $.:.8.a.g.h.f.f.f.",
"-.>.8.e.8.9.y.y.u.p.p.s.p.u.y.e.8.7.9.:.",
"7.y.y.e.q.7.7.>.6.;.;.;.;.;.*.X...T Y U ",
"4.#.o.6.5.|  .| ~ I G H B 8 C Z A S S S ",
"$ : o V 7 = - ; % & & & & & & & & 3 4 2 ",
"< > # + O O X 6 i 9 5 @ X X X X X X X X ",
"a v c v v c v v F F F F v j 1 , * .     ",
"M t N v c c c v c c c c c c c c c c l n ",
"k h n e t r n m p n h k k k k k k k k k ",
"g g g g 0 q g g g g g g g g g g g g g g ",
"f f f f f f f f f f f f f d f d f d f d ",
"b b b b b b b b b b b b b b b b b b b b ",
"w w w w w w w w w w w w w w w w w w w w "
};
