/* XPM */
static char *layers_xpm[] = {
/* width height num_colors chars_per_pixel */
"    16    16      256            2",
/* colors */
"`` c #e8e8e4",
"`. c #878787",
"`# c #5e5e5e",
"`a c #5b5b5b",
"`b c #535352",
"`c c #4b4b4b",
"`d c #424242",
"`e c #393939",
"`f c #303030",
"`g c #292929",
"`h c #2f2f2f",
"`i c #c6c6c3",
"`j c #b6b6b3",
"`k c #707070",
"`l c #f1f1f1",
"`m c #fafafa",
"`n c #f9f9f9",
"`o c #f8f8f8",
"`p c #a7a7a7",
"`q c #dcdcd8",
"`r c #9a9a99",
"`s c #8b8b8b",
"`t c #fefefe",
"`u c #ffffff",
"`v c #6d6d6d",
"`w c #484847",
"`x c #e7e7e3",
"`y c #626262",
"`z c #ececec",
"`A c #dcdcdc",
"`B c #383838",
"`C c #737371",
"`D c #e6e6e6",
"`E c #6a6a6a",
"`F c #c8c8c8",
"`G c #f3f3f3",
"`H c #d9d9d9",
"`I c #bcbcbc",
"`J c #1b1b1a",
"`K c #a1a19e",
"`L c #dddddd",
"`M c #535353",
"`N c #434343",
"`O c #3b3b3b",
"`P c #323232",
"`Q c #2a2a2a",
"`R c #212121",
"`S c #181818",
"`T c #101010",
"`U c #050505",
"`V c #040404",
"`W c #020202",
"`X c #3f3f3e",
"`Y c #fcfcfc",
"`Z c #f2f2f2",
"`0 c #e5e5e5",
"`1 c #d5d5d5",
"`2 c #363636",
"`3 c #6f6f6d",
"`4 c #e4e4e0",
"`5 c #e6e6e2",
"`6 c #808080",
"`7 c #aaaaaa",
"`8 c #ddddda",
".` c #686868",
".. c #cbcbc8",
".# c #525251",
".a c #3a3a3a",
".b c #313131",
".c c #070707",
".d c #060606",
".e c #e5e5e1",
".f c #e3e3df",
".g c #e2e2de",
".h c #e1e1de",
".i c #e1e1dd",
".j c #000000",
".k c #000000",
".l c #000000",
".m c #000000",
".n c #000000",
".o c #000000",
".p c #000000",
".q c #000000",
".r c #000000",
".s c #000000",
".t c #000000",
".u c #000000",
".v c #000000",
".w c #000000",
".x c #000000",
".y c #000000",
".z c #000000",
".A c #000000",
".B c #000000",
".C c #000000",
".D c #000000",
".E c #000000",
".F c #000000",
".G c #000000",
".H c #000000",
".I c #000000",
".J c #000000",
".K c #000000",
".L c #000000",
".M c #000000",
".N c #000000",
".O c #000000",
".P c #000000",
".Q c #000000",
".R c #000000",
".S c #000000",
".T c #000000",
".U c #000000",
".V c #000000",
".W c #000000",
".X c #000000",
".Y c #000000",
".Z c #000000",
".0 c #000000",
".1 c #000000",
".2 c #000000",
".3 c #000000",
".4 c #000000",
".5 c #000000",
".6 c #000000",
".7 c #000000",
".8 c #000000",
"#` c #000000",
"#. c #000000",
"## c #000000",
"#a c #000000",
"#b c #000000",
"#c c #000000",
"#d c #000000",
"#e c #000000",
"#f c #000000",
"#g c #000000",
"#h c #000000",
"#i c #000000",
"#j c #000000",
"#k c #000000",
"#l c #000000",
"#m c #000000",
"#n c #000000",
"#o c #000000",
"#p c #000000",
"#q c #000000",
"#r c #000000",
"#s c #000000",
"#t c #000000",
"#u c #000000",
"#v c #000000",
"#w c #000000",
"#x c #000000",
"#y c #000000",
"#z c #000000",
"#A c #000000",
"#B c #000000",
"#C c #000000",
"#D c #000000",
"#E c #000000",
"#F c #000000",
"#G c #000000",
"#H c #000000",
"#I c #000000",
"#J c #000000",
"#K c #000000",
"#L c #000000",
"#M c #000000",
"#N c #000000",
"#O c #000000",
"#P c #000000",
"#Q c #000000",
"#R c #000000",
"#S c #000000",
"#T c #000000",
"#U c #000000",
"#V c #000000",
"#W c #000000",
"#X c #000000",
"#Y c #000000",
"#Z c #000000",
"#0 c #000000",
"#1 c #000000",
"#2 c #000000",
"#3 c #000000",
"#4 c #000000",
"#5 c #000000",
"#6 c #000000",
"#7 c #000000",
"#8 c #000000",
"a` c #000000",
"a. c #000000",
"a# c #000000",
"aa c #000000",
"ab c #000000",
"ac c #000000",
"ad c #000000",
"ae c #000000",
"af c #000000",
"ag c #000000",
"ah c #000000",
"ai c #000000",
"aj c #000000",
"ak c #000000",
"al c #000000",
"am c #000000",
"an c #000000",
"ao c #000000",
"ap c #000000",
"aq c #000000",
"ar c #000000",
"as c #000000",
"at c #000000",
"au c #000000",
"av c #000000",
"aw c #000000",
"ax c #000000",
"ay c #000000",
"az c #000000",
"aA c #000000",
"aB c #000000",
"aC c #000000",
"aD c #000000",
"aE c #000000",
"aF c #000000",
"aG c #000000",
"aH c #000000",
"aI c #000000",
"aJ c #000000",
"aK c #000000",
"aL c #000000",
"aM c #000000",
"aN c #000000",
"aO c #000000",
"aP c #000000",
"aQ c #000000",
"aR c #000000",
"aS c #000000",
"aT c #000000",
"aU c #000000",
"aV c #000000",
"aW c #000000",
"aX c #000000",
"aY c #000000",
"aZ c #000000",
"a0 c #000000",
"a1 c #000000",
"a2 c #000000",
"a3 c #000000",
"a4 c #000000",
"a5 c #000000",
"a6 c #000000",
"a7 c #000000",
"a8 c #000000",
/* pixels */
"````````````````````````````````",
"````````````````````````````````",
"`.`#`#`#`a`b`c`d`e`f`g`h`i``````",
"`j`k`l`m`m`n`n`n`n`o`o`p`f`q````",
"```r`s`t`u`u`u`u`u`u`t`l`v`w`x``",
"`.`#`y`p`u`u`u`u`u`u`n`z`A`B`C``",
"`j`k`D`E`F`u`u`u`u`u`G`D`H`I`J`K",
"```r`s`L`M`N`O`P`Q`R`S`T`U`V`W`X",
"`.`#`y`p`Y`n`n`o`o`o`Z`0`1`2`3`4",
"`j`k`D`E`F`u`u`u`u`u`G`D`H`I`J`K",
"```r`s`L`M`N`O`P`Q`R`S`T`U`V`W`X",
"```5`6`7`Y`n`n`o`o`o`Z`0`1`2`3`4",
"`````8.``F`u`u`u`u`u`G`D`H`I`J`K",
"``````...#`N.a.b`Q`R`S`T.c.d`W`X",
"````````.e.f.g.g.g.h.i.i.i.i.i`4",
"````````````````````````````````"
};
