/* XPM */
static char *link_icon[] = {
/* columns rows colors chars-per-pixel */
"20 20 74 1",
"  c #000000",
". c #010101",
"X c #020202",
"o c #030303",
"O c #040404",
"+ c #050505",
"@ c #060606",
"# c #070707",
"$ c #080808",
"% c #0A0A0A",
"& c #0B0B0B",
"* c #0C0C0C",
"= c #0D0D0D",
"- c #0E0E0E",
"; c #0F0F0F",
": c #101010",
"> c #121212",
", c #131313",
"< c #141414",
"1 c #151515",
"2 c #191919",
"3 c #1B1B1B",
"4 c #242424",
"5 c #252525",
"6 c #272727",
"7 c #282828",
"8 c #292929",
"9 c #2A2A2A",
"0 c #2C2C2C",
"q c #2D2D2D",
"w c #2F2F2F",
"e c #313131",
"r c #383838",
"t c #3D3D3D",
"y c #3E3E3E",
"u c #3F3F3F",
"i c #424242",
"p c #4B4B4B",
"a c #4F4F4F",
"s c #595959",
"d c #5E5E5E",
"f c #5F5F5F",
"g c #606060",
"h c #636363",
"j c #686868",
"k c #717171",
"l c #757575",
"z c #777777",
"x c #808080",
"c c #818181",
"v c #848484",
"b c #888888",
"n c #8E8E8E",
"m c #909090",
"M c #949494",
"N c #979797",
"B c #999999",
"V c #9B9B9B",
"C c #9F9F9F",
"Z c #A6A6A6",
"A c #ACACAC",
"S c #B2B2B2",
"D c #B6B6B6",
"F c #C0C0C0",
"G c #CACACA",
"H c #CCCCCC",
"J c #D2D2D2",
"K c #D4D4D4",
"L c #DCDCDC",
"P c #DEDEDE",
"I c #DFDFDF",
"U c #E3E3E3",
"Y c #E6E6E6",
"T c None",
/* pixels */
"TTTTTTTXXXXXXTTTTTTT",
"TTTTTTXX49q4@XTTTTTT",
"TTTTTTXie,2qpXTTTTTT",
"TTTTTTXaXXXXy@TTTTTT",
"TTTTTTXrXTTX9@TTTTTT",
"TTTTTTXy@-,&9@TTTTTT",
"TTTTTTXj&hc-y@TTTTTT",
"TTTTTTXn,cA,c@TTTTTT",
"TTTTTTXfyvD2zXTTTTTT",
"TTTTTTTX-mF,XXTTTTTT",
"TTTTTTTX-MG<XTTTTTTT",
"TTTTTTX@eZJ24XTTTTTT",
"TTTTTTXm9ZP2VXTTTTTT",
"TTTTTTXM-zC-s&TTTTTT",
"TTTTTT@j@<<&t-TTTTTT",
"TTTTTTXz@TTXy,TTTTTT",
"TTTTTTXSXTTXf-TTTTTT",
"TTTTTTXHy&@4J&TTTTTT",
"TTTTTT@fPPUYVXTTTTTT",
"TTTTTTTXX@X@XTTTTTTT"
};
