/* XPM */
static char *more_icons_xpm[] = {
/* width height num_colors chars_per_pixel */
"    20    20      256            2",
/* colors */
"`` c #94d28c",
"`. c #94b294",
"`# c #c4b684",
"`a c #8cd27c",
"`b c #bc6e6c",
"`c c #c4d6b4",
"`d c #bcb284",
"`e c #c4c6c4",
"`f c #accaa4",
"`g c #acb6bc",
"`h c #b49e9c",
"`i c #bccebc",
"`j c #c4c6d4",
"`k c #acc2bc",
"`l c #d4928c",
"`m c #849e84",
"`n c #acda94",
"`o c #c4b6b4",
"`p c #d4a6a4",
"`q c #c4ced4",
"`r c #7c96d4",
"`s c #c4c2b4",
"`t c #8cb6e4",
"`u c #acb6cc",
"`v c #8cda7c",
"`w c #bcceb4",
"`x c #94a2c4",
"`y c #acd29c",
"`z c #9cce8c",
"`A c #c4cebc",
"`B c #bcc2bc",
"`C c #e4969c",
"`D c #94be94",
"`E c #d4cecc",
"`F c #bcbecc",
"`G c #94aad4",
"`H c #947674",
"`I c #e4eae4",
"`J c #bcdaa4",
"`K c #d4b2b4",
"`L c #b4becc",
"`M c #c4aaac",
"`N c #d4ae8c",
"`O c #d4bebc",
"`P c #bcc2d4",
"`Q c #a4aed4",
"`R c #7c92bc",
"`S c #d4cacc",
"`T c #d49a9c",
"`U c #b4b6cc",
"`V c #d4d2b4",
"`W c #a4be94",
"`X c #9caad4",
"`Y c #acc6a4",
"`Z c #accaac",
"`0 c #bcbabc",
"`1 c #bcd2bc",
"`2 c #ccc6cc",
"`3 c #b4de94",
"`4 c #ccd2cc",
"`5 c #a4c2e4",
"`6 c #acd2ac",
"`7 c #9cd294",
"`8 c #cccec4",
".` c #d4babc",
".. c #94ce8c",
".# c #cc8a8c",
".a c #ccd6c4",
".b c #b4bec4",
".c c #c49a94",
".d c #9cb2d4",
".e c #c4cec4",
".f c #bcc2cc",
".g c #8c8e9c",
".h c #d4c6c4",
".i c #b4bab4",
".j c #bccad4",
".k c #b4d6a4",
".l c #dca294",
".m c #c4d2dc",
".n c #8caad4",
".o c #c4c2d4",
".p c #acb6dc",
".q c #9cda84",
".r c #a4ce9c",
".s c #e49e9c",
".t c #d4d2cc",
".u c #94aed4",
".v c #f4f2f4",
".w c #dcb2b4",
".x c #d4aaac",
".y c #dcbeb4",
".z c #dc9a9c",
".A c #a4c69c",
".B c #c4a2a4",
".C c #848284",
".D c #9cb29c",
".E c #dcb28c",
".F c #c4dabc",
".G c #acbaa4",
".H c #ccc6c4",
".I c #acce9c",
".J c #c4cacc",
".K c #acc6dc",
".L c #dc9294",
".M c #9c9e9c",
".N c #ccbabc",
".O c #c4d2cc",
".P c #8c9acc",
".Q c #ccbebc",
".R c #acbad4",
".S c #b4d2a4",
".T c #9cca9c",
".U c #c4d2b4",
".V c #bcc6bc",
".W c #9cc694",
".X c #eceaec",
".Y c #bcdeac",
".Z c #ccaeac",
".0 c #d4c2c4",
".1 c #bcc6d4",
".2 c #7c92d4",
".3 c #b4bacc",
".4 c #9caed4",
".5 c #bcc6ac",
".6 c #b4cab4",
".7 c #cccacc",
".8 c #b4d2ac",
"#` c #747a94",
"#. c #ac929c",
"## c #7c8284",
"#a c #a4a68c",
"#b c #cc6e6c",
"#c c #a4d694",
"#d c #ec9e8c",
"#e c #94ce84",
"#f c #cca6a4",
"#g c #d48a8c",
"#h c #cc9a9c",
"#i c #a4b6d4",
"#j c #b4c2d4",
"#k c #94b2e4",
"#l c #bcd6b4",
"#m c #848ebc",
"#n c #cccedc",
"#o c #b4b6c4",
"#p c #dcaeac",
"#q c #b4c6ac",
"#r c #a4d29c",
"#s c #9cbe94",
"#t c #dcbabc",
"#u c #dca2a4",
"#v c #d49694",
"#w c #c4babc",
"#x c #a4c29c",
"#y c #c49e9c",
"#z c #bccecc",
"#A c #b4daa4",
"#B c #ccc2c4",
"#C c #d48e94",
"#D c #94b694",
"#E c #c4ba84",
"#F c #bcd2b4",
"#G c #94a6c4",
"#H c #e49a9c",
"#I c #d4b6b4",
"#J c #d49e9c",
"#K c #bcd6bc",
"#L c #c4d2c4",
"#M c #bcc6cc",
"#N c #dcb6b4",
"#O c #d4aeac",
"#P c #dc9e9c",
"#Q c #cccac4",
"#R c #8c9ecc",
"#S c #b4ceb4",
"#T c #b4bac4",
"#U c #c4d6bc",
"#V c #bccec4",
"#W c #acb6d4",
"#X c #acd2a4",
"#Y c #9cce94",
"#Z c #d4ced4",
"#0 c #94aadc",
"#1 c #e4eaec",
"#2 c #b4bed4",
"#3 c #d4bec4",
"#4 c #b4de9c",
"#5 c #94ce94",
"#6 c #ccd6cc",
"#7 c #9cb2dc",
"#8 c #b4d6ac",
"a` c #dca29c",
"a. c #d4d2d4",
"a# c #94aedc",
"aa c #a4c6a4",
"ab c #acbaac",
"ac c #accea4",
"ad c #c4cad4",
"ae c #c4d2d4",
"af c #c4d2bc",
"ag c #bcc6c4",
"ah c #bcc6dc",
"ai c #b4bad4",
"aj c #9caedc",
"ak c #cccad4",
"al c #b4d2b4",
"am c #a4d69c",
"an c #000000",
"ao c #000000",
"ap c #000000",
"aq c #000000",
"ar c #000000",
"as c #000000",
"at c #000000",
"au c #000000",
"av c #000000",
"aw c #000000",
"ax c #000000",
"ay c #000000",
"az c #000000",
"aA c #000000",
"aB c #000000",
"aC c #000000",
"aD c #000000",
"aE c #000000",
"aF c #000000",
"aG c #000000",
"aH c #000000",
"aI c #000000",
"aJ c #000000",
"aK c #000000",
"aL c #000000",
"aM c #000000",
"aN c #000000",
"aO c #000000",
"aP c #000000",
"aQ c #000000",
"aR c #000000",
"aS c #000000",
"aT c #000000",
"aU c #000000",
"aV c #000000",
"aW c #000000",
"aX c #000000",
"aY c #000000",
"aZ c #000000",
"a0 c #000000",
"a1 c #000000",
"a2 c #000000",
"a3 c #000000",
"a4 c #000000",
"a5 c #000000",
"a6 c #000000",
"a7 c #000000",
"a8 c #000000",
/* pixels */
".v.X`I.X`I.X`I.X`I.X`I.X`I.X`I.X`I.X`I.X",
".X#T`G.R`W`3`s.#`p`D.k.D.G`.`e`.`i`.#qa.",
"#1`4#la.#S`ia.#S.S.e.W.e.S`i`Ua#`P#r..a.",
".X.t#l`4#S`ma.#S.S`e.e.e#q`B#W#7ad.A`7a.",
".X.h#J`K.R`X.i#c.k.`#u.h#0.p.6`v`Z#p`Ca.",
"`Ia..g`0`ia.a..C.Ca.``.M.i`4.i`H.M`g##a.",
".Xad`G`5`f`n.a.z.#.Kaj`k#4#A#N#P`M`Q#0a.",
".X.e.q#F`p#b`Faj.1.F..#L#g`Tada##j`7#`a.",
".X.t`Jaf`K.#ad#2.1#U`6#L#f`p`q`Q.3`6aca.",
"#1`S`l`K`g`R`e`n`Y`h`b.h#G`xab.Yaf.B#y.h",
".Xa.a.a.`4#V#Z.Q.Qak`Qa.#Fala..sa.a.a.a.",
".X#Mai.Raf.T`8#O#f.3.P.7`D.r.h#P#B`e`ea.",
".Xa.#n.t.d#k#z#e#Y`p#g.B#J#v#N.z#N`r.2.J",
"`Ia..7.o.j#j`i.8#q`o#a.Q`S#3.0`K#3#2#2a.",
".Xad#i.1#F`y`S#h.Z.T#5aa.J.6.t.0.Z#n`Q.J",
".X.ta.a.a.a.a.a.a..f`5#n.k`J.m.n#M.S`ya.",
".Xa..y.c.t`l`o`V`d`Fad`eaf#L`e.J#T.e#F`e",
"`I`e`R`F#s#X.t#e.I`F.R#o#l#l.h#I`o#P.s.h",
".X#w#..N`W`6`4.8`w`4a.`ea.a.a.a.`e`N.E.t",
"`I#I#P`pal.6ag#j#2#U.F.V.P`u`w`7`4`##Ea."
};
