/* XPM */
static char *new_layer_xpm[] = {
/* width height num_colors chars_per_pixel */
"    16    16      256            2",
/* colors */
"`` c #e8e8e4",
"`. c #000000",
"`# c #848483",
"`a c #5a5a5a",
"`b c #575757",
"`c c #4e4e4e",
"`d c #454545",
"`e c #3d3d3d",
"`f c #343434",
"`g c #2b2b2b",
"`h c #232323",
"`i c #282828",
"`j c #c3c3c0",
"`k c #b9b9b7",
"`l c #707070",
"`m c #f4f4f4",
"`n c #ffffff",
"`o c #aeaeae",
"`p c #2e2e2d",
"`q c #dadad6",
"`r c #9e9e9c",
"`s c #878787",
"`t c #fefefe",
"`u c #f1f1f1",
"`v c #727272",
"`w c #424241",
"`x c #e6e6e2",
"`y c #bbbbb9",
"`z c #a7a7a5",
"`A c #737372",
"`B c #a4a4a4",
"`C c #f8f8f8",
"`D c #ebebeb",
"`E c #dcdcdc",
"`F c #3c3c3c",
"`G c #6d6d6b",
"`H c #d3d3d0",
"`I c #afafad",
"`J c #e5e5e3",
"`K c #6b6b6b",
"`L c #c5c5c5",
"`M c #f3f3f3",
"`N c #e6e6e6",
"`O c #d9d9d9",
"`P c #bebebe",
"`Q c #1d1d1d",
"`R c #9c9c99",
"`S c #b5b5b3",
"`T c #d7d7d5",
"`U c #525252",
"`V c #3e3e3e",
"`W c #353535",
"`X c #2c2c2c",
"`Y c #242424",
"`Z c #1b1b1b",
"`0 c #121212",
"`1 c #090909",
"`2 c #010101",
"`3 c #414140",
"`4 c #b0b0ae",
"`5 c #c2c2bf",
"`6 c #f3f3f1",
"`7 c #eeeeec",
"`8 c #e8e8e6",
".` c #e2e2e0",
".. c #dadad8",
".# c #939391",
".a c #adadaa",
".b c #e3e3df",
".c c #9f9f9d",
".d c #d2d2d0",
".e c #f2f2f0",
".f c #ececea",
".g c #e6e6e4",
".h c #dfdfdd",
".i c #d9d9d7",
".j c #cdcdca",
".k c #858583",
".l c #d9d9d5",
".m c #90908e",
".n c #868684",
".o c #828280",
".p c #7e7e7c",
".q c #7a7a77",
".r c #787876",
".s c #979795",
".t c #000000",
".u c #000000",
".v c #000000",
".w c #000000",
".x c #000000",
".y c #000000",
".z c #000000",
".A c #000000",
".B c #000000",
".C c #000000",
".D c #000000",
".E c #000000",
".F c #000000",
".G c #000000",
".H c #000000",
".I c #000000",
".J c #000000",
".K c #000000",
".L c #000000",
".M c #000000",
".N c #000000",
".O c #000000",
".P c #000000",
".Q c #000000",
".R c #000000",
".S c #000000",
".T c #000000",
".U c #000000",
".V c #000000",
".W c #000000",
".X c #000000",
".Y c #000000",
".Z c #000000",
".0 c #000000",
".1 c #000000",
".2 c #000000",
".3 c #000000",
".4 c #000000",
".5 c #000000",
".6 c #000000",
".7 c #000000",
".8 c #000000",
"#` c #000000",
"#. c #000000",
"## c #000000",
"#a c #000000",
"#b c #000000",
"#c c #000000",
"#d c #000000",
"#e c #000000",
"#f c #000000",
"#g c #000000",
"#h c #000000",
"#i c #000000",
"#j c #000000",
"#k c #000000",
"#l c #000000",
"#m c #000000",
"#n c #000000",
"#o c #000000",
"#p c #000000",
"#q c #000000",
"#r c #000000",
"#s c #000000",
"#t c #000000",
"#u c #000000",
"#v c #000000",
"#w c #000000",
"#x c #000000",
"#y c #000000",
"#z c #000000",
"#A c #000000",
"#B c #000000",
"#C c #000000",
"#D c #000000",
"#E c #000000",
"#F c #000000",
"#G c #000000",
"#H c #000000",
"#I c #000000",
"#J c #000000",
"#K c #000000",
"#L c #000000",
"#M c #000000",
"#N c #000000",
"#O c #000000",
"#P c #000000",
"#Q c #000000",
"#R c #000000",
"#S c #000000",
"#T c #000000",
"#U c #000000",
"#V c #000000",
"#W c #000000",
"#X c #000000",
"#Y c #000000",
"#Z c #000000",
"#0 c #000000",
"#1 c #000000",
"#2 c #000000",
"#3 c #000000",
"#4 c #000000",
"#5 c #000000",
"#6 c #000000",
"#7 c #000000",
"#8 c #000000",
"a` c #000000",
"a. c #000000",
"a# c #000000",
"aa c #000000",
"ab c #000000",
"ac c #000000",
"ad c #000000",
"ae c #000000",
"af c #000000",
"ag c #000000",
"ah c #000000",
"ai c #000000",
"aj c #000000",
"ak c #000000",
"al c #000000",
"am c #000000",
"an c #000000",
"ao c #000000",
"ap c #000000",
"aq c #000000",
"ar c #000000",
"as c #000000",
"at c #000000",
"au c #000000",
"av c #000000",
"aw c #000000",
"ax c #000000",
"ay c #000000",
"az c #000000",
"aA c #000000",
"aB c #000000",
"aC c #000000",
"aD c #000000",
"aE c #000000",
"aF c #000000",
"aG c #000000",
"aH c #000000",
"aI c #000000",
"aJ c #000000",
"aK c #000000",
"aL c #000000",
"aM c #000000",
"aN c #000000",
"aO c #000000",
"aP c #000000",
"aQ c #000000",
"aR c #000000",
"aS c #000000",
"aT c #000000",
"aU c #000000",
"aV c #000000",
"aW c #000000",
"aX c #000000",
"aY c #000000",
"aZ c #000000",
"a0 c #000000",
"a1 c #000000",
"a2 c #000000",
"a3 c #000000",
"a4 c #000000",
"a5 c #000000",
"a6 c #000000",
"a7 c #000000",
"a8 c #000000",
/* pixels */
"`````.`.````````````````````````",
"`````.`.````````````````````````",
"`.`.`.`.`.`.````````````````````",
"`.`.`.`.`.`.````````````````````",
"`````.`.````````````````````````",
"`````.`.````````````````````````",
"````````````````````````````````",
"`#`a`a`a`b`c`d`e`f`g`h`i`j``````",
"`k`l`m`n`n`n`n`n`n`n`n`o`p`q````",
"```r`s`t`n`n`n`n`n`n`t`u`v`w`x``",
"`y`z`A`B`n`n`n`n`n`n`C`D`E`F`G``",
"`H`I`J`K`L`n`n`n`n`n`M`N`O`P`Q`R",
"```j`S`T`U`V`W`X`Y`Z`0`1`2`.`.`3",
"`````4`5`6`6`6`6`6`7`8.`...#.a``",
"````.b.c.d`6`6`6.e.f.g.h.i.j.k`j",
"``````.l.m.n.o.p.q.r.r.r.r.r.r.s"
};
