/* XPM */
static char *node_symmetric_xpm[] = {
/* width height num_colors chars_per_pixel */
"    16    16      256            2",
/* colors */
"`` c #e8e8e4",
"`. c #b8b8b5",
"`# c #e1e1dd",
"`a c #e4e4e0",
"`b c #b3b3b0",
"`c c #787878",
"`d c #d3d3d0",
"`e c #dadad6",
"`f c #717171",
"`g c #7d7d7c",
"`h c #cfcfcc",
"`i c #d4d4d1",
"`j c #777777",
"`k c #878786",
"`l c #bfbfbc",
"`m c #c3c3c0",
"`n c #828281",
"`o c #b4b4b2",
"`p c #8d8d8c",
"`q c #90908f",
"`r c #b1b1af",
"`s c #e2e2de",
"`t c #6d6d6d",
"`u c #dcdcd8",
"`v c #6e6e6e",
"`w c #9e9e9c",
"`x c #8b8b8a",
"`y c #e5e5e1",
"`z c #e3e3df",
"`A c #8a8a89",
"`B c #a0a09e",
"`C c #e6e6e2",
"`D c #929291",
"`E c #2929fa",
"`F c #0505fe",
"`G c #3030fa",
"`H c #e0e0dc",
"`I c #838382",
"`J c #959593",
"`K c #e7e7e3",
"`L c #959594",
"`M c #7c7c7b",
"`N c #0404fd",
"`O c #a6a6e7",
"`P c #b3b3ee",
"`Q c #b3b3ed",
"`R c #a0a0e7",
"`S c #0909fb",
"`T c #777776",
"`U c #9b9b99",
"`V c #e3e3e3",
"`W c #e1e1e5",
"`X c #e5e5e4",
"`Y c #1b1bfc",
"`Z c #0000ff",
"`0 c #1414fd",
"`1 c #e0e0e4",
"`2 c #c4c4c1",
"`3 c #0303fc",
"`4 c #6c6cae",
"`5 c #6767a4",
"`6 c #6969b2",
"`7 c #0808fa",
"`8 c #c7c7c4",
".` c #e0e0e5",
".. c #1212fd",
".# c #0606fe",
".a c #2626fb",
".b c #b4b4ef",
".c c #5e5e6e",
".d c #646464",
".e c #0202fb",
".f c #6161a4",
".g c #6464a1",
".h c #5e5ea7",
".i c #0606f8",
".j c #a9a9f0",
".k c #0c0cfe",
".l c #aeaeef",
".m c #000000",
".n c #000000",
".o c #000000",
".p c #000000",
".q c #000000",
".r c #000000",
".s c #000000",
".t c #000000",
".u c #000000",
".v c #000000",
".w c #000000",
".x c #000000",
".y c #000000",
".z c #000000",
".A c #000000",
".B c #000000",
".C c #000000",
".D c #000000",
".E c #000000",
".F c #000000",
".G c #000000",
".H c #000000",
".I c #000000",
".J c #000000",
".K c #000000",
".L c #000000",
".M c #000000",
".N c #000000",
".O c #000000",
".P c #000000",
".Q c #000000",
".R c #000000",
".S c #000000",
".T c #000000",
".U c #000000",
".V c #000000",
".W c #000000",
".X c #000000",
".Y c #000000",
".Z c #000000",
".0 c #000000",
".1 c #000000",
".2 c #000000",
".3 c #000000",
".4 c #000000",
".5 c #000000",
".6 c #000000",
".7 c #000000",
".8 c #000000",
"#` c #000000",
"#. c #000000",
"## c #000000",
"#a c #000000",
"#b c #000000",
"#c c #000000",
"#d c #000000",
"#e c #000000",
"#f c #000000",
"#g c #000000",
"#h c #000000",
"#i c #000000",
"#j c #000000",
"#k c #000000",
"#l c #000000",
"#m c #000000",
"#n c #000000",
"#o c #000000",
"#p c #000000",
"#q c #000000",
"#r c #000000",
"#s c #000000",
"#t c #000000",
"#u c #000000",
"#v c #000000",
"#w c #000000",
"#x c #000000",
"#y c #000000",
"#z c #000000",
"#A c #000000",
"#B c #000000",
"#C c #000000",
"#D c #000000",
"#E c #000000",
"#F c #000000",
"#G c #000000",
"#H c #000000",
"#I c #000000",
"#J c #000000",
"#K c #000000",
"#L c #000000",
"#M c #000000",
"#N c #000000",
"#O c #000000",
"#P c #000000",
"#Q c #000000",
"#R c #000000",
"#S c #000000",
"#T c #000000",
"#U c #000000",
"#V c #000000",
"#W c #000000",
"#X c #000000",
"#Y c #000000",
"#Z c #000000",
"#0 c #000000",
"#1 c #000000",
"#2 c #000000",
"#3 c #000000",
"#4 c #000000",
"#5 c #000000",
"#6 c #000000",
"#7 c #000000",
"#8 c #000000",
"a` c #000000",
"a. c #000000",
"a# c #000000",
"aa c #000000",
"ab c #000000",
"ac c #000000",
"ad c #000000",
"ae c #000000",
"af c #000000",
"ag c #000000",
"ah c #000000",
"ai c #000000",
"aj c #000000",
"ak c #000000",
"al c #000000",
"am c #000000",
"an c #000000",
"ao c #000000",
"ap c #000000",
"aq c #000000",
"ar c #000000",
"as c #000000",
"at c #000000",
"au c #000000",
"av c #000000",
"aw c #000000",
"ax c #000000",
"ay c #000000",
"az c #000000",
"aA c #000000",
"aB c #000000",
"aC c #000000",
"aD c #000000",
"aE c #000000",
"aF c #000000",
"aG c #000000",
"aH c #000000",
"aI c #000000",
"aJ c #000000",
"aK c #000000",
"aL c #000000",
"aM c #000000",
"aN c #000000",
"aO c #000000",
"aP c #000000",
"aQ c #000000",
"aR c #000000",
"aS c #000000",
"aT c #000000",
"aU c #000000",
"aV c #000000",
"aW c #000000",
"aX c #000000",
"aY c #000000",
"aZ c #000000",
"a0 c #000000",
"a1 c #000000",
"a2 c #000000",
"a3 c #000000",
"a4 c #000000",
"a5 c #000000",
"a6 c #000000",
"a7 c #000000",
"a8 c #000000",
/* pixels */
"````````````````````````````````",
"`.`#`````````````````````````a`b",
"`c`d`````````````````````````e`f",
"`g`h`````````````````````````i`j",
"`k`l`````````````````````````m`n",
"`o`p`````````````````````````q`r",
"`s`t`u`````````````````````u`v`s",
"```w`x`y`````````````````z`A`B``",
"```C`D`A`a`E`F`F`F`F`G`H`I`J`C``",
"`````K`L`M`N`O`P`Q`R`S`T`U`V`W`X",
"`Y`Z`0`1`2`3`4`5`5`6`7`8.`...#.a",
"`Z.b`S.c.d.e.f.g.g.h.i.d.c`S.j.k",
"`Y.#`0`W```F.l.b.b.j.k```W`0`Z`E",
"```````````E`F`F`F`F`G``````````",
"````````````````````````````````",
"````````````````````````````````"
};
