/* XPM */
static char *nodes_show_helperpath_xpm[] = {
/* width height num_colors chars_per_pixel */
"    16    16      256            2",
/* colors */
"`` c #e8e8e4",
"`. c #2222fb",
"`# c #0000ff",
"`a c #0606fe",
"`b c #aeaef0",
"`c c #b4b4ee",
"`d c #e8e6e2",
"`e c #edb3b0",
"`f c #f46f6d",
"`g c #f94948",
"`h c #0602fa",
"`i c #bc3074",
"`j c #c13a76",
"`k c #e9e1dd",
"`l c #f37977",
"`m c #fe1413",
"`n c #fd3231",
"`o c #fc7b7a",
"`p c #fbaead",
"`q c #0605fe",
"`r c #b4a8f0",
"`s c #bc2b6d",
"`t c #aaa6eb",
"`u c #ecc1be",
"`v c #fd1e1d",
"`w c #fc5959",
"`x c #fadcdb",
"`y c #f9f9f8",
"`z c #2b2bfe",
"`A c #0601fa",
"`B c #2929fa",
"`C c #ebc5c2",
"`D c #fd1818",
"`E c #fba5a4",
"`F c #fc4848",
"`G c #f18d8b",
"`H c #f84e4d",
"`I c #fc8786",
"`J c #fac8c8",
"`K c #fd1c1c",
"`L c #e8e3e0",
"`M c #ead7d3",
"`N c #fe0f0f",
"`O c #faebea",
"`P c #f9f6f5",
"`Q c #fd3e3d",
"`R c #f28986",
"`S c #f28381",
"`T c #fc5c5c",
"`U c #fc7271",
"`V c #f94544",
"`W c #fa3838",
"`X c #fbb7b6",
"`Y c #fc8685",
"`Z c #fc2626",
"`0 c #e9dad7",
"`1 c #e5e5e4",
"`2 c #e1e1e5",
"`3 c #f4232b",
"`4 c #f2cbd2",
"`5 c #f5f5f8",
"`6 c #f9f4f3",
"`7 c #fc6262",
"`8 c #fb3231",
".` c #ead4d0",
".. c #2626fb",
".# c #0b0bfe",
".a c #0d02f4",
".b c #0d0cfe",
".c c #1616fe",
".d c #f5f3f6",
".e c #fba0a0",
".f c #fd2121",
".g c #f85250",
".h c #e9e0dc",
".i c #0c0cfe",
".j c #a9a9f0",
".k c #c22b68",
".l c #c08dc9",
".m c #0603fc",
".n c #f5252d",
".o c #edb2af",
".p c #a9a8ee",
".q c #bf4885",
".r c #bf4f8c",
".s c #e6aeb3",
".t c #9999f1",
".u c #a3a3f1",
".v c #3d3df8",
".w c #1313fd",
".x c #2d2dfa",
".y c #000000",
".z c #000000",
".A c #000000",
".B c #000000",
".C c #000000",
".D c #000000",
".E c #000000",
".F c #000000",
".G c #000000",
".H c #000000",
".I c #000000",
".J c #000000",
".K c #000000",
".L c #000000",
".M c #000000",
".N c #000000",
".O c #000000",
".P c #000000",
".Q c #000000",
".R c #000000",
".S c #000000",
".T c #000000",
".U c #000000",
".V c #000000",
".W c #000000",
".X c #000000",
".Y c #000000",
".Z c #000000",
".0 c #000000",
".1 c #000000",
".2 c #000000",
".3 c #000000",
".4 c #000000",
".5 c #000000",
".6 c #000000",
".7 c #000000",
".8 c #000000",
"#` c #000000",
"#. c #000000",
"## c #000000",
"#a c #000000",
"#b c #000000",
"#c c #000000",
"#d c #000000",
"#e c #000000",
"#f c #000000",
"#g c #000000",
"#h c #000000",
"#i c #000000",
"#j c #000000",
"#k c #000000",
"#l c #000000",
"#m c #000000",
"#n c #000000",
"#o c #000000",
"#p c #000000",
"#q c #000000",
"#r c #000000",
"#s c #000000",
"#t c #000000",
"#u c #000000",
"#v c #000000",
"#w c #000000",
"#x c #000000",
"#y c #000000",
"#z c #000000",
"#A c #000000",
"#B c #000000",
"#C c #000000",
"#D c #000000",
"#E c #000000",
"#F c #000000",
"#G c #000000",
"#H c #000000",
"#I c #000000",
"#J c #000000",
"#K c #000000",
"#L c #000000",
"#M c #000000",
"#N c #000000",
"#O c #000000",
"#P c #000000",
"#Q c #000000",
"#R c #000000",
"#S c #000000",
"#T c #000000",
"#U c #000000",
"#V c #000000",
"#W c #000000",
"#X c #000000",
"#Y c #000000",
"#Z c #000000",
"#0 c #000000",
"#1 c #000000",
"#2 c #000000",
"#3 c #000000",
"#4 c #000000",
"#5 c #000000",
"#6 c #000000",
"#7 c #000000",
"#8 c #000000",
"a` c #000000",
"a. c #000000",
"a# c #000000",
"aa c #000000",
"ab c #000000",
"ac c #000000",
"ad c #000000",
"ae c #000000",
"af c #000000",
"ag c #000000",
"ah c #000000",
"ai c #000000",
"aj c #000000",
"ak c #000000",
"al c #000000",
"am c #000000",
"an c #000000",
"ao c #000000",
"ap c #000000",
"aq c #000000",
"ar c #000000",
"as c #000000",
"at c #000000",
"au c #000000",
"av c #000000",
"aw c #000000",
"ax c #000000",
"ay c #000000",
"az c #000000",
"aA c #000000",
"aB c #000000",
"aC c #000000",
"aD c #000000",
"aE c #000000",
"aF c #000000",
"aG c #000000",
"aH c #000000",
"aI c #000000",
"aJ c #000000",
"aK c #000000",
"aL c #000000",
"aM c #000000",
"aN c #000000",
"aO c #000000",
"aP c #000000",
"aQ c #000000",
"aR c #000000",
"aS c #000000",
"aT c #000000",
"aU c #000000",
"aV c #000000",
"aW c #000000",
"aX c #000000",
"aY c #000000",
"aZ c #000000",
"a0 c #000000",
"a1 c #000000",
"a2 c #000000",
"a3 c #000000",
"a4 c #000000",
"a5 c #000000",
"a6 c #000000",
"a7 c #000000",
"a8 c #000000",
/* pixels */
"```````````````````````.`#`#`#`.",
"```````````````````````a`b`c`b`a",
"```````````````d`e`f`g`h`i`j`b`a",
"```````````k`l`m`n`o`p`q`r`s`t`a",
"`````````u`v`w`x`y`y`y`z`q`A`a`B",
"```````C`D`E`y`y`y`y`y`y`F`G````",
"```````H`I`y`y`y`y`y`y`J`K`L````",
"`````M`N`O`y`y`y`y`y`P`Q`R``````",
"`````S`T`y`y`y`y`y`y`U`V`d``````",
"`````W`X`y`y`y`y`y`Y`Z`0````````",
"`1`2`3`4`5`y`y`6`7`8.```````````",
"...#.a.b.c.d.e.f.g.h````````````",
".i.j.k.l.m.n`W.o````````````````",
".i.p.q.r.m.s````````````````````",
".i.t.u.u`a`2````````````````````",
".v.w.w.w.x`1````````````````````"
};
