/* XPM */
static char *node_valign_xpm[] = {
/* width height num_colors chars_per_pixel */
"    24    24      256            2",
/* colors */
"`` c #c2c2c0",
"`. c #c4c4c2",
"`# c #e7e7e3",
"`a c #e8e8e4",
"`b c #c80000",
"`c c #ddddda",
"`d c #acacab",
"`e c #a1a1a0",
"`f c #b9b9b8",
"`g c #d1d1cf",
"`h c #e3e3df",
"`i c #191afc",
"`j c #0000ff",
"`k c #1314fc",
"`l c #e1e1e5",
"`m c #d8d8d4",
"`n c #bfbfbd",
"`o c #a8a8a7",
"`p c #9a9a9a",
"`q c #9e9e9d",
"`r c #acacaa",
"`s c #b9b9b7",
"`t c #8ab3de",
"`u c #0b0cfd",
"`v c #d9d9e6",
"`w c #dededa",
"`x c #d0d0cd",
"`y c #0a0bfc",
"`z c #cbcbd9",
"`A c #9898a7",
"`B c #9d9d9d",
"`C c #babab8",
"`D c #e6e6e2",
"`E c #b1b1b0",
"`F c #aaaaa9",
"`G c #e4e4e0",
"`H c #adadac",
"`I c #cdcdca",
"`J c #c3c3c1",
"`K c #2021fb",
"`L c #1112fc",
"`M c #dcdce5",
"`N c #d9d9d6",
"`O c #d6d6d3",
"`P c #0606ff",
"`Q c #86addf",
"`R c #0e11fb",
"`S c #b0b0c6",
"`T c #a9a9a8",
"`U c #cacac8",
"`V c #e4e4e1",
"`W c #d4d4d1",
"`X c #0505fe",
"`Y c #0d10fa",
"`Z c #a9a9c0",
"`0 c #e2e2de",
"`1 c #c6c6c4",
"`2 c #9b9b9a",
"`3 c #0f12fc",
"`4 c #d2d2e7",
"`5 c #9b9b9b",
"`6 c #b3b3b2",
"`7 c #d1d1ce",
"`8 c #b5b5b3",
".` c #a4a4a4",
".. c #cececc",
".# c #a6a6a6",
".a c #c8c8c6",
".b c #9c9c9c",
".c c #b2b2b1",
".d c #d8d8d5",
".e c #9e9e9e",
".f c #b6b6b4",
".g c #e4e4e4",
".h c #1718fc",
".i c #a4a4a3",
".j c #999999",
".k c #a2a2a1",
".l c #afafae",
".m c #bcbcba",
".n c #c3c3c9",
".o c #0506fd",
".p c #0506fe",
".q c #dbdbd8",
".r c #cececb",
".s c #c1c1bf",
".t c #adadb4",
".u c #0405fd",
".v c #a8a8af",
".w c #b5b5b4",
".x c #bdbdbb",
".y c #c8c8c5",
".z c #c9c9cf",
".A c #c0c0be",
".B c #a5a5a4",
".C c #c5c5c3",
".D c #e5e5e1",
".E c #d3d3d0",
".F c #c9c9c6",
".G c #dededb",
".H c #dadad7",
".I c #000000",
".J c #000000",
".K c #000000",
".L c #000000",
".M c #000000",
".N c #000000",
".O c #000000",
".P c #000000",
".Q c #000000",
".R c #000000",
".S c #000000",
".T c #000000",
".U c #000000",
".V c #000000",
".W c #000000",
".X c #000000",
".Y c #000000",
".Z c #000000",
".0 c #000000",
".1 c #000000",
".2 c #000000",
".3 c #000000",
".4 c #000000",
".5 c #000000",
".6 c #000000",
".7 c #000000",
".8 c #000000",
"#` c #000000",
"#. c #000000",
"## c #000000",
"#a c #000000",
"#b c #000000",
"#c c #000000",
"#d c #000000",
"#e c #000000",
"#f c #000000",
"#g c #000000",
"#h c #000000",
"#i c #000000",
"#j c #000000",
"#k c #000000",
"#l c #000000",
"#m c #000000",
"#n c #000000",
"#o c #000000",
"#p c #000000",
"#q c #000000",
"#r c #000000",
"#s c #000000",
"#t c #000000",
"#u c #000000",
"#v c #000000",
"#w c #000000",
"#x c #000000",
"#y c #000000",
"#z c #000000",
"#A c #000000",
"#B c #000000",
"#C c #000000",
"#D c #000000",
"#E c #000000",
"#F c #000000",
"#G c #000000",
"#H c #000000",
"#I c #000000",
"#J c #000000",
"#K c #000000",
"#L c #000000",
"#M c #000000",
"#N c #000000",
"#O c #000000",
"#P c #000000",
"#Q c #000000",
"#R c #000000",
"#S c #000000",
"#T c #000000",
"#U c #000000",
"#V c #000000",
"#W c #000000",
"#X c #000000",
"#Y c #000000",
"#Z c #000000",
"#0 c #000000",
"#1 c #000000",
"#2 c #000000",
"#3 c #000000",
"#4 c #000000",
"#5 c #000000",
"#6 c #000000",
"#7 c #000000",
"#8 c #000000",
"a` c #000000",
"a. c #000000",
"a# c #000000",
"aa c #000000",
"ab c #000000",
"ac c #000000",
"ad c #000000",
"ae c #000000",
"af c #000000",
"ag c #000000",
"ah c #000000",
"ai c #000000",
"aj c #000000",
"ak c #000000",
"al c #000000",
"am c #000000",
"an c #000000",
"ao c #000000",
"ap c #000000",
"aq c #000000",
"ar c #000000",
"as c #000000",
"at c #000000",
"au c #000000",
"av c #000000",
"aw c #000000",
"ax c #000000",
"ay c #000000",
"az c #000000",
"aA c #000000",
"aB c #000000",
"aC c #000000",
"aD c #000000",
"aE c #000000",
"aF c #000000",
"aG c #000000",
"aH c #000000",
"aI c #000000",
"aJ c #000000",
"aK c #000000",
"aL c #000000",
"aM c #000000",
"aN c #000000",
"aO c #000000",
"aP c #000000",
"aQ c #000000",
"aR c #000000",
"aS c #000000",
"aT c #000000",
"aU c #000000",
"aV c #000000",
"aW c #000000",
"aX c #000000",
"aY c #000000",
"aZ c #000000",
"a0 c #000000",
"a1 c #000000",
"a2 c #000000",
"a3 c #000000",
"a4 c #000000",
"a5 c #000000",
"a6 c #000000",
"a7 c #000000",
"a8 c #000000",
/* pixels */
"```.`#`a`a`a`a`a`a`a`a`b`a`a`a`a`a`a`a`a`a`a`a`a",
"`c`d`e`f`g`h`a`a`a`i`j`j`j`k`l`a`a`a`a`a`a`a`a`a",
"`a`a`m`n`o`p`q`r`s`j`t`t`t`u`v`a`a`a`a`a`a`a`a`a",
"`a`a`a`a`a`a`w`x```j`t`t`t`y`z`a`a`a`a`a`a`a`a`a",
"`a`a`a`a`a`a`a`a`a`j`t`t`t`y`A`B`C`D`a`a`a`a`a`a",
"`a`a`a`a`a`a`a`a`a`i`j`j`j`k`l`c`E`F`G`a`a`a`a`a",
"`a`a`a`a`a`a`a`a`a`a`a`b`a`a`a`a`a`H`I`a`a`a`a`a",
"`a`a`a`a`a`a`a`a`a`a`a`b`a`a`a`a`a`s`J`a`a`a`a`a",
"`a`a`a`a`a`a`a`a`a`K`j`j`j`L`M`a`N`B`O`a`a`a`a`a",
"`a`a`a`a`a`a`a`a`a`P`Q`t`t`R`S`T`B`U`a`a`a`a`a`a",
"`a`a`a`a`a`a`V`W```X`Q`t`t`Y`Z`x`#`a`a`a`a`a`a`a",
"`a`a`a`0`1`o`2`T`f`X`Q`t`t`3`4`a`a`a`a`a`a`a`a`a",
"`a`a`1`5`6`7`#`a`a`K`j`j`j`L`M`a`a`a`a`a`a`a`a`a",
"`#`8.``c`a`a`a`a`a`a`a`b`a`a`a`a`a`a`a`a`a`a`a`a",
"...#`V`a`a`a`a`a`a`a`a`b`a`a`a`a`a`a`a`a`a`a`a`a",
"`E.a`a`a`a`a`a`a`a`a`a`b`a`a`a`a`a`a`a`a`a`a`a`a",
".b`w`a`a`a`a`a`a`a`a`a`b`a`a`a`a`a`a`a`a`a`a`a`a",
".c`J`a`a`a`a`a`a`a`a`a`b`a`a`a`a`a`a`a`a`a`a`a`a",
".d.e.f`N`D`a`a`a.g.h`j`j`j.h.g`a`a`a`a`a`a`a`a`a",
"`a`G`n.i.j.k.l.m.n.o`t`t`t.p`l`a`a`a`a`a`a`a`a`a",
"`a`a`a`a`#.q.r.s.t.u`t`t`t.u.v.w.x.y`N`#`a`a`a`a",
"`a`a`a`a`a`a`a`a`l.p`t`t`t.p.z.y.A.f.B`p`T.C`G`a",
"`a`a`a`a`a`a`a`a.g.h`j`j`j.h.g`a`a`a`a.D.E.c.b.F",
"`a`a`a`a`a`a`a`a`a`a`a`b`a`a`a`a`a`a`a`a`a`a.G.H"
};
