/* XPM */
static char *node_delete_segment_xpm[] = {
/* width height num_colors chars_per_pixel */
"    16    16      256            2",
/* colors */
"`` c #e8e8e4",
"`. c #7676fb",
"`# c #6464ff",
"`a c #6f6ffd",
"`b c #e4e4e5",
"`c c #7272fc",
"`d c #7171fc",
"`e c #e6e6e4",
"`f c #6767fe",
"`g c #b1b1f0",
"`h c #b4b4ef",
"`i c #6a6afe",
"`j c #e0e0e6",
"`k c #aaaaa8",
"`l c #6464fc",
"`m c #6464a4",
"`n c #6464a1",
"`o c #6464f8",
"`p c #64646e",
"`q c #646464",
"`r c #a4a4a7",
"`s c #7979fb",
"`t c #7575fc",
"`u c #e2e2de",
"`v c #060606",
"`w c #e1e1dd",
"`x c #dadad7",
"`y c #0e0e0d",
"`z c #000000",
"`A c #2222fb",
"`B c #0000ff",
"`C c #1818fc",
"`D c #e4e4e4",
"`E c #1b1bfc",
"`F c #e6e6e2",
"`G c #0606fe",
"`H c #adadee",
"`I c #e1e1e5",
"`J c #aeaef0",
"`K c #b3b3ed",
"`L c #acacaa",
"`M c #0303fc",
"`N c #8787c8",
"`O c #8f8fcb",
"`P c #a4a4a2",
"`Q c #a4a4f0",
"`R c #a9a9f0",
"`S c #3030fa",
"`T c #0c0cfe",
"`U c #2626fb",
"`V c #e5e5e4",
"`W c #2929fa",
"`X c #000000",
"`Y c #000000",
"`Z c #000000",
"`0 c #000000",
"`1 c #000000",
"`2 c #000000",
"`3 c #000000",
"`4 c #000000",
"`5 c #000000",
"`6 c #000000",
"`7 c #000000",
"`8 c #000000",
".` c #000000",
".. c #000000",
".# c #000000",
".a c #000000",
".b c #000000",
".c c #000000",
".d c #000000",
".e c #000000",
".f c #000000",
".g c #000000",
".h c #000000",
".i c #000000",
".j c #000000",
".k c #000000",
".l c #000000",
".m c #000000",
".n c #000000",
".o c #000000",
".p c #000000",
".q c #000000",
".r c #000000",
".s c #000000",
".t c #000000",
".u c #000000",
".v c #000000",
".w c #000000",
".x c #000000",
".y c #000000",
".z c #000000",
".A c #000000",
".B c #000000",
".C c #000000",
".D c #000000",
".E c #000000",
".F c #000000",
".G c #000000",
".H c #000000",
".I c #000000",
".J c #000000",
".K c #000000",
".L c #000000",
".M c #000000",
".N c #000000",
".O c #000000",
".P c #000000",
".Q c #000000",
".R c #000000",
".S c #000000",
".T c #000000",
".U c #000000",
".V c #000000",
".W c #000000",
".X c #000000",
".Y c #000000",
".Z c #000000",
".0 c #000000",
".1 c #000000",
".2 c #000000",
".3 c #000000",
".4 c #000000",
".5 c #000000",
".6 c #000000",
".7 c #000000",
".8 c #000000",
"#` c #000000",
"#. c #000000",
"## c #000000",
"#a c #000000",
"#b c #000000",
"#c c #000000",
"#d c #000000",
"#e c #000000",
"#f c #000000",
"#g c #000000",
"#h c #000000",
"#i c #000000",
"#j c #000000",
"#k c #000000",
"#l c #000000",
"#m c #000000",
"#n c #000000",
"#o c #000000",
"#p c #000000",
"#q c #000000",
"#r c #000000",
"#s c #000000",
"#t c #000000",
"#u c #000000",
"#v c #000000",
"#w c #000000",
"#x c #000000",
"#y c #000000",
"#z c #000000",
"#A c #000000",
"#B c #000000",
"#C c #000000",
"#D c #000000",
"#E c #000000",
"#F c #000000",
"#G c #000000",
"#H c #000000",
"#I c #000000",
"#J c #000000",
"#K c #000000",
"#L c #000000",
"#M c #000000",
"#N c #000000",
"#O c #000000",
"#P c #000000",
"#Q c #000000",
"#R c #000000",
"#S c #000000",
"#T c #000000",
"#U c #000000",
"#V c #000000",
"#W c #000000",
"#X c #000000",
"#Y c #000000",
"#Z c #000000",
"#0 c #000000",
"#1 c #000000",
"#2 c #000000",
"#3 c #000000",
"#4 c #000000",
"#5 c #000000",
"#6 c #000000",
"#7 c #000000",
"#8 c #000000",
"a` c #000000",
"a. c #000000",
"a# c #000000",
"aa c #000000",
"ab c #000000",
"ac c #000000",
"ad c #000000",
"ae c #000000",
"af c #000000",
"ag c #000000",
"ah c #000000",
"ai c #000000",
"aj c #000000",
"ak c #000000",
"al c #000000",
"am c #000000",
"an c #000000",
"ao c #000000",
"ap c #000000",
"aq c #000000",
"ar c #000000",
"as c #000000",
"at c #000000",
"au c #000000",
"av c #000000",
"aw c #000000",
"ax c #000000",
"ay c #000000",
"az c #000000",
"aA c #000000",
"aB c #000000",
"aC c #000000",
"aD c #000000",
"aE c #000000",
"aF c #000000",
"aG c #000000",
"aH c #000000",
"aI c #000000",
"aJ c #000000",
"aK c #000000",
"aL c #000000",
"aM c #000000",
"aN c #000000",
"aO c #000000",
"aP c #000000",
"aQ c #000000",
"aR c #000000",
"aS c #000000",
"aT c #000000",
"aU c #000000",
"aV c #000000",
"aW c #000000",
"aX c #000000",
"aY c #000000",
"aZ c #000000",
"a0 c #000000",
"a1 c #000000",
"a2 c #000000",
"a3 c #000000",
"a4 c #000000",
"a5 c #000000",
"a6 c #000000",
"a7 c #000000",
"a8 c #000000",
/* pixels */
"```.`#`#`a`b`````````c`#`#`d`e``",
"```f`g`h`i`j`````````#`h`h`f`b``",
"`k`l`m`n`o`p`q`q`q`q`#`n`n`l`r``",
"```f`g`h`i`j`````````#`g`g`f`b``",
"```s`f`f`c`b`````````.`f`f`t`e``",
"```````````````u````````````````",
"```````````````v`w``````````````",
"```````````u`w`v`x`w````````````",
"```````````y`z`z`z`v`u``````````",
"`````````````y`z`v`u````````````",
"```````````````y`u``````````````",
"```A`B`B`C`D`````````A`B`B`E````",
"`F`G`H`h`G`I`````````G`J`K`B`F``",
"`L`M`N`h`G`I`````````G`J`O`B`P``",
"```G`Q`R`G`I`````````G`Q`R`B````",
"```S`T`T`U`V`````````S`T`T`W````"
};
