/* XPM */
static char *object_flip_hor_xpm[] = {
/* width height num_colors chars_per_pixel */
"    16    16      256            2",
/* colors */
"`` c #e8e8e4",
"`. c #e4e4e0",
"`# c #8f8f8e",
"`a c #000000",
"`b c #7d7d7c",
"`c c #dbdbd7",
"`d c #b6b6b3",
"`e c #595959",
"`f c #323232",
"`g c #979795",
"`h c #70706f",
"`i c #525252",
"`j c #e2e2de",
"`k c #2e2e2e",
"`l c #4a4a49",
"`m c #d3d3cf",
"`n c #535353",
"`o c #505050",
"`p c #e1e1dd",
"`q c #060606",
"`r c #2a2a2a",
"`s c #3a3a3a",
"`t c #bfbfbc",
"`u c #8e8e8c",
"`v c #464646",
"`w c #494949",
"`x c #0e0e0d",
"`y c #262626",
"`z c #8c8981",
"`A c #6e6e6c",
"`B c #e6e6e2",
"`C c #494948",
"`D c #3b3b3b",
"`E c #434343",
"`F c #232323",
"`G c #e2d9bc",
"`H c #212121",
"`I c #b3b3b1",
"`J c #404040",
"`K c #343434",
"`L c #3c3c3c",
"`M c #1f1f1f",
"`N c #ffeebf",
"`O c #4c4a47",
"`P c #989895",
"`Q c #5e5e5d",
"`R c #2d2d2d",
"`S c #353535",
"`T c #1b1b1b",
"`U c #ffe9aa",
"`V c #aaa38e",
"`W c #3f3f3e",
"`X c #d7d7d3",
"`Y c #313131",
"`Z c #252525",
"`0 c #181818",
"`1 c #ffe496",
"`2 c #f8e9bb",
"`3 c #131212",
"`4 c #cbcbc7",
"`5 c #888886",
"`6 c #1e1e1e",
"`7 c #282828",
"`8 c #141414",
".` c #ffdf81",
".. c #ffeaab",
".# c #6c675b",
".a c #747472",
".b c #171717",
".c c #202020",
".d c #101010",
".e c #ffda6d",
".f c #ffe497",
".g c #d0c39d",
".h c #1d1c1c",
".i c #b5b5b2",
".j c #0f0f0f",
".k c #191919",
".l c #0c0c0c",
".m c #ffd558",
".n c #ffdf82",
".o c #ffeaac",
".p c #32312c",
".q c #a9a9a6",
".r c #525250",
".s c #090909",
".t c #080808",
".u c #131312",
".v c #ffd044",
".w c #ffe598",
".x c #968d72",
".y c #504f4e",
".z c #262625",
".A c #0b0b0b",
".B c #0d0d0c",
".C c #151514",
".D c #211f1a",
".E c #32312f",
".F c #000000",
".G c #000000",
".H c #000000",
".I c #000000",
".J c #000000",
".K c #000000",
".L c #000000",
".M c #000000",
".N c #000000",
".O c #000000",
".P c #000000",
".Q c #000000",
".R c #000000",
".S c #000000",
".T c #000000",
".U c #000000",
".V c #000000",
".W c #000000",
".X c #000000",
".Y c #000000",
".Z c #000000",
".0 c #000000",
".1 c #000000",
".2 c #000000",
".3 c #000000",
".4 c #000000",
".5 c #000000",
".6 c #000000",
".7 c #000000",
".8 c #000000",
"#` c #000000",
"#. c #000000",
"## c #000000",
"#a c #000000",
"#b c #000000",
"#c c #000000",
"#d c #000000",
"#e c #000000",
"#f c #000000",
"#g c #000000",
"#h c #000000",
"#i c #000000",
"#j c #000000",
"#k c #000000",
"#l c #000000",
"#m c #000000",
"#n c #000000",
"#o c #000000",
"#p c #000000",
"#q c #000000",
"#r c #000000",
"#s c #000000",
"#t c #000000",
"#u c #000000",
"#v c #000000",
"#w c #000000",
"#x c #000000",
"#y c #000000",
"#z c #000000",
"#A c #000000",
"#B c #000000",
"#C c #000000",
"#D c #000000",
"#E c #000000",
"#F c #000000",
"#G c #000000",
"#H c #000000",
"#I c #000000",
"#J c #000000",
"#K c #000000",
"#L c #000000",
"#M c #000000",
"#N c #000000",
"#O c #000000",
"#P c #000000",
"#Q c #000000",
"#R c #000000",
"#S c #000000",
"#T c #000000",
"#U c #000000",
"#V c #000000",
"#W c #000000",
"#X c #000000",
"#Y c #000000",
"#Z c #000000",
"#0 c #000000",
"#1 c #000000",
"#2 c #000000",
"#3 c #000000",
"#4 c #000000",
"#5 c #000000",
"#6 c #000000",
"#7 c #000000",
"#8 c #000000",
"a` c #000000",
"a. c #000000",
"a# c #000000",
"aa c #000000",
"ab c #000000",
"ac c #000000",
"ad c #000000",
"ae c #000000",
"af c #000000",
"ag c #000000",
"ah c #000000",
"ai c #000000",
"aj c #000000",
"ak c #000000",
"al c #000000",
"am c #000000",
"an c #000000",
"ao c #000000",
"ap c #000000",
"aq c #000000",
"ar c #000000",
"as c #000000",
"at c #000000",
"au c #000000",
"av c #000000",
"aw c #000000",
"ax c #000000",
"ay c #000000",
"az c #000000",
"aA c #000000",
"aB c #000000",
"aC c #000000",
"aD c #000000",
"aE c #000000",
"aF c #000000",
"aG c #000000",
"aH c #000000",
"aI c #000000",
"aJ c #000000",
"aK c #000000",
"aL c #000000",
"aM c #000000",
"aN c #000000",
"aO c #000000",
"aP c #000000",
"aQ c #000000",
"aR c #000000",
"aS c #000000",
"aT c #000000",
"aU c #000000",
"aV c #000000",
"aW c #000000",
"aX c #000000",
"aY c #000000",
"aZ c #000000",
"a0 c #000000",
"a1 c #000000",
"a2 c #000000",
"a3 c #000000",
"a4 c #000000",
"a5 c #000000",
"a6 c #000000",
"a7 c #000000",
"a8 c #000000",
/* pixels */
"````````````````````````````````",
"`````````.`#```a```b`c``````````",
"`````````d`e```a```f`g``````````",
"`````````h`i```j```k`l``````````",
"```````m`n`o`p`q```r`s`t````````",
"```````u`v`w`j`x```y`z`A````````",
"`````B`C`D`E```j```F`G`H`p``````",
"`````I`J`K`L`p`q```M`N`O`P``````",
"`````Q`R`R`S`j`x```T`U`V`W``````",
"```X`Y`Z`Z`k```j```0`1`2`3`4````",
"```5`Z`6`6`7`p`q```8.`...#.a````",
"```R.b.b.b.c`j`x``.d.e.f.g.h`B``",
".i`M.j.j.j.k```j``.l.m.n.o.p.q``",
".r.s.t.t.t.u`p`q``.s.v.e.w.x.y``",
".z.A.B.B.B.C`j`x``.D`a`a`a`a.E``",
"````````````````````````````````"
};
