/* XPM */
static char *object_rotate_90_CCW_xpm[] = {
/* width height num_colors chars_per_pixel */
"    16    16      256            2",
/* colors */
"`` c #e8e8e4",
"`. c #595958",
"`# c #d7d7d3",
"`a c #e2e2de",
"`b c #e1e1dd",
"`c c #000000",
"`d c #80807d",
"`e c #0e0e0d",
"`f c #060606",
"`g c #1a1a19",
"`h c #0b0b0a",
"`i c #b0b0ad",
"`j c #e3e3df",
"`k c #050505",
"`l c #020202",
"`m c #4a4a48",
"`n c #e5e5e1",
"`o c #030303",
"`p c #070707",
"`q c #e7e7e3",
"`r c #010101",
"`s c #090909",
"`t c #c7c7c4",
"`u c #949493",
"`v c #818180",
"`w c #292928",
"`x c #666666",
"`y c #757473",
"`z c #b9b6ac",
"`A c #646464",
"`B c #0a0a0a",
"`C c #2b2b2b",
"`D c #414140",
"`E c #7d7b75",
"`F c #d3ccb5",
"`G c #fff2cb",
"`H c #ffefbf",
"`I c #d7d7d4",
"`J c #8a8a88",
"`K c #3e3e3d",
"`L c #3c3b39",
"`M c #a09a88",
"`N c #f0e3bc",
"`O c #ffeebb",
"`P c #ffeaae",
"`Q c #ffe7a2",
"`R c #ffe496",
"`S c #545451",
"`T c #151514",
"`U c #625f53",
"`V c #c6ba99",
"`W c #ffedb7",
"`X c #ffe9aa",
"`Y c #ffe69e",
"`Z c #ffe392",
"`0 c #ffe086",
"`1 c #ffdd79",
"`2 c #ffda6d",
"`3 c #81817f",
"`4 c #252523",
"`5 c #262520",
"`6 c #8c8369",
"`7 c #ecdba6",
"`8 c #ffe8a6",
".` c #ffe59a",
".. c #ffe28e",
".# c #ffdf82",
".a c #ffdc75",
".b c #ffd969",
".c c #ffd65d",
".d c #ffd351",
".e c #ffd044",
".f c #616161",
".g c #5e5e5c",
".h c #121212",
".i c #1b1b1b",
".j c #252525",
".k c #2e2e2e",
".l c #383838",
".m c #414141",
".n c #4b4b4b",
".o c #545454",
".p c #6f6d67",
".q c #151515",
".r c #272727",
".s c #000000",
".t c #000000",
".u c #000000",
".v c #000000",
".w c #000000",
".x c #000000",
".y c #000000",
".z c #000000",
".A c #000000",
".B c #000000",
".C c #000000",
".D c #000000",
".E c #000000",
".F c #000000",
".G c #000000",
".H c #000000",
".I c #000000",
".J c #000000",
".K c #000000",
".L c #000000",
".M c #000000",
".N c #000000",
".O c #000000",
".P c #000000",
".Q c #000000",
".R c #000000",
".S c #000000",
".T c #000000",
".U c #000000",
".V c #000000",
".W c #000000",
".X c #000000",
".Y c #000000",
".Z c #000000",
".0 c #000000",
".1 c #000000",
".2 c #000000",
".3 c #000000",
".4 c #000000",
".5 c #000000",
".6 c #000000",
".7 c #000000",
".8 c #000000",
"#` c #000000",
"#. c #000000",
"## c #000000",
"#a c #000000",
"#b c #000000",
"#c c #000000",
"#d c #000000",
"#e c #000000",
"#f c #000000",
"#g c #000000",
"#h c #000000",
"#i c #000000",
"#j c #000000",
"#k c #000000",
"#l c #000000",
"#m c #000000",
"#n c #000000",
"#o c #000000",
"#p c #000000",
"#q c #000000",
"#r c #000000",
"#s c #000000",
"#t c #000000",
"#u c #000000",
"#v c #000000",
"#w c #000000",
"#x c #000000",
"#y c #000000",
"#z c #000000",
"#A c #000000",
"#B c #000000",
"#C c #000000",
"#D c #000000",
"#E c #000000",
"#F c #000000",
"#G c #000000",
"#H c #000000",
"#I c #000000",
"#J c #000000",
"#K c #000000",
"#L c #000000",
"#M c #000000",
"#N c #000000",
"#O c #000000",
"#P c #000000",
"#Q c #000000",
"#R c #000000",
"#S c #000000",
"#T c #000000",
"#U c #000000",
"#V c #000000",
"#W c #000000",
"#X c #000000",
"#Y c #000000",
"#Z c #000000",
"#0 c #000000",
"#1 c #000000",
"#2 c #000000",
"#3 c #000000",
"#4 c #000000",
"#5 c #000000",
"#6 c #000000",
"#7 c #000000",
"#8 c #000000",
"a` c #000000",
"a. c #000000",
"a# c #000000",
"aa c #000000",
"ab c #000000",
"ac c #000000",
"ad c #000000",
"ae c #000000",
"af c #000000",
"ag c #000000",
"ah c #000000",
"ai c #000000",
"aj c #000000",
"ak c #000000",
"al c #000000",
"am c #000000",
"an c #000000",
"ao c #000000",
"ap c #000000",
"aq c #000000",
"ar c #000000",
"as c #000000",
"at c #000000",
"au c #000000",
"av c #000000",
"aw c #000000",
"ax c #000000",
"ay c #000000",
"az c #000000",
"aA c #000000",
"aB c #000000",
"aC c #000000",
"aD c #000000",
"aE c #000000",
"aF c #000000",
"aG c #000000",
"aH c #000000",
"aI c #000000",
"aJ c #000000",
"aK c #000000",
"aL c #000000",
"aM c #000000",
"aN c #000000",
"aO c #000000",
"aP c #000000",
"aQ c #000000",
"aR c #000000",
"aS c #000000",
"aT c #000000",
"aU c #000000",
"aV c #000000",
"aW c #000000",
"aX c #000000",
"aY c #000000",
"aZ c #000000",
"a0 c #000000",
"a1 c #000000",
"a2 c #000000",
"a3 c #000000",
"a4 c #000000",
"a5 c #000000",
"a6 c #000000",
"a7 c #000000",
"a8 c #000000",
/* pixels */
"`````````````````.`#````````````",
"`````````a`b`b```c`d````````````",
"```````a`e`f`f`a`c`g````````````",
"`````a`e`a```````c`h`i``````````",
"```j`k```````````c`l`m``````````",
"```n`o```````````c`c`p`#````````",
"```q`r```````````c`c`s`d````````",
"`c`c`c`c`c```````c`c`c`g```t`u`v",
"```c`c`c`````````c`c`k`w`x`y`z`A",
"`````c```````````B`C`D`E`F`G`H`A",
"```````````I`J`K`L`M`N`O`P`Q`R`A",
"```````i`S`T`U`V`W`X`Y`Z`0`1`2`A",
"`#`3`4`5`6`7`8.`...#.a.b.c.d.e.f",
".g`c`c`c`c`c`s.h.i.j.k.l.m.n.o.p",
"`````````````````c`c`c`c`c`l`m``",
"````````````````.q`c`c`c`c`c.r``"
};
