/* XPM */
static char *object_trans_xpm[] = {
/* width height num_colors chars_per_pixel */
"    16    16      256            2",
/* colors */
"`` c #6b6b6b",
"`. c #5a5a5a",
"`# c #545454",
"`a c #4d4d4d",
"`b c #464646",
"`c c #3f3f3f",
"`d c #373737",
"`e c #303030",
"`f c #e8e8e4",
"`g c #f9fafc",
"`h c #fdfefe",
"`i c #f2f5f9",
"`j c #e6edf4",
"`k c #dae5ef",
"`l c #cedcea",
"`m c #c7d7e5",
"`n c #282828",
"`o c #575757",
"`p c #f8fafc",
"`q c #99bde3",
"`r c #a7c6e7",
"`s c #b6cfeb",
"`t c #c4d9ef",
"`u c #d2e1f2",
"`v c #b3cade",
"`w c #232322",
"`x c #c90606",
"`y c #515151",
"`z c #e7eef4",
"`A c #9fc0e4",
"`B c #adcae8",
"`C c #bcd3ec",
"`D c #cadcf0",
"`E c #d7e5f3",
"`F c #a3bed6",
"`G c #1d1d1d",
"`H c #c80000",
"`I c #4c4c4c",
"`J c #d6e2ed",
"`K c #a5c4e6",
"`L c #b3ceea",
"`M c #c2d7ee",
"`N c #d0e0f2",
"`O c #dce8f5",
"`P c #9bb8d3",
"`Q c #171717",
"`R c #c90c0c",
"`S c #d97b79",
"`T c #e7e0dc",
"`U c #c5d6e6",
"`V c #abc8e8",
"`W c #b9d1eb",
"`X c #c7dbef",
"`Y c #d6e4f3",
"`Z c #e2ebf6",
"`0 c #111111",
"`1 c #cf302f",
"`2 c #e4cfcb",
"`3 c #e8e7e3",
"`4 c #404040",
"`5 c #b4c9df",
"`6 c #b0cce9",
"`7 c #bed4ec",
"`8 c #cbddf0",
".` c #d9e6f4",
".. c #e5eef7",
".# c #0b0b0b",
".a c #e7e1dd",
".b c #dfa8a5",
".c c #d03736",
".d c #e7e4e0",
".e c #3a3a3a",
".f c #abc2d8",
".g c #9ab8d3",
".h c #a6bfd5",
".i c #060606",
".j c #e6dbd7",
".k c #dd9c99",
".l c #50504f",
".m c #323232",
".n c #2b2b2b",
".o c #242423",
".p c #161616",
".q c #0e0e0e",
".r c #070707",
".s c #2b2b2a",
".t c #dfaaa7",
".u c #d76d6b",
".v c #e1b9b6",
".w c #da8583",
".x c #dd9694",
".y c #e5d0cd",
".z c #e3c4c0",
".A c #e1b3b0",
".B c #d03a39",
".C c #e0afac",
".D c #da8683",
".E c #d34e4d",
".F c #e0b1ae",
".G c #e7e2de",
".H c #e5cfcc",
".I c #e8e6e2",
".J c #cd2626",
".K c #dfa9a6",
".L c #d34f4e",
".M c #e5d4d0",
".N c #e6ddd9",
".O c #d03938",
".P c #e3c3bf",
".Q c #e0adaa",
".R c #d45756",
".S c #e6d7d3",
".T c #e7e3e0",
".U c #d97e7c",
".V c #e7dfdb",
".W c #d14443",
".X c #d97977",
".Y c #e2bcb9",
".Z c #dc9391",
".0 c #000000",
".1 c #000000",
".2 c #000000",
".3 c #000000",
".4 c #000000",
".5 c #000000",
".6 c #000000",
".7 c #000000",
".8 c #000000",
"#` c #000000",
"#. c #000000",
"## c #000000",
"#a c #000000",
"#b c #000000",
"#c c #000000",
"#d c #000000",
"#e c #000000",
"#f c #000000",
"#g c #000000",
"#h c #000000",
"#i c #000000",
"#j c #000000",
"#k c #000000",
"#l c #000000",
"#m c #000000",
"#n c #000000",
"#o c #000000",
"#p c #000000",
"#q c #000000",
"#r c #000000",
"#s c #000000",
"#t c #000000",
"#u c #000000",
"#v c #000000",
"#w c #000000",
"#x c #000000",
"#y c #000000",
"#z c #000000",
"#A c #000000",
"#B c #000000",
"#C c #000000",
"#D c #000000",
"#E c #000000",
"#F c #000000",
"#G c #000000",
"#H c #000000",
"#I c #000000",
"#J c #000000",
"#K c #000000",
"#L c #000000",
"#M c #000000",
"#N c #000000",
"#O c #000000",
"#P c #000000",
"#Q c #000000",
"#R c #000000",
"#S c #000000",
"#T c #000000",
"#U c #000000",
"#V c #000000",
"#W c #000000",
"#X c #000000",
"#Y c #000000",
"#Z c #000000",
"#0 c #000000",
"#1 c #000000",
"#2 c #000000",
"#3 c #000000",
"#4 c #000000",
"#5 c #000000",
"#6 c #000000",
"#7 c #000000",
"#8 c #000000",
"a` c #000000",
"a. c #000000",
"a# c #000000",
"aa c #000000",
"ab c #000000",
"ac c #000000",
"ad c #000000",
"ae c #000000",
"af c #000000",
"ag c #000000",
"ah c #000000",
"ai c #000000",
"aj c #000000",
"ak c #000000",
"al c #000000",
"am c #000000",
"an c #000000",
"ao c #000000",
"ap c #000000",
"aq c #000000",
"ar c #000000",
"as c #000000",
"at c #000000",
"au c #000000",
"av c #000000",
"aw c #000000",
"ax c #000000",
"ay c #000000",
"az c #000000",
"aA c #000000",
"aB c #000000",
"aC c #000000",
"aD c #000000",
"aE c #000000",
"aF c #000000",
"aG c #000000",
"aH c #000000",
"aI c #000000",
"aJ c #000000",
"aK c #000000",
"aL c #000000",
"aM c #000000",
"aN c #000000",
"aO c #000000",
"aP c #000000",
"aQ c #000000",
"aR c #000000",
"aS c #000000",
"aT c #000000",
"aU c #000000",
"aV c #000000",
"aW c #000000",
"aX c #000000",
"aY c #000000",
"aZ c #000000",
"a0 c #000000",
"a1 c #000000",
"a2 c #000000",
"a3 c #000000",
"a4 c #000000",
"a5 c #000000",
"a6 c #000000",
"a7 c #000000",
"a8 c #000000",
/* pixels */
"```.`#`a`b`c`d`e`b`f`f`f`f`f`f`f",
"`.`g`h`i`j`k`l`m`n`f`f`f`f`f`f`f",
"`o`p`q`r`s`t`u`v`w`f`f`x`f`f`f`f",
"`y`z`A`B`C`D`E`F`G`f`x`H`f`f`f`f",
"`I`J`K`L`M`N`O`P`Q`R`H`H`S`T`f`f",
"`b`U`V`W`X`Y`Z`P`0`T`H`H`1`2`3`f",
"`4`5`6`7`8.`..`P.#`f.a`H`f.b.c.d",
".e.f.g.g`P`P`P.h.i`f`f.a`f.j.k`f",
".l.m.n.o`G.p.q.r.s`f`f`f`f`f.t.u",
"`f`f`f`f`f`f`f`f`f`f`f`f`f`f.v.w",
"`f`f`f`f.x.y`f`f`f`f`f`f`f`f.z.A",
"`f`f`f`f.B.C`f`f`f`f`f`f`f`f.D.E",
"`f`f`f`f`f.F.G`f`f`f`f`f`f.y.H`f",
"`f`f`f`f.I.J.K`f`f`f`f`f`f`S.L`f",
"`f`f`f`f`f.M.N.O`2.P.y.Q.R.G.S`f",
"`f`f`f`f`f`f.T.U.V.W.X.Y.Z`f`f`f"
};
