/* XPM */
static char *object_tocurve_xpm[] = {
/* width height num_colors chars_per_pixel */
"    16    16      256            2",
/* colors */
"`` c #e8e8e4",
"`. c #dfdfdb",
"`# c #a0a09e",
"`a c #777776",
"`b c #6d6d71",
"`c c #0e0ef3",
"`d c #0000ff",
"`e c #1b1bfc",
"`f c #898988",
"`g c #959593",
"`h c #d1d1ce",
"`i c #d6d6da",
"`j c #0505fe",
"`k c #6b6ba7",
"`l c #a7a7e1",
"`m c #bfbfbc",
"`n c #7b7b7a",
"`o c #e6e6e2",
"`p c #e1e1e5",
"`q c #0606fe",
"`r c #8f8fcb",
"`s c #8282be",
"`t c #80807f",
"`u c #c2c2bf",
"`v c #e4e4e4",
"`w c #1818fc",
"`x c #818180",
"`y c #cbcbc8",
"`z c #d7d7d4",
"`A c #737373",
"`B c #8a8a89",
"`C c #c1c1be",
"`D c #686868",
"`E c #e5e5e1",
"`F c #919198",
"`G c #d9d9e6",
"`H c #6f6f6f",
"`I c #ddddd9",
"`J c #dededf",
"`K c #0a0af5",
"`L c #0a0afc",
"`M c #0c0cfe",
"`N c #6c6c6c",
"`O c #e0e0dc",
"`P c #6969a6",
"`Q c #7373b5",
"`R c #0404fd",
"`S c #d0d0cd",
"`T c #dededa",
"`U c #696969",
"`V c #dcdcd8",
"`W c #e4e4e0",
"`X c #e7e7e3",
"`Y c #a6a6ed",
"`Z c #8f8fdc",
"`0 c #777777",
"`1 c #6d6d6d",
"`2 c #646464",
"`3 c #6b6b6b",
"`4 c #676767",
"`5 c #666666",
"`6 c #656565",
"`7 c #8d8d8c",
"`8 c #d8d8d4",
".` c #e5e5e4",
".. c #2626fb",
".# c #3030fa",
".a c #a4a4a2",
".b c #707070",
".c c #dbdbd7",
".d c #dadae6",
".e c #d2d2e7",
".f c #c9c9dd",
".g c #686873",
".h c #848483",
".i c #c7c7c4",
".j c #1212fd",
".k c #0e0efa",
".l c #1313f0",
".m c #979796",
".n c #b0b0ae",
".o c #9595d0",
".p c #6767b0",
".q c #0b0bfd",
".r c #cacac7",
".s c #a5a5bb",
".t c #0b0bf8",
".u c #6464b3",
".v c #9191e8",
".w c #828281",
".x c #8b8b93",
".y c #1e1ef2",
".z c #1212fc",
".A c #1313fd",
".B c #3d3df8",
".C c #000000",
".D c #000000",
".E c #000000",
".F c #000000",
".G c #000000",
".H c #000000",
".I c #000000",
".J c #000000",
".K c #000000",
".L c #000000",
".M c #000000",
".N c #000000",
".O c #000000",
".P c #000000",
".Q c #000000",
".R c #000000",
".S c #000000",
".T c #000000",
".U c #000000",
".V c #000000",
".W c #000000",
".X c #000000",
".Y c #000000",
".Z c #000000",
".0 c #000000",
".1 c #000000",
".2 c #000000",
".3 c #000000",
".4 c #000000",
".5 c #000000",
".6 c #000000",
".7 c #000000",
".8 c #000000",
"#` c #000000",
"#. c #000000",
"## c #000000",
"#a c #000000",
"#b c #000000",
"#c c #000000",
"#d c #000000",
"#e c #000000",
"#f c #000000",
"#g c #000000",
"#h c #000000",
"#i c #000000",
"#j c #000000",
"#k c #000000",
"#l c #000000",
"#m c #000000",
"#n c #000000",
"#o c #000000",
"#p c #000000",
"#q c #000000",
"#r c #000000",
"#s c #000000",
"#t c #000000",
"#u c #000000",
"#v c #000000",
"#w c #000000",
"#x c #000000",
"#y c #000000",
"#z c #000000",
"#A c #000000",
"#B c #000000",
"#C c #000000",
"#D c #000000",
"#E c #000000",
"#F c #000000",
"#G c #000000",
"#H c #000000",
"#I c #000000",
"#J c #000000",
"#K c #000000",
"#L c #000000",
"#M c #000000",
"#N c #000000",
"#O c #000000",
"#P c #000000",
"#Q c #000000",
"#R c #000000",
"#S c #000000",
"#T c #000000",
"#U c #000000",
"#V c #000000",
"#W c #000000",
"#X c #000000",
"#Y c #000000",
"#Z c #000000",
"#0 c #000000",
"#1 c #000000",
"#2 c #000000",
"#3 c #000000",
"#4 c #000000",
"#5 c #000000",
"#6 c #000000",
"#7 c #000000",
"#8 c #000000",
"a` c #000000",
"a. c #000000",
"a# c #000000",
"aa c #000000",
"ab c #000000",
"ac c #000000",
"ad c #000000",
"ae c #000000",
"af c #000000",
"ag c #000000",
"ah c #000000",
"ai c #000000",
"aj c #000000",
"ak c #000000",
"al c #000000",
"am c #000000",
"an c #000000",
"ao c #000000",
"ap c #000000",
"aq c #000000",
"ar c #000000",
"as c #000000",
"at c #000000",
"au c #000000",
"av c #000000",
"aw c #000000",
"ax c #000000",
"ay c #000000",
"az c #000000",
"aA c #000000",
"aB c #000000",
"aC c #000000",
"aD c #000000",
"aE c #000000",
"aF c #000000",
"aG c #000000",
"aH c #000000",
"aI c #000000",
"aJ c #000000",
"aK c #000000",
"aL c #000000",
"aM c #000000",
"aN c #000000",
"aO c #000000",
"aP c #000000",
"aQ c #000000",
"aR c #000000",
"aS c #000000",
"aT c #000000",
"aU c #000000",
"aV c #000000",
"aW c #000000",
"aX c #000000",
"aY c #000000",
"aZ c #000000",
"a0 c #000000",
"a1 c #000000",
"a2 c #000000",
"a3 c #000000",
"a4 c #000000",
"a5 c #000000",
"a6 c #000000",
"a7 c #000000",
"a8 c #000000",
/* pixels */
"```.`#`a`b`c`d`d`e``````````````",
"```f`g`h`i`j`k`l`d``````````````",
"`m`n`o```p`q`r`s`d``````````````",
"`t`u`````v`w`d`d`e``````````````",
"`x`y`````````z`A````````````````",
"`B`C`````````o`D`E``````````````",
"`#`F`G`G`p`````H`I``````````````",
"`J`K`L`M`e`````N`O``````````````",
"`p`j`P`Q`R`S`T`U`V`W`E`o`X``````",
"`p`q`Y`Z`R`0`1`2`3`D`4`5`6`N`7`8",
".`..`M`M.#```o`5```````````V.a`f",
"``````````````.b.c``````.d.e.f.g",
"``````````````.h.i````.d`M.j.k.l",
"``````````````.m.n````.e.j.o.p.q",
"``````````````.r.b`C`8.s.t.u.v`M",
"`````````````````C.w`H.x.y.z.A.B"
};
