/* XPM */
static char *outset_path_xpm[] = {
/* width height num_colors chars_per_pixel */
"    16    16      256            2",
/* colors */
"`` c #6d7072",
"`. c #141516",
"`# c #2b2c2d",
"`a c #4b4c4c",
"`b c #949492",
"`c c #dadad7",
"`d c #e8e8e4",
"`e c #bdccd9",
"`f c #88a3bd",
"`g c #778fa5",
"`h c #617486",
"`i c #353d45",
"`j c #0c0d0e",
"`k c #474849",
"`l c #c3c3bf",
"`m c #c0cfdc",
"`n c #99b7d4",
"`o c #93b0cc",
"`p c #586878",
"`q c #101213",
"`r c #5c5d5d",
"`s c #d9d9d6",
"`t c #8eaac5",
"`u c #3e4954",
"`v c #212223",
"`w c #c8c8c5",
"`x c #5d6f80",
"`y c #b5b5b2",
"`z c #71889d",
"`A c #738aa0",
"`B c #060708",
"`C c #000000",
"`D c #696e73",
"`E c #626f7b",
"`F c #9db9d5",
"`G c #8ba6c0",
"`H c #758ca2",
"`I c #07090a",
"`J c #c9d0d6",
"`K c #acbccc",
"`L c #bacbdb",
"`M c #484f55",
"`N c #748699",
"`O c #d1d9df",
"`P c #b9cadb",
"`Q c #b5c6d7",
"`R c #7e8d9c",
"`S c #7991a8",
"`T c #8a97a3",
"`U c #49525a",
"`V c #98b0c9",
"`W c #303539",
"`X c #6d8296",
"`Y c #7d8994",
"`Z c #74889d",
"`0 c #91a4b6",
"`1 c #dce1e2",
"`2 c #cdd5db",
"`3 c #252729",
"`4 c #252627",
"`5 c #000000",
"`6 c #000000",
"`7 c #000000",
"`8 c #000000",
".` c #000000",
".. c #000000",
".# c #000000",
".a c #000000",
".b c #000000",
".c c #000000",
".d c #000000",
".e c #000000",
".f c #000000",
".g c #000000",
".h c #000000",
".i c #000000",
".j c #000000",
".k c #000000",
".l c #000000",
".m c #000000",
".n c #000000",
".o c #000000",
".p c #000000",
".q c #000000",
".r c #000000",
".s c #000000",
".t c #000000",
".u c #000000",
".v c #000000",
".w c #000000",
".x c #000000",
".y c #000000",
".z c #000000",
".A c #000000",
".B c #000000",
".C c #000000",
".D c #000000",
".E c #000000",
".F c #000000",
".G c #000000",
".H c #000000",
".I c #000000",
".J c #000000",
".K c #000000",
".L c #000000",
".M c #000000",
".N c #000000",
".O c #000000",
".P c #000000",
".Q c #000000",
".R c #000000",
".S c #000000",
".T c #000000",
".U c #000000",
".V c #000000",
".W c #000000",
".X c #000000",
".Y c #000000",
".Z c #000000",
".0 c #000000",
".1 c #000000",
".2 c #000000",
".3 c #000000",
".4 c #000000",
".5 c #000000",
".6 c #000000",
".7 c #000000",
".8 c #000000",
"#` c #000000",
"#. c #000000",
"## c #000000",
"#a c #000000",
"#b c #000000",
"#c c #000000",
"#d c #000000",
"#e c #000000",
"#f c #000000",
"#g c #000000",
"#h c #000000",
"#i c #000000",
"#j c #000000",
"#k c #000000",
"#l c #000000",
"#m c #000000",
"#n c #000000",
"#o c #000000",
"#p c #000000",
"#q c #000000",
"#r c #000000",
"#s c #000000",
"#t c #000000",
"#u c #000000",
"#v c #000000",
"#w c #000000",
"#x c #000000",
"#y c #000000",
"#z c #000000",
"#A c #000000",
"#B c #000000",
"#C c #000000",
"#D c #000000",
"#E c #000000",
"#F c #000000",
"#G c #000000",
"#H c #000000",
"#I c #000000",
"#J c #000000",
"#K c #000000",
"#L c #000000",
"#M c #000000",
"#N c #000000",
"#O c #000000",
"#P c #000000",
"#Q c #000000",
"#R c #000000",
"#S c #000000",
"#T c #000000",
"#U c #000000",
"#V c #000000",
"#W c #000000",
"#X c #000000",
"#Y c #000000",
"#Z c #000000",
"#0 c #000000",
"#1 c #000000",
"#2 c #000000",
"#3 c #000000",
"#4 c #000000",
"#5 c #000000",
"#6 c #000000",
"#7 c #000000",
"#8 c #000000",
"a` c #000000",
"a. c #000000",
"a# c #000000",
"aa c #000000",
"ab c #000000",
"ac c #000000",
"ad c #000000",
"ae c #000000",
"af c #000000",
"ag c #000000",
"ah c #000000",
"ai c #000000",
"aj c #000000",
"ak c #000000",
"al c #000000",
"am c #000000",
"an c #000000",
"ao c #000000",
"ap c #000000",
"aq c #000000",
"ar c #000000",
"as c #000000",
"at c #000000",
"au c #000000",
"av c #000000",
"aw c #000000",
"ax c #000000",
"ay c #000000",
"az c #000000",
"aA c #000000",
"aB c #000000",
"aC c #000000",
"aD c #000000",
"aE c #000000",
"aF c #000000",
"aG c #000000",
"aH c #000000",
"aI c #000000",
"aJ c #000000",
"aK c #000000",
"aL c #000000",
"aM c #000000",
"aN c #000000",
"aO c #000000",
"aP c #000000",
"aQ c #000000",
"aR c #000000",
"aS c #000000",
"aT c #000000",
"aU c #000000",
"aV c #000000",
"aW c #000000",
"aX c #000000",
"aY c #000000",
"aZ c #000000",
"a0 c #000000",
"a1 c #000000",
"a2 c #000000",
"a3 c #000000",
"a4 c #000000",
"a5 c #000000",
"a6 c #000000",
"a7 c #000000",
"a8 c #000000",
/* pixels */
"```.`#`a`b`c`d`d`d`d`d`d`d`d`d`d",
"`e`f`g`h`i`j`k`l`d`d`d`d`d`d`d`d",
"`m`n`n`n`n`o`p`q`r`s`d`d`d`d`d`d",
"`m`n`n`n`n`n`n`t`u`v`w`d`d`d`d`d",
"`m`n`n`n`n`n`n`n`n`x`.`y`d`d`d`d",
"`m`n`n`n`n`n`n`n`n`n`z`.`w`d`d`d",
"`m`n`n`n`A`B`C`C`C`C`n`x`v`s`d`d",
"`D`E`F`G`n`H`I`C`C`C`n`n`u`r`d`d",
"`J`K`L`M`N`n`H`I`C`C`n`n`t`q`l`d",
"`O`P`P`Q`L`R`S`H`I`C`n`n`n`p`k`d",
"`O`P`P`P`P`T`U`n`H`B`n`n`n`o`j`c",
"`O`P`P`P`P`P`L`V`n`A`n`n`n`n`i`b",
"`O`P`P`P`P`P`P`W`X`n`n`n`n`n`h`a",
"`O`P`P`P`P`P`P`Y`Z`n`n`n`n`n`g`#",
"`O`P`P`P`P`P`P`P`0`n`n`n`n`n`f`.",
"`1`O`O`O`O`O`O`2`3`m`m`m`m`m`e`4"
};
