/* XPM */
static char *paste_anim_icon_xpm[] = {
/* width height num_colors chars_per_pixel */
"    20    20      256            2",
/* colors */
"`` c #ffffff",
"`. c #e6e6e6",
"`# c #515151",
"`a c #0d0d0d",
"`b c #4e4e4e",
"`c c #e5e5e5",
"`d c #8f8f8b",
"`e c #171510",
"`f c #0e0e09",
"`g c #0e0d09",
"`h c #0d0c08",
"`i c #090808",
"`j c #545454",
"`k c #ababab",
"`l c #303030",
"`m c #010101",
"`n c #0c0c08",
"`o c #191510",
"`p c #999795",
"`q c #070705",
"`r c #e3bb03",
"`s c #e6bc01",
"`t c #756003",
"`u c #42413b",
"`v c #d4d4d4",
"`w c #1f1f1f",
"`x c #0a0a0a",
"`y c #010100",
"`z c #5b4b00",
"`A c #dab006",
"`B c #181510",
"`C c #000000",
"`D c #e6bd02",
"`E c #f4d930",
"`F c #eed032",
"`G c #131209",
"`H c #a9a9a9",
"`I c #d7d7d7",
"`J c #7b7b7b",
"`K c #282828",
"`L c #0a0702",
"`M c #edb124",
"`N c #dda220",
"`O c #0e0c09",
"`P c #f6d934",
"`Q c #d3b82f",
"`R c #070704",
"`S c #52514b",
"`T c #403e36",
"`U c #211e16",
"`V c #110e06",
"`W c #090602",
"`X c #302d01",
"`Y c #9b840d",
"`Z c #dca11f",
"`0 c #e6bd01",
"`1 c #f7d633",
"`2 c #f8d436",
"`3 c #b09325",
"`4 c #8a711c",
"`5 c #9e7e1e",
"`6 c #af8a20",
"`7 c #9f7a1d",
"`8 c #8b6818",
".` c #776a07",
".. c #857408",
".# c #1a1809",
".a c #f7d331",
".b c #f9d134",
".c c #f9cd32",
".d c #fac931",
".e c #fac52f",
".f c #fbc12d",
".g c #fbbd2b",
".h c #eab71e",
".i c #1a1901",
".j c #938208",
".k c #282501",
".l c #545203",
".m c #fffffc",
".n c #f8d030",
".o c #f9ce33",
".p c #faca31",
".q c #fac62f",
".r c #f8c628",
".s c #fbc129",
".t c #fcba2a",
".u c #a3890e",
".v c #191800",
".w c #eaaf1a",
".x c #bd960f",
".y c #1d1d00",
".z c #e0e09f",
".A c #f8cd2e",
".B c #ccab1a",
".C c #363202",
".D c #645a05",
".E c #ecba1c",
".F c #494203",
".G c #433c03",
".H c #ab870e",
".I c #b48b0f",
".J c #7e7b03",
".K c #f6f4c6",
".L c #fffff9",
".M c #f8ca2d",
".N c #fac730",
".O c #fbc32e",
".P c #8b7a0c",
".Q c #ab9e06",
".R c #161601",
".S c #7c7c2d",
".T c #fcfcea",
".U c #f8c72b",
".V c #fac42e",
".W c #fbc02c",
".X c #d3ac1a",
".Y c #574f04",
".Z c #5c5204",
".0 c #7b7104",
".1 c #070700",
".2 c #e9e8ac",
".3 c #f8c42b",
".4 c #d8ae1c",
".5 c #b89b11",
".6 c #fab824",
".7 c #dfb116",
".8 c #0c0c00",
"#` c #716106",
"#. c #806908",
"## c #896f08",
"#a c #766704",
"#b c #4b4a14",
"#c c #fffff2",
"#d c #eeedc3",
"#e c #f5f5de",
"#f c #f9c129",
"#g c #c7a415",
"#h c #0d0d00",
"#i c #c19c12",
"#j c #957c0b",
"#k c #534804",
"#l c #fdaa1e",
"#m c #ffa11e",
"#n c #e4a015",
"#o c #3d3502",
"#p c #0a0a00",
"#q c #96944e",
"#r c #c8c77d",
"#s c #2d2b0b",
"#t c #afae5f",
"#u c #f9be28",
"#v c #fcb727",
"#w c #8f7b0a",
"#x c #2e2902",
"#y c #2a2601",
"#z c #ad890d",
"#A c #ffa21f",
"#B c #eaa117",
"#C c #4e4303",
"#D c #302a02",
"#E c #797702",
"#F c #8f8e25",
"#G c #121201",
"#H c #a5a34c",
"#I c #fcfcec",
"#J c #fabb26",
"#K c #fcb728",
"#L c #fdb326",
"#M c #f1b11e",
"#N c #473e03",
"#O c #252201",
"#P c #efa818",
"#Q c #ffa01e",
"#R c #836c07",
"#S c #282401",
"#T c #c38f10",
"#U c #4a4803",
"#V c #181805",
"#W c #bbba6e",
"#X c #fffffd",
"#Y c #080705",
"#Z c #daaf07",
"#0 c #d59c21",
"#1 c #d59721",
"#2 c #d5941f",
"#3 c #d6901e",
"#4 c #c69214",
"#5 c #bc8e0f",
"#6 c #d78719",
"#7 c #8f7308",
"#8 c #342f01",
"a` c #b47b12",
"a. c #545106",
"a# c #393812",
"aa c #d0cf8f",
"ab c #949390",
"ac c #1f1c16",
"ad c #17130e",
"ae c #17120e",
"af c #4e4a08",
"ag c #060600",
"ah c #55520b",
"ai c #a3a189",
"aj c #f2f1cf",
"ak c #fffff8",
"al c #636221",
"am c #8a8845",
"an c #c1c07c",
"ao c #b2b25c",
"ap c #000000",
"aq c #000000",
"ar c #000000",
"as c #000000",
"at c #000000",
"au c #000000",
"av c #000000",
"aw c #000000",
"ax c #000000",
"ay c #000000",
"az c #000000",
"aA c #000000",
"aB c #000000",
"aC c #000000",
"aD c #000000",
"aE c #000000",
"aF c #000000",
"aG c #000000",
"aH c #000000",
"aI c #000000",
"aJ c #000000",
"aK c #000000",
"aL c #000000",
"aM c #000000",
"aN c #000000",
"aO c #000000",
"aP c #000000",
"aQ c #000000",
"aR c #000000",
"aS c #000000",
"aT c #000000",
"aU c #000000",
"aV c #000000",
"aW c #000000",
"aX c #000000",
"aY c #000000",
"aZ c #000000",
"a0 c #000000",
"a1 c #000000",
"a2 c #000000",
"a3 c #000000",
"a4 c #000000",
"a5 c #000000",
"a6 c #000000",
"a7 c #000000",
"a8 c #000000",
/* pixels */
"```````````.`#`a`b`c````````````````````",
"`d`e`f`g`h`i`j`k`l`m`n`g`o`p````````````",
"`q`r`s`s`t`u`v`w`x`y`z`s`A`B````````````",
"`C`D`E`F`G`H`I`J`K`C`L`M`N`O````````````",
"`C`D`P`Q`R`S`T`U`V`W`X`Y`Z`O````````````",
"`C`0`1`2`3`4`5`6`7`8.``C...#````````````",
"`C`0.a.b.c.d.e.f.g.h.i.j.k.l.m``````````",
"`C`0.n.o.p.q.r.s.t.u.v.w.x.y.z``````````",
"`C`s.A.p.q.B.C.D.E.F.G.H.I.J.K.L````````",
"`C`s.M.N.O.P`C`C.Q`C`C`C`C`C.R.S.T``````",
"`C`s.U.V.W.X.Y.Z.0`C`C`C`C`C`C.1.2``````",
"`C`s.3.f.4.5.6.7.8#`#.###a`C`C#b#c#d#e``",
"`C`s#f.g#g#h#i#j#k#l#m#n#o#p`C#q#r#s#t``",
"`C`s#u.t#v#w#x#y#z#A#B#C#D#E`C#F#G#H#I``",
"`C`s#J#K#L#M#N#O#P#Q#R#S#T#U`C#V#W#X````",
"#Y#Z#0#1#2#3#4#5#6#6#7#8a`a.a#aa````````",
"abacadadadadadaeaeaeafagahaiaj``````````",
"````````````````````akalam``````````````",
"``````````````````````anao``````````````",
"````````````````````````````````````````"
};
