/* XPM */
static char *randomize_xpm[] = {
/* width height num_colors chars_per_pixel */
"    24    24      256            2",
/* colors */
"`` c #040604",
"`. c #848684",
"`# c #c4c6c4",
"`a c #444644",
"`b c #a4a6a4",
"`c c #646664",
"`d c #e4e6dc",
"`e c #242624",
"`f c #949694",
"`g c #747674",
"`h c #d4d6cc",
"`i c #b4b6b4",
"`j c #545654",
"`k c #f4f6f4",
"`l c #141614",
"`m c #343634",
"`n c #eceee4",
"`o c #9c9e9c",
"`p c #7c7e7c",
"`q c #dcded4",
"`r c #8c8e8c",
"`s c #6c6e6c",
"`t c #bcbebc",
"`u c #cccec4",
"`v c #4c4e4c",
"`w c #acaeac",
"`x c #5c5e5c",
"`y c #2c2e2c",
"`z c #1c1e1c",
"`A c #0c0e0c",
"`B c #8c8684",
"`C c #ece6e4",
"`D c #9c9694",
"`E c #7c7674",
"`F c #dcd6d4",
"`G c #bcb6b4",
"`H c #fcfef4",
"`I c #3c3e3c",
"`J c #f4eeec",
"`K c #a49e9c",
"`L c #847e7c",
"`M c #e4dedc",
"`N c #746e6c",
"`O c #d4cecc",
"`P c #4c4a44",
"`Q c #aca6a4",
"`R c #6c6a64",
"`S c #5c5a54",
"`T c #fcf6f4",
"`U c #948e8c",
"`V c #c4bebc",
"`W c #54524c",
"`X c #b4aeac",
"`Y c #64625c",
"`Z c #34322c",
"`0 c #241e1c",
"`1 c #8c8a84",
"`2 c #9c9a94",
"`3 c #7c7a74",
"`4 c #bcbab4",
"`5 c #a4a29c",
"`6 c #84827c",
"`7 c #74726c",
"`8 c #0c0a0c",
".` c #cccac4",
".. c #e4e6e4",
".# c #2c2a2c",
".a c #d4d6d4",
".b c #1c1a14",
".c c #3c3a3c",
".d c #eceeec",
".e c #dcdedc",
".f c #cccecc",
".g c #141214",
".h c #eceae4",
".i c #dcdad4",
".j c #444244",
".k c #f4f2ec",
".l c #e4e2dc",
".m c #d4d2cc",
".n c #4c4a4c",
".o c #acaaa4",
".p c #6c6a6c",
".q c #5c5a5c",
".r c #fcfaf4",
".s c #949294",
".t c #c4c2bc",
".u c #545254",
".v c #b4b2ac",
".w c #646264",
".x c #343234",
".y c #242224",
".z c #8c8a8c",
".A c #9c9a9c",
".B c #7c7a7c",
".C c #bcbabc",
".D c #a4a2a4",
".E c #848284",
".F c #747274",
".G c #000000",
".H c #000000",
".I c #000000",
".J c #000000",
".K c #000000",
".L c #000000",
".M c #000000",
".N c #000000",
".O c #000000",
".P c #000000",
".Q c #000000",
".R c #000000",
".S c #000000",
".T c #000000",
".U c #000000",
".V c #000000",
".W c #000000",
".X c #000000",
".Y c #000000",
".Z c #000000",
".0 c #000000",
".1 c #000000",
".2 c #000000",
".3 c #000000",
".4 c #000000",
".5 c #000000",
".6 c #000000",
".7 c #000000",
".8 c #000000",
"#` c #000000",
"#. c #000000",
"## c #000000",
"#a c #000000",
"#b c #000000",
"#c c #000000",
"#d c #000000",
"#e c #000000",
"#f c #000000",
"#g c #000000",
"#h c #000000",
"#i c #000000",
"#j c #000000",
"#k c #000000",
"#l c #000000",
"#m c #000000",
"#n c #000000",
"#o c #000000",
"#p c #000000",
"#q c #000000",
"#r c #000000",
"#s c #000000",
"#t c #000000",
"#u c #000000",
"#v c #000000",
"#w c #000000",
"#x c #000000",
"#y c #000000",
"#z c #000000",
"#A c #000000",
"#B c #000000",
"#C c #000000",
"#D c #000000",
"#E c #000000",
"#F c #000000",
"#G c #000000",
"#H c #000000",
"#I c #000000",
"#J c #000000",
"#K c #000000",
"#L c #000000",
"#M c #000000",
"#N c #000000",
"#O c #000000",
"#P c #000000",
"#Q c #000000",
"#R c #000000",
"#S c #000000",
"#T c #000000",
"#U c #000000",
"#V c #000000",
"#W c #000000",
"#X c #000000",
"#Y c #000000",
"#Z c #000000",
"#0 c #000000",
"#1 c #000000",
"#2 c #000000",
"#3 c #000000",
"#4 c #000000",
"#5 c #000000",
"#6 c #000000",
"#7 c #000000",
"#8 c #000000",
"a` c #000000",
"a. c #000000",
"a# c #000000",
"aa c #000000",
"ab c #000000",
"ac c #000000",
"ad c #000000",
"ae c #000000",
"af c #000000",
"ag c #000000",
"ah c #000000",
"ai c #000000",
"aj c #000000",
"ak c #000000",
"al c #000000",
"am c #000000",
"an c #000000",
"ao c #000000",
"ap c #000000",
"aq c #000000",
"ar c #000000",
"as c #000000",
"at c #000000",
"au c #000000",
"av c #000000",
"aw c #000000",
"ax c #000000",
"ay c #000000",
"az c #000000",
"aA c #000000",
"aB c #000000",
"aC c #000000",
"aD c #000000",
"aE c #000000",
"aF c #000000",
"aG c #000000",
"aH c #000000",
"aI c #000000",
"aJ c #000000",
"aK c #000000",
"aL c #000000",
"aM c #000000",
"aN c #000000",
"aO c #000000",
"aP c #000000",
"aQ c #000000",
"aR c #000000",
"aS c #000000",
"aT c #000000",
"aU c #000000",
"aV c #000000",
"aW c #000000",
"aX c #000000",
"aY c #000000",
"aZ c #000000",
"a0 c #000000",
"a1 c #000000",
"a2 c #000000",
"a3 c #000000",
"a4 c #000000",
"a5 c #000000",
"a6 c #000000",
"a7 c #000000",
"a8 c #000000",
/* pixels */
".h...h...h...h...h...`.E`p`#.h...h...h...h...h..",
"...h...h...h....`w`c.n`U`1.c`v.A.l...h...h...h..",
".h...h...h.m.s`W.F`4.k.k.d.h`b.n`z.p`#.h...h...h",
"...h..`4.B`j`f.l.e.k.r.r`k.k.h`h.t`c.g`I`o..`C..",
".l.A`c`g.C`T.l`z`8`l`3.r.r.i`e`8.g`7`F`1`Z`l.p`q",
"`o.q.p.`.r`H`t`e`x.p.F.r.r`i`e.q`c.p`q.a`2.y``.p",
"`5`r`p`v`v`K.d`O`#.l.k.r`T.k`V`4.a`#`E`l`A`a`j.F",
".D`o.h`J`b`v`y.p.`.r.r`k.k.d.h.v`v`8`z.B.f`O`c`g",
"`5`o.k`T.r.r.i`Y`z.x.s.l.l`1.y`A`I`X`i`Z`6.``c`7",
".D`5.r.r.r.r.r.r`T`.`0```8`z`g`F.m`u`s`z`R.``c`g",
"`5.D.r.r.r.r.r.r`H.r.r`c`Y.h.v`y`Q.f`S.c.s.``c.F",
"`o`b.r.r`H`T.o.r.r.r.r`p`E.h.u`y.E.f`..x`f.f`c`g",
"`5.D.r.r.r`s`l`f.r`H.r.B.B.h`m.n`w`O`u`1.t.``c.F",
"`o`b.r.r`H.x`a`Q.r.r.r`p`E.h.p.j`w`O.``s`w.``R.F",
"`5.D.r.r.r.n`v`#.r.r.r.B`g.h`q.s.m`u`p.g`S.f`c`7",
"`o`K`k.r.r`G`j`F.r.r`T`E`g.l.m`g`#.``W`m`B.``c`g",
"`o.A`J.k`T`k.r`T`k.k`J`g.F.l.w.b`E.f`g.c`f.f`R.F",
".D`g.i.h.d.k`J.d`J.d.h.F`s.i`y`a`o.``V`j`w`G.c`g",
".e.s`v`6.a`d.h..`C.l.e`s`s.m`W.n`w.f`u`4`S`A`R.i",
".h...i`.`I`E.``M`q`q.i`R`R.f.o.q`i`4`S`A.p.m....",
"...h.h.h.a`p.#`c.t.m.m`c`c.`.``4`S`A.p.m...h...h",
".h.....h...h.a`7`l.q`4`c`R`G.q`A`c.a...h...h...h",
"...h...h...h...h.a`c.g.#`y`A`c.a.h.h...h...h...h",
".h...h...h...h...h..`h.w.w.a.h...h...h...h...h.."
};
