/* XPM */
static char *real_icon_xpm[] = {
/* width height num_colors chars_per_pixel */
"    20    19      256            2",
/* colors */
"`` c #ffffff",
"`. c #dadada",
"`# c #acacac",
"`a c #8e8e8e",
"`b c #8d8d8d",
"`c c #fefefe",
"`d c #909090",
"`e c #b8b8b8",
"`f c #d9d9d9",
"`g c #dddddd",
"`h c #dcdcdc",
"`i c #dbdbdc",
"`j c #9797f0",
"`k c #9090f2",
"`l c #8e8ef1",
"`m c #a7a7c4",
"`n c #aaaaaa",
"`o c #b4b4b4",
"`p c #eeeeee",
"`q c #e7e7e7",
"`r c #d5d5d5",
"`s c #d0d0d4",
"`t c #7d7df5",
"`u c #a0a0e6",
"`v c #9a9af8",
"`w c #b4b4f5",
"`x c #b6b6b6",
"`y c #e8e8ed",
"`z c #7070f7",
"`A c #6767f7",
"`B c #8e8ef2",
"`C c #bfbfbf",
"`D c #949494",
"`E c #8f8f8f",
"`F c #959595",
"`G c #a8a8a8",
"`H c #a8a8ad",
"`I c #7676ea",
"`J c #9090cd",
"`K c #9f9ff6",
"`L c #b3b3f4",
"`M c #d6d6d6",
"`N c #d7d7d7",
"`O c #d6d6ee",
"`P c #3b3bfa",
"`Q c #6262d9",
"`R c #2020e2",
"`S c #b3b3b3",
"`T c #e6e6e6",
"`U c #ececec",
"`V c #eaeaec",
"`W c #8888fa",
"`X c #8787fa",
"`Y c #8484fa",
"`Z c #c8c8f1",
"`0 c #d5d5ed",
"`1 c #4343f9",
"`2 c #8c8cf0",
"`3 c #5959bd",
"`4 c #6a6ace",
"`5 c #ebebeb",
"`6 c #5a5abe",
"`7 c #7b7bdf",
"`8 c #8f8ff3",
".` c #eaeaea",
".. c #d7d7ec",
".# c #1b1bf3",
".a c #3d3de7",
".b c #4e4ef8",
".c c #3434fa",
".d c #72729a",
".e c #bcbcec",
".f c #bdbded",
".g c #c1c1ee",
".h c #d1d1eb",
".i c #e9e9e9",
".j c #d4d4d4",
".k c #aeaeae",
".l c #6c6c6c",
".m c #848484",
".n c #c9c9c9",
".o c #e8e8e8",
".p c #cacaca",
".q c #828282",
".r c #4b4b4b",
".s c #c4c4c4",
".t c #d3d3d3",
".u c #a3a3a3",
".v c #d1d1d1",
".w c #0a0a0a",
".x c #ababab",
".y c #8c8c8c",
".z c #222222",
".A c #6b6b6b",
".B c #b9b9b9",
".C c #575757",
".D c #787878",
".E c #929292",
".F c #919191",
".G c #e3e3e3",
".H c #999999",
".I c #2a2a2a",
".J c #d0d0d0",
".K c #000000",
".L c #e1e1e1",
".M c #cdcdcd",
".N c #979797",
".O c #333333",
".P c #a0a0a0",
".Q c #d2d2d2",
".R c #868686",
".S c #484848",
".T c #dbdbdb",
".U c #363636",
".V c #888888",
".W c #e5e5e5",
".X c #838383",
".Y c #4d4d4d",
".Z c #0d0d0d",
".0 c #9d9d9d",
".1 c #474747",
".2 c #525252",
".3 c #cbcbcb",
".4 c #8a8a99",
".5 c #8080f3",
".6 c #6f6fe2",
".7 c #8383f8",
".8 c #8a8aa2",
"#` c #2e2e2e",
"#. c #cfcfcf",
"## c #e4e4e4",
"#a c #5b5b5b",
"#b c #8787a5",
"#c c #8787ef",
"#d c #7e7ebb",
"#e c #9393f4",
"#f c #a3a3cf",
"#g c #050505",
"#h c #bebebe",
"#i c #a1a1a1",
"#j c #1a1a1a",
"#k c #c6c6c6",
"#l c #646464",
"#m c #b0b0b0",
"#n c #9a9a9a",
"#o c #9d9dba",
"#p c #7b7be6",
"#q c #9f9fe2",
"#r c #9191f5",
"#s c #bebeea",
"#t c #202020",
"#u c #5f5f5f",
"#v c #bababa",
"#w c #dedede",
"#x c #424242",
"#y c #c8c8c8",
"#z c #282828",
"#A c #414141",
"#B c #d2d2de",
"#C c #7474d9",
"#D c #7d7de5",
"#E c #8888ef",
"#F c #c5c5d7",
"#G c #000000",
"#H c #000000",
"#I c #000000",
"#J c #000000",
"#K c #000000",
"#L c #000000",
"#M c #000000",
"#N c #000000",
"#O c #000000",
"#P c #000000",
"#Q c #000000",
"#R c #000000",
"#S c #000000",
"#T c #000000",
"#U c #000000",
"#V c #000000",
"#W c #000000",
"#X c #000000",
"#Y c #000000",
"#Z c #000000",
"#0 c #000000",
"#1 c #000000",
"#2 c #000000",
"#3 c #000000",
"#4 c #000000",
"#5 c #000000",
"#6 c #000000",
"#7 c #000000",
"#8 c #000000",
"a` c #000000",
"a. c #000000",
"a# c #000000",
"aa c #000000",
"ab c #000000",
"ac c #000000",
"ad c #000000",
"ae c #000000",
"af c #000000",
"ag c #000000",
"ah c #000000",
"ai c #000000",
"aj c #000000",
"ak c #000000",
"al c #000000",
"am c #000000",
"an c #000000",
"ao c #000000",
"ap c #000000",
"aq c #000000",
"ar c #000000",
"as c #000000",
"at c #000000",
"au c #000000",
"av c #000000",
"aw c #000000",
"ax c #000000",
"ay c #000000",
"az c #000000",
"aA c #000000",
"aB c #000000",
"aC c #000000",
"aD c #000000",
"aE c #000000",
"aF c #000000",
"aG c #000000",
"aH c #000000",
"aI c #000000",
"aJ c #000000",
"aK c #000000",
"aL c #000000",
"aM c #000000",
"aN c #000000",
"aO c #000000",
"aP c #000000",
"aQ c #000000",
"aR c #000000",
"aS c #000000",
"aT c #000000",
"aU c #000000",
"aV c #000000",
"aW c #000000",
"aX c #000000",
"aY c #000000",
"aZ c #000000",
"a0 c #000000",
"a1 c #000000",
"a2 c #000000",
"a3 c #000000",
"a4 c #000000",
"a5 c #000000",
"a6 c #000000",
"a7 c #000000",
"a8 c #000000",
/* pixels */
"```.`#`a`b`b`b`b`b`b`b`b`b`b`b`b`a`#`.`c",
"`.`d`e`f`g`g`h`h`h`h`h`h`h`i`j`k`l`m`d`.",
"`n`o`p`p`p`p`p`p`p`p`p`q`r`s`t`u`v`w`x`n",
"`d`r`y`z`A`A`A`B`C`D`E`F`G`H`I`J`K`L`M`d",
"`E`N`O`P`t`t`Q`R`S`T`U`U`U`V`W`X`Y`Z`N`E",
"`E`M`0`1`2`3`4`P`5`5`5`5`5`5`5`5`5`5`M`E",
"`E`M`0`1`6`7`8`P`5`5`5`5`5`5.`.`.`.``M`E",
"`E`M...#.a.b.b.c.`.`.`.`.`.`.`.`.`.``M`E",
"`E`r`q.d.e.f.g.h.i.i.i.i.i.i.i.i`5.i`r`E",
"`E.j`C.k.i`e.l.m.n.o.o.o.o.o.p.q.r`a.s`E",
"`E.t.u.v.n.w.x.y.z`.`q`q`q.o.A.A.B.C.D.E",
"`E.t.F.G.H.I`q.J.K`S`q`q`q.L.k.M`q.N.O.P",
"`E.Q.y`T.R.S.o.T.w.P`T`T`T`T`T`T.J.U.V.F",
"`a.Q`b.W.X.Y`q.T.Z.0.W.W.W.W.W.j.1.2.3`a",
".4.5.6.7.8#`.o#..K.k########`M.2#a`N.v`a",
"#b#c#d#e#f#g#h#i#j`r.L.u#k###l#j.B#m`##n",
"#o#p#q#r#s`F#t#u#v.G#w#x`n#y.I#z#z#z#A`o",
"#B#C#D#E#F.t`r`r.Q.Q.t`f`N`M`f`f`N#h#i`g",
"```.`#`a`b`b`b`b`b`b`b`b`b`b`b`b`a`#`.`c"
};
