/* XPM */
static char *redo_icon_xpm[] = {
/* width height num_colors chars_per_pixel */
"    17    20      256            2",
/* colors */
"`` c #ffffff",
"`. c #44cf2f",
"`# c #99e58f",
"`a c #1ec605",
"`b c #1ac400",
"`c c #96e48b",
"`d c #62e557",
"`e c #30ca18",
"`f c #94e388",
"`g c #fbfdfb",
"`h c #85f581",
"`i c #b2f8b0",
"`j c #33cb1c",
"`k c #90e285",
"`l c #e9f9e6",
"`m c #82de74",
"`n c #48d135",
"`o c #1fc606",
"`p c #1ac501",
"`q c #92fa90",
"`r c #ccffcc",
"`s c #b5f9b3",
"`t c #2fc917",
"`u c #8de181",
"`v c #b4ecac",
"`w c #25c80e",
"`x c #26d010",
"`y c #55e84b",
"`z c #94f690",
"`A c #b8fdb8",
"`B c #c9ffc9",
"`C c #acffac",
"`D c #c4ffc4",
"`E c #b6f9b3",
"`F c #29c811",
"`G c #8ce17f",
"`H c #78dc69",
"`I c #42e637",
"`J c #a5ffa5",
"`K c #a3ffa3",
"`L c #62ff62",
"`M c #46ff46",
"`N c #55ff55",
"`O c #63ff63",
"`P c #6fff6f",
"`Q c #c8ffc8",
"`R c #b2f9af",
"`S c #24c70b",
"`T c #87e07b",
"`U c #b8edb0",
"`V c #1bc502",
"`W c #5ef559",
"`X c #b1ffb1",
"`Y c #60ff60",
"`Z c #05ff05",
"`0 c #00ff00",
"`1 c #24ff24",
"`2 c #59ff59",
"`3 c #73ff73",
"`4 c #a9f8a5",
"`5 c #1fc506",
"`6 c #f1fbf1",
"`7 c #2bc915",
"`8 c #4de842",
".` c #b0ffb0",
".. c #37ff37",
".# c #01ff01",
".a c #45ff45",
".b c #65ff65",
".c c #c0ffc0",
".d c #9efd9d",
".e c #1dcc08",
".f c #52d540",
".g c #2bcf15",
".h c #adfeac",
".i c #4fff4f",
".j c #0aff0a",
".k c #16ff16",
".l c #12ff12",
".m c #2bff2b",
".n c #b6ffb6",
".o c #99fd98",
".p c #22d20d",
".q c #3ace24",
".r c #e8f8e7",
".s c #60d64f",
".t c #62e857",
".u c #9eff9e",
".v c #03ff03",
".w c #6cff6c",
".x c #b2ffb2",
".y c #7cff7c",
".z c #98ff98",
".A c #8bfd8a",
".B c #23d10d",
".C c #e9fae8",
".D c #34cc1f",
".E c #92f38d",
".F c #5eff5e",
".G c #3cff3c",
".H c #aeffae",
".I c #9af796",
".J c #5cde4e",
".K c #4dd539",
".L c #3fd22c",
".M c #84fb83",
".N c #8dfd8c",
".O c #24d10f",
".P c #3bce25",
".Q c #20c507",
".R c #9bf697",
".S c #4dff4d",
".T c #86ff86",
".U c #7af073",
".V c #1cc403",
".W c #70da60",
".X c #a3e89a",
".Y c #1bc403",
".Z c #7af575",
".0 c #90fd8f",
".1 c #25d110",
".2 c #eaf9e9",
".3 c #59d547",
".4 c #8cec84",
".5 c #7eff7e",
".6 c #4ed73b",
".7 c #88e07a",
".8 c #5aef53",
"#` c #27d212",
"#. c #3ccd26",
"## c #a6e79d",
"#a c #49d237",
"#b c #61e455",
"#c c #fefffe",
"#d c #19c601",
"#e c #3dcd27",
"#f c #eefaec",
"#g c #23c70a",
"#h c #6ee863",
"#i c #88f985",
"#j c #1bc503",
"#k c #7ede6f",
"#l c #21c608",
"#m c #ebf9ea",
"#n c #cef2c9",
"#o c #24c70d",
"#p c #49df3a",
"#q c #95fe95",
"#r c #0fee07",
"#s c #1cc805",
"#t c #40cf2c",
"#u c #85df78",
"#v c #edf9eb",
"#w c #d6f4d3",
"#x c #2ac913",
"#y c #2dcf18",
"#z c #1fe212",
"#A c #07ee00",
"#B c #14d704",
"#C c #99e58d",
"#D c #e6f8e4",
"#E c #8ce280",
"#F c #1ccc06",
"#G c #13d500",
"#H c #19c600",
"#I c #1bcb09",
"#J c #33d52b",
"#K c #66e166",
"#L c #b5eeb6",
"#M c #e3f7e4",
"#N c #daf5d6",
"#O c #8fe282",
"#P c #4ed33b",
"#Q c #51d540",
"#R c #61db59",
"#S c #72e271",
"#T c #86ea87",
"#U c #9df29f",
"#V c #dcfade",
"#W c #000000",
"#X c #000000",
"#Y c #000000",
"#Z c #000000",
"#0 c #000000",
"#1 c #000000",
"#2 c #000000",
"#3 c #000000",
"#4 c #000000",
"#5 c #000000",
"#6 c #000000",
"#7 c #000000",
"#8 c #000000",
"a` c #000000",
"a. c #000000",
"a# c #000000",
"aa c #000000",
"ab c #000000",
"ac c #000000",
"ad c #000000",
"ae c #000000",
"af c #000000",
"ag c #000000",
"ah c #000000",
"ai c #000000",
"aj c #000000",
"ak c #000000",
"al c #000000",
"am c #000000",
"an c #000000",
"ao c #000000",
"ap c #000000",
"aq c #000000",
"ar c #000000",
"as c #000000",
"at c #000000",
"au c #000000",
"av c #000000",
"aw c #000000",
"ax c #000000",
"ay c #000000",
"az c #000000",
"aA c #000000",
"aB c #000000",
"aC c #000000",
"aD c #000000",
"aE c #000000",
"aF c #000000",
"aG c #000000",
"aH c #000000",
"aI c #000000",
"aJ c #000000",
"aK c #000000",
"aL c #000000",
"aM c #000000",
"aN c #000000",
"aO c #000000",
"aP c #000000",
"aQ c #000000",
"aR c #000000",
"aS c #000000",
"aT c #000000",
"aU c #000000",
"aV c #000000",
"aW c #000000",
"aX c #000000",
"aY c #000000",
"aZ c #000000",
"a0 c #000000",
"a1 c #000000",
"a2 c #000000",
"a3 c #000000",
"a4 c #000000",
"a5 c #000000",
"a6 c #000000",
"a7 c #000000",
"a8 c #000000",
/* pixels */
"`````````````````.`#``````````````",
"`````````````````a`b`c````````````",
"`````````````````a`d`e`f``````````",
"```````````````g`a`h`i`j`k````````",
"`````````l`m`n`o`p`q`r`s`t`u``````",
"```````v`w`x`y`z`A`B`C`D`E`F`G````",
"`````H`p`I`J`K`L`M`N`O`P`Q`R`S`T``",
"```U`V`W`X`Y`Z`0`0`0`1`2`3`Q`4`5`G",
"`6`7`8.`..`0`0`0`0`0.#.a.b.c.d.e.f",
"`k.g.h.i`0`0`0.#.j.k.l.m.n.o.p.q.r",
".s.t.u.v.k.w`J.`.x.x.y.z.A.B.q.C``",
".D.E.F.G.H.I.J.K.L.M.x.N.O.P.C````",
".Q.R.S.T.U.V.W.X.Y.Z.0.1.P.2``````",
".3.4.5`X.6.7`````a.8#`#..2````````",
"###a`X`X#b.3#c```a#d#e.2``````````",
"#f#g#h.x#i#j#k`g#l#e#m````````````",
"``#n#o#p#q#r#s#t#u#v``````````````",
"````#w#x#y#z#A#B`b.q#C#D``````````",
"``````#D#E.q`b#F#G#H#I#J#K#L#M#c``",
"````````````#N#O#P#Q#R#S#T#U#V````"
};
