/* XPM */
static char *redo_disabled_icon_xpm[] = {
/* width height num_colors chars_per_pixel */
"    17    20      256            2",
/* colors */
"`` c #ffffff",
"`. c #7f7f7f",
"`# c #bababa",
"`a c #666666",
"`b c #626262",
"`c c #b6b6b6",
"`d c #a2a2a2",
"`e c #6f6f6f",
"`f c #b3b3b3",
"`g c #fefefe",
"`h c #bcbcbc",
"`i c #b1b1b1",
"`j c #717171",
"`k c #b0b0b0",
"`l c #ededed",
"`m c #a8a8a8",
"`n c #868686",
"`o c #676767",
"`p c #b8b8b8",
"`q c #b2b2b2",
"`r c #6d6d6d",
"`s c #adadad",
"`t c #c9c9c9",
"`u c #6a6a6a",
"`v c #737373",
"`w c #c7c7c7",
"`x c #c3c3c3",
"`y c #b7b7b7",
"`z c #6b6b6b",
"`A c #a9a9a9",
"`B c #a3a3a3",
"`C c #979797",
"`D c #dbdbdb",
"`E c #c1c1c1",
"`F c #afafaf",
"`G c #a6a6a6",
"`H c #9d9d9d",
"`I c #b4b4b4",
"`J c #696969",
"`K c #a5a5a5",
"`L c #cecece",
"`M c #e0e0e0",
"`N c #bfbfbf",
"`O c #9b9b9b",
"`P c #999999",
"`Q c #989898",
"`R c #9e9e9e",
"`S c #b5b5b5",
"`T c #686868",
"`U c #f5f5f5",
"`V c #707070",
"`W c #9f9f9f",
"`X c #747474",
"`Y c #dddddd",
"`Z c #b9b9b9",
"`0 c #a0a0a0",
"`1 c #c0c0c0",
"`2 c #767676",
"`3 c #929292",
"`4 c #a7a7a7",
"`5 c #d7d7d7",
"`6 c #a1a1a1",
"`7 c #c4c4c4",
"`8 c #dadada",
".` c #cdcdcd",
".. c #727272",
".# c #777777",
".a c #f0f0f0",
".b c #c6c6c6",
".c c #bebebe",
".d c #dedede",
".e c #cccccc",
".f c #7e7e7e",
".g c #d0d0d0",
".h c #797979",
".i c #bbbbbb",
".j c #636363",
".k c #d2d2d2",
".l c #7b7b7b",
".m c #f1f1f1",
".n c #8f8f8f",
".o c #ababab",
".p c #aaaaaa",
".q c #7c7c7c",
".r c #c2c2c2",
".s c #848484",
".t c #dfdfdf",
".u c #878787",
".v c #fdfdfd",
".w c #f3f3f3",
".x c #cacaca",
".y c #646464",
".z c #fbfbfb",
".A c #e2e2e2",
".B c #6e6e6e",
".C c #8e8e8e",
".D c #e8e8e8",
".E c #838383",
".F c #888888",
".G c #eaeaea",
".H c #cdcdcc",
".I c #8d8d8d",
".J c #919191",
".K c #000000",
".L c #000000",
".M c #000000",
".N c #000000",
".O c #000000",
".P c #000000",
".Q c #000000",
".R c #000000",
".S c #000000",
".T c #000000",
".U c #000000",
".V c #000000",
".W c #000000",
".X c #000000",
".Y c #000000",
".Z c #000000",
".0 c #000000",
".1 c #000000",
".2 c #000000",
".3 c #000000",
".4 c #000000",
".5 c #000000",
".6 c #000000",
".7 c #000000",
".8 c #000000",
"#` c #000000",
"#. c #000000",
"## c #000000",
"#a c #000000",
"#b c #000000",
"#c c #000000",
"#d c #000000",
"#e c #000000",
"#f c #000000",
"#g c #000000",
"#h c #000000",
"#i c #000000",
"#j c #000000",
"#k c #000000",
"#l c #000000",
"#m c #000000",
"#n c #000000",
"#o c #000000",
"#p c #000000",
"#q c #000000",
"#r c #000000",
"#s c #000000",
"#t c #000000",
"#u c #000000",
"#v c #000000",
"#w c #000000",
"#x c #000000",
"#y c #000000",
"#z c #000000",
"#A c #000000",
"#B c #000000",
"#C c #000000",
"#D c #000000",
"#E c #000000",
"#F c #000000",
"#G c #000000",
"#H c #000000",
"#I c #000000",
"#J c #000000",
"#K c #000000",
"#L c #000000",
"#M c #000000",
"#N c #000000",
"#O c #000000",
"#P c #000000",
"#Q c #000000",
"#R c #000000",
"#S c #000000",
"#T c #000000",
"#U c #000000",
"#V c #000000",
"#W c #000000",
"#X c #000000",
"#Y c #000000",
"#Z c #000000",
"#0 c #000000",
"#1 c #000000",
"#2 c #000000",
"#3 c #000000",
"#4 c #000000",
"#5 c #000000",
"#6 c #000000",
"#7 c #000000",
"#8 c #000000",
"a` c #000000",
"a. c #000000",
"a# c #000000",
"aa c #000000",
"ab c #000000",
"ac c #000000",
"ad c #000000",
"ae c #000000",
"af c #000000",
"ag c #000000",
"ah c #000000",
"ai c #000000",
"aj c #000000",
"ak c #000000",
"al c #000000",
"am c #000000",
"an c #000000",
"ao c #000000",
"ap c #000000",
"aq c #000000",
"ar c #000000",
"as c #000000",
"at c #000000",
"au c #000000",
"av c #000000",
"aw c #000000",
"ax c #000000",
"ay c #000000",
"az c #000000",
"aA c #000000",
"aB c #000000",
"aC c #000000",
"aD c #000000",
"aE c #000000",
"aF c #000000",
"aG c #000000",
"aH c #000000",
"aI c #000000",
"aJ c #000000",
"aK c #000000",
"aL c #000000",
"aM c #000000",
"aN c #000000",
"aO c #000000",
"aP c #000000",
"aQ c #000000",
"aR c #000000",
"aS c #000000",
"aT c #000000",
"aU c #000000",
"aV c #000000",
"aW c #000000",
"aX c #000000",
"aY c #000000",
"aZ c #000000",
"a0 c #000000",
"a1 c #000000",
"a2 c #000000",
"a3 c #000000",
"a4 c #000000",
"a5 c #000000",
"a6 c #000000",
"a7 c #000000",
"a8 c #000000",
/* pixels */
"`````````````````.`#``````````````",
"`````````````````a`b`c````````````",
"`````````````````a`d`e`f``````````",
"```````````````g`a`h`i`j`k````````",
"`````````l`m`n`o`b`p`h`q`r`s``````",
"```````t`u`v`d`w`x`h`f`y`q`z`A````",
"`````B`b`C`D`D`E`F`G`H`H`p`I`J`K``",
"```L`b`f`M`N`O`P`P`P`Q`P`R`p`S`T`m",
"`U`V`W`M`F`P`P`P`P`P`P`P`R`p`h`e`n",
"`f`X`Y`Z`P`P`P`P`H`d`0`0`#`1`j`2`l",
"`3`4`5`P`6`7`8`M`M`M.``5.`...#.a``",
"`2.b.c`i.d.e`Q`n.f`w`M.g...h.a````",
"`o.``p`L.i`a`R`1.j`h.k`X.l.m``````",
".n`h.e`M.n.o`````a.p`X.q.m````````",
".r.s.t`M`B.u.v```a.j.q.w``````````",
".w`u`4.t.x.y`0.z`o.f.w````````````",
"``.A.B.n.k.C`J.h`m.w``````````````",
"````.D..`X.E.F`2`b`X`q.G``````````",
"``````.m`c`.`b`u...y`u`.`0.H`l`g``",
"````````````.G`c.I.J`W`s`h`L`l````"
};
