/* XPM */
static char *remove_manual_kerns_xpm[] = {
/* width height num_colors chars_per_pixel */
"    16    16      256            2",
/* colors */
"`` c #3465a4",
"`. c #f0f2e7",
"`# c #f4f3ee",
"`a c #3668a0",
"`b c #efeee9",
"`c c #fffdf8",
"`d c #73d216",
"`e c #fcfbf6",
"`f c #f5f6eb",
"`g c #77d31c",
"`h c #f2f0eb",
"`i c #000000",
"`j c #fdfbf6",
"`k c #faf8f3",
"`l c #f2f4e9",
"`m c #eae9e5",
"`n c #0e1a03",
"`o c #dfddd9",
"`p c #fbf9f4",
"`q c #f7f5f0",
"`r c #f0f1e6",
"`s c #76d31c",
"`t c #edebe6",
"`u c #f8f6f1",
"`v c #f5f3ee",
"`w c #edeee3",
"`x c #eae9e4",
"`y c #0c0c0c",
"`z c #f6f4ef",
"`A c #ebece1",
"`B c #e8e6e1",
"`C c #e6e5e1",
"`D c #1d1d1d",
"`E c #f3f1ec",
"`F c #e8e9df",
"`G c #e5e4df",
"`H c #2e2e2e",
"`I c #f0efea",
"`J c #e5e7dd",
"`K c #76d21c",
"`L c #e2e1dc",
"`M c #3f3f3f",
"`N c #d9d7d3",
"`O c #eeece7",
"`P c #e3e4da",
"`Q c #76d21b",
"`R c #e0ded9",
"`S c #e2e1dd",
"`T c #1f1f1e",
"`U c #383838",
"`V c #060606",
"`W c #1e1e1d",
"`X c #c80000",
"`Y c #d97472",
"`Z c #d4716c",
"`0 c #dddcd7",
"`1 c #f6f5f0",
"`2 c #9d690b",
"`3 c #d03837",
"`4 c #9f690d",
"`5 c #dbd9d4",
"`6 c #fefcf7",
"`7 c #f4f2ed",
"`8 c #cd3734",
".` c #d8d7d2",
".. c #deddd9",
".# c #fcfaf5",
".a c #f1efea",
".b c #ce3736",
".c c #d5d4cf",
".d c #f9f7f2",
".e c #efede8",
".f c #ebe9e4",
".g c #d46f6d",
".h c #cf6c66",
".i c #d3d2cd",
".j c #eceae5",
".k c #e9e7e2",
".l c #deddd8",
".m c #d4d6cb",
".n c #d0cfca",
".o c #dadad5",
".p c #f2f1ec",
".q c #ecece7",
".r c #e7e6e1",
".s c #e1e1dc",
".t c #dcdcd7",
".u c #000000",
".v c #000000",
".w c #000000",
".x c #000000",
".y c #000000",
".z c #000000",
".A c #000000",
".B c #000000",
".C c #000000",
".D c #000000",
".E c #000000",
".F c #000000",
".G c #000000",
".H c #000000",
".I c #000000",
".J c #000000",
".K c #000000",
".L c #000000",
".M c #000000",
".N c #000000",
".O c #000000",
".P c #000000",
".Q c #000000",
".R c #000000",
".S c #000000",
".T c #000000",
".U c #000000",
".V c #000000",
".W c #000000",
".X c #000000",
".Y c #000000",
".Z c #000000",
".0 c #000000",
".1 c #000000",
".2 c #000000",
".3 c #000000",
".4 c #000000",
".5 c #000000",
".6 c #000000",
".7 c #000000",
".8 c #000000",
"#` c #000000",
"#. c #000000",
"## c #000000",
"#a c #000000",
"#b c #000000",
"#c c #000000",
"#d c #000000",
"#e c #000000",
"#f c #000000",
"#g c #000000",
"#h c #000000",
"#i c #000000",
"#j c #000000",
"#k c #000000",
"#l c #000000",
"#m c #000000",
"#n c #000000",
"#o c #000000",
"#p c #000000",
"#q c #000000",
"#r c #000000",
"#s c #000000",
"#t c #000000",
"#u c #000000",
"#v c #000000",
"#w c #000000",
"#x c #000000",
"#y c #000000",
"#z c #000000",
"#A c #000000",
"#B c #000000",
"#C c #000000",
"#D c #000000",
"#E c #000000",
"#F c #000000",
"#G c #000000",
"#H c #000000",
"#I c #000000",
"#J c #000000",
"#K c #000000",
"#L c #000000",
"#M c #000000",
"#N c #000000",
"#O c #000000",
"#P c #000000",
"#Q c #000000",
"#R c #000000",
"#S c #000000",
"#T c #000000",
"#U c #000000",
"#V c #000000",
"#W c #000000",
"#X c #000000",
"#Y c #000000",
"#Z c #000000",
"#0 c #000000",
"#1 c #000000",
"#2 c #000000",
"#3 c #000000",
"#4 c #000000",
"#5 c #000000",
"#6 c #000000",
"#7 c #000000",
"#8 c #000000",
"a` c #000000",
"a. c #000000",
"a# c #000000",
"aa c #000000",
"ab c #000000",
"ac c #000000",
"ad c #000000",
"ae c #000000",
"af c #000000",
"ag c #000000",
"ah c #000000",
"ai c #000000",
"aj c #000000",
"ak c #000000",
"al c #000000",
"am c #000000",
"an c #000000",
"ao c #000000",
"ap c #000000",
"aq c #000000",
"ar c #000000",
"as c #000000",
"at c #000000",
"au c #000000",
"av c #000000",
"aw c #000000",
"ax c #000000",
"ay c #000000",
"az c #000000",
"aA c #000000",
"aB c #000000",
"aC c #000000",
"aD c #000000",
"aE c #000000",
"aF c #000000",
"aG c #000000",
"aH c #000000",
"aI c #000000",
"aJ c #000000",
"aK c #000000",
"aL c #000000",
"aM c #000000",
"aN c #000000",
"aO c #000000",
"aP c #000000",
"aQ c #000000",
"aR c #000000",
"aS c #000000",
"aT c #000000",
"aU c #000000",
"aV c #000000",
"aW c #000000",
"aX c #000000",
"aY c #000000",
"aZ c #000000",
"a0 c #000000",
"a1 c #000000",
"a2 c #000000",
"a3 c #000000",
"a4 c #000000",
"a5 c #000000",
"a6 c #000000",
"a7 c #000000",
"a8 c #000000",
/* pixels */
"`````.`````#`````#`a```#```a`b``",
"`#`c`d`c`c`c`c`c`c`d`c`e`f`g`h``",
"```c`i`i`i`i`i`i`i`i`j`k`l`g`b`m",
"```c`n`o`c`i`i`c`o`n`p`q`r`s`t``",
"`#`c`d`c`c`i`i`c`c`d`u`v`w`s`x``",
"```c`d`c`c`y`i`c`e`d`z`h`A`s`B`C",
"```c`d`c`c`D`i`j`k`d`E`b`F`s`G``",
"`#`c`d`c`c`H`i`p`q`d`I`t`J`K`L``",
"```c`d`c`o`M`i`N`v`d`O`x`P`Q`R`S",
"```c`d`c`T`U`V`W`h`X`Y`B`Z`X`0``",
"`#`c`d`c`j`k`1`E`b`2`X`3`X`4`5``",
"```c`d`6`p`q`7`I`t`d`3`X`8`Q.`..",
"```c`d.#`u`v.a`O`x`2`X.b`X`4.c``",
"`#`c`d.d`z`h.e.f`B`X.g`0.h`X.i``",
"```j`d`1`E`b.j.k`G`d.l`5.m`Q.n.o",
"``.p````.q````.r````.s````.t````"
};
