/* XPM */
static char *remove_from_path_xpm[] = {
/* width height num_colors chars_per_pixel */
"    16    16      256            2",
/* colors */
"`` c #e8e8e4",
"`. c #dcdcd8",
"`# c #6a6a68",
"`a c #323231",
"`b c #141414",
"`c c #747472",
"`d c #5f5f5d",
"`e c #525250",
"`f c #b5b5b2",
"`g c #cacac6",
"`h c #adadaa",
"`i c #81817f",
"`j c #b1b1ae",
"`k c #e6e6e2",
"`l c #d8d8d4",
"`m c #4a4a48",
"`n c #9e9e9c",
"`o c #acaca9",
"`p c #aeaeab",
"`q c #191919",
"`r c #0b0b0b",
"`s c #4c4c4b",
"`t c #dfdfdb",
"`u c #9f9f9c",
"`v c #c5c5c1",
"`w c #828280",
"`x c #131313",
"`y c #ababa8",
"`z c #e1e1dd",
"`A c #535351",
"`B c #4b4b49",
"`C c #a9a9a6",
"`D c #191918",
"`E c #616160",
"`F c #434342",
"`G c #161615",
"`H c #c3c3bf",
"`I c #090909",
"`J c #7d7d7a",
"`K c #e3e3df",
"`L c #d7d7d3",
"`M c #b2b2af",
"`N c #838381",
"`O c #a5a5a2",
"`P c #dadad7",
"`Q c #a6a6a3",
"`R c #1b1b1b",
"`S c #c9c9c6",
"`T c #afafad",
"`U c #979795",
"`V c #7e7e7d",
"`W c #aaaaa8",
"`X c #121212",
"`Y c #b0b0ad",
"`Z c #d0d0cc",
"`0 c #848483",
"`1 c #7b7b7a",
"`2 c #9b9b9a",
"`3 c #b4b4b2",
"`4 c #cdcdca",
"`5 c #e4e4e0",
"`6 c #222221",
"`7 c #aaaaa7",
"`8 c #c8c8c5",
".` c #6f6f6f",
".. c #b7b7b5",
".# c #e7e7e3",
".a c #e2e2de",
".b c #595958",
".c c #3c3c3b",
".d c #a2a29f",
".e c #c7c7c4",
".f c #797977",
".g c #484847",
".h c #000000",
".i c #383837",
".j c #c80000",
".k c #d87472",
".l c #0d0d0d",
".m c #d9d9d5",
".n c #d03938",
".o c #2a2a29",
".p c #696967",
".q c #cdcdc9",
".r c #626261",
".s c #373736",
".t c #2d2d2c",
".u c #a0a09d",
".v c #000000",
".w c #000000",
".x c #000000",
".y c #000000",
".z c #000000",
".A c #000000",
".B c #000000",
".C c #000000",
".D c #000000",
".E c #000000",
".F c #000000",
".G c #000000",
".H c #000000",
".I c #000000",
".J c #000000",
".K c #000000",
".L c #000000",
".M c #000000",
".N c #000000",
".O c #000000",
".P c #000000",
".Q c #000000",
".R c #000000",
".S c #000000",
".T c #000000",
".U c #000000",
".V c #000000",
".W c #000000",
".X c #000000",
".Y c #000000",
".Z c #000000",
".0 c #000000",
".1 c #000000",
".2 c #000000",
".3 c #000000",
".4 c #000000",
".5 c #000000",
".6 c #000000",
".7 c #000000",
".8 c #000000",
"#` c #000000",
"#. c #000000",
"## c #000000",
"#a c #000000",
"#b c #000000",
"#c c #000000",
"#d c #000000",
"#e c #000000",
"#f c #000000",
"#g c #000000",
"#h c #000000",
"#i c #000000",
"#j c #000000",
"#k c #000000",
"#l c #000000",
"#m c #000000",
"#n c #000000",
"#o c #000000",
"#p c #000000",
"#q c #000000",
"#r c #000000",
"#s c #000000",
"#t c #000000",
"#u c #000000",
"#v c #000000",
"#w c #000000",
"#x c #000000",
"#y c #000000",
"#z c #000000",
"#A c #000000",
"#B c #000000",
"#C c #000000",
"#D c #000000",
"#E c #000000",
"#F c #000000",
"#G c #000000",
"#H c #000000",
"#I c #000000",
"#J c #000000",
"#K c #000000",
"#L c #000000",
"#M c #000000",
"#N c #000000",
"#O c #000000",
"#P c #000000",
"#Q c #000000",
"#R c #000000",
"#S c #000000",
"#T c #000000",
"#U c #000000",
"#V c #000000",
"#W c #000000",
"#X c #000000",
"#Y c #000000",
"#Z c #000000",
"#0 c #000000",
"#1 c #000000",
"#2 c #000000",
"#3 c #000000",
"#4 c #000000",
"#5 c #000000",
"#6 c #000000",
"#7 c #000000",
"#8 c #000000",
"a` c #000000",
"a. c #000000",
"a# c #000000",
"aa c #000000",
"ab c #000000",
"ac c #000000",
"ad c #000000",
"ae c #000000",
"af c #000000",
"ag c #000000",
"ah c #000000",
"ai c #000000",
"aj c #000000",
"ak c #000000",
"al c #000000",
"am c #000000",
"an c #000000",
"ao c #000000",
"ap c #000000",
"aq c #000000",
"ar c #000000",
"as c #000000",
"at c #000000",
"au c #000000",
"av c #000000",
"aw c #000000",
"ax c #000000",
"ay c #000000",
"az c #000000",
"aA c #000000",
"aB c #000000",
"aC c #000000",
"aD c #000000",
"aE c #000000",
"aF c #000000",
"aG c #000000",
"aH c #000000",
"aI c #000000",
"aJ c #000000",
"aK c #000000",
"aL c #000000",
"aM c #000000",
"aN c #000000",
"aO c #000000",
"aP c #000000",
"aQ c #000000",
"aR c #000000",
"aS c #000000",
"aT c #000000",
"aU c #000000",
"aV c #000000",
"aW c #000000",
"aX c #000000",
"aY c #000000",
"aZ c #000000",
"a0 c #000000",
"a1 c #000000",
"a2 c #000000",
"a3 c #000000",
"a4 c #000000",
"a5 c #000000",
"a6 c #000000",
"a7 c #000000",
"a8 c #000000",
/* pixels */
"```````````````````.`#`a`b`c````",
"```````````````````d`e`f`g`h````",
"`i`j```````k`l`````m`n``````````",
"`o`b`j```p`q`r`s`t`#`i`````u`v``",
"```o`b`w`x`y`z`A`B`C`D`E`F`G`H``",
"`````o`I`J`````K`r`L`M`N`O`P````",
"```````o`b`j```Q`R`k```S`T`U`V`W",
"`````````o`b`i`X`Y`Z`0`1`2`3`4`5",
"```````````o`6`7`8.`...#````````",
".a.b.c`w.d`i`````W.e````````````",
".f.g`O`A.h`o````````````````````",
".i`C````.h````.j.k``.k.j````````",
".l.m````.h````.k.j.n.j.k````````",
".o.p`h`O`b``````.n.j.n``````````",
".q.r.s.t.u````.k.j.n.j.k````````",
"``````````````.j.k``.k.j````````"
};
