/* XPM */
static char *remove_overlaps_xpm[] = {
/* width height num_colors chars_per_pixel */
"    24    24      256            2",
/* colors */
"`` c #5a5a59",
"`. c #393939",
"`# c #2d2d2d",
"`a c #212121",
"`b c #151515",
"`c c #090909",
"`d c #232323",
"`e c #e8e8e4",
"`f c #5d5d5d",
"`g c #555555",
"`h c #58595a",
"`i c #4c4e50",
"`j c #3f4245",
"`k c #33373b",
"`l c #1b1e21",
"`m c #1d1d1d",
"`n c #70706f",
"`o c #5e5e5e",
"`p c #383838",
"`q c #f9fafa",
"`r c #f1f5f8",
"`s c #e1e9f1",
"`t c #d1dfeb",
"`u c #c5d4e4",
"`v c #000000",
"`w c #484848",
"`x c #fdfdfd",
"`y c #e1eaf1",
"`z c #d1deea",
"`A c #c2d3e4",
"`B c #b3c8dd",
"`C c #9cb9d4",
"`D c #5a5a5a",
"`E c #f5f7f8",
"`F c #edf3f8",
"`G c #dee6ee",
"`H c #575757",
"`I c #303030",
"`J c #f4f7fa",
"`K c #bacee2",
"`L c #c9d9e8",
"`M c #d9e3ef",
"`N c #b3c9de",
"`O c #454545",
"`P c #ffffff",
"`Q c #98b6d3",
"`R c #a0bcd6",
"`S c #afc6dd",
"`T c #bed1e3",
"`U c #9bb8d4",
"`V c #dae4ee",
"`W c #525252",
"`X c #282828",
"`Y c #e6edf4",
"`Z c #c1d3e4",
"`0 c #e2eaf2",
"`1 c #a5bfd8",
"`2 c #434343",
"`3 c #fcfdfe",
"`4 c #a2bdd7",
"`5 c #b1c8de",
"`6 c #c0d3e4",
"`7 c #eef3f7",
"`8 c #d3dfeb",
".` c #4e4e4e",
".. c #202020",
".# c #d9e4ee",
".a c #dae4ef",
".b c #eaf0f6",
".c c #404040",
".d c #fafbfd",
".e c #a4bfd8",
".f c #b4c9df",
".g c #c3d4e5",
".h c #e7eef5",
".i c #ccdbe9",
".j c #494949",
".k c #181818",
".l c #cbdae9",
".m c #f2f6f9",
".n c #3d3d3d",
".o c #f8fafc",
".p c #a7c0d9",
".q c #b6cbdf",
".r c #c5d6e6",
".s c #e1e9f2",
".t c #99b7d3",
".u c #c7d7e7",
".v c #101010",
".w c #c0d1e3",
".x c #b0c7dd",
".y c #a2bcd7",
".z c #9dbad5",
".A c #9fbbd5",
".B c #3b3b3b",
".C c #f6f8fb",
".D c #9ab7d3",
".E c #a9c2da",
".F c #b8cde0",
".G c #565656",
".H c #dae5ef",
".I c #a0bbd6",
".J c #c0d2e4",
".K c #212120",
".L c #0c0c0d",
".M c #101213",
".N c #101113",
".O c #0b0c0d",
".P c #191919",
".Q c #f3f7fa",
".R c #abc3db",
".S c #bacee1",
".T c #515151",
".U c #d3e0ec",
".V c #a6c0d9",
".W c #3c3c3c",
".X c #e4e4e0",
".Y c #e1e1dd",
".Z c #363636",
".0 c #f1f5f9",
".1 c #9ebad5",
".2 c #adc5dc",
".3 c #bcd0e2",
".4 c #ccdae9",
".5 c #4d4d4d",
".6 c #cddbe9",
".7 c #acc4db",
".8 c #b4c9de",
"#` c #373737",
"#. c #333333",
"## c #eff3f8",
"#a c #bfd1e3",
"#b c #cedcea",
"#c c #c6d7e6",
"#d c #aec4db",
"#e c #767675",
"#f c #252525",
"#g c #171717",
"#h c #0e0e0d",
"#i c #40403f",
"#j c #313131",
"#k c #ecf2f7",
"#l c #a3bdd7",
"#m c #b2c8de",
"#n c #d0deeb",
"#o c #444444",
"#p c #b9cde1",
"#q c #a7c1d9",
"#r c #2e2e2e",
"#s c #f7f8f9",
"#t c #cddcea",
"#u c #a0bad2",
"#v c #b4cadf",
"#w c #d2dfec",
"#x c #3f3f3f",
"#y c #bfd2e3",
"#z c #2a2a2a",
"#A c #565655",
"#B c #fbfbfd",
"#C c #bbcfe2",
"#D c #2b2b2b",
"#E c #e8eff5",
"#F c #b6cbe0",
"#G c #d4e1ec",
"#H c #3a3a3a",
"#I c #b2c9de",
"#J c #9bb7d3",
"#K c #535352",
"#L c #292929",
"#M c #b8cde1",
"#N c #d7e2ed",
"#O c #f1f6f9",
"#P c #afc6dc",
"#Q c #262626",
"#R c #e3ebf3",
"#S c #abc4db",
"#T c #bbcee1",
"#U c #cad9e8",
"#V c #d2dfeb",
"#W c #1c1c1c",
"#X c #4b4b4a",
"#Y c #edf2f7",
"#Z c #c4d5e5",
"#0 c #d6e2ed",
"#1 c #242424",
"#2 c #e1eaf2",
"#3 c #aec5dc",
"#4 c #bdd0e2",
"#5 c #dbe5ef",
"#6 c #9fbbd6",
"#7 c #d8e3ee",
"#8 c #9ab7d4",
"a` c #464646",
"a. c #e9eff5",
"a# c #dfe8f1",
"aa c #dde7f0",
"ab c #131313",
"ac c #424241",
"ad c #e4ecf3",
"ae c #b7cce0",
"af c #dce6f0",
"ag c #1f1f1f",
"ah c #dde6f0",
"ai c #e5ecf4",
"aj c #0e0e0e",
"ak c #e0e8f1",
"al c #c3d5e5",
"am c #ebf1f6",
"an c #0a0a0a",
"ao c #3a3a39",
"ap c #bdd0e3",
"aq c #cfddea",
"ar c #c6d6e6",
"as c #d5e1ed",
"at c #1b1b1b",
"au c #f2f5f9",
"av c #050505",
"aw c #363635",
"ax c #c8d8e7",
"ay c #d7e2ee",
"az c #161616",
"aA c #010101",
"aB c #d2deeb",
"aC c #141414",
"aD c #bccfe2",
"aE c #c5d5e6",
"aF c #cfddeb",
"aG c #dbe6f0",
"aH c #121212",
"aI c #fefefe",
"aJ c #9ab8d4",
"aK c #2a2a29",
"aL c #cbd8e5",
"aM c #b5cadf",
"aN c #9cb8d4",
"aO c #a1bad3",
"aP c #d0dae4",
"aQ c #bed0e0",
"aR c #aec4d9",
"aS c #a1bbd4",
"aT c #a2bcd4",
"aU c #aac0d4",
"aV c #0d0d0d",
"aW c #a5bed7",
"aX c #9bb8d5",
"aY c #a7bfd6",
"aZ c #4c4c4a",
"a0 c #3e3e3d",
"a1 c #323231",
"a2 c #030303",
"a3 c #000000",
"a4 c #000000",
"a5 c #000000",
"a6 c #000000",
"a7 c #000000",
"a8 c #000000",
/* pixels */
"```.`#`a`b`c`d`e`e`f`g`h`i`j`k`l`m`e`e`n`o`o`o`n",
"`p`q`r`s`t`u`v`e`e`w`x`y`z`A`B`C`v`e`e`D`E`F`G`H",
"`I`J`K`L`M`N`v`e`e`O`P`Q`R`S`T`Q`v`e`e`D`J`U`V`W",
"`X`Y`Z`t`0`1`v`e`e`2`3`Q`4`5`6`Q`v`e`e`D`7`Q`8.`",
"...#`L.a.b`Q`v`e`e.c.d`Q.e.f.g`Q`v`e`e`D.h`Q.i.j",
".k.l`t`0.m`Q`v`e`e.n.o`Q.p.q.r`Q`v`e`e`D.s.t.u`O",
".v.w.x.y.z.A`v`e`e.B.C.D.E.F.u`Q`v`e`e.G.H.I.J.c",
".K.L.M.N.N.O.P`e`e`p.Q`C.R.S`L`Q`v`e`e.T.U.V.S.W",
".X.Y.Y.Y.Y.Y.X`e`e.Z.0.1.2.3.4`Q`v`e`e.5.6.7.8#`",
"`e`e`e`e`e`e`e`e`e#.##`R`S#a#b`Q`v`e`e`w#c`N#d#.",
"#e.c#.#f#g#h#i`e`e#j#k#l#m`Z#n`Q`v`e`e#o.J#p#q#r",
"`H#s.h#t.f#u`b`e`e#r.b`1#v.g#w`Q`v`e`e#x#p#y`R#z",
"#A#B.E#C#t`Q`b`e`e#D#E.p#F.r#G`Q`v`e`e#H#I.r#J#f",
"#K.C.7`T#n`Q`b`e`e#L`Y.E#M.u#N`Q`v`e`e.Z.7.i.D..",
".`#O#P`Z.U`Q`b`e`e#Q#R#S#T#U.#`Q`v`e`e#j`1#V.D#W",
"#X#Y`5#Z#0`Q`b`e`e#1#2#3#4.i#5`Q`v`e`e`##6#7#8#g",
"a`a.#v.u.#`Q`b`e`e`aa#.x#a#baa`Q`v`e`e`X`Qa##8ab",
"acadae#Uaf`Q`b`e`eagah#m`Z#na#`Q`v`e`e#1`Qai#8aj",
".nak.S.ia#`Q`b`e`e#W.H#val#w`0`Q`v`e`eag`Qam#8an",
"ao#5apaq`0`Q`b`e`e.P#7#Farasad`Q`v`e`eat`Qau#8av",
"aw#0.J#wad`Q`b`e`e#g#0#paxay`Y`Q`v`e`eaz`Q.o#8aA",
"#jaB.gas.h`Q`b`e`eaC.UaDaEaFaG`Q`v`e`eaH`QaIaJ`v",
"aKaLaMaN.DaO`b`e`eaHaPaQaRaSaTaU`v`e`eaVaWaXaY`v",
"aZ#h#h#h#h#h#i`e`ea0.P`b`b`b`b`ba1`e`e`da2`v`v#W"
};
