/* XPM */
static char *selection_up_xpm[] = {
/* width height num_colors chars_per_pixel */
"    16    16      256            2",
/* colors */
"`` c #858584",
"`. c #3e3e3e",
"`# c #333333",
"`a c #272727",
"`b c #1c1c1c",
"`c c #111111",
"`d c #484847",
"`e c #e8e8e4",
"`f c #80807f",
"`g c #4e4e4d",
"`h c #e6e6e2",
"`i c #e4e4e0",
"`j c #e3e3e0",
"`k c #e3e3df",
"`l c #e2e2df",
"`m c #e2e2de",
"`n c #e1e1dd",
"`o c #737373",
"`p c #626262",
"`q c #5b5b5b",
"`r c #545454",
"`s c #4d4d4d",
"`t c #474748",
"`u c #404141",
"`v c #393a3a",
"`w c #2c2c2c",
"`x c #262626",
"`y c #1f1f1f",
"`z c #181819",
"`A c #111212",
"`B c #0a0b0b",
"`C c #171819",
"`D c #646464",
"`E c #e3e9ef",
"`F c #dee5ed",
"`G c #d9e2eb",
"`H c #d4dee9",
"`I c #cfdbe7",
"`J c #cad8e5",
"`K c #c5d4e2",
"`L c #c0d1e0",
"`M c #bbcdde",
"`N c #b6cadc",
"`O c #b2c6da",
"`P c #adc2d8",
"`Q c #a8bfd5",
"`R c #a3bbd3",
"`S c #000000",
"`T c #787878",
"`U c #3a3a3a",
"`V c #212222",
"`W c #787877",
"`X c #101010",
"`Y c #494947",
"`Z c #7c7c7b",
"`0 c #434343",
"`1 c #383838",
"`2 c #222221",
"`3 c #171717",
"`4 c #5b5b5a",
"`5 c #81817f",
"`6 c #424242",
"`7 c #3b3b3b",
"`8 c #343434",
".` c #252525",
".. c #1d1d1d",
".# c #161616",
".a c #0f0f0f",
".b c #565655",
".c c #7b7b7a",
".d c #5d5d5b",
".e c #747472",
".f c #000000",
".g c #000000",
".h c #000000",
".i c #000000",
".j c #000000",
".k c #000000",
".l c #000000",
".m c #000000",
".n c #000000",
".o c #000000",
".p c #000000",
".q c #000000",
".r c #000000",
".s c #000000",
".t c #000000",
".u c #000000",
".v c #000000",
".w c #000000",
".x c #000000",
".y c #000000",
".z c #000000",
".A c #000000",
".B c #000000",
".C c #000000",
".D c #000000",
".E c #000000",
".F c #000000",
".G c #000000",
".H c #000000",
".I c #000000",
".J c #000000",
".K c #000000",
".L c #000000",
".M c #000000",
".N c #000000",
".O c #000000",
".P c #000000",
".Q c #000000",
".R c #000000",
".S c #000000",
".T c #000000",
".U c #000000",
".V c #000000",
".W c #000000",
".X c #000000",
".Y c #000000",
".Z c #000000",
".0 c #000000",
".1 c #000000",
".2 c #000000",
".3 c #000000",
".4 c #000000",
".5 c #000000",
".6 c #000000",
".7 c #000000",
".8 c #000000",
"#` c #000000",
"#. c #000000",
"## c #000000",
"#a c #000000",
"#b c #000000",
"#c c #000000",
"#d c #000000",
"#e c #000000",
"#f c #000000",
"#g c #000000",
"#h c #000000",
"#i c #000000",
"#j c #000000",
"#k c #000000",
"#l c #000000",
"#m c #000000",
"#n c #000000",
"#o c #000000",
"#p c #000000",
"#q c #000000",
"#r c #000000",
"#s c #000000",
"#t c #000000",
"#u c #000000",
"#v c #000000",
"#w c #000000",
"#x c #000000",
"#y c #000000",
"#z c #000000",
"#A c #000000",
"#B c #000000",
"#C c #000000",
"#D c #000000",
"#E c #000000",
"#F c #000000",
"#G c #000000",
"#H c #000000",
"#I c #000000",
"#J c #000000",
"#K c #000000",
"#L c #000000",
"#M c #000000",
"#N c #000000",
"#O c #000000",
"#P c #000000",
"#Q c #000000",
"#R c #000000",
"#S c #000000",
"#T c #000000",
"#U c #000000",
"#V c #000000",
"#W c #000000",
"#X c #000000",
"#Y c #000000",
"#Z c #000000",
"#0 c #000000",
"#1 c #000000",
"#2 c #000000",
"#3 c #000000",
"#4 c #000000",
"#5 c #000000",
"#6 c #000000",
"#7 c #000000",
"#8 c #000000",
"a` c #000000",
"a. c #000000",
"a# c #000000",
"aa c #000000",
"ab c #000000",
"ac c #000000",
"ad c #000000",
"ae c #000000",
"af c #000000",
"ag c #000000",
"ah c #000000",
"ai c #000000",
"aj c #000000",
"ak c #000000",
"al c #000000",
"am c #000000",
"an c #000000",
"ao c #000000",
"ap c #000000",
"aq c #000000",
"ar c #000000",
"as c #000000",
"at c #000000",
"au c #000000",
"av c #000000",
"aw c #000000",
"ax c #000000",
"ay c #000000",
"az c #000000",
"aA c #000000",
"aB c #000000",
"aC c #000000",
"aD c #000000",
"aE c #000000",
"aF c #000000",
"aG c #000000",
"aH c #000000",
"aI c #000000",
"aJ c #000000",
"aK c #000000",
"aL c #000000",
"aM c #000000",
"aN c #000000",
"aO c #000000",
"aP c #000000",
"aQ c #000000",
"aR c #000000",
"aS c #000000",
"aT c #000000",
"aU c #000000",
"aV c #000000",
"aW c #000000",
"aX c #000000",
"aY c #000000",
"aZ c #000000",
"a0 c #000000",
"a1 c #000000",
"a2 c #000000",
"a3 c #000000",
"a4 c #000000",
"a5 c #000000",
"a6 c #000000",
"a7 c #000000",
"a8 c #000000",
/* pixels */
"```.`#`a`b`c`d`e`e`e`e`e`e`e`e`e",
"`f`.`#`a`b`c`g`e`e`e`e`e`e`e`e`e",
"`h`i`j`k`k`k`k`l`m`m`m`m`n`n`n`i",
"`o`p`q`r`s`t`u`v`#`w`x`y`z`A`B`C",
"`D`E`F`G`H`I`J`K`L`M`N`O`P`Q`R`S",
"`T`p`q`r`s`t`u`U`#`w`x`y`z`A`B`V",
"`e`k`m`m`m`m`e`e`e`e`e`e`e`e`e`e",
"`W`.`#`a`b`X`Y`e`e`e`e`e`e`S`e`e",
"`Z`0`1`w`2`3`4`e`e`e`e`e`S`S`S`e",
"`e`e`e`e`e`e`e`e`e`e`e`S`S`S`S`S",
"`5`6`7`8`w.`...#.a.b`e`e`e`S`e`e",
".c`6`7`8`w.`...#.a.d`e`e`S.e`e`e",
"`e`k`m`m`m`m`e`e`e`e`e`e`e`e`e`e",
"`W`.`#`a`b`X`Y`e`e`e`e`e`e`e`e`e",
"`Z`0`1`w`2`3`4`e`e`e`e`e`e`e`e`e",
"`e`e`e`e`e`e`e`e`e`e`e`e`e`e`e`e"
};
