/* XPM */
static char *selection_reverse_xpm[] = {
/* width height num_colors chars_per_pixel */
"    16    16      256            2",
/* colors */
"`` c #e8e8e4",
"`. c #000000",
"`# c #e4e4e0",
"`a c #7b7b7b",
"`b c #cfcfcb",
"`c c #7b7b7a",
"`d c #b7b7b4",
"`e c #949492",
"`f c #999997",
"`g c #adadab",
"`h c #c9c9c6",
"`i c #717171",
"`j c #dcdcd8",
"`k c #e0e0e5",
"`l c #d9d9e6",
"`m c #e1e1e5",
"`n c #ddddd9",
"`o c #767675",
"`p c #c1c1be",
"`q c #e4e4e4",
"`r c #1212fd",
"`s c #0c0cfe",
"`t c #1b1bfc",
"`u c #e6e6e2",
"`v c #afafad",
"`w c #6f6f6f",
"`x c #a7a7a5",
"`y c #e5e5e1",
"`z c #cdcdd1",
"`A c #0606fd",
"`B c #9191cd",
"`C c #8181c2",
"`D c #0303fc",
"`E c #6e6e6e",
"`F c #868685",
"`G c #d2d2ce",
"`H c #e7e7e3",
"`I c #b5b5b2",
"`J c #707070",
"`K c #73737b",
"`L c #0404fc",
"`M c #8282c4",
"`N c #8989d0",
"`O c #0505fe",
"`P c #dbdbd7",
"`Q c #dfdfdb",
"`R c #808080",
"`S c #818180",
"`T c #d0d0cc",
"`U c #e5e5e4",
"`V c #1e1efc",
"`W c #2929fa",
"`X c #9a9a99",
"`Y c #969695",
"`Z c #e2e2de",
"`0 c #cececb",
"`1 c #dadad7",
"`2 c #060606",
"`3 c #9c9c9a",
"`4 c #acacaa",
"`5 c #e1e1dd",
"`6 c #888887",
"`7 c #c3c3c0",
"`8 c #0e0e0d",
".` c #d5d5d1",
".. c #a8a8a6",
".# c #000000",
".a c #000000",
".b c #000000",
".c c #000000",
".d c #000000",
".e c #000000",
".f c #000000",
".g c #000000",
".h c #000000",
".i c #000000",
".j c #000000",
".k c #000000",
".l c #000000",
".m c #000000",
".n c #000000",
".o c #000000",
".p c #000000",
".q c #000000",
".r c #000000",
".s c #000000",
".t c #000000",
".u c #000000",
".v c #000000",
".w c #000000",
".x c #000000",
".y c #000000",
".z c #000000",
".A c #000000",
".B c #000000",
".C c #000000",
".D c #000000",
".E c #000000",
".F c #000000",
".G c #000000",
".H c #000000",
".I c #000000",
".J c #000000",
".K c #000000",
".L c #000000",
".M c #000000",
".N c #000000",
".O c #000000",
".P c #000000",
".Q c #000000",
".R c #000000",
".S c #000000",
".T c #000000",
".U c #000000",
".V c #000000",
".W c #000000",
".X c #000000",
".Y c #000000",
".Z c #000000",
".0 c #000000",
".1 c #000000",
".2 c #000000",
".3 c #000000",
".4 c #000000",
".5 c #000000",
".6 c #000000",
".7 c #000000",
".8 c #000000",
"#` c #000000",
"#. c #000000",
"## c #000000",
"#a c #000000",
"#b c #000000",
"#c c #000000",
"#d c #000000",
"#e c #000000",
"#f c #000000",
"#g c #000000",
"#h c #000000",
"#i c #000000",
"#j c #000000",
"#k c #000000",
"#l c #000000",
"#m c #000000",
"#n c #000000",
"#o c #000000",
"#p c #000000",
"#q c #000000",
"#r c #000000",
"#s c #000000",
"#t c #000000",
"#u c #000000",
"#v c #000000",
"#w c #000000",
"#x c #000000",
"#y c #000000",
"#z c #000000",
"#A c #000000",
"#B c #000000",
"#C c #000000",
"#D c #000000",
"#E c #000000",
"#F c #000000",
"#G c #000000",
"#H c #000000",
"#I c #000000",
"#J c #000000",
"#K c #000000",
"#L c #000000",
"#M c #000000",
"#N c #000000",
"#O c #000000",
"#P c #000000",
"#Q c #000000",
"#R c #000000",
"#S c #000000",
"#T c #000000",
"#U c #000000",
"#V c #000000",
"#W c #000000",
"#X c #000000",
"#Y c #000000",
"#Z c #000000",
"#0 c #000000",
"#1 c #000000",
"#2 c #000000",
"#3 c #000000",
"#4 c #000000",
"#5 c #000000",
"#6 c #000000",
"#7 c #000000",
"#8 c #000000",
"a` c #000000",
"a. c #000000",
"a# c #000000",
"aa c #000000",
"ab c #000000",
"ac c #000000",
"ad c #000000",
"ae c #000000",
"af c #000000",
"ag c #000000",
"ah c #000000",
"ai c #000000",
"aj c #000000",
"ak c #000000",
"al c #000000",
"am c #000000",
"an c #000000",
"ao c #000000",
"ap c #000000",
"aq c #000000",
"ar c #000000",
"as c #000000",
"at c #000000",
"au c #000000",
"av c #000000",
"aw c #000000",
"ax c #000000",
"ay c #000000",
"az c #000000",
"aA c #000000",
"aB c #000000",
"aC c #000000",
"aD c #000000",
"aE c #000000",
"aF c #000000",
"aG c #000000",
"aH c #000000",
"aI c #000000",
"aJ c #000000",
"aK c #000000",
"aL c #000000",
"aM c #000000",
"aN c #000000",
"aO c #000000",
"aP c #000000",
"aQ c #000000",
"aR c #000000",
"aS c #000000",
"aT c #000000",
"aU c #000000",
"aV c #000000",
"aW c #000000",
"aX c #000000",
"aY c #000000",
"aZ c #000000",
"a0 c #000000",
"a1 c #000000",
"a2 c #000000",
"a3 c #000000",
"a4 c #000000",
"a5 c #000000",
"a6 c #000000",
"a7 c #000000",
"a8 c #000000",
/* pixels */
"```````````````````.`````````#`a",
"```````````````````.`.```````b`c",
"`````.`.`.`.`.`.`.`.`.`.`````d`e",
"```````````````````.`.```````f`g",
"```````````````````.```````h`i`j",
"`````````````k`l`l`m`````n`o`p``",
"```````````q`r`s`s`t`u`v`w`x````",
"`````````y`z`A`B`C`D`E`F`G``````",
"`````H`I`J`K`L`M`N`O`P``````````",
"```Q`R`S`T`U`V`O`O`W````````````",
"```X`Y`H`````Z``````````````````",
"`0`i`Q`````1`2``````````````````",
"`3`4`````1`.`2`5`5`5`5`5`5`Z````",
"`6`7```Z`2`.`.`2`2`2`2`2`2`8````",
"`o.``````Z`2`2``````````````````",
"..`y```````Z`8``````````````````"
};
