/* XPM */
static char *selection_deselect_xpm[] = {
/* width height num_colors chars_per_pixel */
"    16    16      256            2",
/* colors */
"`` c #cc0000",
"`. c #e8e8e4",
"`# c #e5e5e1",
"`a c #999997",
"`b c #575756",
"`c c #333333",
"`d c #474746",
"`e c #848482",
"`f c #e3e3e0",
"`g c #717170",
"`h c #949493",
"`i c #e0e3e5",
"`j c #e6edf2",
"`k c #ced5dc",
"`l c #6f7274",
"`m c #424241",
"`n c #e4e4e0",
"`o c #a2a2a0",
"`p c #9c9c9b",
"`q c #ebf0f6",
"`r c #bfd2e4",
"`s c #b5cadf",
"`t c #c4d5e6",
"`u c #c2d4e4",
"`v c #64686b",
"`w c #7c7c7a",
"`x c #70706f",
"`y c #e0e4e7",
"`z c #c1d3e4",
"`A c #b3c9de",
"`B c #bed1e3",
"`C c #c9d8e7",
"`D c #c5d6e6",
"`E c #b0c0ce",
"`F c #2e2e2d",
"`G c #6b6b6b",
"`H c #545454",
"`I c #4c4c4c",
"`J c #dfe7ef",
"`K c #b9cde1",
"`L c #c0d2e4",
"`M c #cbdae8",
"`N c #d6e1ed",
"`O c #d7e2ee",
"`P c #a2bdd5",
"`Q c #0c0c0c",
"`R c #585858",
"`S c #fdfaf4",
"`T c #fffefe",
"`U c #747371",
"`V c #d4dbdb",
"`W c #c5d5e6",
"`X c #cddbe9",
"`Y c #d8e3ee",
"`Z c #e3ebf3",
"`0 c #c2d3e3",
"`1 c #a8bacb",
"`2 c #fffcf6",
"`3 c #ffbf02",
"`4 c #ae9039",
"`5 c #918a6d",
"`6 c #bfd0dc",
"`7 c #c8d8e7",
"`8 c #dce6ef",
".` c #c8d7e5",
".. c #96b2cd",
".# c #5e6368",
".a c #7b7b79",
".b c #505050",
".c c #fff3d1",
".d c #ffc518",
".e c #fcca36",
".f c #756b4c",
".g c #89856f",
".h c #b7c1bb",
".i c #9eb9d2",
".j c #b0b49b",
".k c #2d3339",
".l c #40403f",
".m c #ffeaac",
".n c #ffca2e",
".o c #ffd14b",
".p c #fbd666",
".q c #a19163",
".r c #5b574a",
".s c #343332",
".t c #4b401e",
".u c #0d0d0d",
".v c #474747",
".w c #ffe187",
".x c #ffd045",
".y c #ffd760",
".z c #ffde7b",
".A c #ffe496",
".B c #ffebb1",
".C c #fff2cc",
".D c #ffbf00",
".E c #000000",
".F c #434343",
".G c #fcd870",
".H c #ffd24e",
".I c #ffcd38",
".J c #ffc821",
".K c #ffc20b",
".L c #ffc107",
".M c #fcc624",
".N c #535353",
".O c #373737",
".P c #2e2e2e",
".Q c #262626",
".R c #1e1e1e",
".S c #161616",
".T c #050505",
".U c #1c1c1c",
".V c #000000",
".W c #000000",
".X c #000000",
".Y c #000000",
".Z c #000000",
".0 c #000000",
".1 c #000000",
".2 c #000000",
".3 c #000000",
".4 c #000000",
".5 c #000000",
".6 c #000000",
".7 c #000000",
".8 c #000000",
"#` c #000000",
"#. c #000000",
"## c #000000",
"#a c #000000",
"#b c #000000",
"#c c #000000",
"#d c #000000",
"#e c #000000",
"#f c #000000",
"#g c #000000",
"#h c #000000",
"#i c #000000",
"#j c #000000",
"#k c #000000",
"#l c #000000",
"#m c #000000",
"#n c #000000",
"#o c #000000",
"#p c #000000",
"#q c #000000",
"#r c #000000",
"#s c #000000",
"#t c #000000",
"#u c #000000",
"#v c #000000",
"#w c #000000",
"#x c #000000",
"#y c #000000",
"#z c #000000",
"#A c #000000",
"#B c #000000",
"#C c #000000",
"#D c #000000",
"#E c #000000",
"#F c #000000",
"#G c #000000",
"#H c #000000",
"#I c #000000",
"#J c #000000",
"#K c #000000",
"#L c #000000",
"#M c #000000",
"#N c #000000",
"#O c #000000",
"#P c #000000",
"#Q c #000000",
"#R c #000000",
"#S c #000000",
"#T c #000000",
"#U c #000000",
"#V c #000000",
"#W c #000000",
"#X c #000000",
"#Y c #000000",
"#Z c #000000",
"#0 c #000000",
"#1 c #000000",
"#2 c #000000",
"#3 c #000000",
"#4 c #000000",
"#5 c #000000",
"#6 c #000000",
"#7 c #000000",
"#8 c #000000",
"a` c #000000",
"a. c #000000",
"a# c #000000",
"aa c #000000",
"ab c #000000",
"ac c #000000",
"ad c #000000",
"ae c #000000",
"af c #000000",
"ag c #000000",
"ah c #000000",
"ai c #000000",
"aj c #000000",
"ak c #000000",
"al c #000000",
"am c #000000",
"an c #000000",
"ao c #000000",
"ap c #000000",
"aq c #000000",
"ar c #000000",
"as c #000000",
"at c #000000",
"au c #000000",
"av c #000000",
"aw c #000000",
"ax c #000000",
"ay c #000000",
"az c #000000",
"aA c #000000",
"aB c #000000",
"aC c #000000",
"aD c #000000",
"aE c #000000",
"aF c #000000",
"aG c #000000",
"aH c #000000",
"aI c #000000",
"aJ c #000000",
"aK c #000000",
"aL c #000000",
"aM c #000000",
"aN c #000000",
"aO c #000000",
"aP c #000000",
"aQ c #000000",
"aR c #000000",
"aS c #000000",
"aT c #000000",
"aU c #000000",
"aV c #000000",
"aW c #000000",
"aX c #000000",
"aY c #000000",
"aZ c #000000",
"a0 c #000000",
"a1 c #000000",
"a2 c #000000",
"a3 c #000000",
"a4 c #000000",
"a5 c #000000",
"a6 c #000000",
"a7 c #000000",
"a8 c #000000",
/* pixels */
"`````.`````.`````.`````.`````.``",
"`.`.`.`.`.`.`.`.`.`.`.`.`.`.`.``",
"```.`.`.`.`.`#`a`b`c`d`e`f`.`.`.",
"```.`.`.`.`#`g`h`i`j`k`l`m`n`.``",
"`.`.`.`.`.`o`p`q`r`s`t`u`v`w`.``",
"```.`.`.`.`x`y`z`A`B`C`D`E`F`.`.",
"```.`G`H`I`H`J`K`L`M`N`O`P`Q`.``",
"`.`.`R`S`T`U`V`W`X`Y`Z`0`1`F`.``",
"```.`H`2`3`4`5`6`7`8.`...#.a`.`.",
"```..b.c.d.e.f.g.h.i.j.k.l`f`.``",
"`.`.`I.m.n.o.p.q.r.s.t.u`f`.`.``",
"```..v.w.x.y.z.A.B.C.D.E`.`.`.`.",
"```..F.G.H.I.J.K.L.L.M.E`.`.`.``",
"`.`..N.O.P.Q.R.S.u.T.E.U`.`.`.``",
"```.`.`.`.`.`.`.`.`.`.`.`.`.`.`.",
"```.`````.`````.`````.`````.````"
};
