/* XPM */
static char *selection_down_xpm[] = {
/* width height num_colors chars_per_pixel */
"    16    16      256            2",
/* colors */
"`` c #e8e8e4",
"`. c #7b7b7a",
"`# c #3e3e3e",
"`a c #323232",
"`b c #272727",
"`c c #1b1b1b",
"`d c #101010",
"`e c #555554",
"`f c #757574",
"`g c #5f5f5e",
"`h c #828280",
"`i c #070707",
"`j c #e2e2de",
"`k c #424242",
"`l c #3b3b3b",
"`m c #333333",
"`n c #2c2c2c",
"`o c #242424",
"`p c #1d1d1d",
"`q c #161616",
"`r c #0e0e0e",
"`s c #626260",
"`t c #dadad7",
"`u c #696967",
"`v c #0e0e0d",
"`w c #060606",
"`x c #000000",
"`y c #e3e3df",
"`z c #787877",
"`A c #1c1c1c",
"`B c #4d4d4c",
"`C c #7c7c7b",
"`D c #434343",
"`E c #383838",
"`F c #222221",
"`G c #171717",
"`H c #61615f",
"`I c #e6e6e2",
"`J c #e4e4e0",
"`K c #e3e3e0",
"`L c #e2e2df",
"`M c #e1e1dd",
"`N c #e5e5e1",
"`O c #73726c",
"`P c #61605e",
"`Q c #5b5b58",
"`R c #555452",
"`S c #4e4d4b",
"`T c #474644",
"`U c #41403f",
"`V c #3a3a38",
"`W c #333331",
"`X c #2e2d2c",
"`Y c #272625",
"`Z c #20201f",
"`0 c #191918",
"`1 c #131312",
"`2 c #0d0c0c",
"`3 c #22211f",
"`4 c #646464",
"`5 c #fac72f",
"`6 c #fac93a",
"`7 c #facc44",
"`8 c #f9ce4f",
".` c #f9d059",
".. c #f9d364",
".# c #f9d66e",
".a c #f8d879",
".b c #f8da83",
".c c #f8dd8d",
".d c #f8e098",
".e c #f8e1a1",
".f c #f7e4ac",
".g c #f0e0b1",
".h c #070606",
".i c #797771",
".j c #5b5b59",
".k c #545452",
".l c #474645",
".m c #41413f",
".n c #333332",
".o c #2c2b29",
".p c #777775",
".q c #4f4f4e",
".r c #7a7a79",
".s c #373737",
".t c #212121",
".u c #656564",
".v c #000000",
".w c #000000",
".x c #000000",
".y c #000000",
".z c #000000",
".A c #000000",
".B c #000000",
".C c #000000",
".D c #000000",
".E c #000000",
".F c #000000",
".G c #000000",
".H c #000000",
".I c #000000",
".J c #000000",
".K c #000000",
".L c #000000",
".M c #000000",
".N c #000000",
".O c #000000",
".P c #000000",
".Q c #000000",
".R c #000000",
".S c #000000",
".T c #000000",
".U c #000000",
".V c #000000",
".W c #000000",
".X c #000000",
".Y c #000000",
".Z c #000000",
".0 c #000000",
".1 c #000000",
".2 c #000000",
".3 c #000000",
".4 c #000000",
".5 c #000000",
".6 c #000000",
".7 c #000000",
".8 c #000000",
"#` c #000000",
"#. c #000000",
"## c #000000",
"#a c #000000",
"#b c #000000",
"#c c #000000",
"#d c #000000",
"#e c #000000",
"#f c #000000",
"#g c #000000",
"#h c #000000",
"#i c #000000",
"#j c #000000",
"#k c #000000",
"#l c #000000",
"#m c #000000",
"#n c #000000",
"#o c #000000",
"#p c #000000",
"#q c #000000",
"#r c #000000",
"#s c #000000",
"#t c #000000",
"#u c #000000",
"#v c #000000",
"#w c #000000",
"#x c #000000",
"#y c #000000",
"#z c #000000",
"#A c #000000",
"#B c #000000",
"#C c #000000",
"#D c #000000",
"#E c #000000",
"#F c #000000",
"#G c #000000",
"#H c #000000",
"#I c #000000",
"#J c #000000",
"#K c #000000",
"#L c #000000",
"#M c #000000",
"#N c #000000",
"#O c #000000",
"#P c #000000",
"#Q c #000000",
"#R c #000000",
"#S c #000000",
"#T c #000000",
"#U c #000000",
"#V c #000000",
"#W c #000000",
"#X c #000000",
"#Y c #000000",
"#Z c #000000",
"#0 c #000000",
"#1 c #000000",
"#2 c #000000",
"#3 c #000000",
"#4 c #000000",
"#5 c #000000",
"#6 c #000000",
"#7 c #000000",
"#8 c #000000",
"a` c #000000",
"a. c #000000",
"a# c #000000",
"aa c #000000",
"ab c #000000",
"ac c #000000",
"ad c #000000",
"ae c #000000",
"af c #000000",
"ag c #000000",
"ah c #000000",
"ai c #000000",
"aj c #000000",
"ak c #000000",
"al c #000000",
"am c #000000",
"an c #000000",
"ao c #000000",
"ap c #000000",
"aq c #000000",
"ar c #000000",
"as c #000000",
"at c #000000",
"au c #000000",
"av c #000000",
"aw c #000000",
"ax c #000000",
"ay c #000000",
"az c #000000",
"aA c #000000",
"aB c #000000",
"aC c #000000",
"aD c #000000",
"aE c #000000",
"aF c #000000",
"aG c #000000",
"aH c #000000",
"aI c #000000",
"aJ c #000000",
"aK c #000000",
"aL c #000000",
"aM c #000000",
"aN c #000000",
"aO c #000000",
"aP c #000000",
"aQ c #000000",
"aR c #000000",
"aS c #000000",
"aT c #000000",
"aU c #000000",
"aV c #000000",
"aW c #000000",
"aX c #000000",
"aY c #000000",
"aZ c #000000",
"a0 c #000000",
"a1 c #000000",
"a2 c #000000",
"a3 c #000000",
"a4 c #000000",
"a5 c #000000",
"a6 c #000000",
"a7 c #000000",
"a8 c #000000",
/* pixels */
"```````````````````.`#`a`b`c`d`e",
"```````````````````f`#`a`b`c`d`g",
"````````````````````````````````",
"`````h`i`j```.`k`l`m`n`o`p`q`r`s",
"`````i`t`````f`k`l`m`n`o`p`q`r`u",
"`v`w`x`w`w`j`````````y`j`j`j`j``",
"`j`w`x`x`t`````````z`#`m`b`A`d`B",
"```j`w`t```````````C`D`E`n`F`G`H",
"`I`J`K`y`y`y`y`L`j`j`j`j`M`M`M`N",
"`O`P`Q`R`S`T`U`V`W`X`Y`Z`0`1`2`3",
"`4`5`6`7`8.`...#.a.b.c.d.e.f.g.h",
".i`P.j.k`S.l.m`V.n`X`Y`Z`0`1`2.o",
"`````````````````````y`j`j`j`j``",
"``````````````````.p`#`a`b`c`d.q",
"``````````````````.r`D.s`n.t`G.u",
"````````````````````````````````"
};
