/* XPM */
static char *selection_select_all_in_all_layers_xpm[] = {
/* width height num_colors chars_per_pixel */
"    16    16      256            2",
/* colors */
"`` c #000000",
"`. c #e8e8e4",
"`# c #787878",
"`a c #777777",
"`b c #808080",
"`c c #7d7d7d",
"`d c #737373",
"`e c #6b6b6b",
"`f c #626262",
"`g c #595959",
"`h c #3f3f3f",
"`i c #b5b5b2",
"`j c #c4c4c1",
"`k c #898989",
"`l c #fefefe",
"`m c #ffffff",
"`n c #e4e4e4",
"`o c #3a3a39",
"`p c #cfcfcc",
"`q c #ababa9",
"`r c #a6a6a5",
"`s c #efefef",
"`t c #b3b3b3",
"`u c #383838",
"`v c #e2e2de",
"`w c #6c6c6c",
"`x c #adadad",
"`y c #cecece",
"`z c #cbcbcb",
"`A c #c8c8c8",
"`B c #c1c1c1",
"`C c #b1b1b1",
"`D c #a1a1a1",
"`E c #515151",
"`F c #575755",
"`G c #f8f8f8",
"`H c #a7a7a7",
"`I c #9b9b9b",
"`J c #959595",
"`K c #909090",
"`L c #888888",
"`M c #757575",
"`N c #262626",
"`O c #666665",
"`P c #8b8b89",
"`Q c #8b8b8a",
"`R c #afafaf",
"`S c #e3e3df",
"`T c #9c9c9a",
"`U c #91918f",
"`V c #868684",
"`W c #7e7e7c",
"`X c #777775",
"`Y c #727270",
"`Z c #71716f",
"`0 c #000000",
"`1 c #000000",
"`2 c #000000",
"`3 c #000000",
"`4 c #000000",
"`5 c #000000",
"`6 c #000000",
"`7 c #000000",
"`8 c #000000",
".` c #000000",
".. c #000000",
".# c #000000",
".a c #000000",
".b c #000000",
".c c #000000",
".d c #000000",
".e c #000000",
".f c #000000",
".g c #000000",
".h c #000000",
".i c #000000",
".j c #000000",
".k c #000000",
".l c #000000",
".m c #000000",
".n c #000000",
".o c #000000",
".p c #000000",
".q c #000000",
".r c #000000",
".s c #000000",
".t c #000000",
".u c #000000",
".v c #000000",
".w c #000000",
".x c #000000",
".y c #000000",
".z c #000000",
".A c #000000",
".B c #000000",
".C c #000000",
".D c #000000",
".E c #000000",
".F c #000000",
".G c #000000",
".H c #000000",
".I c #000000",
".J c #000000",
".K c #000000",
".L c #000000",
".M c #000000",
".N c #000000",
".O c #000000",
".P c #000000",
".Q c #000000",
".R c #000000",
".S c #000000",
".T c #000000",
".U c #000000",
".V c #000000",
".W c #000000",
".X c #000000",
".Y c #000000",
".Z c #000000",
".0 c #000000",
".1 c #000000",
".2 c #000000",
".3 c #000000",
".4 c #000000",
".5 c #000000",
".6 c #000000",
".7 c #000000",
".8 c #000000",
"#` c #000000",
"#. c #000000",
"## c #000000",
"#a c #000000",
"#b c #000000",
"#c c #000000",
"#d c #000000",
"#e c #000000",
"#f c #000000",
"#g c #000000",
"#h c #000000",
"#i c #000000",
"#j c #000000",
"#k c #000000",
"#l c #000000",
"#m c #000000",
"#n c #000000",
"#o c #000000",
"#p c #000000",
"#q c #000000",
"#r c #000000",
"#s c #000000",
"#t c #000000",
"#u c #000000",
"#v c #000000",
"#w c #000000",
"#x c #000000",
"#y c #000000",
"#z c #000000",
"#A c #000000",
"#B c #000000",
"#C c #000000",
"#D c #000000",
"#E c #000000",
"#F c #000000",
"#G c #000000",
"#H c #000000",
"#I c #000000",
"#J c #000000",
"#K c #000000",
"#L c #000000",
"#M c #000000",
"#N c #000000",
"#O c #000000",
"#P c #000000",
"#Q c #000000",
"#R c #000000",
"#S c #000000",
"#T c #000000",
"#U c #000000",
"#V c #000000",
"#W c #000000",
"#X c #000000",
"#Y c #000000",
"#Z c #000000",
"#0 c #000000",
"#1 c #000000",
"#2 c #000000",
"#3 c #000000",
"#4 c #000000",
"#5 c #000000",
"#6 c #000000",
"#7 c #000000",
"#8 c #000000",
"a` c #000000",
"a. c #000000",
"a# c #000000",
"aa c #000000",
"ab c #000000",
"ac c #000000",
"ad c #000000",
"ae c #000000",
"af c #000000",
"ag c #000000",
"ah c #000000",
"ai c #000000",
"aj c #000000",
"ak c #000000",
"al c #000000",
"am c #000000",
"an c #000000",
"ao c #000000",
"ap c #000000",
"aq c #000000",
"ar c #000000",
"as c #000000",
"at c #000000",
"au c #000000",
"av c #000000",
"aw c #000000",
"ax c #000000",
"ay c #000000",
"az c #000000",
"aA c #000000",
"aB c #000000",
"aC c #000000",
"aD c #000000",
"aE c #000000",
"aF c #000000",
"aG c #000000",
"aH c #000000",
"aI c #000000",
"aJ c #000000",
"aK c #000000",
"aL c #000000",
"aM c #000000",
"aN c #000000",
"aO c #000000",
"aP c #000000",
"aQ c #000000",
"aR c #000000",
"aS c #000000",
"aT c #000000",
"aU c #000000",
"aV c #000000",
"aW c #000000",
"aX c #000000",
"aY c #000000",
"aZ c #000000",
"a0 c #000000",
"a1 c #000000",
"a2 c #000000",
"a3 c #000000",
"a4 c #000000",
"a5 c #000000",
"a6 c #000000",
"a7 c #000000",
"a8 c #000000",
/* pixels */
"`````.`````.`````.`````.`````.``",
"`.`.`.`.`.`.`.`.`.`.`.`.`.`.`.``",
"```.`.`.`.`.`.`.`.`.`.`.`.`.`.`.",
"```.`#`a`b`c`d`e`f`g`h`i`.`.`.``",
"`.`.`j`k`l`m`m`m`m`m`n`o`p`.`.``",
"```.`.`q`r`m`m`m`m`m`s`t`u`v`.`.",
"```.`#`a`w`x`y`z`A`B`C`D`E`F`.``",
"`.`.`j`k`G`H`I`J`K`L`M`N`O`P`.``",
"```.`.`q`r`m`m`m`m`m`s`t`u`v`.`.",
"```.`#`a`w`x`y`z`A`B`C`D`E`F`.``",
"`.`.`j`k`G`H`I`J`K`L`M`N`O`P`.``",
"```.`.`q`r`m`m`m`m`m`s`t`u`v`.`.",
"```.`.`.`Q`R`y`z`A`B`C`D`E`F`.``",
"`.`.`.`.`S`T`U`P`V`W`X`Y`Z`P`.``",
"```.`.`.`.`.`.`.`.`.`.`.`.`.`.`.",
"```.`````.`````.`````.`````.````"
};
