/* XPM */
static char *selection_bot_xpm[] = {
/* width height num_colors chars_per_pixel */
"    16    16      256            2",
/* colors */
"`` c #e8e8e4",
"`. c #0e0e0d",
"`# c #e2e2de",
"`a c #7b7b7a",
"`b c #3e3e3e",
"`c c #323232",
"`d c #272727",
"`e c #1b1b1b",
"`f c #101010",
"`g c #555554",
"`h c #060606",
"`i c #e1e1dd",
"`j c #757574",
"`k c #5f5f5e",
"`l c #7c7c7b",
"`m c #333333",
"`n c #1c1c1c",
"`o c #525251",
"`p c #787877",
"`q c #5a5a59",
"`r c #e3e3df",
"`s c #4d4d4c",
"`t c #434343",
"`u c #383838",
"`v c #2c2c2c",
"`w c #222221",
"`x c #171717",
"`y c #61615f",
"`z c #000000",
"`A c #777775",
"`B c #4f4f4e",
"`C c #7a7a79",
"`D c #373737",
"`E c #212121",
"`F c #656564",
"`G c #e6e6e2",
"`H c #e4e4e0",
"`I c #e3e3e0",
"`J c #e2e2df",
"`K c #e5e5e1",
"`L c #73726c",
"`M c #61605e",
"`N c #5b5b58",
"`O c #555452",
"`P c #4e4d4b",
"`Q c #474644",
"`R c #41403f",
"`S c #3a3a38",
"`T c #333331",
"`U c #2e2d2c",
"`V c #272625",
"`W c #20201f",
"`X c #191918",
"`Y c #131312",
"`Z c #0d0c0c",
"`0 c #22211f",
"`1 c #646464",
"`2 c #fac72f",
"`3 c #fac93a",
"`4 c #facc44",
"`5 c #f9ce4f",
"`6 c #f9d059",
"`7 c #f9d364",
"`8 c #f9d66e",
".` c #f8d879",
".. c #f8da83",
".# c #f8dd8d",
".a c #f8e098",
".b c #f8e1a1",
".c c #f7e4ac",
".d c #f0e0b1",
".e c #070606",
".f c #797771",
".g c #5b5b59",
".h c #545452",
".i c #474645",
".j c #41413f",
".k c #333332",
".l c #2c2b29",
".m c #000000",
".n c #000000",
".o c #000000",
".p c #000000",
".q c #000000",
".r c #000000",
".s c #000000",
".t c #000000",
".u c #000000",
".v c #000000",
".w c #000000",
".x c #000000",
".y c #000000",
".z c #000000",
".A c #000000",
".B c #000000",
".C c #000000",
".D c #000000",
".E c #000000",
".F c #000000",
".G c #000000",
".H c #000000",
".I c #000000",
".J c #000000",
".K c #000000",
".L c #000000",
".M c #000000",
".N c #000000",
".O c #000000",
".P c #000000",
".Q c #000000",
".R c #000000",
".S c #000000",
".T c #000000",
".U c #000000",
".V c #000000",
".W c #000000",
".X c #000000",
".Y c #000000",
".Z c #000000",
".0 c #000000",
".1 c #000000",
".2 c #000000",
".3 c #000000",
".4 c #000000",
".5 c #000000",
".6 c #000000",
".7 c #000000",
".8 c #000000",
"#` c #000000",
"#. c #000000",
"## c #000000",
"#a c #000000",
"#b c #000000",
"#c c #000000",
"#d c #000000",
"#e c #000000",
"#f c #000000",
"#g c #000000",
"#h c #000000",
"#i c #000000",
"#j c #000000",
"#k c #000000",
"#l c #000000",
"#m c #000000",
"#n c #000000",
"#o c #000000",
"#p c #000000",
"#q c #000000",
"#r c #000000",
"#s c #000000",
"#t c #000000",
"#u c #000000",
"#v c #000000",
"#w c #000000",
"#x c #000000",
"#y c #000000",
"#z c #000000",
"#A c #000000",
"#B c #000000",
"#C c #000000",
"#D c #000000",
"#E c #000000",
"#F c #000000",
"#G c #000000",
"#H c #000000",
"#I c #000000",
"#J c #000000",
"#K c #000000",
"#L c #000000",
"#M c #000000",
"#N c #000000",
"#O c #000000",
"#P c #000000",
"#Q c #000000",
"#R c #000000",
"#S c #000000",
"#T c #000000",
"#U c #000000",
"#V c #000000",
"#W c #000000",
"#X c #000000",
"#Y c #000000",
"#Z c #000000",
"#0 c #000000",
"#1 c #000000",
"#2 c #000000",
"#3 c #000000",
"#4 c #000000",
"#5 c #000000",
"#6 c #000000",
"#7 c #000000",
"#8 c #000000",
"a` c #000000",
"a. c #000000",
"a# c #000000",
"aa c #000000",
"ab c #000000",
"ac c #000000",
"ad c #000000",
"ae c #000000",
"af c #000000",
"ag c #000000",
"ah c #000000",
"ai c #000000",
"aj c #000000",
"ak c #000000",
"al c #000000",
"am c #000000",
"an c #000000",
"ao c #000000",
"ap c #000000",
"aq c #000000",
"ar c #000000",
"as c #000000",
"at c #000000",
"au c #000000",
"av c #000000",
"aw c #000000",
"ax c #000000",
"ay c #000000",
"az c #000000",
"aA c #000000",
"aB c #000000",
"aC c #000000",
"aD c #000000",
"aE c #000000",
"aF c #000000",
"aG c #000000",
"aH c #000000",
"aI c #000000",
"aJ c #000000",
"aK c #000000",
"aL c #000000",
"aM c #000000",
"aN c #000000",
"aO c #000000",
"aP c #000000",
"aQ c #000000",
"aR c #000000",
"aS c #000000",
"aT c #000000",
"aU c #000000",
"aV c #000000",
"aW c #000000",
"aX c #000000",
"aY c #000000",
"aZ c #000000",
"a0 c #000000",
"a1 c #000000",
"a2 c #000000",
"a3 c #000000",
"a4 c #000000",
"a5 c #000000",
"a6 c #000000",
"a7 c #000000",
"a8 c #000000",
/* pixels */
"```````.`#`````````a`b`c`d`e`f`g",
"```````h`i`````````j`b`c`d`e`f`k",
"```````h`i``````````````````````",
"```````h`i`````````l`b`m`d`n`f`o",
"```````h`i`````````p`b`m`d`n`f`q",
"```````h`i```````````r`#`#`#`#``",
"```````h`i`````````p`b`m`d`n`f`s",
"```````h`i`````````l`t`u`v`w`x`y",
"```h`z`z`z`z`i```````r`#`#`#`#``",
"`````h`z`z`i```````A`b`c`d`e`f`B",
"```````h`i`````````C`t`D`v`E`x`F",
"`G`H`I`r`r`r`r`J`#`#`#`#`i`i`i`K",
"`L`M`N`O`P`Q`R`S`T`U`V`W`X`Y`Z`0",
"`1`2`3`4`5`6`7`8.`...#.a.b.c.d.e",
".f`M.g.h`P.i.j`S.k`U`V`W`X`Y`Z.l",
"````````````````````````````````"
};
