/* XPM */
static char *selection_paste_in_place_xpm[] = {
/* width height num_colors chars_per_pixel */
"    16    16      256            2",
/* colors */
"`` c #e8e8e4",
"`. c #949492",
"`# c #232322",
"`a c #252524",
"`b c #9c9c99",
"`c c #6f6e66",
"`d c #141004",
"`e c #0e0c00",
"`f c #0a0901",
"`g c #121211",
"`h c #a6a6a6",
"`i c #747474",
"`j c #040404",
"`k c #0a0800",
"`l c #131004",
"`m c #78766f",
"`n c #121002",
"`o c #e6bc00",
"`p c #e7be03",
"`q c #e4bc03",
"`r c #1c1909",
"`s c #acacac",
"`t c #c3c3c3",
"`u c #000000",
"`v c #1a1500",
"`w c #e6bb03",
"`x c #e5b905",
"`y c #0c0b07",
"`z c #f7dd39",
"`A c #a69225",
"`B c #37352c",
"`C c #d7d7d7",
"`D c #b7b7b7",
"`E c #525252",
"`F c #0b0902",
"`G c #b1831e",
"`H c #f4b027",
"`I c #070604",
"`J c #f7da38",
"`K c #a79024",
"`L c #0e0c08",
"`M c #201e16",
"`N c #080704",
"`O c #060502",
"`P c #0d0a02",
"`Q c #060501",
"`R c #b5831d",
"`S c #f4ac25",
"`T c #f8d636",
"`U c #f8d234",
"`V c #e4bb2e",
"`W c #ddb22b",
"`X c #f1be2c",
"`Y c #f1b92a",
"`Z c #dca525",
"`0 c #e7aa25",
"`1 c #fcb326",
"`2 c #f5aa24",
"`3 c #f8d335",
"`4 c #f9ce33",
"`5 c #f9ca31",
"`6 c #ae9449",
"`7 c #5f5e5b",
"`8 c #575757",
".` c #515151",
".. c #4b4b4b",
".# c #454545",
".a c #3f3f3f",
".b c #393939",
".c c #333333",
".d c #323232",
".e c #878785",
".f c #e7bd03",
".g c #f8cf33",
".h c #f9cb31",
".i c #fac62f",
".j c #64625c",
".k c #eceae6",
".l c #fffdf8",
".m c #fefcf7",
".n c #f8f6f1",
".o c #f2f1ec",
".p c #dddbd6",
".q c #262626",
".r c #f9cc31",
".s c #f9c72f",
".t c #fac32e",
".u c #5c5b58",
".v c #faf8f3",
".w c #060606",
".x c #edebe6",
".y c #e7e5e0",
".z c #1b1b1b",
".A c #f9c830",
".B c #fac42e",
".C c #fabf2c",
".D c #555452",
".E c #f9f7f3",
".F c #fdfbf6",
".G c #f2f0eb",
".H c #ecebe6",
".I c #e1e0db",
".J c #141414",
".K c #fac52e",
".L c #fac02c",
".M c #fbbc2a",
".N c #4f4e4c",
".O c #f9f7f2",
".P c #e1dfda",
".Q c #dbdad5",
".R c #0e0e0e",
".S c #fac12d",
".T c #fbbd2b",
".U c #fbb829",
".V c #494846",
".W c #161616",
".X c #0e0d0d",
".Y c #0d0d0d",
".Z c #d5d4cf",
".0 c #080808",
".1 c #e7bc03",
".2 c #fbbe2b",
".3 c #fbb929",
".4 c #fcb527",
".5 c #434240",
".6 c #f7f5f0",
".7 c #eae9e5",
".8 c #d4d3ce",
"#` c #cfcec9",
"#. c #020202",
"## c #fbba2a",
"#a c #fcb628",
"#b c #fcb126",
"#c c #3c3b39",
"#d c #f1efea",
"#e c #f1f0eb",
"#f c #eceae5",
"#g c #e0ded9",
"#h c #d4d2cd",
"#i c #cdccc7",
"#j c #110e02",
"#k c #e7ba05",
"#l c #fcb728",
"#m c #fcb226",
"#n c #fdae24",
"#o c #3d3a35",
"#p c #d9d7d3",
"#q c #ebeae5",
"#r c #e6e4df",
"#s c #e0dfda",
"#t c #bbbab5",
"#u c #69665f",
"#v c #040302",
"#w c #282828",
"#x c #1f1f1f",
"#y c #191919",
"#z c #131313",
"#A c #070707",
"#B c #010101",
"#C c #090908",
"#D c #777775",
"#E c #000000",
"#F c #000000",
"#G c #000000",
"#H c #000000",
"#I c #000000",
"#J c #000000",
"#K c #000000",
"#L c #000000",
"#M c #000000",
"#N c #000000",
"#O c #000000",
"#P c #000000",
"#Q c #000000",
"#R c #000000",
"#S c #000000",
"#T c #000000",
"#U c #000000",
"#V c #000000",
"#W c #000000",
"#X c #000000",
"#Y c #000000",
"#Z c #000000",
"#0 c #000000",
"#1 c #000000",
"#2 c #000000",
"#3 c #000000",
"#4 c #000000",
"#5 c #000000",
"#6 c #000000",
"#7 c #000000",
"#8 c #000000",
"a` c #000000",
"a. c #000000",
"a# c #000000",
"aa c #000000",
"ab c #000000",
"ac c #000000",
"ad c #000000",
"ae c #000000",
"af c #000000",
"ag c #000000",
"ah c #000000",
"ai c #000000",
"aj c #000000",
"ak c #000000",
"al c #000000",
"am c #000000",
"an c #000000",
"ao c #000000",
"ap c #000000",
"aq c #000000",
"ar c #000000",
"as c #000000",
"at c #000000",
"au c #000000",
"av c #000000",
"aw c #000000",
"ax c #000000",
"ay c #000000",
"az c #000000",
"aA c #000000",
"aB c #000000",
"aC c #000000",
"aD c #000000",
"aE c #000000",
"aF c #000000",
"aG c #000000",
"aH c #000000",
"aI c #000000",
"aJ c #000000",
"aK c #000000",
"aL c #000000",
"aM c #000000",
"aN c #000000",
"aO c #000000",
"aP c #000000",
"aQ c #000000",
"aR c #000000",
"aS c #000000",
"aT c #000000",
"aU c #000000",
"aV c #000000",
"aW c #000000",
"aX c #000000",
"aY c #000000",
"aZ c #000000",
"a0 c #000000",
"a1 c #000000",
"a2 c #000000",
"a3 c #000000",
"a4 c #000000",
"a5 c #000000",
"a6 c #000000",
"a7 c #000000",
"a8 c #000000",
/* pixels */
"```````````.`#`a`b``````````````",
"`c`d`e`e`f`g`h`i`j`k`e`l`m``````",
"`n`o`p`q`r`s`t`u`u`v`w`x`y``````",
"`e`p`z`A`B`C`D`E`u`F`G`H`I``````",
"`e`p`J`K`L`M`N`O`P`Q`R`S`I``````",
"`e`p`T`U`V`W`X`Y`Z`0`1`2`I``````",
"`e`p`3`4`5`6`7`8.`...#.a.b.c.d.e",
"`e.f.g.h.i.j.k.l.l.l.l.m.n.o.p.q",
"`e.f.r.s.t.u.v.l.l.v.w.n.o.x.y.z",
"`e.f.A.B.C.D.E.l.l.F`j.G.H.y.I.J",
"`e.f.K.L.M.N.O.l.F.n.w.H.y.P.Q.R",
"`e.f.S.T.U.V.O.F.W.R`u.X.Y.Q.Z.0",
"`e.1.2.3.4.5.6.6.7.w`u`u.8.Z#`#.",
"`e.1###a#b#c#d#e#f#g.w#h.Z#`#i`u",
"#j#k#l#m#n#o#p#q#r#s.8.Z#`#i#t.w",
"#u#v`u`u`u.z#w#x#y#z.Y#A#B`u#C#D"
};
