/* XPM */
static char *selection_top_xpm[] = {
/* width height num_colors chars_per_pixel */
"    16    16      256            2",
/* colors */
"`` c #747474",
"`. c #5e5e5e",
"`# c #575757",
"`a c #505050",
"`b c #494949",
"`c c #434343",
"`d c #3c3c3c",
"`e c #353535",
"`f c #2e2e2e",
"`g c #272727",
"`h c #202020",
"`i c #1a1a1a",
"`j c #131313",
"`k c #0c0c0c",
"`l c #050505",
"`m c #212222",
"`n c #646464",
"`o c #e7eef4",
"`p c #e2eaf2",
"`q c #dde7f0",
"`r c #d8e3ee",
"`s c #d3e0ec",
"`t c #cfddea",
"`u c #cad9e8",
"`v c #c5d6e6",
"`w c #c0d2e4",
"`x c #bbcfe2",
"`y c #b7cbe0",
"`z c #b2c8de",
"`A c #adc5dc",
"`B c #a3bbd3",
"`C c #050606",
"`D c #424242",
"`E c #e8e8e4",
"`F c #828280",
"`G c #3e3e3e",
"`H c #333333",
"`I c #1c1c1c",
"`J c #101010",
"`K c #4c4c4b",
"`L c #060606",
"`M c #7d7d7c",
"`N c #555554",
"`O c #000000",
"`P c #e3e3df",
"`Q c #e2e2de",
"`R c #464645",
"`S c #393939",
"`T c #2d2d2d",
"`U c #222222",
"`V c #171717",
"`W c #585856",
"`X c #5b5b5a",
"`Y c #000000",
"`Z c #000000",
"`0 c #000000",
"`1 c #000000",
"`2 c #000000",
"`3 c #000000",
"`4 c #000000",
"`5 c #000000",
"`6 c #000000",
"`7 c #000000",
"`8 c #000000",
".` c #000000",
".. c #000000",
".# c #000000",
".a c #000000",
".b c #000000",
".c c #000000",
".d c #000000",
".e c #000000",
".f c #000000",
".g c #000000",
".h c #000000",
".i c #000000",
".j c #000000",
".k c #000000",
".l c #000000",
".m c #000000",
".n c #000000",
".o c #000000",
".p c #000000",
".q c #000000",
".r c #000000",
".s c #000000",
".t c #000000",
".u c #000000",
".v c #000000",
".w c #000000",
".x c #000000",
".y c #000000",
".z c #000000",
".A c #000000",
".B c #000000",
".C c #000000",
".D c #000000",
".E c #000000",
".F c #000000",
".G c #000000",
".H c #000000",
".I c #000000",
".J c #000000",
".K c #000000",
".L c #000000",
".M c #000000",
".N c #000000",
".O c #000000",
".P c #000000",
".Q c #000000",
".R c #000000",
".S c #000000",
".T c #000000",
".U c #000000",
".V c #000000",
".W c #000000",
".X c #000000",
".Y c #000000",
".Z c #000000",
".0 c #000000",
".1 c #000000",
".2 c #000000",
".3 c #000000",
".4 c #000000",
".5 c #000000",
".6 c #000000",
".7 c #000000",
".8 c #000000",
"#` c #000000",
"#. c #000000",
"## c #000000",
"#a c #000000",
"#b c #000000",
"#c c #000000",
"#d c #000000",
"#e c #000000",
"#f c #000000",
"#g c #000000",
"#h c #000000",
"#i c #000000",
"#j c #000000",
"#k c #000000",
"#l c #000000",
"#m c #000000",
"#n c #000000",
"#o c #000000",
"#p c #000000",
"#q c #000000",
"#r c #000000",
"#s c #000000",
"#t c #000000",
"#u c #000000",
"#v c #000000",
"#w c #000000",
"#x c #000000",
"#y c #000000",
"#z c #000000",
"#A c #000000",
"#B c #000000",
"#C c #000000",
"#D c #000000",
"#E c #000000",
"#F c #000000",
"#G c #000000",
"#H c #000000",
"#I c #000000",
"#J c #000000",
"#K c #000000",
"#L c #000000",
"#M c #000000",
"#N c #000000",
"#O c #000000",
"#P c #000000",
"#Q c #000000",
"#R c #000000",
"#S c #000000",
"#T c #000000",
"#U c #000000",
"#V c #000000",
"#W c #000000",
"#X c #000000",
"#Y c #000000",
"#Z c #000000",
"#0 c #000000",
"#1 c #000000",
"#2 c #000000",
"#3 c #000000",
"#4 c #000000",
"#5 c #000000",
"#6 c #000000",
"#7 c #000000",
"#8 c #000000",
"a` c #000000",
"a. c #000000",
"a# c #000000",
"aa c #000000",
"ab c #000000",
"ac c #000000",
"ad c #000000",
"ae c #000000",
"af c #000000",
"ag c #000000",
"ah c #000000",
"ai c #000000",
"aj c #000000",
"ak c #000000",
"al c #000000",
"am c #000000",
"an c #000000",
"ao c #000000",
"ap c #000000",
"aq c #000000",
"ar c #000000",
"as c #000000",
"at c #000000",
"au c #000000",
"av c #000000",
"aw c #000000",
"ax c #000000",
"ay c #000000",
"az c #000000",
"aA c #000000",
"aB c #000000",
"aC c #000000",
"aD c #000000",
"aE c #000000",
"aF c #000000",
"aG c #000000",
"aH c #000000",
"aI c #000000",
"aJ c #000000",
"aK c #000000",
"aL c #000000",
"aM c #000000",
"aN c #000000",
"aO c #000000",
"aP c #000000",
"aQ c #000000",
"aR c #000000",
"aS c #000000",
"aT c #000000",
"aU c #000000",
"aV c #000000",
"aW c #000000",
"aX c #000000",
"aY c #000000",
"aZ c #000000",
"a0 c #000000",
"a1 c #000000",
"a2 c #000000",
"a3 c #000000",
"a4 c #000000",
"a5 c #000000",
"a6 c #000000",
"a7 c #000000",
"a8 c #000000",
/* pixels */
"```.`#`a`b`c`d`e`f`g`h`i`j`k`l`m",
"`n`o`p`q`r`s`t`u`v`w`x`y`z`A`B`C",
"```.`#`a`b`D`d`e`f`g`h`i`j`k`l`m",
"`E`E`E`E`E`E`E`E`E`E`E`E`E`E`E`E",
"`F`G`H`g`I`J`K`E`E`E`E`E`E`L`E`E",
"`M`G`H`g`I`J`N`E`E`E`E`E`L`O`L`E",
"`E`P`Q`Q`Q`Q`E`E`E`E`E`L`O`O`O`L",
"`M`G`H`g`I`J`R`E`E`E`E`E`E`O`E`E",
"`F`c`S`T`U`V`W`E`E`E`E`E`E`O`E`E",
"`E`P`Q`Q`Q`Q`E`E`E`E`E`E`E`O`E`E",
"`M`G`H`g`I`J`R`E`E`E`E`E`E`O`E`E",
"`F`c`S`T`U`V`X`E`E`E`E`E`E`O`E`E",
"`E`P`Q`Q`Q`Q`E`E`E`E`E`E`E`O`E`E",
"`M`G`H`g`I`J`R`E`E`E`E`E`E`O`E`E",
"`F`c`S`T`U`V`X`E`E`E`E`E`E`O`E`E",
"`E`E`E`E`E`E`E`E`E`E`E`E`E`E`E`E"
};
