/* XPM */
static char *simplify_xpm[] = {
/* width height num_colors chars_per_pixel */
"    16    16      256            2",
/* colors */
"`` c #e8e8e4",
"`. c #d4d4d0",
"`# c #2e2e2e",
"`a c #353534",
"`b c #bdbdba",
"`c c #424241",
"`d c #686866",
"`e c #757573",
"`f c #373736",
"`g c #c9c9c6",
"`h c #2a2a29",
"`i c #252525",
"`j c #dadad7",
"`k c #aaaaa7",
"`l c #e5e5e1",
"`m c #191919",
"`n c #c4c4c0",
"`o c #d6d6d2",
"`p c #222221",
"`q c #868683",
"`r c #424240",
"`s c #9e9e9c",
"`t c #4d4d4c",
"`u c #d5d5d1",
"`v c #555553",
"`w c #5b5b59",
"`x c #60605f",
"`y c #646462",
"`z c #6a6a69",
"`A c #7d7d7a",
"`B c #6c6c6a",
"`C c #141414",
"`D c #d7d7d3",
"`E c #9c9c9a",
"`F c #484847",
"`G c #cdcdc9",
"`H c #121212",
"`I c #9c9c99",
"`J c #b4b4b1",
"`K c #4c4c4a",
"`L c #e2e2de",
"`M c #282827",
"`N c #a3a3a0",
"`O c #d9d9d6",
"`P c #111111",
"`Q c #797977",
"`R c #e0e0dc",
"`S c #0e0e0d",
"`T c #131313",
"`U c #a1a19e",
"`V c #636361",
"`W c #333332",
"`X c #e3e3e0",
"`Y c #c6c6c3",
"`Z c #d9d9d5",
"`0 c #80807e",
"`1 c #4c4c4b",
"`2 c #c1c1be",
"`3 c #bbbbb7",
"`4 c #2b2b2a",
"`5 c #434342",
"`6 c #979794",
"`7 c #b1b1ad",
"`8 c #71716f",
".` c #171716",
".. c #666664",
".# c #3b3b3a",
".a c #929290",
".b c #1e1e1e",
".c c #aeaeab",
".d c #292928",
".e c #3d3d3c",
".f c #b2b2af",
".g c #cfcfcb",
".h c #262626",
".i c #878784",
".j c #888885",
".k c #dfdfdb",
".l c #242424",
".m c #000000",
".n c #000000",
".o c #000000",
".p c #000000",
".q c #000000",
".r c #000000",
".s c #000000",
".t c #000000",
".u c #000000",
".v c #000000",
".w c #000000",
".x c #000000",
".y c #000000",
".z c #000000",
".A c #000000",
".B c #000000",
".C c #000000",
".D c #000000",
".E c #000000",
".F c #000000",
".G c #000000",
".H c #000000",
".I c #000000",
".J c #000000",
".K c #000000",
".L c #000000",
".M c #000000",
".N c #000000",
".O c #000000",
".P c #000000",
".Q c #000000",
".R c #000000",
".S c #000000",
".T c #000000",
".U c #000000",
".V c #000000",
".W c #000000",
".X c #000000",
".Y c #000000",
".Z c #000000",
".0 c #000000",
".1 c #000000",
".2 c #000000",
".3 c #000000",
".4 c #000000",
".5 c #000000",
".6 c #000000",
".7 c #000000",
".8 c #000000",
"#` c #000000",
"#. c #000000",
"## c #000000",
"#a c #000000",
"#b c #000000",
"#c c #000000",
"#d c #000000",
"#e c #000000",
"#f c #000000",
"#g c #000000",
"#h c #000000",
"#i c #000000",
"#j c #000000",
"#k c #000000",
"#l c #000000",
"#m c #000000",
"#n c #000000",
"#o c #000000",
"#p c #000000",
"#q c #000000",
"#r c #000000",
"#s c #000000",
"#t c #000000",
"#u c #000000",
"#v c #000000",
"#w c #000000",
"#x c #000000",
"#y c #000000",
"#z c #000000",
"#A c #000000",
"#B c #000000",
"#C c #000000",
"#D c #000000",
"#E c #000000",
"#F c #000000",
"#G c #000000",
"#H c #000000",
"#I c #000000",
"#J c #000000",
"#K c #000000",
"#L c #000000",
"#M c #000000",
"#N c #000000",
"#O c #000000",
"#P c #000000",
"#Q c #000000",
"#R c #000000",
"#S c #000000",
"#T c #000000",
"#U c #000000",
"#V c #000000",
"#W c #000000",
"#X c #000000",
"#Y c #000000",
"#Z c #000000",
"#0 c #000000",
"#1 c #000000",
"#2 c #000000",
"#3 c #000000",
"#4 c #000000",
"#5 c #000000",
"#6 c #000000",
"#7 c #000000",
"#8 c #000000",
"a` c #000000",
"a. c #000000",
"a# c #000000",
"aa c #000000",
"ab c #000000",
"ac c #000000",
"ad c #000000",
"ae c #000000",
"af c #000000",
"ag c #000000",
"ah c #000000",
"ai c #000000",
"aj c #000000",
"ak c #000000",
"al c #000000",
"am c #000000",
"an c #000000",
"ao c #000000",
"ap c #000000",
"aq c #000000",
"ar c #000000",
"as c #000000",
"at c #000000",
"au c #000000",
"av c #000000",
"aw c #000000",
"ax c #000000",
"ay c #000000",
"az c #000000",
"aA c #000000",
"aB c #000000",
"aC c #000000",
"aD c #000000",
"aE c #000000",
"aF c #000000",
"aG c #000000",
"aH c #000000",
"aI c #000000",
"aJ c #000000",
"aK c #000000",
"aL c #000000",
"aM c #000000",
"aN c #000000",
"aO c #000000",
"aP c #000000",
"aQ c #000000",
"aR c #000000",
"aS c #000000",
"aT c #000000",
"aU c #000000",
"aV c #000000",
"aW c #000000",
"aX c #000000",
"aY c #000000",
"aZ c #000000",
"a0 c #000000",
"a1 c #000000",
"a2 c #000000",
"a3 c #000000",
"a4 c #000000",
"a5 c #000000",
"a6 c #000000",
"a7 c #000000",
"a8 c #000000",
/* pixels */
"```````.`#`a`b``````````````````",
"```````c`d`e`f```````g`h`i`j````",
"`````k`h`l`l`m`n```o`p`q`r`s````",
"`t`u`v`q`````w`q```x`y```z`A````",
"`B`a`C`D`````E`F`G`H`D```I`c`J`K",
"`L`M`N```````O`P`c`Q`````R`S`T`U",
"```j```````````V`W`X```````Y`Z``",
"````````````````````````````````",
"```X`0`1`W`z`2``````````````````",
"`3`4`5`6`7`8.`..`R``````````````",
".#.a`````````Z`v.b`s```````````l",
"````````````````.c.d.e.f.g`J`K.h",
"```````````````````l.i`h`m`i.j.k",
"````````````````````````````````",
"````````````````````````````````",
".l.m.m.m.m.m.m.m.m.m.m.m.m.m.m.l"
};
