/* XPM */
static char *star_angled_xpm[] = {
/* width height num_colors chars_per_pixel */
"    18    18      256            2",
/* colors */
"`` c #e8e8e4",
"`. c #9a9996",
"`# c #a8a8a4",
"`a c #bbbbb8",
"`b c #4c4c49",
"`c c #595955",
"`d c #dcdcd9",
"`e c #60605c",
"`f c #f3f1da",
"`g c #595953",
"`h c #d3d3cf",
"`i c #747471",
"`j c #dedbc7",
"`k c #fffbe4",
"`l c #a9a691",
"`m c #999996",
"`n c #d8d8d4",
"`o c #cdcdca",
"`p c #d2d2cf",
"`q c #ddddd9",
"`r c #e3e3df",
"`s c #a7a7a4",
"`t c #89877d",
"`u c #fffbe1",
"`v c #fff9d8",
"`w c #e3debb",
"`x c #5a5a56",
"`y c #797976",
"`z c #595956",
"`A c #7b7b76",
"`B c #92918e",
"`C c #7c7c78",
"`D c #656561",
"`E c #5c5c56",
"`F c #fcf8e0",
"`G c #fff8d2",
"`H c #fff7c9",
"`I c #fdf7cc",
"`J c #1d1d1c",
"`K c #e0e0dc",
"`L c #c7c7c3",
"`M c #555451",
"`N c #f5f3dd",
"`O c #fffef8",
"`P c #fffded",
"`Q c #fffce8",
"`R c #fffbe3",
"`S c #fff9d4",
"`T c #fff6c1",
"`U c #fff4b8",
"`V c #969276",
"`W c #1c1b17",
"`X c #4e4e4b",
"`Y c #939391",
"`Z c #a0a09d",
"`0 c #64645b",
"`1 c #fefced",
"`2 c #fffadf",
"`3 c #fff8cf",
"`4 c #fff6c6",
"`5 c #fff5bc",
"`6 c #fff4b3",
"`7 c #fff2aa",
"`8 c #fff2ab",
".` c #fef3b5",
".. c #e9dfa1",
".# c #99936c",
".a c #1c1b15",
".b c #3a3a36",
".c c #6f6f6c",
".d c #979581",
".e c #fff6c5",
".f c #fff3af",
".g c #fff2a6",
".h c #fff09d",
".i c #ffef94",
".j c #ffee8b",
".k c #ffed83",
".l c #ffef95",
".m c #fff1a3",
".n c #d3cd99",
".o c #11100e",
".p c #696965",
".q c #40403d",
".r c #d4d0b0",
".s c #fff8d0",
".t c #fff1a2",
".u c #fff098",
".v c #ffef8f",
".w c #ffed86",
".x c #ffed81",
".y c #fff19b",
".z c #fef2a4",
".A c #9a946d",
".B c #181815",
".C c #9c9c9a",
".D c #7c7c79",
".E c #9e9a81",
".F c #fff8cc",
".G c #fff19d",
".H c #ffed82",
".I c #ffeb7c",
".J c #fff2a7",
".K c #e9e09f",
".L c #323127",
".M c #4f4f4c",
".N c #d6d6d2",
".O c #2a2a27",
".P c #f0eac2",
".Q c #ffef90",
".R c #ffed87",
".S c #ffec7d",
".T c #ffeb74",
".U c #ffec7a",
".V c #fff2a4",
".W c #0d0c0b",
".X c #9b9b98",
".Y c #b4b4b0",
".Z c #3a3a31",
".0 c #fff7ca",
".1 c #ffef91",
".2 c #fff097",
".3 c #fff3aa",
".4 c #fff2a5",
".5 c #ffec78",
".6 c #fff19e",
".7 c #030303",
".8 c #5d5d5a",
"#` c #bcb895",
"#. c #fff6c3",
"## c #ece2a8",
"#a c #938e6c",
"#b c #d9d098",
"#c c #fff2a1",
"#d c #ffec7c",
"#e c #fff198",
"#f c #010101",
"#g c #e6e6e2",
"#h c #e1e1dd",
"#i c #0f0f0d",
"#j c #b5b08b",
"#k c #a9a380",
"#l c #26251f",
"#m c #3e3e3a",
"#n c #838381",
"#o c #1f1f1c",
"#p c #ada776",
"#q c #fff092",
"#r c #060605",
"#s c #e2e2de",
"#t c #b2b2af",
"#u c #000000",
"#v c #2f2e2b",
"#w c #80807e",
"#x c #d0d0cd",
"#y c #444441",
"#z c #7b7650",
"#A c #f9ea93",
"#B c #0b0a09",
"#C c #cdcdc9",
"#D c #e7e7e3",
"#E c #767673",
"#F c #1a1a16",
"#G c #a7a7a5",
"#H c #41413d",
"#I c #dededa",
"#J c #000000",
"#K c #000000",
"#L c #000000",
"#M c #000000",
"#N c #000000",
"#O c #000000",
"#P c #000000",
"#Q c #000000",
"#R c #000000",
"#S c #000000",
"#T c #000000",
"#U c #000000",
"#V c #000000",
"#W c #000000",
"#X c #000000",
"#Y c #000000",
"#Z c #000000",
"#0 c #000000",
"#1 c #000000",
"#2 c #000000",
"#3 c #000000",
"#4 c #000000",
"#5 c #000000",
"#6 c #000000",
"#7 c #000000",
"#8 c #000000",
"a` c #000000",
"a. c #000000",
"a# c #000000",
"aa c #000000",
"ab c #000000",
"ac c #000000",
"ad c #000000",
"ae c #000000",
"af c #000000",
"ag c #000000",
"ah c #000000",
"ai c #000000",
"aj c #000000",
"ak c #000000",
"al c #000000",
"am c #000000",
"an c #000000",
"ao c #000000",
"ap c #000000",
"aq c #000000",
"ar c #000000",
"as c #000000",
"at c #000000",
"au c #000000",
"av c #000000",
"aw c #000000",
"ax c #000000",
"ay c #000000",
"az c #000000",
"aA c #000000",
"aB c #000000",
"aC c #000000",
"aD c #000000",
"aE c #000000",
"aF c #000000",
"aG c #000000",
"aH c #000000",
"aI c #000000",
"aJ c #000000",
"aK c #000000",
"aL c #000000",
"aM c #000000",
"aN c #000000",
"aO c #000000",
"aP c #000000",
"aQ c #000000",
"aR c #000000",
"aS c #000000",
"aT c #000000",
"aU c #000000",
"aV c #000000",
"aW c #000000",
"aX c #000000",
"aY c #000000",
"aZ c #000000",
"a0 c #000000",
"a1 c #000000",
"a2 c #000000",
"a3 c #000000",
"a4 c #000000",
"a5 c #000000",
"a6 c #000000",
"a7 c #000000",
"a8 c #000000",
/* pixels */
"```````````````````.`#``````````````",
"`````````````````a`b`c``````````````",
"```````````````d`e`f`g`h````````````",
"```````````````i`j`k`l`m````````````",
"`n`o`p`n`q`r`s`t`u`v`w`x````````````",
"`y`z`A`B`C`D`E`F`G`H`I`J`K``````````",
"`L`M`N`O`P`Q`R`S`T`U`H`V`W`X`Y`n````",
"```Z`0`1`2`3`4`5`6`7`8`6.`...#.a.b`m",
"````.c.d`R.e`U.f.g.h.i.j.k.l.m.n.o.p",
"`````K.q.r.s`8.t.u.v.w.x.y.z.A.B.C``",
"``````.D.E.F.G.i.j.H.I.J.K.L.M.N````",
"``````.O.P.f.Q.R.S.T.U.V.W.X````````",
"````.Y.Z.0.1.2.3.4.5.5.6.7``````````",
"````.8#`#.`5###a#b#c#d#e#f#g````````",
"``#h#i#j#k#l#m#n#o#p.2#q#r#s````````",
"``#t#u#v#w#x`````n#y#z#A#B`q````````",
"````#C````````````#D#E#F#r`n````````",
"``````````````````````#G#H#I````````"
};
