/* XPM */
static char *stroke_tocurve_xpm[] = {
/* width height num_colors chars_per_pixel */
"    16    16      256            2",
/* colors */
"`` c #e8e8e4",
"`. c #e4e4e4",
"`# c #1818fc",
"`a c #0000ff",
"`b c #1d1df7",
"`c c #a3a4a3",
"`d c #7f8182",
"`e c #727374",
"`f c #6e6f70",
"`g c #9ea2a5",
"`h c #e1e1e5",
"`i c #0606fe",
"`j c #9898d3",
"`k c #6c6cb0",
"`l c #0303fc",
"`m c #88949f",
"`n c #9caebf",
"`o c #a7bcd0",
"`p c #a9bfd5",
"`q c #b2c8dc",
"`r c #e7e7e4",
"`s c #d6d6da",
"`t c #7073b2",
"`u c #828cda",
"`v c #0405fe",
"`w c #b1c9e1",
"`x c #d6dee3",
"`y c #d1d1cd",
"`z c #6f7075",
"`A c #0f10f6",
"`B c #1a1dfb",
"`C c #c1d2e2",
"`D c #6f7175",
"`E c #97a7b7",
"`F c #abc3e2",
"`G c #1012fd",
"`H c #191dfb",
"`I c #e2e4e4",
"`J c #a6bce3",
"`K c #090afe",
"`L c #8995de",
"`M c #7a81ca",
"`N c #0303fd",
"`O c #7d8286",
"`P c #737576",
"`Q c #a5a7a7",
"`R c #9b9bd6",
"`S c #9eb3d7",
"`T c #0708fa",
"`U c #6a6ba8",
"`V c #8484c5",
"`W c #0404fd",
"`X c #c3c3c0",
"`Y c #d5d5d2",
"`Z c #e5e5e1",
"`0 c #6c6db1",
"`1 c #818bd8",
"`2 c #96a5b3",
"`3 c #696972",
"`4 c #0e0ef7",
"`5 c #2121fb",
"`6 c #1e1ef7",
"`7 c #aec6e1",
"`8 c #a5b9d6",
".` c #6b6c70",
".. c #d2d2ce",
".# c #a7a8a6",
".a c #87929c",
".b c #0506fe",
".c c #0404fc",
".d c #1515f3",
".e c #848687",
".f c #9aabbb",
".g c #8994dd",
".h c #6868ab",
".i c #0505fe",
".j c #7a7b7c",
".k c #a2b6c9",
".l c #7880ca",
".m c #8080c7",
".n c #757778",
".o c #a5b9cd",
".p c #afc7e1",
".q c #171afb",
".r c #2929fa",
".s c #a4a6a7",
".t c #b4c6d9",
".u c #7c8186",
".v c #c4c4c1",
".w c #dce1e3",
".x c #c6d5e2",
".y c #b3cae1",
".z c #727476",
".A c #e5e6e4",
".B c #a5a7a8",
".C c #000000",
".D c #000000",
".E c #000000",
".F c #000000",
".G c #000000",
".H c #000000",
".I c #000000",
".J c #000000",
".K c #000000",
".L c #000000",
".M c #000000",
".N c #000000",
".O c #000000",
".P c #000000",
".Q c #000000",
".R c #000000",
".S c #000000",
".T c #000000",
".U c #000000",
".V c #000000",
".W c #000000",
".X c #000000",
".Y c #000000",
".Z c #000000",
".0 c #000000",
".1 c #000000",
".2 c #000000",
".3 c #000000",
".4 c #000000",
".5 c #000000",
".6 c #000000",
".7 c #000000",
".8 c #000000",
"#` c #000000",
"#. c #000000",
"## c #000000",
"#a c #000000",
"#b c #000000",
"#c c #000000",
"#d c #000000",
"#e c #000000",
"#f c #000000",
"#g c #000000",
"#h c #000000",
"#i c #000000",
"#j c #000000",
"#k c #000000",
"#l c #000000",
"#m c #000000",
"#n c #000000",
"#o c #000000",
"#p c #000000",
"#q c #000000",
"#r c #000000",
"#s c #000000",
"#t c #000000",
"#u c #000000",
"#v c #000000",
"#w c #000000",
"#x c #000000",
"#y c #000000",
"#z c #000000",
"#A c #000000",
"#B c #000000",
"#C c #000000",
"#D c #000000",
"#E c #000000",
"#F c #000000",
"#G c #000000",
"#H c #000000",
"#I c #000000",
"#J c #000000",
"#K c #000000",
"#L c #000000",
"#M c #000000",
"#N c #000000",
"#O c #000000",
"#P c #000000",
"#Q c #000000",
"#R c #000000",
"#S c #000000",
"#T c #000000",
"#U c #000000",
"#V c #000000",
"#W c #000000",
"#X c #000000",
"#Y c #000000",
"#Z c #000000",
"#0 c #000000",
"#1 c #000000",
"#2 c #000000",
"#3 c #000000",
"#4 c #000000",
"#5 c #000000",
"#6 c #000000",
"#7 c #000000",
"#8 c #000000",
"a` c #000000",
"a. c #000000",
"a# c #000000",
"aa c #000000",
"ab c #000000",
"ac c #000000",
"ad c #000000",
"ae c #000000",
"af c #000000",
"ag c #000000",
"ah c #000000",
"ai c #000000",
"aj c #000000",
"ak c #000000",
"al c #000000",
"am c #000000",
"an c #000000",
"ao c #000000",
"ap c #000000",
"aq c #000000",
"ar c #000000",
"as c #000000",
"at c #000000",
"au c #000000",
"av c #000000",
"aw c #000000",
"ax c #000000",
"ay c #000000",
"az c #000000",
"aA c #000000",
"aB c #000000",
"aC c #000000",
"aD c #000000",
"aE c #000000",
"aF c #000000",
"aG c #000000",
"aH c #000000",
"aI c #000000",
"aJ c #000000",
"aK c #000000",
"aL c #000000",
"aM c #000000",
"aN c #000000",
"aO c #000000",
"aP c #000000",
"aQ c #000000",
"aR c #000000",
"aS c #000000",
"aT c #000000",
"aU c #000000",
"aV c #000000",
"aW c #000000",
"aX c #000000",
"aY c #000000",
"aZ c #000000",
"a0 c #000000",
"a1 c #000000",
"a2 c #000000",
"a3 c #000000",
"a4 c #000000",
"a5 c #000000",
"a6 c #000000",
"a7 c #000000",
"a8 c #000000",
/* pixels */
"`````````.`#`a`a`b`c`d`e`f`g````",
"`````````h`i`j`k`l`m`n`o`p`q`r``",
"`````````s`l`t`u`v`w`w`w`w`w`x``",
"```````y`z`A`a`a`B`w`w`w`w`w`C``",
"`.`h`s`D`E`w`w`w`F`G`a`a`H`w`w`I",
"`#`i`l`A`w`w`w`w`J`K`L`M`N`O`P`Q",
"`a`R`t`a`w`w`w`w`S`T`U`V`W`X`Y`Z",
"`a`0`1`a`w`w`w`2`3`4`a`a`5``````",
"`6`l`v`B`7`F`8.`..``````````````",
".#.a`w`7`G.b.c.d````````````````",
".e.f`w`F.b.g.h.i````````````````",
".j.k`w`F.b.l.m.i````````````````",
".n.o`w.p.q`N`W.r````````````````",
".s.t`w`w`w.u.v``````````````````",
"````.w.x.y.z`Y``````````````````",
"````````.A.B`Z``````````````````"
};
