/* XPM */
static char *swatches_xpm[] = {
/* width height num_colors chars_per_pixel */
"    16    16      256            2",
/* colors */
"`` c #6b6b6b",
"`. c #5a5a5a",
"`# c #585858",
"`a c #565656",
"`b c #535353",
"`c c #515151",
"`d c #4e4e4e",
"`e c #4c4c4c",
"`f c #494949",
"`g c #464646",
"`h c #444444",
"`i c #414141",
"`j c #3f3f3f",
"`k c #3c3c3c",
"`l c #3a3a3a",
"`m c #4d4d4c",
"`n c #bad2ec",
"`o c #a2c2e5",
"`p c #525252",
"`q c #f8f8f8",
"`r c #ffffff",
"`s c #474242",
"`t c #ff6565",
"`u c #ff3030",
"`v c #343434",
"`w c #575757",
"`x c #8ab3de",
"`y c #4f4f4f",
"`z c #443f3f",
"`A c #ff6262",
"`B c #ff0000",
"`C c #313131",
"`D c #545454",
"`E c #413c3c",
"`F c #2e2e2e",
"`G c #a3c3e5",
"`H c #484848",
"`I c #3b3939",
"`J c #ff3131",
"`K c #2b2b2b",
"`L c #505050",
"`M c #4d4d4d",
"`N c #4a4a4a",
"`O c #494948",
"`P c #353535",
"`Q c #373737",
"`R c #323232",
"`S c #303030",
"`T c #282828",
"`U c #4b4b4b",
"`V c #ffe185",
"`W c #fcce44",
"`X c #434342",
"`Y c #ffb5e0",
"`Z c #fc8cca",
"`0 c #383836",
"`1 c #feffcd",
"`2 c #f4f961",
"`3 c #252525",
"`4 c #ffbf00",
"`5 c #40403f",
"`6 c #ff69bc",
"`7 c #363634",
"`8 c #feffc7",
".` c #f0fa00",
".. c #222222",
".# c #454545",
".a c #3d3d3d",
".b c #333331",
".c c #1f1f1f",
".d c #424242",
".e c #ffd146",
".f c #fc90cc",
".g c #2c2c2b",
".h c #f7fc64",
".i c #1c1c1c",
".j c #3b3b3b",
".k c #383838",
".l c #363636",
".m c #333333",
".n c #262626",
".o c #2f2f2e",
".p c #2d2d2c",
".q c #2a2a2a",
".r c #272727",
".s c #191919",
".t c #dfdfdf",
".u c #d28b51",
".v c #b6723d",
".w c #252a26",
".x c #5cff7c",
".y c #2cdb4e",
".z c #161616",
".A c #393939",
".B c #c8c8c8",
".C c #a4602b",
".D c #222723",
".E c #59fd7a",
".F c #00c626",
".G c #131313",
".H c #797979",
".I c #7b4f2d",
".J c #a15f2b",
".K c #1f2420",
".L c #101010",
".M c #8f8f8d",
".N c #8f8f8c",
".O c #b1b1ae",
".P c #d0d0cc",
".Q c #c6c6c3",
".R c #a4a4a1",
".S c #565451",
".T c #2f2d2b",
".U c #5a4b3e",
".V c #7f5737",
".W c #1b1e1c",
".X c #2edb4f",
".Y c #03af24",
".Z c #06861f",
".0 c #0a5117",
".1 c #1a1a1a",
".2 c #e8e8e4",
".3 c #cfcfcb",
".4 c #8e8e8b",
".5 c #4c4c4b",
".6 c #212121",
".7 c #515150",
".8 c #8d8d8b",
"#` c #000000",
"#. c #000000",
"## c #000000",
"#a c #000000",
"#b c #000000",
"#c c #000000",
"#d c #000000",
"#e c #000000",
"#f c #000000",
"#g c #000000",
"#h c #000000",
"#i c #000000",
"#j c #000000",
"#k c #000000",
"#l c #000000",
"#m c #000000",
"#n c #000000",
"#o c #000000",
"#p c #000000",
"#q c #000000",
"#r c #000000",
"#s c #000000",
"#t c #000000",
"#u c #000000",
"#v c #000000",
"#w c #000000",
"#x c #000000",
"#y c #000000",
"#z c #000000",
"#A c #000000",
"#B c #000000",
"#C c #000000",
"#D c #000000",
"#E c #000000",
"#F c #000000",
"#G c #000000",
"#H c #000000",
"#I c #000000",
"#J c #000000",
"#K c #000000",
"#L c #000000",
"#M c #000000",
"#N c #000000",
"#O c #000000",
"#P c #000000",
"#Q c #000000",
"#R c #000000",
"#S c #000000",
"#T c #000000",
"#U c #000000",
"#V c #000000",
"#W c #000000",
"#X c #000000",
"#Y c #000000",
"#Z c #000000",
"#0 c #000000",
"#1 c #000000",
"#2 c #000000",
"#3 c #000000",
"#4 c #000000",
"#5 c #000000",
"#6 c #000000",
"#7 c #000000",
"#8 c #000000",
"a` c #000000",
"a. c #000000",
"a# c #000000",
"aa c #000000",
"ab c #000000",
"ac c #000000",
"ad c #000000",
"ae c #000000",
"af c #000000",
"ag c #000000",
"ah c #000000",
"ai c #000000",
"aj c #000000",
"ak c #000000",
"al c #000000",
"am c #000000",
"an c #000000",
"ao c #000000",
"ap c #000000",
"aq c #000000",
"ar c #000000",
"as c #000000",
"at c #000000",
"au c #000000",
"av c #000000",
"aw c #000000",
"ax c #000000",
"ay c #000000",
"az c #000000",
"aA c #000000",
"aB c #000000",
"aC c #000000",
"aD c #000000",
"aE c #000000",
"aF c #000000",
"aG c #000000",
"aH c #000000",
"aI c #000000",
"aJ c #000000",
"aK c #000000",
"aL c #000000",
"aM c #000000",
"aN c #000000",
"aO c #000000",
"aP c #000000",
"aQ c #000000",
"aR c #000000",
"aS c #000000",
"aT c #000000",
"aU c #000000",
"aV c #000000",
"aW c #000000",
"aX c #000000",
"aY c #000000",
"aZ c #000000",
"a0 c #000000",
"a1 c #000000",
"a2 c #000000",
"a3 c #000000",
"a4 c #000000",
"a5 c #000000",
"a6 c #000000",
"a7 c #000000",
"a8 c #000000",
/* pixels */
"```.`#`a`b`c`d`e`f`g`h`i`j`k`l`m",
"`.`n`n`n`o`p`q`r`r`r`s`t`t`t`u`v",
"`w`n`x`x`x`y`q`r`r`r`z`A`B`B`B`C",
"`D`n`x`x`x`e`q`r`r`r`E`A`B`B`B`F",
"`c`G`x`x`x`H`q`r`r`r`I`J`B`B`B`K",
"`d`L`M`N`O`i`h`i`j`k`P`Q`P`R`S`T",
"`U`V`V`V`W`X`Y`Y`Y`Z`0`1`1`1`2`3",
"`H`V`4`4`4`5`Y`6`6`6`7`8.`.`.`..",
".#`V`4`4`4.a`Y`6`6`6.b`8.`.`.`.c",
".d.e`4`4`4`l.f`6`6`6.g.h.`.`.`.i",
"`j`g`h`i`5`R.j.k.l.m.n.o.p.q.r.s",
"`k`r`r`r.t`v.u.u.u.v.w.x.x.x.y.z",
".A`r.B.B.B`C.u.C.C.C.D.E.F.F.F.G",
".l.H`.`i`N.q.I.J.C.C.K.E.F.F.F.L",
".M.N.O.P.Q.R.S.T.U.V.W.X.Y.Z.0.1",
".2.2.2.2.2.2.2.3.4.5.6.r.o.7.8.3"
};
