/* XPM */
static char *text_horz_kern_xpm[] = {
/* width height num_colors chars_per_pixel */
"    28    28      256            2",
/* colors */
"`` c #e8e8e4",
"`. c #b7b7b4",
"`# c #656563",
"`a c #cbcbc7",
"`b c #1b1b1b",
"`c c #2b2b2a",
"`d c #292928",
"`e c #191918",
"`f c #23282c",
"`g c #3a444c",
"`h c #36414a",
"`i c #1e2227",
"`j c #6d6d6b",
"`k c #5b5b5b",
"`l c #4e4e4e",
"`m c #424242",
"`n c #2b2b2b",
"`o c #737778",
"`p c #a1c9ec",
"`q c #8cc0ee",
"`r c #78aee0",
"`s c #4d79a1",
"`t c #6f7374",
"`u c #3f3f3f",
"`v c #575757",
"`w c #2f2f2f",
"`x c #272727",
"`y c #2a2a2a",
"`z c #272726",
"`A c #586875",
"`B c #9dccf6",
"`C c #537b9f",
"`D c #477399",
"`E c #4b8ac3",
"`F c #2a333a",
"`G c #b8b8b5",
"`H c #515151",
"`I c #434343",
"`J c #232323",
"`K c #232322",
"`L c #1c1c1c",
"`M c #191919",
"`N c #babab6",
"`O c #89aac8",
"`P c #79b1e2",
"`Q c #2e3e4c",
"`R c #2c3e4e",
"`S c #3376b3",
"`T c #1e3b54",
"`U c #555554",
"`V c #565656",
"`W c #303030",
"`X c #2e2e2d",
"`Y c #2d2d2d",
"`Z c #0e0e0e",
"`0 c #030303",
"`1 c #525250",
"`2 c #5d6367",
"`3 c #98c4ea",
"`4 c #5690c5",
"`5 c #31383e",
"`6 c #30383e",
"`7 c #195f9e",
"`8 c #04437d",
".` c #52585d",
".. c #e4e4e0",
".# c #3d3d3c",
".a c #454545",
".b c #878785",
".c c #838381",
".d c #040404",
".e c #000000",
".f c #1e1e1d",
".g c #e5e5e1",
".h c #5b6e80",
".i c #7bb0e0",
".j c #2e577c",
".k c #888a8a",
".l c #838686",
".m c #053763",
".n c #004c91",
".o c #1e2b35",
".p c #a1a19e",
".q c #1f1f1e",
".r c #dadad7",
".s c #d8d8d4",
".t c #181818",
".u c #0c0c0c",
".v c #a4a4a1",
".w c #a1a2a0",
".x c #88adcf",
".y c #4686c0",
".z c #233240",
".A c #182a3a",
".B c #0c3356",
".C c #a4a5a3",
".D c #424241",
".E c #4d4d4d",
".F c #141414",
".G c #3a3a39",
".H c #333332",
".I c #495359",
".J c #89b7e2",
".K c #23639f",
".L c #3b4349",
".M c #333c43",
".N c #004787",
".O c #004584",
".P c #3d454c",
".Q c #3d3d3d",
".R c #050505",
".S c #292929",
".T c #1a1a1a",
".U c #1b1b1a",
".V c #ddddd9",
".W c #5d778d",
".X c #5390c5",
".Y c #0a3a65",
".Z c #232e36",
".0 c #2d3a45",
".1 c #2b3944",
".2 c #1b252d",
".3 c #003260",
".4 c #1b2b39",
".5 c #4b4b4b",
".6 c #090909",
".7 c #393939",
".8 c #222222",
"#` c #0f0f0f",
"#. c #060606",
"## c #8c8c89",
"#a c #83acd2",
"#b c #10599c",
"#c c #065095",
"#d c #5c99d0",
"#e c #4a8ac4",
"#f c #377ab7",
"#g c #1961a2",
"#h c #06355f",
"#i c #8c8e8e",
"#j c #353534",
"#k c #404040",
"#l c #2f2f2e",
"#m c #3e4a54",
"#n c #72a6d5",
"#o c #004b8f",
"#p c #03325c",
"#q c #04325c",
"#r c #004b90",
"#s c #00498b",
"#t c #2f383f",
"#u c #cdcdc9",
"#v c #171717",
"#w c #646462",
"#x c #9f9f9c",
"#y c #5c5c5b",
"#z c #5b5b59",
"#A c #595957",
"#B c #3d586f",
"#C c #296caa",
"#D c #053764",
"#E c #646666",
"#F c #5c5f60",
"#G c #043868",
"#H c #172c3f",
"#I c #d1d1ce",
"#J c #757573",
"#K c #101010",
"#L c #161616",
"#M c #d9d9d6",
"#N c #151515",
"#O c #363635",
"#P c #333434",
"#Q c #101a22",
"#R c #182836",
"#S c #161c22",
"#T c #151b20",
"#U c #0f1820",
"#V c #7c7e7c",
"#W c #000000",
"#X c #000000",
"#Y c #000000",
"#Z c #000000",
"#0 c #000000",
"#1 c #000000",
"#2 c #000000",
"#3 c #000000",
"#4 c #000000",
"#5 c #000000",
"#6 c #000000",
"#7 c #000000",
"#8 c #000000",
"a` c #000000",
"a. c #000000",
"a# c #000000",
"aa c #000000",
"ab c #000000",
"ac c #000000",
"ad c #000000",
"ae c #000000",
"af c #000000",
"ag c #000000",
"ah c #000000",
"ai c #000000",
"aj c #000000",
"ak c #000000",
"al c #000000",
"am c #000000",
"an c #000000",
"ao c #000000",
"ap c #000000",
"aq c #000000",
"ar c #000000",
"as c #000000",
"at c #000000",
"au c #000000",
"av c #000000",
"aw c #000000",
"ax c #000000",
"ay c #000000",
"az c #000000",
"aA c #000000",
"aB c #000000",
"aC c #000000",
"aD c #000000",
"aE c #000000",
"aF c #000000",
"aG c #000000",
"aH c #000000",
"aI c #000000",
"aJ c #000000",
"aK c #000000",
"aL c #000000",
"aM c #000000",
"aN c #000000",
"aO c #000000",
"aP c #000000",
"aQ c #000000",
"aR c #000000",
"aS c #000000",
"aT c #000000",
"aU c #000000",
"aV c #000000",
"aW c #000000",
"aX c #000000",
"aY c #000000",
"aZ c #000000",
"a0 c #000000",
"a1 c #000000",
"a2 c #000000",
"a3 c #000000",
"a4 c #000000",
"a5 c #000000",
"a6 c #000000",
"a7 c #000000",
"a8 c #000000",
/* pixels */
"````````````````````````````````````````````````````````",
"````````````````````````````````````````````````````````",
"````````````````````````````````````````````````````````",
"```````````````````````````.`.``````````````````````````",
"```````````````````````````#`#``````````````````````````",
"```````````````````````````#`#``````````````````````````",
"```````````````````````````#`#``````````````````````````",
"`````````a`b`c`d`e`a```````#`#```````a`f`g`h`i`a````````",
"`````````j`k`l`m`n`j```````#`#```````o`p`q`r`s`t````````",
"`````````u`v`w`x`y`z```````#`#```````A`B`C`D`E`F````````",
"```````G`H`I`J`K`L`M`N`````#`#`````G`O`P`Q`R`S`T`N``````",
"```````U`V`W`X`Y`Z`0`1`````#`#`````2`3`4`5`6`7`8.```````",
"````...#.a`b.b.c.d.e.f.g```#`#``...h.i.j.k.l.m.n.o.g````",
"````.p`l`x.q.r.s.t.e.u.v```#`#``.w.x.y.z.r.s.A.n.B.C````",
"````.D.E.F.G````.H.e.e.#```#`#``.I.J.K.L````.M.N.O.P````",
"``.r.Q`w.R.q`y.S.T.e.e.U.V`#`#.r.W.X.Y.Z.0.1.2.3.n.4.V``",
"``.b.5.6.d.7`Y.8#`.e.e#.##`#`#.k#a#b#c#d#e#f#g.n.n#h#i``",
"``#j#k.e`0.d.d.d.d`0.e.e#l`#`##m#n#o#p#q#q#q#q#p#r#s#t``",
"#u`c#v.R#w#x#x#x#x#y.d.e#v#z#A#B#C#D#E#x#x#x#x#F#G.n#H#I",
"#J#K.t#L.V````````#M#N.t#`#O#P#Q#R#S.V````````#M#T#R#U#V",
"```````````````````````````#`#``````````````````````````",
"```````````````````````````#`#``````````````````````````",
"```````````````````````````#`#``````````````````````````",
"```````````````````````````#`#``````````````````````````",
"```````````````````````````.`.``````````````````````````",
"````````````````````````````````````````````````````````",
"````````````````````````````````````````````````````````",
"````````````````````````````````````````````````````````"
};
