/* XPM */
static char *text_vert_kern_xpm[] = {
/* width height num_colors chars_per_pixel */
"    29    28      256            2",
/* colors */
"`` c #e8e8e4",
"`. c #cfcfcc",
"`# c #232323",
"`a c #dcdcd8",
"`b c #a4a5a3",
"`c c #6e7274",
"`d c #6d7173",
"`e c #a7a8a6",
"`f c #cbcbc7",
"`g c #000000",
"`h c #d9d9d6",
"`i c #4d5964",
"`j c #8bb3d7",
"`k c #749ec4",
"`l c #6390b9",
"`m c #31383e",
"`n c #b8b8b5",
"`o c #8dadc8",
"`p c #91c4f2",
"`q c #5d89b0",
"`r c #629dd3",
"`s c #31465a",
"`t c #bfbfbc",
"`u c #5f6467",
"`v c #a0c9ee",
"`w c #6fa7d8",
"`x c #10161c",
"`y c #4886bf",
"`z c #2a6091",
"`A c #5c6164",
"`B c #e4e4e0",
"`C c #5c6d7e",
"`D c #8cbdeb",
"`E c #40678b",
"`F c #262829",
"`G c #23537d",
"`H c #1c63a4",
"`I c #202b34",
"`J c #e6e6e2",
"`K c #e7e7e3",
"`L c #282827",
"`M c #2b2b2a",
"`N c #2a2a29",
"`O c #202020",
"`P c #8a8a88",
"`Q c #a2a3a0",
"`R c #8db1d1",
"`S c #609bd0",
"`T c #283643",
"`U c #c1c1be",
"`V c #1d3041",
"`W c #034f93",
"`X c #0f3353",
"`Y c #a9a9a7",
"`Z c #b1b1ae",
"`0 c #545453",
"`1 c #525252",
"`2 c #444444",
"`3 c #393939",
"`4 c #353535",
"`5 c #4d555a",
"`6 c #92bfe7",
"`7 c #3b78af",
"`8 c #363e44",
".` c #2f383f",
".. c #00488a",
".# c #004481",
".a c #43494e",
".b c #525250",
".c c #5b5b5b",
".d c #414141",
".e c #1e1e1e",
".f c #2d2d2d",
".g c #222222",
".h c #dbdbd7",
".i c #60788d",
".j c #669fd2",
".k c #1e4569",
".l c #939593",
".m c #8b8e8e",
".n c #04335e",
".o c #004c91",
".p c #1d2b37",
".q c #dfdfdb",
".r c #e2e2de",
".s c #404040",
".t c #4e4e4e",
".u c #282828",
".v c #141414",
".w c #1f1f1f",
".x c #0f0f0f",
".y c #6f6f6d",
".z c #8b8c8c",
".A c #89b1d6",
".B c #2a6fac",
".C c #18242f",
".D c #9e9e9c",
".E c #a6a6a4",
".F c #9b9b98",
".G c #162431",
".H c #09365e",
".I c #929492",
".J c #9a9a97",
".K c #373737",
".L c #242424",
".M c #636361",
".N c #0e0e0e",
".O c #060606",
".P c #262625",
".Q c #404b54",
".R c #7baedb",
".S c #0b5597",
".T c #396790",
".U c #5686b2",
".V c #4377a6",
".W c #316799",
".X c #093a64",
".Y c #323940",
".Z c #40403f",
".0 c #515151",
".1 c #444443",
".2 c #cacac6",
".3 c #171717",
".4 c #121212",
".5 c #bdbdba",
".6 c #bfbfbd",
".7 c #637f9a",
".8 c #3879b3",
"#` c #085397",
"#. c #0d5799",
"## c #0a5598",
"#a c #075296",
"#b c #014d92",
"#c c #1a2d3d",
"#d c #d2d2cf",
"#e c #d8d8d4",
"#f c #191919",
"#g c #a8a8a5",
"#h c #535352",
"#i c #686c6e",
"#j c #82aed6",
"#k c #024e92",
"#l c #132b40",
"#m c #28323b",
"#n c #122c43",
"#o c #043869",
"#p c #787b7c",
"#q c #80807d",
"#r c #1a1a1a",
"#s c #212120",
"#t c #7d7d7b",
"#u c #030303",
"#v c #e5e5e1",
"#w c #1b232a",
"#x c #124d83",
"#y c #003a6f",
"#z c #353d44",
"#A c #003c72",
"#B c #003d73",
"#C c #20282e",
"#D c #353534",
"#E c #434343",
"#F c #090909",
"#G c #131313",
"#H c #2a2a2a",
"#I c #292929",
"#J c #0b0b0b",
"#K c #0c0c0c",
"#L c #a5a5a3",
"#M c #272b2e",
"#N c #272d32",
"#O c #4b4c4b",
"#P c #5e5e5c",
"#Q c #494a4a",
"#R c #2b2e31",
"#S c #ababa7",
"#T c #c7c7c4",
"#U c #3f3f3f",
"#V c #1d1d1d",
"#W c #303030",
"#X c #252525",
"#Y c #3f3f3e",
"#Z c #575756",
"#0 c #585857",
"#1 c #595958",
"#2 c #5a5a59",
"#3 c #5b5b59",
"#4 c #5c5c5a",
"#5 c #5d5d5b",
"#6 c #b1b1ad",
"#7 c #636362",
"#8 c #4a4a4a",
"a` c #040404",
"a. c #1d1d1c",
"a# c #c2c2be",
"aa c #333332",
"ab c #9f9f9c",
"ac c #92928f",
"ad c #151515",
"ae c #050505",
"af c #7a7a77",
"ag c #adadaa",
"ah c #161616",
"ai c #111110",
"aj c #9d9d9a",
"ak c #2d2d2c",
"al c #272726",
"am c #898987",
"an c #000000",
"ao c #000000",
"ap c #000000",
"aq c #000000",
"ar c #000000",
"as c #000000",
"at c #000000",
"au c #000000",
"av c #000000",
"aw c #000000",
"ax c #000000",
"ay c #000000",
"az c #000000",
"aA c #000000",
"aB c #000000",
"aC c #000000",
"aD c #000000",
"aE c #000000",
"aF c #000000",
"aG c #000000",
"aH c #000000",
"aI c #000000",
"aJ c #000000",
"aK c #000000",
"aL c #000000",
"aM c #000000",
"aN c #000000",
"aO c #000000",
"aP c #000000",
"aQ c #000000",
"aR c #000000",
"aS c #000000",
"aT c #000000",
"aU c #000000",
"aV c #000000",
"aW c #000000",
"aX c #000000",
"aY c #000000",
"aZ c #000000",
"a0 c #000000",
"a1 c #000000",
"a2 c #000000",
"a3 c #000000",
"a4 c #000000",
"a5 c #000000",
"a6 c #000000",
"a7 c #000000",
"a8 c #000000",
/* pixels */
"``````````````````````````````````````````````````````````",
"``````````````````````````````````````````````````````````",
"``````````````````````````````````````````````````````````",
"```````````````````````````.`#`a```````b`c`c`d`e``````````",
"```````````````````````````f`g`h```````i`j`k`l`m``````````",
"```````````````````````````f`g`h`````n`o`p`q`r`s`t````````",
"```````````````````````````f`g`h`````u`v`w`x`y`z`A````````",
"```````````````````````````f`g`h```B`C`D`E`F`G`H`I`J``````",
"`````````K`L`M`N`O`P```````f`g`h```Q`R`S`T`U`V`W`X`Y``````",
"`````````Z`0`1`2`3`4```````f`g`h```5`6`7`8``.`...#.a``````",
"````````.b.c.d.e.f.g`.`````f`g`h.h.i.j.k.l``.m.n.o.p.q````",
"``````.r.s.t.u.v.w.x.y`````f`g`h.z.A.B.C.D.E.F.G.o.H.I````",
"``````.J`1.K.L.M.N.O.P`````f`g`h.Q.R.S.T.U.V.W.X.o...Y````",
"``````.Z.0`#.1.2.3`g.4.5```f`g.6.7.8.o#`#.###a#b.o.o#c#d``",
"````#e.s.K#f#g```N`g`g#h```f`g#i#j#k#l#m#m#m#m#m#n.o#o#p``",
"````#q.t#r#s`J``#t#u`g`O#v`f`g#w#x#y#z``````````.`#A#B#C``",
"````#D#E#F#G#H#I.L#J`g#K#L`f`g#M#N#N#O#P#P#P#P#P#Q#N#N#R#S",
"``#T#U#V`g#W#W#X#f`g`g`g#Y`f`g.b#Z#0#1#1#2#2#3#4#4#5#5#P#6",
"``#7#8`g#ua`a`a`a`a``g`ga.a#`g`h``````````````````````````",
"``#X.u`gaaababababacad`gaeaf`g`h``````````````````````````",
"ag#Jahaiaj#d#d#d#d#dakah.val`g`h``````````````````````````",
"am`g`g`g`g`g`g`g`g`g`g`g`g`g`g`h``````````````````````````",
"`a`f`f`f`f`f`f`f`f`f`f`f`f`Z`g`h``````````````````````````",
"```````````````````````````f`g`h``````````````````````````",
"```````````````````````````.`#`a``````````````````````````",
"``````````````````````````````````````````````````````````",
"``````````````````````````````````````````````````````````",
"``````````````````````````````````````````````````````````"
};
