/* XPM */
static char *text_letter_spacing_xpm[] = {
/* width height num_colors chars_per_pixel */
"    28    28      256            2",
/* colors */
"`` c #e8e8e4",
"`. c #cdcdc9",
"`# c #cbcbc7",
"`a c #bfbfbc",
"`b c #262625",
"`c c #353534",
"`d c #313130",
"`e c #1d1d1d",
"`f c #37414a",
"`g c #4d5e6c",
"`h c #465868",
"`i c #262e36",
"`j c #5f5f5e",
"`k c #5b5b5b",
"`l c #4b4b4b",
"`m c #3f3f3f",
"`n c #2b2b2b",
"`o c #5c5c5a",
"`p c #666c6f",
"`q c #a4cdf0",
"`r c #87bae8",
"`s c #72a9db",
"`t c #4e7faa",
"`u c #5e6367",
"`v c #e6e6e2",
"`w c #3c3c3c",
"`x c #565656",
"`y c #2f2f2f",
"`z c #262626",
"`A c #282828",
"`B c #222222",
"`C c #5c6d7c",
"`D c #99caf5",
"`E c #507798",
"`F c #436a8f",
"`G c #4888c2",
"`H c #263039",
"`I c #ababa8",
"`J c #515151",
"`K c #404040",
"`L c #272726",
"`M c #242423",
"`N c #1a1a1a",
"`O c #141414",
"`P c #aaaaa8",
"`Q c #abaca9",
"`R c #8db0d0",
"`S c #75addf",
"`T c #303f4c",
"`U c #2b3b48",
"`V c #3074b1",
"`W c #1a3c5b",
"`X c #aaaba8",
"`Y c #4b4b4a",
"`Z c #2d2d2d",
"`0 c #393939",
"`1 c #383837",
"`2 c #0c0c0c",
"`3 c #010101",
"`4 c #424241",
"`5 c #555c61",
"`6 c #98c4eb",
"`7 c #528cc1",
"`8 c #3d4449",
".` c #3a4248",
".. c #165a98",
".# c #024582",
".a c #424a50",
".b c #e0e0dc",
".c c #3d3d3d",
".d c #424242",
".e c #1c1c1c",
".f c #939391",
".g c #080808",
".h c #000000",
".i c #1b1b1b",
".j c #60768a",
".k c #76acdd",
".l c #2c5476",
".m c #949594",
".n c #939594",
".o c #08355e",
".p c #004c91",
".q c #1b2a37",
".r c #959592",
".s c #50504f",
".t c #242424",
".u c #1f1f1f",
".v c #dfdfdb",
".w c #070707",
".x c #949491",
".y c #969796",
".z c #8cb3d6",
".A c #4081bc",
".B c #23303c",
".C c #07345d",
".D c #4a4a4a",
".E c #111111",
".F c #3f3f3e",
".G c #3e3e3d",
".H c #343433",
".I c #47525b",
".J c #85b5e1",
".K c #205f98",
".L c #3f464c",
".M c #3e454b",
".N c #004583",
".O c #00488a",
".P c #343c43",
".Q c #d6d6d2",
".R c #3e3e3e",
".S c #2a2a2a",
".T c #050505",
".U c #2c2c2c",
".V c #1f1f1e",
".W c #191919",
".X c #658099",
".Y c #4b89c1",
".Z c #0a3d6d",
".0 c #394f61",
".1 c #364d62",
".2 c #2f485e",
".3 c #23384b",
".4 c #013666",
".5 c #192d3e",
".6 c #7d7d7a",
".7 c #4c4c4c",
".8 c #060606",
"#` c #030303",
"#. c #0d0d0d",
"## c #7c7c79",
"#a c #7e8182",
"#b c #86b1d8",
"#c c #0a5498",
"#d c #045094",
"#e c #4988c3",
"#f c #3a7cb9",
"#g c #2c70af",
"#h c #155d9f",
"#i c #033868",
"#j c #7c7f80",
"#k c #101010",
"#l c #2a2a29",
"#m c #42505c",
"#n c #6ba0d1",
"#o c #00498b",
"#p c #102f4a",
"#q c #14314b",
"#r c #004b8f",
"#s c #2a333c",
"#t c #c7c7c4",
"#u c #252525",
"#v c #121212",
"#w c #7e7e7c",
"#x c #c4c4c0",
"#y c #161616",
"#z c #34516b",
"#A c #2065a5",
"#B c #07345c",
"#C c #7e807f",
"#D c #163048",
"#E c #82827f",
"#F c #1b1b1a",
"#G c #212121",
"#H c #e1e1dd",
"#I c #828382",
"#J c #1b252d",
"#K c #212e39",
"#L c #22292e",
"#M c #000000",
"#N c #000000",
"#O c #000000",
"#P c #000000",
"#Q c #000000",
"#R c #000000",
"#S c #000000",
"#T c #000000",
"#U c #000000",
"#V c #000000",
"#W c #000000",
"#X c #000000",
"#Y c #000000",
"#Z c #000000",
"#0 c #000000",
"#1 c #000000",
"#2 c #000000",
"#3 c #000000",
"#4 c #000000",
"#5 c #000000",
"#6 c #000000",
"#7 c #000000",
"#8 c #000000",
"a` c #000000",
"a. c #000000",
"a# c #000000",
"aa c #000000",
"ab c #000000",
"ac c #000000",
"ad c #000000",
"ae c #000000",
"af c #000000",
"ag c #000000",
"ah c #000000",
"ai c #000000",
"aj c #000000",
"ak c #000000",
"al c #000000",
"am c #000000",
"an c #000000",
"ao c #000000",
"ap c #000000",
"aq c #000000",
"ar c #000000",
"as c #000000",
"at c #000000",
"au c #000000",
"av c #000000",
"aw c #000000",
"ax c #000000",
"ay c #000000",
"az c #000000",
"aA c #000000",
"aB c #000000",
"aC c #000000",
"aD c #000000",
"aE c #000000",
"aF c #000000",
"aG c #000000",
"aH c #000000",
"aI c #000000",
"aJ c #000000",
"aK c #000000",
"aL c #000000",
"aM c #000000",
"aN c #000000",
"aO c #000000",
"aP c #000000",
"aQ c #000000",
"aR c #000000",
"aS c #000000",
"aT c #000000",
"aU c #000000",
"aV c #000000",
"aW c #000000",
"aX c #000000",
"aY c #000000",
"aZ c #000000",
"a0 c #000000",
"a1 c #000000",
"a2 c #000000",
"a3 c #000000",
"a4 c #000000",
"a5 c #000000",
"a6 c #000000",
"a7 c #000000",
"a8 c #000000",
/* pixels */
"````````````````````````````````````````````````````````",
"````````````````````````````````````````````````````````",
"````````````````````````````````````````````````````````",
"````````````````````````````````````````````````````````",
"````````````````````````````````````````````````````````",
"````````````````````````````````````````````````````````",
"```````````.`#`#`.`````````````````````.`#`#`.``````````",
"`````````a`b`c`d`e`a`````````````````a`f`g`h`i`a````````",
"`````````j`k`l`m`n`o`````````````````p`q`r`s`t`u````````",
"```````v`w`x`y`z`A`B`v`````````````v`C`D`E`F`G`H`v``````",
"```````I`J`K`L`M`N`O`P`````````````Q`R`S`T`U`V`W`X``````",
"```````Y`x`Z`0`1`2`3`4`````````````5`6`7`8.`...#.a``````",
"````.b.c.d.e.f.f.g.h.i.b````````.b.j.k.l.m.n.o.p.q.b````",
"````.r.s.t.u.v.v.i.h.w.x````````.y.z.A.B.v.v.q.p.C.m````",
"````.c.D.E.F````.G.h.h.H````````.I.J.K.L````.M.N.O.P````",
"``.Q.R.S.T.U.U`A.V`3.h.W.Q````.Q.X.Y.Z.0.1.2.3.4.p.5.Q``",
"``.6.7.8#``Z.t.i#..h.h#`##````#a#b#c#d#e#f#g#h.p.p#i#j``",
"``.H`w.h#k`O`O`O`O#k.h.h#l````#m#n#o#p#q#q#q#q#p#o#r#s``",
"#t#u#v.w#w#x#x#x#x#w.w.h#y#t#t#z#A#B#C#x#x#x#x#C#B.p#D#t",
"#E#F#G`B#H````````#H`B#G#F#E#I#J#K#L#H````````#H#L#K#J#I",
"````````````````````````````````````````````````````````",
"````````````````````````````````````````````````````````",
"````````````````````````````````````````````````````````",
"````````````````````````````````````````````````````````",
"````````````````````````````````````````````````````````",
"````````````````````````````````````````````````````````",
"````````````````````````````````````````````````````````",
"````````````````````````````````````````````````````````"
};
