/* XPM */
static char *text_icon_xpm[] = {
/* width height num_colors chars_per_pixel */
"    20    20      256            2",
/* colors */
"`` c #d4d4d4",
"`. c #8d8d8d",
"`# c #8f8f8f",
"`a c #d1d1d1",
"`b c #eeeeee",
"`c c #f1f4f8",
"`d c #d9e0eb",
"`e c #f1f3f7",
"`f c #8c8c8c",
"`g c #c9d3e2",
"`h c #6280ab",
"`i c #c6d1e0",
"`j c #dbe2eb",
"`k c #96a9c6",
"`l c #d9e0ea",
"`m c #ededed",
"`n c #fdfdfd",
"`o c #fcfcfc",
"`p c #ececec",
"`q c #fbfbfb",
"`r c #fafafa",
"`s c #c9c9c9",
"`t c #838383",
"`u c #808080",
"`v c #c5c5c5",
"`w c #eaeaea",
"`x c #f9f9f9",
"`y c #f7f7f7",
"`z c #797979",
"`A c #545454",
"`B c #4e4e4e",
"`C c #6a6a6a",
"`D c #f8f8f8",
"`E c #f5f5f5",
"`F c #cdcdcd",
"`G c #4f4f4f",
"`H c #4b4b4b",
"`I c #454545",
"`J c #3e3e3e",
"`K c #c6c6c6",
"`L c #e9e9e9",
"`M c #f6f6f6",
"`N c #f2f2f2",
"`O c #7e7e7e",
"`P c #787878",
"`Q c #747474",
"`R c #333333",
"`S c #696969",
"`T c #e7e7e7",
"`U c #f4f4f4",
"`V c #f0f0f0",
"`W c #d7d7d7",
"`X c #424242",
"`Y c #3b3b3b",
"`Z c #c0c0c0",
"`0 c #bfbfbf",
"`1 c #292929",
"`2 c #242424",
"`3 c #d2d2d2",
"`4 c #e6e6e6",
"`5 c #868686",
"`6 c #363636",
"`7 c #505050",
"`8 c #1f1f1f",
".` c #757575",
".. c #e5e5e5",
".# c #ebebeb",
".a c #dedede",
".b c #393939",
".c c #2c2c2c",
".d c #9b9b9b",
".e c #999999",
".f c #272727",
".g c #dddddd",
".h c #e4e4e4",
".i c #e8e8e8",
".j c #909090",
".k c #282828",
".l c #252525",
".m c #adadad",
".n c #b6b6b6",
".o c #222222",
".p c #898989",
".q c #e3e3e3",
".r c #e2e2e2",
".s c #373737",
".t c #9c9c9c",
".u c #b2b2b2",
".v c #e1e1e1",
".w c #e0e0e0",
".x c #dbdbdb",
".y c #c2c2c2",
".z c #8e8e8e",
".A c #000000",
".B c #000000",
".C c #000000",
".D c #000000",
".E c #000000",
".F c #000000",
".G c #000000",
".H c #000000",
".I c #000000",
".J c #000000",
".K c #000000",
".L c #000000",
".M c #000000",
".N c #000000",
".O c #000000",
".P c #000000",
".Q c #000000",
".R c #000000",
".S c #000000",
".T c #000000",
".U c #000000",
".V c #000000",
".W c #000000",
".X c #000000",
".Y c #000000",
".Z c #000000",
".0 c #000000",
".1 c #000000",
".2 c #000000",
".3 c #000000",
".4 c #000000",
".5 c #000000",
".6 c #000000",
".7 c #000000",
".8 c #000000",
"#` c #000000",
"#. c #000000",
"## c #000000",
"#a c #000000",
"#b c #000000",
"#c c #000000",
"#d c #000000",
"#e c #000000",
"#f c #000000",
"#g c #000000",
"#h c #000000",
"#i c #000000",
"#j c #000000",
"#k c #000000",
"#l c #000000",
"#m c #000000",
"#n c #000000",
"#o c #000000",
"#p c #000000",
"#q c #000000",
"#r c #000000",
"#s c #000000",
"#t c #000000",
"#u c #000000",
"#v c #000000",
"#w c #000000",
"#x c #000000",
"#y c #000000",
"#z c #000000",
"#A c #000000",
"#B c #000000",
"#C c #000000",
"#D c #000000",
"#E c #000000",
"#F c #000000",
"#G c #000000",
"#H c #000000",
"#I c #000000",
"#J c #000000",
"#K c #000000",
"#L c #000000",
"#M c #000000",
"#N c #000000",
"#O c #000000",
"#P c #000000",
"#Q c #000000",
"#R c #000000",
"#S c #000000",
"#T c #000000",
"#U c #000000",
"#V c #000000",
"#W c #000000",
"#X c #000000",
"#Y c #000000",
"#Z c #000000",
"#0 c #000000",
"#1 c #000000",
"#2 c #000000",
"#3 c #000000",
"#4 c #000000",
"#5 c #000000",
"#6 c #000000",
"#7 c #000000",
"#8 c #000000",
"a` c #000000",
"a. c #000000",
"a# c #000000",
"aa c #000000",
"ab c #000000",
"ac c #000000",
"ad c #000000",
"ae c #000000",
"af c #000000",
"ag c #000000",
"ah c #000000",
"ai c #000000",
"aj c #000000",
"ak c #000000",
"al c #000000",
"am c #000000",
"an c #000000",
"ao c #000000",
"ap c #000000",
"aq c #000000",
"ar c #000000",
"as c #000000",
"at c #000000",
"au c #000000",
"av c #000000",
"aw c #000000",
"ax c #000000",
"ay c #000000",
"az c #000000",
"aA c #000000",
"aB c #000000",
"aC c #000000",
"aD c #000000",
"aE c #000000",
"aF c #000000",
"aG c #000000",
"aH c #000000",
"aI c #000000",
"aJ c #000000",
"aK c #000000",
"aL c #000000",
"aM c #000000",
"aN c #000000",
"aO c #000000",
"aP c #000000",
"aQ c #000000",
"aR c #000000",
"aS c #000000",
"aT c #000000",
"aU c #000000",
"aV c #000000",
"aW c #000000",
"aX c #000000",
"aY c #000000",
"aZ c #000000",
"a0 c #000000",
"a1 c #000000",
"a2 c #000000",
"a3 c #000000",
"a4 c #000000",
"a5 c #000000",
"a6 c #000000",
"a7 c #000000",
"a8 c #000000",
/* pixels */
"```.`.`.`.`.`.`.`.`.`.`.`.`.`.`.`.`.`.``",
"`#`a`b`b`b`b`b`b`b`b`b`b`b`b`b`b`b`b`a`#",
"`.`b`c`d`d`d`d`d`d`d`d`d`d`d`d`d`d`e`b`.",
"`f`b`g`h`h`h`h`h`h`h`h`h`h`h`h`h`h`i`b`.",
"`f`b`j`k`k`k`k`k`k`k`k`k`k`k`k`k`k`l`b`.",
"`.`m`n`o`o`o`o`o`o`o`o`o`o`o`o`o`o`n`m`.",
"`.`p`q`r`r`r`r`r`s`t`u`v`r`r`r`r`r`q`p`.",
"`.`w`x`y`y`y`y`y`z`A`B`C`y`y`y`y`y`x`w`.",
"`.`w`D`E`E`E`E`F`G`H`I`J`K`E`E`E`E`D`w`.",
"`.`L`M`N`N`N`N`O`I`P`Q`R`S`N`N`N`N`M`L`.",
"`.`T`U`V`V`V`W`X`Y`Z`0`1`2`3`V`V`V`U`T`.",
"`.`4`N`m`m`m`5`6`7`m`m`X`8.``m`m`m`N`4`.",
"`...`V.#.#.a.b.c.d.#.#.e`8.f.g.#.#`V..`.",
"`..h`b.i.i.j.k.l.m.n.n.m.o`8.p.i.i`b.h`.",
"`..q`m`4.r.s`8`8`8`8`8`8`8`8`R.r`4`m.q`.",
"`..r.#.q.t`8`8.u.q.q.q.q.u`8`8.t.q.#.r`.",
"`..v`L.v`I`8`G.v.v.v.v.v.v`G`8`I.v`L.v`.",
"`..w`m.x`t`t.y.i.i.i.i.i.i.y`t`t.x`m.w`.",
".z`K.w.w.w.w.w.w.w.w.w.w.w.w.w.w.w.w`K.z",
"```.`.`.`.`.`.`.`.`.`.`.`.`.`.`.`.`.`.``"
};
