/* XPM */
static char *transform_scew_ver_xpm[] = {
/* width height num_colors chars_per_pixel */
"    24    24      256            2",
/* colors */
"`` c #e8e8e4",
"`. c #ababa8",
"`# c #5a5a59",
"`a c #d9d9d6",
"`b c #0e0e0d",
"`c c #e5e5e1",
"`d c #777775",
"`e c #272726",
"`f c #050505",
"`g c #000000",
"`h c #d0d0cd",
"`i c #484847",
"`j c #515253",
"`k c #cad4dd",
"`l c #010101",
"`m c #323232",
"`n c #8a8e91",
"`o c #d9e4ee",
"`p c #d2dfec",
"`q c #e3e3df",
"`r c #7c7c7b",
"`s c #3f403f",
"`t c #c1c5c9",
"`u c #d3e0ec",
"`v c #d2dfeb",
"`w c #ccdbe9",
"`x c #e6e6e2",
"`y c #9d9d9b",
"`z c #91918f",
"`A c #8f8f8d",
"`B c #8d8d8b",
"`C c #8b8b89",
"`D c #7e7e7c",
"`E c #424242",
"`F c #5f6060",
"`G c #dbe1e6",
"`H c #cbdae9",
"`I c #cddbe9",
"`J c #d6e1ed",
"`K c #c6d7e6",
"`L c #939391",
"`M c #f2f2ef",
"`N c #f1f1f0",
"`O c #eeefef",
"`P c #aeb0b0",
"`Q c #464646",
"`R c #a6a7a8",
"`S c #e1e9f1",
"`T c #c1d4e5",
"`U c #c8d8e7",
"`V c #d1deeb",
"`W c #d9e4ef",
"`X c #c0d2e4",
"`Y c #e4e4e0",
"`Z c #90908e",
"`0 c #f0f0ef",
"`1 c #c5d0da",
"`2 c #787c80",
"`3 c #555657",
"`4 c #d7d7d8",
"`5 c #cfdcea",
"`6 c #bacee1",
"`7 c #c3d4e5",
"`8 c #ccdae9",
".` c #d4e1ec",
".. c #dde7f0",
".# c #8e8e8c",
".a c #d3d4d4",
".b c #5f6162",
".c c #808283",
".d c #eceef2",
".e c #bbcfe2",
".f c #b5cbdf",
".g c #bed1e3",
".h c #c7d7e7",
".i c #cfddea",
".j c #d8e3ee",
".k c #e0e9f2",
".l c #b4cadf",
".m c #5b5b5b",
".n c #b5b7b8",
".o c #dde8f0",
".p c #acc4db",
".q c #b0c7dd",
".r c #b9cde1",
".s c #c2d3e5",
".t c #cad9e8",
".u c #dce6f0",
".v c #e4ecf3",
".w c #aec5dc",
".x c #525252",
".y c #e1e2e2",
".z c #a3bed7",
".A c #abc4db",
".B c #bdd0e2",
".C c #c5d6e6",
".D c #cedcea",
".E c #d7e2ed",
".F c #dfe8f1",
".G c #e8eef5",
".H c #a8c1d9",
".I c #4d4d4d",
".J c #ffffff",
".K c #9ebad5",
".L c #a7c0d9",
".M c #afc6dd",
".N c #b8cce0",
".O c #c9d9e8",
".P c #dae5ef",
".Q c #e3ebf3",
".R c #ebf1f6",
".S c #a2bdd7",
".T c #494949",
".U c #aac3da",
".V c #b3c9de",
".W c #c4d5e6",
".X c #d5e1ed",
".Y c #dee7f1",
".Z c #e6edf4",
".0 c #eff4f8",
".1 c #9cb8d4",
".2 c #444444",
".3 c #a5bfd8",
".4 c #b6cbe0",
".5 c #bfd2e3",
".6 c #d0deeb",
".7 c #e2eaf2",
".8 c #eaf0f6",
"#` c #d4e0ec",
"#. c #859db5",
"## c #404040",
"#a c #a9c2da",
"#b c #b1c8de",
"#c c #bfd1e3",
"#d c #6b7b8a",
"#e c #101113",
"#f c #4a4a49",
"#g c #3c3c3c",
"#h c #fcfdfd",
"#i c #b5cadf",
"#j c #c6d7e7",
"#k c #acc1d5",
"#l c #484f55",
"#m c #282828",
"#n c #a0acb6",
"#o c #373737",
"#p c #f6f9fb",
"#q c #c1d3e4",
"#r c #d3dfec",
"#s c #92a5b6",
"#t c #222425",
"#u c #5e5e5e",
"#v c #eaeae8",
"#w c #c1cfdb",
"#x c #333333",
"#y c #f0f4f8",
"#z c #bcd0e2",
"#A c #c4d4e5",
"#B c #6d7a86",
"#C c #101213",
"#D c #7c868e",
"#E c #c0cfdb",
"#F c #c5d2dc",
"#G c #2f2f2f",
"#H c #b7cce0",
"#I c #c9d8e7",
"#J c #b4c4d4",
"#K c #35393d",
"#L c #171716",
"#M c #636361",
"#N c #747472",
"#O c #81817f",
"#P c #2b2b2b",
"#Q c #c9d9e7",
"#R c #a1adb9",
"#S c #1e1f1f",
"#T c #626261",
"#U c #e2e2de",
"#V c #262626",
"#W c #dee7f0",
"#X c #cedce9",
"#Y c #797f86",
"#Z c #171717",
"#0 c #9e9e9c",
"#1 c #222222",
"#2 c #cbd4dd",
"#3 c #4c4e50",
"#4 c #393938",
"#5 c #ccccc8",
"#6 c #1e1e1e",
"#7 c #2d2d2d",
"#8 c #727270",
"a` c #646463",
"a. c #aaaaa8",
"a# c #000000",
"aa c #000000",
"ab c #000000",
"ac c #000000",
"ad c #000000",
"ae c #000000",
"af c #000000",
"ag c #000000",
"ah c #000000",
"ai c #000000",
"aj c #000000",
"ak c #000000",
"al c #000000",
"am c #000000",
"an c #000000",
"ao c #000000",
"ap c #000000",
"aq c #000000",
"ar c #000000",
"as c #000000",
"at c #000000",
"au c #000000",
"av c #000000",
"aw c #000000",
"ax c #000000",
"ay c #000000",
"az c #000000",
"aA c #000000",
"aB c #000000",
"aC c #000000",
"aD c #000000",
"aE c #000000",
"aF c #000000",
"aG c #000000",
"aH c #000000",
"aI c #000000",
"aJ c #000000",
"aK c #000000",
"aL c #000000",
"aM c #000000",
"aN c #000000",
"aO c #000000",
"aP c #000000",
"aQ c #000000",
"aR c #000000",
"aS c #000000",
"aT c #000000",
"aU c #000000",
"aV c #000000",
"aW c #000000",
"aX c #000000",
"aY c #000000",
"aZ c #000000",
"a0 c #000000",
"a1 c #000000",
"a2 c #000000",
"a3 c #000000",
"a4 c #000000",
"a5 c #000000",
"a6 c #000000",
"a7 c #000000",
"a8 c #000000",
/* pixels */
"```````````````````````````````````.`#```a`b````",
"```````````````````````````````c`d`e`f`a`g`g`b``",
"`````````````````````````````h`i`j`k`l`g`g`g`g`b",
"```````````````````````````.`m`n`o`p`g```a`b````",
"```````````````````````q`r`s`t`u`v`w`g```a`b````",
"`````````x`y`z`A`B`C`D`E`F`G`H`I`J`K`g`x`a`b````",
"`````````c`L`M`N`O`P`Q`R`S`T`U`V`W`X`g`Y````````",
"`````````c`Z`0`1`2`3`4`5`6`7`8.`..`6`g`Y````````",
"`````````c.#.a.b.c.d.e.f.g.h.i.j.k.l`g`Y````````",
"`````````Y`d.m.n.o.p.q.r.s.t`u.u.v.w`g`Y````````",
"`````````Y.x.y`X.z.A.l.B.C.D.E.F.G.H`g`Y````````",
"`````````Y.I.J.K.L.M.N`X.O`v.P.Q.R.S`g`Y````````",
"`````````Y.T.J.S.U.V.e.W`I.X.Y.Z.0.1`g`Y````````",
"`````````Y.2.J.3.w.4.5`U.6`o.7.8#`#.`l`Y````````",
"`````````Y##.J#a#b`6`7`H#`.u.Q#c#d#e#f`Y````````",
"`````````Y#g#h.p#i.g#j.i.j.j#k#l#m#n`d`Y````````",
"`````````Y#o#p.q.r#q.t#r`I#s#t#u#v#w`d`Y````````",
"`````````Y#x#y.l#z.C.D#A#B#C#D#E#E#F`d`Y````````",
"`````g```x#G.8#H`X#I#J#K#L#M#N#N#N#N#O`x````````",
"`````g````#P.v.e#Q#R#S#T#U``````````````````````",
"`````g````#V#W#X#Y#Z#0``````````````````````````",
"`g`g`g`g`g#1#2#3#4#5````````````````````````````",
"```g`g`g``#6#7#8`Y``````````````````````````````",
"`````g````a`a.``````````````````````````````````"
};
