/* XPM */
static char *transform_scale_ver_xpm[] = {
/* width height num_colors chars_per_pixel */
"    24    24      256            2",
/* colors */
"`` c #e8e8e4",
"`. c #222222",
"`# c #030303",
"`a c #000000",
"`b c #1c1c1c",
"`c c #0a0a0a",
"`d c #c2d3e3",
"`e c #b8cde1",
"`f c #b4cadf",
"`g c #b0c7dd",
"`h c #abc4db",
"`i c #a7c0d9",
"`j c #a3bdd7",
"`k c #9ebad5",
"`l c #9ab7d4",
"`m c #98b6d3",
"`n c #94b1cd",
"`o c #0e1013",
"`p c #86a0b9",
"`q c #a2bdd6",
"`r c #0c0c0c",
"`s c #c1d3e5",
"`t c #cbdbe9",
"`u c #d0deeb",
"`v c #d5e1ed",
"`w c #d9e4ef",
"`x c #dde7f0",
"`y c #e2eaf2",
"`z c #e6edf4",
"`A c #eaf0f6",
"`B c #e8ecf1",
"`C c #161617",
"`D c #e0e0e0",
"`E c #ffffff",
"`F c #0f0f0f",
"`G c #c4d6e6",
"`H c #cad9e8",
"`I c #cedcea",
"`J c #d3e0ec",
"`K c #d7e3ee",
"`L c #dbe6f0",
"`M c #e0e9f1",
"`N c #e4ecf3",
"`O c #e9eff5",
"`P c #1d1d1e",
"`Q c #070707",
"`R c #e8e8e8",
"`S c #111111",
"`T c #c8d8e8",
"`U c #c8d8e7",
"`V c #ccdbe9",
"`W c #d1deeb",
"`X c #dae4ef",
"`Y c #dee7f1",
"`Z c #e7eef4",
"`0 c #ebf1f6",
"`1 c #eff4f8",
"`2 c #e1e2e4",
"`3 c #fcfdfe",
"`4 c #141414",
"`5 c #cbdae9",
"`6 c #c6d7e6",
"`7 c #cbdae8",
"`8 c #cfddea",
".` c #d8e3ee",
".. c #dce6f0",
".# c #e0e9f2",
".a c #e5ecf3",
".b c #edf2f7",
".c c #161616",
".d c #dfe2e3",
".e c #fafcfd",
".f c #c4d5e6",
".g c #c9d8e7",
".h c #cddbe9",
".i c #d6e2ed",
".j c #dae5ef",
".k c #dee8f1",
".l c #e3ebf3",
".m c #dde0e2",
".n c #f8fafc",
".o c #fdfdfe",
".p c #101010",
".q c #6a7177",
".r c #616a73",
".s c #646c74",
".t c #666d75",
".u c #686f75",
".v c #6a7076",
".w c #6c7277",
".x c #6e7378",
".y c #717579",
".z c #73777a",
".A c #75787b",
".B c #0b0b0b",
".C c #6e6f71",
".D c #7b7d7e",
".E c #7e7e7f",
".F c #4c5b6a",
".G c #151515",
".H c #ccdbe8",
".I c #bccfe2",
".J c #bdd0e2",
".K c #bcd0e2",
".L c #bdcfe3",
".M c #bed1e3",
".N c #c0d2e4",
".O c #111315",
".P c #b2c1cf",
".Q c #c7d7e6",
".R c #c9d9e7",
".S c #9ab8d4",
".T c #191919",
".U c #d0ddec",
".V c #c3d4e5",
".W c #c8d7e7",
".X c #d0ddeb",
".Y c #d4e1ed",
".Z c #d9e4ee",
".0 c #dee7f0",
".1 c #eaf1f6",
".2 c #dce0e2",
".3 c #f8f9fc",
".4 c #f6f9fb",
".5 c #1d1d1d",
".6 c #c1d3e4",
".7 c #c4d5e5",
".8 c #e2eaf3",
"#` c #e6eef5",
"#. c #151616",
"## c #d9dde1",
"#a c #f4f7fa",
"#b c #f4f6f9",
"#c c #9bb7d4",
"#d c #212121",
"#e c #cddcea",
"#f c #dee8f0",
"#g c #e3eaf2",
"#h c #151516",
"#i c #d5dadf",
"#j c #f0f4f8",
"#k c #9cb9d4",
"#l c #262626",
"#m c #e1eaf3",
"#n c #bbcfe2",
"#o c #c0d2e3",
"#p c #d2dfeb",
"#q c #dfe8f1",
"#r c #141516",
"#s c #d1d9de",
"#t c #ecf1f7",
"#u c #a2bdd7",
"#v c #2a2a2a",
"#w c #b8cde0",
"#x c #c5d6e6",
"#y c #c9d9e8",
"#z c #d2dfec",
"#A c #d7e2ee",
"#B c #dbe5f0",
"#C c #cfd6dc",
"#D c #e8eff5",
"#E c #a8c1da",
"#F c #2e2e2e",
"#G c #edf3f7",
"#H c #b6cbe0",
"#I c #b8cce1",
"#J c #bdd0e3",
"#K c #cadae8",
"#L c #cbd2da",
"#M c #e7edf4",
"#N c #aec5dd",
"#O c #333333",
"#P c #d9e3ef",
"#Q c #131415",
"#R c #c4ced8",
"#S c #d8e3ed",
"#T c #b3c9de",
"#U c #363636",
"#V c #95979a",
"#W c #757f8a",
"#X c #747f89",
"#Y c #747e88",
"#Z c #747e87",
"#0 c #747d86",
"#1 c #757d85",
"#2 c #747b82",
"#3 c #747b81",
"#4 c #747a80",
"#5 c #747a7f",
"#6 c #0a0b0b",
"#7 c #6a6e71",
"#8 c #74777b",
"a` c #56626e",
"a. c #313131",
"a# c #f1f5f9",
"aa c #b1c7de",
"ab c #b8cce0",
"ac c #cad2da",
"ad c #e7eef5",
"ae c #afc6dd",
"af c #f3f7fa",
"ag c #b1c8de",
"ah c #b6cbdf",
"ai c #bacee1",
"aj c #c7d7e7",
"ak c #d4e0ec",
"al c #131515",
"am c #c8d1d9",
"an c #e1eaf2",
"ao c #adc5dc",
"ap c #c6cfd9",
"aq c #e4ebf3",
"ar c #383838",
"as c #f9fcfd",
"at c #b2c8de",
"au c #bbcee1",
"av c #bfd1e3",
"aw c #191b1c",
"ax c #060606",
"ay c #060607",
"az c #ced5dc",
"aA c #b9cde1",
"aB c #3b3b3b",
"aC c #aac3da",
"aD c #acc4db",
"aE c #c6d6e6",
"aF c #c4d3e2",
"aG c #c0cad2",
"aH c #3d3d3d",
"aI c #f9fafb",
"aJ c #e2ebf2",
"aK c #cfdbe6",
"aL c #b4c0cd",
"aM c #545454",
"aN c #3c3c3c",
"aO c #373737",
"aP c #080808",
"aQ c #000000",
"aR c #000000",
"aS c #000000",
"aT c #000000",
"aU c #000000",
"aV c #000000",
"aW c #000000",
"aX c #000000",
"aY c #000000",
"aZ c #000000",
"a0 c #000000",
"a1 c #000000",
"a2 c #000000",
"a3 c #000000",
"a4 c #000000",
"a5 c #000000",
"a6 c #000000",
"a7 c #000000",
"a8 c #000000",
/* pixels */
"```````.`#`a`a`a`a`a`a`a`a`a`a`a`a`a`a`a`b``````",
"```````c`d`e`f`g`h`i`j`k`l`m`n`o`p`m`m`q`a``````",
"```````r`s`t`u`v`w`x`y`z`A`B`C`a`a`D`E`m`a``````",
"```````F`G`H`I`J`K`L`M`N`O`P`Q`a`Q`Q`R`m`a``````",
"```````S`T`U`V`W`v`X`Y`y`Z`0`1`C`2`3`E`m`a``````",
"```````4`5`6`7`8`J.`...#.a`O.b.c.d.e`E`m`a``````",
"``````.c`I.f.g.h`W.i.j.k.l`Z`0.c.m.n.o`m`a``````",
"``````.p.q.r.s.t.u.v.w.x.y.z.A.B.C.D.E.F`a``````",
"``````.G.H.I.J.J.J.K.K.K.L.M.N.O.P.Q.R.S`a``````",
"``````.T.U.V.W`V.X.Y.Z.0`y`z.1.c.2.3.4`l`a``````",
"``````.5.i.6.7`U`V`u`v`X`Y.8#`#.###a#b#c`a``````",
"``````#d`L.M.N`G`T#e`W.i`X#f#g#h#i#j#j#k`a``````",
"``````#l#m#n.I#o.7.R.h#p.i.j#q#r#s#t.b#u`a``````",
"``````#v`Z`e#w.I.6#x#y`I#z#A#B#r#C#D`A#E`a``````",
"``````#F#G#H`f#I#J.6#x#K`I`J#A#r#L`N#M#N`a``````",
"``````#O#j#P.`.`.``K.`.`.`.``K#Q#R#S#S#T`a``````",
"``````#U#V#W#X#Y#Z#0#1#2#3#4#5#6#7#8.Aa``a``````",
"``````a.a#aa#Tab.I.N#x#y#e#p.i#rac.ladae`a``````",
"``````#Oafaeagahai.M.Vaj`5.Xakalaman`z#T`a``````",
"``````#U.4aoae`f#w.K.6#x#y`I#z#Qap#qaqah`a``````",
"``````aras`haoat#Hauav.V`Uawax`aayayazaA`a``````",
"``````aB.oaCaD`g`faA#J.6aEaF#Q`a`aaG`M.K`a``````",
"``````aHaI`3.n#a`1`0`ZaJ`Y`XaK#QaL`U.7.7`a``````",
"``````aMaNaO#O#F#v#l#d.5.T.G.p`raP`#`a`a`b``````"
};
