/* XPM */
static char *tweak_roughen_mode_xpm[] = {
/* width height num_colors chars_per_pixel */
"    16    16      256            2",
/* colors */
"`` c #e8e8e4",
"`. c #d1d1ce",
"`# c #aeaeab",
"`a c #181818",
"`b c #b6b6b3",
"`c c #d9d9d6",
"`d c #e2e2de",
"`e c #e3e3e0",
"`f c #838380",
"`g c #d6d6d2",
"`h c #bebebb",
"`i c #313131",
"`j c #5d5d5d",
"`k c #353535",
"`l c #5f5f5e",
"`m c #2d2d2d",
"`n c #c6c6c3",
"`o c #d7d7d3",
"`p c #adadaa",
"`q c #3b3b3b",
"`r c #bdbdba",
"`s c #2e2e2e",
"`t c #474746",
"`u c #353534",
"`v c #727272",
"`w c #777777",
"`x c #626262",
"`y c #535353",
"`z c #707070",
"`A c #bbbbb7",
"`B c #acaca9",
"`C c #373736",
"`D c #c4c4c0",
"`E c #d0d0cd",
"`F c #7d7d7d",
"`G c #313130",
"`H c #6e6e6e",
"`I c #565656",
"`J c #7e7e7e",
"`K c #888888",
"`L c #848484",
"`M c #3c3c3c",
"`N c #4d4d4c",
"`O c #868686",
"`P c #d3d3d0",
"`Q c #969696",
"`R c #dbdbd8",
"`S c #d7d7d4",
"`T c #a5a5a5",
"`U c #ddddda",
"`V c #b4b4b4",
"`W c #ababab",
"`X c #4c4c4c",
"`Y c #e0e0dc",
"`Z c #dadad7",
"`0 c #bfbfbf",
"`1 c #c1c1c1",
"`2 c #b6b6b6",
"`3 c #404040",
"`4 c #b1b1b1",
"`5 c #bababa",
"`6 c #dfdfdc",
"`7 c #c3c3bf",
"`8 c #494949",
".` c #454544",
".. c #888886",
".# c #717171",
".a c #8a8a8a",
".b c #555555",
".c c #6c6c6b",
".d c #b9b9b9",
".e c #818181",
".f c #303030",
".g c #5e5e5e",
".h c #4c4c4b",
".i c #e6e6e2",
".j c #939390",
".k c #c7c7c4",
".l c #777776",
".m c #595957",
".n c #9f9f9d",
".o c #dededa",
".p c #5e5e5d",
".q c #6c6c6a",
".r c #cacac6",
".s c #d9d9d5",
".t c #7f7f7d",
".u c #282828",
".v c #000000",
".w c #000000",
".x c #000000",
".y c #000000",
".z c #000000",
".A c #000000",
".B c #000000",
".C c #000000",
".D c #000000",
".E c #000000",
".F c #000000",
".G c #000000",
".H c #000000",
".I c #000000",
".J c #000000",
".K c #000000",
".L c #000000",
".M c #000000",
".N c #000000",
".O c #000000",
".P c #000000",
".Q c #000000",
".R c #000000",
".S c #000000",
".T c #000000",
".U c #000000",
".V c #000000",
".W c #000000",
".X c #000000",
".Y c #000000",
".Z c #000000",
".0 c #000000",
".1 c #000000",
".2 c #000000",
".3 c #000000",
".4 c #000000",
".5 c #000000",
".6 c #000000",
".7 c #000000",
".8 c #000000",
"#` c #000000",
"#. c #000000",
"## c #000000",
"#a c #000000",
"#b c #000000",
"#c c #000000",
"#d c #000000",
"#e c #000000",
"#f c #000000",
"#g c #000000",
"#h c #000000",
"#i c #000000",
"#j c #000000",
"#k c #000000",
"#l c #000000",
"#m c #000000",
"#n c #000000",
"#o c #000000",
"#p c #000000",
"#q c #000000",
"#r c #000000",
"#s c #000000",
"#t c #000000",
"#u c #000000",
"#v c #000000",
"#w c #000000",
"#x c #000000",
"#y c #000000",
"#z c #000000",
"#A c #000000",
"#B c #000000",
"#C c #000000",
"#D c #000000",
"#E c #000000",
"#F c #000000",
"#G c #000000",
"#H c #000000",
"#I c #000000",
"#J c #000000",
"#K c #000000",
"#L c #000000",
"#M c #000000",
"#N c #000000",
"#O c #000000",
"#P c #000000",
"#Q c #000000",
"#R c #000000",
"#S c #000000",
"#T c #000000",
"#U c #000000",
"#V c #000000",
"#W c #000000",
"#X c #000000",
"#Y c #000000",
"#Z c #000000",
"#0 c #000000",
"#1 c #000000",
"#2 c #000000",
"#3 c #000000",
"#4 c #000000",
"#5 c #000000",
"#6 c #000000",
"#7 c #000000",
"#8 c #000000",
"a` c #000000",
"a. c #000000",
"a# c #000000",
"aa c #000000",
"ab c #000000",
"ac c #000000",
"ad c #000000",
"ae c #000000",
"af c #000000",
"ag c #000000",
"ah c #000000",
"ai c #000000",
"aj c #000000",
"ak c #000000",
"al c #000000",
"am c #000000",
"an c #000000",
"ao c #000000",
"ap c #000000",
"aq c #000000",
"ar c #000000",
"as c #000000",
"at c #000000",
"au c #000000",
"av c #000000",
"aw c #000000",
"ax c #000000",
"ay c #000000",
"az c #000000",
"aA c #000000",
"aB c #000000",
"aC c #000000",
"aD c #000000",
"aE c #000000",
"aF c #000000",
"aG c #000000",
"aH c #000000",
"aI c #000000",
"aJ c #000000",
"aK c #000000",
"aL c #000000",
"aM c #000000",
"aN c #000000",
"aO c #000000",
"aP c #000000",
"aQ c #000000",
"aR c #000000",
"aS c #000000",
"aT c #000000",
"aU c #000000",
"aV c #000000",
"aW c #000000",
"aX c #000000",
"aY c #000000",
"aZ c #000000",
"a0 c #000000",
"a1 c #000000",
"a2 c #000000",
"a3 c #000000",
"a4 c #000000",
"a5 c #000000",
"a6 c #000000",
"a7 c #000000",
"a8 c #000000",
/* pixels */
"````````````````````````````````",
"````````````````````````````````",
"```````````````.````````````````",
"`````````````#`a`b```c``````````",
"`d`e```f`g`h`i`j`k`l`m`n`````o`d",
"`p`q`r`s`t`u`v`w`x`y`z`k`A`B`C`D",
"`E`F`G`H`I`J`K`K`K`K`K`L`M`N`O`c",
"`P`Q`Q`Q`Q`Q`Q`Q`Q`Q`Q`Q`Q`Q`Q`R",
"`S`T`T`T`T`T`T`T`T`T`T`T`T`T`T`U",
"`R`V`V`V`W`X`V`V`V`V`V`V`V`V`V`Y",
"`Z`0`1`2`3`M`1`1`1`1`4`1`1`1`5`6",
"`7`8`O.`...#.a.b.c.d.e.f`v.g.h`.",
"``.i.j.k.l.m.n.o`r.p`y`q.q.r````",
"````````````````````.s.t.u`Z````",
"````````````````````````````````",
"````````````````````````````````"
};
