/* XPM */
static char *tweak_attract_mode_xpm[] = {
/* width height num_colors chars_per_pixel */
"    16    16      256            2",
/* colors */
"`` c #e8e8e4",
"`. c #b4b4b0",
"`# c #575756",
"`a c #9f9f9c",
"`b c #e2e2de",
"`c c #dadad7",
"`d c #949492",
"`e c #51514f",
"`f c #c8c8c5",
"`g c #c4c4c1",
"`h c #505050",
"`i c #3e3e3e",
"`j c #353534",
"`k c #bebebb",
"`l c #a3a3a0",
"`m c #333333",
"`n c #3f3f3f",
"`o c #535353",
"`p c #d2d2ce",
"`q c #c9c9c6",
"`r c #7a7a7a",
"`s c #7c7c7c",
"`t c #767676",
"`u c #3c3c3b",
"`v c #80807e",
"`w c #e3e3df",
"`x c #5e5e5d",
"`y c #494949",
"`z c #7d7d7d",
"`A c #787878",
"`B c #d4d4d2",
"`C c #c5c5c1",
"`D c #50504f",
"`E c #424241",
"`F c #737373",
"`G c #979797",
"`H c #636363",
"`I c #414141",
"`J c #565655",
"`K c #525251",
"`L c #3f3f3e",
"`M c #747474",
"`N c #939393",
"`O c #464646",
"`P c #545453",
"`Q c #d3d3cf",
"`R c #777775",
"`S c #494948",
"`T c #838383",
"`U c #9d9d9d",
"`V c #a4a4a4",
"`W c #444444",
"`X c #bbbbb7",
"`Y c #dededa",
"`Z c #717170",
"`0 c #585857",
"`1 c #787876",
"`2 c #a2a29f",
"`3 c #e6e6e2",
"`4 c #8c8c8a",
"`5 c #696968",
"`6 c #555553",
"`7 c #70706f",
"`8 c #9b9b98",
".` c #e5e5e1",
".. c #e0e0dc",
".# c #71716f",
".a c #4b4b4b",
".b c #898989",
".c c #a3a3a3",
".d c #929292",
".e c #959595",
".f c #797979",
".g c #444443",
".h c #b5b5b2",
".i c #c3c3bf",
".j c #4e4e4d",
".k c #454544",
".l c #595959",
".m c #4a4a49",
".n c #7a7a78",
".o c #747472",
".p c #474746",
".q c #6d6d6d",
".r c #9b9b9b",
".s c #5a5a59",
".t c #50504e",
".u c #d1d1cf",
".v c #cececb",
".w c #888888",
".x c #7e7e7e",
".y c #3c3c3c",
".z c #797977",
".A c #858585",
".B c #868686",
".C c #d7d7d4",
".D c #cacac7",
".E c #656565",
".F c #4c4c4c",
".G c #414140",
".H c #cdcdc9",
".I c #b3b3b0",
".J c #353535",
".K c #686868",
".L c #d5d5d2",
".M c #b7b7b4",
".N c #626261",
".O c #a8a8a6",
".P c #5c5c5a",
".Q c #cbcbc7",
".R c #000000",
".S c #000000",
".T c #000000",
".U c #000000",
".V c #000000",
".W c #000000",
".X c #000000",
".Y c #000000",
".Z c #000000",
".0 c #000000",
".1 c #000000",
".2 c #000000",
".3 c #000000",
".4 c #000000",
".5 c #000000",
".6 c #000000",
".7 c #000000",
".8 c #000000",
"#` c #000000",
"#. c #000000",
"## c #000000",
"#a c #000000",
"#b c #000000",
"#c c #000000",
"#d c #000000",
"#e c #000000",
"#f c #000000",
"#g c #000000",
"#h c #000000",
"#i c #000000",
"#j c #000000",
"#k c #000000",
"#l c #000000",
"#m c #000000",
"#n c #000000",
"#o c #000000",
"#p c #000000",
"#q c #000000",
"#r c #000000",
"#s c #000000",
"#t c #000000",
"#u c #000000",
"#v c #000000",
"#w c #000000",
"#x c #000000",
"#y c #000000",
"#z c #000000",
"#A c #000000",
"#B c #000000",
"#C c #000000",
"#D c #000000",
"#E c #000000",
"#F c #000000",
"#G c #000000",
"#H c #000000",
"#I c #000000",
"#J c #000000",
"#K c #000000",
"#L c #000000",
"#M c #000000",
"#N c #000000",
"#O c #000000",
"#P c #000000",
"#Q c #000000",
"#R c #000000",
"#S c #000000",
"#T c #000000",
"#U c #000000",
"#V c #000000",
"#W c #000000",
"#X c #000000",
"#Y c #000000",
"#Z c #000000",
"#0 c #000000",
"#1 c #000000",
"#2 c #000000",
"#3 c #000000",
"#4 c #000000",
"#5 c #000000",
"#6 c #000000",
"#7 c #000000",
"#8 c #000000",
"a` c #000000",
"a. c #000000",
"a# c #000000",
"aa c #000000",
"ab c #000000",
"ac c #000000",
"ad c #000000",
"ae c #000000",
"af c #000000",
"ag c #000000",
"ah c #000000",
"ai c #000000",
"aj c #000000",
"ak c #000000",
"al c #000000",
"am c #000000",
"an c #000000",
"ao c #000000",
"ap c #000000",
"aq c #000000",
"ar c #000000",
"as c #000000",
"at c #000000",
"au c #000000",
"av c #000000",
"aw c #000000",
"ax c #000000",
"ay c #000000",
"az c #000000",
"aA c #000000",
"aB c #000000",
"aC c #000000",
"aD c #000000",
"aE c #000000",
"aF c #000000",
"aG c #000000",
"aH c #000000",
"aI c #000000",
"aJ c #000000",
"aK c #000000",
"aL c #000000",
"aM c #000000",
"aN c #000000",
"aO c #000000",
"aP c #000000",
"aQ c #000000",
"aR c #000000",
"aS c #000000",
"aT c #000000",
"aU c #000000",
"aV c #000000",
"aW c #000000",
"aX c #000000",
"aY c #000000",
"aZ c #000000",
"a0 c #000000",
"a1 c #000000",
"a2 c #000000",
"a3 c #000000",
"a4 c #000000",
"a5 c #000000",
"a6 c #000000",
"a7 c #000000",
"a8 c #000000",
/* pixels */
"````````````````````````````````",
"````````````````````````````````",
"`.`#`a`b`````````````````c`d`e`f",
"`g`h`i`j`k`````````````l`m`n`o`p",
"`q`r`s`t`u`v```````w`x`y`s`z`A`B",
"`C`D`E`F`G`H`I`J`K`L`M`N`o`O`P`Q",
"`````w`R`S`T`U`V`V`G`M`W`X``````",
"`````````Y`d`Z`#`0`1`2`3````````",
"`````````c`4`5`6`6`7`8.`````````",
"````...#.a.b.c.d.e`U.f.g.h``````",
".i.j.k`s`U.l.m.n.o.p.q.r.s.p.t.u",
".v.w.b.x.y`a````````.z.p.A.b.B.C",
".D.E.F.G.H````````````.I.J`h.K.L",
".M.N.O.``````````````````Y`a.P.Q",
"````````````````````````````````",
"````````````````````````````````"
};
