/* XPM */
static char *undo_icon_xpm[] = {
/* width height num_colors chars_per_pixel */
"    17    20      256            2",
/* colors */
"`` c #ffffff",
"`. c #e5d48f",
"`# c #d0b331",
"`a c #e4d38b",
"`b c #c4a000",
"`c c #c6a205",
"`d c #e3d388",
"`e c #caab1b",
"`f c #e1cc58",
"`g c #e2d285",
"`h c #caac1d",
"`i c #f5ecb1",
"`j c #f0e181",
"`k c #fdfdfb",
"`l c #e2cf82",
"`m c #c9aa17",
"`n c #f5edb3",
"`o c #fcf6cc",
"`p c #f4e890",
"`q c #c4a101",
"`r c #c6a306",
"`s c #d0b434",
"`t c #dfca73",
"`u c #f9f5e6",
"`v c #e0ce7f",
"`w c #c7a710",
"`x c #f6edb3",
"`y c #fbf5c3",
"`z c #f9f1ac",
"`A c #fcf6c9",
"`B c #f9f1b8",
"`C c #f1e591",
"`D c #e3cd4d",
"`E c #cfad11",
"`F c #c8a60e",
"`G c #ece0ac",
"`H c #e1cf7c",
"`I c #c6a50a",
"`J c #f5ecae",
"`K c #fbf6c7",
"`L c #f5e76f",
"`M c #f4e562",
"`N c #f3e255",
"`O c #f1df45",
"`P c #f4e462",
"`Q c #f9f0a3",
"`R c #f8f0a6",
"`S c #e0c839",
"`T c #ddc667",
"`U c #c6a407",
"`V c #f4e9a3",
"`W c #fbf5c6",
"`X c #f5e772",
"`Y c #f3e359",
"`Z c #f0da25",
"`0 c #edd400",
"`1 c #edd505",
"`2 c #faf2b1",
"`3 c #ecdb5c",
"`4 c #ebe0ab",
"`5 c #d3b841",
"`6 c #cca909",
"`7 c #f6ec97",
"`8 c #faf5c2",
".` c #f4e567",
".. c #f2e047",
".# c #edd402",
".a c #f1dd36",
".b c #f9f2af",
".c c #e2cb44",
".d c #c9a815",
".e c #fbfaf1",
".f c #f8f5e7",
".g c #cdae24",
".h c #cdac0a",
".i c #f6eb93",
".j c #faf3b7",
".k c #f0dc2d",
".l c #eed712",
".m c #efd816",
".n c #eed60a",
".o c #edd401",
".p c #f3e150",
".q c #f9f1ad",
".r c #ceae15",
".s c #e3d184",
".t c #faf5e8",
".u c #cdac0b",
".v c #f5e986",
".w c #f8ee99",
".x c #f6e97c",
".y c #faf2b2",
".z c #f9f2b0",
".A c #f9f0a5",
".B c #f5e66c",
".C c #f8ee9c",
".D c #e3ce59",
".E c #d6bd4e",
".F c #cdae25",
".G c #cead0d",
".H c #f5e98a",
".I c #f3e683",
".J c #ceb128",
".K c #d3b938",
".L c #dbc34c",
".M c #f2e695",
".N c #f9f1ae",
".O c #f1de3c",
".P c #f4e45e",
".Q c #eee18d",
".R c #cbac1e",
".S c #f9f6e9",
".T c #cead0f",
".U c #f6ea8e",
".V c #eedf75",
".W c #c4a103",
".X c #e8d89a",
".Y c #d9c461",
".Z c #c4a304",
".0 c #ebda73",
".1 c #f6ea85",
".2 c #f2e14d",
".3 c #f2e597",
".4 c #c6a308",
".5 c #cdaf26",
".6 c #cfad12",
".7 c #e8d553",
".8 c #e0cf7d",
"#` c #d6bb3b",
"#. c #f9f2b1",
"## c #f6e97d",
"#a c #eada84",
"#b c #d5bb47",
"#c c #cdaf27",
"#d c #c5a201",
"#e c #d4bb49",
"#f c #e0c955",
"#g c #f9f1b0",
"#h c #d1b737",
"#i c #e8da9e",
"#j c #f9f7ea",
"#k c #c5a207",
"#l c #dfcb76",
"#m c #c5a203",
"#n c #f3e685",
"#o c #f9f2b2",
"#p c #e4d062",
"#q c #c7a40a",
"#r c #faf7ec",
"#s c #dfcd7b",
"#t c #ceb02b",
"#u c #c7a405",
"#v c #e2c708",
"#w c #f7ec93",
"#x c #dbc13c",
"#y c #c7a40d",
"#z c #f2ebc9",
"#A c #e4d690",
"#B c #ceae25",
"#C c #d1b204",
"#D c #e1c500",
"#E c #dabd11",
"#F c #ceae18",
"#G c #c9a914",
"#H c #f4eed3",
"#I c #fffffe",
"#J c #f8f5e4",
"#K c #efe5b8",
"#L c #dfcc6f",
"#M c #d3b630",
"#N c #caa70a",
"#O c #c5a100",
"#P c #d0af00",
"#Q c #caa806",
"#R c #ceaf24",
"#S c #e2d080",
"#T c #f1e7bc",
"#U c #e8db97",
"#V c #e1cf78",
"#W c #dbc45c",
"#X c #d4bb43",
"#Y c #d2b73a",
"#Z c #f4efd5",
"#0 c #000000",
"#1 c #000000",
"#2 c #000000",
"#3 c #000000",
"#4 c #000000",
"#5 c #000000",
"#6 c #000000",
"#7 c #000000",
"#8 c #000000",
"a` c #000000",
"a. c #000000",
"a# c #000000",
"aa c #000000",
"ab c #000000",
"ac c #000000",
"ad c #000000",
"ae c #000000",
"af c #000000",
"ag c #000000",
"ah c #000000",
"ai c #000000",
"aj c #000000",
"ak c #000000",
"al c #000000",
"am c #000000",
"an c #000000",
"ao c #000000",
"ap c #000000",
"aq c #000000",
"ar c #000000",
"as c #000000",
"at c #000000",
"au c #000000",
"av c #000000",
"aw c #000000",
"ax c #000000",
"ay c #000000",
"az c #000000",
"aA c #000000",
"aB c #000000",
"aC c #000000",
"aD c #000000",
"aE c #000000",
"aF c #000000",
"aG c #000000",
"aH c #000000",
"aI c #000000",
"aJ c #000000",
"aK c #000000",
"aL c #000000",
"aM c #000000",
"aN c #000000",
"aO c #000000",
"aP c #000000",
"aQ c #000000",
"aR c #000000",
"aS c #000000",
"aT c #000000",
"aU c #000000",
"aV c #000000",
"aW c #000000",
"aX c #000000",
"aY c #000000",
"aZ c #000000",
"a0 c #000000",
"a1 c #000000",
"a2 c #000000",
"a3 c #000000",
"a4 c #000000",
"a5 c #000000",
"a6 c #000000",
"a7 c #000000",
"a8 c #000000",
/* pixels */
"```````````````.`#````````````````",
"`````````````a`b`c````````````````",
"```````````d`e`f`c````````````````",
"`````````g`h`i`j`c`k``````````````",
"```````l`m`n`o`p`q`r`s`t`u````````",
"`````v`w`x`y`z`A`B`C`D`E`F`G``````",
"```H`I`J`K`L`M`N`O`P`Q`R`S`q`T````",
"`v`U`V`W`X`Y`Z`0`0`0`1`P`2`3`q`4``",
"`5`6`7`8.`...#`0`0`0`0`0.a.b.c.d.e",
".f.g.h.i.j.k.l.m.n.o`0`0`0.p.q.r.s",
"``.t.g.u.v.w.x.y.y.z.A.B.m.#.C.D.E",
"````.t.F.G.H.y.I.J.K.L.M.N.O.P.Q.R",
"``````.S.F.T.U.V.W.X.Y.Z.0.1.2.3.4",
"````````.S.5.6.7`c````.8#`#.###a#b",
"``````````.S#c#d`c````#e#f.z#g#h#i",
"````````````#j#c#k`k#l#m#n#o#p#q#r",
"``````````````#r#s#t#u#v#w#x#y#z``",
"```````````u#A#B`b#C#D#E#F#G#H````",
"``#I#J#K#L#M#N#O#P#Q`b#R#S#J``````",
"````.S#T#U#V#W#X#Y`v#Z````````````"
};
