/* XPM */
static char *up_arrow_xpm[]={
/* CHUDEditorGUI_WxBitmapButton1 */
"20 20 246 2",
"      c None",
" 0    c #B6B6DB",
" 1    c #7C83CB",
" 2    c #4153C4",
" 3    c #535FCA",
" 4    c #C8C8DB",
" 5    c #BFBFBF",
" 6    c #7A86D1",
" 7    c #6A78D4",
" 8    c #7886DD",
" 9    c #7786DE",
" a    c #7787E0",
" b    c #7786DF",
" c    c #7786DD",
" d    c #727EDB",
" e    c #7A88CF",
" f    c #92A2CA",
" g    c #6A76D3",
" h    c #7E8BDF",
" i    c #9AA7EC",
" j    c #99A8ED",
" k    c #99A8EE",
" l    c #98A7EB",
" m    c #96A4E1",
" n    c #98A8ED",
" o    c #97A2EA",
" p    c #5866CC",
" q    c #5466C3",
" r    c #6271D8",
" s    c #8997E8",
" t    c #93A4F2",
" u    c #93A6F5",
" v    c #93A5F5",
" w    c #93A5F0",
" x    c #A4AAC5",
" y    c #C7C8D1",
" z    c #96A1D3",
" A    c #93A5F4",
" B    c #96A6EE",
" C    c #4356D2",
" D    c #1A2FC1",
" E    c #5D6DD9",
" F    c #8090E9",
" G    c #899CF3",
" H    c #899EF7",
" I    c #899EF6",
" J    c #8AA0F7",
" K    c #8A9CE4",
" L    c #BBBABA",
" M    c #FCFCFC",
" N    c #9A9EB2",
" O    c #899FF6",
" P    c #899DF4",
" Q    c #8D9EEF",
" R    c #4053D4",
" S    c #1D2FC4",
" T    c #5466D9",
" U    c #7183E8",
" V    c #7B90F4",
" W    c #7993F8",
" X    c #7994F8",
" Y    c #8393CC",
" Z    c #A1A5B5",
" &    c #F7F7F7",
"0     c #E6E6E6",
"00    c #8B97C6",
"01    c #7C93E9",
"02    c #7B90F5",
"03    c #7D91EF",
"04    c #394DD3",
"05    c #1A2CC4",
"06    c #485DD7",
"07    c #5C72E6",
"08    c #6482F1",
"09    c #6486F7",
"0a    c #778ACC",
"0b    c #D4D3D3",
"0c    c #E5E5E5",
"0d    c #B0B3C0",
"0e    c #6A87E8",
"0f    c #6582F2",
"0g    c #677FEC",
"0h    c #3246D3",
"0i    c #1A2CC7",
"0j    c #4458D7",
"0k    c #536BE5",
"0l    c #597CF1",
"0m    c #6283E6",
"0n    c #9BA1B4",
"0o    c #FDFDFD",
"0p    c #7B8DC5",
"0q    c #5A7DF1",
"0r    c #5C78EB",
"0s    c #2D43D2",
"0t    c #2C45D2",
"0u    c #2E4FDE",
"0v    c #5074DF",
"0w    c #B0B0B0",
"0x    c #EBEBEB",
"0y    c #F1F0F0",
"0z    c #E1E1E1",
"0A    c #FAFAFA",
"0B    c #DFDFDF",
"0C    c #6F80B7",
"0D    c #3B63E8",
"0E    c #1B33CC",
"0F    c #1529C4",
"0G    c #1731CB",
"0H    c #0027D5",
"0I    c #2958D0",
"0J    c #CCCCCC",
"0K    c #DCDCDC",
"0L    c #91A0B5",
"0M    c #EBEAEA",
"0N    c #C3C3C3",
"0O    c #C5C4C4",
"0P    c #F2F2F2",
"0Q    c #6D7DA1",
"0R    c #0036E1",
"0S    c #0A23CB",
"0T    c #1526CA",
"0U    c #1732CB",
"0V    c #002BD7",
"0W    c #0F53E2",
"0X    c #8396B4",
"0Y    c #BFC8D5",
"0Z    c #7FA1CB",
"0&    c #5A85BB",
"1     c #C5C5C5",
"10    c #6D93C1",
"11    c #A9B8CB",
"12    c #ABB7CB",
"13    c #3567C8",
"14    c #003DE2",
"15    c #0A24C8",
"16    c #1226C7",
"17    c #1733C8",
"18    c #0033D6",
"19    c #005AEC",
"1a    c #0669EE",
"1b    c #1774E7",
"1c    c #067BF2",
"1d    c #2D81D3",
"1e    c #C6C6C6",
"1f    c #0A7AEF",
"1g    c #1078EB",
"1h    c #106EE8",
"1i    c #005EF0",
"1j    c #0047E3",
"1k    c #0A25C7",
"1l    c #1226C4",
"1m    c #1734C8",
"1n    c #0036D6",
"1o    c #0060ED",
"1p    c #006FF4",
"1q    c #0177F8",
"1r    c #0082F7",
"1s    c #2E86D2",
"1t    c #0582F3",
"1u    c #007DF7",
"1v    c #0070F5",
"1w    c #0064F0",
"1x    c #004CE3",
"1y    c #0A26C7",
"1z    c #1526C4",
"1A    c #1835C8",
"1B    c #003BD4",
"1C    c #006CEF",
"1D    c #007BF6",
"1E    c #0086F7",
"1F    c #0092F8",
"1G    c #1C94E1",
"1H    c #D7D7D7",
"1I    c #F5F5F5",
"1J    c #B5B4B4",
"1K    c #0392F6",
"1L    c #008CF7",
"1M    c #007DF5",
"1N    c #0171F3",
"1O    c #0055E4",
"1P    c #0B26C6",
"1Q    c #1837C6",
"1R    c #003DD2",
"1S    c #0071EF",
"1T    c #027FF7",
"1U    c #0099F8",
"1V    c #089CF2",
"1W    c #B6B6B6",
"1X    c #DADADA",
"1Y    c #9E9D9D",
"1Z    c #0199F7",
"1&    c #0093F6",
"2     c #0083F6",
"20    c #0377F4",
"21    c #0159E4",
"22    c #0C26C3",
"23    c #1735C1",
"24    c #003CCD",
"25    c #0075ED",
"26    c #0086F3",
"27    c #0094F5",
"28    c #00A2F6",
"29    c #00A8F6",
"2a    c #1EA8E0",
"2b    c #2FA5D3",
"2c    c #0BA9EE",
"2d    c #00A3F6",
"2e    c #009BF5",
"2f    c #008AF3",
"2g    c #017BEF",
"2h    c #0159E0",
"2i    c #0A25BC",
"2j    c #0F26BC",
"2k    c #3747BF",
"2l    c #0426B8",
"2m    c #034AC5",
"2n    c #0457CD",
"2o    c #045FD0",
"2p    c #0467D2",
"2q    c #036BD2",
"2r    c #0371D3",
"2s    c #0471D2",
"2t    c #026ED2",
"2u    c #0367D2",
"2v    c #0463D0",
"2w    c #0358CD",
"2x    c #0250C9",
"2y    c #0234BA",
"2z    c #3745C1",
"2A    c #5D69C6",
"2B    c #6C77C9",
"2C    c #2F42C0",
"2D    c #1033B6",
"2E    c #1239BC",
"2F    c #113BBE",
"2G    c #123DC0",
"2H    c #113FC0",
"2I    c #1142BE",
"2J    c #1041BE",
"2K    c #113DBE",
"2L    c #103CBC",
"2M    c #1039BC",
"2N    c #1035BA",
"2O    c #1A31BA",
"2P    c #747DC8",
"2Q    c #A4A8CA",
"                                        ",
"     0 1 2 2 2 2 2 2 2 2 2 2 2 2 3 4 5  ",
"     6 7 8 9 a a a a a a a a b c d e f  ",
"     g h i j k k k l m n k k j i o p q  ",
"     r s t u v u w x y z u v A t B C D  ",
"     E F G H I J K L M N O I I P Q R S  ",
"     T U V W X Y Z &  0 0001 W02030405  ",
"    060708090a0b &      0c0d0e0f0g0h0i  ",
"    0j0k0l0m0n &        0o0c0p0q0r0s0i  ",
"    0t0u0v0w &  0x0y  0z0A  0B0C0D0E0F  ",
"    0G0H0I0J  0K0L0M  0N0O &0P0Q0R0S0T  ",
"    0U0V0W0X0Y0Z0&0M  1 10111213141516  ",
"    1718191a1b1c1d0x  1e1f1g1h1i1j1k1l  ",
"    1m1n1o1p1q1r1s0x  1e1t1u1v1w1x1y1z  ",
"    1A1B1C1D1E1F1G1H1I1J1K1L1M1N1O1P1z  ",
"    1Q1R1S1T1L1U1V1W1X1Y1Z1&2 2021221z  ",
"    232425262728292a2b2c2d2e2f2g2h2i2j  ",
"    2k2l2m2n2o2p2q2r2s2t2u2v2w2x2y2z2A  ",
"    2B2C2D2E2F2G2H2I2I2J2K2L2M2N2O2P2Q  ",
"                                        "};

