/* XPM */
static char *use3744_xpm[] = {
/* width height num_colors chars_per_pixel */
"    14    15      256            2",
/* colors */
"`` c #e8e8e4",
"`. c #b2b2af",
"`# c #2f3439",
"`a c #5e6265",
"`b c #d7d7d3",
"`c c #888a8a",
"`d c #7a94ac",
"`e c #a5d0f8",
"`f c #769cbf",
"`g c #343d45",
"`h c #787c7d",
"`i c #e3e3e0",
"`j c #5d6266",
"`k c #8fb2d1",
"`l c #96c7f2",
"`m c #77aad9",
"`n c #6492bd",
"`o c #72abdf",
"`p c #272f35",
"`q c #d3d3cf",
"`r c #48515a",
"`s c #99c0e4",
"`t c #7bb1e2",
"`u c #5587b4",
"`v c #151b21",
"`w c #4676a2",
"`x c #508dc5",
"`y c #333a40",
"`z c #b7b7b5",
"`A c #4b5c6a",
"`B c #95c0e8",
"`C c #5c97cd",
"`D c #38648d",
"`E c #282d31",
"`F c #3677b2",
"`G c #296093",
"`H c #5a6064",
"`I c #8a8d8d",
"`J c #5f788f",
"`K c #86b6e2",
"`L c #3a7cb8",
"`M c #234563",
"`N c #4c5256",
"`O c #e3e3df",
"`P c #232e37",
"`Q c #1860a1",
"`R c #0f3c65",
"`S c #949493",
"`T c #e4e4e0",
"`U c #585e61",
"`V c #7598b8",
"`W c #689fd1",
"`X c #1a5f9e",
"`Y c #182e41",
"`Z c #74787a",
"`0 c #d4d4d0",
"`1 c #172c3f",
"`2 c #004c91",
"`3 c #142f49",
"`4 c #c2c2be",
"`5 c #d5d5d1",
"`6 c #3b454c",
"`7 c #81abd2",
"`8 c #3c7cb6",
".` c #014d91",
".. c #17568f",
".# c #374d62",
".a c #6e7375",
".b c #e2e2de",
".c c #a7a7a5",
".d c #093256",
".e c #1a2834",
".f c #e5e5e1",
".g c #05080c",
".h c #154673",
".i c #1f65a4",
".j c #004583",
".k c #05325a",
".l c #0a5395",
".m c #4d8cc5",
".n c #4d84b5",
".o c #273a4b",
".p c #393d3f",
".q c #003a6f",
".r c #262f37",
".s c #636361",
".t c #020a11",
".u c #061d32",
".v c #1f282f",
".w c #7e8181",
".x c #1c262f",
".y c #053764",
".z c #0c569a",
".A c #2e71af",
".B c #06345c",
".C c #00488a",
".D c #004482",
".E c #454c52",
".F c #cececa",
".G c #464645",
".H c #050505",
".I c #60605f",
".J c #cdcdca",
".K c #6c7073",
".L c #182632",
".M c #013c72",
".N c #003667",
".O c #7f8282",
".P c #babab6",
".Q c #393938",
".R c #0d0d0d",
".S c #7c7c7a",
".T c #cececb",
".U c #444a4d",
".V c #06345e",
".W c #0f3251",
".X c #b3b3b0",
".Y c #a0a09d",
".Z c #232322",
".0 c #1c1c1c",
".1 c #5d5f5f",
".2 c #013463",
".3 c #192b3b",
".4 c #ddddd9",
".5 c #858583",
".6 c #0b0e10",
".7 c #051423",
".8 c #00407a",
"#` c #232e38",
"#. c #d9d9d6",
"## c #5e5e5d",
"#a c #02090f",
"#b c #151a1e",
"#c c #dcdcd8",
"#d c #000000",
"#e c #000000",
"#f c #000000",
"#g c #000000",
"#h c #000000",
"#i c #000000",
"#j c #000000",
"#k c #000000",
"#l c #000000",
"#m c #000000",
"#n c #000000",
"#o c #000000",
"#p c #000000",
"#q c #000000",
"#r c #000000",
"#s c #000000",
"#t c #000000",
"#u c #000000",
"#v c #000000",
"#w c #000000",
"#x c #000000",
"#y c #000000",
"#z c #000000",
"#A c #000000",
"#B c #000000",
"#C c #000000",
"#D c #000000",
"#E c #000000",
"#F c #000000",
"#G c #000000",
"#H c #000000",
"#I c #000000",
"#J c #000000",
"#K c #000000",
"#L c #000000",
"#M c #000000",
"#N c #000000",
"#O c #000000",
"#P c #000000",
"#Q c #000000",
"#R c #000000",
"#S c #000000",
"#T c #000000",
"#U c #000000",
"#V c #000000",
"#W c #000000",
"#X c #000000",
"#Y c #000000",
"#Z c #000000",
"#0 c #000000",
"#1 c #000000",
"#2 c #000000",
"#3 c #000000",
"#4 c #000000",
"#5 c #000000",
"#6 c #000000",
"#7 c #000000",
"#8 c #000000",
"a` c #000000",
"a. c #000000",
"a# c #000000",
"aa c #000000",
"ab c #000000",
"ac c #000000",
"ad c #000000",
"ae c #000000",
"af c #000000",
"ag c #000000",
"ah c #000000",
"ai c #000000",
"aj c #000000",
"ak c #000000",
"al c #000000",
"am c #000000",
"an c #000000",
"ao c #000000",
"ap c #000000",
"aq c #000000",
"ar c #000000",
"as c #000000",
"at c #000000",
"au c #000000",
"av c #000000",
"aw c #000000",
"ax c #000000",
"ay c #000000",
"az c #000000",
"aA c #000000",
"aB c #000000",
"aC c #000000",
"aD c #000000",
"aE c #000000",
"aF c #000000",
"aG c #000000",
"aH c #000000",
"aI c #000000",
"aJ c #000000",
"aK c #000000",
"aL c #000000",
"aM c #000000",
"aN c #000000",
"aO c #000000",
"aP c #000000",
"aQ c #000000",
"aR c #000000",
"aS c #000000",
"aT c #000000",
"aU c #000000",
"aV c #000000",
"aW c #000000",
"aX c #000000",
"aY c #000000",
"aZ c #000000",
"a0 c #000000",
"a1 c #000000",
"a2 c #000000",
"a3 c #000000",
"a4 c #000000",
"a5 c #000000",
"a6 c #000000",
"a7 c #000000",
"a8 c #000000",
/* pixels */
"```````````````````.`#`a`b``",
"`````````````````c`d`e`f`g`h",
"`````````````i`j`k`l`m`n`o`p",
"```````````q`r`s`t`u`v`w`x`y",
"`````````z`A`B`C`D`y`E`F`G`H",
"```````I`J`K`L`M`N`O`P`Q`R`S",
"```T`U`V`W`X`Y`Z```0`1`2`3`4",
"`5`6`7`8.`...#.a.b.c.d`2.e.f",
".g.h.i.j.k.l.m.n.o.p.q`2.r``",
".s.t.u.v.w.x.y.z.A.B.C.D.E``",
"``.F.G.H.I.J.K.L.M`2`2.N.O``",
"``````.P.Q.R.S.T.U.V`2.W.X``",
"``````````.Y.Z.0.1.2`2.3.4``",
"`````````````i.5.6.7.8#`````",
"````````````````#.###a#b#c``"
};
