/* XPM */
static char *view_icon_preview_xpm[] = {
/* width height num_colors chars_per_pixel */
"    16    16      256            2",
/* colors */
"`` c #1d1d1c",
"`. c #000000",
"`# c #1a1b1b",
"`a c #f0f4f8",
"`b c #e5edf4",
"`c c #dbe5ef",
"`d c #d0ddeb",
"`e c #c5d6e6",
"`f c #bacee1",
"`g c #b0c7dd",
"`h c #a5bfd8",
"`i c #9ab7d4",
"`j c #98b6d3",
"`k c #0b0b0b",
"`l c #08090a",
"`m c #f7f5f0",
"`n c #7d7c79",
"`o c #f4f2ed",
"`p c #f0eee9",
"`q c #edebe7",
"`r c #e9e8e3",
"`s c #e7e5e0",
"`t c #e3e2dd",
"`u c #fffdf8",
"`v c #bbbab6",
"`w c #7e7d7b",
"`x c #2e2e2d",
"`y c #f9f7f2",
"`z c #f6f4ef",
"`A c #6d6c6a",
"`B c #ebe9e4",
"`C c #e8e6e1",
"`D c #323231",
"`E c #fdfbf6",
"`F c #f6f5f0",
"`G c #b0afab",
"`H c #595957",
"`I c #eceae5",
"`J c #e8e7e2",
"`K c #e5e3de",
"`L c #6a6967",
"`M c #d0ceca",
"`N c #fbf9f4",
"`O c #363635",
"`P c #403f3f",
"`Q c #2f2e2e",
"`R c #2a2a2a",
"`S c #a3a2a0",
"`T c #666664",
"`U c #cecdc8",
"`V c #cfcec9",
"`W c #7e7d7a",
"`X c #e2e1dc",
"`Y c #d8d6d2",
"`Z c #828282",
"`0 c #bcbcbc",
"`1 c #868686",
"`2 c #3c3c3c",
"`3 c #7f7f7f",
"`4 c #d8d8d8",
"`5 c #424241",
"`6 c #2c2c2b",
"`7 c #b4b3af",
"`8 c #e0ded9",
".` c #d1cfcb",
".. c #333332",
".# c #dedede",
".a c #fefefe",
".b c #6d6d6d",
".c c #dfdfdf",
".d c #282828",
".e c #151515",
".f c #8d8d8d",
".g c #ababab",
".h c #2a2929",
".i c #b8b6b2",
".j c #dddcd7",
".k c #474745",
".l c #9b9b9b",
".m c #f9f9f9",
".n c #e7e7e7",
".o c #232323",
".p c #1c1c1c",
".q c #101010",
".r c #080808",
".s c #4a4a4a",
".t c #b6b6b6",
".u c #838383",
".v c #1f1e1e",
".w c #d8d7d2",
".x c #edebe6",
".y c #3c3b3b",
".z c #e1e1e1",
".A c #515151",
".B c #0c0c0c",
".C c #040404",
".D c #9e9e9e",
".E c #272727",
".F c #adada9",
".G c #efeee9",
".H c #41403f",
".I c #646463",
".J c #909090",
".K c #5f5f5f",
".L c #383838",
".M c #727272",
".N c #818181",
".O c #2d2d2c",
".P c #a09f9c",
".Q c #d9d7d2",
".R c #d5d4cf",
".S c #fcfaf5",
".T c #eeede8",
".U c #9c9a97",
".V c #595857",
".W c #292928",
".X c #2e2e2e",
".Y c #a8a8a4",
".Z c #dad8d3",
".0 c #d6d5d0",
".1 c #d3d1cc",
".2 c #eae8e4",
".3 c #e4e2dd",
".4 c #e0dfda",
".5 c #dddbd7",
".6 c #d9d9d4",
".7 c #cbc9c5",
".8 c #d3d2cd",
"#` c #d0cfca",
"#. c #cccbc7",
"## c #cac9c4",
"#a c #c6c5c0",
"#b c #c3c2bd",
"#c c #2c2b2b",
"#d c #0e0e0e",
"#e c #0e0e0d",
"#f c #0d0d0d",
"#g c #2a2a29",
"#h c #000000",
"#i c #000000",
"#j c #000000",
"#k c #000000",
"#l c #000000",
"#m c #000000",
"#n c #000000",
"#o c #000000",
"#p c #000000",
"#q c #000000",
"#r c #000000",
"#s c #000000",
"#t c #000000",
"#u c #000000",
"#v c #000000",
"#w c #000000",
"#x c #000000",
"#y c #000000",
"#z c #000000",
"#A c #000000",
"#B c #000000",
"#C c #000000",
"#D c #000000",
"#E c #000000",
"#F c #000000",
"#G c #000000",
"#H c #000000",
"#I c #000000",
"#J c #000000",
"#K c #000000",
"#L c #000000",
"#M c #000000",
"#N c #000000",
"#O c #000000",
"#P c #000000",
"#Q c #000000",
"#R c #000000",
"#S c #000000",
"#T c #000000",
"#U c #000000",
"#V c #000000",
"#W c #000000",
"#X c #000000",
"#Y c #000000",
"#Z c #000000",
"#0 c #000000",
"#1 c #000000",
"#2 c #000000",
"#3 c #000000",
"#4 c #000000",
"#5 c #000000",
"#6 c #000000",
"#7 c #000000",
"#8 c #000000",
"a` c #000000",
"a. c #000000",
"a# c #000000",
"aa c #000000",
"ab c #000000",
"ac c #000000",
"ad c #000000",
"ae c #000000",
"af c #000000",
"ag c #000000",
"ah c #000000",
"ai c #000000",
"aj c #000000",
"ak c #000000",
"al c #000000",
"am c #000000",
"an c #000000",
"ao c #000000",
"ap c #000000",
"aq c #000000",
"ar c #000000",
"as c #000000",
"at c #000000",
"au c #000000",
"av c #000000",
"aw c #000000",
"ax c #000000",
"ay c #000000",
"az c #000000",
"aA c #000000",
"aB c #000000",
"aC c #000000",
"aD c #000000",
"aE c #000000",
"aF c #000000",
"aG c #000000",
"aH c #000000",
"aI c #000000",
"aJ c #000000",
"aK c #000000",
"aL c #000000",
"aM c #000000",
"aN c #000000",
"aO c #000000",
"aP c #000000",
"aQ c #000000",
"aR c #000000",
"aS c #000000",
"aT c #000000",
"aU c #000000",
"aV c #000000",
"aW c #000000",
"aX c #000000",
"aY c #000000",
"aZ c #000000",
"a0 c #000000",
"a1 c #000000",
"a2 c #000000",
"a3 c #000000",
"a4 c #000000",
"a5 c #000000",
"a6 c #000000",
"a7 c #000000",
"a8 c #000000",
/* pixels */
"```.`.`.`.`.`.`.`.`.`.`.`.`.`.`#",
"`.`a`b`c`d`e`f`g`h`i`j`j`j`j`j`.",
"`.`a`b`c`d`e`f`g`h`i`j`j`j`j`j`.",
"`k`.`.`.`.`.`.`.`.`.`.`.`.`.`.`l",
"`.`m`m`m`m`m`m`m`n`o`p`q`r`s`t`.",
"`.`u`u`u`v`w`u`u`x`y`z`A`B`B`C`.",
"`.`u`u`u`o`D`u`E`x`F`G`H`I`J`K`.",
"`.`u`L`M`N`O`P`Q`R`S`T`U`V`W`X`.",
"`.`u`Y`x`O`Z`0`1`2`3`4`5`6`7`8`.",
"`.`u.`...#.a.b.c.d.e.f.g.h.i.j`.",
"`.`u.k.l.m.n.o.p.q.r.s.t.u.v.w`.",
"`.`u.x.y.l.z.A.B.C`..u.D.E.F.w`.",
"`.`u`u.G.H.I.J.K.L.M.N.O.P.Q.R`.",
"`.`u.S`y.T.U.V.W.X.E.V.Y.Z.0.1`.",
"`.`q.2`s.3.4.5.6.7.8#`#.###a#b`.",
"#c#d#d#d#d#e#e#e#f#f#f#f#f#f#f#g"
};
