/* XPM */
static char *view_new_xpm[] = {
/* width height num_colors chars_per_pixel */
"    16    16      256            2",
/* colors */
"`` c #e8e8e4",
"`. c #1d1d1c",
"`# c #000000",
"`a c #1a1b1b",
"`b c #f0f4f8",
"`c c #e4ecf3",
"`d c #d9e4ef",
"`e c #cedcea",
"`f c #c3d4e5",
"`g c #b7cce0",
"`h c #acc4db",
"`i c #a1bcd6",
"`j c #98b6d3",
"`k c #e8ecf0",
"`l c #dde5eb",
"`m c #d2dde8",
"`n c #c8d5e3",
"`o c #bdcdde",
"`p c #b1c6d9",
"`q c #a7bed4",
"`r c #9cb6cf",
"`s c #93b0cc",
"`t c #0c0c0c",
"`u c #030303",
"`v c #020303",
"`w c #020203",
"`x c #090a0b",
"`y c #fffdf8",
"`z c #fcfaf5",
"`A c #f8f6f1",
"`B c #f5f3ee",
"`C c #f1efea",
"`D c #f4f2ed",
"`E c #edebe6",
"`F c #1b1c1c",
"`G c #f0efea",
"`H c #e9e7e2",
"`I c #ecf2f7",
"`J c #dee7f0",
"`K c #cfddea",
"`L c #c0d2e4",
"`M c #b1c8de",
"`N c #a3bdd7",
"`O c #f0eee9",
"`P c #ecebe6",
"`Q c #e5e3de",
"`R c #e5eaef",
"`S c #d7e0e8",
"`T c #c9d6e3",
"`U c #bacbdd",
"`V c #abc2d7",
"`W c #9eb7d0",
"`X c #eceae5",
"`Y c #e8e7e2",
"`Z c #e4e3de",
"`0 c #e1dfda",
"`1 c #0b0b0b",
"`2 c #040404",
"`3 c #030304",
"`4 c #070809",
"`5 c #e8e6e1",
"`6 c #e0dfda",
"`7 c #dddbd6",
"`8 c #faf8f3",
".` c #ebe9e4",
".. c #e6e4df",
".# c #e4e2dd",
".a c #dcdbd6",
".b c #d9d8d3",
".c c #f5f4ef",
".d c #e7e5e0",
".e c #e2e0db",
".f c #e0ded9",
".g c #d8d7d2",
".h c #d5d4cf",
".i c #fbf9f4",
".j c #f6f4ef",
".k c #e7e6e1",
".l c #e2e1dc",
".m c #dddcd7",
".n c #dcdad5",
".o c #d4d3ce",
".p c #d1d0cb",
".q c #f7f5f0",
".r c #f2f0eb",
".s c #e3e2dd",
".t c #deddd8",
".u c #1b1b1b",
".v c #fdfbf6",
".w c #f3f1ec",
".x c #eeece7",
".y c #dfddd8",
".z c #dad9d4",
".A c #000000",
".B c #000000",
".C c #000000",
".D c #000000",
".E c #000000",
".F c #000000",
".G c #000000",
".H c #000000",
".I c #000000",
".J c #000000",
".K c #000000",
".L c #000000",
".M c #000000",
".N c #000000",
".O c #000000",
".P c #000000",
".Q c #000000",
".R c #000000",
".S c #000000",
".T c #000000",
".U c #000000",
".V c #000000",
".W c #000000",
".X c #000000",
".Y c #000000",
".Z c #000000",
".0 c #000000",
".1 c #000000",
".2 c #000000",
".3 c #000000",
".4 c #000000",
".5 c #000000",
".6 c #000000",
".7 c #000000",
".8 c #000000",
"#` c #000000",
"#. c #000000",
"## c #000000",
"#a c #000000",
"#b c #000000",
"#c c #000000",
"#d c #000000",
"#e c #000000",
"#f c #000000",
"#g c #000000",
"#h c #000000",
"#i c #000000",
"#j c #000000",
"#k c #000000",
"#l c #000000",
"#m c #000000",
"#n c #000000",
"#o c #000000",
"#p c #000000",
"#q c #000000",
"#r c #000000",
"#s c #000000",
"#t c #000000",
"#u c #000000",
"#v c #000000",
"#w c #000000",
"#x c #000000",
"#y c #000000",
"#z c #000000",
"#A c #000000",
"#B c #000000",
"#C c #000000",
"#D c #000000",
"#E c #000000",
"#F c #000000",
"#G c #000000",
"#H c #000000",
"#I c #000000",
"#J c #000000",
"#K c #000000",
"#L c #000000",
"#M c #000000",
"#N c #000000",
"#O c #000000",
"#P c #000000",
"#Q c #000000",
"#R c #000000",
"#S c #000000",
"#T c #000000",
"#U c #000000",
"#V c #000000",
"#W c #000000",
"#X c #000000",
"#Y c #000000",
"#Z c #000000",
"#0 c #000000",
"#1 c #000000",
"#2 c #000000",
"#3 c #000000",
"#4 c #000000",
"#5 c #000000",
"#6 c #000000",
"#7 c #000000",
"#8 c #000000",
"a` c #000000",
"a. c #000000",
"a# c #000000",
"aa c #000000",
"ab c #000000",
"ac c #000000",
"ad c #000000",
"ae c #000000",
"af c #000000",
"ag c #000000",
"ah c #000000",
"ai c #000000",
"aj c #000000",
"ak c #000000",
"al c #000000",
"am c #000000",
"an c #000000",
"ao c #000000",
"ap c #000000",
"aq c #000000",
"ar c #000000",
"as c #000000",
"at c #000000",
"au c #000000",
"av c #000000",
"aw c #000000",
"ax c #000000",
"ay c #000000",
"az c #000000",
"aA c #000000",
"aB c #000000",
"aC c #000000",
"aD c #000000",
"aE c #000000",
"aF c #000000",
"aG c #000000",
"aH c #000000",
"aI c #000000",
"aJ c #000000",
"aK c #000000",
"aL c #000000",
"aM c #000000",
"aN c #000000",
"aO c #000000",
"aP c #000000",
"aQ c #000000",
"aR c #000000",
"aS c #000000",
"aT c #000000",
"aU c #000000",
"aV c #000000",
"aW c #000000",
"aX c #000000",
"aY c #000000",
"aZ c #000000",
"a0 c #000000",
"a1 c #000000",
"a2 c #000000",
"a3 c #000000",
"a4 c #000000",
"a5 c #000000",
"a6 c #000000",
"a7 c #000000",
"a8 c #000000",
/* pixels */
"`````.`#`#`#`#`#`#`#`#`#`#`#`#`a",
"`````#`b`c`d`e`f`g`h`i`j`j`j`j`#",
"`````#`k`l`m`n`o`p`q`r`s`s`s`s`#",
"`````t`u`u`u`u`u`v`v`v`w`w`w`w`x",
"`````#`y`y`y`y`y`y`y`y`z`A`B`C`#",
"`````#`y`y`y`y`y`y`y`z`A`D`C`E`#",
"`.`#`#`#`#`#`#`#`#`#`F`D`G`E`H`#",
"`#`I`J`K`L`M`N`j`j`j`#`O`P`H`Q`#",
"`#`R`S`T`U`V`W`s`s`s`#`X`Y`Z`0`#",
"`1`2`u`3`u`u`u`v`v`v`4`5`Z`6`7`#",
"`#`y`y`y`y`8`B`O.`..`#.#`6.a.b`#",
"`#`y`y`y`8.c`C`X.d.e`#.f.a.g.h`#",
"`#`y`y.i.j`C`P.k.l.m`#.n.g.o.p`#",
"`#`y`z.q.r`E`5.s.t.b`#`#`#`#`#.u",
"`#.v`A.w.x`H.#.y.z.h`#``````````",
"`.`#`#`#`#`#`#`#`#`#.u``````````"
};
