/* XPM */
static char *visible_xpm[] = {
/* width height num_colors chars_per_pixel */
"    12    12      256            2",
/* colors */
"`` c #e8e8e4",
"`. c #757573",
"`# c #a9a9a6",
"`a c #737371",
"`b c #2b2b2a",
"`c c #6d6d6b",
"`d c #e4e4e0",
"`e c #ddddd9",
"`f c #2e2e2e",
"`g c #acaca9",
"`h c #565654",
"`i c #656563",
"`j c #bfbfbc",
"`k c #e5e5e1",
"`l c #323231",
"`m c #434343",
"`n c #2d2d2d",
"`o c #212121",
"`p c #9b9b9a",
"`q c #5f5f5d",
"`r c #c9c9c6",
"`s c #cfcfcc",
"`t c #838381",
"`u c #c5c5c1",
"`v c #363635",
"`w c #828281",
"`x c #bdbdbd",
"`y c #838383",
"`z c #3b3b3b",
"`A c #7f7f7f",
"`B c #d8d8d8",
"`C c #434342",
"`D c #b8b8b5",
"`E c #bebebb",
"`F c #2c2c2c",
"`G c #dfdfdf",
"`H c #fefefe",
"`I c #6c6c6c",
"`J c #282828",
"`K c #151515",
"`L c #8d8d8d",
"`M c #a8a8a8",
"`N c #272727",
"`O c #bdbdba",
"`P c #424241",
"`Q c #949494",
"`R c #f9f9f9",
"`S c #e9e9e9",
"`T c #232323",
"`U c #1c1c1c",
"`V c #101010",
"`W c #080808",
"`X c #4a4a4a",
"`Y c #b6b6b6",
"`Z c #7e7e7e",
"`0 c #20201f",
"`1 c #d9d9d5",
"`2 c #393939",
"`3 c #999999",
"`4 c #e1e1e1",
"`5 c #525252",
"`6 c #0c0c0c",
"`7 c #040404",
"`8 c #000000",
".` c #9d9d9d",
".. c #272726",
".# c #dededa",
".a c #414140",
".b c #646464",
".c c #909090",
".d c #5c5c5c",
".e c #333333",
".f c #717171",
".g c #818181",
".h c #a8a8a6",
".i c #e3e3df",
".j c #959593",
".k c #545452",
".l c #252524",
".m c #242424",
".n c #585857",
".o c #b0b0ad",
".p c #d5d5d1",
".q c #000000",
".r c #000000",
".s c #000000",
".t c #000000",
".u c #000000",
".v c #000000",
".w c #000000",
".x c #000000",
".y c #000000",
".z c #000000",
".A c #000000",
".B c #000000",
".C c #000000",
".D c #000000",
".E c #000000",
".F c #000000",
".G c #000000",
".H c #000000",
".I c #000000",
".J c #000000",
".K c #000000",
".L c #000000",
".M c #000000",
".N c #000000",
".O c #000000",
".P c #000000",
".Q c #000000",
".R c #000000",
".S c #000000",
".T c #000000",
".U c #000000",
".V c #000000",
".W c #000000",
".X c #000000",
".Y c #000000",
".Z c #000000",
".0 c #000000",
".1 c #000000",
".2 c #000000",
".3 c #000000",
".4 c #000000",
".5 c #000000",
".6 c #000000",
".7 c #000000",
".8 c #000000",
"#` c #000000",
"#. c #000000",
"## c #000000",
"#a c #000000",
"#b c #000000",
"#c c #000000",
"#d c #000000",
"#e c #000000",
"#f c #000000",
"#g c #000000",
"#h c #000000",
"#i c #000000",
"#j c #000000",
"#k c #000000",
"#l c #000000",
"#m c #000000",
"#n c #000000",
"#o c #000000",
"#p c #000000",
"#q c #000000",
"#r c #000000",
"#s c #000000",
"#t c #000000",
"#u c #000000",
"#v c #000000",
"#w c #000000",
"#x c #000000",
"#y c #000000",
"#z c #000000",
"#A c #000000",
"#B c #000000",
"#C c #000000",
"#D c #000000",
"#E c #000000",
"#F c #000000",
"#G c #000000",
"#H c #000000",
"#I c #000000",
"#J c #000000",
"#K c #000000",
"#L c #000000",
"#M c #000000",
"#N c #000000",
"#O c #000000",
"#P c #000000",
"#Q c #000000",
"#R c #000000",
"#S c #000000",
"#T c #000000",
"#U c #000000",
"#V c #000000",
"#W c #000000",
"#X c #000000",
"#Y c #000000",
"#Z c #000000",
"#0 c #000000",
"#1 c #000000",
"#2 c #000000",
"#3 c #000000",
"#4 c #000000",
"#5 c #000000",
"#6 c #000000",
"#7 c #000000",
"#8 c #000000",
"a` c #000000",
"a. c #000000",
"a# c #000000",
"aa c #000000",
"ab c #000000",
"ac c #000000",
"ad c #000000",
"ae c #000000",
"af c #000000",
"ag c #000000",
"ah c #000000",
"ai c #000000",
"aj c #000000",
"ak c #000000",
"al c #000000",
"am c #000000",
"an c #000000",
"ao c #000000",
"ap c #000000",
"aq c #000000",
"ar c #000000",
"as c #000000",
"at c #000000",
"au c #000000",
"av c #000000",
"aw c #000000",
"ax c #000000",
"ay c #000000",
"az c #000000",
"aA c #000000",
"aB c #000000",
"aC c #000000",
"aD c #000000",
"aE c #000000",
"aF c #000000",
"aG c #000000",
"aH c #000000",
"aI c #000000",
"aJ c #000000",
"aK c #000000",
"aL c #000000",
"aM c #000000",
"aN c #000000",
"aO c #000000",
"aP c #000000",
"aQ c #000000",
"aR c #000000",
"aS c #000000",
"aT c #000000",
"aU c #000000",
"aV c #000000",
"aW c #000000",
"aX c #000000",
"aY c #000000",
"aZ c #000000",
"a0 c #000000",
"a1 c #000000",
"a2 c #000000",
"a3 c #000000",
"a4 c #000000",
"a5 c #000000",
"a6 c #000000",
"a7 c #000000",
"a8 c #000000",
/* pixels */
"`````````````.``````````",
"`````#`a`````b`````c`d``",
"`````e`f`````b```g`h````",
"`i`j`k`l`m`n`o`p`q`r`s`t",
"`u`b`v`w`x`y`z`A`B`C`n`D",
"`E`F`G`H`I`G`J`K`L`M`N`O",
"`P`Q`R`S`T`U`V`W`X`Y`Z`0",
"`1`2`3`4`5`6`7`8`y.`..`D",
"``.#.a.b.c.d.e.f.g`F.h``",
"````.i.j.k.l`f.m.n.o````",
"````````````.p``````````",
"````````````````````````"
};
