/* XPM */
static char *window_next_xpm[] = {
/* width height num_colors chars_per_pixel */
"    16    16      256            2",
/* colors */
"`` c #1d1d1c",
"`. c #000000",
"`# c #1a1b1b",
"`a c #f0f4f8",
"`b c #e5edf4",
"`c c #dbe5ef",
"`d c #d0ddeb",
"`e c #c5d6e6",
"`f c #bacee1",
"`g c #b0c7dd",
"`h c #a5bfd8",
"`i c #9ab7d4",
"`j c #98b6d3",
"`k c #0b0b0b",
"`l c #08090a",
"`m c #f7f5f0",
"`n c #f4f2ed",
"`o c #f0eee9",
"`p c #edebe7",
"`q c #e9e8e3",
"`r c #e7e5e0",
"`s c #e3e2dd",
"`t c #fffdf8",
"`u c #7a786f",
"`v c #a9a8a3",
"`w c #f6f4ef",
"`x c #f2f0eb",
"`y c #efede8",
"`z c #484847",
"`A c #e8e6e1",
"`B c #3f3f3f",
"`C c #686036",
"`D c #5d5b51",
"`E c #d3d1cd",
"`F c #efeee9",
"`G c #eceae5",
"`H c #1a1a1a",
"`I c #e5e4df",
"`J c #fefcf7",
"`K c #303030",
"`L c #fdd300",
"`M c #9f8712",
"`N c #2d2a23",
"`O c #8a8883",
"`P c #e6e5e0",
"`Q c #e2e1dc",
"`R c #fcfaf5",
"`S c #212121",
"`T c #ffd400",
"`U c #ddb802",
"`V c #443c13",
"`W c #343228",
"`X c #e0ded9",
"`Y c #fcfbf6",
"`Z c #f9f7f2",
"`0 c #121212",
"`1 c #ffe461",
"`2 c #fffbeb",
"`3 c #484014",
"`4 c #dddcd7",
"`5 c #fdfbf6",
"`6 c #faf8f3",
"`7 c #f6f5f0",
"`8 c #020202",
".` c #ffd817",
".. c #fff2b2",
".# c #f8f2d2",
".a c #5e5838",
".b c #37352c",
".c c #dbd9d4",
".d c #fbf9f4",
".e c #010101",
".f c #fffae1",
".g c #c8bd89",
".h c #191810",
".i c #83817d",
".j c #deddd8",
".k c #d8d7d2",
".l c #f8f6f1",
".m c #f5f3ee",
".n c #f1efea",
".o c #3e3615",
".p c #3d3a30",
".q c #c6c5c0",
".r c #dcdbd6",
".s c #d5d4cf",
".t c #47453a",
".u c #8b8985",
".v c #e1dfda",
".w c #dad8d3",
".x c #282827",
".y c #d3d2cd",
".z c #f3f1ec",
".A c #e9e7e2",
".B c #e2e0db",
".C c #d7d6d1",
".D c #d4d2cd",
".E c #d0cfca",
".F c #1b1b1b",
".G c #000000",
".H c #000000",
".I c #000000",
".J c #000000",
".K c #000000",
".L c #000000",
".M c #000000",
".N c #000000",
".O c #000000",
".P c #000000",
".Q c #000000",
".R c #000000",
".S c #000000",
".T c #000000",
".U c #000000",
".V c #000000",
".W c #000000",
".X c #000000",
".Y c #000000",
".Z c #000000",
".0 c #000000",
".1 c #000000",
".2 c #000000",
".3 c #000000",
".4 c #000000",
".5 c #000000",
".6 c #000000",
".7 c #000000",
".8 c #000000",
"#` c #000000",
"#. c #000000",
"## c #000000",
"#a c #000000",
"#b c #000000",
"#c c #000000",
"#d c #000000",
"#e c #000000",
"#f c #000000",
"#g c #000000",
"#h c #000000",
"#i c #000000",
"#j c #000000",
"#k c #000000",
"#l c #000000",
"#m c #000000",
"#n c #000000",
"#o c #000000",
"#p c #000000",
"#q c #000000",
"#r c #000000",
"#s c #000000",
"#t c #000000",
"#u c #000000",
"#v c #000000",
"#w c #000000",
"#x c #000000",
"#y c #000000",
"#z c #000000",
"#A c #000000",
"#B c #000000",
"#C c #000000",
"#D c #000000",
"#E c #000000",
"#F c #000000",
"#G c #000000",
"#H c #000000",
"#I c #000000",
"#J c #000000",
"#K c #000000",
"#L c #000000",
"#M c #000000",
"#N c #000000",
"#O c #000000",
"#P c #000000",
"#Q c #000000",
"#R c #000000",
"#S c #000000",
"#T c #000000",
"#U c #000000",
"#V c #000000",
"#W c #000000",
"#X c #000000",
"#Y c #000000",
"#Z c #000000",
"#0 c #000000",
"#1 c #000000",
"#2 c #000000",
"#3 c #000000",
"#4 c #000000",
"#5 c #000000",
"#6 c #000000",
"#7 c #000000",
"#8 c #000000",
"a` c #000000",
"a. c #000000",
"a# c #000000",
"aa c #000000",
"ab c #000000",
"ac c #000000",
"ad c #000000",
"ae c #000000",
"af c #000000",
"ag c #000000",
"ah c #000000",
"ai c #000000",
"aj c #000000",
"ak c #000000",
"al c #000000",
"am c #000000",
"an c #000000",
"ao c #000000",
"ap c #000000",
"aq c #000000",
"ar c #000000",
"as c #000000",
"at c #000000",
"au c #000000",
"av c #000000",
"aw c #000000",
"ax c #000000",
"ay c #000000",
"az c #000000",
"aA c #000000",
"aB c #000000",
"aC c #000000",
"aD c #000000",
"aE c #000000",
"aF c #000000",
"aG c #000000",
"aH c #000000",
"aI c #000000",
"aJ c #000000",
"aK c #000000",
"aL c #000000",
"aM c #000000",
"aN c #000000",
"aO c #000000",
"aP c #000000",
"aQ c #000000",
"aR c #000000",
"aS c #000000",
"aT c #000000",
"aU c #000000",
"aV c #000000",
"aW c #000000",
"aX c #000000",
"aY c #000000",
"aZ c #000000",
"a0 c #000000",
"a1 c #000000",
"a2 c #000000",
"a3 c #000000",
"a4 c #000000",
"a5 c #000000",
"a6 c #000000",
"a7 c #000000",
"a8 c #000000",
/* pixels */
"```.`.`.`.`.`.`.`.`.`.`.`.`.`.`#",
"`.`a`b`c`d`e`f`g`h`i`j`j`j`j`j`.",
"`.`a`b`c`d`e`f`g`h`i`j`j`j`j`j`.",
"`k`.`.`.`.`.`.`.`.`.`.`.`.`.`.`l",
"`.`m`m`m`m`m`m`m`m`n`o`p`q`r`s`.",
"`.`t`t`t`t`t`t`u`v`m`w`x`y`z`A`.",
"`.`t`t`t`t`t`t`B`C`D`E`F`G`H`I`.",
"`.`t`t`t`t`t`J`K`L`M`N`O`P`k`Q`.",
"`.`t`t`t`t`t`R`S`T`T`U`V`W`.`X`.",
"`.`t`t`t`t`Y`Z`0`T`T`1`2`3`.`4`.",
"`.`t`t`t`5`6`7`8.`...#.a.b`..c`.",
"`.`t`t`J.d`m`n.e.f.g.h.i.j`..k`.",
"`.`t`t`R.l.m.n`..o.p.q`X.r`..s`.",
"`.`t`Y`Z`w`x`y.t.u`s.v`4.w.x.y`.",
"`.`5`6`7.z`F`G.A`I.B.j.c.C.D.E`.",
"```.`.`.`.`.`.`.`.`.`.`.`.`.`..F"
};
