/* XPM */
static char *wrap_loop_icon[] = {
/* width height num_colors chars_per_pixel */
"    23    16      256            2",
/* colors */
"`` c #ffffff",
"`. c #e5e5e5",
"`# c #7c7c7c",
"`a c #1d211d",
"`b c #515351",
"`c c #c0c0c0",
"`d c #454545",
"`e c #5e5e5e",
"`f c #f1f1f1",
"`g c #bababa",
"`h c #4f4d4d",
"`i c #2d2828",
"`j c #8d8d8d",
"`k c #f0f0f0",
"`l c #fbfbfb",
"`m c #1a1d1a",
"`n c #061305",
"`o c #0c5e00",
"`p c #0a3005",
"`q c #000000",
"`r c #b9b9b9",
"`s c #333333",
"`t c #030303",
"`u c #1b1b1b",
"`v c #9a9a9a",
"`w c #b0b0b0",
"`x c #340404",
"`y c #580000",
"`z c #0b0404",
"`A c #413e3e",
"`B c #acacac",
"`C c #17b700",
"`D c #1bd400",
"`E c #093404",
"`F c #494b49",
"`G c #313131",
"`H c #090909",
"`I c #1e1e1e",
"`J c #8a8a8a",
"`K c #2b2828",
"`L c #420202",
"`M c #d40000",
"`N c #a00000",
"`O c #d5d5d5",
"`P c #6f6f6f",
"`Q c #051c03",
"`R c #0e6e00",
"`S c #0b0d0b",
"`T c #2e2e2e",
"`U c #020000",
"`V c #740000",
"`W c #cd0000",
"`X c #030101",
"`Y c #a0a0a0",
"`Z c #6c6c6c",
"`0 c #14a000",
"`1 c #1acd00",
"`2 c #082405",
"`3 c #5f5f5f",
"`4 c #2c2c2c",
"`5 c #141414",
"`6 c #545454",
"`7 c #cecece",
"`8 c #525151",
".` c #260404",
".. c #c40000",
".# c #d30000",
".a c #020101",
".b c #c7c7c7",
".c c #050505",
".d c #111411",
".e c #010101",
".f c #093603",
".g c #040f04",
".h c #060706",
".i c #cfcfcf",
".j c #2a2a2a",
".k c #131313",
".l c #393939",
".m c #d8d8d8",
".n c #d3d3d3",
".o c #110e0e",
".p c #070303",
".q c #1e0606",
".r c #0e0d0d",
".s c #383838",
".t c #7a7a7a",
".u c #e1e1e1",
".v c #505150",
".w c #838383",
".x c #e8e8e8",
".y c #b3b3b3",
".z c #f5f5f5",
".A c #777777",
".B c #a7a7a7",
".C c #afafaf",
".D c #343434",
".E c #484848",
".F c #fefefe",
".G c #232323",
".H c #5a5a5a",
".I c #161616",
".J c #6e6e6e",
".K c #595959",
".L c #070707",
".M c #797979",
".N c #2f2f2f",
".O c #4e4e4e",
".P c #171717",
".Q c #f8f8f8",
".R c #404040",
".S c #323232",
".T c #cacaca",
".U c #909090",
".V c #dadada",
".W c #898989",
".X c #525252",
".Y c #969696",
".Z c #eeeeee",
".0 c #353535",
".1 c #0a0a0a",
".2 c #ebebeb",
".3 c #f4f4f4",
".4 c #151515",
".5 c #4c4c4c",
".6 c #696969",
".7 c #6b6b6b",
".8 c #6d6d6d",
"#` c #717171",
"#. c #737373",
"## c #757575",
"#a c #7b7b7b",
"#b c #7d7d7d",
"#c c #7e7e7e",
"#d c #585858",
"#e c #bbbbbb",
"#f c #a2a2a2",
"#g c #616161",
"#h c #2d2d2d",
"#i c #181818",
"#j c #101010",
"#k c #0e0e0e",
"#l c #0b0b0b",
"#m c #080808",
"#n c #060606",
"#o c #242424",
"#p c #636363",
"#q c #cccccc",
"#r c #000000",
"#s c #000000",
"#t c #000000",
"#u c #000000",
"#v c #000000",
"#w c #000000",
"#x c #000000",
"#y c #000000",
"#z c #000000",
"#A c #000000",
"#B c #000000",
"#C c #000000",
"#D c #000000",
"#E c #000000",
"#F c #000000",
"#G c #000000",
"#H c #000000",
"#I c #000000",
"#J c #000000",
"#K c #000000",
"#L c #000000",
"#M c #000000",
"#N c #000000",
"#O c #000000",
"#P c #000000",
"#Q c #000000",
"#R c #000000",
"#S c #000000",
"#T c #000000",
"#U c #000000",
"#V c #000000",
"#W c #000000",
"#X c #000000",
"#Y c #000000",
"#Z c #000000",
"#0 c #000000",
"#1 c #000000",
"#2 c #000000",
"#3 c #000000",
"#4 c #000000",
"#5 c #000000",
"#6 c #000000",
"#7 c #000000",
"#8 c #000000",
"a` c #000000",
"a. c #000000",
"a# c #000000",
"aa c #000000",
"ab c #000000",
"ac c #000000",
"ad c #000000",
"ae c #000000",
"af c #000000",
"ag c #000000",
"ah c #000000",
"ai c #000000",
"aj c #000000",
"ak c #000000",
"al c #000000",
"am c #000000",
"an c #000000",
"ao c #000000",
"ap c #000000",
"aq c #000000",
"ar c #000000",
"as c #000000",
"at c #000000",
"au c #000000",
"av c #000000",
"aw c #000000",
"ax c #000000",
"ay c #000000",
"az c #000000",
"aA c #000000",
"aB c #000000",
"aC c #000000",
"aD c #000000",
"aE c #000000",
"aF c #000000",
"aG c #000000",
"aH c #000000",
"aI c #000000",
"aJ c #000000",
"aK c #000000",
"aL c #000000",
"aM c #000000",
"aN c #000000",
"aO c #000000",
"aP c #000000",
"aQ c #000000",
"aR c #000000",
"aS c #000000",
"aT c #000000",
"aU c #000000",
"aV c #000000",
"aW c #000000",
"aX c #000000",
"aY c #000000",
"aZ c #000000",
"a0 c #000000",
"a1 c #000000",
"a2 c #000000",
"a3 c #000000",
"a4 c #000000",
"a5 c #000000",
"a6 c #000000",
"a7 c #000000",
"a8 c #000000",
/* pixels */
"`````.`#`a`b`c`````d`e`f`````````g`h`i`j`k````",
"```l`m`n`o`p`q`r```s`t`u`v`````w`q`x`y`z`A````",
"```B`q`C`D`D`E`F```G`q`q`H`I`J`K`L`M`M`N`q`O``",
"```P`Q`D`D`D`R`S```T`q`q`q`q`q`U`V`M`M`W`X`Y``",
"```Z`q`0`D`1`2`3```4`q`q`5`6`7`8.`...#`V.a.b``",
"`..c.d.e.f.g.h.i``.j.k.l.m````.n.o.p.q`q.r.s``",
".t.c.u`B.v.w.x`````3.y``````````.z`v.A.m.B`q.C",
".D.E````````````````````````````````````.F.G.H",
".I.J``````````````````````````````````````.K.j",
".L.t``````````````````````````````````````.M.L",
".N.O```````````````````````````````````````Z.P",
"`3.P.Q````````````````````````````````````.R.S",
".T`q.U``````````````````````````````````.V.e.W",
"``.X.c.Y``````````````````````````````.Z.0.1.2",
"``.3.X`q.4.5.6.7.8`P#`#.##.A.M#a#b#c#d.I.1#e``",
"````.F#f#g#h`I`u#i.I.k#j#k#l#m#n`t.e#o#p#q````"
};
