/* XPM */
static char *writing_mode_tb_xpm[] = {
/* width height num_colors chars_per_pixel */
"    24    24      256            2",
/* colors */
"`` c #e8e8e4",
"`. c #000000",
"`# c #ffffff",
"`a c #d9d9d5",
"`b c #e0e0dc",
"`c c #e2e1e1",
"`d c #a0a0a0",
"`e c #dfdede",
"`f c #e3e2e2",
"`g c #e4e3e3",
"`h c #e5e4e4",
"`i c #e6e5e5",
"`j c #a3a2a2",
"`k c #e9e8e8",
"`l c #eae9e9",
"`m c #eaeaea",
"`n c #ebebeb",
"`o c #ececec",
"`p c #ededed",
"`q c #eeeded",
"`r c #efeeee",
"`s c #5e5e5e",
"`t c #e7e6e6",
"`u c #e1e1e1",
"`v c #8e8e8e",
"`w c #535353",
"`x c #515151",
"`y c #8b8b8b",
"`z c #f0efef",
"`A c #e0dfdf",
"`B c #e8e7e7",
"`C c #999999",
"`D c #676767",
"`E c #c9c9c9",
"`F c #cccbcb",
"`G c #6c6c6c",
"`H c #959595",
"`I c #f1f0f0",
"`J c #e1e0e0",
"`K c #e6e6e6",
"`L c #4d4d4d",
"`M c #cacaca",
"`N c #d2d2d2",
"`O c #484848",
"`P c #e7e7e7",
"`Q c #3c3c3c",
"`R c #909090",
"`S c #939393",
"`T c #949393",
"`U c #949494",
"`V c #3b3b3b",
"`W c #e8e8e8",
"`X c #919090",
"`Y c #959494",
"`Z c #e9e9e9",
"`0 c #3d3d3d",
"`1 c #f2f1f1",
"`2 c #f2f2f2",
"`3 c #eeeeee",
"`4 c #5f5f5f",
"`5 c #414141",
"`6 c #ecebeb",
"`7 c #f3f3f3",
"`8 c #f0f0f0",
".` c #ebeaea",
".. c #dcdbdb",
".# c #a9a9a9",
".a c #f1f1f1",
".b c #dfdfdf",
".c c #f6f6f6",
".d c #f7f7f7",
".e c #f4f4f4",
".f c #f8f8f8",
".g c #edecec",
".h c #f5f5f5",
".i c #f9f8f8",
".j c #faf9f9",
".k c #f4f3f3",
".l c #fafafa",
".m c #efefef",
".n c #f5f4f4",
".o c #fbfbfb",
".p c #a6a6a6",
".q c #a4a3a3",
".r c #5c5c5c",
".s c #a5a5a5",
".t c #a8a8a8",
".u c #ababab",
".v c #aaaaaa",
".w c #f9f9f9",
".x c #5a5a5a",
".y c #acabab",
".z c #a7a7a7",
".A c #acacac",
".B c #fefefe",
".C c #adadad",
".D c #000000",
".E c #000000",
".F c #000000",
".G c #000000",
".H c #000000",
".I c #000000",
".J c #000000",
".K c #000000",
".L c #000000",
".M c #000000",
".N c #000000",
".O c #000000",
".P c #000000",
".Q c #000000",
".R c #000000",
".S c #000000",
".T c #000000",
".U c #000000",
".V c #000000",
".W c #000000",
".X c #000000",
".Y c #000000",
".Z c #000000",
".0 c #000000",
".1 c #000000",
".2 c #000000",
".3 c #000000",
".4 c #000000",
".5 c #000000",
".6 c #000000",
".7 c #000000",
".8 c #000000",
"#` c #000000",
"#. c #000000",
"## c #000000",
"#a c #000000",
"#b c #000000",
"#c c #000000",
"#d c #000000",
"#e c #000000",
"#f c #000000",
"#g c #000000",
"#h c #000000",
"#i c #000000",
"#j c #000000",
"#k c #000000",
"#l c #000000",
"#m c #000000",
"#n c #000000",
"#o c #000000",
"#p c #000000",
"#q c #000000",
"#r c #000000",
"#s c #000000",
"#t c #000000",
"#u c #000000",
"#v c #000000",
"#w c #000000",
"#x c #000000",
"#y c #000000",
"#z c #000000",
"#A c #000000",
"#B c #000000",
"#C c #000000",
"#D c #000000",
"#E c #000000",
"#F c #000000",
"#G c #000000",
"#H c #000000",
"#I c #000000",
"#J c #000000",
"#K c #000000",
"#L c #000000",
"#M c #000000",
"#N c #000000",
"#O c #000000",
"#P c #000000",
"#Q c #000000",
"#R c #000000",
"#S c #000000",
"#T c #000000",
"#U c #000000",
"#V c #000000",
"#W c #000000",
"#X c #000000",
"#Y c #000000",
"#Z c #000000",
"#0 c #000000",
"#1 c #000000",
"#2 c #000000",
"#3 c #000000",
"#4 c #000000",
"#5 c #000000",
"#6 c #000000",
"#7 c #000000",
"#8 c #000000",
"a` c #000000",
"a. c #000000",
"a# c #000000",
"aa c #000000",
"ab c #000000",
"ac c #000000",
"ad c #000000",
"ae c #000000",
"af c #000000",
"ag c #000000",
"ah c #000000",
"ai c #000000",
"aj c #000000",
"ak c #000000",
"al c #000000",
"am c #000000",
"an c #000000",
"ao c #000000",
"ap c #000000",
"aq c #000000",
"ar c #000000",
"as c #000000",
"at c #000000",
"au c #000000",
"av c #000000",
"aw c #000000",
"ax c #000000",
"ay c #000000",
"az c #000000",
"aA c #000000",
"aB c #000000",
"aC c #000000",
"aD c #000000",
"aE c #000000",
"aF c #000000",
"aG c #000000",
"aH c #000000",
"aI c #000000",
"aJ c #000000",
"aK c #000000",
"aL c #000000",
"aM c #000000",
"aN c #000000",
"aO c #000000",
"aP c #000000",
"aQ c #000000",
"aR c #000000",
"aS c #000000",
"aT c #000000",
"aU c #000000",
"aV c #000000",
"aW c #000000",
"aX c #000000",
"aY c #000000",
"aZ c #000000",
"a0 c #000000",
"a1 c #000000",
"a2 c #000000",
"a3 c #000000",
"a4 c #000000",
"a5 c #000000",
"a6 c #000000",
"a7 c #000000",
"a8 c #000000",
/* pixels */
"```.`.`.`.`.`.`.`.`.`.`.`.`.`.`.`.`.`.`.`.``````",
"`.`#`#`#`#`#`#`#`#`#`#`#`#`#`#`#`#`#`#`#`#`.`a`b",
"`.`#`c`c`c`d`e`f`g`h`i`j`h`k`l`m`n`o`p`q`r`.`a`a",
"`.`#`c`c`c`s`e`g`h`i`t`s`h`l`u`v`w`x`y`g`z`.`a`a",
"`.`#`c`c`c`s`A`h`i`t`B`s`i`m`C`D`E`F`G`H`I`.`a`a",
"`.`#`c`c`f`s`J`i`t`B`k`s`K`n`L`M`q`r`N`O`z`.`a`a",
"`.`#`c`f`g`s`c`t`B`k`l`s`P`o`Q`R`S`T`U`V`o`.`a`a",
"`.`#`f`g`h`s`f`B`k`l`m`s`W`p`Q`X`T`U`Y`V`p`.`a`a",
"`.`#`g`h`i`s`g`k`l`m`n`s`Z`q`0`m`I`1`2`0`3`.`a`a",
"`.`#`h`i`t`s`h`l`m`n`o`4`l`r`5`6`1`2`7`5`8`.`a`a",
"`.`#`i`t`B`s`i`m`n`o`p`4.``z..`1`2.#.a.b.c`.`a`a",
"`.`#`t`B`k`s`K`n`o`p`q`4`n`I`1`2`7`4`8.c.d`.`a`a",
"`.`#`B`k`l`s`P`o`p`q`r`4`6`1`2`7.e`4.a.d.f`.`a`a",
"`.`#`k`l`m`s`W`p`q`r`z`4.g`2`7.e.h`4`2.f.i`.`a`a",
"`.`#`l`m`n`s`Z`q`r`z`I`4`p`7.e.h.c`4`7.i.j`.`a`a",
"`.`#`m`n`o`4`l`r`z`I`1`4`3.e.h.c.d`4.k.j.l`.`a`a",
"`.`#`n`o`p`4.``z`I`1`2`4.m.h.c.d.f`4.n.l.o`.`a`a",
"`.`#`o.p.q.r`j.s`r.t.p.r.s.t.e.u.#.r.t.v.w`.`a`a",
"`.`#`p.p.r.x.x.q.m.#.r.x.x.p.h.y.r.x.x.#.l`.`a`a",
"`.`#`q`r.z.r.q.m`7.e.v.r.p.h.i.j.A.r.#.l.B`.`a`a",
"`.`#`r`z`I.t.m`7.e.h.c.u.h.i.j.l.o.C.l.B`#`.`a`a",
"```.`.`.`.`.`.`.`.`.`.`.`.`.`.`.`.`.`.`.`.`a`a`a",
"```a`a`a`a`a`a`a`a`a`a`a`a`a`a`a`a`a`a`a`a`a`a`b",
"```b`a`a`a`a`a`a`a`a`a`a`a`a`a`a`a`a`a`a`a`a`b``"
};
