/* XPM */
static char *xml_editor_xpm[] = {
/* width height num_colors chars_per_pixel */
"    16    16      256            2",
/* colors */
"`` c #1d1d1c",
"`. c #000000",
"`# c #1a1b1b",
"`a c #f0f4f8",
"`b c #e5edf4",
"`c c #dbe5ef",
"`d c #d0ddeb",
"`e c #c5d6e6",
"`f c #bacee1",
"`g c #b0c7dd",
"`h c #a5bfd8",
"`i c #9ab7d4",
"`j c #98b6d3",
"`k c #0b0b0b",
"`l c #08090a",
"`m c #f7f5f0",
"`n c #f4f2ed",
"`o c #f0eee9",
"`p c #edebe7",
"`q c #e9e8e3",
"`r c #e7e5e0",
"`s c #e3e2dd",
"`t c #fffdf8",
"`u c #dddbd7",
"`v c #fcfbf6",
"`w c #d5d3cf",
"`x c #f6f4ef",
"`y c #f2f0eb",
"`z c #efede8",
"`A c #ebe9e4",
"`B c #e8e6e1",
"`C c #fdfbf6",
"`D c #9c9b99",
"`E c #4c4c4b",
"`F c #e9e7e3",
"`G c #e6e5e0",
"`H c #3b3b3b",
"`I c #878684",
"`J c #ecebe6",
"`K c #eceae5",
"`L c #e9e7e2",
"`M c #e5e4df",
"`N c #747472",
"`O c #706f6e",
"`P c #ebe9e5",
"`Q c #fbf9f4",
"`R c #e0deda",
"`S c #555554",
"`T c #504f4e",
"`U c #d3d2ce",
"`V c #e6e4df",
"`W c #e2e1dc",
"`X c #d0cfcb",
"`Y c #5e5e5d",
"`Z c #a1a09e",
"`0 c #fcfaf5",
"`1 c #f8f6f1",
"`2 c #f5f3ee",
"`3 c #f1efea",
"`4 c #81807e",
"`5 c #292928",
"`6 c #aaa9a5",
"`7 c #e0ded9",
"`8 c #faf9f4",
".` c #f9f7f2",
".. c #807f7c",
".# c #282828",
".a c #a8a7a3",
".b c #dddcd7",
".c c #747372",
".d c #6e6d6c",
".e c #e4e3de",
".f c #f3f1ec",
".g c #efeee9",
".h c #d9d7d3",
".i c #535352",
".j c #4e4d4c",
".k c #cdcbc7",
".l c #deddd8",
".m c #dbd9d4",
".n c #fefcf7",
".o c #989795",
".p c #4b4b4a",
".q c #ddddd8",
".r c #3a3a39",
".s c #dfded9",
".t c #dbdad5",
".u c #d8d7d2",
".v c #d1d0cc",
".w c #eeece7",
".x c #eae9e4",
".y c #c6c4c0",
".z c #dcdbd6",
".A c #d9d8d3",
".B c #d5d4cf",
".C c #e1dfda",
".D c #dad8d3",
".E c #d6d5d0",
".F c #d3d2cd",
".G c #faf8f3",
".H c #f6f5f0",
".I c #e2e0db",
".J c #d7d6d1",
".K c #d4d2cd",
".L c #d0cfca",
".M c #1b1b1b",
".N c #000000",
".O c #000000",
".P c #000000",
".Q c #000000",
".R c #000000",
".S c #000000",
".T c #000000",
".U c #000000",
".V c #000000",
".W c #000000",
".X c #000000",
".Y c #000000",
".Z c #000000",
".0 c #000000",
".1 c #000000",
".2 c #000000",
".3 c #000000",
".4 c #000000",
".5 c #000000",
".6 c #000000",
".7 c #000000",
".8 c #000000",
"#` c #000000",
"#. c #000000",
"## c #000000",
"#a c #000000",
"#b c #000000",
"#c c #000000",
"#d c #000000",
"#e c #000000",
"#f c #000000",
"#g c #000000",
"#h c #000000",
"#i c #000000",
"#j c #000000",
"#k c #000000",
"#l c #000000",
"#m c #000000",
"#n c #000000",
"#o c #000000",
"#p c #000000",
"#q c #000000",
"#r c #000000",
"#s c #000000",
"#t c #000000",
"#u c #000000",
"#v c #000000",
"#w c #000000",
"#x c #000000",
"#y c #000000",
"#z c #000000",
"#A c #000000",
"#B c #000000",
"#C c #000000",
"#D c #000000",
"#E c #000000",
"#F c #000000",
"#G c #000000",
"#H c #000000",
"#I c #000000",
"#J c #000000",
"#K c #000000",
"#L c #000000",
"#M c #000000",
"#N c #000000",
"#O c #000000",
"#P c #000000",
"#Q c #000000",
"#R c #000000",
"#S c #000000",
"#T c #000000",
"#U c #000000",
"#V c #000000",
"#W c #000000",
"#X c #000000",
"#Y c #000000",
"#Z c #000000",
"#0 c #000000",
"#1 c #000000",
"#2 c #000000",
"#3 c #000000",
"#4 c #000000",
"#5 c #000000",
"#6 c #000000",
"#7 c #000000",
"#8 c #000000",
"a` c #000000",
"a. c #000000",
"a# c #000000",
"aa c #000000",
"ab c #000000",
"ac c #000000",
"ad c #000000",
"ae c #000000",
"af c #000000",
"ag c #000000",
"ah c #000000",
"ai c #000000",
"aj c #000000",
"ak c #000000",
"al c #000000",
"am c #000000",
"an c #000000",
"ao c #000000",
"ap c #000000",
"aq c #000000",
"ar c #000000",
"as c #000000",
"at c #000000",
"au c #000000",
"av c #000000",
"aw c #000000",
"ax c #000000",
"ay c #000000",
"az c #000000",
"aA c #000000",
"aB c #000000",
"aC c #000000",
"aD c #000000",
"aE c #000000",
"aF c #000000",
"aG c #000000",
"aH c #000000",
"aI c #000000",
"aJ c #000000",
"aK c #000000",
"aL c #000000",
"aM c #000000",
"aN c #000000",
"aO c #000000",
"aP c #000000",
"aQ c #000000",
"aR c #000000",
"aS c #000000",
"aT c #000000",
"aU c #000000",
"aV c #000000",
"aW c #000000",
"aX c #000000",
"aY c #000000",
"aZ c #000000",
"a0 c #000000",
"a1 c #000000",
"a2 c #000000",
"a3 c #000000",
"a4 c #000000",
"a5 c #000000",
"a6 c #000000",
"a7 c #000000",
"a8 c #000000",
/* pixels */
"```.`.`.`.`.`.`.`.`.`.`.`.`.`.`#",
"`.`a`b`c`d`e`f`g`h`i`j`j`j`j`j`.",
"`.`a`b`c`d`e`f`g`h`i`j`j`j`j`j`.",
"`k`.`.`.`.`.`.`.`.`.`.`.`.`.`.`l",
"`.`m`m`m`m`m`m`m`m`n`o`p`q`r`s`.",
"`.`t`t`t`t`t`u`t`v`w`x`y`z`A`B`.",
"`.`t`t`t`C`D`E`F`G`H`I`J`K`L`M`.",
"`.`t`t`p`N`O`P`Q`m`R`S`T`U`V`W`.",
"`.`t`X`Y`Z`C`0`1`2`3`A`4`5`6`7`.",
"`.`t`X`Y`Z`8.``x`y`z`B...#.a.b`.",
"`.`t`t`p.c.d.e.f.g.h.i.j.k.l.m`.",
"`.`t`t.n.`.o.p.q.m.r`4.s.s.t.u`.",
"`.`t`t`0`1`2.v.w.x.y`s`7.z.A.B`.",
"`.`t`v.``x`y`z`A`B.e.C.b.D.E.F`.",
"`.`C.G.H.f.g`K`L`M.I.l.m.J.K.L`.",
"```.`.`.`.`.`.`.`.`.`.`.`.`.`..M"
};
