/* XPM */
static char *zoom_page_xpm[] = {
/* width height num_colors chars_per_pixel */
"    16    16      256            2",
/* colors */
"`` c #e8e8e4",
"`. c #9d9d9b",
"`# c #5b5c5b",
"`a c #2c2d2d",
"`b c #070707",
"`c c #282828",
"`d c #595958",
"`e c #999996",
"`f c #d5d5d1",
"`g c #484948",
"`h c #2a2b2c",
"`i c #878c92",
"`j c #b3bac1",
"`k c #d3dbe5",
"`l c #b1bac3",
"`m c #858c94",
"`n c #2d2f31",
"`o c #3c3d3d",
"`p c #d0d0cd",
"`q c #1c1c1c",
"`r c #717579",
"`s c #e4ecf4",
"`t c #ecf2f9",
"`u c #ebf2f9",
"`v c #e8f0f8",
"`w c #e3edf7",
"`x c #dee9f5",
"`y c #d4e2f0",
"`z c #6e7780",
"`A c #141515",
"`B c #c9c9c6",
"`C c #71757a",
"`D c #ecf3f9",
"`E c #7e7f7f",
"`F c #717272",
"`G c #6e6e6f",
"`H c #646465",
"`I c #59595a",
"`J c #4e4f4f",
"`K c #434445",
"`L c #c6d6e6",
"`M c #6f7a85",
"`N c #323233",
"`O c #e6e6e2",
"`P c #e7eef4",
"`Q c #f3f7fb",
"`R c #727272",
"`S c #e2e2e2",
"`T c #efefef",
"`U c #eeeeee",
"`V c #ededed",
"`W c #e7e7e7",
"`X c #2f2f30",
"`Y c #c2d2e4",
"`Z c #c3d7ec",
"`0 c #2d3135",
"`1 c #7e7e7b",
"`2 c #8a8e93",
"`3 c #f0f5fa",
"`4 c #f7fafc",
"`5 c #6a6a6a",
"`6 c #ffffff",
"`7 c #f7f7f7",
"`8 c #ececec",
".` c #232324",
".. c #bdcfe2",
".# c #c2d7ed",
".a c #7a8a9a",
".b c #3d3e3f",
".c c #e0e0dc",
".d c #b7bcc2",
".e c #f4f8fc",
".f c #5c5d5d",
".g c #fefefe",
".h c #f4f4f4",
".i c #e9e9e9",
".j c #dfdfdf",
".k c #161617",
".l c #b9cbdf",
".m c #bed4ec",
".n c #99afc5",
".o c #1c1e1f",
".p c #d2d2ce",
".q c #d7dee6",
".r c #eef4fa",
".s c #505051",
".t c #e8e8e8",
".u c #f1f1f1",
".v c #e6e6e6",
".w c #dcdcdc",
".x c #d1d1d1",
".y c #0c0d0e",
".z c #b4c9de",
".A c #b9d1eb",
".B c #afc9e4",
".C c #030303",
".D c #c3c3c0",
".E c #272828",
".F c #b5bdc4",
".G c #e7eff8",
".H c #434344",
".I c #dbdbdb",
".J c #e3e3e3",
".K c #d9d9d9",
".L c #cecece",
".M c #c4c4c4",
".N c #0b0c0d",
".O c #afc5dc",
".P c #b3cee9",
".Q c #93acc5",
".R c #1b1d1e",
".S c #bfbfbb",
".T c #585857",
".U c #878d95",
".V c #e0ebf6",
".W c #dfeaf6",
".X c #353636",
".Y c #cdcdcd",
".Z c #d6d6d6",
".0 c #cbcbcb",
".1 c #c1c1c1",
".2 c #b6b6b6",
".3 c #0b0c0c",
".4 c #aac1db",
".5 c #aecae8",
".6 c #6f8399",
".7 c #414344",
".8 c #cacac6",
"#` c #d6e3f1",
"#. c #d7e5f3",
"## c #272728",
"#a c #c0c0c0",
"#b c #c8c8c8",
"#c c #bebebe",
"#d c #b3b3b3",
"#e c #aaaaaa",
"#f c #a3bdd9",
"#g c #a8c6e6",
"#h c #2f363e",
"#i c #757574",
"#j c #d6d6d3",
"#k c #3a3b3b",
"#l c #6f7780",
"#m c #cfe0f1",
"#n c #191b1c",
"#o c #0b0b0c",
"#p c #000000",
"#q c #9dbad8",
"#r c #5f7287",
"#s c #1d1f20",
"#t c #b1b1ae",
"#u c #e5e5e1",
"#v c #cfcfcc",
"#w c #131414",
"#x c #b8cbdf",
"#y c #b5cade",
"#z c #b1c7dd",
"#A c #acc4dc",
"#B c #a8c0da",
"#C c #a2bcd9",
"#D c #5f7286",
"#E c #060709",
"#F c #686866",
"#G c #c4c4c0",
"#H c #313232",
"#I c #2d3236",
"#J c #79899a",
"#K c #adc8e3",
"#L c #92abc5",
"#M c #6e6e6c",
"#N c #e2e2de",
"#O c #777775",
"#P c #3d3f3f",
"#Q c #191a1b",
"#R c #010101",
"#S c #171819",
"#T c #404243",
"#U c #787876",
"#V c #676765",
"#W c #7b7b79",
"#X c #d9d9d5",
"#Y c #cbcbc8",
"#Z c #b9b9b6",
"#0 c #c5c5c2",
"#1 c #e3e3e0",
"#2 c #000000",
"#3 c #000000",
"#4 c #000000",
"#5 c #000000",
"#6 c #000000",
"#7 c #000000",
"#8 c #000000",
"a` c #000000",
"a. c #000000",
"a# c #000000",
"aa c #000000",
"ab c #000000",
"ac c #000000",
"ad c #000000",
"ae c #000000",
"af c #000000",
"ag c #000000",
"ah c #000000",
"ai c #000000",
"aj c #000000",
"ak c #000000",
"al c #000000",
"am c #000000",
"an c #000000",
"ao c #000000",
"ap c #000000",
"aq c #000000",
"ar c #000000",
"as c #000000",
"at c #000000",
"au c #000000",
"av c #000000",
"aw c #000000",
"ax c #000000",
"ay c #000000",
"az c #000000",
"aA c #000000",
"aB c #000000",
"aC c #000000",
"aD c #000000",
"aE c #000000",
"aF c #000000",
"aG c #000000",
"aH c #000000",
"aI c #000000",
"aJ c #000000",
"aK c #000000",
"aL c #000000",
"aM c #000000",
"aN c #000000",
"aO c #000000",
"aP c #000000",
"aQ c #000000",
"aR c #000000",
"aS c #000000",
"aT c #000000",
"aU c #000000",
"aV c #000000",
"aW c #000000",
"aX c #000000",
"aY c #000000",
"aZ c #000000",
"a0 c #000000",
"a1 c #000000",
"a2 c #000000",
"a3 c #000000",
"a4 c #000000",
"a5 c #000000",
"a6 c #000000",
"a7 c #000000",
"a8 c #000000",
/* pixels */
"`````````.`#`a`b`c`d`e``````````",
"`````f`g`h`i`j`k`l`m`n`o`p``````",
"```f`q`r`s`t`u`v`w`x`y`z`A`B````",
"```g`C`D`E`F`G`H`I`J`K`L`M`N`O``",
"`.`h`P`Q`R`S`T`U`V`W`X`Y`Z`0`1``",
"`#`2`3`4`5`U`6`6`7`8.`...#.a.b.c",
"`a.d`3.e.f`V.g.h.i.j.k.l.m.n.o.p",
"`b.q`D.r.s.t.u.v.w.x.y.z.A.B.C.D",
".E.F.G.G.H.I.J.K.L.M.N.O.P.Q.R.S",
".T.U.V.W.X.Y.Z.0.1.2.3.4.5.6.7.8",
"`e`n#`#.###a#b#c#d#e.3#f#g#h#i#j",
"``#k#l#m#n#o.N.N.3.3#p#q#r#s#t#u",
"``#v#w`M#x#y#z#A#B#C#q#D#E#p#F``",
"````#G#H#I#J.n#K#L.6#h#s#p#p#p#M",
"``````#N#O#P#Q#R#S#T#U#t#V#p#p#W",
"``````````#X#Y#Z#Z#0.p#1``#M#W``"
};
