/* XPM */
static char *zoom_previous_xpm[] = {
/* width height num_colors chars_per_pixel */
"    16    16      256            2",
/* colors */
"`` c #e8e8e4",
"`. c #9d9d9b",
"`# c #5b5c5b",
"`a c #2c2d2d",
"`b c #070707",
"`c c #282828",
"`d c #595958",
"`e c #999996",
"`f c #d5d5d1",
"`g c #484948",
"`h c #2a2b2c",
"`i c #878c92",
"`j c #b3bac1",
"`k c #d3dbe5",
"`l c #b1bac3",
"`m c #858c94",
"`n c #2d2f31",
"`o c #3c3d3d",
"`p c #d0d0cd",
"`q c #1c1c1c",
"`r c #717579",
"`s c #e4ecf4",
"`t c #ecf2f9",
"`u c #ebf2f9",
"`v c #e8f0f8",
"`w c #e3edf7",
"`x c #dee9f5",
"`y c #d4e2f0",
"`z c #6e7780",
"`A c #141515",
"`B c #c9c9c6",
"`C c #71757a",
"`D c #ecf3f9",
"`E c #858688",
"`F c #e8ecef",
"`G c #f0f5fb",
"`H c #e4eef7",
"`I c #959ca2",
"`J c #4d4e49",
"`K c #cdddee",
"`L c #6f7a85",
"`M c #323233",
"`N c #e6e6e2",
"`O c #e7eef4",
"`P c #f3f7fb",
"`Q c #606161",
"`R c #e1e3e5",
"`S c #f2f6fb",
"`T c #d8dee5",
"`U c #595a55",
"`V c #443f23",
"`W c #0e0e0c",
"`X c #c7d7e9",
"`Y c #c3d7ec",
"`Z c #2d3135",
"`0 c #7e7e7b",
"`1 c #8a8e93",
"`2 c #f0f5fa",
"`3 c #f7fafc",
"`4 c #555555",
"`5 c #dde0e2",
"`6 c #abaeb2",
"`7 c #36352e",
"`8 c #cac196",
".` c #fdf1b1",
".. c #060603",
".# c #c3d5e8",
".a c #c2d7ed",
".b c #7a8a9a",
".c c #3d3e3f",
".d c #e0e0dc",
".e c #b7bcc2",
".f c #f4f8fc",
".g c #484849",
".h c #666250",
".i c #f7f2d7",
".j c #ffefa3",
".k c #ffd710",
".l c #bfd2e7",
".m c #bed4ec",
".n c #99afc5",
".o c #1c1e1f",
".p c #d2d2ce",
".q c #d7dee6",
".r c #eef4fa",
".s c #3b3b39",
".t c #3a3418",
".u c #fae580",
".v c #ffe252",
".w c #ffd400",
".x c #bacfe6",
".y c #b9d1eb",
".z c #afc9e4",
".A c #030303",
".B c #c3c3c0",
".C c #272828",
".D c #b5bdc4",
".E c #e7eff8",
".F c #2e2f30",
".G c #31322d",
".H c #322b0a",
".I c #d4b000",
".J c #b5cbe4",
".K c #b3cee9",
".L c #93acc5",
".M c #1b1d1e",
".N c #bfbfbb",
".O c #585857",
".P c #878d95",
".Q c #e0ebf6",
".R c #dfeaf6",
".S c #202123",
".T c #bdc8d4",
".U c #7b838a",
".V c #100f09",
".W c #867103",
".X c #fcd200",
".Y c #060503",
".Z c #afc8e3",
".0 c #aecae8",
".1 c #6f8399",
".2 c #414344",
".3 c #cacac6",
".4 c #d6e3f1",
".5 c #d7e5f3",
".6 c #1a1c1e",
".7 c #b7c5d4",
".8 c #ccdef0",
"#` c #acbcce",
"#. c #32342f",
"## c #342d0a",
"#a c #030402",
"#b c #a9c4e1",
"#c c #a8c6e6",
"#d c #2f363e",
"#e c #757574",
"#f c #d6d6d3",
"#g c #3a3b3b",
"#h c #6f7780",
"#i c #cfe0f1",
"#j c #2b2f33",
"#k c #b8cadb",
"#l c #c4d9ee",
"#m c #bfd5ed",
"#n c #b9d1ea",
"#o c #667582",
"#p c #2d312e",
"#q c #a5c3e2",
"#r c #5f7287",
"#s c #1d1f20",
"#t c #b1b1ae",
"#u c #e5e5e1",
"#v c #cfcfcc",
"#w c #131414",
"#x c #c1d7ed",
"#y c #bdd4ec",
"#z c #b8d1eb",
"#A c #b3cde9",
"#B c #adc9e7",
"#C c #a7c6e6",
"#D c #060709",
"#E c #000000",
"#F c #686866",
"#G c #c4c4c0",
"#H c #313232",
"#I c #2d3236",
"#J c #79899a",
"#K c #adc8e3",
"#L c #92abc5",
"#M c #6e6e6c",
"#N c #e2e2de",
"#O c #777775",
"#P c #3d3f3f",
"#Q c #191a1b",
"#R c #010101",
"#S c #171819",
"#T c #404243",
"#U c #787876",
"#V c #676765",
"#W c #7b7b79",
"#X c #d9d9d5",
"#Y c #cbcbc8",
"#Z c #b9b9b6",
"#0 c #c5c5c2",
"#1 c #e3e3e0",
"#2 c #000000",
"#3 c #000000",
"#4 c #000000",
"#5 c #000000",
"#6 c #000000",
"#7 c #000000",
"#8 c #000000",
"a` c #000000",
"a. c #000000",
"a# c #000000",
"aa c #000000",
"ab c #000000",
"ac c #000000",
"ad c #000000",
"ae c #000000",
"af c #000000",
"ag c #000000",
"ah c #000000",
"ai c #000000",
"aj c #000000",
"ak c #000000",
"al c #000000",
"am c #000000",
"an c #000000",
"ao c #000000",
"ap c #000000",
"aq c #000000",
"ar c #000000",
"as c #000000",
"at c #000000",
"au c #000000",
"av c #000000",
"aw c #000000",
"ax c #000000",
"ay c #000000",
"az c #000000",
"aA c #000000",
"aB c #000000",
"aC c #000000",
"aD c #000000",
"aE c #000000",
"aF c #000000",
"aG c #000000",
"aH c #000000",
"aI c #000000",
"aJ c #000000",
"aK c #000000",
"aL c #000000",
"aM c #000000",
"aN c #000000",
"aO c #000000",
"aP c #000000",
"aQ c #000000",
"aR c #000000",
"aS c #000000",
"aT c #000000",
"aU c #000000",
"aV c #000000",
"aW c #000000",
"aX c #000000",
"aY c #000000",
"aZ c #000000",
"a0 c #000000",
"a1 c #000000",
"a2 c #000000",
"a3 c #000000",
"a4 c #000000",
"a5 c #000000",
"a6 c #000000",
"a7 c #000000",
"a8 c #000000",
/* pixels */
"`````````.`#`a`b`c`d`e``````````",
"`````f`g`h`i`j`k`l`m`n`o`p``````",
"```f`q`r`s`t`u`v`w`x`y`z`A`B````",
"```g`C`D`E`F`G`u`H`I`J`K`L`M`N``",
"`.`h`O`P`Q`R`S`T`U`V`W`X`Y`Z`0``",
"`#`1`2`3`4`5`6`7`8.`...#.a.b.c.d",
"`a.e`2.f.g`U.h.i.j.k...l.m.n.o.p",
"`b.q`D.r.s.t.u.v.w.w...x.y.z.A.B",
".C.D.E.E.F.G.H.I.w.w...J.K.L.M.N",
".O.P.Q.R.S.T.U.V.W.X.Y.Z.0.1.2.3",
"`e`n.4.5.6.7.8#`#.###a#b#c#d#e#f",
"``#g#h#i#j#k#l#m#n#o#p#q#r#s#t#u",
"``#v#w`L`Y#x#y#z#A#B#C#r#D#E#F``",
"````#G#H#I#J.n#K#L.1#d#s#E#E#E#M",
"``````#N#O#P#Q#R#S#T#U#t#V#E#E#W",
"``````````#X#Y#Z#Z#0.p#1``#M#W``"
};
