/* XPM */
static char *zoom_select_xpm[] = {
/* width height num_colors chars_per_pixel */
"    16    16      256            2",
/* colors */
"`` c #e8e8e4",
"`. c #9d9d9b",
"`# c #5b5c5b",
"`a c #2c2d2d",
"`b c #070707",
"`c c #282828",
"`d c #595958",
"`e c #999996",
"`f c #d5d5d1",
"`g c #484948",
"`h c #2a2b2c",
"`i c #878c92",
"`j c #b3bac1",
"`k c #d3dbe5",
"`l c #b1bac3",
"`m c #858c94",
"`n c #2d2f31",
"`o c #3c3d3d",
"`p c #d0d0cd",
"`q c #1c1c1c",
"`r c #717579",
"`s c #e4ecf4",
"`t c #ecf2f9",
"`u c #ebf2f9",
"`v c #e8f0f8",
"`w c #e3edf7",
"`x c #dee9f5",
"`y c #d4e2f0",
"`z c #6e7780",
"`A c #141515",
"`B c #c9c9c6",
"`C c #71757a",
"`D c #ecf3f9",
"`E c #f1f6fb",
"`F c #f3f7fb",
"`G c #f0f5fb",
"`H c #e4eef7",
"`I c #d6e5f3",
"`J c #cfe0f1",
"`K c #6f7a85",
"`L c #323233",
"`M c #e6e6e2",
"`N c #e7eef4",
"`O c #262626",
"`P c #e9e9e9",
"`Q c #efeff0",
"`R c #1e1e1e",
"`S c #eeeff0",
"`T c #edeeef",
"`U c #bbccdf",
"`V c #2d3135",
"`W c #7e7e7b",
"`X c #8a8e93",
"`Y c #f0f5fa",
"`Z c #f0f1f1",
"`0 c #fefefe",
"`1 c #f1f1f1",
"`2 c #f0f0f0",
"`3 c #c5d9ed",
"`4 c #7a8a9a",
"`5 c #3d3e3f",
"`6 c #e0e0dc",
"`7 c #b7bcc2",
"`8 c #ffffff",
".` c #b7cadf",
".. c #99afc5",
".# c #1c1e1f",
".a c #d2d2ce",
".b c #d7dee6",
".c c #eff0f1",
".d c #bcd3eb",
".e c #afc9e4",
".f c #030303",
".g c #c3c3c0",
".h c #272828",
".i c #b5bdc4",
".j c #e7eff8",
".k c #adc5dc",
".l c #93acc5",
".m c #1b1d1e",
".n c #bfbfbb",
".o c #585857",
".p c #878d95",
".q c #e0ebf6",
".r c #b2cce8",
".s c #6f8399",
".t c #414344",
".u c #cacac6",
".v c #d6e3f1",
".w c #252626",
".x c #a3beda",
".y c #2f363e",
".z c #757574",
".A c #d6d6d3",
".B c #3a3b3b",
".C c #6f7780",
".D c #cadbea",
".E c #cfdff0",
".F c #c5d7e9",
".G c #c6daef",
".H c #bcd0e7",
".I c #bcd3ec",
".J c #b1cae5",
".K c #b1cce9",
".L c #a6c3e1",
".M c #5f7287",
".N c #1d1f20",
".O c #b1b1ae",
".P c #e5e5e1",
".Q c #cfcfcc",
".R c #131414",
".S c #c3d7ec",
".T c #c1d7ed",
".U c #bdd4ec",
".V c #b8d1eb",
".W c #b3cde9",
".X c #adc9e7",
".Y c #a7c6e6",
".Z c #060709",
".0 c #000000",
".1 c #686866",
".2 c #c4c4c0",
".3 c #313232",
".4 c #2d3236",
".5 c #79899a",
".6 c #adc8e3",
".7 c #92abc5",
".8 c #6e6e6c",
"#` c #e2e2de",
"#. c #777775",
"## c #3d3f3f",
"#a c #191a1b",
"#b c #010101",
"#c c #171819",
"#d c #404243",
"#e c #787876",
"#f c #676765",
"#g c #7b7b79",
"#h c #d9d9d5",
"#i c #cbcbc8",
"#j c #b9b9b6",
"#k c #c5c5c2",
"#l c #e3e3e0",
"#m c #000000",
"#n c #000000",
"#o c #000000",
"#p c #000000",
"#q c #000000",
"#r c #000000",
"#s c #000000",
"#t c #000000",
"#u c #000000",
"#v c #000000",
"#w c #000000",
"#x c #000000",
"#y c #000000",
"#z c #000000",
"#A c #000000",
"#B c #000000",
"#C c #000000",
"#D c #000000",
"#E c #000000",
"#F c #000000",
"#G c #000000",
"#H c #000000",
"#I c #000000",
"#J c #000000",
"#K c #000000",
"#L c #000000",
"#M c #000000",
"#N c #000000",
"#O c #000000",
"#P c #000000",
"#Q c #000000",
"#R c #000000",
"#S c #000000",
"#T c #000000",
"#U c #000000",
"#V c #000000",
"#W c #000000",
"#X c #000000",
"#Y c #000000",
"#Z c #000000",
"#0 c #000000",
"#1 c #000000",
"#2 c #000000",
"#3 c #000000",
"#4 c #000000",
"#5 c #000000",
"#6 c #000000",
"#7 c #000000",
"#8 c #000000",
"a` c #000000",
"a. c #000000",
"a# c #000000",
"aa c #000000",
"ab c #000000",
"ac c #000000",
"ad c #000000",
"ae c #000000",
"af c #000000",
"ag c #000000",
"ah c #000000",
"ai c #000000",
"aj c #000000",
"ak c #000000",
"al c #000000",
"am c #000000",
"an c #000000",
"ao c #000000",
"ap c #000000",
"aq c #000000",
"ar c #000000",
"as c #000000",
"at c #000000",
"au c #000000",
"av c #000000",
"aw c #000000",
"ax c #000000",
"ay c #000000",
"az c #000000",
"aA c #000000",
"aB c #000000",
"aC c #000000",
"aD c #000000",
"aE c #000000",
"aF c #000000",
"aG c #000000",
"aH c #000000",
"aI c #000000",
"aJ c #000000",
"aK c #000000",
"aL c #000000",
"aM c #000000",
"aN c #000000",
"aO c #000000",
"aP c #000000",
"aQ c #000000",
"aR c #000000",
"aS c #000000",
"aT c #000000",
"aU c #000000",
"aV c #000000",
"aW c #000000",
"aX c #000000",
"aY c #000000",
"aZ c #000000",
"a0 c #000000",
"a1 c #000000",
"a2 c #000000",
"a3 c #000000",
"a4 c #000000",
"a5 c #000000",
"a6 c #000000",
"a7 c #000000",
"a8 c #000000",
/* pixels */
"`````````.`#`a`b`c`d`e``````````",
"`````f`g`h`i`j`k`l`m`n`o`p``````",
"```f`q`r`s`t`u`v`w`x`y`z`A`B````",
"```g`C`D`E`F`G`u`H`x`I`J`K`L`M``",
"`.`h`N`O`P`O`Q`R`S`R`T`R`U`V`W``",
"`#`X`Y`Z`0`1`0`2`0`2`0`2`3`4`5`6",
"`a`7`Y`O`P`8`8`8`8`8`8`R.`...#.a",
"`b.b`D.c`0`8`8`8`8`8`8`2.d.e.f.g",
".h.i.j`O`P`8`8`8`8`8`8`R.k.l.m.n",
".o.p.q`S`0`8`8`8`8`8`8`2.r.s.t.u",
"`e`n.v.w`P`O`2`R`2`R`2`R.x.y.z.A",
"``.B.C.D.E.F.G.H.I.J.K.L.M.N.O.P",
"``.Q.R`K.S.T.U.V.W.X.Y.M.Z.0.1``",
"````.2.3.4.5...6.7.s.y.N.0.0.0.8",
"``````#`#.###a#b#c#d#e.O#f.0.0#g",
"``````````#h#i#j#j#k.a#l``.8#g``"
};
