/* XPM */
static char *zoom_2_to_1_xpm[] = {
/* width height num_colors chars_per_pixel */
"    16    16      256            2",
/* colors */
"`` c #e8e8e4",
"`. c #9d9d9b",
"`# c #5b5c5b",
"`a c #2c2d2d",
"`b c #070707",
"`c c #282828",
"`d c #595958",
"`e c #999996",
"`f c #d5d5d1",
"`g c #484948",
"`h c #2a2b2c",
"`i c #878c92",
"`j c #b3bac1",
"`k c #d3dbe5",
"`l c #b1bac3",
"`m c #858c94",
"`n c #2d2f31",
"`o c #3c3d3d",
"`p c #d0d0cd",
"`q c #1c1c1c",
"`r c #717579",
"`s c #e4ecf4",
"`t c #ecf2f9",
"`u c #ebf2f9",
"`v c #e8f0f8",
"`w c #e3edf7",
"`x c #dee9f5",
"`y c #d4e2f0",
"`z c #6e7780",
"`A c #141515",
"`B c #c9c9c6",
"`C c #71757a",
"`D c #ecf3f9",
"`E c #f1f6fb",
"`F c #f2f6fa",
"`G c #f0f5fb",
"`H c #e4eef7",
"`I c #d6e5f3",
"`J c #cfe0f1",
"`K c #6f7a85",
"`L c #323233",
"`M c #e6e6e2",
"`N c #e7eef4",
"`O c #adb0b3",
"`P c #1e1f1f",
"`Q c #19191a",
"`R c #a6a9ac",
"`S c #dce8f5",
"`T c #000000",
"`U c #c3d7ec",
"`V c #2d3135",
"`W c #7e7e7b",
"`X c #8a8e93",
"`Y c #f0f5fa",
"`Z c #7c7d7e",
"`0 c #bbbcbc",
"`1 c #aeb0b2",
"`2 c #272829",
"`3 c #e7eff8",
"`4 c #e0ebf6",
"`5 c #d8e6f4",
"`6 c #d1e1f2",
"`7 c #c2d7ed",
"`8 c #7a8a9a",
".` c #3d3e3f",
".. c #e0e0dc",
".# c #b7bcc2",
".a c #f4f8fc",
".b c #bfc4c8",
".c c #202122",
".d c #e2ecf7",
".e c #dbe7f5",
".f c #d4e3f2",
".g c #cddef0",
".h c #bed4ec",
".i c #99afc5",
".j c #1c1e1f",
".k c #d2d2ce",
".l c #d7dee6",
".m c #eef4fa",
".n c #d9e0e5",
".o c #2e3032",
".p c #7e838a",
".q c #cedff1",
".r c #c7dbef",
".s c #b9d1eb",
".t c #afc9e4",
".u c #030303",
".v c #c3c3c0",
".w c #272828",
".x c #b5bdc4",
".y c #d1d9e1",
".z c #26282a",
".A c #6e7379",
".B c #dbe8f5",
".C c #d5e4f3",
".D c #c8dbef",
".E c #b3cee9",
".F c #93acc5",
".G c #1b1d1e",
".H c #bfbfbb",
".I c #585857",
".J c #878d95",
".K c #505458",
".L c #676c72",
".M c #d9e6f4",
".N c #c2d4e8",
".O c #bbd3ec",
".P c #aecae8",
".Q c #6f8399",
".R c #414344",
".S c #cacac6",
".T c #cbd7e5",
".U c #08090a",
".V c #0a0b0b",
".W c #0c0d0e",
".X c #6c767f",
".Y c #c7daef",
".Z c #050607",
".0 c #bbd3eb",
".1 c #b5cfea",
".2 c #050606",
".3 c #a8c6e6",
".4 c #2f363e",
".5 c #757574",
".6 c #d6d6d3",
".7 c #3a3b3b",
".8 c #6e767e",
"#` c #c2d2e2",
"#. c #c0d0e1",
"## c #bccee0",
"#a c #bed2e7",
"#b c #bfd5ed",
"#c c #bad2eb",
"#d c #b4ceea",
"#e c #5f7287",
"#f c #1d1f20",
"#g c #b1b1ae",
"#h c #e5e5e1",
"#i c #cfcfcc",
"#j c #131414",
"#k c #c1d7ed",
"#l c #bdd4ec",
"#m c #b8d1eb",
"#n c #b3cde9",
"#o c #adc9e7",
"#p c #a7c6e6",
"#q c #060709",
"#r c #686866",
"#s c #c4c4c0",
"#t c #313232",
"#u c #2d3236",
"#v c #79899a",
"#w c #adc8e3",
"#x c #92abc5",
"#y c #6e6e6c",
"#z c #e2e2de",
"#A c #777775",
"#B c #3d3f3f",
"#C c #191a1b",
"#D c #010101",
"#E c #171819",
"#F c #404243",
"#G c #787876",
"#H c #676765",
"#I c #7b7b79",
"#J c #d9d9d5",
"#K c #cbcbc8",
"#L c #b9b9b6",
"#M c #c5c5c2",
"#N c #e3e3e0",
"#O c #000000",
"#P c #000000",
"#Q c #000000",
"#R c #000000",
"#S c #000000",
"#T c #000000",
"#U c #000000",
"#V c #000000",
"#W c #000000",
"#X c #000000",
"#Y c #000000",
"#Z c #000000",
"#0 c #000000",
"#1 c #000000",
"#2 c #000000",
"#3 c #000000",
"#4 c #000000",
"#5 c #000000",
"#6 c #000000",
"#7 c #000000",
"#8 c #000000",
"a` c #000000",
"a. c #000000",
"a# c #000000",
"aa c #000000",
"ab c #000000",
"ac c #000000",
"ad c #000000",
"ae c #000000",
"af c #000000",
"ag c #000000",
"ah c #000000",
"ai c #000000",
"aj c #000000",
"ak c #000000",
"al c #000000",
"am c #000000",
"an c #000000",
"ao c #000000",
"ap c #000000",
"aq c #000000",
"ar c #000000",
"as c #000000",
"at c #000000",
"au c #000000",
"av c #000000",
"aw c #000000",
"ax c #000000",
"ay c #000000",
"az c #000000",
"aA c #000000",
"aB c #000000",
"aC c #000000",
"aD c #000000",
"aE c #000000",
"aF c #000000",
"aG c #000000",
"aH c #000000",
"aI c #000000",
"aJ c #000000",
"aK c #000000",
"aL c #000000",
"aM c #000000",
"aN c #000000",
"aO c #000000",
"aP c #000000",
"aQ c #000000",
"aR c #000000",
"aS c #000000",
"aT c #000000",
"aU c #000000",
"aV c #000000",
"aW c #000000",
"aX c #000000",
"aY c #000000",
"aZ c #000000",
"a0 c #000000",
"a1 c #000000",
"a2 c #000000",
"a3 c #000000",
"a4 c #000000",
"a5 c #000000",
"a6 c #000000",
"a7 c #000000",
"a8 c #000000",
/* pixels */
"`````````.`#`a`b`c`d`e``````````",
"`````f`g`h`i`j`k`l`m`n`o`p``````",
"```f`q`r`s`t`u`v`w`x`y`z`A`B````",
"```g`C`D`E`F`G`u`H`x`I`J`K`L`M``",
"`.`h`N`O`P`Q`R`u`w`S`T`T`U`V`W``",
"`#`X`Y`Z`0`1`2`3`4`5`6`T`7`8.`..",
"`a.#`Y.a.a.b.c.d.e.f.g`T.h.i.j.k",
"`b.l`D.m.n.o.p`S`T.q.r`T.s.t.u.v",
".w.x`3.y.z.A.B.C`J.D`7`T.E.F.G.H",
".I.J`4.K.L.M.f.q.N`7.O`T.P.Q.R.S",
"`e`n.T.U.V.W.X.Y.Z.0.1.2.3.4.5.6",
"``.7.8#`#.###a#b#c#d.P.3#e#f#g#h",
"``#i#j`K`U#k#l#m#n#o#p#e#q`T#r``",
"````#s#t#u#v.i#w#x.Q.4#f`T`T`T#y",
"``````#z#A#B#C#D#E#F#G#g#H`T`T#I",
"``````````#J#K#L#L#M.k#N``#y#I``"
};
