/* XPM */
static char *zoom_1_to_1_xpm[] = {
/* width height num_colors chars_per_pixel */
"    16    16      256            2",
/* colors */
"`` c #e8e8e4",
"`. c #9d9d9b",
"`# c #5b5c5b",
"`a c #2c2d2d",
"`b c #070707",
"`c c #282828",
"`d c #595958",
"`e c #999996",
"`f c #d5d5d1",
"`g c #484948",
"`h c #2a2b2c",
"`i c #878c92",
"`j c #b3bac1",
"`k c #d3dbe5",
"`l c #b1bac3",
"`m c #858c94",
"`n c #2d2f31",
"`o c #3c3d3d",
"`p c #d0d0cd",
"`q c #1c1c1c",
"`r c #717579",
"`s c #e4ecf4",
"`t c #ecf2f9",
"`u c #ebf2f9",
"`v c #e8f0f8",
"`w c #e3edf7",
"`x c #dee9f5",
"`y c #d4e2f0",
"`z c #6e7780",
"`A c #141515",
"`B c #c9c9c6",
"`C c #71757a",
"`D c #ecf3f9",
"`E c #f1f6fb",
"`F c #f3f7fb",
"`G c #f0f5fb",
"`H c #e4eef7",
"`I c #d6e5f3",
"`J c #cfe0f1",
"`K c #6f7a85",
"`L c #323233",
"`M c #e6e6e2",
"`N c #e7eef4",
"`O c #000000",
"`P c #f8fafd",
"`Q c #f2f6fb",
"`R c #cddef1",
"`S c #c3d7ec",
"`T c #2d3135",
"`U c #7e7e7b",
"`V c #8a8e93",
"`W c #f0f5fa",
"`X c #f7fafc",
"`Y c #f6f9fc",
"`Z c #eff4fa",
"`0 c #e7eff8",
"`1 c #e0ebf6",
"`2 c #d8e6f4",
"`3 c #c9dcf0",
"`4 c #c2d7ed",
"`5 c #7a8a9a",
"`6 c #3d3e3f",
"`7 c #e0e0dc",
"`8 c #b7bcc2",
".` c #f4f8fc",
".. c #eff5fa",
".# c #e9f1f8",
".a c #e2ecf7",
".b c #dbe7f5",
".c c #d4e3f2",
".d c #c5d9ee",
".e c #bed4ec",
".f c #99afc5",
".g c #1c1e1f",
".h c #d2d2ce",
".i c #d7dee6",
".j c #eef4fa",
".k c #d5e4f3",
".l c #cedff1",
".m c #c0d6ed",
".n c #b9d1eb",
".o c #afc9e4",
".p c #030303",
".q c #c3c3c0",
".r c #272828",
".s c #b5bdc4",
".t c #dbe8f5",
".u c #c8dbef",
".v c #bbd2eb",
".w c #b3cee9",
".x c #93acc5",
".y c #1b1d1e",
".z c #bfbfbb",
".A c #585857",
".B c #878d95",
".C c #dfeaf6",
".D c #d9e6f4",
".E c #c8d8e9",
".F c #b5ceea",
".G c #aecae8",
".H c #6f8399",
".I c #414344",
".J c #cacac6",
".K c #d6e3f1",
".L c #d7e5f3",
".M c #060607",
".N c #d1e1f2",
".O c #ccdef0",
".P c #050607",
".Q c #c1d7ed",
".R c #bbd3eb",
".S c #050606",
".T c #a8c6e6",
".U c #2f363e",
".V c #757574",
".W c #d6d6d3",
".X c #3a3b3b",
".Y c #6f7780",
".Z c #cddef0",
".0 c #c9dcef",
".1 c #c4d9ee",
".2 c #bfd5ed",
".3 c #bad2eb",
".4 c #b4ceea",
".5 c #5f7287",
".6 c #1d1f20",
".7 c #b1b1ae",
".8 c #e5e5e1",
"#` c #cfcfcc",
"#. c #131414",
"## c #bdd4ec",
"#a c #b8d1eb",
"#b c #b3cde9",
"#c c #adc9e7",
"#d c #a7c6e6",
"#e c #060709",
"#f c #686866",
"#g c #c4c4c0",
"#h c #313232",
"#i c #2d3236",
"#j c #79899a",
"#k c #adc8e3",
"#l c #92abc5",
"#m c #6e6e6c",
"#n c #e2e2de",
"#o c #777775",
"#p c #3d3f3f",
"#q c #191a1b",
"#r c #010101",
"#s c #171819",
"#t c #404243",
"#u c #787876",
"#v c #676765",
"#w c #7b7b79",
"#x c #d9d9d5",
"#y c #cbcbc8",
"#z c #b9b9b6",
"#A c #c5c5c2",
"#B c #e3e3e0",
"#C c #000000",
"#D c #000000",
"#E c #000000",
"#F c #000000",
"#G c #000000",
"#H c #000000",
"#I c #000000",
"#J c #000000",
"#K c #000000",
"#L c #000000",
"#M c #000000",
"#N c #000000",
"#O c #000000",
"#P c #000000",
"#Q c #000000",
"#R c #000000",
"#S c #000000",
"#T c #000000",
"#U c #000000",
"#V c #000000",
"#W c #000000",
"#X c #000000",
"#Y c #000000",
"#Z c #000000",
"#0 c #000000",
"#1 c #000000",
"#2 c #000000",
"#3 c #000000",
"#4 c #000000",
"#5 c #000000",
"#6 c #000000",
"#7 c #000000",
"#8 c #000000",
"a` c #000000",
"a. c #000000",
"a# c #000000",
"aa c #000000",
"ab c #000000",
"ac c #000000",
"ad c #000000",
"ae c #000000",
"af c #000000",
"ag c #000000",
"ah c #000000",
"ai c #000000",
"aj c #000000",
"ak c #000000",
"al c #000000",
"am c #000000",
"an c #000000",
"ao c #000000",
"ap c #000000",
"aq c #000000",
"ar c #000000",
"as c #000000",
"at c #000000",
"au c #000000",
"av c #000000",
"aw c #000000",
"ax c #000000",
"ay c #000000",
"az c #000000",
"aA c #000000",
"aB c #000000",
"aC c #000000",
"aD c #000000",
"aE c #000000",
"aF c #000000",
"aG c #000000",
"aH c #000000",
"aI c #000000",
"aJ c #000000",
"aK c #000000",
"aL c #000000",
"aM c #000000",
"aN c #000000",
"aO c #000000",
"aP c #000000",
"aQ c #000000",
"aR c #000000",
"aS c #000000",
"aT c #000000",
"aU c #000000",
"aV c #000000",
"aW c #000000",
"aX c #000000",
"aY c #000000",
"aZ c #000000",
"a0 c #000000",
"a1 c #000000",
"a2 c #000000",
"a3 c #000000",
"a4 c #000000",
"a5 c #000000",
"a6 c #000000",
"a7 c #000000",
"a8 c #000000",
/* pixels */
"`````````.`#`a`b`c`d`e``````````",
"`````f`g`h`i`j`k`l`m`n`o`p``````",
"```f`q`r`s`t`u`v`w`x`y`z`A`B````",
"```g`C`D`E`F`G`u`H`x`I`J`K`L`M``",
"`.`h`N`O`O`P`Q`u`w`O`O`R`S`T`U``",
"`#`V`W`X`O`Y`Z`0`1`2`O`3`4`5`6`7",
"`a`8`W.``O...#.a.b.c`O.d.e.f.g.h",
"`b.i`D.j`O`v.a`O.k.l`O.m.n.o.p.q",
".r.s`0`0`O`1.t.k`J.u`O.v.w.x.y.z",
".A.B`1.C`O.D.c.E.u`4`O.F.G.H.I.J",
"`e`n.K.L.M.N.O.P.Q.R.S.G.T.U.V.W",
"``.X.Y`J.Z.0.1.2.3.4.G.T.5.6.7.8",
"``#`#.`K`S.Q###a#b#c#d.5#e`O#f``",
"````#g#h#i#j.f#k#l.H.U.6`O`O`O#m",
"``````#n#o#p#q#r#s#t#u.7#v`O`O#w",
"``````````#x#y#z#z#A.h#B``#m#w``"
};
