/* XPM */
static char *zoom_pagewidth_xpm[] = {
/* width height num_colors chars_per_pixel */
"    16    16      256            2",
/* colors */
"`` c #e8e8e4",
"`. c #9d9d9b",
"`# c #5b5c5b",
"`a c #2c2d2d",
"`b c #070707",
"`c c #282828",
"`d c #595958",
"`e c #999996",
"`f c #d5d5d1",
"`g c #484948",
"`h c #2a2b2c",
"`i c #878c92",
"`j c #b3bac1",
"`k c #d3dbe5",
"`l c #b1bac3",
"`m c #858c94",
"`n c #2d2f31",
"`o c #3c3d3d",
"`p c #d0d0cd",
"`q c #1c1c1c",
"`r c #717579",
"`s c #e4ecf4",
"`t c #ecf2f9",
"`u c #ebf2f9",
"`v c #e8f0f8",
"`w c #e3edf7",
"`x c #dee9f5",
"`y c #d4e2f0",
"`z c #6e7780",
"`A c #141515",
"`B c #c9c9c6",
"`C c #71757a",
"`D c #ecf3f9",
"`E c #f1f6fb",
"`F c #f3f7fb",
"`G c #f0f5fb",
"`H c #e4eef7",
"`I c #d6e5f3",
"`J c #cfe0f1",
"`K c #6f7a85",
"`L c #323233",
"`M c #e6e6e2",
"`N c #e7eef4",
"`O c #f9fbfd",
"`P c #f8fafd",
"`Q c #f2f6fb",
"`R c #dce8f5",
"`S c #d4e3f3",
"`T c #cddef1",
"`U c #c3d7ec",
"`V c #2d3135",
"`W c #7e7e7b",
"`X c #8a8e93",
"`Y c #f0f5fa",
"`Z c #f7fafc",
"`0 c #fcfdfe",
"`1 c #f6f9fc",
"`2 c #eff4fa",
"`3 c #e7eff8",
"`4 c #e0ebf6",
"`5 c #d8e6f4",
"`6 c #d1e1f2",
"`7 c #c9dcf0",
"`8 c #c2d7ed",
".` c #7a8a9a",
".. c #3d3e3f",
".# c #e0e0dc",
".a c #b7bcc2",
".b c #8b8c8d",
".c c #6d6d6d",
".d c #616262",
".e c #535354",
".f c #464646",
".g c #373838",
".h c #29292a",
".i c #1b1c1c",
".j c #0d0d0e",
".k c #0c0d0e",
".l c #1f2124",
".m c #95aac0",
".n c #1c1e1f",
".o c #d2d2ce",
".p c #d7dee6",
".q c #717172",
".r c #e7e7e7",
".s c #f4f4f4",
".t c #f3f3f3",
".u c #f2f2f2",
".v c #ebebeb",
".w c #e1e1e1",
".x c #d8d8d8",
".y c #cecece",
".z c #c6c6c6",
".A c #0b0c0d",
".B c #a3bcd5",
".C c #030303",
".D c #c3c3c0",
".E c #272828",
".F c #b5bdc4",
".G c #6d6e6e",
".H c #efefef",
".I c #ffffff",
".J c #fefefe",
".K c #f5f5f5",
".L c #e2e2e2",
".M c #d9d9d9",
".N c #cfcfcf",
".O c #0d0e0f",
".P c #89a0b7",
".Q c #1b1d1e",
".R c #bfbfbb",
".S c #585857",
".T c #878d95",
".U c #636364",
".V c #eeeeee",
".W c #fbfbfb",
".X c #f1f1f1",
".Y c #e8e8e8",
".Z c #dedede",
".0 c #d5d5d5",
".1 c #cbcbcb",
".2 c #c2c2c2",
".3 c #b9b9b9",
".4 c #67798e",
".5 c #414344",
".6 c #cacac6",
".7 c #58595a",
".8 c #e5e5e5",
"#` c #e4e4e4",
"#. c #dbdbdb",
"## c #d1d1d1",
"#a c #c8c8c8",
"#b c #bebebe",
"#c c #b5b5b5",
"#d c #ababab",
"#e c #0e0f10",
"#f c #2b3239",
"#g c #757574",
"#h c #d6d6d3",
"#i c #3a3b3b",
"#j c #494a4a",
"#k c #e0e0e0",
"#l c #d7d7d7",
"#m c #c4c4c4",
"#n c #bbbbbb",
"#o c #b1b1b1",
"#p c #aaaaaa",
"#q c #0c0d0d",
"#r c #1a1c1d",
"#s c #b1b1ae",
"#t c #e5e5e1",
"#u c #cfcfcc",
"#v c #383939",
"#w c #7e7f7f",
"#x c #cacaca",
"#y c #c0c0c0",
"#z c #b7b7b7",
"#A c #aeaeae",
"#B c #787878",
"#C c #040404",
"#D c #000000",
"#E c #686866",
"#F c #b6b6b2",
"#G c #333333",
"#H c #7e7e7e",
"#I c #9b9b9b",
"#J c #a9a9a9",
"#K c #999999",
"#L c #7c7c7c",
"#M c #3a3a3a",
"#N c #0a0a0a",
"#O c #6e6e6c",
"#P c #e1e1dd",
"#Q c #474746",
"#R c #191919",
"#S c #090909",
"#T c #020202",
"#U c #171717",
"#V c #3e3e3d",
"#W c #ababa8",
"#X c #676765",
"#Y c #7b7b79",
"#Z c #d9d9d5",
"#0 c #cbcbc8",
"#1 c #b3b3b0",
"#2 c #b9b9b6",
"#3 c #c5c5c2",
"#4 c #e3e3e0",
"#5 c #000000",
"#6 c #000000",
"#7 c #000000",
"#8 c #000000",
"a` c #000000",
"a. c #000000",
"a# c #000000",
"aa c #000000",
"ab c #000000",
"ac c #000000",
"ad c #000000",
"ae c #000000",
"af c #000000",
"ag c #000000",
"ah c #000000",
"ai c #000000",
"aj c #000000",
"ak c #000000",
"al c #000000",
"am c #000000",
"an c #000000",
"ao c #000000",
"ap c #000000",
"aq c #000000",
"ar c #000000",
"as c #000000",
"at c #000000",
"au c #000000",
"av c #000000",
"aw c #000000",
"ax c #000000",
"ay c #000000",
"az c #000000",
"aA c #000000",
"aB c #000000",
"aC c #000000",
"aD c #000000",
"aE c #000000",
"aF c #000000",
"aG c #000000",
"aH c #000000",
"aI c #000000",
"aJ c #000000",
"aK c #000000",
"aL c #000000",
"aM c #000000",
"aN c #000000",
"aO c #000000",
"aP c #000000",
"aQ c #000000",
"aR c #000000",
"aS c #000000",
"aT c #000000",
"aU c #000000",
"aV c #000000",
"aW c #000000",
"aX c #000000",
"aY c #000000",
"aZ c #000000",
"a0 c #000000",
"a1 c #000000",
"a2 c #000000",
"a3 c #000000",
"a4 c #000000",
"a5 c #000000",
"a6 c #000000",
"a7 c #000000",
"a8 c #000000",
/* pixels */
"`````````.`#`a`b`c`d`e``````````",
"`````f`g`h`i`j`k`l`m`n`o`p``````",
"```f`q`r`s`t`u`v`w`x`y`z`A`B````",
"```g`C`D`E`F`G`u`H`x`I`J`K`L`M``",
"`.`h`N`F`O`P`Q`u`w`R`S`T`U`V`W``",
"`#`X`Y`Z`0`1`2`3`4`5`6`7`8.`...#",
"`a.a.b.c.d.e.f.g.h.i.j.k.l.m.n.o",
"`b.p.q.r.s.t.u.v.w.x.y.z.A.B.C.D",
".E.F.G.H.I.J.K.v.L.M.N.z.O.P.Q.R",
".S.T.U.V.W.X.Y.Z.0.1.2.3.O.4.5.6",
"`e`n.7.8.V#`#.###a#b#c#d#e#f#g#h",
"``#i#j.M#k#l.y#m#n#o#p#p#q#r#s#t",
"``#u#v#w###x#y#z#A#p#p#B#C#D#E``",
"````#F`c#G#H#I#J#K#L#M#N#D#D#D#O",
"``````#P#Q#R#S#T`b#U#V#W#X#D#D#Y",
"``````````#Z#0#1#2#3.o#4``#O#Y``"
};
