/* XPM */
static char *editor_icon_32x32_xpm[] = {
/* width height num_colors chars_per_pixel */
"    32    32      256            2",
/* colors */
"`` c #050304",
"`. c #2c823c",
"`# c #9a8468",
"`a c #54c46f",
"`b c #94ca8c",
"`c c #ccc294",
"`d c #5c864c",
"`e c #98e4b4",
"`f c #66e485",
"`g c #74065c",
"`h c #3c423c",
"`i c #34a244",
"`j c #bce5cc",
"`k c #7cc29c",
"`l c #5ca969",
"`m c #e4f68c",
"`n c #14622c",
"`o c #478957",
"`p c #cc826c",
"`q c #ccfed4",
"`r c #72f392",
"`s c #84a88c",
"`t c #b4ca94",
"`u c #44664c",
"`v c #9bf9b3",
"`w c #f4f6b4",
"`x c #b4f4c8",
"`y c #68d482",
"`z c #9cd284",
"`A c #5cb66f",
"`B c #74d48a",
"`C c #3cb25c",
"`D c #bff5d7",
"`E c #442a24",
"`F c #cca284",
"`G c #ccf9df",
"`H c #a4f7ba",
"`I c #34964c",
"`J c #7ee598",
"`K c #745674",
"`L c #48975e",
"`M c #94a274",
"`N c #487a50",
"`O c #192321",
"`P c #64c87c",
"`Q c #4ca360",
"`R c #84f6a4",
"`S c #f19181",
"`T c #a4665c",
"`U c #94d4a6",
"`V c #dffde1",
"`W c #74db89",
"`X c #34844c",
"`Y c #74a674",
"`Z c #1c722c",
"`0 c #6cb888",
"`1 c #57695c",
"`2 c #bcfeb4",
"`3 c #be7865",
"`4 c #a7c38f",
"`5 c #6bec8a",
"`6 c #88ca7c",
"`7 c #fcf6a4",
"`8 c #bafed5",
".` c #a6feba",
".. c #54986c",
".# c #a8d2bc",
".a c #949474",
".b c #64966c",
".c c #3c5244",
".d c #99fec7",
".e c #4cae5c",
".f c #300224",
".g c #a5e8bb",
".h c #49915e",
".i c #74fc94",
".j c #64dc82",
".k c #5fb987",
".l c #7ded9f",
".m c #b8a684",
".n c #6cc890",
".o c #f19d8c",
".p c #348d4c",
".q c #c4fed7",
".r c #4ccc6c",
".s c #5caf76",
".t c #7cbe7c",
".u c #84d4a0",
".v c #cffee0",
".w c #34221c",
".x c #84fda9",
".y c #74e294",
".z c #41a25c",
".A c #d19781",
".B c #99feb7",
".C c #f4fcd4",
".D c #3a9e56",
".E c #4c9a74",
".F c #647c70",
".G c #749a54",
".H c #110f0f",
".I c #54c28c",
".J c #fcfe70",
".K c #2c623c",
".L c #dcf6bc",
".M c #bcd8cc",
".N c #447152",
".O c #c4f6c4",
".P c #7cd48c",
".Q c #489e5d",
".R c #6cce80",
".S c #a87e64",
".T c #94daa4",
".U c #defeef",
".V c #377d4c",
".W c #a4c2b4",
".X c #84ca9c",
".Y c #a8fec5",
".Z c #505c54",
".0 c #df9781",
".1 c #5cc574",
".2 c #7cf59f",
".3 c #bcf6cc",
".4 c #69d28f",
".5 c #64be79",
".6 c #54b46a",
".7 c #94b4a4",
".8 c #547e5c",
"#` c #54a56d",
"#. c #7c2a64",
"## c #dcdaac",
"#a c #6c727c",
"#b c #5c3634",
"#c c #c4bec4",
"#d c #343c34",
"#e c #b29b7c",
"#f c #dcba94",
"#g c #043a14",
"#h c #64264c",
"#i c #9c2284",
"#j c #aca6ac",
"#k c #2c7664",
"#l c #84a274",
"#m c #acd294",
"#n c #dcd6dc",
"#o c #a8b884",
"#p c #e4a28c",
"#q c #6c666c",
"#r c #241214",
"#s c #c4c6c4",
"#t c #344e44",
"#u c #1c7e34",
"#v c #6c8870",
"#w c #8cb67c",
"#x c #5c5644",
"#y c #84ae7c",
"#z c #70b280",
"#A c #345e4c",
"#B c #306c44",
"#C c #b4aeac",
"#D c #242c24",
"#E c #b4725c",
"#F c #7c7e7c",
"#G c #fcfebc",
"#H c #1c6e34",
"#I c #e4fdc4",
"#J c #94c2a4",
"#K c #44aa54",
"#L c #4c3244",
"#M c #84b898",
"#N c #54b27c",
"#O c #248c44",
"#P c #98eeac",
"#Q c #74ce94",
"#R c #5c9f6c",
"#S c #548a68",
"#T c #2c7644",
"#U c #c4fec4",
"#V c #84966c",
"#W c #840e64",
"#X c #cc7e6c",
"#Y c #b47761",
"#Z c #9c8e6c",
"#0 c #c0ebd0",
"#1 c #546f5f",
"#2 c #aadbba",
"#3 c #a8ceb8",
"#4 c #bc987c",
"#5 c #5c5e64",
"#6 c #dcae8c",
"#7 c #8ce6a4",
"#8 c #84dc90",
"a` c #6caa8c",
"a. c #54aa7c",
"a# c #7c627c",
"aa c #2c7a44",
"ab c #8cb29c",
"ac c #f4fecc",
"ad c #acde94",
"ae c #f8fe88",
"af c #444e50",
"ag c #8ceaa4",
"ah c #445a54",
"ai c #3c6a4c",
"aj c #fc9a8c",
"ak c #3caa54",
"al c #c4ca98",
"am c #f49688",
"an c #f8feac",
"ao c #aceec1",
"ap c #41aa64",
"aq c #88ce9c",
"ar c #4cba5c",
"as c #ecfacc",
"at c #4c7b5f",
"au c #b7fdcc",
"av c #0c0a0c",
"aw c #74be87",
"ax c #c47e6c",
"ay c #a4ca8c",
"az c #5cbe8c",
"aA c #dc9e84",
"aB c #e4dee4",
"aC c #97caa9",
"aD c #7cbe94",
"aE c #94d29c",
"aF c #643e34",
"aG c #5ca87c",
"aH c #dcf2d4",
"aI c #ecf880",
"aJ c #4c6759",
"aK c #64ba79",
"aL c #d4fae7",
"aM c #acf6b8",
"aN c #3c9556",
"aO c #8cf2ac",
"aP c #7cda84",
"aQ c #3c8650",
"aR c #54ad67",
"aS c #7cfea1",
"aT c #6cde8c",
"aU c #3c8d51",
"aV c #64b07c",
"aW c #8cfcad",
"aX c #fcfae4",
"aY c #9cddb0",
"aZ c #8cc894",
"a0 c #2c8e44",
"a1 c #7ccd94",
"a2 c #549e70",
"a3 c #6cce8c",
"a4 c #146244",
"a5 c #ccaa84",
"a6 c #bcdecc",
"a7 c #84a28c",
"a8 c #d4fec4",
/* pixels */
"ajajajajaj.o`Sajajajajajajaj.oam.o.oam`S`S`3.H.w#X`p`3`3`3#Y#E#Y",
"ajajajajajaF```Tajajama5#o`6.P`W.jaP#8#m`F`E``av`3axax`3#E#Y#E#E",
"ajajajaj`S#r``#b.0`4.R`y.j.j.j`faT`f`5aS`LaRai`#`pax`3`3#Y#Y#Y#E",
"ajajamajaj`3#x`Y`o.1.j.j.j`f`f`f`f`5`raT.VaWaWaW`4ax`3#Y#Y#E#E#Y",
"ajajajajaj`F.PaTaRaU`f`f`f`f`f`5`5`5.i.6#`.xaS`J`W#y#Y#Y#Y#Y#E#Y",
"ajajajaj.maKaK`P`y#B`y`5`5`5`r`5`r`raS.h`P.x.2`J`Ba3#y#Y#E#E#Y#Y",
"ajajaj#4#R`l`A.5.jaU.6.i`r`5`r`r`r`RaW`o`y.x.l.y.4a3az#l#E#Y#Y#Y",
"ajamam.b..#`.6.1`f.z`QaS`r`r`r.2`R.x.B..a1aW.2#8.4.k.k.I#Z#E#E#E",
"ajaj#V`o.h#`.6`a`f`A#`.x`R.2`R`RaW.B.Ba1`0.B.B.l#N#ka`ad#z#Y#E#Y",
"ajaA.h.h.EaN.zar.xaVaK.BaWaW`v.`.`.Y.Y.``e.Y.B.d.4.uae.J`z`##Y#Y",
"aj`MaN`k.t.pa4`a.da1#P.Y.Y.Yauauauauau.Yau.Yau.Y.da8aeaIaw#V#E#Y",
"aj#Rap#I.J`m.n.l.Y.Yauau`8auau`8auau`8`8.q.qaY.g`8au`2.ka.`Y#E#Y",
".A.Q.D`6aIan.q.Y`8.q`8`8`8#U`8#U`8`8#U.q.v`s``.H#M`8.d.IaGaG.S#E",
"#e.z.D#Oap.Y`8`8aY#J.v.v`8`8`8`8#U`8.q.qaL#t#c#q`O`H`8aOaGaG.S#Y",
"#e.Q`La0`a.Y`8aC`O.H.Z.v.v`8#U`8.q.q.q.v.v#daB#F``.#`8.Y.4#R`##E",
"#e.QaN`I.l.q.vaJ#j#n``.#aL.q.q.q`8.q.q.v.U.c````#D`G.q.qaga2`##Y",
".A`LaU`C.YaL.vaf#C#s``ab.U.q.q.q.q.q.q.qaL#3#D`O.W.U.q.v.Ya..a#E",
".0.h`X`a.v.v.U.F``avava6aL.q.q.q.q.q`q.v.q.q.v`GaL.q.q.q.qaGaZ#E",
"#p`LaaaTaL.q.v#0#d``.F.U.q.q.q.q.q`q.q.q`8`8.v.q.q.q`8.q.v`0`B#e",
"#f#`aa`JaL.q.q.UaL#0.v.q.q.q.q.v.v.v.v.q`x`x.q.q`8.q.q.q.vaD`P`b",
"alaK.V#7.v.q.q.q.v.v.q`8`8`8.v.q.v.q`j.v`xao.3`8.q`8`D`8aL`0.e.P",
"`t`P`X.u.v`8.q.q.q.q.q`x.g`D.Ua7#3a6.Z.v`x.gao.3.3`x`x.v`D#`ak`A",
"`4.6aUaw.q.q.q.q.q.q`DaY`e.q.v#3`1`1abaL.v`x.g.g.g`x.v.UaC.N`u.Q",
"`4#KaN.Q`D.vau`x`Dao`e.T`x.v.v.v#0`jaL.v.v.q.q.3`D.v.U.M`L#L.f`d",
"#o.ZaJaUaq.U.v`xao`e.g.3.v.q.q.q.v.v.v.q.v.v.v.v`V.U.M#S.p#.`g`N",
".m.f#haU.QaYaL.v.q.q.v.v.q.v.q.v.q.q.v.q.v`q.v.U.U.7at`X#u.Z`K`N",
"#e#W#iaQ.D`QaqaLaL.v.v.v.v.v.q.v.v.v.v.vaL.U.UaC#S#T.p`Z`n.K.N.N",
".Aa#a#`uaN`a.DaR`U`D.v.v.v.U.v.U.v.U.v`G#2#M`o#H`..e.y`bai#t`1`1",
".o.8#1aJ.K.R.yar`i#K.5.Xaq`U`U`U`U.X.taGaR.6.5`B`J.``q`VaH.Faf#5",
"#6aRah#Aat#2au.Bag`J`W`W`y`B`B`B`B`B`B`J#PaO.`.`.Yauasacac.C#aat",
"`c.r#g`s`V#U`8.Yau.`.`.B`H`v`v`v`v.`.``H.`.``2.Y.Y#Uac#G#Gan##`l",
"al#O#vaXas.L`qaMaMaMaMaMaM`HaM`HaM`H`HaMaMaMaMaM`HaM.L`w`7`7`7.G"
};
